;TYPE=PLATED
;Layer: PTH_Through
;EasyEDA Pro Client v2.2.40.8, 2025-08-23 19:04:24
;Gerber Generator version 0.3
M48
METRIC,LZ,0000.00000
;Hole size 1 = 0.30480 METRIC
T01C0.30480
;Hole size 2 = 0.50002 METRIC
T02C0.50002
;Hole size 3 = 0.60000 METRIC
T03C0.60000
;Hole size 4 = 0.90002 METRIC
T04C0.90002
;Hole size 5 = 0.91440 METRIC
T05C0.91440
;Hole size 6 = 1.00000 METRIC
T06C1.00000
;Hole size 7 = 1.02000 METRIC
T07C1.02000
;Hole size 8 = 1.04999 METRIC
T08C1.04999
;Hole size 9 = 1.05999 METRIC
T09C1.05999
;Hole size 10 = 1.20000 METRIC
T10C1.20000
;Hole size 11 = 1.50002 METRIC
T11C1.50002
;Hole size 12 = 2.00000 METRIC
T12C2.00000
%
G05
G90
T01
X113.13287Y-159.09099
X94.63786Y-160.06001
X187.04687Y-140.041
X188.74486Y-139.105
X128.75387Y-95.46399
X101.11486Y-97.449
X119.60987Y-138.13599
X117.57787Y-136.35799
X95.35414Y-136.35799
X93.83014Y-138.13599
X150.72487Y-15.07299
X146.48853Y-14.04481
X110.84687Y-15.07299
X103.14813Y-13.97825
X107.41787Y-7.19899
X104.16413Y-7.40474
X103.5304Y-15.15301
X105.8164Y-15.66101
X101.82987Y-36.91699
X95.98787Y-76.54099
X84.55787Y-110.32299
X78.20787Y-116.67299
X74.01687Y-126.57899
X59.79287Y-134.45299
X43.00614Y-12.75397
X187.325Y-28.46095
X141.06098Y-18.28998
X154.01498Y-29.21198
X209.42605Y-27.09205
X161.03295Y-32.51149
X154.051Y-30.49295
X11.93089Y-69.596
X36.068Y-41.402
X38.1Y-39.624
X50.546Y-43.942
X53.594Y-45.72
X68.18691Y-49.04359
X74.9395Y-47.625
X66.167Y-91.79941
X72.19594Y-111.125
X44.04208Y-133.94499
X16.22908Y-134.32599
X91.24594Y-38.227
X101.15194Y-26.797
X107.609Y-26.035
X109.641Y-26.035
X189.84087Y-32.218
X187.51394Y-13.98133
X189.05384Y-7.35622
X187.44661Y-7.31108
X62.42695Y-62.50559
X63.69695Y-61.48959
X67.76095Y-55.90159
X74.11095Y-48.28159
X82.19349Y-70.93306
X91.41308Y-69.93699
X185.64708Y-62.825
X82.23895Y-83.4419
X98.65208Y-90.384
X114.90808Y-90.12999
X130.52908Y-91.39999
X148.81708Y-89.622
X155.54808Y-90.89199
X164.94608Y-90.63799
X182.47208Y-94.95599
X63.18895Y-57.17159
X78.42895Y-88.41359
X80.71495Y-90.69959
X98.65208Y-111.53902
X183.61508Y-105.751
X56.58495Y-59.96559
X54.80695Y-61.74359
X64.71295Y-73.17359
X66.49095Y-87.14359
X82.23895Y-123.71959
X98.65208Y-133.81799
X184.25008Y-127.468
X62.93495Y-53.36159
X71.31695Y-51.83759
X77.15895Y-57.67959
X84.01695Y-62.50559
X84.52495Y-83.33359
X91.89095Y-90.19159
X178.53508Y-154.77299
X55.27192Y-73.97862
X62.00887Y-60.47359
X62.77087Y-60.98159
X70.89887Y-62.25159
X64.29487Y-62.50559
X68.10487Y-58.18759
X64.80287Y-102.38359
X55.753Y-32.766
X65.405Y-32.766
X89.40495Y-31.75
X59.24906Y-36.64306
X69.15506Y-36.64306
X50.165Y-28.575
X114.935Y-23.749
X135.75995Y-29.591
X53.086Y-29.14294
X159.766Y-25.39949
X38.481Y-20.955
X43.45808Y-18.7833
X63.754Y-35.56
X67.056Y-35.56
X169.926Y-34.29
X171.45Y-33.782
X52.578Y-37.338
X58.166Y-37.846
X60.452Y-38.1
X67.818Y-37.338
X194.564Y-31.242
X208.28Y-26.72994
X57.02295Y-73.60399
X65.91295Y-72.33399
X67.94495Y-65.98399
X62.35695Y-94.05099
X67.85087Y-64.68107
X8.636Y-36.83
X63.72809Y-37.74491
X61.83691Y-39.63609
X82.15691Y-57.25363
X97.31799Y-21.11306
X140.843Y-25.08606
X157.53491Y-25.84806
X179.20005Y-33.782
X17.10507Y-132.89293
X70.612Y-44.831
X51.308Y-45.847
X41.148Y-45.847
X26.67Y-51.689
X79.27213Y-53.25301
X66.80195Y-59.76099
X24.892Y-38.862
X33.274Y-47.244
X38.608Y-47.244
X61.468Y-42.672
X67.86296Y-86.46541
X63.79896Y-60.04941
X67.10096Y-56.49341
X57.912Y-62.738
X56.896Y-62.23
X67.818Y-62.23
X69.342Y-66.04
X29.972Y-64.262
X54.71541Y-76.81341
X56.74741Y-76.81341
X57.15Y-74.422
X58.27141Y-75.79741
X80.05496Y-81.89341
X82.08696Y-92.66999
X98.34296Y-93.17799
X117.90096Y-84.796
X99.86696Y-101.81399
X114.85296Y-111.71999
X81.32496Y-83.16341
X96.31096Y-87.48141
X110.78896Y-87.48141
X132.48792Y-125.56299
X132.48792Y-131.65899
X80.81696Y-86.46541
X83.86496Y-85.95741
X93.00896Y-82.14741
X130.34696Y-90.02141
X146.60296Y-90.52941
X148.23592Y-101.94099
X147.98192Y-113.11699
X82.08696Y-91.29141
X86.40496Y-91.54541
X163.76637Y-81.24
X166.52392Y-93.17799
X77.00696Y-91.29141
X91.99296Y-85.70341
X165.65296Y-89.25941
X81.43354Y-91.908
X99.46754Y-92.92399
X181.76354Y-87.844
X36.38906Y-60.579
X38.481Y-62.738
X116.84Y-31.623
X138.938Y-31.115
X85.09Y-38.227
X65.786Y-38.735
T02
X97.06399Y-16.60401G85X97.06399Y-17.60395
X101.56401Y-8.30401G85X101.56401Y-9.30398
X101.56401Y-11.404G85X101.56401Y-12.40398
X101.56401Y-15.50399G85X101.56401Y-16.50397
X111.16099Y-16.60401G85X111.16099Y-17.60395
X115.66101Y-8.30401G85X115.66101Y-9.30398
X115.66101Y-11.404G85X115.66101Y-12.40398
X115.66101Y-15.50399G85X115.66101Y-16.50397
X139.86299Y-16.60401G85X139.86299Y-17.60395
X144.36301Y-8.30401G85X144.36301Y-9.30398
X144.36301Y-11.404G85X144.36301Y-12.40398
X144.36301Y-15.50399G85X144.36301Y-16.50397
X154.84899Y-16.60401G85X154.84899Y-17.60395
X159.34901Y-8.30401G85X159.34901Y-9.30398
X159.34901Y-11.404G85X159.34901Y-12.40398
X159.34901Y-15.50399G85X159.34901Y-16.50397
X181.39199Y-16.60401G85X181.39199Y-17.60395
X185.89201Y-8.30401G85X185.89201Y-9.30398
X185.89201Y-11.404G85X185.89201Y-12.40398
X185.89201Y-15.50399G85X185.89201Y-16.50397
X195.86999Y-16.60401G85X195.86999Y-17.60395
X200.37001Y-8.30401G85X200.37001Y-9.30398
X200.37001Y-11.404G85X200.37001Y-12.40398
X200.37001Y-15.50399G85X200.37001Y-16.50397
X34.83399Y-16.60401G85X34.83399Y-17.60395
X39.33401Y-8.30401G85X39.33401Y-9.30398
X39.33401Y-11.404G85X39.33401Y-12.40398
X39.33401Y-15.50399G85X39.33401Y-16.50397
X86.01499Y-16.60401G85X86.01499Y-17.60395
X90.51501Y-8.30401G85X90.51501Y-9.30398
X90.51501Y-11.404G85X90.51501Y-12.40398
X90.51501Y-15.50399G85X90.51501Y-16.50397
T03
X42.98599Y-34.798
X50.48601Y-34.798
X75.692Y-21.14199
X75.692Y-28.64201
X66.294Y-21.01499
X66.294Y-28.51501
X76.454Y-60.77301
X76.454Y-53.27299
X42.164Y-28.26101
X42.164Y-20.76099
X96.647Y-27.62601
X96.647Y-20.12599
X99.568Y-27.62601
X99.568Y-20.12599
X96.647Y-36.51601
X96.647Y-29.01599
X99.568Y-29.01599
X99.568Y-36.51601
X42.98599Y-38.227
X50.48601Y-38.227
X43.11299Y-53.721
X50.61301Y-53.721
X157.607Y-27.62601
X157.607Y-20.12599
X160.528Y-27.62601
X160.528Y-20.12599
X157.607Y-36.64301
X157.607Y-29.14299
X160.528Y-36.64301
X160.528Y-29.14299
X115.189Y-27.75301
X115.189Y-20.25299
X118.237Y-20.12599
X118.237Y-27.62601
X115.189Y-36.64301
X115.189Y-29.14299
X118.237Y-29.14299
X118.237Y-36.64301
X139.065Y-27.62601
X139.065Y-20.12599
X142.113Y-27.62601
X142.113Y-20.12599
X139.065Y-36.51601
X139.065Y-29.01599
X142.113Y-36.51601
X142.113Y-29.01599
X181.0385Y-27.56251
X181.0385Y-20.06249
X183.388Y-27.62601
X183.388Y-20.12599
X180.975Y-36.51601
X180.975Y-29.01599
X183.261Y-36.51601
X183.261Y-29.01599
X198.9455Y-27.56251
X198.9455Y-20.06249
X201.1045Y-27.56251
X201.1045Y-20.06249
X198.882Y-36.51601
X198.882Y-29.01599
X201.168Y-36.51601
X201.168Y-29.01599
X38.28699Y-59.563
X45.78701Y-59.563
X28.38099Y-59.563
X35.88101Y-59.563
X81.28Y-21.14199
X81.28Y-28.64201
X85.852Y-21.14199
X85.852Y-28.64201
X78.54599Y-47.625
X86.04601Y-47.625
X84.582Y-63.43299
X84.582Y-70.93301
X79.56199Y-88.265
X87.06201Y-88.265
X79.56199Y-109.601
X87.06201Y-109.601
X79.56199Y-130.683
X87.06201Y-130.683
X79.68899Y-152.019
X87.18901Y-152.019
X53.91501Y-51.308
X46.41499Y-51.308
X38.862Y-23.17399
X38.862Y-30.67401
X36.322Y-23.17399
X36.322Y-30.67401
X33.655Y-23.17399
X33.655Y-30.67401
X30.226Y-23.04699
X30.226Y-30.54701
X24.257Y-23.04699
X24.257Y-30.54701
X21.209Y-23.04699
X21.209Y-30.54701
T04
X53.975Y-30.988
X53.975Y-33.528
X53.975Y-36.068
X53.975Y-38.608
X61.595Y-30.988
X61.595Y-33.528
X61.595Y-36.068
X61.595Y-38.608
T05
X50.178Y-29.845
X42.278Y-29.845
X21.41499Y-10.71905
X21.41499Y-12.71905
X28.11501Y-10.71905
X28.11501Y-12.71905
X23.765Y-13.91905
X25.765Y-13.91905
X102.489Y-35.065
X102.489Y-27.165
X154.813Y-27.165
X154.813Y-35.065
X112.522Y-27.165
X112.522Y-35.065
X145.034Y-34.811
X145.034Y-26.911
X186.309Y-34.811
X186.309Y-26.911
X195.961Y-26.911
X195.961Y-34.811
T06
X21.931Y-145.73987
X19.431Y-145.73987
X16.93101Y-145.73987
X21.423Y-128.34087
X18.923Y-128.34087
X16.42301Y-128.34087
X21.55Y-110.56087
X19.05Y-110.56087
X16.55Y-110.56087
X68.453Y-42.545
X70.993Y-42.545
X73.533Y-42.545
X76.073Y-42.545
X78.613Y-42.545
X81.153Y-42.545
X83.693Y-42.545
X68.453Y-34.925
X70.993Y-34.925
X73.533Y-34.925
X76.073Y-34.925
X78.613Y-34.925
X81.153Y-34.925
X83.693Y-34.925
X86.36Y-54.356
X86.36Y-59.436
X62.103Y-92.81541
X67.183Y-92.81541
X62.09091Y-48.02759
X67.17091Y-48.02759
X11.85088Y-29.083
X16.85087Y-29.083
X81.01391Y-72.15759
X75.93391Y-72.15759
X67.818Y-30.734
X72.898Y-30.734
X110.06912Y-24.511
X105.06913Y-24.511
X188.722Y-57.404
X183.642Y-57.404
X172.72Y-78.232
X167.64Y-78.232
X156.464Y-99.695
X151.384Y-99.695
X139.192Y-120.904
X134.112Y-120.904
X122.428Y-141.986
X117.348Y-141.986
X106.426Y-162.941
X101.346Y-162.941
X55.245Y-43.307
X55.245Y-48.387
X152.36012Y-24.257
X147.36013Y-24.257
X193.63512Y-24.257
X188.63513Y-24.257
X205.232Y-18.923
X205.232Y-13.843
X83.947Y-124.587
X78.867Y-124.587
X81.14091Y-66.44259
X76.06091Y-66.44259
X9.398Y-77.978
X14.478Y-77.978
X53.848Y-60.071
X48.768Y-60.071
T07
X9.398Y-52.832
X11.938Y-52.832
X14.478Y-52.832
X17.018Y-52.832
X39.878Y-47.752
X11.938Y-37.592
X19.558Y-52.832
X22.098Y-52.832
X24.638Y-52.832
X27.178Y-52.832
X29.718Y-52.832
X32.258Y-52.832
X34.798Y-52.832
X37.338Y-52.832
X39.878Y-52.832
X39.878Y-37.592
X37.338Y-37.592
X34.798Y-37.592
X32.258Y-37.592
X29.718Y-37.592
X27.178Y-37.592
X24.638Y-37.592
X22.098Y-37.592
X19.558Y-37.592
X17.018Y-37.592
X14.478Y-37.592
X6.858Y-52.832
X39.878Y-45.212
X9.398Y-37.592
X39.878Y-40.132
X39.878Y-42.672
X39.878Y-50.292
X6.858Y-37.592
T08
X28.702Y-64.897
X31.242Y-64.897
X33.782Y-64.897
X36.322Y-64.897
T09
X31.115Y-15.50993
X31.115Y-4.81007
T10
X11.60089Y-17.57782G85X9.10087Y-17.57782
X9.10112Y-11.37818G85X11.60115Y-11.37818
X5.65087Y-15.82809G85X5.65087Y-13.32807
T11
X59.06211Y-15.84211
X56.56212Y-18.3421
X51.56213Y-15.84211
X46.56214Y-18.3421
X44.06214Y-15.84211
X56.56212Y-6.04213
X46.56214Y-6.04213
X81.16011Y-15.84211
X78.66012Y-18.3421
X73.66013Y-15.84211
X68.66014Y-18.3421
X66.16014Y-15.84211
X78.66012Y-6.04213
X68.66014Y-6.04213
X120.24208Y-44.49013
X132.74192Y-44.49013
X120.24208Y-49.49012
X132.74192Y-49.49012
X136.49808Y-44.49013
X148.99792Y-44.49013
X136.49808Y-49.49012
X148.99792Y-49.49012
X153.64308Y-44.61713
X166.14292Y-44.61713
X153.64308Y-49.61712
X166.14292Y-49.61712
X170.53408Y-44.49013
X183.03392Y-44.49013
X170.53408Y-49.49012
X183.03392Y-49.49012
X187.04408Y-44.49013
X199.54392Y-44.49013
X187.04408Y-49.49012
X199.54392Y-49.49012
X87.85708Y-64.93713
X100.35692Y-64.93713
X87.85708Y-69.93712
X100.35692Y-69.93712
X103.98608Y-64.93713
X116.48592Y-64.93713
X103.98608Y-69.93712
X116.48592Y-69.93712
X120.24208Y-65.06413
X132.74192Y-65.06413
X120.24208Y-70.06412
X132.74192Y-70.06412
X136.75208Y-65.19113
X149.25192Y-65.19113
X136.75208Y-70.19112
X149.25192Y-70.19112
X153.77008Y-65.44513
X166.26992Y-65.44513
X153.77008Y-70.44512
X166.26992Y-70.44512
X170.40708Y-65.44513
X182.90692Y-65.44513
X170.40708Y-70.44512
X182.90692Y-70.44512
X187.17108Y-65.44513
X199.67092Y-65.44513
X187.17108Y-70.44512
X199.67092Y-70.44512
X62.07608Y-107.10113
X74.57592Y-107.10113
X62.07608Y-112.10112
X74.57592Y-112.10112
X87.98408Y-85.89213
X100.48392Y-85.89213
X87.98408Y-90.89212
X100.48392Y-90.89212
X103.98608Y-85.89213
X116.48592Y-85.89213
X103.98608Y-90.89212
X116.48592Y-90.89212
X119.98808Y-86.01913
X132.48792Y-86.01913
X119.98808Y-91.01912
X132.48792Y-91.01912
X136.75208Y-86.27313
X149.25192Y-86.27313
X136.75208Y-91.27312
X149.25192Y-91.27312
X154.02408Y-86.40013
X166.52392Y-86.40013
X154.02408Y-91.40012
X166.52392Y-91.40012
X170.40708Y-86.40013
X182.90692Y-86.40013
X170.40708Y-91.40012
X182.90692Y-91.40012
X187.29808Y-86.40013
X199.79792Y-86.40013
X187.29808Y-91.40012
X199.79792Y-91.40012
X87.98408Y-107.10113
X100.48392Y-107.10113
X87.98408Y-112.10112
X100.48392Y-112.10112
X104.11308Y-107.10113
X116.61292Y-107.10113
X104.11308Y-112.10112
X116.61292Y-112.10112
X119.98808Y-107.10113
X132.48792Y-107.10113
X119.98808Y-112.10112
X132.48792Y-112.10112
X137.00608Y-107.22813
X149.50592Y-107.22813
X137.00608Y-112.22812
X149.50592Y-112.22812
X154.02408Y-107.48213
X166.52392Y-107.48213
X154.02408Y-112.48212
X166.52392Y-112.48212
X170.40708Y-107.35513
X182.90692Y-107.35513
X170.40708Y-112.35512
X182.90692Y-112.35512
X187.42508Y-107.35513
X199.92492Y-107.35513
X187.42508Y-112.35512
X199.92492Y-112.35512
X87.98408Y-128.31013
X100.48392Y-128.31013
X87.98408Y-133.31012
X100.48392Y-133.31012
X104.24008Y-128.31013
X116.73992Y-128.31013
X104.24008Y-133.31012
X116.73992Y-133.31012
X120.11508Y-128.43713
X132.61492Y-128.43713
X120.11508Y-133.43712
X132.61492Y-133.43712
X137.00608Y-128.43713
X149.50592Y-128.43713
X137.00608Y-133.43712
X149.50592Y-133.43712
X154.15108Y-128.69113
X166.65092Y-128.69113
X154.15108Y-133.69112
X166.65092Y-133.69112
X170.40708Y-128.56413
X182.90692Y-128.56413
X170.40708Y-133.56412
X182.90692Y-133.56412
X187.55208Y-128.56413
X200.05192Y-128.56413
X187.55208Y-133.56412
X200.05192Y-133.56412
X88.11108Y-149.51913
X100.61092Y-149.51913
X88.11108Y-154.51912
X100.61092Y-154.51912
X104.24008Y-149.51913
X116.73992Y-149.51913
X104.24008Y-154.51912
X116.73992Y-154.51912
X119.98808Y-149.64613
X132.48792Y-149.64613
X119.98808Y-154.64612
X132.48792Y-154.64612
X137.00608Y-149.77313
X149.50592Y-149.77313
X137.00608Y-154.77312
X149.50592Y-154.77312
X154.15108Y-150.02713
X166.65092Y-150.02713
X154.15108Y-155.02712
X166.65092Y-155.02712
X170.40708Y-149.77313
X182.90692Y-149.77313
X170.40708Y-154.77312
X182.90692Y-154.77312
X187.55208Y-149.77313
X200.05192Y-149.77313
X187.55208Y-154.77312
X200.05192Y-154.77312
X42.77208Y-107.22813
X55.27192Y-107.22813
X42.77208Y-112.22812
X55.27192Y-112.22812
X30.45308Y-122.21413
X42.95292Y-122.21413
X30.45308Y-127.21412
X42.95292Y-127.21412
X42.77208Y-137.20013
X55.27192Y-137.20013
X42.77208Y-142.20012
X55.27192Y-142.20012
X62.33008Y-137.20013
X74.82992Y-137.20013
X62.33008Y-142.20012
X74.82992Y-142.20012
X49.63008Y-122.34113
X62.12992Y-122.34113
X49.63008Y-127.34112
X62.12992Y-127.34112
X100.10292Y-49.48987
X87.60308Y-49.48987
X100.10292Y-44.48988
X87.60308Y-44.48988
X116.73992Y-49.61687
X104.24008Y-49.61687
X116.73992Y-44.61688
X104.24008Y-44.61688
T12
X15.03101Y-138.58988G85X15.03101Y-138.88988
X23.83099Y-138.58988G85X23.83099Y-138.88988
X14.52301Y-121.19088G85X14.52301Y-121.49088
X23.32299Y-121.19088G85X23.32299Y-121.49088
X14.65001Y-103.41088G85X14.65001Y-103.71088
X23.44999Y-103.41088G85X23.44999Y-103.71088
M30