;TYPE=PLATED
;Layer: PTH_Through_Via
;EasyEDA Pro Client v2.2.40.8, 2025-08-23 19:04:24
;Gerber Generator version 0.3
M48
METRIC,LZ,0000.00000
;Hole size 1 = 0.30480 METRIC
T01C0.30480
%
G05
G90
T01
X113.13287Y-159.09099
X94.63786Y-160.06001
X187.04687Y-140.041
X188.74486Y-139.105
X128.75387Y-95.46399
X101.11486Y-97.449
X119.60987Y-138.13599
X117.57787Y-136.35799
X95.35414Y-136.35799
X93.83014Y-138.13599
X150.72487Y-15.07299
X146.48853Y-14.04481
X110.84687Y-15.07299
X103.14813Y-13.97825
X107.41787Y-7.19899
X104.16413Y-7.40474
X103.5304Y-15.15301
X105.8164Y-15.66101
X101.82987Y-36.91699
X95.98787Y-76.54099
X84.55787Y-110.32299
X78.20787Y-116.67299
X74.01687Y-126.57899
X59.79287Y-134.45299
X43.00614Y-12.75397
X187.325Y-28.46095
X141.06098Y-18.28998
X154.01498Y-29.21198
X209.42605Y-27.09205
X161.03295Y-32.51149
X154.051Y-30.49295
X11.93089Y-69.596
X36.068Y-41.402
X38.1Y-39.624
X50.546Y-43.942
X53.594Y-45.72
X68.18691Y-49.04359
X74.9395Y-47.625
X66.167Y-91.79941
X72.19594Y-111.125
X44.04208Y-133.94499
X16.22908Y-134.32599
X91.24594Y-38.227
X101.15194Y-26.797
X107.609Y-26.035
X109.641Y-26.035
X189.84087Y-32.218
X187.51394Y-13.98133
X189.05384Y-7.35622
X187.44661Y-7.31108
X62.42695Y-62.50559
X63.69695Y-61.48959
X67.76095Y-55.90159
X74.11095Y-48.28159
X82.19349Y-70.93306
X91.41308Y-69.93699
X185.64708Y-62.825
X82.23895Y-83.4419
X98.65208Y-90.384
X114.90808Y-90.12999
X130.52908Y-91.39999
X148.81708Y-89.622
X155.54808Y-90.89199
X164.94608Y-90.63799
X182.47208Y-94.95599
X63.18895Y-57.17159
X78.42895Y-88.41359
X80.71495Y-90.69959
X98.65208Y-111.53902
X183.61508Y-105.751
X56.58495Y-59.96559
X54.80695Y-61.74359
X64.71295Y-73.17359
X66.49095Y-87.14359
X82.23895Y-123.71959
X98.65208Y-133.81799
X184.25008Y-127.468
X62.93495Y-53.36159
X71.31695Y-51.83759
X77.15895Y-57.67959
X84.01695Y-62.50559
X84.52495Y-83.33359
X91.89095Y-90.19159
X178.53508Y-154.77299
X55.27192Y-73.97862
X62.00887Y-60.47359
X62.77087Y-60.98159
X70.89887Y-62.25159
X64.29487Y-62.50559
X68.10487Y-58.18759
X64.80287Y-102.38359
X55.753Y-32.766
X65.405Y-32.766
X89.40495Y-31.75
X59.24906Y-36.64306
X69.15506Y-36.64306
X50.165Y-28.575
X114.935Y-23.749
X135.75995Y-29.591
X53.086Y-29.14294
X159.766Y-25.39949
X38.481Y-20.955
X43.45808Y-18.7833
X63.754Y-35.56
X67.056Y-35.56
X169.926Y-34.29
X171.45Y-33.782
X52.578Y-37.338
X58.166Y-37.846
X60.452Y-38.1
X67.818Y-37.338
X194.564Y-31.242
X208.28Y-26.72994
X57.02295Y-73.60399
X65.91295Y-72.33399
X67.94495Y-65.98399
X62.35695Y-94.05099
X67.85087Y-64.68107
X8.636Y-36.83
X63.72809Y-37.74491
X61.83691Y-39.63609
X82.15691Y-57.25363
X97.31799Y-21.11306
X140.843Y-25.08606
X157.53491Y-25.84806
X179.20005Y-33.782
X17.10507Y-132.89293
X70.612Y-44.831
X51.308Y-45.847
X41.148Y-45.847
X26.67Y-51.689
X79.27213Y-53.25301
X66.80195Y-59.76099
X24.892Y-38.862
X33.274Y-47.244
X38.608Y-47.244
X61.468Y-42.672
X67.86296Y-86.46541
X63.79896Y-60.04941
X67.10096Y-56.49341
X57.912Y-62.738
X56.896Y-62.23
X67.818Y-62.23
X69.342Y-66.04
X29.972Y-64.262
X54.71541Y-76.81341
X56.74741Y-76.81341
X57.15Y-74.422
X58.27141Y-75.79741
X80.05496Y-81.89341
X82.08696Y-92.66999
X98.34296Y-93.17799
X117.90096Y-84.796
X99.86696Y-101.81399
X114.85296Y-111.71999
X81.32496Y-83.16341
X96.31096Y-87.48141
X110.78896Y-87.48141
X132.48792Y-125.56299
X132.48792Y-131.65899
X80.81696Y-86.46541
X83.86496Y-85.95741
X93.00896Y-82.14741
X130.34696Y-90.02141
X146.60296Y-90.52941
X148.23592Y-101.94099
X147.98192Y-113.11699
X82.08696Y-91.29141
X86.40496Y-91.54541
X163.76637Y-81.24
X166.52392Y-93.17799
X77.00696Y-91.29141
X91.99296Y-85.70341
X165.65296Y-89.25941
X81.43354Y-91.908
X99.46754Y-92.92399
X181.76354Y-87.844
X36.38906Y-60.579
X38.481Y-62.738
X116.84Y-31.623
X138.938Y-31.115
X85.09Y-38.227
X65.786Y-38.735
M30