G04 Layer: DrillDrawingLayer*
G04 EasyEDA Pro v2.2.40.8, 2025-08-23 19:04:23*
G04 Gerber Generator version 0.3*
G04 Scale: 100 percent, Rotated: No, Reflected: No*
G04 Dimensions in millimeters*
G04 Leading zeros omitted, absolute positions, 4 integers and 5 decimals*
G04 Generated by one-click*
%FSLAX45Y45*%
%MOMM*%
%AMIconRect*4,1,4,0.2,-0.2,-0.2,-0.2,-0.2,0.2,0.2,0.2,0.2,-0.2,0*4,0,4,0.166667,-0.166667,0.166667,0.166667,-0.166667,0.166667,-0.166667,-0.166667,0.166667,-0.166667,0*%
%AMIconTriangle*4,1,3,-0.242567,0.171767,0.242567,0.171767,0,-0.2706,-0.242567,0.171767,0*4,0,3,-0.189767,0.1386,0,-0.1953,0.190167,0.1386,-0.189767,0.1386,0*%
%AMIconStar6*4,1,12,0.0862,0.1492,0.213233,0.123367,0.172367,0,0.213233,-0.1229,0.0862,-0.148733,0,-0.245767,-0.085767,-0.148733,-0.213267,-0.1229,-0.171933,0,-0.213267,0.1229,-0.085767,0.1492,0,0.245767,0.0862,0.1492,0*4,0,12,-0.000333,0.195333,-0.064333,0.122667,-0.169667,0.097667,-0.138333,-0.005333,-0.169667,-0.098,-0.064333,-0.122667,-0.000333,-0.195667,0.064333,-0.122667,0.169667,-0.098,0.138667,0.005,0.169667,0.098,0.064333,0.122333,-0.000333,0.195333,0*%
%AMIconStar4*4,1,8,-0.222667,0.222667,0,0.144667,0.222667,0.222667,0.144667,0,0.222667,-0.222667,0,-0.144667,-0.217433,-0.222667,-0.144667,0,-0.222667,0.222667,0*4,0,8,0.166667,-0.166667,0.108,0,0.166667,0.166667,0,0.108,-0.166667,0.166667,-0.108,0,-0.166667,-0.166667,0,-0.108,0.166667,-0.166667,0*%
%AMIconPlus*4,1,12,0.124,-0.2,-0.124,-0.2,-0.124,-0.124,-0.2,-0.124,-0.2,0.124,-0.124,0.124,-0.124,0.2,0.124,0.2,0.124,0.124,0.2,0.124,0.2,-0.124,0.124,-0.124,0.124,-0.2,0*4,0,12,0.090667,-0.166667,0.090667,-0.090667,0.166667,-0.090667,0.166667,0.090667,0.090667,0.090667,0.090667,0.166667,-0.090667,0.166667,-0.090667,0.090667,-0.166667,0.090667,-0.166667,-0.090667,-0.090667,-0.090667,-0.090667,-0.166667,0.090667,-0.166667,0*%
%AMIconX*4,1,16,0.2,-0.2,0.054533,-0.2,0,-0.145467,-0.054533,-0.2,-0.2,-0.2,-0.2,-0.054533,-0.145467,0,-0.2,0.054533,-0.2,0.2,-0.054533,0.2,0,0.145467,0.054533,0.2,0.2,0.2,0.2,0.054533,0.145467,0,0.2,-0.054533,0.2,-0.2,0*4,0,16,0.1668,-0.1664,0.1668,-0.068467,0.097933,0.000067,0.1668,0.068467,0.1668,0.1665,0.068467,0.1665,0,0.097933,-0.068467,0.1665,-0.1668,0.1665,-0.1668,0.068467,-0.097933,0.000067,-0.1668,-0.068467,-0.1668,-0.1664,-0.068467,-0.1664,0,-0.097933,0.068467,-0.1664,0.1668,-0.1664,0*%
%AMIconDiamond*4,1,4,0,-0.26,-0.26,0,0,0.26,0.26,0,0,-0.26,0*4,0,4,0,-0.203433,0.203433,0,0,0.2036,-0.203433,0,0,-0.203433,0*%
%AMIconRect2*4,1,6,0.2,-0.2,-0.2,-0.2,-0.2,0.2,-0.1668,0.1665,-0.166667,-0.166667,0.1668,-0.166667,0.2,-0.2,0*4,1,6,0.2,-0.2,0.1668,-0.166667,0.1668,0.1665,-0.1668,0.1665,-0.2,0.2,0.2,0.2,0.2,-0.2,0*4,1,6,0.133467,-0.133333,-0.133333,-0.133333,-0.133333,0.133467,-0.1,0.100133,-0.1,-0.1,0.100133,-0.1,0.133467,-0.133333,0*4,1,6,0.133467,-0.133333,0.100133,-0.1,0.100133,0.100133,-0.1,0.100133,-0.133333,0.133467,0.133467,0.133467,0.133467,-0.133333,0*%
%AMCharA*4,1,8,-0.122067,-0.1864,-0.1532,-0.174533,-0.015133,0.1864,0.016,0.1864,0.1532,-0.174533,0.122067,-0.1864,0.0764,-0.0662,-0.076133,-0.0662,-0.122067,-0.1864,0*4,0,3,-0.063333,-0.032867,0.063667,-0.032867,0.000333,0.1338,-0.063333,-0.032867,0*%
%AMCharB*4,1,17,-0.131133,-0.1894,-0.131133,0.1894,0.033533,0.1894,0.088067,0.172467,0.1114,0.151733,0.131133,0.114133,0.131,0.066467,0.114333,0.0338,0.094733,0.0128,0.086467,0.0084,0.094733,0.003867,0.114333,-0.017133,0.131,-0.0498,0.131133,-0.114133,0.1114,-0.151733,0.088067,-0.1726,0.033533,-0.1894,-0.131133,-0.1894,0*4,0,10,-0.0978,-0.156067,0.030867,-0.156067,0.073867,-0.142,0.085867,-0.130133,0.099533,-0.1028,0.099533,-0.0614,0.085867,-0.034533,0.073867,-0.0226,0.030867,-0.008667,-0.0978,-0.008667,-0.0978,-0.156067,0*4,0,10,-0.0978,0.024667,0.0308,0.024667,0.073867,0.039267,0.085867,0.051267,0.099533,0.078067,0.099533,0.102667,0.085867,0.130133,0.073867,0.142,0.030867,0.156067,-0.0978,0.156067,-0.0978,0.024667,0*%
%AMCharC*4,1,36,-0.027533,-0.1894,-0.071933,-0.1684,-0.1084,-0.130667,-0.125333,-0.096,-0.1428,-0.041333,-0.1428,0.041333,-0.1244,0.098,-0.105267,0.135067,-0.067533,0.171667,-0.027533,0.1894,0.038533,0.1894,0.083067,0.1684,0.119467,0.130667,0.1428,0.083,0.112867,0.0684,0.090867,0.113467,0.0614,0.142933,0.034733,0.156067,-0.0236,0.156067,-0.050333,0.142933,-0.079733,0.113467,-0.094067,0.084333,-0.109467,0.0386,-0.109467,-0.0386,-0.094067,-0.084333,-0.079733,-0.113467,-0.050333,-0.142867,-0.0236,-0.156067,0.034733,-0.156067,0.0614,-0.142867,0.090867,-0.113467,0.112867,-0.0684,0.1428,-0.083,0.119467,-0.130667,0.083067,-0.1684,0.038533,-0.1894,-0.027533,-0.1894,0*%
%AMCharD*4,1,12,-0.132,-0.1894,-0.132,0.1894,-0.000067,0.1894,0.054533,0.172467,0.0968,0.130933,0.1144,0.096067,0.132,0.041333,0.132,-0.041333,0.113467,-0.098267,0.093933,-0.134933,0.054533,-0.1726,-0.000067,-0.1894,-0.132,-0.1894,0*4,0,12,-0.098667,-0.156067,-0.002667,-0.156067,0.040333,-0.142133,0.068333,-0.113467,0.083267,-0.0842,0.098667,-0.0386,0.098667,0.0386,0.083267,0.0842,0.068333,0.113467,0.040333,0.142133,-0.002667,0.156067,-0.098667,0.156067,-0.098667,-0.156067,0*%
%ADD10C,0.254*%
%ADD11IconRect*%
%ADD12C,0.44X0.373333*%
%ADD13IconTriangle*%
%ADD14IconStar6*%
%ADD15IconStar4*%
%ADD16IconPlus*%
%ADD17IconX*%
%ADD18IconDiamond*%
%ADD19IconRect2*%
%ADD20CharA*%
%ADD21CharB*%
%ADD22CharC*%
%ADD23CharD*%
G75*


G04 Circle Start*
G54D10*
G01X1946833Y-8849690D02*
G03X2205559Y-8849690I129363J0D01*
G03X1946833Y-8849690I-129363J0D01*
G01X4290237Y-8851900D02*
G03X4548963Y-8851900I129363J0D01*
G03X4290237Y-8851900I-129363J0D01*
G01X1946833Y-6469710D02*
G03X2205559Y-6469710I129363J0D01*
G03X1946833Y-6469710I-129363J0D01*
G01X4296841Y-6469710D02*
G03X4555567Y-6469710I129363J0D01*
G03X4296841Y-6469710I-129363J0D01*
G04 Circle End*

G04 Drill Drawing Start*
G54D11*
G01X3111500Y-1550993D03*
G01X3111500Y-481007D03*
G54D12*
G01X565087Y-1457808D03*
G01X1035088Y-1757782D03*
G01X1035114Y-1137818D03*
G54D13*
G01X2870200Y-6489700D03*
G01X3124200Y-6489700D03*
G01X3378200Y-6489700D03*
G01X3632200Y-6489700D03*
G54D14*
G01X1452301Y-12134088D03*
G01X1465001Y-10356088D03*
G01X1503101Y-13873988D03*
G01X2332299Y-12134088D03*
G01X2344999Y-10356088D03*
G01X2383099Y-13873988D03*
G54D15*
G01X5397500Y-3860800D03*
G01X5397500Y-3606800D03*
G01X5397500Y-3352800D03*
G01X5397500Y-3098800D03*
G01X6159500Y-3860800D03*
G01X6159500Y-3606800D03*
G01X6159500Y-3352800D03*
G01X6159500Y-3098800D03*
G54D16*
G01X3708400Y-1420398D03*
G01X3708400Y-720400D03*
G01X8826500Y-1420398D03*
G01X8826500Y-720400D03*
G01X9931400Y-1420398D03*
G01X9931400Y-720400D03*
G01X11341100Y-1420398D03*
G01X11341100Y-720400D03*
G01X14211300Y-1420398D03*
G01X14211300Y-720400D03*
G01X15709900Y-1420398D03*
G01X15709900Y-720400D03*
G01X18364200Y-1420398D03*
G01X18364200Y-720400D03*
G01X19812000Y-1420398D03*
G01X19812000Y-720400D03*
G54D17*
G01X2141499Y-1271905D03*
G01X2141499Y-1071905D03*
G01X2376500Y-1391905D03*
G01X2576500Y-1391905D03*
G01X2811501Y-1271905D03*
G01X2811501Y-1071905D03*
G01X4227800Y-2984500D03*
G01X5017800Y-2984500D03*
G01X10248900Y-3506500D03*
G01X10248900Y-2716500D03*
G01X11252200Y-3506500D03*
G01X11252200Y-2716500D03*
G01X14503400Y-3481100D03*
G01X14503400Y-2691100D03*
G01X15481300Y-3506500D03*
G01X15481300Y-2716500D03*
G01X18630900Y-3481100D03*
G01X18630900Y-2691100D03*
G01X19596100Y-3481100D03*
G01X19596100Y-2691100D03*
G54D18*
G01X3483399Y-1710398D03*
G01X3933401Y-1600398D03*
G01X3933401Y-1190399D03*
G01X3933401Y-880400D03*
G01X8601499Y-1710398D03*
G01X9051501Y-1600398D03*
G01X9051501Y-1190399D03*
G01X9051501Y-880400D03*
G01X9706399Y-1710398D03*
G01X10156401Y-1600398D03*
G01X10156401Y-1190399D03*
G01X10156401Y-880400D03*
G01X11116099Y-1710398D03*
G01X11566101Y-1600398D03*
G01X11566101Y-1190399D03*
G01X11566101Y-880400D03*
G01X13986299Y-1710398D03*
G01X14436301Y-1600398D03*
G01X14436301Y-1190399D03*
G01X14436301Y-880400D03*
G01X15484899Y-1710398D03*
G01X15934901Y-1600398D03*
G01X15934901Y-1190399D03*
G01X15934901Y-880400D03*
G01X18139199Y-1710398D03*
G01X18589201Y-1600398D03*
G01X18589201Y-1190399D03*
G01X18589201Y-880400D03*
G01X19586999Y-1710398D03*
G01X20037001Y-1600398D03*
G01X20037001Y-1190399D03*
G01X20037001Y-880400D03*
G54D19*
G01X685800Y-5283200D03*
G01X685800Y-3759200D03*
G01X939800Y-3759200D03*
G01X939800Y-5283200D03*
G01X1193800Y-3759200D03*
G01X1193800Y-5283200D03*
G01X1447800Y-3759200D03*
G01X1447800Y-5283200D03*
G01X1701800Y-5283200D03*
G01X1701800Y-3759200D03*
G01X1955800Y-5283200D03*
G01X1955800Y-3759200D03*
G01X2209800Y-5283200D03*
G01X2209800Y-3759200D03*
G01X2463800Y-5283200D03*
G01X2463800Y-3759200D03*
G01X2717800Y-5283200D03*
G01X2717800Y-3759200D03*
G01X2971800Y-5283200D03*
G01X2971800Y-3759200D03*
G01X3225800Y-5283200D03*
G01X3225800Y-3759200D03*
G01X3479800Y-5283200D03*
G01X3479800Y-3759200D03*
G01X3733800Y-5283200D03*
G01X3733800Y-3759200D03*
G01X3987800Y-5283200D03*
G01X3987800Y-5029200D03*
G01X3987800Y-4775200D03*
G01X3987800Y-4521200D03*
G01X3987800Y-4267200D03*
G01X3987800Y-4013200D03*
G01X3987800Y-3759200D03*
G54D20*
G01X939800Y-7797800D03*
G01X1185088Y-2908300D03*
G01X1447800Y-7797800D03*
G01X1642301Y-12834087D03*
G01X1655001Y-11056087D03*
G01X1685087Y-2908300D03*
G01X1693101Y-14573987D03*
G01X1892300Y-12834087D03*
G01X1905000Y-11056087D03*
G01X1943100Y-14573987D03*
G01X2142300Y-12834087D03*
G01X2155000Y-11056087D03*
G01X2193100Y-14573987D03*
G01X4876800Y-6007100D03*
G01X5384800Y-6007100D03*
G01X5524500Y-4838700D03*
G01X5524500Y-4330700D03*
G01X6209091Y-4802759D03*
G01X6210300Y-9281541D03*
G01X6717091Y-4802759D03*
G01X6718300Y-9281541D03*
G01X6781800Y-3073400D03*
G01X6845300Y-4254500D03*
G01X6845300Y-3492500D03*
G01X7099300Y-4254500D03*
G01X7099300Y-3492500D03*
G01X7289800Y-3073400D03*
G01X7353300Y-4254500D03*
G01X7353300Y-3492500D03*
G01X7593391Y-7215759D03*
G01X7606091Y-6644259D03*
G01X7607300Y-4254500D03*
G01X7607300Y-3492500D03*
G01X7861300Y-4254500D03*
G01X7861300Y-3492500D03*
G01X7886700Y-12458700D03*
G01X8101391Y-7215759D03*
G01X8114091Y-6644259D03*
G01X8115300Y-4254500D03*
G01X8115300Y-3492500D03*
G01X8369300Y-4254500D03*
G01X8369300Y-3492500D03*
G01X8394700Y-12458700D03*
G01X8636000Y-5943600D03*
G01X8636000Y-5435600D03*
G01X10134600Y-16294100D03*
G01X10506913Y-2451100D03*
G01X10642600Y-16294100D03*
G01X11006912Y-2451100D03*
G01X11734800Y-14198600D03*
G01X12242800Y-14198600D03*
G01X13411200Y-12090400D03*
G01X13919200Y-12090400D03*
G01X14736013Y-2425700D03*
G01X15138400Y-9969500D03*
G01X15236012Y-2425700D03*
G01X15646400Y-9969500D03*
G01X16764000Y-7823200D03*
G01X17272000Y-7823200D03*
G01X18364200Y-5740400D03*
G01X18863513Y-2425700D03*
G01X18872200Y-5740400D03*
G01X19363512Y-2425700D03*
G01X20523200Y-1892300D03*
G01X20523200Y-1384300D03*
G54D21*
G01X2120900Y-3054701D03*
G01X2120900Y-2304699D03*
G01X2425700Y-3054701D03*
G01X2425700Y-2304699D03*
G01X2838099Y-5956300D03*
G01X3022600Y-3054701D03*
G01X3022600Y-2304699D03*
G01X3365500Y-3067401D03*
G01X3365500Y-2317399D03*
G01X3588101Y-5956300D03*
G01X3632200Y-3067401D03*
G01X3632200Y-2317399D03*
G01X3828699Y-5956300D03*
G01X3886200Y-3067401D03*
G01X3886200Y-2317399D03*
G01X4216400Y-2826101D03*
G01X4216400Y-2076099D03*
G01X4298599Y-3822700D03*
G01X4298599Y-3479800D03*
G01X4311299Y-5372100D03*
G01X4578701Y-5956300D03*
G01X4641499Y-5130800D03*
G01X5048601Y-3822700D03*
G01X5048601Y-3479800D03*
G01X5061301Y-5372100D03*
G01X5391501Y-5130800D03*
G01X6629400Y-2851501D03*
G01X6629400Y-2101499D03*
G01X7569200Y-2864201D03*
G01X7569200Y-2114199D03*
G01X7645400Y-6077301D03*
G01X7645400Y-5327299D03*
G01X7854599Y-4762500D03*
G01X7956199Y-13068300D03*
G01X7956199Y-10960100D03*
G01X7956199Y-8826500D03*
G01X7968899Y-15201900D03*
G01X8128000Y-2864201D03*
G01X8128000Y-2114199D03*
G01X8458200Y-7093301D03*
G01X8458200Y-6343299D03*
G01X8585200Y-2864201D03*
G01X8585200Y-2114199D03*
G01X8604601Y-4762500D03*
G01X8706201Y-13068300D03*
G01X8706201Y-10960100D03*
G01X8706201Y-8826500D03*
G01X8718901Y-15201900D03*
G01X9664700Y-3651601D03*
G01X9664700Y-2901599D03*
G01X9664700Y-2762601D03*
G01X9664700Y-2012599D03*
G01X9956800Y-3651601D03*
G01X9956800Y-2901599D03*
G01X9956800Y-2762601D03*
G01X9956800Y-2012599D03*
G01X11518900Y-3664301D03*
G01X11518900Y-2914299D03*
G01X11518900Y-2775301D03*
G01X11518900Y-2025299D03*
G01X11823700Y-3664301D03*
G01X11823700Y-2914299D03*
G01X11823700Y-2762601D03*
G01X11823700Y-2012599D03*
G01X13906500Y-3651601D03*
G01X13906500Y-2901599D03*
G01X13906500Y-2762601D03*
G01X13906500Y-2012599D03*
G01X14211300Y-3651601D03*
G01X14211300Y-2901599D03*
G01X14211300Y-2762601D03*
G01X14211300Y-2012599D03*
G01X15760700Y-3664301D03*
G01X15760700Y-2914299D03*
G01X15760700Y-2762601D03*
G01X15760700Y-2012599D03*
G01X16052800Y-3664301D03*
G01X16052800Y-2914299D03*
G01X16052800Y-2762601D03*
G01X16052800Y-2012599D03*
G01X18097500Y-3651601D03*
G01X18097500Y-2901599D03*
G01X18103850Y-2756251D03*
G01X18103850Y-2006249D03*
G01X18326100Y-3651601D03*
G01X18326100Y-2901599D03*
G01X18338800Y-2762601D03*
G01X18338800Y-2012599D03*
G01X19888200Y-3651601D03*
G01X19888200Y-2901599D03*
G01X19894550Y-2756251D03*
G01X19894550Y-2006249D03*
G01X20110450Y-2756251D03*
G01X20110450Y-2006249D03*
G01X20116800Y-3651601D03*
G01X20116800Y-2901599D03*
G54D22*
G01X863600Y-3683000D03*
G01X1193089Y-6959600D03*
G01X1622908Y-13432599D03*
G01X1710507Y-13289293D03*
G01X2489200Y-3886200D03*
G01X2667000Y-5168900D03*
G01X2997200Y-6426200D03*
G01X3327400Y-4724400D03*
G01X3606800Y-4140200D03*
G01X3638906Y-6057900D03*
G01X3810000Y-3962400D03*
G01X3848100Y-2095500D03*
G01X3848100Y-6273800D03*
G01X3860800Y-4724400D03*
G01X4114800Y-4584700D03*
G01X4300614Y-1275397D03*
G01X4345808Y-1878330D03*
G01X4404208Y-13394499D03*
G01X5016500Y-2857500D03*
G01X5054600Y-4394200D03*
G01X5130800Y-4584700D03*
G01X5257800Y-3733800D03*
G01X5308600Y-2914294D03*
G01X5359400Y-4572000D03*
G01X5471541Y-7681341D03*
G01X5480695Y-6174359D03*
G01X5527192Y-7397862D03*
G01X5575300Y-3276600D03*
G01X5658495Y-5996559D03*
G01X5674741Y-7681341D03*
G01X5689600Y-6223000D03*
G01X5702295Y-7360399D03*
G01X5715000Y-7442200D03*
G01X5791200Y-6273800D03*
G01X5816600Y-3784600D03*
G01X5827141Y-7579741D03*
G01X5924906Y-3664306D03*
G01X5979287Y-13445299D03*
G01X6045200Y-3810000D03*
G01X6146800Y-4267200D03*
G01X6183691Y-3963609D03*
G01X6200887Y-6047359D03*
G01X6235695Y-9405099D03*
G01X6242695Y-6250559D03*
G01X6277087Y-6098159D03*
G01X6293495Y-5336159D03*
G01X6318895Y-5717159D03*
G01X6369695Y-6148959D03*
G01X6372809Y-3774491D03*
G01X6375400Y-3556000D03*
G01X6379896Y-6004941D03*
G01X6429487Y-6250559D03*
G01X6471295Y-7317359D03*
G01X6480287Y-10238359D03*
G01X6540500Y-3276600D03*
G01X6578600Y-3873500D03*
G01X6591295Y-7233399D03*
G01X6616700Y-9179941D03*
G01X6649095Y-8714359D03*
G01X6680195Y-5976099D03*
G01X6705600Y-3556000D03*
G01X6710096Y-5649341D03*
G01X6776095Y-5590159D03*
G01X6781800Y-6223000D03*
G01X6781800Y-3733800D03*
G01X6785087Y-6468107D03*
G01X6786296Y-8646541D03*
G01X6794495Y-6598399D03*
G01X6810487Y-5818759D03*
G01X6818691Y-4904359D03*
G01X6915506Y-3664306D03*
G01X6934200Y-6604000D03*
G01X7061200Y-4483100D03*
G01X7089887Y-6225159D03*
G01X7131695Y-5183759D03*
G01X7219594Y-11112500D03*
G01X7401687Y-12657899D03*
G01X7411095Y-4828159D03*
G01X7493950Y-4762500D03*
G01X7700696Y-9129141D03*
G01X7715895Y-5767959D03*
G01X7820787Y-11667299D03*
G01X7842895Y-8841359D03*
G01X7927213Y-5325300D03*
G01X8005496Y-8189341D03*
G01X8071495Y-9069959D03*
G01X8081696Y-8646541D03*
G01X8132496Y-8316341D03*
G01X8143354Y-9190799D03*
G01X8208696Y-9266999D03*
G01X8208696Y-9129141D03*
G01X8215691Y-5725363D03*
G01X8219349Y-7093306D03*
G01X8223895Y-8344190D03*
G01X8223895Y-12371959D03*
G01X8386496Y-8595741D03*
G01X8401695Y-6250559D03*
G01X8452495Y-8333359D03*
G01X8455787Y-11032299D03*
G01X8509000Y-3822700D03*
G01X8640496Y-9154541D03*
G01X8940495Y-3175000D03*
G01X9124594Y-3822700D03*
G01X9141308Y-6993699D03*
G01X9189095Y-9019159D03*
G01X9199296Y-8570341D03*
G01X9300896Y-8214741D03*
G01X9383014Y-13813599D03*
G01X9463786Y-16006000D03*
G01X9535414Y-13635799D03*
G01X9598787Y-7654099D03*
G01X9631096Y-8748141D03*
G01X9731799Y-2111306D03*
G01X9834296Y-9317799D03*
G01X9865208Y-13381799D03*
G01X9865208Y-11153902D03*
G01X9865208Y-9038399D03*
G01X9946754Y-9292399D03*
G01X9986696Y-10181399D03*
G01X10111486Y-9744900D03*
G01X10115194Y-2679700D03*
G01X10182987Y-3691699D03*
G01X10314813Y-1397825D03*
G01X10353040Y-1515300D03*
G01X10416413Y-740473D03*
G01X10581640Y-1566100D03*
G01X10741787Y-719899D03*
G01X10760901Y-2603500D03*
G01X10964101Y-2603500D03*
G01X11078896Y-8748141D03*
G01X11084687Y-1507299D03*
G01X11313287Y-15909099D03*
G01X11485296Y-11171999D03*
G01X11490808Y-9012999D03*
G01X11493500Y-2374900D03*
G01X11684000Y-3162300D03*
G01X11757787Y-13635799D03*
G01X11790096Y-8479599D03*
G01X11960987Y-13813599D03*
G01X12875387Y-9546399D03*
G01X13034696Y-9002141D03*
G01X13052908Y-9139999D03*
G01X13248792Y-13165899D03*
G01X13248792Y-12556299D03*
G01X13575995Y-2959100D03*
G01X13893800Y-3111500D03*
G01X14084300Y-2508606D03*
G01X14106098Y-1828998D03*
G01X14648853Y-1404481D03*
G01X14660296Y-9052941D03*
G01X14798192Y-11311699D03*
G01X14823592Y-10194099D03*
G01X14881708Y-8962199D03*
G01X15072487Y-1507299D03*
G01X15401498Y-2921198D03*
G01X15405100Y-3049295D03*
G01X15554808Y-9089199D03*
G01X15753491Y-2584806D03*
G01X15976600Y-2539949D03*
G01X16103295Y-3251149D03*
G01X16376637Y-8123999D03*
G01X16494608Y-9063799D03*
G01X16565296Y-8925941D03*
G01X16652392Y-9317799D03*
G01X16992600Y-3429000D03*
G01X17145000Y-3378200D03*
G01X17853508Y-15477299D03*
G01X17920005Y-3378200D03*
G01X18176354Y-8784399D03*
G01X18247208Y-9495599D03*
G01X18361508Y-10575099D03*
G01X18425008Y-12746799D03*
G01X18564708Y-6282499D03*
G01X18704687Y-14004099D03*
G01X18732500Y-2846095D03*
G01X18744661Y-731108D03*
G01X18751394Y-1398133D03*
G01X18874486Y-13910500D03*
G01X18905384Y-735622D03*
G01X18984087Y-3221800D03*
G01X19456400Y-3124200D03*
G01X20828000Y-2672994D03*
G01X20942605Y-2709205D03*
G54D23*
G01X3045308Y-12721412D03*
G01X3045308Y-12221413D03*
G01X4277208Y-14220012D03*
G01X4277208Y-13720013D03*
G01X4277208Y-11222812D03*
G01X4277208Y-10722813D03*
G01X4295292Y-12721412D03*
G01X4295292Y-12221413D03*
G01X4406214Y-1584211D03*
G01X4656214Y-1834210D03*
G01X4656214Y-604213D03*
G01X4963008Y-12734112D03*
G01X4963008Y-12234113D03*
G01X5156213Y-1584211D03*
G01X5527192Y-14220012D03*
G01X5527192Y-13720013D03*
G01X5527192Y-11222812D03*
G01X5527192Y-10722813D03*
G01X5656212Y-1834210D03*
G01X5656212Y-604213D03*
G01X5906211Y-1584211D03*
G01X6207608Y-11210112D03*
G01X6207608Y-10710113D03*
G01X6212992Y-12734112D03*
G01X6212992Y-12234113D03*
G01X6233008Y-14220012D03*
G01X6233008Y-13720013D03*
G01X6616014Y-1584211D03*
G01X6866014Y-1834210D03*
G01X6866014Y-604213D03*
G01X7366013Y-1584211D03*
G01X7457592Y-11210112D03*
G01X7457592Y-10710113D03*
G01X7482992Y-14220012D03*
G01X7482992Y-13720013D03*
G01X7866012Y-1834210D03*
G01X7866012Y-604213D03*
G01X8116011Y-1584211D03*
G01X8760308Y-4948987D03*
G01X8760308Y-4448988D03*
G01X8785708Y-6993712D03*
G01X8785708Y-6493713D03*
G01X8798408Y-13331012D03*
G01X8798408Y-12831013D03*
G01X8798408Y-11210112D03*
G01X8798408Y-10710113D03*
G01X8798408Y-9089212D03*
G01X8798408Y-8589213D03*
G01X8811108Y-15451912D03*
G01X8811108Y-14951913D03*
G01X10010292Y-4948987D03*
G01X10010292Y-4448988D03*
G01X10035692Y-6993712D03*
G01X10035692Y-6493713D03*
G01X10048392Y-13331012D03*
G01X10048392Y-12831013D03*
G01X10048392Y-11210112D03*
G01X10048392Y-10710113D03*
G01X10048392Y-9089212D03*
G01X10048392Y-8589213D03*
G01X10061092Y-15451912D03*
G01X10061092Y-14951913D03*
G01X10398608Y-9089212D03*
G01X10398608Y-8589213D03*
G01X10398608Y-6993712D03*
G01X10398608Y-6493713D03*
G01X10411308Y-11210112D03*
G01X10411308Y-10710113D03*
G01X10424008Y-15451912D03*
G01X10424008Y-14951913D03*
G01X10424008Y-13331012D03*
G01X10424008Y-12831013D03*
G01X10424008Y-4961687D03*
G01X10424008Y-4461688D03*
G01X11648592Y-9089212D03*
G01X11648592Y-8589213D03*
G01X11648592Y-6993712D03*
G01X11648592Y-6493713D03*
G01X11661292Y-11210112D03*
G01X11661292Y-10710113D03*
G01X11673992Y-15451912D03*
G01X11673992Y-14951913D03*
G01X11673992Y-13331012D03*
G01X11673992Y-12831013D03*
G01X11673992Y-4961687D03*
G01X11673992Y-4461688D03*
G01X11998808Y-15464612D03*
G01X11998808Y-14964613D03*
G01X11998808Y-11210112D03*
G01X11998808Y-10710113D03*
G01X11998808Y-9101912D03*
G01X11998808Y-8601913D03*
G01X12011508Y-13343712D03*
G01X12011508Y-12843713D03*
G01X12024208Y-7006412D03*
G01X12024208Y-6506413D03*
G01X12024208Y-4949012D03*
G01X12024208Y-4449013D03*
G01X13248792Y-15464612D03*
G01X13248792Y-14964613D03*
G01X13248792Y-11210112D03*
G01X13248792Y-10710113D03*
G01X13248792Y-9101912D03*
G01X13248792Y-8601913D03*
G01X13261492Y-13343712D03*
G01X13261492Y-12843713D03*
G01X13274192Y-7006412D03*
G01X13274192Y-6506413D03*
G01X13274192Y-4949012D03*
G01X13274192Y-4449013D03*
G01X13649808Y-4949012D03*
G01X13649808Y-4449013D03*
G01X13675208Y-9127312D03*
G01X13675208Y-8627313D03*
G01X13675208Y-7019112D03*
G01X13675208Y-6519113D03*
G01X13700608Y-15477312D03*
G01X13700608Y-14977313D03*
G01X13700608Y-13343712D03*
G01X13700608Y-12843713D03*
G01X13700608Y-11222812D03*
G01X13700608Y-10722813D03*
G01X14899792Y-4949012D03*
G01X14899792Y-4449013D03*
G01X14925192Y-9127312D03*
G01X14925192Y-8627313D03*
G01X14925192Y-7019112D03*
G01X14925192Y-6519113D03*
G01X14950592Y-15477312D03*
G01X14950592Y-14977313D03*
G01X14950592Y-13343712D03*
G01X14950592Y-12843713D03*
G01X14950592Y-11222812D03*
G01X14950592Y-10722813D03*
G01X15364308Y-4961712D03*
G01X15364308Y-4461713D03*
G01X15377008Y-7044512D03*
G01X15377008Y-6544513D03*
G01X15402408Y-11248212D03*
G01X15402408Y-10748213D03*
G01X15402408Y-9140012D03*
G01X15402408Y-8640013D03*
G01X15415108Y-15502712D03*
G01X15415108Y-15002713D03*
G01X15415108Y-13369112D03*
G01X15415108Y-12869113D03*
G01X16614292Y-4961712D03*
G01X16614292Y-4461713D03*
G01X16626992Y-7044512D03*
G01X16626992Y-6544513D03*
G01X16652392Y-11248212D03*
G01X16652392Y-10748213D03*
G01X16652392Y-9140012D03*
G01X16652392Y-8640013D03*
G01X16665092Y-15502712D03*
G01X16665092Y-15002713D03*
G01X16665092Y-13369112D03*
G01X16665092Y-12869113D03*
G01X17040708Y-15477312D03*
G01X17040708Y-14977313D03*
G01X17040708Y-13356412D03*
G01X17040708Y-12856413D03*
G01X17040708Y-11235512D03*
G01X17040708Y-10735513D03*
G01X17040708Y-9140012D03*
G01X17040708Y-8640013D03*
G01X17040708Y-7044512D03*
G01X17040708Y-6544513D03*
G01X17053408Y-4949012D03*
G01X17053408Y-4449013D03*
G01X18290692Y-15477312D03*
G01X18290692Y-14977313D03*
G01X18290692Y-13356412D03*
G01X18290692Y-12856413D03*
G01X18290692Y-11235512D03*
G01X18290692Y-10735513D03*
G01X18290692Y-9140012D03*
G01X18290692Y-8640013D03*
G01X18290692Y-7044512D03*
G01X18290692Y-6544513D03*
G01X18303392Y-4949012D03*
G01X18303392Y-4449013D03*
G01X18704408Y-4949012D03*
G01X18704408Y-4449013D03*
G01X18717108Y-7044512D03*
G01X18717108Y-6544513D03*
G01X18729808Y-9140012D03*
G01X18729808Y-8640013D03*
G01X18742508Y-11235512D03*
G01X18742508Y-10735513D03*
G01X18755208Y-15477312D03*
G01X18755208Y-14977313D03*
G01X18755208Y-13356412D03*
G01X18755208Y-12856413D03*
G01X19954392Y-4949012D03*
G01X19954392Y-4449013D03*
G01X19967092Y-7044512D03*
G01X19967092Y-6544513D03*
G01X19979792Y-9140012D03*
G01X19979792Y-8640013D03*
G01X19992492Y-11235512D03*
G01X19992492Y-10735513D03*
G01X20005192Y-15477312D03*
G01X20005192Y-14977313D03*
G01X20005192Y-13356412D03*
G01X20005192Y-12856413D03*
G04 Drill Drawing End*

M02*

