G04 Layer: TopPasteMaskLayer*
G04 EasyEDA Pro v2.2.40.8, 2025-08-23 19:04:23*
G04 Gerber Generator version 0.3*
G04 Scale: 100 percent, Rotated: No, Reflected: No*
G04 Dimensions in millimeters*
G04 Leading zeros omitted, absolute positions, 4 integers and 5 decimals*
G04 Generated by one-click*
%FSLAX45Y45*%
%MOMM*%
%ADD10R,1.0X1.5*%
%ADD11O,2.38801X0.57399*%
%ADD12R,3.49999X1.2*%
%ADD13R,1.19009X1.72799*%
%ADD14O,1.865X0.63*%
%ADD15R,1.2X3.49999*%
%ADD16R,0.8015X0.8001*%
%ADD17R,0.8001X0.8001*%
G75*


G04 PolygonModel Start*
G36*
G01X8217101Y-5591899D02*
G01X8180075Y-5591899D01*
G01X8170075Y-5581899D01*
G01X8170075Y-5551409D01*
G01X8160075Y-5541409D01*
G01X8121325Y-5541409D01*
G01X8111325Y-5551409D01*
G01X8111325Y-5581899D01*
G01X8101325Y-5591899D01*
G01X8064299Y-5591899D01*
G01X8054299Y-5581899D01*
G01X8054299Y-5453400D01*
G01X8064299Y-5443400D01*
G01X8217101Y-5443400D01*
G01X8227101Y-5453400D01*
G01X8227101Y-5581899D01*
G01X8217101Y-5591899D01*
G37*
G36*
G01X8217101Y-5761901D02*
G01X8180075Y-5761901D01*
G01X8170075Y-5771901D01*
G01X8170075Y-5802391D01*
G01X8160075Y-5812391D01*
G01X8121325Y-5812391D01*
G01X8111325Y-5802391D01*
G01X8111325Y-5771901D01*
G01X8101325Y-5761901D01*
G01X8064299Y-5761901D01*
G01X8054299Y-5771901D01*
G01X8054299Y-5900400D01*
G01X8064299Y-5910400D01*
G01X8217101Y-5910400D01*
G01X8227101Y-5900400D01*
G01X8227101Y-5771901D01*
G01X8217101Y-5761901D01*
G37*
G36*
G01X2896301Y-2044560D02*
G01X2896301Y-1949087D01*
G01X2906301Y-1939087D01*
G01X2934127Y-1939087D01*
G01X2944127Y-1929087D01*
G01X2944127Y-1830113D01*
G01X2934127Y-1820113D01*
G01X2906301Y-1820113D01*
G01X2896301Y-1810113D01*
G01X2896301Y-1714640D01*
G01X2906301Y-1704640D01*
G01X3026966Y-1704640D01*
G01X3036966Y-1714640D01*
G01X3036966Y-2044560D01*
G01X3026966Y-2054560D01*
G01X2906301Y-2054560D01*
G01X2896301Y-2044560D01*
G37*
G36*
G01X2666299Y-2044560D02*
G01X2666299Y-1949087D01*
G01X2656299Y-1939087D01*
G01X2628473Y-1939087D01*
G01X2618473Y-1929087D01*
G01X2618473Y-1830113D01*
G01X2628473Y-1820113D01*
G01X2656299Y-1820113D01*
G01X2666299Y-1810113D01*
G01X2666299Y-1714640D01*
G01X2656299Y-1704640D01*
G01X2535634Y-1704640D01*
G01X2525634Y-1714640D01*
G01X2525634Y-2044560D01*
G01X2535634Y-2054560D01*
G01X2656299Y-2054560D01*
G01X2666299Y-2044560D01*
G37*

G04 Pad Start*
G54D10*
G01X9248013Y-5926899D03*
G01X9547987Y-5926899D03*
G01X9547987Y-5426900D03*
G01X9248013Y-5426900D03*
G01X10873613Y-5926899D03*
G01X11173587Y-5926899D03*
G01X11173587Y-5426900D03*
G01X10873613Y-5426900D03*
G01X12473813Y-5926899D03*
G01X12773787Y-5926899D03*
G01X12773787Y-5426900D03*
G01X12473813Y-5426900D03*
G01X14137513Y-5939599D03*
G01X14437487Y-5939599D03*
G01X14437487Y-5439600D03*
G01X14137513Y-5439600D03*
G01X15852013Y-5964999D03*
G01X16151987Y-5964999D03*
G01X16151987Y-5465000D03*
G01X15852013Y-5465000D03*
G01X17528413Y-5964999D03*
G01X17828387Y-5964999D03*
G01X17828387Y-5465000D03*
G01X17528413Y-5465000D03*
G01X19192113Y-5964999D03*
G01X19492087Y-5964999D03*
G01X19492087Y-5465000D03*
G01X19192113Y-5465000D03*
G01X9286113Y-8022399D03*
G01X9586087Y-8022399D03*
G01X9586087Y-7522400D03*
G01X9286113Y-7522400D03*
G01X10886313Y-8022399D03*
G01X11186287Y-8022399D03*
G01X11186287Y-7522400D03*
G01X10886313Y-7522400D03*
G01X12486513Y-8022399D03*
G01X12786487Y-8022399D03*
G01X12786487Y-7522400D03*
G01X12486513Y-7522400D03*
G01X14162913Y-8060499D03*
G01X14462887Y-8060499D03*
G01X14462887Y-7560500D03*
G01X14162913Y-7560500D03*
G01X15852013Y-8073199D03*
G01X16151987Y-8073199D03*
G01X16151987Y-7573200D03*
G01X15852013Y-7573200D03*
G01X17503013Y-8060499D03*
G01X17802987Y-8060499D03*
G01X17802987Y-7560500D03*
G01X17503013Y-7560500D03*
G01X19204813Y-8073199D03*
G01X19504787Y-8073199D03*
G01X19504787Y-7573200D03*
G01X19204813Y-7573200D03*
G01X9286113Y-10143299D03*
G01X9586087Y-10143299D03*
G01X9586087Y-9643300D03*
G01X9286113Y-9643300D03*
G01X10899013Y-10143299D03*
G01X11198987Y-10143299D03*
G01X11198987Y-9643300D03*
G01X10899013Y-9643300D03*
G01X12473813Y-10143299D03*
G01X12773787Y-10143299D03*
G01X12773787Y-9643300D03*
G01X12473813Y-9643300D03*
G01X14162913Y-10155999D03*
G01X14462887Y-10155999D03*
G01X14462887Y-9656000D03*
G01X14162913Y-9656000D03*
G01X15877413Y-10181399D03*
G01X16177387Y-10181399D03*
G01X16177387Y-9681400D03*
G01X15877413Y-9681400D03*
G01X17515713Y-10168699D03*
G01X17815687Y-10168699D03*
G01X17815687Y-9668700D03*
G01X17515713Y-9668700D03*
G01X19217513Y-10168699D03*
G01X19517487Y-10168699D03*
G01X19517487Y-9668700D03*
G01X19217513Y-9668700D03*
G01X9286113Y-12264199D03*
G01X9586087Y-12264199D03*
G01X9586087Y-11764200D03*
G01X9286113Y-11764200D03*
G01X10899013Y-12264199D03*
G01X11198987Y-12264199D03*
G01X11198987Y-11764200D03*
G01X10899013Y-11764200D03*
G01X12473813Y-12264199D03*
G01X12773787Y-12264199D03*
G01X12773787Y-11764200D03*
G01X12473813Y-11764200D03*
G01X14175613Y-12276899D03*
G01X14475587Y-12276899D03*
G01X14475587Y-11776900D03*
G01X14175613Y-11776900D03*
G01X15877413Y-12302299D03*
G01X16177387Y-12302299D03*
G01X16177387Y-11802300D03*
G01X15877413Y-11802300D03*
G01X17515713Y-12289599D03*
G01X17815687Y-12289599D03*
G01X17815687Y-11789600D03*
G01X17515713Y-11789600D03*
G01X19230213Y-12289599D03*
G01X19530187Y-12289599D03*
G01X19530187Y-11789600D03*
G01X19230213Y-11789600D03*
G01X9286113Y-14385099D03*
G01X9586087Y-14385099D03*
G01X9586087Y-13885100D03*
G01X9286113Y-13885100D03*
G01X10911713Y-14385099D03*
G01X11211687Y-14385099D03*
G01X11211687Y-13885100D03*
G01X10911713Y-13885100D03*
G01X12486513Y-14397799D03*
G01X12786487Y-14397799D03*
G01X12786487Y-13897800D03*
G01X12486513Y-13897800D03*
G01X14175613Y-14410499D03*
G01X14475587Y-14410499D03*
G01X14475587Y-13910500D03*
G01X14175613Y-13910500D03*
G01X15877413Y-14423199D03*
G01X16177387Y-14423199D03*
G01X16177387Y-13923200D03*
G01X15877413Y-13923200D03*
G01X17515713Y-14410499D03*
G01X17815687Y-14410499D03*
G01X17815687Y-13910500D03*
G01X17515713Y-13910500D03*
G01X19242913Y-14410499D03*
G01X19542887Y-14410499D03*
G01X19542887Y-13910500D03*
G01X19242913Y-13910500D03*
G01X9273413Y-16505999D03*
G01X9573387Y-16505999D03*
G01X9573387Y-16006000D03*
G01X9273413Y-16006000D03*
G01X10899013Y-16505999D03*
G01X11198987Y-16505999D03*
G01X11198987Y-16006000D03*
G01X10899013Y-16006000D03*
G01X12486513Y-16518699D03*
G01X12786487Y-16518699D03*
G01X12786487Y-16018700D03*
G01X12486513Y-16018700D03*
G01X14162913Y-16531399D03*
G01X14462887Y-16531399D03*
G01X14462887Y-16031400D03*
G01X14162913Y-16031400D03*
G01X15890113Y-16556799D03*
G01X16190087Y-16556799D03*
G01X16190087Y-16056800D03*
G01X15890113Y-16056800D03*
G01X17515713Y-16544099D03*
G01X17815687Y-16544099D03*
G01X17815687Y-16044100D03*
G01X17515713Y-16044100D03*
G01X19293713Y-16531399D03*
G01X19593687Y-16531399D03*
G01X19593687Y-16031400D03*
G01X19293713Y-16031400D03*
G54D11*
G01X6938696Y-8951341D03*
G01X6938696Y-8824341D03*
G01X6938696Y-8697341D03*
G01X6938696Y-8570341D03*
G01X6938696Y-8443341D03*
G01X6938696Y-8316341D03*
G01X6938696Y-8189341D03*
G01X6938696Y-8062341D03*
G01X6938696Y-7935341D03*
G01X6938696Y-7808341D03*
G01X6938696Y-7681341D03*
G01X6938696Y-7554341D03*
G01X5989904Y-8951341D03*
G01X5989904Y-8824341D03*
G01X5989904Y-8697341D03*
G01X5989904Y-8570341D03*
G01X5989904Y-8443341D03*
G01X5989904Y-8316341D03*
G01X5989904Y-8189341D03*
G01X5989904Y-8062341D03*
G01X5989904Y-7935341D03*
G01X5989904Y-7808341D03*
G01X5989904Y-7681341D03*
G01X5989904Y-7554341D03*
G01X5988695Y-5132959D03*
G01X5988695Y-5259959D03*
G01X5988695Y-5386959D03*
G01X5988695Y-5513959D03*
G01X5988695Y-5640959D03*
G01X5988695Y-5767959D03*
G01X5988695Y-5894959D03*
G01X5988695Y-6021959D03*
G01X5988695Y-6148959D03*
G01X5988695Y-6275959D03*
G01X5988695Y-6402959D03*
G01X5988695Y-6529959D03*
G01X6937487Y-5132959D03*
G01X6937487Y-5259959D03*
G01X6937487Y-5386959D03*
G01X6937487Y-5513959D03*
G01X6937487Y-5640959D03*
G01X6937487Y-5767959D03*
G01X6937487Y-5894959D03*
G01X6937487Y-6021959D03*
G01X6937487Y-6148959D03*
G01X6937487Y-6275959D03*
G01X6937487Y-6402959D03*
G01X6937487Y-6529959D03*
G54D12*
G01X1180795Y-2298700D03*
G01X1714805Y-2298700D03*
G54D13*
G01X1811299Y-1752600D03*
G01X2100301Y-1752600D03*
G54D14*
G01X10488651Y-2679700D03*
G01X10488651Y-2806700D03*
G01X10488651Y-2933700D03*
G01X10488651Y-3060700D03*
G01X11025149Y-2679700D03*
G01X11025149Y-2806700D03*
G01X11025149Y-2933700D03*
G01X11025149Y-3060700D03*
G01X14717751Y-2654300D03*
G01X14717751Y-2781300D03*
G01X14717751Y-2908300D03*
G01X14717751Y-3035300D03*
G01X15254249Y-2654300D03*
G01X15254249Y-2781300D03*
G01X15254249Y-2908300D03*
G01X15254249Y-3035300D03*
G01X18845251Y-2654300D03*
G01X18845251Y-2781300D03*
G01X18845251Y-2908300D03*
G01X18845251Y-3035300D03*
G01X19381749Y-2654300D03*
G01X19381749Y-2781300D03*
G01X19381749Y-2908300D03*
G01X19381749Y-3035300D03*
G54D10*
G01X18963513Y-1037399D03*
G01X19263487Y-1037399D03*
G01X19263487Y-537400D03*
G01X18963513Y-537400D03*
G01X18963513Y-1824799D03*
G01X19263487Y-1824799D03*
G01X19263487Y-1324800D03*
G01X18963513Y-1324800D03*
G01X14810613Y-1050099D03*
G01X15110587Y-1050099D03*
G01X15110587Y-550100D03*
G01X14810613Y-550100D03*
G01X14823313Y-1837499D03*
G01X15123287Y-1837499D03*
G01X15123287Y-1337500D03*
G01X14823313Y-1337500D03*
G01X10492613Y-1050099D03*
G01X10792587Y-1050099D03*
G01X10792587Y-550100D03*
G01X10492613Y-550100D03*
G01X10492613Y-1837499D03*
G01X10792587Y-1837499D03*
G01X10792587Y-1337500D03*
G01X10492613Y-1337500D03*
G01X7304913Y-12683299D03*
G01X7604887Y-12683299D03*
G01X7604887Y-12183300D03*
G01X7304913Y-12183300D03*
G01X2745613Y-10613199D03*
G01X3045587Y-10613199D03*
G01X3045587Y-10113200D03*
G01X2745613Y-10113200D03*
G01X815213Y-12378499D03*
G01X1115187Y-12378499D03*
G01X1115187Y-11878500D03*
G01X815213Y-11878500D03*
G01X815213Y-14131099D03*
G01X1115187Y-14131099D03*
G01X1115187Y-13631100D03*
G01X815213Y-13631100D03*
G54D12*
G01X8838895Y-2578100D03*
G01X9372905Y-2578100D03*
G01X8838895Y-3276600D03*
G01X9372905Y-3276600D03*
G54D15*
G01X4635500Y-4317695D03*
G01X4635500Y-4851705D03*
G54D12*
G01X16865905Y-3276549D03*
G01X16331895Y-3276549D03*
G01X16865905Y-2590749D03*
G01X16331895Y-2590749D03*
G01X12636805Y-2590800D03*
G01X12102795Y-2590800D03*
G01X12102795Y-3302000D03*
G01X12636805Y-3302000D03*
G01X13093395Y-2590800D03*
G01X13627405Y-2590800D03*
G01X13093395Y-3289300D03*
G01X13627405Y-3289300D03*
G01X17284395Y-2590800D03*
G01X17818405Y-2590800D03*
G01X17284395Y-3276600D03*
G01X17818405Y-3276600D03*
G01X20942605Y-3276600D03*
G01X20408595Y-3276600D03*
G01X20942605Y-2578100D03*
G01X20408595Y-2578100D03*
G01X901395Y-6959600D03*
G01X1435405Y-6959600D03*
G54D17*
G01X859790Y-2932684D03*
G01X699770Y-2933192D03*
G04 Pad End*

M02*

