G04 Layer: BottomSolderMaskLayer*
G04 EasyEDA Pro v2.2.40.8, 2025-08-23 19:04:23*
G04 Gerber Generator version 0.3*
G04 Scale: 100 percent, Rotated: No, Reflected: No*
G04 Dimensions in millimeters*
G04 Leading zeros omitted, absolute positions, 4 integers and 5 decimals*
G04 Generated by one-click*
%FSLAX45Y45*%
%MOMM*%
%ADD10C,1.734*%
%ADD11C,1.90002*%
%ADD12C,1.62403*%
%ADD13O,4.59999X2.0*%
%ADD14O,2.0X4.59999*%
%ADD15C,2.2*%
%ADD16O,1.0X2.0*%
%ADD17O,3.1028X3.39999*%
%ADD18O,3.09999X3.39999*%
%ADD19C,1.6*%
%ADD20R,1.5X1.5*%
%ADD21C,1.5*%
%ADD22C,1.524*%
%ADD23C,2.49999*%
%ADD24C,1.7*%
%ADD25R,1.5X2.0*%
%ADD26O,1.5X2.0*%
%ADD27C,1.2*%
%ADD28C,0.6096*%
G75*


G04 Pad Start*
G54D10*
G01X939800Y-5283200D03*
G01X1193800Y-5283200D03*
G01X1447800Y-5283200D03*
G01X1701800Y-5283200D03*
G01X3987800Y-4775200D03*
G01X1193800Y-3759200D03*
G01X1955800Y-5283200D03*
G01X2209800Y-5283200D03*
G01X2463800Y-5283200D03*
G01X2717800Y-5283200D03*
G01X2971800Y-5283200D03*
G01X3225800Y-5283200D03*
G01X3479800Y-5283200D03*
G01X3733800Y-5283200D03*
G01X3987800Y-5283200D03*
G01X3987800Y-3759200D03*
G01X3733800Y-3759200D03*
G01X3479800Y-3759200D03*
G01X3225800Y-3759200D03*
G01X2971800Y-3759200D03*
G01X2717800Y-3759200D03*
G01X2463800Y-3759200D03*
G01X2209800Y-3759200D03*
G01X1955800Y-3759200D03*
G01X1701800Y-3759200D03*
G01X1447800Y-3759200D03*
G01X685800Y-5283200D03*
G01X3987800Y-4521200D03*
G01X939800Y-3759200D03*
G01X3987800Y-4013200D03*
G01X3987800Y-4267200D03*
G01X3987800Y-5029200D03*
G01X685800Y-3759200D03*
G54D11*
G01X2870200Y-6489700D03*
G01X3124200Y-6489700D03*
G01X3378200Y-6489700D03*
G01X3632200Y-6489700D03*
G54D12*
G01X5017795Y-2984500D03*
G01X4227805Y-2984500D03*
G54D13*
G01X1035088Y-1757782D03*
G01X1035114Y-1137818D03*
G54D14*
G01X565087Y-1457808D03*
G54D15*
G01X5906199Y-1584211D03*
G01X5656212Y-1834197D03*
G01X5156213Y-1584211D03*
G01X4656214Y-1834197D03*
G01X4406202Y-1584211D03*
G01X5656212Y-604202D03*
G01X4656214Y-604202D03*
G01X8115999Y-1584211D03*
G01X7866012Y-1834197D03*
G01X7366013Y-1584211D03*
G01X6866014Y-1834197D03*
G01X6616002Y-1584211D03*
G01X7866012Y-604202D03*
G01X6866014Y-604202D03*
G54D16*
G01X9706399Y-1710398D03*
G01X10156398Y-880400D03*
G01X10156398Y-1190399D03*
G01X10156398Y-1600398D03*
G54D18*
G01X1503091Y-13874001D03*
G01X2383099Y-13874001D03*
G54D19*
G01X2193107Y-14573999D03*
G01X1943095Y-14573999D03*
G01X1693108Y-14573999D03*
G54D18*
G01X1452291Y-12134101D03*
G01X2332299Y-12134101D03*
G54D19*
G01X2142307Y-12834099D03*
G01X1892295Y-12834099D03*
G01X1642308Y-12834099D03*
G54D18*
G01X1464991Y-10356101D03*
G01X2344999Y-10356101D03*
G54D19*
G01X2155007Y-11056099D03*
G01X1904995Y-11056099D03*
G01X1655008Y-11056099D03*
G54D20*
G01X5397500Y-3098800D03*
G54D21*
G01X5397500Y-3352800D03*
G01X5397500Y-3606800D03*
G01X5397500Y-3860800D03*
G01X6159500Y-3098800D03*
G01X6159500Y-3352800D03*
G01X6159500Y-3606800D03*
G01X6159500Y-3860800D03*
G54D22*
G01X2141499Y-1071905D03*
G01X2141499Y-1271905D03*
G01X2811501Y-1071905D03*
G01X2811501Y-1271905D03*
G01X2376500Y-1391895D03*
G01X2576500Y-1391895D03*
G54D23*
G01X12024208Y-4449000D03*
G01X13274192Y-4449000D03*
G01X12024208Y-4948999D03*
G01X13274192Y-4948999D03*
G01X13649808Y-4449000D03*
G01X14899792Y-4449000D03*
G01X13649808Y-4948999D03*
G01X14899792Y-4948999D03*
G01X15364308Y-4461700D03*
G01X16614292Y-4461700D03*
G01X15364308Y-4961699D03*
G01X16614292Y-4961699D03*
G01X17053408Y-4449000D03*
G01X18303392Y-4449000D03*
G01X17053408Y-4948999D03*
G01X18303392Y-4948999D03*
G01X18704408Y-4449000D03*
G01X19954392Y-4449000D03*
G01X18704408Y-4948999D03*
G01X19954392Y-4948999D03*
G01X8785708Y-6493700D03*
G01X10035692Y-6493700D03*
G01X8785708Y-6993699D03*
G01X10035692Y-6993699D03*
G01X10398608Y-6493700D03*
G01X11648592Y-6493700D03*
G01X10398608Y-6993699D03*
G01X11648592Y-6993699D03*
G01X12024208Y-6506400D03*
G01X13274192Y-6506400D03*
G01X12024208Y-7006399D03*
G01X13274192Y-7006399D03*
G01X13675208Y-6519100D03*
G01X14925192Y-6519100D03*
G01X13675208Y-7019099D03*
G01X14925192Y-7019099D03*
G01X15377008Y-6544500D03*
G01X16626992Y-6544500D03*
G01X15377008Y-7044499D03*
G01X16626992Y-7044499D03*
G01X17040708Y-6544500D03*
G01X18290692Y-6544500D03*
G01X17040708Y-7044499D03*
G01X18290692Y-7044499D03*
G01X18717108Y-6544500D03*
G01X19967092Y-6544500D03*
G01X18717108Y-7044499D03*
G01X19967092Y-7044499D03*
G01X6207608Y-10710100D03*
G01X7457592Y-10710100D03*
G01X6207608Y-11210099D03*
G01X7457592Y-11210099D03*
G01X8798408Y-8589200D03*
G01X10048392Y-8589200D03*
G01X8798408Y-9089199D03*
G01X10048392Y-9089199D03*
G01X10398608Y-8589200D03*
G01X11648592Y-8589200D03*
G01X10398608Y-9089199D03*
G01X11648592Y-9089199D03*
G01X11998808Y-8601900D03*
G01X13248792Y-8601900D03*
G01X11998808Y-9101899D03*
G01X13248792Y-9101899D03*
G01X13675208Y-8627300D03*
G01X14925192Y-8627300D03*
G01X13675208Y-9127299D03*
G01X14925192Y-9127299D03*
G01X15402408Y-8640000D03*
G01X16652392Y-8640000D03*
G01X15402408Y-9139999D03*
G01X16652392Y-9139999D03*
G01X17040708Y-8640000D03*
G01X18290692Y-8640000D03*
G01X17040708Y-9139999D03*
G01X18290692Y-9139999D03*
G01X18729808Y-8640000D03*
G01X19979792Y-8640000D03*
G01X18729808Y-9139999D03*
G01X19979792Y-9139999D03*
G01X8798408Y-10710100D03*
G01X10048392Y-10710100D03*
G01X8798408Y-11210099D03*
G01X10048392Y-11210099D03*
G01X10411308Y-10710100D03*
G01X11661292Y-10710100D03*
G01X10411308Y-11210099D03*
G01X11661292Y-11210099D03*
G01X11998808Y-10710100D03*
G01X13248792Y-10710100D03*
G01X11998808Y-11210099D03*
G01X13248792Y-11210099D03*
G01X13700608Y-10722800D03*
G01X14950592Y-10722800D03*
G01X13700608Y-11222799D03*
G01X14950592Y-11222799D03*
G01X15402408Y-10748200D03*
G01X16652392Y-10748200D03*
G01X15402408Y-11248199D03*
G01X16652392Y-11248199D03*
G01X17040708Y-10735500D03*
G01X18290692Y-10735500D03*
G01X17040708Y-11235499D03*
G01X18290692Y-11235499D03*
G01X18742508Y-10735500D03*
G01X19992492Y-10735500D03*
G01X18742508Y-11235499D03*
G01X19992492Y-11235499D03*
G01X8798408Y-12831000D03*
G01X10048392Y-12831000D03*
G01X8798408Y-13330999D03*
G01X10048392Y-13330999D03*
G01X10424008Y-12831000D03*
G01X11673992Y-12831000D03*
G01X10424008Y-13330999D03*
G01X11673992Y-13330999D03*
G01X12011508Y-12843700D03*
G01X13261492Y-12843700D03*
G01X12011508Y-13343699D03*
G01X13261492Y-13343699D03*
G01X13700608Y-12843700D03*
G01X14950592Y-12843700D03*
G01X13700608Y-13343699D03*
G01X14950592Y-13343699D03*
G01X15415108Y-12869100D03*
G01X16665092Y-12869100D03*
G01X15415108Y-13369099D03*
G01X16665092Y-13369099D03*
G01X17040708Y-12856400D03*
G01X18290692Y-12856400D03*
G01X17040708Y-13356399D03*
G01X18290692Y-13356399D03*
G01X18755208Y-12856400D03*
G01X20005192Y-12856400D03*
G01X18755208Y-13356399D03*
G01X20005192Y-13356399D03*
G01X8811108Y-14951900D03*
G01X10061092Y-14951900D03*
G01X8811108Y-15451899D03*
G01X10061092Y-15451899D03*
G01X10424008Y-14951900D03*
G01X11673992Y-14951900D03*
G01X10424008Y-15451899D03*
G01X11673992Y-15451899D03*
G01X11998808Y-14964600D03*
G01X13248792Y-14964600D03*
G01X11998808Y-15464599D03*
G01X13248792Y-15464599D03*
G01X13700608Y-14977300D03*
G01X14950592Y-14977300D03*
G01X13700608Y-15477299D03*
G01X14950592Y-15477299D03*
G01X15415108Y-15002700D03*
G01X16665092Y-15002700D03*
G01X15415108Y-15502699D03*
G01X16665092Y-15502699D03*
G01X17040708Y-14977300D03*
G01X18290692Y-14977300D03*
G01X17040708Y-15477299D03*
G01X18290692Y-15477299D03*
G01X18755208Y-14977300D03*
G01X20005192Y-14977300D03*
G01X18755208Y-15477299D03*
G01X20005192Y-15477299D03*
G01X4277208Y-10722800D03*
G01X5527192Y-10722800D03*
G01X4277208Y-11222799D03*
G01X5527192Y-11222799D03*
G01X3045308Y-12221400D03*
G01X4295292Y-12221400D03*
G01X3045308Y-12721399D03*
G01X4295292Y-12721399D03*
G01X4277208Y-13720000D03*
G01X5527192Y-13720000D03*
G01X4277208Y-14219999D03*
G01X5527192Y-14219999D03*
G01X6233008Y-13720000D03*
G01X7482992Y-13720000D03*
G01X6233008Y-14219999D03*
G01X7482992Y-14219999D03*
G01X4963008Y-12234100D03*
G01X6212992Y-12234100D03*
G01X4963008Y-12734099D03*
G01X6212992Y-12734099D03*
G54D24*
G01X3111500Y-1551000D03*
G01X3111500Y-481000D03*
G54D12*
G01X10248900Y-3506495D03*
G01X10248900Y-2716505D03*
G01X15481300Y-2716505D03*
G01X15481300Y-3506495D03*
G01X11252200Y-2716505D03*
G01X11252200Y-3506495D03*
G01X14503400Y-3481095D03*
G01X14503400Y-2691105D03*
G01X18630900Y-3481095D03*
G01X18630900Y-2691105D03*
G01X19596100Y-2691105D03*
G01X19596100Y-3481095D03*
G54D16*
G01X11116099Y-1710398D03*
G01X11566098Y-880400D03*
G01X11566098Y-1190399D03*
G01X11566098Y-1600398D03*
G01X13986299Y-1710398D03*
G01X14436298Y-880400D03*
G01X14436298Y-1190399D03*
G01X14436298Y-1600398D03*
G01X15484899Y-1710398D03*
G01X15934898Y-880400D03*
G01X15934898Y-1190399D03*
G01X15934898Y-1600398D03*
G01X18139199Y-1710398D03*
G01X18589198Y-880400D03*
G01X18589198Y-1190399D03*
G01X18589198Y-1600398D03*
G01X19586999Y-1710398D03*
G01X20036998Y-880400D03*
G01X20036998Y-1190399D03*
G01X20036998Y-1600398D03*
G54D23*
G01X10010292Y-4948999D03*
G01X8760308Y-4948999D03*
G01X10010292Y-4449000D03*
G01X8760308Y-4449000D03*
G01X11673992Y-4961699D03*
G01X10424008Y-4961699D03*
G01X11673992Y-4461700D03*
G01X10424008Y-4461700D03*
G54D25*
G01X6845300Y-4254500D03*
G54D26*
G01X7099300Y-4254500D03*
G01X7353300Y-4254500D03*
G01X7607300Y-4254500D03*
G01X7861300Y-4254500D03*
G01X8115300Y-4254500D03*
G01X8369300Y-4254500D03*
G01X6845300Y-3492500D03*
G01X7099300Y-3492500D03*
G01X7353300Y-3492500D03*
G01X7607300Y-3492500D03*
G01X7861300Y-3492500D03*
G01X8115300Y-3492500D03*
G01X8369300Y-3492500D03*
G54D19*
G01X8636000Y-5435600D03*
G01X8636000Y-5943600D03*
G01X6210300Y-9281541D03*
G01X6718300Y-9281541D03*
G01X6209091Y-4802759D03*
G01X6717091Y-4802759D03*
G01X1185101Y-2908300D03*
G01X1685100Y-2908300D03*
G01X8101391Y-7215759D03*
G01X7593391Y-7215759D03*
G01X6781800Y-3073400D03*
G01X7289800Y-3073400D03*
G01X11006900Y-2451100D03*
G01X10506901Y-2451100D03*
G01X18872200Y-5740400D03*
G01X18364200Y-5740400D03*
G01X17272000Y-7823200D03*
G01X16764000Y-7823200D03*
G01X15646400Y-9969500D03*
G01X15138400Y-9969500D03*
G01X13919200Y-12090400D03*
G01X13411200Y-12090400D03*
G01X12242800Y-14198600D03*
G01X11734800Y-14198600D03*
G01X10642600Y-16294100D03*
G01X10134600Y-16294100D03*
G01X5524500Y-4330700D03*
G01X5524500Y-4838700D03*
G01X15236000Y-2425700D03*
G01X14736001Y-2425700D03*
G01X19363500Y-2425700D03*
G01X18863501Y-2425700D03*
G01X20523200Y-1892300D03*
G01X20523200Y-1384300D03*
G54D16*
G01X3483399Y-1710398D03*
G01X3933398Y-880400D03*
G01X3933398Y-1190399D03*
G01X3933398Y-1600398D03*
G01X8601499Y-1710398D03*
G01X9051498Y-880400D03*
G01X9051498Y-1190399D03*
G01X9051498Y-1600398D03*
G54D19*
G01X8394700Y-12458700D03*
G01X7886700Y-12458700D03*
G01X8114091Y-6644259D03*
G01X7606091Y-6644259D03*
G01X939800Y-7797800D03*
G01X1447800Y-7797800D03*
G54D27*
G01X4298594Y-3479800D03*
G01X5048606Y-3479800D03*
G01X7569200Y-2114194D03*
G01X7569200Y-2864206D03*
G01X6629400Y-2101494D03*
G01X6629400Y-2851506D03*
G01X7645400Y-6077306D03*
G01X7645400Y-5327294D03*
G01X4216400Y-2826106D03*
G01X4216400Y-2076094D03*
G01X9664700Y-2762606D03*
G01X9664700Y-2012594D03*
G01X9956800Y-2762606D03*
G01X9956800Y-2012594D03*
G01X9664700Y-3651606D03*
G01X9664700Y-2901594D03*
G01X9956800Y-2901594D03*
G01X9956800Y-3651606D03*
G01X4298594Y-3822700D03*
G01X5048606Y-3822700D03*
G01X4311294Y-5372100D03*
G01X5061306Y-5372100D03*
G01X15760700Y-2762606D03*
G01X15760700Y-2012594D03*
G01X16052800Y-2762606D03*
G01X16052800Y-2012594D03*
G01X15760700Y-3664306D03*
G01X15760700Y-2914294D03*
G01X16052800Y-3664306D03*
G01X16052800Y-2914294D03*
G01X11518900Y-2775306D03*
G01X11518900Y-2025294D03*
G01X11823700Y-2012594D03*
G01X11823700Y-2762606D03*
G01X11518900Y-3664306D03*
G01X11518900Y-2914294D03*
G01X11823700Y-2914294D03*
G01X11823700Y-3664306D03*
G01X13906500Y-2762606D03*
G01X13906500Y-2012594D03*
G01X14211300Y-2762606D03*
G01X14211300Y-2012594D03*
G01X13906500Y-3651606D03*
G01X13906500Y-2901594D03*
G01X14211300Y-3651606D03*
G01X14211300Y-2901594D03*
G01X18103850Y-2756256D03*
G01X18103850Y-2006244D03*
G01X18338800Y-2762606D03*
G01X18338800Y-2012594D03*
G01X18097500Y-3651606D03*
G01X18097500Y-2901594D03*
G01X18326100Y-3651606D03*
G01X18326100Y-2901594D03*
G01X19894550Y-2756256D03*
G01X19894550Y-2006244D03*
G01X20110450Y-2756256D03*
G01X20110450Y-2006244D03*
G01X19888200Y-3651606D03*
G01X19888200Y-2901594D03*
G01X20116800Y-3651606D03*
G01X20116800Y-2901594D03*
G01X3828694Y-5956300D03*
G01X4578706Y-5956300D03*
G01X2838094Y-5956300D03*
G01X3588106Y-5956300D03*
G01X8128000Y-2114194D03*
G01X8128000Y-2864206D03*
G01X8585200Y-2114194D03*
G01X8585200Y-2864206D03*
G01X7854594Y-4762500D03*
G01X8604606Y-4762500D03*
G01X8458200Y-6343294D03*
G01X8458200Y-7093306D03*
G01X7956194Y-8826500D03*
G01X8706206Y-8826500D03*
G01X7956194Y-10960100D03*
G01X8706206Y-10960100D03*
G01X7956194Y-13068300D03*
G01X8706206Y-13068300D03*
G01X7968894Y-15201900D03*
G01X8718906Y-15201900D03*
G54D19*
G01X5384800Y-6007100D03*
G01X4876800Y-6007100D03*
G54D27*
G01X5391506Y-5130800D03*
G01X4641494Y-5130800D03*
G01X3886200Y-2317394D03*
G01X3886200Y-3067406D03*
G01X3632200Y-2317394D03*
G01X3632200Y-3067406D03*
G01X3365500Y-2317394D03*
G01X3365500Y-3067406D03*
G01X3022600Y-2304694D03*
G01X3022600Y-3054706D03*
G01X2425700Y-2304694D03*
G01X2425700Y-3054706D03*
G01X2120900Y-2304694D03*
G01X2120900Y-3054706D03*
G04 Pad End*

G04 Via Start*
G54D28*
G01X11313287Y-15909099D03*
G01X9463786Y-16006000D03*
G01X18704687Y-14004099D03*
G01X18874486Y-13910500D03*
G01X12875387Y-9546399D03*
G01X10111486Y-9744900D03*
G01X11960987Y-13813599D03*
G01X11757787Y-13635799D03*
G01X9535414Y-13635799D03*
G01X9383014Y-13813599D03*
G01X15072487Y-1507299D03*
G01X14648853Y-1404481D03*
G01X11084687Y-1507299D03*
G01X10314813Y-1397825D03*
G01X10741787Y-719899D03*
G01X10416413Y-740473D03*
G01X10353040Y-1515300D03*
G01X10581640Y-1566100D03*
G01X10182987Y-3691699D03*
G01X9598787Y-7654099D03*
G01X8455787Y-11032299D03*
G01X7820787Y-11667299D03*
G01X7401687Y-12657899D03*
G01X5979287Y-13445299D03*
G01X4300614Y-1275397D03*
G01X18732500Y-2846095D03*
G01X14106098Y-1828998D03*
G01X15401498Y-2921198D03*
G01X20942605Y-2709205D03*
G01X16103295Y-3251149D03*
G01X15405100Y-3049295D03*
G01X1193089Y-6959600D03*
G01X3606800Y-4140200D03*
G01X3810000Y-3962400D03*
G01X5054600Y-4394200D03*
G01X5359400Y-4572000D03*
G01X6818691Y-4904359D03*
G01X7493950Y-4762500D03*
G01X6616700Y-9179941D03*
G01X7219594Y-11112500D03*
G01X4404208Y-13394499D03*
G01X1622908Y-13432599D03*
G01X9124594Y-3822700D03*
G01X10115194Y-2679700D03*
G01X10760901Y-2603500D03*
G01X10964101Y-2603500D03*
G01X18984087Y-3221800D03*
G01X18751394Y-1398133D03*
G01X18905384Y-735622D03*
G01X18744661Y-731108D03*
G01X6242695Y-6250559D03*
G01X6369695Y-6148959D03*
G01X6776095Y-5590159D03*
G01X7411095Y-4828159D03*
G01X8219349Y-7093306D03*
G01X9141308Y-6993699D03*
G01X18564708Y-6282499D03*
G01X8223895Y-8344190D03*
G01X9865208Y-9038399D03*
G01X11490808Y-9012999D03*
G01X13052908Y-9139999D03*
G01X14881708Y-8962199D03*
G01X15554808Y-9089199D03*
G01X16494608Y-9063799D03*
G01X18247208Y-9495599D03*
G01X6318895Y-5717159D03*
G01X7842895Y-8841359D03*
G01X8071495Y-9069959D03*
G01X9865208Y-11153902D03*
G01X18361508Y-10575099D03*
G01X5658495Y-5996559D03*
G01X5480695Y-6174359D03*
G01X6471295Y-7317359D03*
G01X6649095Y-8714359D03*
G01X8223895Y-12371959D03*
G01X9865208Y-13381799D03*
G01X18425008Y-12746799D03*
G01X6293495Y-5336159D03*
G01X7131695Y-5183759D03*
G01X7715895Y-5767959D03*
G01X8401695Y-6250559D03*
G01X8452495Y-8333359D03*
G01X9189095Y-9019159D03*
G01X17853508Y-15477299D03*
G01X5527192Y-7397862D03*
G01X6200887Y-6047359D03*
G01X6277087Y-6098159D03*
G01X7089887Y-6225159D03*
G01X6429487Y-6250559D03*
G01X6810487Y-5818759D03*
G01X6480287Y-10238359D03*
G01X5575300Y-3276600D03*
G01X6540500Y-3276600D03*
G01X8940495Y-3175000D03*
G01X5924906Y-3664306D03*
G01X6915506Y-3664306D03*
G01X5016500Y-2857500D03*
G01X11493500Y-2374900D03*
G01X13575995Y-2959100D03*
G01X5308600Y-2914294D03*
G01X15976600Y-2539949D03*
G01X3848100Y-2095500D03*
G01X4345808Y-1878330D03*
G01X6375400Y-3556000D03*
G01X6705600Y-3556000D03*
G01X16992600Y-3429000D03*
G01X17145000Y-3378200D03*
G01X5257800Y-3733800D03*
G01X5816600Y-3784600D03*
G01X6045200Y-3810000D03*
G01X6781800Y-3733800D03*
G01X19456400Y-3124200D03*
G01X20828000Y-2672994D03*
G01X5702295Y-7360399D03*
G01X6591295Y-7233399D03*
G01X6794495Y-6598399D03*
G01X6235695Y-9405099D03*
G01X6785087Y-6468107D03*
G01X863600Y-3683000D03*
G01X6372809Y-3774491D03*
G01X6183691Y-3963609D03*
G01X8215691Y-5725363D03*
G01X9731799Y-2111306D03*
G01X14084300Y-2508606D03*
G01X15753491Y-2584806D03*
G01X17920005Y-3378200D03*
G01X1710507Y-13289293D03*
G01X7061200Y-4483100D03*
G01X5130800Y-4584700D03*
G01X4114800Y-4584700D03*
G01X2667000Y-5168900D03*
G01X7927213Y-5325300D03*
G01X6680195Y-5976099D03*
G01X2489200Y-3886200D03*
G01X3327400Y-4724400D03*
G01X3860800Y-4724400D03*
G01X6146800Y-4267200D03*
G01X6786296Y-8646541D03*
G01X6379896Y-6004941D03*
G01X6710096Y-5649341D03*
G01X5791200Y-6273800D03*
G01X5689600Y-6223000D03*
G01X6781800Y-6223000D03*
G01X6934200Y-6604000D03*
G01X2997200Y-6426200D03*
G01X5471541Y-7681341D03*
G01X5674741Y-7681341D03*
G01X5715000Y-7442200D03*
G01X5827141Y-7579741D03*
G01X8005496Y-8189341D03*
G01X8208696Y-9266999D03*
G01X9834296Y-9317799D03*
G01X11790096Y-8479599D03*
G01X9986696Y-10181399D03*
G01X11485296Y-11171999D03*
G01X8132496Y-8316341D03*
G01X9631096Y-8748141D03*
G01X11078896Y-8748141D03*
G01X13248792Y-12556299D03*
G01X13248792Y-13165899D03*
G01X8081696Y-8646541D03*
G01X8386496Y-8595741D03*
G01X9300896Y-8214741D03*
G01X13034696Y-9002141D03*
G01X14660296Y-9052941D03*
G01X14823592Y-10194099D03*
G01X14798192Y-11311699D03*
G01X8208696Y-9129141D03*
G01X8640496Y-9154541D03*
G01X16376637Y-8123999D03*
G01X16652392Y-9317799D03*
G01X7700696Y-9129141D03*
G01X9199296Y-8570341D03*
G01X16565296Y-8925941D03*
G01X8143354Y-9190799D03*
G01X9946754Y-9292399D03*
G01X18176354Y-8784399D03*
G01X3638906Y-6057900D03*
G01X3848100Y-6273800D03*
G01X11684000Y-3162300D03*
G01X13893800Y-3111500D03*
G01X8509000Y-3822700D03*
G01X6578600Y-3873500D03*
G04 Via End*

M02*

