;TYPE=PLATED
;Layer: PTH_Through_Via
;EasyEDA Pro v2.2.35.2, 2025-01-29 23:55:15
;Gerber Generator version 0.3
M48
METRIC,LZ,0000.00000
;Hole size 1 = 0.30500 METRIC
T01C0.30500
%
G05
G90
T01
X99.06Y-100.203
X103.378Y-89.535
X112.014Y-86.233
X117.602Y-85.471
X79.375Y-69.342
X85.09Y-61.087
X75.311Y-69.342
X54.991Y-64.77
X121.031Y-59.944
X166.37Y-16.256
X96.012Y-73.279
X98.806Y-69.469
X94.488Y-79.839
X94.488Y-98.889
X89.916Y-86.233
X82.804Y-105.283
X81.788Y-102.743
X78.359Y-71.247
X93.218Y-90.297
X6.35Y-54.229
X2.794Y-55.753
X28.829Y-56.261
X27.178Y-55.88
X71.263Y-51.673
X74.93Y-55.626
X145.669Y-76.534
X125.349Y-77.724
X93.853Y-106.299
X94.107Y-99.949
X89.281Y-99.695
X101.854Y-94.869
X78.994Y-103.759
X78.867Y-102.743
X57.023Y-87.503
X56.261Y-81.915
X72.009Y-63.119
X77.343Y-63.119
X124.841Y-72.644
X133.858Y-74.93
X57.277Y-79.629
X87.63Y-66.929
X124.841Y-75.184
X132.588Y-76.2
X78.867Y-96.393
X88.265Y-86.995
X102.997Y-74.803
X124.333Y-76.581
X131.445Y-77.343
X81.915Y-75.819
X84.455Y-75.692
X91.948Y-76.454
X90.678Y-73.914
X79.121Y-71.374
X98.044Y-94.234
X84.582Y-70.739
X121.92Y-76.962
X86.233Y-74.549
X157.77Y-18.034
M30