;TYPE=PLATED
;Layer: PTH_Through
;EasyEDA Pro v2.2.35.2, 2025-01-29 23:55:15
;Gerber Generator version 0.3
M48
METRIC,LZ,0000.00000
;Hole size 1 = 0.02540 METRIC
T01C0.02540
;Hole size 2 = 0.30500 METRIC
T02C0.30500
;Hole size 3 = 0.50000 METRIC
T03C0.50000
;Hole size 4 = 0.70000 METRIC
T04C0.70000
;Hole size 5 = 0.78740 METRIC
T05C0.78740
;Hole size 6 = 0.80000 METRIC
T06C0.80000
;Hole size 7 = 1.00000 METRIC
T07C1.00000
;Hole size 8 = 1.02000 METRIC
T08C1.02000
;Hole size 9 = 1.10000 METRIC
T09C1.10000
;Hole size 10 = 1.40000 METRIC
T10C1.40000
;Hole size 11 = 1.60000 METRIC
T11C1.60000
%
G05
G90
T01
X102.362Y-6.763
X102.362Y-12.163
X102.362Y-17.863
X125.984Y-6.509
X125.984Y-11.909
X125.984Y-17.609
X137.668Y-6.509
X137.668Y-11.909
X137.668Y-17.609
X114.554Y-6.763
X114.554Y-12.163
X114.554Y-17.863
X90.043Y-6.636
X90.043Y-12.036
X90.043Y-17.736
X78.105Y-6.636
X78.105Y-12.036
X78.105Y-17.736
T02
X99.06Y-100.203
X103.378Y-89.535
X112.014Y-86.233
X117.602Y-85.471
X79.375Y-69.342
X85.09Y-61.087
X75.311Y-69.342
X54.991Y-64.77
X121.031Y-59.944
X166.37Y-16.256
X96.012Y-73.279
X98.806Y-69.469
X94.488Y-79.839
X94.488Y-98.889
X89.916Y-86.233
X82.804Y-105.283
X81.788Y-102.743
X78.359Y-71.247
X93.218Y-90.297
X6.35Y-54.229
X2.794Y-55.753
X28.829Y-56.261
X27.178Y-55.88
X71.263Y-51.673
X74.93Y-55.626
X145.669Y-76.534
X125.349Y-77.724
X93.853Y-106.299
X94.107Y-99.949
X89.281Y-99.695
X101.854Y-94.869
X78.994Y-103.759
X78.867Y-102.743
X57.023Y-87.503
X56.261Y-81.915
X72.009Y-63.119
X77.343Y-63.119
X124.841Y-72.644
X133.858Y-74.93
X57.277Y-79.629
X87.63Y-66.929
X124.841Y-75.184
X132.588Y-76.2
X78.867Y-96.393
X88.265Y-86.995
X102.997Y-74.803
X124.333Y-76.581
X131.445Y-77.343
X81.915Y-75.819
X84.455Y-75.692
X91.948Y-76.454
X90.678Y-73.914
X79.121Y-71.374
X98.044Y-94.234
X84.582Y-70.739
X121.92Y-76.962
X86.233Y-74.549
X157.77Y-18.034
T03
X2.794Y-50.673
X3.794Y-50.673
X2.794Y-51.673
X3.794Y-51.673
X2.794Y-52.673
X3.794Y-52.673
X2.794Y-53.673
X3.794Y-53.673
X27.178Y-50.927
X28.178Y-50.927
X27.178Y-51.927
X28.178Y-51.927
X27.178Y-52.927
X28.178Y-52.927
X27.178Y-53.927
X28.178Y-53.927
X75.692Y-50.673
X76.692Y-50.673
X75.692Y-51.673
X76.692Y-51.673
X75.692Y-52.673
X76.692Y-52.673
X75.692Y-53.673
X76.692Y-53.673
X102.997Y-50.8
X103.997Y-50.8
X102.997Y-51.8
X103.997Y-51.8
X102.997Y-52.8
X103.997Y-52.8
X102.997Y-53.8
X103.997Y-53.8
X127.635Y-50.292
X128.635Y-50.292
X127.635Y-51.292
X128.635Y-51.292
X127.635Y-52.292
X128.635Y-52.292
X127.635Y-53.292
X128.635Y-53.292
X151.638Y-50.546
X152.638Y-50.546
X151.638Y-51.546
X152.638Y-51.546
X151.638Y-52.546
X152.638Y-52.546
X151.638Y-53.546
X152.638Y-53.546
X171.45Y-7.62
X170.45Y-7.62
X169.45Y-7.62
X147.066Y-86.868
X146.066Y-86.868
X145.066Y-86.868
T04
X60.071Y-32.385
X60.071Y-29.845
X173.482Y-16.256
X173.482Y-18.796
X8.509Y-32.893
X8.509Y-35.433
X157.226Y-20.066
X159.766Y-20.066
T05
X73.279Y-95.885
X73.279Y-98.425
X73.279Y-100.965
X73.279Y-103.505
X73.279Y-106.045
X73.279Y-108.585
X73.279Y-111.125
X73.279Y-113.665
X80.899Y-113.665
X80.899Y-111.125
X80.899Y-108.585
X80.899Y-106.045
X80.899Y-103.505
X80.899Y-100.965
X80.899Y-98.425
X80.899Y-95.885
X109.728Y-78.994
X109.728Y-81.534
X109.728Y-84.074
X109.728Y-86.614
X109.728Y-89.154
X109.728Y-91.694
X109.728Y-94.234
X109.728Y-96.774
X117.348Y-96.774
X117.348Y-94.234
X117.348Y-91.694
X117.348Y-89.154
X117.348Y-86.614
X117.348Y-84.074
X117.348Y-81.534
X117.348Y-78.994
X48.26Y-62.992
X48.26Y-65.532
X48.26Y-68.072
X48.26Y-70.612
X48.26Y-73.152
X48.26Y-75.692
X48.26Y-78.232
X48.26Y-80.772
X55.88Y-80.772
X55.88Y-78.232
X55.88Y-75.692
X55.88Y-73.152
X55.88Y-70.612
X55.88Y-68.072
X55.88Y-65.532
X55.88Y-62.992
X73.66Y-67.437
X73.66Y-69.977
X73.66Y-72.517
X73.66Y-75.057
X73.66Y-77.597
X73.66Y-80.137
X73.66Y-82.677
X73.66Y-85.217
X81.28Y-85.217
X81.28Y-82.677
X81.28Y-80.137
X81.28Y-77.597
X81.28Y-75.057
X81.28Y-72.517
X81.28Y-69.977
X81.28Y-67.437
X28.067Y-77.089
X28.067Y-79.629
X28.067Y-82.169
X28.067Y-84.709
X28.067Y-87.249
X28.067Y-89.789
X28.067Y-92.329
X28.067Y-94.869
X35.687Y-94.869
X35.687Y-92.329
X35.687Y-89.789
X35.687Y-87.249
X35.687Y-84.709
X35.687Y-82.169
X35.687Y-79.629
X35.687Y-77.089
X139.573Y-64.389
X139.573Y-66.929
X139.573Y-69.469
X139.573Y-72.009
X139.573Y-74.549
X139.573Y-77.089
X139.573Y-79.629
X139.573Y-82.169
X147.193Y-82.169
X147.193Y-79.629
X147.193Y-77.089
X147.193Y-74.549
X147.193Y-72.009
X147.193Y-69.469
X147.193Y-66.929
X147.193Y-64.389
X122.936Y-59.944
X122.936Y-62.484
X122.936Y-65.024
X122.936Y-67.564
X122.936Y-70.104
X122.936Y-72.644
X122.936Y-75.184
X122.936Y-77.724
X130.556Y-77.724
X130.556Y-75.184
X130.556Y-72.644
X130.556Y-70.104
X130.556Y-67.564
X130.556Y-65.024
X130.556Y-62.484
X130.556Y-59.944
X6.35Y-77.089
X6.35Y-79.629
X6.35Y-82.169
X6.35Y-84.709
X6.35Y-87.249
X6.35Y-89.789
X6.35Y-92.329
X6.35Y-94.869
X13.97Y-94.869
X13.97Y-92.329
X13.97Y-89.789
X13.97Y-87.249
X13.97Y-84.709
X13.97Y-82.169
X13.97Y-79.629
X13.97Y-77.089
X88.265Y-50.292
X88.265Y-52.832
X88.265Y-55.372
X88.265Y-57.912
X88.265Y-60.452
X88.265Y-62.992
X88.265Y-65.532
X88.265Y-68.072
X95.885Y-68.072
X95.885Y-65.532
X95.885Y-62.992
X95.885Y-60.452
X95.885Y-57.912
X95.885Y-55.372
X95.885Y-52.832
X95.885Y-50.292
T06
X129.286Y-27.94
X124.286Y-27.94
X167.005Y-53.086
X167.005Y-48.086
X60.198Y-18.923
X52.578Y-18.923
X80.518Y-32.004
X80.518Y-29.464
X80.518Y-26.924
X80.518Y-24.384
X72.898Y-24.384
X72.898Y-26.924
X72.898Y-29.464
X72.898Y-32.004
T07
X179.197Y-11.176
X179.197Y-18.676
T08
X103.632Y-123.571
X103.632Y-121.031
X103.632Y-118.491
X103.632Y-115.951
X98.552Y-93.091
X88.392Y-121.031
X103.632Y-113.411
X103.632Y-110.871
X103.632Y-108.331
X103.632Y-105.791
X103.632Y-103.251
X103.632Y-100.711
X103.632Y-98.171
X103.632Y-95.631
X103.632Y-93.091
X88.392Y-93.091
X88.392Y-95.631
X88.392Y-98.171
X88.392Y-100.711
X88.392Y-103.251
X88.392Y-105.791
X88.392Y-108.331
X88.392Y-110.871
X88.392Y-113.411
X88.392Y-115.951
X88.392Y-118.491
X103.632Y-126.111
X96.012Y-93.091
X88.392Y-123.571
X90.932Y-93.091
X93.472Y-93.091
X101.092Y-93.091
X88.392Y-126.111
T09
X210.208Y-2.667
X203.708Y-2.667
X210.208Y-7.167
X203.708Y-7.167
X182.499Y-32.258
X182.499Y-22.098
X124.841Y-35.56
X124.841Y-38.1
X124.841Y-40.64
T10
X33.14Y-13.259
X40.64Y-13.259
X48.14Y-13.259
X35.64Y-15.759
X45.64Y-15.759
X45.64Y-3.759
X35.64Y-3.759
X6.978Y-13.386
X14.478Y-13.386
X21.978Y-13.386
X9.478Y-15.886
X19.478Y-15.886
X19.478Y-3.886
X9.478Y-3.886
T11
X160.528Y-14.859
X160.528Y-8.859
X155.828Y-11.859
M30