G04 Layer: BoardOutlineLayer*
G04 EasyEDA Pro v2.2.35.2, 2025-01-29 23:55:14*
G04 Gerber Generator version 0.3*
G04 Scale: 100 percent, Rotated: No, Reflected: No*
G04 Dimensions in millimeters*
G04 Leading zeros omitted, absolute positions, 4 integers and 5 decimals*
%FSLAX45Y45*%
%MOMM*%
%ADD10C,0.1*%
%ADD11C,1.2*%
G75*


G04 PolygonModel Start*
G54D10*
G01X-12000Y-13736100D02*
G01X21324000Y-13736100D01*
G01X21324000Y-20100D01*
G01X-12000Y-20100D01*
G01X-12000Y-13736100D01*
G54D11*
G01X10171200Y-1786300D02*
G01X10301200Y-1786300D01*
G01X10171200Y-676300D02*
G01X10301200Y-676300D01*
G01X10171200Y-1216300D02*
G01X10301200Y-1216300D01*
G01X12533400Y-1760900D02*
G01X12663400Y-1760900D01*
G01X12533400Y-650900D02*
G01X12663400Y-650900D01*
G01X12533400Y-1190900D02*
G01X12663400Y-1190900D01*
G01X13701800Y-1760900D02*
G01X13831800Y-1760900D01*
G01X13701800Y-650900D02*
G01X13831800Y-650900D01*
G01X13701800Y-1190900D02*
G01X13831800Y-1190900D01*
G01X11390400Y-1786300D02*
G01X11520400Y-1786300D01*
G01X11390400Y-676300D02*
G01X11520400Y-676300D01*
G01X11390400Y-1216300D02*
G01X11520400Y-1216300D01*
G01X8939300Y-1773600D02*
G01X9069300Y-1773600D01*
G01X8939300Y-663600D02*
G01X9069300Y-663600D01*
G01X8939300Y-1203600D02*
G01X9069300Y-1203600D01*
G01X7745500Y-1773600D02*
G01X7875500Y-1773600D01*
G01X7745500Y-663600D02*
G01X7875500Y-663600D01*
G01X7745500Y-1203600D02*
G01X7875500Y-1203600D01*

M02*

