G04 Layer: BottomLayer*
G04 EasyEDA Pro v2.2.35.2, 2025-01-29 23:55:14*
G04 Gerber Generator version 0.3*
G04 Scale: 100 percent, Rotated: No, Reflected: No*
G04 Dimensions in millimeters*
G04 Leading zeros omitted, absolute positions, 4 integers and 5 decimals*
%FSLAX45Y45*%
%MOMM*%
%ADD10C,2.0*%
%ADD11O,3.008X1.708*%
%ADD12R,1.2954X1.2954*%
%ADD13C,1.2954*%
%ADD14C,1.6*%
%ADD15C,1.4*%
%ADD16R,2.2054X2.2*%
%ADD17R,2.2X2.2*%
%ADD18C,2.2*%
%ADD19R,1.6X1.6*%
%ADD20R,2.6X2.6*%
%ADD21C,2.6*%
%ADD22C,1.53*%
%ADD23R,2.1X2.1*%
%ADD24C,2.1*%
%ADD25R,1.6X1.6*%
%ADD26R,2.0X1.905*%
%ADD27O,2.0X1.905*%
%ADD28R,0.85X0.85*%
%ADD29C,0.85*%
%ADD30R,0.85X0.85*%
%ADD31C,0.61*%
%ADD32C,0.254*%
G75*


G04 Pad Start*
G54D10*
G01X21020800Y-266700D03*
G01X20370800Y-266700D03*
G01X21020800Y-716700D03*
G01X20370800Y-716700D03*
G54D11*
G01X10236200Y-676300D03*
G01X10236200Y-1216300D03*
G01X10236200Y-1786300D03*
G54D12*
G01X7327900Y-9588500D03*
G54D13*
G01X7327900Y-9842500D03*
G01X7327900Y-10096500D03*
G01X7327900Y-10350500D03*
G01X7327900Y-10604500D03*
G01X7327900Y-10858500D03*
G01X7327900Y-11112500D03*
G01X7327900Y-11366500D03*
G01X8089900Y-11366500D03*
G01X8089900Y-11112500D03*
G01X8089900Y-10858500D03*
G01X8089900Y-10604500D03*
G01X8089900Y-10350500D03*
G01X8089900Y-10096500D03*
G01X8089900Y-9842500D03*
G01X8089900Y-9588500D03*
G54D10*
G01X17919700Y-1117600D03*
G01X17919700Y-1867600D03*
G54D14*
G01X12928600Y-2794000D03*
G01X12428600Y-2794000D03*
G01X16700500Y-5308600D03*
G01X16700500Y-4808600D03*
G54D15*
G01X6007100Y-3238500D03*
G01X6007100Y-2984500D03*
G54D17*
G01X18249900Y-3225800D03*
G54D18*
G01X18249900Y-2209800D03*
G54D19*
G01X6019800Y-1892300D03*
G54D14*
G01X5257800Y-1892300D03*
G54D20*
G01X16052800Y-1485900D03*
G54D21*
G01X16052800Y-885900D03*
G01X15582800Y-1185900D03*
G54D22*
G01X10363200Y-12357100D03*
G01X10363200Y-12103100D03*
G01X10363200Y-11849100D03*
G01X10363200Y-11595100D03*
G01X9855200Y-9309100D03*
G01X8839200Y-12103100D03*
G01X10363200Y-11341100D03*
G01X10363200Y-11087100D03*
G01X10363200Y-10833100D03*
G01X10363200Y-10579100D03*
G01X10363200Y-10325100D03*
G01X10363200Y-10071100D03*
G01X10363200Y-9817100D03*
G01X10363200Y-9563100D03*
G01X10363200Y-9309100D03*
G01X8839200Y-9309100D03*
G01X8839200Y-9563100D03*
G01X8839200Y-9817100D03*
G01X8839200Y-10071100D03*
G01X8839200Y-10325100D03*
G01X8839200Y-10579100D03*
G01X8839200Y-10833100D03*
G01X8839200Y-11087100D03*
G01X8839200Y-11341100D03*
G01X8839200Y-11595100D03*
G01X8839200Y-11849100D03*
G01X10363200Y-12611100D03*
G01X9601200Y-9309100D03*
G01X8839200Y-12357100D03*
G01X9093200Y-9309100D03*
G01X9347200Y-9309100D03*
G01X10109200Y-9309100D03*
G01X8839200Y-12611100D03*
G54D12*
G01X10972800Y-7899400D03*
G54D13*
G01X10972800Y-8153400D03*
G01X10972800Y-8407400D03*
G01X10972800Y-8661400D03*
G01X10972800Y-8915400D03*
G01X10972800Y-9169400D03*
G01X10972800Y-9423400D03*
G01X10972800Y-9677400D03*
G01X11734800Y-9677400D03*
G01X11734800Y-9423400D03*
G01X11734800Y-9169400D03*
G01X11734800Y-8915400D03*
G01X11734800Y-8661400D03*
G01X11734800Y-8407400D03*
G01X11734800Y-8153400D03*
G01X11734800Y-7899400D03*
G54D23*
G01X3314000Y-1325900D03*
G54D24*
G01X4064000Y-1325900D03*
G01X4814000Y-1325900D03*
G01X3564000Y-1575900D03*
G01X4564000Y-1575900D03*
G01X4564000Y-375900D03*
G01X3564000Y-375900D03*
G54D12*
G01X4826000Y-6299200D03*
G54D13*
G01X4826000Y-6553200D03*
G01X4826000Y-6807200D03*
G01X4826000Y-7061200D03*
G01X4826000Y-7315200D03*
G01X4826000Y-7569200D03*
G01X4826000Y-7823200D03*
G01X4826000Y-8077200D03*
G01X5588000Y-8077200D03*
G01X5588000Y-7823200D03*
G01X5588000Y-7569200D03*
G01X5588000Y-7315200D03*
G01X5588000Y-7061200D03*
G01X5588000Y-6807200D03*
G01X5588000Y-6553200D03*
G01X5588000Y-6299200D03*
G54D12*
G01X7366000Y-6743700D03*
G54D13*
G01X7366000Y-6997700D03*
G01X7366000Y-7251700D03*
G01X7366000Y-7505700D03*
G01X7366000Y-7759700D03*
G01X7366000Y-8013700D03*
G01X7366000Y-8267700D03*
G01X7366000Y-8521700D03*
G01X8128000Y-8521700D03*
G01X8128000Y-8267700D03*
G01X8128000Y-8013700D03*
G01X8128000Y-7759700D03*
G01X8128000Y-7505700D03*
G01X8128000Y-7251700D03*
G01X8128000Y-6997700D03*
G01X8128000Y-6743700D03*
G54D11*
G01X12598400Y-650900D03*
G01X12598400Y-1190900D03*
G01X12598400Y-1760900D03*
G54D12*
G01X2806700Y-7708900D03*
G54D13*
G01X2806700Y-7962900D03*
G01X2806700Y-8216900D03*
G01X2806700Y-8470900D03*
G01X2806700Y-8724900D03*
G01X2806700Y-8978900D03*
G01X2806700Y-9232900D03*
G01X2806700Y-9486900D03*
G01X3568700Y-9486900D03*
G01X3568700Y-9232900D03*
G01X3568700Y-8978900D03*
G01X3568700Y-8724900D03*
G01X3568700Y-8470900D03*
G01X3568700Y-8216900D03*
G01X3568700Y-7962900D03*
G01X3568700Y-7708900D03*
G54D11*
G01X13766800Y-650900D03*
G01X13766800Y-1190900D03*
G01X13766800Y-1760900D03*
G54D15*
G01X17348200Y-1625600D03*
G01X17348200Y-1879600D03*
G54D12*
G01X13957300Y-6438900D03*
G54D13*
G01X13957300Y-6692900D03*
G01X13957300Y-6946900D03*
G01X13957300Y-7200900D03*
G01X13957300Y-7454900D03*
G01X13957300Y-7708900D03*
G01X13957300Y-7962900D03*
G01X13957300Y-8216900D03*
G01X14719300Y-8216900D03*
G01X14719300Y-7962900D03*
G01X14719300Y-7708900D03*
G01X14719300Y-7454900D03*
G01X14719300Y-7200900D03*
G01X14719300Y-6946900D03*
G01X14719300Y-6692900D03*
G01X14719300Y-6438900D03*
G54D25*
G01X8051800Y-3200400D03*
G54D14*
G01X8051800Y-2946400D03*
G01X8051800Y-2692400D03*
G01X8051800Y-2438400D03*
G01X7289800Y-2438400D03*
G01X7289800Y-2692400D03*
G01X7289800Y-2946400D03*
G01X7289800Y-3200400D03*
G54D12*
G01X12293600Y-5994400D03*
G54D13*
G01X12293600Y-6248400D03*
G01X12293600Y-6502400D03*
G01X12293600Y-6756400D03*
G01X12293600Y-7010400D03*
G01X12293600Y-7264400D03*
G01X12293600Y-7518400D03*
G01X12293600Y-7772400D03*
G01X13055600Y-7772400D03*
G01X13055600Y-7518400D03*
G01X13055600Y-7264400D03*
G01X13055600Y-7010400D03*
G01X13055600Y-6756400D03*
G01X13055600Y-6502400D03*
G01X13055600Y-6248400D03*
G01X13055600Y-5994400D03*
G54D12*
G01X635000Y-7708900D03*
G54D13*
G01X635000Y-7962900D03*
G01X635000Y-8216900D03*
G01X635000Y-8470900D03*
G01X635000Y-8724900D03*
G01X635000Y-8978900D03*
G01X635000Y-9232900D03*
G01X635000Y-9486900D03*
G01X1397000Y-9486900D03*
G01X1397000Y-9232900D03*
G01X1397000Y-8978900D03*
G01X1397000Y-8724900D03*
G01X1397000Y-8470900D03*
G01X1397000Y-8216900D03*
G01X1397000Y-7962900D03*
G01X1397000Y-7708900D03*
G54D11*
G01X11455400Y-676300D03*
G01X11455400Y-1216300D03*
G01X11455400Y-1786300D03*
G54D12*
G01X8826500Y-5029200D03*
G54D13*
G01X8826500Y-5283200D03*
G01X8826500Y-5537200D03*
G01X8826500Y-5791200D03*
G01X8826500Y-6045200D03*
G01X8826500Y-6299200D03*
G01X8826500Y-6553200D03*
G01X8826500Y-6807200D03*
G01X9588500Y-6807200D03*
G01X9588500Y-6553200D03*
G01X9588500Y-6299200D03*
G01X9588500Y-6045200D03*
G01X9588500Y-5791200D03*
G01X9588500Y-5537200D03*
G01X9588500Y-5283200D03*
G01X9588500Y-5029200D03*
G54D23*
G01X697800Y-1338600D03*
G54D24*
G01X1447800Y-1338600D03*
G01X2197800Y-1338600D03*
G01X947800Y-1588600D03*
G01X1947800Y-1588600D03*
G01X1947800Y-388600D03*
G01X947800Y-388600D03*
G54D15*
G01X850900Y-3289300D03*
G01X850900Y-3543300D03*
G54D11*
G01X9004300Y-663600D03*
G01X9004300Y-1203600D03*
G01X9004300Y-1773600D03*
G54D26*
G01X12484100Y-3556000D03*
G54D27*
G01X12484100Y-3810000D03*
G01X12484100Y-4064000D03*
G54D11*
G01X7810500Y-663600D03*
G01X7810500Y-1203600D03*
G01X7810500Y-1773600D03*
G54D15*
G01X15722600Y-2006600D03*
G01X15976600Y-2006600D03*
G54D28*
G01X279400Y-5067300D03*
G54D29*
G01X379400Y-5067300D03*
G01X279400Y-5167300D03*
G01X379400Y-5167300D03*
G01X279400Y-5267300D03*
G01X379400Y-5267300D03*
G01X279400Y-5367300D03*
G01X379400Y-5367300D03*
G54D28*
G01X2717800Y-5092700D03*
G54D29*
G01X2817800Y-5092700D03*
G01X2717800Y-5192700D03*
G01X2817800Y-5192700D03*
G01X2717800Y-5292700D03*
G01X2817800Y-5292700D03*
G01X2717800Y-5392700D03*
G01X2817800Y-5392700D03*
G54D28*
G01X7569200Y-5067300D03*
G54D29*
G01X7669200Y-5067300D03*
G01X7569200Y-5167300D03*
G01X7669200Y-5167300D03*
G01X7569200Y-5267300D03*
G01X7669200Y-5267300D03*
G01X7569200Y-5367300D03*
G01X7669200Y-5367300D03*
G54D28*
G01X10299700Y-5080000D03*
G54D29*
G01X10399700Y-5080000D03*
G01X10299700Y-5180000D03*
G01X10399700Y-5180000D03*
G01X10299700Y-5280000D03*
G01X10399700Y-5280000D03*
G01X10299700Y-5380000D03*
G01X10399700Y-5380000D03*
G54D28*
G01X12763500Y-5029200D03*
G54D29*
G01X12863500Y-5029200D03*
G01X12763500Y-5129200D03*
G01X12863500Y-5129200D03*
G01X12763500Y-5229200D03*
G01X12863500Y-5229200D03*
G01X12763500Y-5329200D03*
G01X12863500Y-5329200D03*
G54D28*
G01X15163800Y-5054600D03*
G54D29*
G01X15263800Y-5054600D03*
G01X15163800Y-5154600D03*
G01X15263800Y-5154600D03*
G01X15163800Y-5254600D03*
G01X15263800Y-5254600D03*
G01X15163800Y-5354600D03*
G01X15263800Y-5354600D03*
G54D30*
G01X17145000Y-762000D03*
G54D29*
G01X17045000Y-762000D03*
G01X16945000Y-762000D03*
G54D30*
G01X14706600Y-8686800D03*
G54D29*
G01X14606600Y-8686800D03*
G01X14506600Y-8686800D03*
G04 Pad End*

G04 Via Start*
G54D31*
G01X9906000Y-10020300D03*
G01X10337800Y-8953500D03*
G01X11201400Y-8623300D03*
G01X11760200Y-8547100D03*
G01X7937500Y-6934200D03*
G01X8509000Y-6108700D03*
G01X7531100Y-6934200D03*
G01X5499100Y-6477000D03*
G01X12103100Y-5994400D03*
G01X16637000Y-1625600D03*
G01X9601200Y-7327900D03*
G01X9880600Y-6946900D03*
G01X9448800Y-7983900D03*
G01X9448800Y-9888900D03*
G01X8991600Y-8623300D03*
G01X8280400Y-10528300D03*
G01X8178800Y-10274300D03*
G01X7835900Y-7124700D03*
G01X9321800Y-9029700D03*
G01X635000Y-5422900D03*
G01X279400Y-5575300D03*
G01X2882900Y-5626100D03*
G01X2717800Y-5588000D03*
G01X7126300Y-5167300D03*
G01X7493000Y-5562600D03*
G01X14566900Y-7653400D03*
G01X12534900Y-7772400D03*
G01X9385300Y-10629900D03*
G01X9410700Y-9994900D03*
G01X8928100Y-9969500D03*
G01X10185400Y-9486900D03*
G01X7899400Y-10375900D03*
G01X7886700Y-10274300D03*
G01X5702300Y-8750300D03*
G01X5626100Y-8191500D03*
G01X7200900Y-6311900D03*
G01X7734300Y-6311900D03*
G01X12484100Y-7264400D03*
G01X13385800Y-7493000D03*
G01X5727700Y-7962900D03*
G01X8763000Y-6692900D03*
G01X12484100Y-7518400D03*
G01X13258800Y-7620000D03*
G01X7886700Y-9639300D03*
G01X8826500Y-8699500D03*
G01X10299700Y-7480300D03*
G01X12433300Y-7658100D03*
G01X13144500Y-7734300D03*
G01X8191500Y-7581900D03*
G01X8445500Y-7569200D03*
G01X9194800Y-7645400D03*
G01X9067800Y-7391400D03*
G01X7912100Y-7137400D03*
G01X9804400Y-9423400D03*
G01X8458200Y-7073900D03*
G01X12192000Y-7696200D03*
G01X8623300Y-7454900D03*
G01X15777000Y-1803400D03*
G04 Via End*

G04 Track Start*
G54D32*
G01X8839200Y-12103100D02*
G01X9321800Y-11620500D01*
G01X9321800Y-10604500D01*
G01X9906000Y-10020300D01*
G01X10337800Y-8953500D02*
G01X10871200Y-8420100D01*
G01X10871200Y-8001000D01*
G01X10972800Y-7899400D01*
G01X10871200Y-8420100D02*
G01X10871200Y-8445500D01*
G01X10972800Y-8547100D01*
G01X11125200Y-8547100D01*
G01X11201400Y-8623300D01*
G01X11760200Y-8547100D02*
G01X14566900Y-8547100D01*
G01X14706600Y-8686800D01*
G01X7937500Y-6934200D02*
G01X8128000Y-6743700D01*
G01X8128000Y-6489700D01*
G01X8509000Y-6108700D01*
G01X7531100Y-6934200D02*
G01X7454900Y-6858000D01*
G01X7302500Y-6858000D01*
G01X6896100Y-6451600D01*
G01X5524500Y-6451600D01*
G01X5499100Y-6477000D01*
G01X12103100Y-5994400D02*
G01X12204700Y-6096000D01*
G01X12509500Y-6096000D01*
G01X12611100Y-5994400D01*
G01X12636500Y-5994400D02*
G01X12636500Y-5029200D01*
G01X12712700Y-4953000D01*
G01X12890500Y-4953000D01*
G01X13843000Y-5905500D01*
G01X13843000Y-6718300D01*
G01X13919200Y-6794500D01*
G01X14363700Y-6794500D02*
G01X14719300Y-6438900D01*
G01X13995400Y-6794500D02*
G01X14503400Y-7302500D01*
G01X14503400Y-8353400D01*
G01X14798700Y-8648700D01*
G01X14798700Y-8724900D01*
G01X14747900Y-8775700D01*
G01X14595500Y-8775700D01*
G01X14506600Y-8686800D01*
G01X12890500Y-4953000D02*
G01X12890500Y-4838700D01*
G01X15722600Y-2006600D01*
G01X15824200Y-2108200D01*
G01X16154400Y-2108200D01*
G01X16637000Y-1625600D01*
G01X8839200Y-9563100D02*
G01X8966200Y-9436100D01*
G01X8966200Y-9283700D01*
G01X9601200Y-8648700D01*
G01X9601200Y-7327900D01*
G01X9880600Y-6946900D02*
G01X12344400Y-4483100D01*
G01X12344400Y-3441700D01*
G01X12598400Y-3187700D01*
G01X12598400Y-1760900D01*
G01X8839200Y-9817100D02*
G01X9220200Y-9436100D01*
G01X9220200Y-9283700D01*
G01X12039600Y-6464300D01*
G01X12039600Y-5549900D01*
G01X13766800Y-3822700D01*
G01X13766800Y-1760900D01*
G01X10236200Y-1786300D02*
G01X10182318Y-1840181D01*
G01X10182318Y-1876103D01*
G01X10541000Y-2234784D01*
G01X10541000Y-5494700D01*
G01X9575800Y-6459900D01*
G01X9550400Y-6459900D01*
G01X9448800Y-6561500D01*
G01X9448800Y-7983900D01*
G01X9448800Y-9888900D02*
G01X9169400Y-9888900D01*
G01X8991600Y-10066700D01*
G01X8843600Y-10066700D01*
G01X8839200Y-10071100D01*
G01X8991600Y-8623300D02*
G01X8991600Y-6324600D01*
G01X8826500Y-6159500D01*
G01X8801100Y-6159500D01*
G01X8724900Y-6083300D01*
G01X8724900Y-6007100D01*
G01X8826500Y-5905500D01*
G01X8851900Y-5905500D01*
G01X8953500Y-5803900D01*
G01X8953500Y-5524500D01*
G01X8826500Y-5397500D01*
G01X8801100Y-5397500D01*
G01X8724900Y-5321300D01*
G01X8724900Y-2053000D01*
G01X9004300Y-1773600D01*
G01X8280400Y-10528300D02*
G01X8280400Y-10375900D01*
G01X8178800Y-10274300D01*
G01X7835900Y-7124700D02*
G01X7835900Y-3619500D01*
G01X8166100Y-3289300D01*
G01X8166100Y-2129200D01*
G01X7810500Y-1773600D01*
G01X9321800Y-9029700D02*
G01X10363200Y-7988300D01*
G01X10363200Y-7454900D01*
G01X9941392Y-7033092D01*
G01X9865192Y-7033092D01*
G01X9804400Y-6972300D01*
G01X9804400Y-6921500D01*
G01X11455400Y-5270500D01*
G01X11455400Y-1786300D01*
G01X1397000Y-8470900D02*
G01X1498600Y-8369300D01*
G01X1498600Y-6286500D01*
G01X635000Y-5422900D01*
G01X1397000Y-8216900D02*
G01X508000Y-7327900D01*
G01X508000Y-5195900D01*
G01X379400Y-5067300D01*
G01X1397000Y-7962900D02*
G01X558800Y-7124700D01*
G01X558800Y-5143500D01*
G01X406400Y-4991100D01*
G01X228600Y-4991100D01*
G01X203200Y-5016500D01*
G01X203200Y-5118100D01*
G01X252400Y-5167300D01*
G01X279400Y-5167300D01*
G01X1397000Y-8724900D02*
G01X736600Y-8064500D01*
G01X736600Y-7632700D01*
G01X457200Y-7353300D01*
G01X457200Y-5245100D01*
G01X379400Y-5167300D01*
G01X635000Y-7962900D02*
G01X279400Y-7607300D01*
G01X279400Y-5575300D01*
G01X635000Y-8470900D02*
G01X203200Y-8039100D01*
G01X203200Y-5543500D01*
G01X379400Y-5367300D01*
G01X2882900Y-5626100D02*
G01X2959100Y-5549900D01*
G01X2959100Y-5130800D01*
G01X2844800Y-5016500D01*
G01X2794000Y-5016500D01*
G01X2717800Y-5092700D01*
G01X2806700Y-7708900D02*
G01X2628900Y-7531100D01*
G01X2628900Y-5381600D01*
G01X2717800Y-5292700D01*
G01X2806700Y-8724900D02*
G01X2705100Y-8623300D01*
G01X2705100Y-8166100D01*
G01X2806700Y-8064500D01*
G01X2857500Y-8064500D01*
G01X2908300Y-8013700D01*
G01X2908300Y-5753100D01*
G01X2806700Y-5651500D01*
G01X2806700Y-5524500D01*
G01X2894000Y-5437200D01*
G01X2894000Y-5368900D01*
G01X2817800Y-5292700D01*
G01X2717800Y-5588000D02*
G01X2717800Y-5392700D01*
G01X7126300Y-5167300D02*
G01X7569200Y-5167300D01*
G01X4826000Y-6299200D02*
G01X5857900Y-5267300D01*
G01X7569200Y-5267300D01*
G01X7493000Y-5562600D02*
G01X7594600Y-5562600D01*
G01X7745400Y-5411800D01*
G01X7745400Y-5343500D01*
G01X7669200Y-5267300D01*
G01X4826000Y-6553200D02*
G01X6011900Y-5367300D01*
G01X7569200Y-5367300D01*
G01X9588500Y-5283200D02*
G01X10196500Y-5283200D01*
G01X10299700Y-5180000D01*
G01X8826500Y-5029200D02*
G01X9182100Y-5384800D01*
G01X10194900Y-5384800D01*
G01X10299700Y-5280000D01*
G01X8826500Y-6045200D02*
G01X9436100Y-5435600D01*
G01X10071100Y-5435600D01*
G01X10098100Y-5462600D01*
G01X10425100Y-5462600D01*
G01X10475900Y-5411800D01*
G01X10475900Y-5356200D01*
G01X10399700Y-5280000D01*
G01X13055600Y-6248400D02*
G01X13157200Y-6146800D01*
G01X13157200Y-5842000D01*
G01X12687300Y-5372100D01*
G01X12687300Y-5205400D01*
G01X12763500Y-5129200D01*
G01X13055600Y-7010400D02*
G01X13258800Y-6807200D01*
G01X13258800Y-5524500D01*
G01X12863500Y-5129200D01*
G01X12293600Y-7010400D02*
G01X12954000Y-6350000D01*
G01X13106400Y-6350000D01*
G01X13208000Y-6248400D01*
G01X13208000Y-5573700D01*
G01X12863500Y-5229200D01*
G01X14719300Y-6692900D02*
G01X15341600Y-6070600D01*
G01X15341600Y-5029200D01*
G01X15290800Y-4978400D01*
G01X15113000Y-4978400D01*
G01X15087600Y-5003800D01*
G01X15087600Y-5105400D01*
G01X15136800Y-5154600D01*
G01X15163800Y-5154600D01*
G01X13957300Y-6438900D02*
G01X13979500Y-6438900D01*
G01X15163800Y-5254600D01*
G01X13957300Y-6692900D02*
G01X15163800Y-5486400D01*
G01X15163800Y-5354600D01*
G01X10236200Y-727100D02*
G01X11201400Y-727100D01*
G01X11252200Y-676300D01*
G01X11328400Y-676300D01*
G01X11379200Y-625500D01*
G01X11404600Y-625500D01*
G01X11455400Y-676300D01*
G01X11328400Y-676300D02*
G01X11328400Y-930300D01*
G01X11455400Y-1057300D01*
G01X11455400Y-1158900D02*
G01X12293600Y-1158900D01*
G01X12319000Y-1184300D01*
G01X12446000Y-1184300D01*
G01X12496800Y-1235100D01*
G01X12547600Y-1235100D01*
G01X12573000Y-1209700D01*
G01X12598400Y-1190900D01*
G01X12446000Y-1184300D02*
G01X12446000Y-930300D01*
G01X12598400Y-777900D01*
G01X12598400Y-701700D02*
G01X13563600Y-701700D01*
G01X13614400Y-650900D01*
G01X13639800Y-650900D01*
G01X13690600Y-600100D01*
G01X13716000Y-600100D01*
G01X13766800Y-650900D01*
G01X13639800Y-650900D02*
G01X13766800Y-777900D01*
G01X10236200Y-727100D02*
G01X9271000Y-727100D01*
G01X9220200Y-676300D01*
G01X9144000Y-676300D01*
G01X9080500Y-612800D01*
G01X9055100Y-612800D01*
G01X9004300Y-663600D01*
G01X9144000Y-676300D02*
G01X9017000Y-803300D01*
G01X9017000Y-1158900D01*
G01X9004300Y-1171600D01*
G01X9004300Y-1203600D01*
G01X9017000Y-803300D02*
G01X8128000Y-803300D01*
G01X8001000Y-676300D01*
G01X7950200Y-676300D01*
G01X7886700Y-612800D01*
G01X7861300Y-612800D01*
G01X7810500Y-663600D01*
G01X7950200Y-676300D02*
G01X7950200Y-930300D01*
G01X7823200Y-1057300D01*
G01X7823200Y-1184300D02*
G01X7810500Y-1203600D01*
G01X7823200Y-1158900D02*
G01X7721600Y-1158900D01*
G01X7289800Y-1590700D01*
G01X7289800Y-2438400D01*
G01X12496800Y-1235100D02*
G01X12403200Y-1328700D01*
G01X12403200Y-2768600D01*
G01X12428600Y-2794000D01*
G01X13766800Y-879500D02*
G01X16046400Y-879500D01*
G01X16052800Y-885900D01*
G01X16700500Y-1533600D01*
G01X16700500Y-4808600D01*
G01X16700500Y-4859400D01*
G01X14719300Y-6840600D01*
G01X14693900Y-6840600D01*
G01X14566900Y-6967600D01*
G01X14566900Y-7653400D01*
G01X12331700Y-7772400D02*
G01X12331700Y-7620000D01*
G01X12407900Y-7543800D01*
G01X12407900Y-7378700D01*
G01X12293600Y-7264400D01*
G01X12293600Y-7772400D02*
G01X11760200Y-8305800D01*
G01X11684000Y-8305800D01*
G01X11074400Y-8915400D01*
G01X11074400Y-9220200D01*
G01X11049000Y-9245600D01*
G01X11049000Y-9347200D02*
G01X11074400Y-9372600D01*
G01X11074400Y-9575800D01*
G01X10972800Y-9677400D01*
G01X11049000Y-9296400D02*
G01X10515600Y-9296400D01*
G01X10414000Y-9194800D01*
G01X9804400Y-9194800D01*
G01X9702800Y-9296400D01*
G01X9613900Y-9296400D01*
G01X9601200Y-9309100D01*
G01X9613900Y-9296400D02*
G01X9512300Y-9296400D01*
G01X8877300Y-9931400D01*
G01X8801100Y-9931400D01*
G01X8242300Y-9372600D02*
G01X8242300Y-8242300D01*
G01X8166100Y-8166100D01*
G01X7835900Y-8166100D01*
G01X7480300Y-8521700D01*
G01X7404100Y-8521700D02*
G01X7480300Y-8445500D01*
G01X7480300Y-8242300D01*
G01X7378700Y-8140700D01*
G01X7378700Y-8026400D02*
G01X7366000Y-8013700D01*
G01X8166100Y-8166100D02*
G01X8826500Y-7505700D01*
G01X8826500Y-6807200D01*
G01X8928100Y-6705600D01*
G01X8928100Y-6400800D01*
G01X8826500Y-6299200D01*
G01X8547100Y-9677400D02*
G01X8242300Y-9982200D01*
G01X7886700Y-9982200D01*
G01X7378700Y-10490200D01*
G01X7302500Y-10490200D01*
G01X7226300Y-10566400D01*
G01X7226300Y-11264900D01*
G01X7327900Y-11366500D01*
G01X7848600Y-11366500D01*
G01X8839200Y-12357100D01*
G01X10109200Y-12357100D01*
G01X10363200Y-12611100D01*
G01X7378700Y-8064500D02*
G01X5727700Y-8064500D01*
G01X5626100Y-7962900D01*
G01X5041900Y-7962900D01*
G01X4940300Y-8064500D01*
G01X4838700Y-8064500D02*
G01X4826000Y-8077200D01*
G01X4864100Y-8064500D02*
G01X4940300Y-7988300D01*
G01X4940300Y-7683500D01*
G01X4826000Y-7569200D01*
G01X4826000Y-8077200D02*
G01X4038600Y-8864600D01*
G01X2921000Y-8864600D01*
G01X2806700Y-8978900D01*
G01X2806700Y-9080500D01*
G01X2705100Y-9182100D01*
G01X2705100Y-9385300D01*
G01X2806700Y-9486900D01*
G01X2705100Y-9182100D02*
G01X2400300Y-8877300D01*
G01X850900Y-8877300D01*
G01X749300Y-8978900D01*
G01X673100Y-8978900D02*
G01X749300Y-9055100D01*
G01X749300Y-9372600D01*
G01X635000Y-9486900D01*
G01X7289800Y-1590700D02*
G01X6883400Y-1184300D01*
G01X1602100Y-1184300D01*
G01X1447800Y-1338600D01*
G01X9385300Y-10629900D02*
G01X10312400Y-10629900D01*
G01X10363200Y-10579100D01*
G01X7327900Y-10604500D02*
G01X7734300Y-10198100D01*
G01X9207500Y-10198100D01*
G01X9410700Y-9994900D01*
G01X8089900Y-11366500D02*
G01X8750300Y-10706100D01*
G01X9055100Y-10706100D01*
G01X9944100Y-9817100D01*
G01X10363200Y-9817100D01*
G01X8089900Y-10858500D02*
G01X8496300Y-10452100D01*
G01X9055100Y-10452100D01*
G01X9944100Y-9563100D01*
G01X10363200Y-9563100D01*
G01X8928100Y-9969500D02*
G01X9410700Y-9486900D01*
G01X10185400Y-9486900D01*
G01X10363200Y-12357100D02*
G01X10236200Y-12230100D01*
G01X8813800Y-12230100D01*
G01X7899400Y-11315700D01*
G01X7899400Y-10375900D01*
G01X7327900Y-10350500D02*
G01X7988300Y-9690100D01*
G01X7988300Y-8407400D01*
G01X8128000Y-8267700D01*
G01X7327900Y-10858500D02*
G01X7327900Y-10833100D01*
G01X7886700Y-10274300D01*
G01X5702300Y-8750300D02*
G01X5600700Y-8648700D01*
G01X5600700Y-8216900D01*
G01X5626100Y-8191500D01*
G01X7200900Y-6311900D02*
G01X7734300Y-6311900D01*
G01X12484100Y-7264400D02*
G01X13055600Y-7264400D01*
G01X13157200Y-7264400D01*
G01X13385800Y-7493000D01*
G01X5727700Y-7962900D02*
G01X5588000Y-7823200D01*
G01X5727700Y-7962900D02*
G01X5829300Y-7861300D01*
G01X8305800Y-7861300D01*
G01X8712200Y-7454900D01*
G01X8712200Y-6743700D01*
G01X8763000Y-6692900D01*
G01X12484100Y-7518400D02*
G01X13055600Y-7518400D01*
G01X13157200Y-7518400D01*
G01X13258800Y-7620000D01*
G01X7886700Y-9639300D02*
G01X6362700Y-8115300D01*
G01X5626100Y-8115300D01*
G01X5588000Y-8077200D01*
G01X4178300Y-9486900D01*
G01X3568700Y-9486900D01*
G01X3467100Y-9588500D01*
G01X1498600Y-9588500D01*
G01X1397000Y-9486900D01*
G01X8826500Y-8699500D02*
G01X9004300Y-8699500D01*
G01X9537700Y-8166100D01*
G01X9537700Y-7302500D01*
G01X9588500Y-7251700D01*
G01X9588500Y-6807200D01*
G01X9588500Y-7251700D02*
G01X10071100Y-7251700D01*
G01X10299700Y-7480300D01*
G01X12433300Y-7658100D02*
G01X12890500Y-7658100D01*
G01X12992100Y-7759700D01*
G01X13042900Y-7759700D01*
G01X13055600Y-7772400D01*
G01X13042900Y-7759700D02*
G01X13119100Y-7759700D01*
G01X13144500Y-7734300D01*
G01X8191500Y-7581900D02*
G01X8166100Y-7607300D01*
G01X7378700Y-7607300D01*
G01X7302500Y-7683500D01*
G01X5092700Y-7683500D01*
G01X4864100Y-7454900D01*
G01X4483100Y-7454900D01*
G01X3594100Y-8343900D01*
G01X3340100Y-8343900D01*
G01X2857500Y-8826500D01*
G01X1244600Y-8826500D01*
G01X635000Y-8216900D01*
G01X8445500Y-7569200D02*
G01X8128000Y-7251700D01*
G01X7975600Y-7404100D01*
G01X7315200Y-7404100D01*
G01X7112000Y-7200900D01*
G01X3822700Y-7200900D01*
G01X2806700Y-8216900D01*
G01X9194800Y-7645400D02*
G01X9194800Y-7518400D01*
G01X9067800Y-7391400D01*
G01X7912100Y-7137400D02*
G01X7861300Y-7188200D01*
G01X7810500Y-7188200D01*
G01X7734300Y-7112000D01*
G01X7327900Y-7112000D01*
G01X7124700Y-6908800D01*
G01X4927600Y-6908800D01*
G01X4826000Y-6807200D01*
G01X11734800Y-9677400D02*
G01X11633200Y-9779000D01*
G01X10922000Y-9779000D01*
G01X10566400Y-9423400D01*
G01X9804400Y-9423400D01*
G01X8458200Y-7073900D02*
G01X8661400Y-6870700D01*
G01X8661400Y-5702300D01*
G01X8826500Y-5537200D01*
G01X12192000Y-7696200D02*
G01X12192000Y-6604000D01*
G01X12293600Y-6502400D01*
G01X11734800Y-8407400D02*
G01X12573000Y-8407400D01*
G01X13944600Y-7035800D01*
G01X13944600Y-6959600D01*
G01X13957300Y-6946900D01*
G01X8623300Y-7454900D02*
G01X8623300Y-7480300D01*
G01X8445500Y-7658100D01*
G01X7467600Y-7658100D01*
G01X7366000Y-7759700D01*
G01X12928600Y-2794000D02*
G01X12928600Y-3619500D01*
G01X12484100Y-4064000D01*
G01X6007100Y-1905000D02*
G01X6019800Y-1892300D01*
G01X6007100Y-2933700D02*
G01X6108700Y-2832100D01*
G01X7937500Y-2832100D01*
G01X8051800Y-2946400D01*
G01X5257800Y-1892300D02*
G01X4880400Y-1892300D01*
G01X4564000Y-1575900D01*
G01X5257800Y-1892300D02*
G01X5384800Y-1765300D01*
G01X6096000Y-1765300D01*
G01X6908800Y-2578100D01*
G01X7937500Y-2578100D01*
G01X8051800Y-2692400D01*
G01X21020800Y-266700D02*
G01X20370800Y-266700D01*
G01X20193000Y-266700D01*
G01X18249900Y-2209800D01*
G01X947800Y-1588600D02*
G01X947800Y-3192400D01*
G01X850900Y-3289300D01*
G01X15777000Y-1803400D02*
G01X15777000Y-1807000D01*
G01X15976600Y-2006600D01*
G01X6007100Y-3238500D02*
G01X5226600Y-3238500D01*
G01X3564000Y-1575900D01*
G01X21020800Y-716700D02*
G01X20370800Y-716700D01*
G01X18737300Y-2350200D01*
G01X18178500Y-2350200D01*
G01X17919700Y-2091400D01*
G01X17919700Y-1867600D01*
G01X8839200Y-10833100D02*
G01X8991600Y-10833100D01*
G01X9880600Y-9944100D01*
G01X13716000Y-9944100D01*
G01X17449800Y-6210300D01*
G01X17449800Y-863600D01*
G01X17221200Y-635000D01*
G01X16967200Y-635000D01*
G01X16865600Y-736600D01*
G01X16865600Y-787400D01*
G01X16916400Y-838200D01*
G01X17068800Y-838200D01*
G01X17145000Y-762000D01*
G01X8839200Y-10579100D02*
G01X9118600Y-10579100D01*
G01X10007600Y-9690100D01*
G01X10769600Y-9690100D01*
G01X10922000Y-9842500D01*
G01X13741400Y-9842500D01*
G01X17221200Y-6362700D01*
G01X17221200Y-711200D01*
G01X17195800Y-685800D01*
G01X17094200Y-685800D01*
G01X17045000Y-735000D01*
G01X17045000Y-762000D01*
G01X12611100Y-5994400D02*
G01X12636500Y-5994400D01*
G01X13055600Y-5994400D01*
G01X13919200Y-6794500D02*
G01X13995400Y-6794500D01*
G01X14363700Y-6794500D01*
G01X10236200Y-676300D02*
G01X10236200Y-727100D01*
G01X10236200Y-1216300D01*
G01X11455400Y-1057300D02*
G01X11455400Y-1158900D01*
G01X11455400Y-1216300D01*
G01X12598400Y-777900D02*
G01X12598400Y-701700D01*
G01X12598400Y-650900D01*
G01X13766800Y-777900D02*
G01X13766800Y-879500D01*
G01X13766800Y-1190900D01*
G01X7823200Y-1057300D02*
G01X7823200Y-1158900D01*
G01X7823200Y-1184300D01*
G01X12534900Y-7772400D02*
G01X12331700Y-7772400D01*
G01X12293600Y-7772400D01*
G01X11049000Y-9245600D02*
G01X11049000Y-9296400D01*
G01X11049000Y-9347200D01*
G01X8801100Y-9931400D02*
G01X8547100Y-9677400D01*
G01X8242300Y-9372600D01*
G01X7480300Y-8521700D02*
G01X7404100Y-8521700D01*
G01X7366000Y-8521700D01*
G01X7378700Y-8140700D02*
G01X7378700Y-8064500D01*
G01X7378700Y-8026400D01*
G01X4940300Y-8064500D02*
G01X4864100Y-8064500D01*
G01X4838700Y-8064500D01*
G01X749300Y-8978900D02*
G01X673100Y-8978900D01*
G01X635000Y-8978900D01*
G01X6007100Y-2984500D02*
G01X6007100Y-2933700D01*
G01X6007100Y-1905000D01*
G04 Track End*

M02*

