G04 Layer: TopSilkscreenLayer*
G04 EasyEDA Pro v2.2.35.2, 2025-01-29 23:55:14*
G04 Gerber Generator version 0.3*
G04 Scale: 100 percent, Rotated: No, Reflected: No*
G04 Dimensions in millimeters*
G04 Leading zeros omitted, absolute positions, 4 integers and 5 decimals*
%FSLAX45Y45*%
%MOMM*%
%ADD10C,0.2032*%
%ADD11C,0.15*%
%ADD12C,0.12*%
%ADD13C,0.1524*%
%ADD14C,0.127*%
%ADD15C,0.2021*%
%ADD16C,0.2*%
G75*


G04 Text Start*
G54D10*
G01X1635760Y-2839720D02*
G01X1635760Y-3026410D01*
G01X1635760Y-2839720D02*
G01X1706880Y-3026410D01*
G01X1778000Y-2839720D02*
G01X1706880Y-3026410D01*
G01X1778000Y-2839720D02*
G01X1778000Y-3026410D01*
G01X1894332Y-2839720D02*
G01X1876552Y-2848610D01*
G01X1858772Y-2866390D01*
G01X1849882Y-2884170D01*
G01X1840992Y-2910840D01*
G01X1840992Y-2955290D01*
G01X1849882Y-2981960D01*
G01X1858772Y-2999740D01*
G01X1876552Y-3017520D01*
G01X1894332Y-3026410D01*
G01X1929892Y-3026410D01*
G01X1947672Y-3017520D01*
G01X1965452Y-2999740D01*
G01X1974342Y-2981960D01*
G01X1983232Y-2955290D01*
G01X1983232Y-2910840D01*
G01X1974342Y-2884170D01*
G01X1965452Y-2866390D01*
G01X1947672Y-2848610D01*
G01X1929892Y-2839720D01*
G01X1894332Y-2839720D01*
G01X2117344Y-2839720D02*
G01X2046224Y-3026410D01*
G01X2117344Y-2839720D02*
G01X2188464Y-3026410D01*
G01X2072894Y-2964180D02*
G01X2161794Y-2964180D01*
G01X2251456Y-2839720D02*
G01X2251456Y-3026410D01*
G01X2251456Y-2839720D02*
G01X2331466Y-2839720D01*
G01X2358136Y-2848610D01*
G01X2367026Y-2857500D01*
G01X2375916Y-2875280D01*
G01X2375916Y-2893060D01*
G01X2367026Y-2910840D01*
G01X2358136Y-2919730D01*
G01X2331466Y-2928620D01*
G01X2251456Y-2928620D01*
G01X2313686Y-2928620D02*
G01X2375916Y-3026410D01*
G01X2438908Y-2839720D02*
G01X2438908Y-3026410D01*
G01X2527808Y-2901950D02*
G01X2438908Y-2990850D01*
G01X2474468Y-2955290D02*
G01X2536698Y-3026410D01*
G01X2599690Y-2839720D02*
G01X2599690Y-3026410D01*
G01X2599690Y-2839720D02*
G01X2724150Y-3026410D01*
G01X2724150Y-2839720D02*
G01X2724150Y-3026410D01*
G01X2840482Y-2839720D02*
G01X2822702Y-2848610D01*
G01X2804922Y-2866390D01*
G01X2796032Y-2884170D01*
G01X2787142Y-2910840D01*
G01X2787142Y-2955290D01*
G01X2796032Y-2981960D01*
G01X2804922Y-2999740D01*
G01X2822702Y-3017520D01*
G01X2840482Y-3026410D01*
G01X2876042Y-3026410D01*
G01X2893822Y-3017520D01*
G01X2911602Y-2999740D01*
G01X2920492Y-2981960D01*
G01X2929382Y-2955290D01*
G01X2929382Y-2910840D01*
G01X2920492Y-2884170D01*
G01X2911602Y-2866390D01*
G01X2893822Y-2848610D01*
G01X2876042Y-2839720D01*
G01X2840482Y-2839720D01*
G01X2992374Y-2839720D02*
G01X2992374Y-3026410D01*
G01X2992374Y-2839720D02*
G01X3072384Y-2839720D01*
G01X3099054Y-2848610D01*
G01X3107944Y-2857500D01*
G01X3116834Y-2875280D01*
G01X3116834Y-2893060D01*
G01X3107944Y-2910840D01*
G01X3099054Y-2919730D01*
G01X3072384Y-2928620D01*
G01X2992374Y-2928620D02*
G01X3072384Y-2928620D01*
G01X3099054Y-2937510D01*
G01X3107944Y-2946400D01*
G01X3116834Y-2964180D01*
G01X3116834Y-2990850D01*
G01X3107944Y-3008630D01*
G01X3099054Y-3017520D01*
G01X3072384Y-3026410D01*
G01X2992374Y-3026410D01*
G01X3304286Y-2866390D02*
G01X3286506Y-2848610D01*
G01X3259836Y-2839720D01*
G01X3224276Y-2839720D01*
G01X3197606Y-2848610D01*
G01X3179826Y-2866390D01*
G01X3179826Y-2884170D01*
G01X3188716Y-2901950D01*
G01X3197606Y-2910840D01*
G01X3215386Y-2919730D01*
G01X3268726Y-2937510D01*
G01X3286506Y-2946400D01*
G01X3295396Y-2955290D01*
G01X3304286Y-2973070D01*
G01X3304286Y-2999740D01*
G01X3286506Y-3017520D01*
G01X3259836Y-3026410D01*
G01X3224276Y-3026410D01*
G01X3197606Y-3017520D01*
G01X3179826Y-2999740D01*
G01X3566414Y-2946400D02*
G01X3726434Y-2946400D01*
G01X4077462Y-2839720D02*
G01X3988562Y-2964180D01*
G01X4121912Y-2964180D01*
G01X4077462Y-2839720D02*
G01X4077462Y-3026410D01*
G01X4193794Y-2884170D02*
G01X4193794Y-2875280D01*
G01X4202684Y-2857500D01*
G01X4211574Y-2848610D01*
G01X4229354Y-2839720D01*
G01X4264914Y-2839720D01*
G01X4282694Y-2848610D01*
G01X4291584Y-2857500D01*
G01X4300474Y-2875280D01*
G01X4300474Y-2893060D01*
G01X4291584Y-2910840D01*
G01X4273804Y-2937510D01*
G01X4184904Y-3026410D01*
G01X4309364Y-3026410D01*
G01X1635760Y-3206750D02*
G01X1689100Y-3331210D01*
G01X1742440Y-3206750D02*
G01X1689100Y-3331210D01*
G01X2004568Y-3180080D02*
G01X2022348Y-3171190D01*
G01X2049018Y-3144520D01*
G01X2049018Y-3331210D01*
G01X2311146Y-3251200D02*
G01X2471166Y-3251200D01*
G01X2839974Y-3233420D02*
G01X2822194Y-3215640D01*
G01X2804414Y-3206750D01*
G01X2777744Y-3206750D01*
G01X2759964Y-3215640D01*
G01X2742184Y-3233420D01*
G01X2733294Y-3260090D01*
G01X2733294Y-3277870D01*
G01X2742184Y-3304540D01*
G01X2759964Y-3322320D01*
G01X2777744Y-3331210D01*
G01X2804414Y-3331210D01*
G01X2822194Y-3322320D01*
G01X2839974Y-3304540D01*
G01X2902966Y-3206750D02*
G01X2902966Y-3331210D01*
G01X2902966Y-3242310D02*
G01X2929636Y-3215640D01*
G01X2947416Y-3206750D01*
G01X2974086Y-3206750D01*
G01X2991866Y-3215640D01*
G01X3000756Y-3242310D01*
G01X3000756Y-3331210D01*
G01X3090418Y-3144520D02*
G01X3090418Y-3295650D01*
G01X3099308Y-3322320D01*
G01X3117088Y-3331210D01*
G01X3134868Y-3331210D01*
G01X3063748Y-3206750D02*
G01X3125978Y-3206750D01*
G01X3197860Y-3206750D02*
G01X3197860Y-3331210D01*
G01X3197860Y-3260090D02*
G01X3206750Y-3233420D01*
G01X3224530Y-3215640D01*
G01X3242310Y-3206750D01*
G01X3268980Y-3206750D01*
G01X3331972Y-3144520D02*
G01X3331972Y-3331210D01*
G54D11*
G01X20641504Y-42786D02*
G01X20636170Y-37452D01*
G01X20628296Y-34912D01*
G01X20617628Y-34912D01*
G01X20609500Y-37452D01*
G01X20604420Y-42786D01*
G01X20604420Y-48120D01*
G01X20606960Y-53454D01*
G01X20609500Y-55994D01*
G01X20614834Y-58788D01*
G01X20630836Y-64122D01*
G01X20636170Y-66662D01*
G01X20638710Y-69456D01*
G01X20641504Y-74790D01*
G01X20641504Y-82664D01*
G01X20636170Y-87998D01*
G01X20628296Y-90538D01*
G01X20617628Y-90538D01*
G01X20609500Y-87998D01*
G01X20604420Y-82664D01*
G01X20669190Y-34912D02*
G01X20682652Y-90538D01*
G01X20695860Y-34912D02*
G01X20682652Y-90538D01*
G01X20695860Y-34912D02*
G01X20709068Y-90538D01*
G01X20722276Y-34912D02*
G01X20709068Y-90538D01*
G01X20787300Y-34912D02*
G01X20760630Y-90538D01*
G01X20749962Y-34912D02*
G01X20787300Y-34912D01*
G01X10216956Y-1200112D02*
G01X10216956Y-1242530D01*
G01X10214416Y-1250404D01*
G01X10211622Y-1253198D01*
G01X10206288Y-1255738D01*
G01X10200954Y-1255738D01*
G01X10195620Y-1253198D01*
G01X10193080Y-1250404D01*
G01X10190540Y-1242530D01*
G01X10190540Y-1237196D01*
G01X10276646Y-1200112D02*
G01X10249976Y-1200112D01*
G01X10247436Y-1223988D01*
G01X10249976Y-1221194D01*
G01X10258104Y-1218654D01*
G01X10265978Y-1218654D01*
G01X10273852Y-1221194D01*
G01X10279186Y-1226528D01*
G01X10281980Y-1234656D01*
G01X10281980Y-1239990D01*
G01X10279186Y-1247864D01*
G01X10273852Y-1253198D01*
G01X10265978Y-1255738D01*
G01X10258104Y-1255738D01*
G01X10249976Y-1253198D01*
G01X10247436Y-1250404D01*
G01X10244642Y-1245070D01*
G01X7657906Y-10445712D02*
G01X7657906Y-10485590D01*
G01X7660446Y-10493464D01*
G01X7665780Y-10498798D01*
G01X7673654Y-10501338D01*
G01X7678988Y-10501338D01*
G01X7687116Y-10498798D01*
G01X7692196Y-10493464D01*
G01X7694990Y-10485590D01*
G01X7694990Y-10445712D01*
G01X7725470Y-10458920D02*
G01X7725470Y-10456126D01*
G01X7728010Y-10451046D01*
G01X7730804Y-10448252D01*
G01X7736138Y-10445712D01*
G01X7746552Y-10445712D01*
G01X7751886Y-10448252D01*
G01X7754680Y-10451046D01*
G01X7757220Y-10456126D01*
G01X7757220Y-10461460D01*
G01X7754680Y-10466794D01*
G01X7749346Y-10474922D01*
G01X7722676Y-10501338D01*
G01X7760014Y-10501338D01*
G01X18326488Y-1439574D02*
G01X18270862Y-1439574D01*
G01X18326488Y-1421032D02*
G01X18326488Y-1458116D01*
G01X18326488Y-1485802D02*
G01X18270862Y-1485802D01*
G01X18326488Y-1523140D02*
G01X18270862Y-1523140D01*
G01X18300072Y-1485802D02*
G01X18300072Y-1523140D01*
G01X18316074Y-1550826D02*
G01X18318614Y-1556160D01*
G01X18326488Y-1564288D01*
G01X18270862Y-1564288D01*
G01X12691240Y-3032580D02*
G01X12693780Y-3037914D01*
G01X12699114Y-3043248D01*
G01X12704448Y-3045788D01*
G01X12715116Y-3045788D01*
G01X12720450Y-3043248D01*
G01X12725784Y-3037914D01*
G01X12728324Y-3032580D01*
G01X12730864Y-3024706D01*
G01X12730864Y-3011244D01*
G01X12728324Y-3003370D01*
G01X12725784Y-2998036D01*
G01X12720450Y-2992702D01*
G01X12715116Y-2990162D01*
G01X12704448Y-2990162D01*
G01X12699114Y-2992702D01*
G01X12693780Y-2998036D01*
G01X12691240Y-3003370D01*
G01X12660760Y-3032580D02*
G01X12660760Y-3035374D01*
G01X12658220Y-3040454D01*
G01X12655426Y-3043248D01*
G01X12650092Y-3045788D01*
G01X12639678Y-3045788D01*
G01X12634344Y-3043248D01*
G01X12631550Y-3040454D01*
G01X12629010Y-3035374D01*
G01X12629010Y-3030040D01*
G01X12631550Y-3024706D01*
G01X12636884Y-3016578D01*
G01X12663554Y-2990162D01*
G01X12626216Y-2990162D01*
G01X16461920Y-5059302D02*
G01X16456586Y-5061842D01*
G01X16451252Y-5067176D01*
G01X16448712Y-5072510D01*
G01X16448712Y-5083178D01*
G01X16451252Y-5088512D01*
G01X16456586Y-5093846D01*
G01X16461920Y-5096386D01*
G01X16469794Y-5098926D01*
G01X16483256Y-5098926D01*
G01X16491130Y-5096386D01*
G01X16496464Y-5093846D01*
G01X16501798Y-5088512D01*
G01X16504338Y-5083178D01*
G01X16504338Y-5072510D01*
G01X16501798Y-5067176D01*
G01X16496464Y-5061842D01*
G01X16491130Y-5059302D01*
G01X16459126Y-5031616D02*
G01X16456586Y-5026282D01*
G01X16448712Y-5018154D01*
G01X16504338Y-5018154D01*
G01X5783312Y-3150556D02*
G01X5838938Y-3150556D01*
G01X5783312Y-3150556D02*
G01X5783312Y-3126680D01*
G01X5785852Y-3118806D01*
G01X5788646Y-3116266D01*
G01X5793726Y-3113472D01*
G01X5799060Y-3113472D01*
G01X5804394Y-3116266D01*
G01X5807188Y-3118806D01*
G01X5809728Y-3126680D01*
G01X5809728Y-3150556D01*
G01X5809728Y-3132014D02*
G01X5838938Y-3113472D01*
G01X5793726Y-3085786D02*
G01X5791186Y-3080452D01*
G01X5783312Y-3072324D01*
G01X5838938Y-3072324D01*
G01X17971112Y-2803846D02*
G01X18026738Y-2803846D01*
G01X17971112Y-2803846D02*
G01X17971112Y-2785304D01*
G01X17973652Y-2777430D01*
G01X17978986Y-2772096D01*
G01X17984320Y-2769556D01*
G01X17992194Y-2766762D01*
G01X18005656Y-2766762D01*
G01X18013530Y-2769556D01*
G01X18018864Y-2772096D01*
G01X18024198Y-2777430D01*
G01X18026738Y-2785304D01*
G01X18026738Y-2803846D01*
G01X17971112Y-2712406D02*
G01X18008196Y-2739076D01*
G01X18008196Y-2699198D01*
G01X17971112Y-2712406D02*
G01X18026738Y-2712406D01*
G01X17971112Y-2644842D02*
G01X18008196Y-2671512D01*
G01X18008196Y-2631634D01*
G01X17971112Y-2644842D02*
G01X18026738Y-2644842D01*
G01X18008112Y-3244282D02*
G01X18063738Y-3244282D01*
G01X18008112Y-3207198D02*
G01X18045196Y-3244282D01*
G01X18031988Y-3231074D02*
G01X18063738Y-3207198D01*
G01X5723576Y-2136088D02*
G01X5723576Y-2080462D01*
G01X5723576Y-2136088D02*
G01X5705034Y-2136088D01*
G01X5697160Y-2133548D01*
G01X5691826Y-2128214D01*
G01X5689286Y-2122880D01*
G01X5686492Y-2115006D01*
G01X5686492Y-2101544D01*
G01X5689286Y-2093670D01*
G01X5691826Y-2088336D01*
G01X5697160Y-2083002D01*
G01X5705034Y-2080462D01*
G01X5723576Y-2080462D01*
G01X5632136Y-2136088D02*
G01X5658806Y-2099004D01*
G01X5618928Y-2099004D01*
G01X5632136Y-2136088D02*
G01X5632136Y-2080462D01*
G01X5585908Y-2136088D02*
G01X5556698Y-2136088D01*
G01X5572700Y-2115006D01*
G01X5564572Y-2115006D01*
G01X5559238Y-2112212D01*
G01X5556698Y-2109672D01*
G01X5553904Y-2101544D01*
G01X5553904Y-2096210D01*
G01X5556698Y-2088336D01*
G01X5562032Y-2083002D01*
G01X5569906Y-2080462D01*
G01X5577780Y-2080462D01*
G01X5585908Y-2083002D01*
G01X5588448Y-2085796D01*
G01X5591242Y-2091130D01*
G01X6038282Y-2104088D02*
G01X6038282Y-2048462D01*
G01X6001198Y-2104088D02*
G01X6038282Y-2067004D01*
G01X6025074Y-2080212D02*
G01X6001198Y-2048462D01*
G01X15509588Y-633594D02*
G01X15467170Y-633594D01*
G01X15459296Y-631054D01*
G01X15456502Y-628260D01*
G01X15453962Y-622926D01*
G01X15453962Y-617592D01*
G01X15456502Y-612258D01*
G01X15459296Y-609718D01*
G01X15467170Y-607178D01*
G01X15472504Y-607178D01*
G01X15499174Y-661280D02*
G01X15501714Y-666614D01*
G01X15509588Y-674742D01*
G01X15453962Y-674742D01*
G01X10211756Y-12960388D02*
G01X10211756Y-12920510D01*
G01X10209216Y-12912636D01*
G01X10203882Y-12907302D01*
G01X10196008Y-12904762D01*
G01X10190674Y-12904762D01*
G01X10182546Y-12907302D01*
G01X10177466Y-12912636D01*
G01X10174672Y-12920510D01*
G01X10174672Y-12960388D01*
G01X10146986Y-12949974D02*
G01X10141652Y-12952514D01*
G01X10133524Y-12960388D01*
G01X10133524Y-12904762D01*
G01X10839898Y-12596372D02*
G01X10841422Y-12599420D01*
G01X10844470Y-12602468D01*
G01X10847518Y-12603992D01*
G01X10853614Y-12603992D01*
G01X10856662Y-12602468D01*
G01X10859710Y-12599420D01*
G01X10861234Y-12596372D01*
G01X10862758Y-12591800D01*
G01X10862758Y-12584180D01*
G01X10861234Y-12579608D01*
G01X10859710Y-12576560D01*
G01X10856662Y-12573512D01*
G01X10853614Y-12571988D01*
G01X10847518Y-12571988D01*
G01X10844470Y-12573512D01*
G01X10841422Y-12576560D01*
G01X10839898Y-12579608D01*
G01X10839898Y-12584180D01*
G01X10847518Y-12584180D02*
G01X10839898Y-12584180D01*
G01X10817546Y-12603992D02*
G01X10817546Y-12571988D01*
G01X10817546Y-12603992D02*
G01X10796210Y-12571988D01*
G01X10796210Y-12603992D02*
G01X10796210Y-12571988D01*
G01X10773858Y-12603992D02*
G01X10773858Y-12571988D01*
G01X10773858Y-12603992D02*
G01X10763190Y-12603992D01*
G01X10758618Y-12602468D01*
G01X10755570Y-12599420D01*
G01X10754046Y-12596372D01*
G01X10752522Y-12591800D01*
G01X10752522Y-12584180D01*
G01X10754046Y-12579608D01*
G01X10755570Y-12576560D01*
G01X10758618Y-12573512D01*
G01X10763190Y-12571988D01*
G01X10773858Y-12571988D01*
G01X11282232Y-8756612D02*
G01X11282232Y-8796490D01*
G01X11284772Y-8804364D01*
G01X11290106Y-8809698D01*
G01X11297980Y-8812238D01*
G01X11303314Y-8812238D01*
G01X11311442Y-8809698D01*
G01X11316522Y-8804364D01*
G01X11319316Y-8796490D01*
G01X11319316Y-8756612D01*
G01X11347002Y-8767026D02*
G01X11352336Y-8764486D01*
G01X11360464Y-8756612D01*
G01X11360464Y-8812238D01*
G01X11390944Y-8769820D02*
G01X11390944Y-8767026D01*
G01X11393484Y-8761946D01*
G01X11396278Y-8759152D01*
G01X11401612Y-8756612D01*
G01X11412026Y-8756612D01*
G01X11417360Y-8759152D01*
G01X11420154Y-8761946D01*
G01X11422694Y-8767026D01*
G01X11422694Y-8772360D01*
G01X11420154Y-8777694D01*
G01X11414820Y-8785822D01*
G01X11388150Y-8812238D01*
G01X11425488Y-8812238D01*
G01X10972860Y-7742390D02*
G01X10972860Y-7774394D01*
G01X10959652Y-7750518D02*
G01X10986068Y-7766520D01*
G01X10986068Y-7750518D02*
G01X10959652Y-7766520D01*
G01X10972860Y-7742390D02*
G01X10972860Y-7774394D01*
G01X10959652Y-7750518D02*
G01X10986068Y-7766520D01*
G01X10986068Y-7750518D02*
G01X10959652Y-7766520D01*
G01X4815744Y-2021188D02*
G01X4815744Y-1978770D01*
G01X4818284Y-1970896D01*
G01X4821078Y-1968102D01*
G01X4826412Y-1965562D01*
G01X4831746Y-1965562D01*
G01X4837080Y-1968102D01*
G01X4839620Y-1970896D01*
G01X4842160Y-1978770D01*
G01X4842160Y-1984104D01*
G01X4782724Y-2021188D02*
G01X4753514Y-2021188D01*
G01X4769516Y-2000106D01*
G01X4761388Y-2000106D01*
G01X4756054Y-1997312D01*
G01X4753514Y-1994772D01*
G01X4750720Y-1986644D01*
G01X4750720Y-1981310D01*
G01X4753514Y-1973436D01*
G01X4758848Y-1968102D01*
G01X4766722Y-1965562D01*
G01X4774596Y-1965562D01*
G01X4782724Y-1968102D01*
G01X4785264Y-1970896D01*
G01X4788058Y-1976230D01*
G01X5157403Y-7156412D02*
G01X5157403Y-7196290D01*
G01X5159943Y-7204164D01*
G01X5165277Y-7209498D01*
G01X5173151Y-7212038D01*
G01X5178485Y-7212038D01*
G01X5186613Y-7209498D01*
G01X5191693Y-7204164D01*
G01X5194487Y-7196290D01*
G01X5194487Y-7156412D01*
G01X5254177Y-7164286D02*
G01X5251383Y-7158952D01*
G01X5243509Y-7156412D01*
G01X5238175Y-7156412D01*
G01X5230301Y-7158952D01*
G01X5224967Y-7166826D01*
G01X5222173Y-7180288D01*
G01X5222173Y-7193496D01*
G01X5224967Y-7204164D01*
G01X5230301Y-7209498D01*
G01X5238175Y-7212038D01*
G01X5240715Y-7212038D01*
G01X5248843Y-7209498D01*
G01X5254177Y-7204164D01*
G01X5256717Y-7196290D01*
G01X5256717Y-7193496D01*
G01X5254177Y-7185622D01*
G01X5248843Y-7180288D01*
G01X5240715Y-7177494D01*
G01X5238175Y-7177494D01*
G01X5230301Y-7180288D01*
G01X5224967Y-7185622D01*
G01X5222173Y-7193496D01*
G01X4826060Y-6142190D02*
G01X4826060Y-6174194D01*
G01X4812852Y-6150318D02*
G01X4839268Y-6166320D01*
G01X4839268Y-6150318D02*
G01X4812852Y-6166320D01*
G01X4826060Y-6142190D02*
G01X4826060Y-6174194D01*
G01X4812852Y-6150318D02*
G01X4839268Y-6166320D01*
G01X4839268Y-6150318D02*
G01X4812852Y-6166320D01*
G01X7696006Y-7600912D02*
G01X7696006Y-7640790D01*
G01X7698546Y-7648664D01*
G01X7703880Y-7653998D01*
G01X7711754Y-7656538D01*
G01X7717088Y-7656538D01*
G01X7725216Y-7653998D01*
G01X7730296Y-7648664D01*
G01X7733090Y-7640790D01*
G01X7733090Y-7600912D01*
G01X7766110Y-7600912D02*
G01X7795320Y-7600912D01*
G01X7779318Y-7621994D01*
G01X7787446Y-7621994D01*
G01X7792780Y-7624788D01*
G01X7795320Y-7627328D01*
G01X7798114Y-7635456D01*
G01X7798114Y-7640790D01*
G01X7795320Y-7648664D01*
G01X7789986Y-7653998D01*
G01X7782112Y-7656538D01*
G01X7774238Y-7656538D01*
G01X7766110Y-7653998D01*
G01X7763570Y-7651204D01*
G01X7760776Y-7645870D01*
G01X7366060Y-6586690D02*
G01X7366060Y-6618694D01*
G01X7352852Y-6594818D02*
G01X7379268Y-6610820D01*
G01X7379268Y-6594818D02*
G01X7352852Y-6610820D01*
G01X7366060Y-6586690D02*
G01X7366060Y-6618694D01*
G01X7352852Y-6594818D02*
G01X7379268Y-6610820D01*
G01X7379268Y-6594818D02*
G01X7352852Y-6610820D01*
G01X12579156Y-1174712D02*
G01X12579156Y-1217130D01*
G01X12576616Y-1225004D01*
G01X12573822Y-1227798D01*
G01X12568488Y-1230338D01*
G01X12563154Y-1230338D01*
G01X12557820Y-1227798D01*
G01X12555280Y-1225004D01*
G01X12552740Y-1217130D01*
G01X12552740Y-1211796D01*
G01X12644180Y-1174712D02*
G01X12617510Y-1230338D01*
G01X12606842Y-1174712D02*
G01X12644180Y-1174712D01*
G01X3136706Y-8566112D02*
G01X3136706Y-8605990D01*
G01X3139246Y-8613864D01*
G01X3144580Y-8619198D01*
G01X3152454Y-8621738D01*
G01X3157788Y-8621738D01*
G01X3165916Y-8619198D01*
G01X3170996Y-8613864D01*
G01X3173790Y-8605990D01*
G01X3173790Y-8566112D01*
G01X3233480Y-8566112D02*
G01X3206810Y-8566112D01*
G01X3204270Y-8589988D01*
G01X3206810Y-8587194D01*
G01X3214938Y-8584654D01*
G01X3222812Y-8584654D01*
G01X3230686Y-8587194D01*
G01X3236020Y-8592528D01*
G01X3238814Y-8600656D01*
G01X3238814Y-8605990D01*
G01X3236020Y-8613864D01*
G01X3230686Y-8619198D01*
G01X3222812Y-8621738D01*
G01X3214938Y-8621738D01*
G01X3206810Y-8619198D01*
G01X3204270Y-8616404D01*
G01X3201476Y-8611070D01*
G01X2806760Y-7551890D02*
G01X2806760Y-7583894D01*
G01X2793552Y-7560018D02*
G01X2819968Y-7576020D01*
G01X2819968Y-7560018D02*
G01X2793552Y-7576020D01*
G01X2806760Y-7551890D02*
G01X2806760Y-7583894D01*
G01X2793552Y-7560018D02*
G01X2819968Y-7576020D01*
G01X2819968Y-7560018D02*
G01X2793552Y-7576020D01*
G01X13748953Y-1174712D02*
G01X13748953Y-1217130D01*
G01X13746413Y-1225004D01*
G01X13743619Y-1227798D01*
G01X13738285Y-1230338D01*
G01X13732951Y-1230338D01*
G01X13727617Y-1227798D01*
G01X13725077Y-1225004D01*
G01X13722537Y-1217130D01*
G01X13722537Y-1211796D01*
G01X13808643Y-1182586D02*
G01X13805849Y-1177252D01*
G01X13797975Y-1174712D01*
G01X13792641Y-1174712D01*
G01X13784767Y-1177252D01*
G01X13779433Y-1185126D01*
G01X13776639Y-1198588D01*
G01X13776639Y-1211796D01*
G01X13779433Y-1222464D01*
G01X13784767Y-1227798D01*
G01X13792641Y-1230338D01*
G01X13795181Y-1230338D01*
G01X13803309Y-1227798D01*
G01X13808643Y-1222464D01*
G01X13811183Y-1214590D01*
G01X13811183Y-1211796D01*
G01X13808643Y-1203922D01*
G01X13803309Y-1198588D01*
G01X13795181Y-1195794D01*
G01X13792641Y-1195794D01*
G01X13784767Y-1198588D01*
G01X13779433Y-1203922D01*
G01X13776639Y-1211796D01*
G01X17571988Y-1701606D02*
G01X17516362Y-1701606D01*
G01X17571988Y-1701606D02*
G01X17571988Y-1725482D01*
G01X17569448Y-1733356D01*
G01X17566654Y-1735896D01*
G01X17561574Y-1738690D01*
G01X17556240Y-1738690D01*
G01X17550906Y-1735896D01*
G01X17548112Y-1733356D01*
G01X17545572Y-1725482D01*
G01X17545572Y-1701606D01*
G01X17545572Y-1720148D02*
G01X17516362Y-1738690D01*
G01X17558780Y-1769170D02*
G01X17561574Y-1769170D01*
G01X17566654Y-1771710D01*
G01X17569448Y-1774504D01*
G01X17571988Y-1779838D01*
G01X17571988Y-1790252D01*
G01X17569448Y-1795586D01*
G01X17566654Y-1798380D01*
G01X17561574Y-1800920D01*
G01X17556240Y-1800920D01*
G01X17550906Y-1798380D01*
G01X17542778Y-1793046D01*
G01X17516362Y-1766376D01*
G01X17516362Y-1803714D01*
G01X14288703Y-7296112D02*
G01X14288703Y-7335990D01*
G01X14291243Y-7343864D01*
G01X14296577Y-7349198D01*
G01X14304451Y-7351738D01*
G01X14309785Y-7351738D01*
G01X14317913Y-7349198D01*
G01X14322993Y-7343864D01*
G01X14325787Y-7335990D01*
G01X14325787Y-7296112D01*
G01X14388017Y-7314654D02*
G01X14385477Y-7322528D01*
G01X14380143Y-7327862D01*
G01X14372015Y-7330656D01*
G01X14369475Y-7330656D01*
G01X14361601Y-7327862D01*
G01X14356267Y-7322528D01*
G01X14353473Y-7314654D01*
G01X14353473Y-7311860D01*
G01X14356267Y-7303986D01*
G01X14361601Y-7298652D01*
G01X14369475Y-7296112D01*
G01X14372015Y-7296112D01*
G01X14380143Y-7298652D01*
G01X14385477Y-7303986D01*
G01X14388017Y-7314654D01*
G01X14388017Y-7327862D01*
G01X14385477Y-7341070D01*
G01X14380143Y-7349198D01*
G01X14372015Y-7351738D01*
G01X14366935Y-7351738D01*
G01X14358807Y-7349198D01*
G01X14356267Y-7343864D01*
G01X13957360Y-6281890D02*
G01X13957360Y-6313894D01*
G01X13944152Y-6290018D02*
G01X13970568Y-6306020D01*
G01X13970568Y-6290018D02*
G01X13944152Y-6306020D01*
G01X13957360Y-6281890D02*
G01X13957360Y-6313894D01*
G01X13944152Y-6290018D02*
G01X13970568Y-6306020D01*
G01X13970568Y-6290018D02*
G01X13944152Y-6306020D01*
G01X7742368Y-3465188D02*
G01X7742368Y-3425310D01*
G01X7739828Y-3417436D01*
G01X7734494Y-3412102D01*
G01X7726620Y-3409562D01*
G01X7721286Y-3409562D01*
G01X7713158Y-3412102D01*
G01X7708078Y-3417436D01*
G01X7705284Y-3425310D01*
G01X7705284Y-3465188D01*
G01X7677598Y-3454774D02*
G01X7672264Y-3457314D01*
G01X7664136Y-3465188D01*
G01X7664136Y-3409562D01*
G01X7620448Y-3465188D02*
G01X7628322Y-3462648D01*
G01X7633656Y-3454774D01*
G01X7636450Y-3441312D01*
G01X7636450Y-3433438D01*
G01X7633656Y-3420230D01*
G01X7628322Y-3412102D01*
G01X7620448Y-3409562D01*
G01X7615114Y-3409562D01*
G01X7607240Y-3412102D01*
G01X7601906Y-3420230D01*
G01X7599112Y-3433438D01*
G01X7599112Y-3441312D01*
G01X7601906Y-3454774D01*
G01X7607240Y-3462648D01*
G01X7615114Y-3465188D01*
G01X7620448Y-3465188D01*
G01X12623606Y-6851612D02*
G01X12623606Y-6891490D01*
G01X12626146Y-6899364D01*
G01X12631480Y-6904698D01*
G01X12639354Y-6907238D01*
G01X12644688Y-6907238D01*
G01X12652816Y-6904698D01*
G01X12657896Y-6899364D01*
G01X12660690Y-6891490D01*
G01X12660690Y-6851612D01*
G01X12701838Y-6851612D02*
G01X12693710Y-6854152D01*
G01X12691170Y-6859486D01*
G01X12691170Y-6864820D01*
G01X12693710Y-6870154D01*
G01X12699044Y-6872694D01*
G01X12709712Y-6875488D01*
G01X12717586Y-6878028D01*
G01X12722920Y-6883362D01*
G01X12725714Y-6888696D01*
G01X12725714Y-6896570D01*
G01X12722920Y-6901904D01*
G01X12720380Y-6904698D01*
G01X12712252Y-6907238D01*
G01X12701838Y-6907238D01*
G01X12693710Y-6904698D01*
G01X12691170Y-6901904D01*
G01X12688376Y-6896570D01*
G01X12688376Y-6888696D01*
G01X12691170Y-6883362D01*
G01X12696504Y-6878028D01*
G01X12704378Y-6875488D01*
G01X12715046Y-6872694D01*
G01X12720380Y-6870154D01*
G01X12722920Y-6864820D01*
G01X12722920Y-6859486D01*
G01X12720380Y-6854152D01*
G01X12712252Y-6851612D01*
G01X12701838Y-6851612D01*
G01X12293660Y-5837390D02*
G01X12293660Y-5869394D01*
G01X12280452Y-5845518D02*
G01X12306868Y-5861520D01*
G01X12306868Y-5845518D02*
G01X12280452Y-5861520D01*
G01X12293660Y-5837390D02*
G01X12293660Y-5869394D01*
G01X12280452Y-5845518D02*
G01X12306868Y-5861520D01*
G01X12306868Y-5845518D02*
G01X12280452Y-5861520D01*
G01X963736Y-8566112D02*
G01X963736Y-8605990D01*
G01X966276Y-8613864D01*
G01X971610Y-8619198D01*
G01X979484Y-8621738D01*
G01X984818Y-8621738D01*
G01X992946Y-8619198D01*
G01X998026Y-8613864D01*
G01X1000820Y-8605990D01*
G01X1000820Y-8566112D01*
G01X1055176Y-8566112D02*
G01X1028506Y-8603196D01*
G01X1068384Y-8603196D01*
G01X1055176Y-8566112D02*
G01X1055176Y-8621738D01*
G01X635060Y-7551890D02*
G01X635060Y-7583894D01*
G01X621852Y-7560018D02*
G01X648268Y-7576020D01*
G01X648268Y-7560018D02*
G01X621852Y-7576020D01*
G01X635060Y-7551890D02*
G01X635060Y-7583894D01*
G01X621852Y-7560018D02*
G01X648268Y-7576020D01*
G01X648268Y-7560018D02*
G01X621852Y-7576020D01*
G01X11437553Y-1200112D02*
G01X11437553Y-1242530D01*
G01X11435013Y-1250404D01*
G01X11432219Y-1253198D01*
G01X11426885Y-1255738D01*
G01X11421551Y-1255738D01*
G01X11416217Y-1253198D01*
G01X11413677Y-1250404D01*
G01X11411137Y-1242530D01*
G01X11411137Y-1237196D01*
G01X11499783Y-1218654D02*
G01X11497243Y-1226528D01*
G01X11491909Y-1231862D01*
G01X11483781Y-1234656D01*
G01X11481241Y-1234656D01*
G01X11473367Y-1231862D01*
G01X11468033Y-1226528D01*
G01X11465239Y-1218654D01*
G01X11465239Y-1215860D01*
G01X11468033Y-1207986D01*
G01X11473367Y-1202652D01*
G01X11481241Y-1200112D01*
G01X11483781Y-1200112D01*
G01X11491909Y-1202652D01*
G01X11497243Y-1207986D01*
G01X11499783Y-1218654D01*
G01X11499783Y-1231862D01*
G01X11497243Y-1245070D01*
G01X11491909Y-1253198D01*
G01X11483781Y-1255738D01*
G01X11478701Y-1255738D01*
G01X11470573Y-1253198D01*
G01X11468033Y-1247864D01*
G01X9156506Y-5886412D02*
G01X9156506Y-5926290D01*
G01X9159046Y-5934164D01*
G01X9164380Y-5939498D01*
G01X9172254Y-5942038D01*
G01X9177588Y-5942038D01*
G01X9185716Y-5939498D01*
G01X9190796Y-5934164D01*
G01X9193590Y-5926290D01*
G01X9193590Y-5886412D01*
G01X9258614Y-5886412D02*
G01X9231944Y-5942038D01*
G01X9221276Y-5886412D02*
G01X9258614Y-5886412D01*
G01X8826560Y-4872190D02*
G01X8826560Y-4904194D01*
G01X8813352Y-4880318D02*
G01X8839768Y-4896320D01*
G01X8839768Y-4880318D02*
G01X8813352Y-4896320D01*
G01X8826560Y-4872190D02*
G01X8826560Y-4904194D01*
G01X8813352Y-4880318D02*
G01X8839768Y-4896320D01*
G01X8839768Y-4880318D02*
G01X8813352Y-4896320D01*
G01X2199544Y-2033888D02*
G01X2199544Y-1991470D01*
G01X2202084Y-1983596D01*
G01X2204878Y-1980802D01*
G01X2210212Y-1978262D01*
G01X2215546Y-1978262D01*
G01X2220880Y-1980802D01*
G01X2223420Y-1983596D01*
G01X2225960Y-1991470D01*
G01X2225960Y-1996804D01*
G01X2169064Y-2020680D02*
G01X2169064Y-2023474D01*
G01X2166524Y-2028554D01*
G01X2163730Y-2031348D01*
G01X2158396Y-2033888D01*
G01X2147982Y-2033888D01*
G01X2142648Y-2031348D01*
G01X2139854Y-2028554D01*
G01X2137314Y-2023474D01*
G01X2137314Y-2018140D01*
G01X2139854Y-2012806D01*
G01X2145188Y-2004678D01*
G01X2171858Y-1978262D01*
G01X2134520Y-1978262D01*
G01X1074688Y-3365306D02*
G01X1019062Y-3365306D01*
G01X1074688Y-3365306D02*
G01X1074688Y-3389182D01*
G01X1072148Y-3397056D01*
G01X1069354Y-3399596D01*
G01X1064274Y-3402390D01*
G01X1058940Y-3402390D01*
G01X1053606Y-3399596D01*
G01X1050812Y-3397056D01*
G01X1048272Y-3389182D01*
G01X1048272Y-3365306D01*
G01X1048272Y-3383848D02*
G01X1019062Y-3402390D01*
G01X1074688Y-3435410D02*
G01X1074688Y-3464620D01*
G01X1053606Y-3448618D01*
G01X1053606Y-3456746D01*
G01X1050812Y-3462080D01*
G01X1048272Y-3464620D01*
G01X1040144Y-3467414D01*
G01X1034810Y-3467414D01*
G01X1026936Y-3464620D01*
G01X1021602Y-3459286D01*
G01X1019062Y-3451412D01*
G01X1019062Y-3443538D01*
G01X1021602Y-3435410D01*
G01X1024396Y-3432870D01*
G01X1029730Y-3430076D01*
G01X8983786Y-1187412D02*
G01X8983786Y-1229830D01*
G01X8981246Y-1237704D01*
G01X8978452Y-1240498D01*
G01X8973118Y-1243038D01*
G01X8967784Y-1243038D01*
G01X8962450Y-1240498D01*
G01X8959910Y-1237704D01*
G01X8957370Y-1229830D01*
G01X8957370Y-1224496D01*
G01X9038142Y-1187412D02*
G01X9011472Y-1224496D01*
G01X9051350Y-1224496D01*
G01X9038142Y-1187412D02*
G01X9038142Y-1243038D01*
G01X12942888Y-3750370D02*
G01X12903010Y-3750370D01*
G01X12895136Y-3752910D01*
G01X12889802Y-3758244D01*
G01X12887262Y-3766118D01*
G01X12887262Y-3771452D01*
G01X12889802Y-3779580D01*
G01X12895136Y-3784660D01*
G01X12903010Y-3787454D01*
G01X12942888Y-3787454D01*
G01X12932474Y-3815140D02*
G01X12935014Y-3820474D01*
G01X12942888Y-3828602D01*
G01X12887262Y-3828602D01*
G01X12932474Y-3856288D02*
G01X12935014Y-3861622D01*
G01X12942888Y-3869750D01*
G01X12887262Y-3869750D01*
G01X7791256Y-1187412D02*
G01X7791256Y-1229830D01*
G01X7788716Y-1237704D01*
G01X7785922Y-1240498D01*
G01X7780588Y-1243038D01*
G01X7775254Y-1243038D01*
G01X7769920Y-1240498D01*
G01X7767380Y-1237704D01*
G01X7764840Y-1229830D01*
G01X7764840Y-1224496D01*
G01X7832404Y-1187412D02*
G01X7824276Y-1189952D01*
G01X7821736Y-1195286D01*
G01X7821736Y-1200620D01*
G01X7824276Y-1205954D01*
G01X7829610Y-1208494D01*
G01X7840278Y-1211288D01*
G01X7848152Y-1213828D01*
G01X7853486Y-1219162D01*
G01X7856280Y-1224496D01*
G01X7856280Y-1232370D01*
G01X7853486Y-1237704D01*
G01X7850946Y-1240498D01*
G01X7842818Y-1243038D01*
G01X7832404Y-1243038D01*
G01X7824276Y-1240498D01*
G01X7821736Y-1237704D01*
G01X7818942Y-1232370D01*
G01X7818942Y-1224496D01*
G01X7821736Y-1219162D01*
G01X7827070Y-1213828D01*
G01X7834944Y-1211288D01*
G01X7845612Y-1208494D01*
G01X7850946Y-1205954D01*
G01X7853486Y-1200620D01*
G01X7853486Y-1195286D01*
G01X7850946Y-1189952D01*
G01X7842818Y-1187412D01*
G01X7832404Y-1187412D01*
G01X15797336Y-1782812D02*
G01X15797336Y-1838438D01*
G01X15797336Y-1782812D02*
G01X15821212Y-1782812D01*
G01X15829086Y-1785352D01*
G01X15831626Y-1788146D01*
G01X15834420Y-1793226D01*
G01X15834420Y-1798560D01*
G01X15831626Y-1803894D01*
G01X15829086Y-1806688D01*
G01X15821212Y-1809228D01*
G01X15797336Y-1809228D01*
G01X15815878Y-1809228D02*
G01X15834420Y-1838438D01*
G01X15888776Y-1782812D02*
G01X15862106Y-1819896D01*
G01X15901984Y-1819896D01*
G01X15888776Y-1782812D02*
G01X15888776Y-1838438D01*
G01X322094Y-4879512D02*
G01X322094Y-4921930D01*
G01X319554Y-4929804D01*
G01X316760Y-4932598D01*
G01X311426Y-4935138D01*
G01X306092Y-4935138D01*
G01X300758Y-4932598D01*
G01X298218Y-4929804D01*
G01X295678Y-4921930D01*
G01X295678Y-4916596D01*
G01X349780Y-4889926D02*
G01X355114Y-4887386D01*
G01X363242Y-4879512D01*
G01X363242Y-4935138D01*
G01X2748556Y-4904912D02*
G01X2748556Y-4947330D01*
G01X2746016Y-4955204D01*
G01X2743222Y-4957998D01*
G01X2737888Y-4960538D01*
G01X2732554Y-4960538D01*
G01X2727220Y-4957998D01*
G01X2724680Y-4955204D01*
G01X2722140Y-4947330D01*
G01X2722140Y-4941996D01*
G01X2781576Y-4904912D02*
G01X2810786Y-4904912D01*
G01X2794784Y-4925994D01*
G01X2802912Y-4925994D01*
G01X2808246Y-4928788D01*
G01X2810786Y-4931328D01*
G01X2813580Y-4939456D01*
G01X2813580Y-4944790D01*
G01X2810786Y-4952664D01*
G01X2805452Y-4957998D01*
G01X2797578Y-4960538D01*
G01X2789704Y-4960538D01*
G01X2781576Y-4957998D01*
G01X2779036Y-4955204D01*
G01X2776242Y-4949870D01*
G01X7599956Y-4879512D02*
G01X7599956Y-4921930D01*
G01X7597416Y-4929804D01*
G01X7594622Y-4932598D01*
G01X7589288Y-4935138D01*
G01X7583954Y-4935138D01*
G01X7578620Y-4932598D01*
G01X7576080Y-4929804D01*
G01X7573540Y-4921930D01*
G01X7573540Y-4916596D01*
G01X7659646Y-4879512D02*
G01X7632976Y-4879512D01*
G01X7630436Y-4903388D01*
G01X7632976Y-4900594D01*
G01X7641104Y-4898054D01*
G01X7648978Y-4898054D01*
G01X7656852Y-4900594D01*
G01X7662186Y-4905928D01*
G01X7664980Y-4914056D01*
G01X7664980Y-4919390D01*
G01X7662186Y-4927264D01*
G01X7656852Y-4932598D01*
G01X7648978Y-4935138D01*
G01X7641104Y-4935138D01*
G01X7632976Y-4932598D01*
G01X7630436Y-4929804D01*
G01X7627642Y-4924470D01*
G01X10331853Y-4892212D02*
G01X10331853Y-4934630D01*
G01X10329313Y-4942504D01*
G01X10326519Y-4945298D01*
G01X10321185Y-4947838D01*
G01X10315851Y-4947838D01*
G01X10310517Y-4945298D01*
G01X10307977Y-4942504D01*
G01X10305437Y-4934630D01*
G01X10305437Y-4929296D01*
G01X10391543Y-4900086D02*
G01X10388749Y-4894752D01*
G01X10380875Y-4892212D01*
G01X10375541Y-4892212D01*
G01X10367667Y-4894752D01*
G01X10362333Y-4902626D01*
G01X10359539Y-4916088D01*
G01X10359539Y-4929296D01*
G01X10362333Y-4939964D01*
G01X10367667Y-4945298D01*
G01X10375541Y-4947838D01*
G01X10378081Y-4947838D01*
G01X10386209Y-4945298D01*
G01X10391543Y-4939964D01*
G01X10394083Y-4932090D01*
G01X10394083Y-4929296D01*
G01X10391543Y-4921422D01*
G01X10386209Y-4916088D01*
G01X10378081Y-4913294D01*
G01X10375541Y-4913294D01*
G01X10367667Y-4916088D01*
G01X10362333Y-4921422D01*
G01X10359539Y-4929296D01*
G01X12794256Y-4841412D02*
G01X12794256Y-4883830D01*
G01X12791716Y-4891704D01*
G01X12788922Y-4894498D01*
G01X12783588Y-4897038D01*
G01X12778254Y-4897038D01*
G01X12772920Y-4894498D01*
G01X12770380Y-4891704D01*
G01X12767840Y-4883830D01*
G01X12767840Y-4878496D01*
G01X12859280Y-4841412D02*
G01X12832610Y-4897038D01*
G01X12821942Y-4841412D02*
G01X12859280Y-4841412D01*
G01X15194556Y-4866812D02*
G01X15194556Y-4909230D01*
G01X15192016Y-4917104D01*
G01X15189222Y-4919898D01*
G01X15183888Y-4922438D01*
G01X15178554Y-4922438D01*
G01X15173220Y-4919898D01*
G01X15170680Y-4917104D01*
G01X15168140Y-4909230D01*
G01X15168140Y-4903896D01*
G01X15235704Y-4866812D02*
G01X15227576Y-4869352D01*
G01X15225036Y-4874686D01*
G01X15225036Y-4880020D01*
G01X15227576Y-4885354D01*
G01X15232910Y-4887894D01*
G01X15243578Y-4890688D01*
G01X15251452Y-4893228D01*
G01X15256786Y-4898562D01*
G01X15259580Y-4903896D01*
G01X15259580Y-4911770D01*
G01X15256786Y-4917104D01*
G01X15254246Y-4919898D01*
G01X15246118Y-4922438D01*
G01X15235704Y-4922438D01*
G01X15227576Y-4919898D01*
G01X15225036Y-4917104D01*
G01X15222242Y-4911770D01*
G01X15222242Y-4903896D01*
G01X15225036Y-4898562D01*
G01X15230370Y-4893228D01*
G01X15238244Y-4890688D01*
G01X15248912Y-4887894D01*
G01X15254246Y-4885354D01*
G01X15256786Y-4880020D01*
G01X15256786Y-4874686D01*
G01X15254246Y-4869352D01*
G01X15246118Y-4866812D01*
G01X15235704Y-4866812D01*
G01X17269212Y-781244D02*
G01X17311630Y-781244D01*
G01X17319504Y-783784D01*
G01X17322298Y-786578D01*
G01X17324838Y-791912D01*
G01X17324838Y-797246D01*
G01X17322298Y-802580D01*
G01X17319504Y-805120D01*
G01X17311630Y-807660D01*
G01X17306296Y-807660D01*
G01X17282420Y-750764D02*
G01X17279626Y-750764D01*
G01X17274546Y-748224D01*
G01X17271752Y-745430D01*
G01X17269212Y-740096D01*
G01X17269212Y-729682D01*
G01X17271752Y-724348D01*
G01X17274546Y-721554D01*
G01X17279626Y-719014D01*
G01X17284960Y-719014D01*
G01X17290294Y-721554D01*
G01X17298422Y-726888D01*
G01X17324838Y-753558D01*
G01X17324838Y-716220D01*
G01X14830812Y-8707314D02*
G01X14873230Y-8707314D01*
G01X14881104Y-8709854D01*
G01X14883898Y-8712648D01*
G01X14886438Y-8717982D01*
G01X14886438Y-8723316D01*
G01X14883898Y-8728650D01*
G01X14881104Y-8731190D01*
G01X14873230Y-8733730D01*
G01X14867896Y-8733730D01*
G01X14830812Y-8652958D02*
G01X14867896Y-8679628D01*
G01X14867896Y-8639750D01*
G01X14830812Y-8652958D02*
G01X14886438Y-8652958D01*
G04 Text End*

G04 PolygonModel Start*
G54D12*
G01X20920800Y-166700D02*
G01X20470800Y-166700D01*
G01X20470800Y-816700D02*
G01X20920800Y-816700D01*
G01X21045800Y-566700D02*
G01X21045800Y-416700D01*
G01X20345800Y-416700D02*
G01X20345800Y-566700D01*
G54D13*
G01X10351812Y-568960D02*
G01X10599420Y-568960D01*
G01X10623550Y-543560D02*
G01X9848850Y-543560D01*
G01X9872980Y-568960D02*
G01X10120588Y-568960D01*
G01X10599420Y-43180D02*
G01X9872980Y-43180D01*
G01X10623550Y-1920240D02*
G01X10623550Y-543560D01*
G01X9848850Y-1920240D02*
G01X10623550Y-1920240D01*
G01X9872980Y-43180D02*
G01X9872980Y-568960D01*
G01X10599420Y-568960D02*
G01X10599420Y-43180D01*
G01X9848850Y-543560D02*
G01X9848850Y-1920240D01*
G01X7378700Y-10688357D02*
G01X7378700Y-10774643D01*
G01X8039100Y-11282643D02*
G01X8039100Y-11196357D01*
G01X8039100Y-9493250D02*
G01X7406017Y-9493250D01*
G01X7378700Y-11196357D02*
G01X7378700Y-11282643D01*
G01X8039100Y-10774643D02*
G01X8039100Y-10688357D01*
G01X7378700Y-10942357D02*
G01X7378700Y-11028643D01*
G01X8039100Y-10266643D02*
G01X8039100Y-10180357D01*
G01X7378700Y-9686544D02*
G01X7378700Y-9758643D01*
G01X7378700Y-9926357D02*
G01X7378700Y-10012643D01*
G01X8039100Y-9758643D02*
G01X8039100Y-9672357D01*
G01X7378700Y-11461750D02*
G01X8039100Y-11461750D01*
G01X8039100Y-10012643D02*
G01X8039100Y-9926357D01*
G01X7378700Y-10434357D02*
G01X7378700Y-10520643D01*
G01X8039100Y-11028643D02*
G01X8039100Y-10942357D01*
G01X8039100Y-10520643D02*
G01X8039100Y-10434357D01*
G01X7378700Y-10180357D02*
G01X7378700Y-10266643D01*
G01X7739380Y-9493250D02*
G02X7678420Y-9493250I-30480J0D01*
G54D12*
G01X17657700Y-1030600D02*
G01X17657700Y-1954600D01*
G01X18181700Y-1030600D02*
G01X18014300Y-1030600D01*
G01X17825100Y-1954600D02*
G01X17657700Y-1954600D01*
G01X17825100Y-1030600D02*
G01X17657700Y-1030600D01*
G01X18181700Y-1954600D02*
G01X18014300Y-1954600D01*
G01X18181700Y-1030600D02*
G01X18181700Y-1954600D01*
G01X12451600Y-2688500D02*
G01X12451600Y-2687000D01*
G01X12905600Y-2901000D02*
G01X12905600Y-2899500D01*
G01X12451600Y-2901000D02*
G01X12451600Y-2899500D01*
G01X12905600Y-2687000D02*
G01X12451600Y-2687000D01*
G01X12905600Y-2688500D02*
G01X12905600Y-2687000D01*
G01X12905600Y-2901000D02*
G01X12451600Y-2901000D01*
G01X16806000Y-4831600D02*
G01X16807500Y-4831600D01*
G01X16593500Y-5285600D02*
G01X16595000Y-5285600D01*
G01X16593500Y-4831600D02*
G01X16595000Y-4831600D01*
G01X16807500Y-5285600D02*
G01X16807500Y-4831600D01*
G01X16806000Y-5285600D02*
G01X16807500Y-5285600D01*
G01X16593500Y-5285600D02*
G01X16593500Y-4831600D01*
G01X6007100Y-3146500D02*
G01X6007100Y-3084500D01*
G01X18102900Y-2989800D02*
G01X18396900Y-2989800D01*
G01X18396900Y-2445800D02*
G01X18102900Y-2445800D01*
G01X18102900Y-2899800D02*
G01X18396900Y-2899800D01*
G01X18396900Y-2989800D02*
G01X18396900Y-2445800D01*
G01X18102900Y-2445800D02*
G01X18102900Y-2989800D01*
G01X18102900Y-2911800D02*
G01X18396900Y-2911800D01*
G01X18249900Y-2343800D02*
G01X18249900Y-2445800D01*
G01X18249900Y-3091800D02*
G01X18249900Y-2989800D01*
G01X18102900Y-2887800D02*
G01X18396900Y-2887800D01*
G01X5766800Y-2004300D02*
G01X5766800Y-1780300D01*
G01X5915800Y-1892300D02*
G01X5850800Y-1892300D01*
G01X5850800Y-1780300D02*
G01X5426800Y-1780300D01*
G01X5426800Y-1780300D02*
G01X5426800Y-2004300D01*
G01X5778800Y-2004300D02*
G01X5778800Y-1780300D01*
G01X5790800Y-2004300D02*
G01X5790800Y-1780300D01*
G01X5850800Y-2004300D02*
G01X5850800Y-1780300D01*
G01X5426800Y-2004300D02*
G01X5850800Y-2004300D01*
G01X5361800Y-1892300D02*
G01X5426800Y-1892300D01*
G01X16536800Y-1415900D02*
G01X16536800Y-1589900D01*
G01X16536800Y-1589900D02*
G01X16362800Y-1589900D01*
G01X15592800Y-105900D02*
G01X16512800Y-105900D01*
G01X16512800Y-1565900D02*
G01X16232800Y-1565900D01*
G01X16512800Y-105900D02*
G01X16512800Y-1565900D01*
G01X15592800Y-1005900D02*
G01X15592800Y-105900D01*
G01X15872800Y-1565900D02*
G01X15592800Y-1565900D01*
G01X15592800Y-1565900D02*
G01X15592800Y-1365900D01*
G54D14*
G01X10490200Y-12808100D02*
G01X8712200Y-12808100D01*
G01X10490200Y-9182100D02*
G01X10490200Y-12808100D01*
G01X8712200Y-12808100D02*
G01X8712200Y-9182100D01*
G01X8712200Y-9182100D02*
G01X10490200Y-9182100D01*
G54D13*
G01X11023600Y-8999257D02*
G01X11023600Y-9085543D01*
G01X11684000Y-9593543D02*
G01X11684000Y-9507257D01*
G01X11684000Y-7804150D02*
G01X11050917Y-7804150D01*
G01X11023600Y-9507257D02*
G01X11023600Y-9593543D01*
G01X11684000Y-9085543D02*
G01X11684000Y-8999257D01*
G01X11023600Y-9253257D02*
G01X11023600Y-9339543D01*
G01X11684000Y-8577543D02*
G01X11684000Y-8491257D01*
G01X11023600Y-7997444D02*
G01X11023600Y-8069543D01*
G01X11023600Y-8237257D02*
G01X11023600Y-8323543D01*
G01X11684000Y-8069543D02*
G01X11684000Y-7983257D01*
G01X11023600Y-9772650D02*
G01X11684000Y-9772650D01*
G01X11684000Y-8323543D02*
G01X11684000Y-8237257D01*
G01X11023600Y-8745257D02*
G01X11023600Y-8831543D01*
G01X11684000Y-9339543D02*
G01X11684000Y-9253257D01*
G01X11684000Y-8831543D02*
G01X11684000Y-8745257D01*
G01X11023600Y-8491257D02*
G01X11023600Y-8577543D01*
G01X11384280Y-7804150D02*
G02X11323320Y-7804150I-30480J0D01*
G54D14*
G01X4427000Y-1625900D02*
G01X3701000Y-1625900D01*
G01X3039000Y-1625900D02*
G01X3039000Y-75900D01*
G01X5089000Y-75900D02*
G01X5089000Y-1625900D01*
G01X3427000Y-1625900D02*
G01X3039000Y-1625900D01*
G01X5089000Y-1625900D02*
G01X4701000Y-1625900D01*
G54D13*
G01X4876800Y-7399057D02*
G01X4876800Y-7485343D01*
G01X5537200Y-7993343D02*
G01X5537200Y-7907057D01*
G01X5537200Y-6203950D02*
G01X4904117Y-6203950D01*
G01X4876800Y-7907057D02*
G01X4876800Y-7993343D01*
G01X5537200Y-7485343D02*
G01X5537200Y-7399057D01*
G01X4876800Y-7653057D02*
G01X4876800Y-7739343D01*
G01X5537200Y-6977343D02*
G01X5537200Y-6891057D01*
G01X4876800Y-6397244D02*
G01X4876800Y-6469343D01*
G01X4876800Y-6637057D02*
G01X4876800Y-6723343D01*
G01X5537200Y-6469343D02*
G01X5537200Y-6383057D01*
G01X4876800Y-8172450D02*
G01X5537200Y-8172450D01*
G01X5537200Y-6723343D02*
G01X5537200Y-6637057D01*
G01X4876800Y-7145057D02*
G01X4876800Y-7231343D01*
G01X5537200Y-7739343D02*
G01X5537200Y-7653057D01*
G01X5537200Y-7231343D02*
G01X5537200Y-7145057D01*
G01X4876800Y-6891057D02*
G01X4876800Y-6977343D01*
G01X5237480Y-6203950D02*
G02X5176520Y-6203950I-30480J0D01*
G01X7416800Y-7843557D02*
G01X7416800Y-7929843D01*
G01X8077200Y-8437843D02*
G01X8077200Y-8351557D01*
G01X8077200Y-6648450D02*
G01X7444117Y-6648450D01*
G01X7416800Y-8351557D02*
G01X7416800Y-8437843D01*
G01X8077200Y-7929843D02*
G01X8077200Y-7843557D01*
G01X7416800Y-8097557D02*
G01X7416800Y-8183843D01*
G01X8077200Y-7421843D02*
G01X8077200Y-7335557D01*
G01X7416800Y-6841744D02*
G01X7416800Y-6913843D01*
G01X7416800Y-7081557D02*
G01X7416800Y-7167843D01*
G01X8077200Y-6913843D02*
G01X8077200Y-6827557D01*
G01X7416800Y-8616950D02*
G01X8077200Y-8616950D01*
G01X8077200Y-7167843D02*
G01X8077200Y-7081557D01*
G01X7416800Y-7589557D02*
G01X7416800Y-7675843D01*
G01X8077200Y-8183843D02*
G01X8077200Y-8097557D01*
G01X8077200Y-7675843D02*
G01X8077200Y-7589557D01*
G01X7416800Y-7335557D02*
G01X7416800Y-7421843D01*
G01X7777480Y-6648450D02*
G02X7716520Y-6648450I-30480J0D01*
G01X12714012Y-543560D02*
G01X12961620Y-543560D01*
G01X12985750Y-518160D02*
G01X12211050Y-518160D01*
G01X12235180Y-543560D02*
G01X12482788Y-543560D01*
G01X12961620Y-17780D02*
G01X12235180Y-17780D01*
G01X12985750Y-1894840D02*
G01X12985750Y-518160D01*
G01X12211050Y-1894840D02*
G01X12985750Y-1894840D01*
G01X12235180Y-17780D02*
G01X12235180Y-543560D01*
G01X12961620Y-543560D02*
G01X12961620Y-17780D01*
G01X12211050Y-518160D02*
G01X12211050Y-1894840D01*
G01X2857500Y-8808757D02*
G01X2857500Y-8895043D01*
G01X3517900Y-9403043D02*
G01X3517900Y-9316757D01*
G01X3517900Y-7613650D02*
G01X2884817Y-7613650D01*
G01X2857500Y-9316757D02*
G01X2857500Y-9403043D01*
G01X3517900Y-8895043D02*
G01X3517900Y-8808757D01*
G01X2857500Y-9062757D02*
G01X2857500Y-9149043D01*
G01X3517900Y-8387043D02*
G01X3517900Y-8300757D01*
G01X2857500Y-7806944D02*
G01X2857500Y-7879043D01*
G01X2857500Y-8046757D02*
G01X2857500Y-8133043D01*
G01X3517900Y-7879043D02*
G01X3517900Y-7792757D01*
G01X2857500Y-9582150D02*
G01X3517900Y-9582150D01*
G01X3517900Y-8133043D02*
G01X3517900Y-8046757D01*
G01X2857500Y-8554757D02*
G01X2857500Y-8641043D01*
G01X3517900Y-9149043D02*
G01X3517900Y-9062757D01*
G01X3517900Y-8641043D02*
G01X3517900Y-8554757D01*
G01X2857500Y-8300757D02*
G01X2857500Y-8387043D01*
G01X3218180Y-7613650D02*
G02X3157220Y-7613650I-30480J0D01*
G01X13882412Y-543560D02*
G01X14130020Y-543560D01*
G01X14154150Y-518160D02*
G01X13379450Y-518160D01*
G01X13403580Y-543560D02*
G01X13651188Y-543560D01*
G01X14130020Y-17780D02*
G01X13403580Y-17780D01*
G01X14154150Y-1894840D02*
G01X14154150Y-518160D01*
G01X13379450Y-1894840D02*
G01X14154150Y-1894840D01*
G01X13403580Y-17780D02*
G01X13403580Y-543560D01*
G01X14130020Y-543560D02*
G01X14130020Y-17780D01*
G01X13379450Y-518160D02*
G01X13379450Y-1894840D01*
G54D12*
G01X17348200Y-1717600D02*
G01X17348200Y-1779600D01*
G54D13*
G01X14008100Y-7538757D02*
G01X14008100Y-7625043D01*
G01X14668500Y-8133043D02*
G01X14668500Y-8046757D01*
G01X14668500Y-6343650D02*
G01X14035417Y-6343650D01*
G01X14008100Y-8046757D02*
G01X14008100Y-8133043D01*
G01X14668500Y-7625043D02*
G01X14668500Y-7538757D01*
G01X14008100Y-7792757D02*
G01X14008100Y-7879043D01*
G01X14668500Y-7117043D02*
G01X14668500Y-7030757D01*
G01X14008100Y-6536944D02*
G01X14008100Y-6609043D01*
G01X14008100Y-6776757D02*
G01X14008100Y-6863043D01*
G01X14668500Y-6609043D02*
G01X14668500Y-6522757D01*
G01X14008100Y-8312150D02*
G01X14668500Y-8312150D01*
G01X14668500Y-6863043D02*
G01X14668500Y-6776757D01*
G01X14008100Y-7284757D02*
G01X14008100Y-7371043D01*
G01X14668500Y-7879043D02*
G01X14668500Y-7792757D01*
G01X14668500Y-7371043D02*
G01X14668500Y-7284757D01*
G01X14008100Y-7030757D02*
G01X14008100Y-7117043D01*
G01X14368780Y-6343650D02*
G02X14307820Y-6343650I-30480J0D01*
G54D12*
G01X7935800Y-2305400D02*
G01X7405800Y-2305400D01*
G01X8184800Y-2299400D02*
G01X7156800Y-2299400D01*
G01X7156800Y-3339400D02*
G01X8184800Y-3339400D01*
G01X7156800Y-2299400D02*
G01X7156800Y-3339400D01*
G01X8184800Y-3339400D02*
G01X8184800Y-2299400D01*
G01X7405800Y-2305400D02*
G01X7405800Y-3333400D01*
G01X7770800Y-3333400D02*
G01X7935800Y-3333400D01*
G01X7405800Y-3333400D02*
G01X7570800Y-3333400D01*
G01X7935800Y-3333400D02*
G01X7935800Y-2305400D01*
G01X7570800Y-3333400D02*
G02X7770800Y-3333400I100000J0D01*
G54D13*
G01X12344400Y-7094257D02*
G01X12344400Y-7180543D01*
G01X13004800Y-7688543D02*
G01X13004800Y-7602257D01*
G01X13004800Y-5899150D02*
G01X12371717Y-5899150D01*
G01X12344400Y-7602257D02*
G01X12344400Y-7688543D01*
G01X13004800Y-7180543D02*
G01X13004800Y-7094257D01*
G01X12344400Y-7348257D02*
G01X12344400Y-7434543D01*
G01X13004800Y-6672543D02*
G01X13004800Y-6586257D01*
G01X12344400Y-6092444D02*
G01X12344400Y-6164543D01*
G01X12344400Y-6332257D02*
G01X12344400Y-6418543D01*
G01X13004800Y-6164543D02*
G01X13004800Y-6078257D01*
G01X12344400Y-7867650D02*
G01X13004800Y-7867650D01*
G01X13004800Y-6418543D02*
G01X13004800Y-6332257D01*
G01X12344400Y-6840257D02*
G01X12344400Y-6926543D01*
G01X13004800Y-7434543D02*
G01X13004800Y-7348257D01*
G01X13004800Y-6926543D02*
G01X13004800Y-6840257D01*
G01X12344400Y-6586257D02*
G01X12344400Y-6672543D01*
G01X12705080Y-5899150D02*
G02X12644120Y-5899150I-30480J0D01*
G01X685800Y-8808757D02*
G01X685800Y-8895043D01*
G01X1346200Y-9403043D02*
G01X1346200Y-9316757D01*
G01X1346200Y-7613650D02*
G01X713117Y-7613650D01*
G01X685800Y-9316757D02*
G01X685800Y-9403043D01*
G01X1346200Y-8895043D02*
G01X1346200Y-8808757D01*
G01X685800Y-9062757D02*
G01X685800Y-9149043D01*
G01X1346200Y-8387043D02*
G01X1346200Y-8300757D01*
G01X685800Y-7806944D02*
G01X685800Y-7879043D01*
G01X685800Y-8046757D02*
G01X685800Y-8133043D01*
G01X1346200Y-7879043D02*
G01X1346200Y-7792757D01*
G01X685800Y-9582150D02*
G01X1346200Y-9582150D01*
G01X1346200Y-8133043D02*
G01X1346200Y-8046757D01*
G01X685800Y-8554757D02*
G01X685800Y-8641043D01*
G01X1346200Y-9149043D02*
G01X1346200Y-9062757D01*
G01X1346200Y-8641043D02*
G01X1346200Y-8554757D01*
G01X685800Y-8300757D02*
G01X685800Y-8387043D01*
G01X1046480Y-7613650D02*
G02X985520Y-7613650I-30480J0D01*
G01X11571012Y-568960D02*
G01X11818620Y-568960D01*
G01X11842750Y-543560D02*
G01X11068050Y-543560D01*
G01X11092180Y-568960D02*
G01X11339788Y-568960D01*
G01X11818620Y-43180D02*
G01X11092180Y-43180D01*
G01X11842750Y-1920240D02*
G01X11842750Y-543560D01*
G01X11068050Y-1920240D02*
G01X11842750Y-1920240D01*
G01X11092180Y-43180D02*
G01X11092180Y-568960D01*
G01X11818620Y-568960D02*
G01X11818620Y-43180D01*
G01X11068050Y-543560D02*
G01X11068050Y-1920240D01*
G01X8877300Y-6129057D02*
G01X8877300Y-6215343D01*
G01X9537700Y-6723343D02*
G01X9537700Y-6637057D01*
G01X9537700Y-4933950D02*
G01X8904617Y-4933950D01*
G01X8877300Y-6637057D02*
G01X8877300Y-6723343D01*
G01X9537700Y-6215343D02*
G01X9537700Y-6129057D01*
G01X8877300Y-6383057D02*
G01X8877300Y-6469343D01*
G01X9537700Y-5707343D02*
G01X9537700Y-5621057D01*
G01X8877300Y-5127244D02*
G01X8877300Y-5199343D01*
G01X8877300Y-5367057D02*
G01X8877300Y-5453343D01*
G01X9537700Y-5199343D02*
G01X9537700Y-5113057D01*
G01X8877300Y-6902450D02*
G01X9537700Y-6902450D01*
G01X9537700Y-5453343D02*
G01X9537700Y-5367057D01*
G01X8877300Y-5875057D02*
G01X8877300Y-5961343D01*
G01X9537700Y-6469343D02*
G01X9537700Y-6383057D01*
G01X9537700Y-5961343D02*
G01X9537700Y-5875057D01*
G01X8877300Y-5621057D02*
G01X8877300Y-5707343D01*
G01X9237980Y-4933950D02*
G02X9177020Y-4933950I-30480J0D01*
G54D14*
G01X1810800Y-1638600D02*
G01X1084800Y-1638600D01*
G01X422800Y-1638600D02*
G01X422800Y-88600D01*
G01X2472800Y-88600D02*
G01X2472800Y-1638600D01*
G01X810800Y-1638600D02*
G01X422800Y-1638600D01*
G01X2472800Y-1638600D02*
G01X2084800Y-1638600D01*
G54D12*
G01X850900Y-3381300D02*
G01X850900Y-3443300D01*
G54D13*
G01X9119912Y-556260D02*
G01X9367520Y-556260D01*
G01X9391650Y-530860D02*
G01X8616950Y-530860D01*
G01X8641080Y-556260D02*
G01X8888688Y-556260D01*
G01X9367520Y-30480D02*
G01X8641080Y-30480D01*
G01X9391650Y-1907540D02*
G01X9391650Y-530860D01*
G01X8616950Y-1907540D02*
G01X9391650Y-1907540D01*
G01X8641080Y-30480D02*
G01X8641080Y-556260D01*
G01X9367520Y-556260D02*
G01X9367520Y-30480D01*
G01X8616950Y-530860D02*
G01X8616950Y-1907540D01*
G54D12*
G01X12660100Y-3298000D02*
G01X12660100Y-4322000D01*
G01X12811100Y-3995100D02*
G01X12660100Y-3995100D01*
G01X12811100Y-4322000D02*
G01X12347000Y-4322000D01*
G01X12811100Y-3298000D02*
G01X12811100Y-4322000D01*
G01X12811100Y-3298000D02*
G01X12347000Y-3298000D01*
G01X12347000Y-3298000D02*
G01X12347000Y-4322000D01*
G01X12811100Y-3625000D02*
G01X12660100Y-3625000D01*
G54D13*
G01X7926112Y-556260D02*
G01X8173720Y-556260D01*
G01X8197850Y-530860D02*
G01X7423150Y-530860D01*
G01X7447280Y-556260D02*
G01X7694888Y-556260D01*
G01X8173720Y-30480D02*
G01X7447280Y-30480D01*
G01X8197850Y-1907540D02*
G01X8197850Y-530860D01*
G01X7423150Y-1907540D02*
G01X8197850Y-1907540D01*
G01X7447280Y-30480D02*
G01X7447280Y-556260D01*
G01X8173720Y-556260D02*
G01X8173720Y-30480D01*
G01X7423150Y-530860D02*
G01X7423150Y-1907540D01*
G54D12*
G01X15814600Y-2006600D02*
G01X15876600Y-2006600D01*
G01X208400Y-5423300D02*
G01X239951Y-5423300D01*
G01X418849Y-5423300D02*
G01X450400Y-5423300D01*
G01X208400Y-5067300D02*
G01X208400Y-4998800D01*
G01X208400Y-5135800D02*
G01X218572Y-5135800D01*
G01X418849Y-5011300D02*
G01X450400Y-5011300D01*
G01X318849Y-5423300D02*
G01X339951Y-5423300D01*
G01X208400Y-4998800D02*
G01X279400Y-4998800D01*
G01X450400Y-5011300D02*
G01X450400Y-5423300D01*
G01X208400Y-5135800D02*
G01X208400Y-5423300D01*
G01X2646800Y-5448700D02*
G01X2678351Y-5448700D01*
G01X2857249Y-5448700D02*
G01X2888800Y-5448700D01*
G01X2646800Y-5092700D02*
G01X2646800Y-5024200D01*
G01X2646800Y-5161200D02*
G01X2656972Y-5161200D01*
G01X2857249Y-5036700D02*
G01X2888800Y-5036700D01*
G01X2757249Y-5448700D02*
G01X2778351Y-5448700D01*
G01X2646800Y-5024200D02*
G01X2717800Y-5024200D01*
G01X2888800Y-5036700D02*
G01X2888800Y-5448700D01*
G01X2646800Y-5161200D02*
G01X2646800Y-5448700D01*
G01X7498200Y-5423300D02*
G01X7529751Y-5423300D01*
G01X7740200Y-5011300D02*
G01X7740200Y-5423300D01*
G01X7608649Y-5423300D02*
G01X7629751Y-5423300D01*
G01X7708649Y-5423300D02*
G01X7740200Y-5423300D01*
G01X7498200Y-5135800D02*
G01X7508372Y-5135800D01*
G01X7498200Y-5067300D02*
G01X7498200Y-4998800D01*
G01X7498200Y-4998800D02*
G01X7569200Y-4998800D01*
G01X7708649Y-5011300D02*
G01X7740200Y-5011300D01*
G01X7498200Y-5135800D02*
G01X7498200Y-5423300D01*
G01X10228700Y-5436000D02*
G01X10260251Y-5436000D01*
G01X10470700Y-5024000D02*
G01X10470700Y-5436000D01*
G01X10339149Y-5436000D02*
G01X10360251Y-5436000D01*
G01X10439149Y-5436000D02*
G01X10470700Y-5436000D01*
G01X10228700Y-5148500D02*
G01X10238872Y-5148500D01*
G01X10228700Y-5080000D02*
G01X10228700Y-5011500D01*
G01X10228700Y-5011500D02*
G01X10299700Y-5011500D01*
G01X10439149Y-5024000D02*
G01X10470700Y-5024000D01*
G01X10228700Y-5148500D02*
G01X10228700Y-5436000D01*
G01X12692500Y-5097700D02*
G01X12692500Y-5385200D01*
G01X12692500Y-5029200D02*
G01X12692500Y-4960700D01*
G01X12902949Y-4973200D02*
G01X12934500Y-4973200D01*
G01X12692500Y-4960700D02*
G01X12763500Y-4960700D01*
G01X12902949Y-5385200D02*
G01X12934500Y-5385200D01*
G01X12802949Y-5385200D02*
G01X12824051Y-5385200D01*
G01X12692500Y-5385200D02*
G01X12724051Y-5385200D01*
G01X12692500Y-5097700D02*
G01X12702672Y-5097700D01*
G01X12934500Y-4973200D02*
G01X12934500Y-5385200D01*
G01X15092800Y-5123100D02*
G01X15092800Y-5410600D01*
G01X15092800Y-5054600D02*
G01X15092800Y-4986100D01*
G01X15303249Y-4998600D02*
G01X15334800Y-4998600D01*
G01X15092800Y-4986100D02*
G01X15163800Y-4986100D01*
G01X15303249Y-5410600D02*
G01X15334800Y-5410600D01*
G01X15203249Y-5410600D02*
G01X15224351Y-5410600D01*
G01X15092800Y-5410600D02*
G01X15124351Y-5410600D01*
G01X15092800Y-5123100D02*
G01X15102972Y-5123100D01*
G01X15334800Y-4998600D02*
G01X15334800Y-5410600D01*
G01X17076500Y-692500D02*
G01X16889000Y-692500D01*
G01X17145000Y-692500D02*
G01X17213500Y-692500D01*
G01X17213500Y-692500D02*
G01X17213500Y-762000D01*
G01X16889000Y-692500D02*
G01X16889000Y-722551D01*
G01X17076500Y-831500D02*
G01X16889000Y-831500D01*
G01X17076500Y-822828D02*
G01X17076500Y-831500D01*
G01X16889000Y-801449D02*
G01X16889000Y-831500D01*
G01X17076500Y-692500D02*
G01X17076500Y-701172D01*
G01X14638100Y-8756300D02*
G01X14450600Y-8756300D01*
G01X14638100Y-8617300D02*
G01X14638100Y-8625972D01*
G01X14638100Y-8747628D02*
G01X14638100Y-8756300D01*
G01X14638100Y-8617300D02*
G01X14450600Y-8617300D01*
G01X14450600Y-8617300D02*
G01X14450600Y-8647351D01*
G01X14775100Y-8617300D02*
G01X14775100Y-8686800D01*
G01X14450600Y-8726249D02*
G01X14450600Y-8756300D01*
G01X14706600Y-8617300D02*
G01X14775100Y-8617300D01*

G04 Circle Start*
G01X5915100Y-3238500D02*
G03X6099100Y-3238500I92000J0D01*
G03X5915100Y-3238500I-92000J0D01*
G54D16*
G01X2954000Y-1325900D02*
G03X2974000Y-1325900I10000J0D01*
G03X2954000Y-1325900I-10000J0D01*
G54D12*
G01X17256200Y-1625600D02*
G03X17440200Y-1625600I92000J0D01*
G03X17256200Y-1625600I-92000J0D01*
G54D16*
G01X337800Y-1338600D02*
G03X357800Y-1338600I10000J0D01*
G03X337800Y-1338600I-10000J0D01*
G54D12*
G01X758900Y-3289300D02*
G03X942900Y-3289300I92000J0D01*
G03X758900Y-3289300I-92000J0D01*
G01X15630600Y-2006600D02*
G03X15814600Y-2006600I92000J0D01*
G03X15630600Y-2006600I-92000J0D01*
G04 Circle End*

M02*

