G04 Layer: TopLayer*
G04 EasyEDA Pro v2.2.35.2, 2025-01-29 23:55:14*
G04 Gerber Generator version 0.3*
G04 Scale: 100 percent, Rotated: No, Reflected: No*
G04 Dimensions in millimeters*
G04 Leading zeros omitted, absolute positions, 4 integers and 5 decimals*
%FSLAX45Y45*%
%MOMM*%
%ADD10C,2.0*%
%ADD11C,1.2*%
%ADD12O,3.008X1.708*%
%ADD13R,1.2954X1.2954*%
%ADD14C,1.2954*%
%ADD15C,1.6*%
%ADD16C,1.4035*%
%ADD17C,1.4*%
%ADD18R,2.2X2.2*%
%ADD19C,2.2*%
%ADD20R,1.6X1.6*%
%ADD21R,2.6X2.6*%
%ADD22C,2.6*%
%ADD23C,1.53*%
%ADD24R,2.1X2.1*%
%ADD25C,2.1*%
%ADD26R,1.6X1.6*%
%ADD27R,2.0X1.905*%
%ADD28O,2.0X1.905*%
%ADD29R,0.85X0.85*%
%ADD30C,0.85*%
%ADD31R,0.85X0.85*%
%ADD32C,0.61*%
%ADD33C,0.254*%
G75*


G04 PolygonModel Start*
G36*
G01X13081000Y-13373100D02*
G01X16992600Y-9918700D01*
G01X15436137Y-6299200D01*
G01X21209000Y-3721100D01*
G01X21107400Y-13563600D01*
G01X2476500Y-13563600D01*
G01X609600Y-11696700D01*
G01X2032000Y-11696700D01*
G01X2362200Y-12026900D01*
G01X4305300Y-12026900D01*
G01X4724400Y-12446000D01*
G01X6464300Y-12446000D01*
G01X6502400Y-12407900D01*
G01X7073900Y-12407900D01*
G01X7416800Y-12750800D01*
G01X11049000Y-12750800D01*
G01X12687300Y-11112500D01*
G01X13081000Y-11506200D01*
G01X13081000Y-13373100D01*
G37*

G04 Pad Start*
G54D10*
G01X21020800Y-266700D03*
G01X20370800Y-266700D03*
G01X21020800Y-716700D03*
G01X20370800Y-716700D03*
G54D11*
G01X10301200Y-1216300D03*
G01X10171200Y-676300D03*
G01X10301200Y-1786300D03*
G01X10301200Y-676300D03*
G01X10171200Y-1216300D03*
G01X10171200Y-1786300D03*
G54D12*
G01X10236200Y-676300D03*
G01X10236200Y-1216300D03*
G01X10236200Y-1786300D03*
G54D13*
G01X7327900Y-9588500D03*
G54D14*
G01X7327900Y-9842500D03*
G01X7327900Y-10096500D03*
G01X7327900Y-10350500D03*
G01X7327900Y-10604500D03*
G01X7327900Y-10858500D03*
G01X7327900Y-11112500D03*
G01X7327900Y-11366500D03*
G01X8089900Y-11366500D03*
G01X8089900Y-11112500D03*
G01X8089900Y-10858500D03*
G01X8089900Y-10604500D03*
G01X8089900Y-10350500D03*
G01X8089900Y-10096500D03*
G01X8089900Y-9842500D03*
G01X8089900Y-9588500D03*
G54D10*
G01X17919700Y-1117600D03*
G01X17919700Y-1867600D03*
G54D15*
G01X12928600Y-2794000D03*
G01X12428600Y-2794000D03*
G01X16700500Y-5308600D03*
G01X16700500Y-4808600D03*
G54D17*
G01X6007100Y-3238500D03*
G01X6007100Y-2984500D03*
G54D18*
G01X18249900Y-3225800D03*
G54D19*
G01X18249900Y-2209800D03*
G54D20*
G01X6019800Y-1892300D03*
G54D15*
G01X5257800Y-1892300D03*
G54D21*
G01X16052800Y-1485900D03*
G54D22*
G01X16052800Y-885900D03*
G01X15582800Y-1185900D03*
G54D23*
G01X10363200Y-12357100D03*
G01X10363200Y-12103100D03*
G01X10363200Y-11849100D03*
G01X10363200Y-11595100D03*
G01X9855200Y-9309100D03*
G01X8839200Y-12103100D03*
G01X10363200Y-11341100D03*
G01X10363200Y-11087100D03*
G01X10363200Y-10833100D03*
G01X10363200Y-10579100D03*
G01X10363200Y-10325100D03*
G01X10363200Y-10071100D03*
G01X10363200Y-9817100D03*
G01X10363200Y-9563100D03*
G01X10363200Y-9309100D03*
G01X8839200Y-9309100D03*
G01X8839200Y-9563100D03*
G01X8839200Y-9817100D03*
G01X8839200Y-10071100D03*
G01X8839200Y-10325100D03*
G01X8839200Y-10579100D03*
G01X8839200Y-10833100D03*
G01X8839200Y-11087100D03*
G01X8839200Y-11341100D03*
G01X8839200Y-11595100D03*
G01X8839200Y-11849100D03*
G01X10363200Y-12611100D03*
G01X9601200Y-9309100D03*
G01X8839200Y-12357100D03*
G01X9093200Y-9309100D03*
G01X9347200Y-9309100D03*
G01X10109200Y-9309100D03*
G01X8839200Y-12611100D03*
G54D13*
G01X10972800Y-7899400D03*
G54D14*
G01X10972800Y-8153400D03*
G01X10972800Y-8407400D03*
G01X10972800Y-8661400D03*
G01X10972800Y-8915400D03*
G01X10972800Y-9169400D03*
G01X10972800Y-9423400D03*
G01X10972800Y-9677400D03*
G01X11734800Y-9677400D03*
G01X11734800Y-9423400D03*
G01X11734800Y-9169400D03*
G01X11734800Y-8915400D03*
G01X11734800Y-8661400D03*
G01X11734800Y-8407400D03*
G01X11734800Y-8153400D03*
G01X11734800Y-7899400D03*
G54D24*
G01X3314000Y-1325900D03*
G54D25*
G01X4064000Y-1325900D03*
G01X4814000Y-1325900D03*
G01X3564000Y-1575900D03*
G01X4564000Y-1575900D03*
G01X4564000Y-375900D03*
G01X3564000Y-375900D03*
G54D13*
G01X4826000Y-6299200D03*
G54D14*
G01X4826000Y-6553200D03*
G01X4826000Y-6807200D03*
G01X4826000Y-7061200D03*
G01X4826000Y-7315200D03*
G01X4826000Y-7569200D03*
G01X4826000Y-7823200D03*
G01X4826000Y-8077200D03*
G01X5588000Y-8077200D03*
G01X5588000Y-7823200D03*
G01X5588000Y-7569200D03*
G01X5588000Y-7315200D03*
G01X5588000Y-7061200D03*
G01X5588000Y-6807200D03*
G01X5588000Y-6553200D03*
G01X5588000Y-6299200D03*
G54D13*
G01X7366000Y-6743700D03*
G54D14*
G01X7366000Y-6997700D03*
G01X7366000Y-7251700D03*
G01X7366000Y-7505700D03*
G01X7366000Y-7759700D03*
G01X7366000Y-8013700D03*
G01X7366000Y-8267700D03*
G01X7366000Y-8521700D03*
G01X8128000Y-8521700D03*
G01X8128000Y-8267700D03*
G01X8128000Y-8013700D03*
G01X8128000Y-7759700D03*
G01X8128000Y-7505700D03*
G01X8128000Y-7251700D03*
G01X8128000Y-6997700D03*
G01X8128000Y-6743700D03*
G54D11*
G01X12663400Y-1190900D03*
G01X12533400Y-650900D03*
G01X12663400Y-1760900D03*
G01X12663400Y-650900D03*
G01X12533400Y-1190900D03*
G01X12533400Y-1760900D03*
G54D12*
G01X12598400Y-650900D03*
G01X12598400Y-1190900D03*
G01X12598400Y-1760900D03*
G54D13*
G01X2806700Y-7708900D03*
G54D14*
G01X2806700Y-7962900D03*
G01X2806700Y-8216900D03*
G01X2806700Y-8470900D03*
G01X2806700Y-8724900D03*
G01X2806700Y-8978900D03*
G01X2806700Y-9232900D03*
G01X2806700Y-9486900D03*
G01X3568700Y-9486900D03*
G01X3568700Y-9232900D03*
G01X3568700Y-8978900D03*
G01X3568700Y-8724900D03*
G01X3568700Y-8470900D03*
G01X3568700Y-8216900D03*
G01X3568700Y-7962900D03*
G01X3568700Y-7708900D03*
G54D11*
G01X13831800Y-1190900D03*
G01X13701800Y-650900D03*
G01X13831800Y-1760900D03*
G01X13831800Y-650900D03*
G01X13701800Y-1190900D03*
G01X13701800Y-1760900D03*
G54D12*
G01X13766800Y-650900D03*
G01X13766800Y-1190900D03*
G01X13766800Y-1760900D03*
G54D17*
G01X17348200Y-1625600D03*
G01X17348200Y-1879600D03*
G54D13*
G01X13957300Y-6438900D03*
G54D14*
G01X13957300Y-6692900D03*
G01X13957300Y-6946900D03*
G01X13957300Y-7200900D03*
G01X13957300Y-7454900D03*
G01X13957300Y-7708900D03*
G01X13957300Y-7962900D03*
G01X13957300Y-8216900D03*
G01X14719300Y-8216900D03*
G01X14719300Y-7962900D03*
G01X14719300Y-7708900D03*
G01X14719300Y-7454900D03*
G01X14719300Y-7200900D03*
G01X14719300Y-6946900D03*
G01X14719300Y-6692900D03*
G01X14719300Y-6438900D03*
G54D26*
G01X8051800Y-3200400D03*
G54D15*
G01X8051800Y-2946400D03*
G01X8051800Y-2692400D03*
G01X8051800Y-2438400D03*
G01X7289800Y-2438400D03*
G01X7289800Y-2692400D03*
G01X7289800Y-2946400D03*
G01X7289800Y-3200400D03*
G54D13*
G01X12293600Y-5994400D03*
G54D14*
G01X12293600Y-6248400D03*
G01X12293600Y-6502400D03*
G01X12293600Y-6756400D03*
G01X12293600Y-7010400D03*
G01X12293600Y-7264400D03*
G01X12293600Y-7518400D03*
G01X12293600Y-7772400D03*
G01X13055600Y-7772400D03*
G01X13055600Y-7518400D03*
G01X13055600Y-7264400D03*
G01X13055600Y-7010400D03*
G01X13055600Y-6756400D03*
G01X13055600Y-6502400D03*
G01X13055600Y-6248400D03*
G01X13055600Y-5994400D03*
G54D13*
G01X635000Y-7708900D03*
G54D14*
G01X635000Y-7962900D03*
G01X635000Y-8216900D03*
G01X635000Y-8470900D03*
G01X635000Y-8724900D03*
G01X635000Y-8978900D03*
G01X635000Y-9232900D03*
G01X635000Y-9486900D03*
G01X1397000Y-9486900D03*
G01X1397000Y-9232900D03*
G01X1397000Y-8978900D03*
G01X1397000Y-8724900D03*
G01X1397000Y-8470900D03*
G01X1397000Y-8216900D03*
G01X1397000Y-7962900D03*
G01X1397000Y-7708900D03*
G54D11*
G01X11520400Y-1216300D03*
G01X11390400Y-676300D03*
G01X11520400Y-1786300D03*
G01X11520400Y-676300D03*
G01X11390400Y-1216300D03*
G01X11390400Y-1786300D03*
G54D12*
G01X11455400Y-676300D03*
G01X11455400Y-1216300D03*
G01X11455400Y-1786300D03*
G54D13*
G01X8826500Y-5029200D03*
G54D14*
G01X8826500Y-5283200D03*
G01X8826500Y-5537200D03*
G01X8826500Y-5791200D03*
G01X8826500Y-6045200D03*
G01X8826500Y-6299200D03*
G01X8826500Y-6553200D03*
G01X8826500Y-6807200D03*
G01X9588500Y-6807200D03*
G01X9588500Y-6553200D03*
G01X9588500Y-6299200D03*
G01X9588500Y-6045200D03*
G01X9588500Y-5791200D03*
G01X9588500Y-5537200D03*
G01X9588500Y-5283200D03*
G01X9588500Y-5029200D03*
G54D24*
G01X697800Y-1338600D03*
G54D25*
G01X1447800Y-1338600D03*
G01X2197800Y-1338600D03*
G01X947800Y-1588600D03*
G01X1947800Y-1588600D03*
G01X1947800Y-388600D03*
G01X947800Y-388600D03*
G54D17*
G01X850900Y-3289300D03*
G01X850900Y-3543300D03*
G54D11*
G01X9069300Y-1203600D03*
G01X8939300Y-663600D03*
G01X9069300Y-1773600D03*
G01X9069300Y-663600D03*
G01X8939300Y-1203600D03*
G01X8939300Y-1773600D03*
G54D12*
G01X9004300Y-663600D03*
G01X9004300Y-1203600D03*
G01X9004300Y-1773600D03*
G54D27*
G01X12484100Y-3556000D03*
G54D28*
G01X12484100Y-3810000D03*
G01X12484100Y-4064000D03*
G54D11*
G01X7875500Y-1203600D03*
G01X7745500Y-663600D03*
G01X7875500Y-1773600D03*
G01X7875500Y-663600D03*
G01X7745500Y-1203600D03*
G01X7745500Y-1773600D03*
G54D12*
G01X7810500Y-663600D03*
G01X7810500Y-1203600D03*
G01X7810500Y-1773600D03*
G54D17*
G01X15722600Y-2006600D03*
G01X15976600Y-2006600D03*
G54D29*
G01X279400Y-5067300D03*
G54D30*
G01X379400Y-5067300D03*
G01X279400Y-5167300D03*
G01X379400Y-5167300D03*
G01X279400Y-5267300D03*
G01X379400Y-5267300D03*
G01X279400Y-5367300D03*
G01X379400Y-5367300D03*
G54D29*
G01X2717800Y-5092700D03*
G54D30*
G01X2817800Y-5092700D03*
G01X2717800Y-5192700D03*
G01X2817800Y-5192700D03*
G01X2717800Y-5292700D03*
G01X2817800Y-5292700D03*
G01X2717800Y-5392700D03*
G01X2817800Y-5392700D03*
G54D29*
G01X7569200Y-5067300D03*
G54D30*
G01X7669200Y-5067300D03*
G01X7569200Y-5167300D03*
G01X7669200Y-5167300D03*
G01X7569200Y-5267300D03*
G01X7669200Y-5267300D03*
G01X7569200Y-5367300D03*
G01X7669200Y-5367300D03*
G54D29*
G01X10299700Y-5080000D03*
G54D30*
G01X10399700Y-5080000D03*
G01X10299700Y-5180000D03*
G01X10399700Y-5180000D03*
G01X10299700Y-5280000D03*
G01X10399700Y-5280000D03*
G01X10299700Y-5380000D03*
G01X10399700Y-5380000D03*
G54D29*
G01X12763500Y-5029200D03*
G54D30*
G01X12863500Y-5029200D03*
G01X12763500Y-5129200D03*
G01X12863500Y-5129200D03*
G01X12763500Y-5229200D03*
G01X12863500Y-5229200D03*
G01X12763500Y-5329200D03*
G01X12863500Y-5329200D03*
G54D29*
G01X15163800Y-5054600D03*
G54D30*
G01X15263800Y-5054600D03*
G01X15163800Y-5154600D03*
G01X15263800Y-5154600D03*
G01X15163800Y-5254600D03*
G01X15263800Y-5254600D03*
G01X15163800Y-5354600D03*
G01X15263800Y-5354600D03*
G54D31*
G01X17145000Y-762000D03*
G54D30*
G01X17045000Y-762000D03*
G01X16945000Y-762000D03*
G54D31*
G01X14706600Y-8686800D03*
G54D30*
G01X14606600Y-8686800D03*
G01X14506600Y-8686800D03*
G04 Pad End*

G04 Via Start*
G54D32*
G01X9906000Y-10020300D03*
G01X10337800Y-8953500D03*
G01X11201400Y-8623300D03*
G01X11760200Y-8547100D03*
G01X7937500Y-6934200D03*
G01X8509000Y-6108700D03*
G01X7531100Y-6934200D03*
G01X5499100Y-6477000D03*
G01X12103100Y-5994400D03*
G01X16637000Y-1625600D03*
G01X9601200Y-7327900D03*
G01X9880600Y-6946900D03*
G01X9448800Y-7983900D03*
G01X9448800Y-9888900D03*
G01X8991600Y-8623300D03*
G01X8280400Y-10528300D03*
G01X8178800Y-10274300D03*
G01X7835900Y-7124700D03*
G01X9321800Y-9029700D03*
G01X635000Y-5422900D03*
G01X279400Y-5575300D03*
G01X2882900Y-5626100D03*
G01X2717800Y-5588000D03*
G01X7126300Y-5167300D03*
G01X7493000Y-5562600D03*
G01X14566900Y-7653400D03*
G01X12534900Y-7772400D03*
G01X9385300Y-10629900D03*
G01X9410700Y-9994900D03*
G01X8928100Y-9969500D03*
G01X10185400Y-9486900D03*
G01X7899400Y-10375900D03*
G01X7886700Y-10274300D03*
G01X5702300Y-8750300D03*
G01X5626100Y-8191500D03*
G01X7200900Y-6311900D03*
G01X7734300Y-6311900D03*
G01X12484100Y-7264400D03*
G01X13385800Y-7493000D03*
G01X5727700Y-7962900D03*
G01X8763000Y-6692900D03*
G01X12484100Y-7518400D03*
G01X13258800Y-7620000D03*
G01X7886700Y-9639300D03*
G01X8826500Y-8699500D03*
G01X10299700Y-7480300D03*
G01X12433300Y-7658100D03*
G01X13144500Y-7734300D03*
G01X8191500Y-7581900D03*
G01X8445500Y-7569200D03*
G01X9194800Y-7645400D03*
G01X9067800Y-7391400D03*
G01X7912100Y-7137400D03*
G01X9804400Y-9423400D03*
G01X8458200Y-7073900D03*
G01X12192000Y-7696200D03*
G01X8623300Y-7454900D03*
G01X15777000Y-1803400D03*
G04 Via End*

G04 Track Start*
G54D33*
G01X9906000Y-10020300D02*
G01X9906000Y-9664700D01*
G01X10236200Y-9334500D01*
G01X10236200Y-9055100D01*
G01X10337800Y-8953500D01*
G01X11201400Y-8623300D02*
G01X11277600Y-8547100D01*
G01X11760200Y-8547100D01*
G01X7327900Y-9588500D02*
G01X7759700Y-9156700D01*
G01X7759700Y-7112000D01*
G01X7937500Y-6934200D01*
G01X8509000Y-6108700D02*
G01X8509000Y-5448300D01*
G01X8813800Y-5143500D01*
G01X8890000Y-5143500D01*
G01X8991600Y-5041900D01*
G01X9575800Y-5041900D01*
G01X9588500Y-5029200D01*
G01X7759700Y-7112000D02*
G01X7708900Y-7112000D01*
G01X7531100Y-6934200D01*
G01X5499100Y-6477000D02*
G01X5499100Y-6388100D01*
G01X5588000Y-6299200D01*
G01X5499100Y-6477000D02*
G01X5016500Y-6959600D01*
G01X4457700Y-6959600D01*
G01X3708400Y-7708900D01*
G01X3683000Y-7708900D02*
G01X3683000Y-8750300D01*
G01X3606800Y-8826500D01*
G01X2514600Y-8826500D01*
G01X1397000Y-7708900D01*
G01X8991600Y-5041900D02*
G01X8991600Y-4902200D01*
G01X7289800Y-3200400D01*
G01X9588500Y-5029200D02*
G01X9664700Y-4953000D01*
G01X11061700Y-4953000D01*
G01X12103100Y-5994400D01*
G01X16637000Y-1625600D02*
G01X17348200Y-1625600D01*
G01X17411700Y-1625600D01*
G01X17919700Y-1117600D01*
G01X9601200Y-7327900D02*
G01X9601200Y-7226300D01*
G01X9880600Y-6946900D01*
G01X9448800Y-7983900D02*
G01X9982200Y-8517300D01*
G01X9982200Y-9355500D01*
G01X9448800Y-9888900D01*
G01X8839200Y-10325100D02*
G01X8991600Y-10172700D01*
G01X8991600Y-9334500D01*
G01X8966200Y-9309100D01*
G01X8966200Y-8648700D01*
G01X8991600Y-8623300D01*
G01X8839200Y-11087100D02*
G01X8280400Y-10528300D01*
G01X8178800Y-10274300D02*
G01X8102600Y-10198100D01*
G01X8051800Y-10198100D01*
G01X7823200Y-9969500D01*
G01X7823200Y-9512300D01*
G01X8229600Y-9105900D01*
G01X8229600Y-7962900D01*
G01X8128000Y-7861300D01*
G01X8077200Y-7861300D01*
G01X7835900Y-7620000D01*
G01X7835900Y-7124700D01*
G01X8839200Y-11341100D02*
G01X9448800Y-10731500D01*
G01X9448800Y-10147300D01*
G01X9220200Y-9918700D01*
G01X9220200Y-9131300D01*
G01X9321800Y-9029700D01*
G01X635000Y-5422900D02*
G01X635000Y-5219700D01*
G01X406400Y-4991100D01*
G01X355600Y-4991100D01*
G01X279400Y-5067300D01*
G01X635000Y-7708900D02*
G01X203200Y-7277100D01*
G01X203200Y-5343500D01*
G01X279400Y-5267300D01*
G01X635000Y-8724900D02*
G01X736600Y-8623300D01*
G01X736600Y-5624500D01*
G01X379400Y-5267300D01*
G01X279400Y-5575300D02*
G01X279400Y-5367300D01*
G01X3568700Y-8470900D02*
G01X2908300Y-7810500D01*
G01X2908300Y-5651500D01*
G01X2882900Y-5626100D01*
G01X3568700Y-8216900D02*
G01X2959100Y-7607300D01*
G01X2959100Y-5234000D01*
G01X2817800Y-5092700D01*
G01X3568700Y-7962900D02*
G01X3009900Y-7404100D01*
G01X3009900Y-5180000D01*
G01X2844800Y-5014900D01*
G01X2667000Y-5014900D01*
G01X2641600Y-5040300D01*
G01X2641600Y-5141900D01*
G01X2692400Y-5192700D01*
G01X2717800Y-5192700D01*
G01X3568700Y-8724900D02*
G01X2908300Y-8064500D01*
G01X2908300Y-7912100D01*
G01X2806700Y-7810500D01*
G01X2730500Y-7810500D01*
G01X2705100Y-7785100D01*
G01X2705100Y-5690758D01*
G01X2894000Y-5501858D01*
G01X2894000Y-5268900D01*
G01X2817800Y-5192700D01*
G01X2806700Y-7962900D02*
G01X2654300Y-7810500D01*
G01X2654300Y-5651500D01*
G01X2717800Y-5588000D01*
G01X2806700Y-8470900D02*
G01X2603500Y-8267700D01*
G01X2603500Y-5607000D01*
G01X2817800Y-5392700D01*
G01X5588000Y-7061200D02*
G01X5588000Y-7048500D01*
G01X7569200Y-5067300D01*
G01X5588000Y-6807200D02*
G01X7404100Y-4991100D01*
G01X7618400Y-4991100D01*
G01X7669200Y-5041900D01*
G01X7669200Y-5067300D01*
G01X5588000Y-6553200D02*
G01X5740400Y-6553200D01*
G01X7126300Y-5167300D01*
G01X5588000Y-7315200D02*
G01X7416800Y-5486400D01*
G01X7670800Y-5486400D01*
G01X7745400Y-5411800D01*
G01X7745400Y-5243500D01*
G01X7669200Y-5167300D01*
G01X4826000Y-7315200D02*
G01X4927600Y-7416800D01*
G01X5638800Y-7416800D01*
G01X7493000Y-5562600D01*
G01X4826000Y-7061200D02*
G01X4927600Y-7162800D01*
G01X5638800Y-7162800D01*
G01X7358100Y-5443500D01*
G01X7593000Y-5443500D01*
G01X7669200Y-5367300D01*
G01X9588500Y-5791200D02*
G01X10299700Y-5080000D01*
G01X9588500Y-5537200D02*
G01X10121900Y-5003800D01*
G01X10350500Y-5003800D01*
G01X10399700Y-5053000D01*
G01X10399700Y-5080000D01*
G01X9588500Y-6045200D02*
G01X9842500Y-6045200D01*
G01X10475900Y-5411800D01*
G01X10475900Y-5256200D01*
G01X10399700Y-5180000D01*
G01X8826500Y-5283200D02*
G01X9436100Y-5892800D01*
G01X9786900Y-5892800D01*
G01X10299700Y-5380000D01*
G01X8826500Y-5791200D02*
G01X8978900Y-5943600D01*
G01X9836100Y-5943600D01*
G01X10399700Y-5380000D01*
G01X13055600Y-6756400D02*
G01X13157200Y-6654800D01*
G01X13157200Y-5219700D01*
G01X12890500Y-4953000D01*
G01X12839700Y-4953000D01*
G01X12763500Y-5029200D01*
G01X13055600Y-6502400D02*
G01X12954000Y-6400800D01*
G01X12954000Y-5119700D01*
G01X12863500Y-5029200D01*
G01X12293600Y-5994400D02*
G01X12293600Y-5699100D01*
G01X12763500Y-5229200D01*
G01X12293600Y-6248400D02*
G01X12763500Y-5778500D01*
G01X12763500Y-5329200D01*
G01X12293600Y-6756400D02*
G01X12863500Y-6186500D01*
G01X12863500Y-5329200D01*
G01X14719300Y-7200900D02*
G01X15074900Y-6845300D01*
G01X15074900Y-5143500D01*
G01X15163800Y-5054600D01*
G01X14719300Y-6946900D02*
G01X15024100Y-6642100D01*
G01X15024100Y-5067300D01*
G01X15113000Y-4978400D01*
G01X15214600Y-4978400D01*
G01X15263800Y-5027600D01*
G01X15263800Y-5054600D01*
G01X14719300Y-7454900D02*
G01X14770100Y-7454900D01*
G01X15405100Y-6819900D01*
G01X15405100Y-5295900D01*
G01X15263800Y-5154600D01*
G01X13957300Y-7454900D02*
G01X14058900Y-7353300D01*
G01X14795500Y-7353300D01*
G01X15354300Y-6794500D01*
G01X15354300Y-5345100D01*
G01X15263800Y-5254600D01*
G01X13957300Y-7200900D02*
G01X14058900Y-7302500D01*
G01X14770100Y-7302500D01*
G01X15263800Y-6808800D01*
G01X15263800Y-5354600D01*
G01X14511400Y-7708900D02*
G01X13957300Y-7708900D01*
G01X14541500Y-7678800D02*
G01X14719300Y-7856600D01*
G01X14744700Y-7856600D01*
G01X14820900Y-7932800D01*
G01X14820900Y-8263000D01*
G01X14770100Y-8313800D01*
G01X14054200Y-8313800D02*
G01X13957300Y-8216900D01*
G01X14668500Y-8313800D02*
G01X14606600Y-8375700D01*
G01X14606600Y-8686800D01*
G01X13957300Y-7708900D02*
G01X13449300Y-7708900D01*
G01X13296900Y-7556500D01*
G01X13220700Y-7556500D01*
G01X13119100Y-7658100D01*
G01X12649200Y-7658100D01*
G01X12534900Y-7772400D01*
G01X7327900Y-10096500D02*
G01X7683500Y-10452100D01*
G01X9207500Y-10452100D01*
G01X9385300Y-10629900D01*
G01X9410700Y-9994900D02*
G01X9740900Y-10325100D01*
G01X10363200Y-10325100D01*
G01X7327900Y-11112500D02*
G01X7683500Y-11468100D01*
G01X8877300Y-11468100D01*
G01X9893300Y-10452100D01*
G01X10388600Y-10452100D01*
G01X10490200Y-10350500D01*
G01X10490200Y-10198100D01*
G01X10363200Y-10071100D01*
G01X8089900Y-10096500D02*
G01X8242300Y-9944100D01*
G01X8902700Y-9944100D01*
G01X8928100Y-9969500D01*
G01X10185400Y-9486900D02*
G01X10363200Y-9309100D01*
G01X7899400Y-10375900D02*
G01X7467600Y-9944100D01*
G01X7289800Y-9944100D01*
G01X7213600Y-9867900D01*
G01X7213600Y-8013700D01*
G01X7264400Y-7962900D01*
G01X7264400Y-5956300D01*
G01X7797800Y-5422900D01*
G01X7797800Y-3873500D01*
G01X7162800Y-3238500D01*
G01X7162800Y-2819400D01*
G01X7289800Y-2692400D01*
G01X7924800Y-2057400D01*
G01X11430000Y-2057400D01*
G01X11607800Y-1879600D01*
G01X17348200Y-1879600D01*
G01X10363200Y-12103100D02*
G01X9982200Y-11722100D01*
G01X3848100Y-11722100D01*
G01X1460500Y-9334500D01*
G01X1358900Y-9334500D01*
G01X850900Y-8826500D01*
G01X850900Y-3543300D01*
G01X7327900Y-9842500D02*
G01X8013700Y-9156700D01*
G01X8013700Y-8128000D01*
G01X8128000Y-8013700D01*
G01X7886700Y-10274300D02*
G01X7759700Y-10147300D01*
G01X7759700Y-9512300D01*
G01X8128000Y-9144000D01*
G01X8128000Y-8521700D01*
G01X8089900Y-11112500D02*
G01X7429500Y-10452100D01*
G01X7277100Y-10452100D01*
G01X5702300Y-8877300D01*
G01X5702300Y-8750300D01*
G01X5626100Y-8191500D02*
G01X5684520Y-8133080D01*
G01X5684520Y-8021320D01*
G01X5651500Y-7988300D01*
G01X5651500Y-7937500D01*
G01X5702300Y-7886700D01*
G01X5702300Y-7683500D02*
G01X5588000Y-7569200D01*
G01X5626100Y-8191500D02*
G01X4356100Y-8191500D01*
G01X3568700Y-8978900D01*
G01X3467100Y-9080500D01*
G01X1498600Y-9080500D01*
G01X1397000Y-8978900D01*
G01X5702300Y-7810500D02*
G01X7200900Y-6311900D01*
G01X7734300Y-6311900D02*
G01X7835900Y-6413500D01*
G01X9474200Y-6413500D01*
G01X9588500Y-6299200D01*
G01X10655300Y-7366000D01*
G01X12382500Y-7366000D01*
G01X12484100Y-7264400D01*
G01X13385800Y-7493000D02*
G01X13487400Y-7594600D01*
G01X14605000Y-7594600D01*
G01X14719300Y-7708900D01*
G01X8089900Y-10604500D02*
G01X7759700Y-10604500D01*
G01X7353300Y-10198100D01*
G01X7251700Y-10198100D01*
G01X5676900Y-8623300D01*
G01X5727700Y-8572500D01*
G01X5727700Y-7962900D01*
G01X5676900Y-8623300D02*
G01X4178300Y-8623300D01*
G01X3568700Y-9232900D01*
G01X3467100Y-9131300D01*
G01X1498600Y-9131300D01*
G01X1397000Y-9232900D01*
G01X8763000Y-6692900D02*
G01X9448800Y-6692900D01*
G01X9588500Y-6553200D01*
G01X10452100Y-7416800D01*
G01X12382500Y-7416800D01*
G01X12484100Y-7518400D01*
G01X13258800Y-7620000D02*
G01X13487400Y-7848600D01*
G01X14605000Y-7848600D01*
G01X14719300Y-7962900D01*
G01X8089900Y-9842500D02*
G01X7886700Y-9639300D01*
G01X8826500Y-8699500D01*
G01X10299700Y-7480300D02*
G01X12077700Y-7480300D01*
G01X12255500Y-7658100D01*
G01X12433300Y-7658100D01*
G01X13144500Y-7734300D02*
G01X13525500Y-8115300D01*
G01X14617700Y-8115300D01*
G01X14719300Y-8216900D01*
G01X10972800Y-8407400D02*
G01X10083800Y-7518400D01*
G01X8559800Y-7518400D01*
G01X8547100Y-7505700D01*
G01X8191500Y-7505700D02*
G01X8191500Y-7581900D01*
G01X10972800Y-8915400D02*
G01X9626600Y-7569200D01*
G01X8445500Y-7569200D01*
G01X10972800Y-9423400D02*
G01X9194800Y-7645400D01*
G01X9067800Y-7391400D02*
G01X8686800Y-7010400D01*
G01X8140700Y-7010400D01*
G01X8128000Y-6997700D01*
G01X8140700Y-7010400D02*
G01X8039100Y-7010400D01*
G01X7912100Y-7137400D01*
G01X9804400Y-9423400D02*
G01X9728200Y-9347200D01*
G01X9728200Y-9271000D01*
G01X8216900Y-7759700D01*
G01X8128000Y-7759700D01*
G01X8026400Y-7658100D01*
G01X8026400Y-7454900D01*
G01X8128000Y-7353300D01*
G01X8178800Y-7353300D01*
G01X8458200Y-7073900D01*
G01X11734800Y-9169400D02*
G01X12192000Y-8712200D01*
G01X12192000Y-7696200D01*
G01X10414000Y-7696200D01*
G01X10109200Y-7391400D01*
G01X9271000Y-7391400D01*
G01X8737600Y-6858000D01*
G01X7480300Y-6858000D01*
G01X7366000Y-6743700D01*
G01X11734800Y-8407400D02*
G01X11099800Y-7772400D01*
G01X10414000Y-7772400D01*
G01X10096500Y-7454900D01*
G01X8623300Y-7454900D01*
G01X8839200Y-11595100D02*
G01X9728200Y-10706100D01*
G01X10388600Y-10706100D01*
G01X11074400Y-10020300D01*
G01X11074400Y-9271000D01*
G01X10972800Y-9169400D01*
G01X10972800Y-9067800D01*
G01X11074400Y-8966200D01*
G01X11074400Y-8763000D02*
G01X10972800Y-8661400D01*
G01X11099800Y-8534400D01*
G01X11099800Y-8280400D01*
G01X10972800Y-8153400D01*
G01X11684000Y-8915400D02*
G01X11633200Y-8966200D01*
G01X11633200Y-9321800D01*
G01X11734800Y-9423400D01*
G01X11734800Y-8915400D02*
G01X11836400Y-8813800D01*
G01X11836400Y-8255000D01*
G01X11734800Y-8153400D01*
G01X12928600Y-2794000D02*
G01X14185900Y-2794000D01*
G01X16700500Y-5308600D01*
G01X18249900Y-3759200D01*
G01X18249900Y-3225800D01*
G01X1947800Y-1588600D02*
G01X2365800Y-2006600D01*
G01X11001800Y-2006600D01*
G01X11382800Y-1625600D01*
G01X15599200Y-1625600D01*
G01X15777000Y-1803400D01*
G01X8839200Y-12611100D02*
G01X9220200Y-12230100D01*
G01X10388600Y-12230100D01*
G01X12471400Y-10147300D01*
G01X12471400Y-7734300D01*
G01X12547600Y-7658100D01*
G01X12547600Y-7124700D01*
G01X12293600Y-6870700D01*
G01X12268200Y-6870700D01*
G01X12192000Y-6794500D01*
G01X12192000Y-4102100D01*
G01X12484100Y-3810000D01*
G01X3708400Y-7708900D02*
G01X3683000Y-7708900D01*
G01X3568700Y-7708900D01*
G01X14566900Y-7653400D02*
G01X14541500Y-7678800D01*
G01X14511400Y-7708900D01*
G01X14770100Y-8313800D02*
G01X14668500Y-8313800D01*
G01X14054200Y-8313800D01*
G01X5702300Y-7886700D02*
G01X5702300Y-7810500D01*
G01X5702300Y-7683500D01*
G01X8547100Y-7505700D02*
G01X8191500Y-7505700D01*
G01X8128000Y-7505700D01*
G01X11074400Y-8966200D02*
G01X11074400Y-8915400D01*
G01X11074400Y-8763000D01*
G01X11074400Y-8915400D02*
G01X11684000Y-8915400D01*
G01X11734800Y-8915400D01*
G04 Track End*

M02*

