G04 Layer: DrillDrawingLayer*
G04 EasyEDA Pro v2.2.35.2, 2025-01-29 23:55:14*
G04 Gerber Generator version 0.3*
G04 Scale: 100 percent, Rotated: No, Reflected: No*
G04 Dimensions in millimeters*
G04 Leading zeros omitted, absolute positions, 4 integers and 5 decimals*
%FSLAX45Y45*%
%MOMM*%
%AMIconRect*4,1,4,0.2,-0.2,-0.2,-0.2,-0.2,0.2,0.2,0.2,0.2,-0.2,0*4,0,4,0.166667,-0.166667,0.166667,0.166667,-0.166667,0.166667,-0.166667,-0.166667,0.166667,-0.166667,0*%
%AMIconTriangle*4,1,3,-0.242567,0.171767,0.242567,0.171767,0,-0.2706,-0.242567,0.171767,0*4,0,3,-0.189767,0.1386,0,-0.1953,0.190167,0.1386,-0.189767,0.1386,0*%
%AMIconStar6*4,1,12,0.0862,0.1492,0.213233,0.123367,0.172367,0,0.213233,-0.1229,0.0862,-0.148733,0,-0.245767,-0.085767,-0.148733,-0.213267,-0.1229,-0.171933,0,-0.213267,0.1229,-0.085767,0.1492,0,0.245767,0.0862,0.1492,0*4,0,12,-0.000333,0.195333,-0.064333,0.122667,-0.169667,0.097667,-0.138333,-0.005333,-0.169667,-0.098,-0.064333,-0.122667,-0.000333,-0.195667,0.064333,-0.122667,0.169667,-0.098,0.138667,0.005,0.169667,0.098,0.064333,0.122333,-0.000333,0.195333,0*%
%AMIconStar4*4,1,8,-0.222667,0.222667,0,0.144667,0.222667,0.222667,0.144667,0,0.222667,-0.222667,0,-0.144667,-0.217433,-0.222667,-0.144667,0,-0.222667,0.222667,0*4,0,8,0.166667,-0.166667,0.108,0,0.166667,0.166667,0,0.108,-0.166667,0.166667,-0.108,0,-0.166667,-0.166667,0,-0.108,0.166667,-0.166667,0*%
%AMIconPlus*4,1,12,0.124,-0.2,-0.124,-0.2,-0.124,-0.124,-0.2,-0.124,-0.2,0.124,-0.124,0.124,-0.124,0.2,0.124,0.2,0.124,0.124,0.2,0.124,0.2,-0.124,0.124,-0.124,0.124,-0.2,0*4,0,12,0.090667,-0.166667,0.090667,-0.090667,0.166667,-0.090667,0.166667,0.090667,0.090667,0.090667,0.090667,0.166667,-0.090667,0.166667,-0.090667,0.090667,-0.166667,0.090667,-0.166667,-0.090667,-0.090667,-0.090667,-0.090667,-0.166667,0.090667,-0.166667,0*%
%AMIconX*4,1,16,0.2,-0.2,0.054533,-0.2,0,-0.145467,-0.054533,-0.2,-0.2,-0.2,-0.2,-0.054533,-0.145467,0,-0.2,0.054533,-0.2,0.2,-0.054533,0.2,0,0.145467,0.054533,0.2,0.2,0.2,0.2,0.054533,0.145467,0,0.2,-0.054533,0.2,-0.2,0*4,0,16,0.1668,-0.1664,0.1668,-0.068467,0.097933,0.000067,0.1668,0.068467,0.1668,0.1665,0.068467,0.1665,0,0.097933,-0.068467,0.1665,-0.1668,0.1665,-0.1668,0.068467,-0.097933,0.000067,-0.1668,-0.068467,-0.1668,-0.1664,-0.068467,-0.1664,0,-0.097933,0.068467,-0.1664,0.1668,-0.1664,0*%
%AMIconDiamond*4,1,4,0,-0.26,-0.26,0,0,0.26,0.26,0,0,-0.26,0*4,0,4,0,-0.203433,0.203433,0,0,0.2036,-0.203433,0,0,-0.203433,0*%
%AMIconRect2*4,1,6,0.2,-0.2,-0.2,-0.2,-0.2,0.2,-0.1668,0.1665,-0.166667,-0.166667,0.1668,-0.166667,0.2,-0.2,0*4,1,6,0.2,-0.2,0.1668,-0.166667,0.1668,0.1665,-0.1668,0.1665,-0.2,0.2,0.2,0.2,0.2,-0.2,0*4,1,6,0.133467,-0.133333,-0.133333,-0.133333,-0.133333,0.133467,-0.1,0.100133,-0.1,-0.1,0.100133,-0.1,0.133467,-0.133333,0*4,1,6,0.133467,-0.133333,0.100133,-0.1,0.100133,0.100133,-0.1,0.100133,-0.133333,0.133467,0.133467,0.133467,0.133467,-0.133333,0*%
%AMCharA*4,1,8,-0.122067,-0.1864,-0.1532,-0.174533,-0.015133,0.1864,0.016,0.1864,0.1532,-0.174533,0.122067,-0.1864,0.0764,-0.0662,-0.076133,-0.0662,-0.122067,-0.1864,0*4,0,3,-0.063333,-0.032867,0.063667,-0.032867,0.000333,0.1338,-0.063333,-0.032867,0*%
%AMCharB*4,1,17,-0.131133,-0.1894,-0.131133,0.1894,0.033533,0.1894,0.088067,0.172467,0.1114,0.151733,0.131133,0.114133,0.131,0.066467,0.114333,0.0338,0.094733,0.0128,0.086467,0.0084,0.094733,0.003867,0.114333,-0.017133,0.131,-0.0498,0.131133,-0.114133,0.1114,-0.151733,0.088067,-0.1726,0.033533,-0.1894,-0.131133,-0.1894,0*4,0,10,-0.0978,-0.156067,0.030867,-0.156067,0.073867,-0.142,0.085867,-0.130133,0.099533,-0.1028,0.099533,-0.0614,0.085867,-0.034533,0.073867,-0.0226,0.030867,-0.008667,-0.0978,-0.008667,-0.0978,-0.156067,0*4,0,10,-0.0978,0.024667,0.0308,0.024667,0.073867,0.039267,0.085867,0.051267,0.099533,0.078067,0.099533,0.102667,0.085867,0.130133,0.073867,0.142,0.030867,0.156067,-0.0978,0.156067,-0.0978,0.024667,0*%
%ADD10IconRect*%
%ADD11C,0.44X0.373333*%
%ADD12IconTriangle*%
%ADD13IconStar6*%
%ADD14IconStar4*%
%ADD15IconPlus*%
%ADD16IconX*%
%ADD17IconDiamond*%
%ADD18IconRect2*%
%ADD19CharA*%
%ADD20CharB*%
G75*


G04 Drill Drawing Start*
G54D10*
G01X17919700Y-1867600D03*
G01X17919700Y-1117600D03*
G54D11*
G01X15582800Y-1185900D03*
G01X16052800Y-1485900D03*
G01X16052800Y-885900D03*
G54D12*
G01X850900Y-3543300D03*
G01X850900Y-3289300D03*
G01X6007100Y-3238500D03*
G01X6007100Y-2984500D03*
G01X15722600Y-2006600D03*
G01X15976600Y-2006600D03*
G01X17348200Y-1879600D03*
G01X17348200Y-1625600D03*
G54D13*
G01X12484100Y-4064000D03*
G01X12484100Y-3810000D03*
G01X12484100Y-3556000D03*
G01X18249900Y-3225800D03*
G01X18249900Y-2209800D03*
G01X20370800Y-716700D03*
G01X20370800Y-266700D03*
G01X21020800Y-716700D03*
G01X21020800Y-266700D03*
G54D14*
G01X5257800Y-1892300D03*
G01X6019800Y-1892300D03*
G01X7289800Y-3200400D03*
G01X7289800Y-2946400D03*
G01X7289800Y-2692400D03*
G01X7289800Y-2438400D03*
G01X8051800Y-3200400D03*
G01X8051800Y-2946400D03*
G01X8051800Y-2692400D03*
G01X8051800Y-2438400D03*
G01X12428600Y-2794000D03*
G01X12928600Y-2794000D03*
G01X16700500Y-5308600D03*
G01X16700500Y-4808600D03*
G54D15*
G01X697800Y-1338600D03*
G01X947800Y-1588600D03*
G01X947800Y-388600D03*
G01X1447800Y-1338600D03*
G01X1947800Y-1588600D03*
G01X1947800Y-388600D03*
G01X2197800Y-1338600D03*
G01X3314000Y-1325900D03*
G01X3564000Y-1575900D03*
G01X3564000Y-375900D03*
G01X4064000Y-1325900D03*
G01X4564000Y-1575900D03*
G01X4564000Y-375900D03*
G01X4814000Y-1325900D03*
G54D16*
G01X7810500Y-1773600D03*
G01X7810500Y-1203600D03*
G01X7810500Y-663600D03*
G01X9004300Y-1773600D03*
G01X9004300Y-1203600D03*
G01X9004300Y-663600D03*
G01X10236200Y-1786300D03*
G01X10236200Y-1216300D03*
G01X10236200Y-676300D03*
G01X11455400Y-1786300D03*
G01X11455400Y-1216300D03*
G01X11455400Y-676300D03*
G01X12598400Y-1760900D03*
G01X12598400Y-1190900D03*
G01X12598400Y-650900D03*
G01X13766800Y-1760900D03*
G01X13766800Y-1190900D03*
G01X13766800Y-650900D03*
G54D17*
G01X8839200Y-12611100D03*
G01X8839200Y-12357100D03*
G01X8839200Y-12103100D03*
G01X8839200Y-11849100D03*
G01X8839200Y-11595100D03*
G01X8839200Y-11341100D03*
G01X8839200Y-11087100D03*
G01X8839200Y-10833100D03*
G01X8839200Y-10579100D03*
G01X8839200Y-10325100D03*
G01X8839200Y-10071100D03*
G01X8839200Y-9817100D03*
G01X8839200Y-9563100D03*
G01X8839200Y-9309100D03*
G01X9093200Y-9309100D03*
G01X9347200Y-9309100D03*
G01X9601200Y-9309100D03*
G01X9855200Y-9309100D03*
G01X10109200Y-9309100D03*
G01X10363200Y-12611100D03*
G01X10363200Y-12357100D03*
G01X10363200Y-12103100D03*
G01X10363200Y-11849100D03*
G01X10363200Y-11595100D03*
G01X10363200Y-11341100D03*
G01X10363200Y-11087100D03*
G01X10363200Y-10833100D03*
G01X10363200Y-10579100D03*
G01X10363200Y-10325100D03*
G01X10363200Y-10071100D03*
G01X10363200Y-9817100D03*
G01X10363200Y-9563100D03*
G01X10363200Y-9309100D03*
G54D18*
G01X279400Y-5367300D03*
G01X279400Y-5267300D03*
G01X279400Y-5167300D03*
G01X279400Y-5067300D03*
G01X379400Y-5367300D03*
G01X379400Y-5267300D03*
G01X379400Y-5167300D03*
G01X379400Y-5067300D03*
G01X2717800Y-5392700D03*
G01X2717800Y-5292700D03*
G01X2717800Y-5192700D03*
G01X2717800Y-5092700D03*
G01X2817800Y-5392700D03*
G01X2817800Y-5292700D03*
G01X2817800Y-5192700D03*
G01X2817800Y-5092700D03*
G01X7569200Y-5367300D03*
G01X7569200Y-5267300D03*
G01X7569200Y-5167300D03*
G01X7569200Y-5067300D03*
G01X7669200Y-5367300D03*
G01X7669200Y-5267300D03*
G01X7669200Y-5167300D03*
G01X7669200Y-5067300D03*
G01X10299700Y-5380000D03*
G01X10299700Y-5280000D03*
G01X10299700Y-5180000D03*
G01X10299700Y-5080000D03*
G01X10399700Y-5380000D03*
G01X10399700Y-5280000D03*
G01X10399700Y-5180000D03*
G01X10399700Y-5080000D03*
G01X12763500Y-5329200D03*
G01X12763500Y-5229200D03*
G01X12763500Y-5129200D03*
G01X12763500Y-5029200D03*
G01X12863500Y-5329200D03*
G01X12863500Y-5229200D03*
G01X12863500Y-5129200D03*
G01X12863500Y-5029200D03*
G01X14506600Y-8686800D03*
G01X14606600Y-8686800D03*
G01X14706600Y-8686800D03*
G01X15163800Y-5354600D03*
G01X15163800Y-5254600D03*
G01X15163800Y-5154600D03*
G01X15163800Y-5054600D03*
G01X15263800Y-5354600D03*
G01X15263800Y-5254600D03*
G01X15263800Y-5154600D03*
G01X15263800Y-5054600D03*
G01X16945000Y-762000D03*
G01X17045000Y-762000D03*
G01X17145000Y-762000D03*
G54D19*
G01X279400Y-5575300D03*
G01X635000Y-5422900D03*
G01X2717800Y-5588000D03*
G01X2882900Y-5626100D03*
G01X5499100Y-6477000D03*
G01X5626100Y-8191500D03*
G01X5702300Y-8750300D03*
G01X5727700Y-7962900D03*
G01X7126300Y-5167300D03*
G01X7200900Y-6311900D03*
G01X7493000Y-5562600D03*
G01X7531100Y-6934200D03*
G01X7734300Y-6311900D03*
G01X7835900Y-7124700D03*
G01X7886700Y-10274300D03*
G01X7886700Y-9639300D03*
G01X7899400Y-10375900D03*
G01X7912100Y-7137400D03*
G01X7937500Y-6934200D03*
G01X8178800Y-10274300D03*
G01X8191500Y-7581900D03*
G01X8280400Y-10528300D03*
G01X8445500Y-7569200D03*
G01X8458200Y-7073900D03*
G01X8509000Y-6108700D03*
G01X8623300Y-7454900D03*
G01X8763000Y-6692900D03*
G01X8826500Y-8699500D03*
G01X8928100Y-9969500D03*
G01X8991600Y-8623300D03*
G01X9067800Y-7391400D03*
G01X9194800Y-7645400D03*
G01X9321800Y-9029700D03*
G01X9385300Y-10629900D03*
G01X9410700Y-9994900D03*
G01X9448800Y-9888900D03*
G01X9448800Y-7983900D03*
G01X9601200Y-7327900D03*
G01X9804400Y-9423400D03*
G01X9880600Y-6946900D03*
G01X9906000Y-10020300D03*
G01X10185400Y-9486900D03*
G01X10299700Y-7480300D03*
G01X10337800Y-8953500D03*
G01X11201400Y-8623300D03*
G01X11760200Y-8547100D03*
G01X12103100Y-5994400D03*
G01X12192000Y-7696200D03*
G01X12433300Y-7658100D03*
G01X12484100Y-7518400D03*
G01X12484100Y-7264400D03*
G01X12534900Y-7772400D03*
G01X13144500Y-7734300D03*
G01X13258800Y-7620000D03*
G01X13385800Y-7493000D03*
G01X14566900Y-7653400D03*
G01X15777000Y-1803400D03*
G01X16637000Y-1625600D03*
G54D20*
G01X635000Y-9486900D03*
G01X635000Y-9232900D03*
G01X635000Y-8978900D03*
G01X635000Y-8724900D03*
G01X635000Y-8470900D03*
G01X635000Y-8216900D03*
G01X635000Y-7962900D03*
G01X635000Y-7708900D03*
G01X1397000Y-9486900D03*
G01X1397000Y-9232900D03*
G01X1397000Y-8978900D03*
G01X1397000Y-8724900D03*
G01X1397000Y-8470900D03*
G01X1397000Y-8216900D03*
G01X1397000Y-7962900D03*
G01X1397000Y-7708900D03*
G01X2806700Y-9486900D03*
G01X2806700Y-9232900D03*
G01X2806700Y-8978900D03*
G01X2806700Y-8724900D03*
G01X2806700Y-8470900D03*
G01X2806700Y-8216900D03*
G01X2806700Y-7962900D03*
G01X2806700Y-7708900D03*
G01X3568700Y-9486900D03*
G01X3568700Y-9232900D03*
G01X3568700Y-8978900D03*
G01X3568700Y-8724900D03*
G01X3568700Y-8470900D03*
G01X3568700Y-8216900D03*
G01X3568700Y-7962900D03*
G01X3568700Y-7708900D03*
G01X4826000Y-8077200D03*
G01X4826000Y-7823200D03*
G01X4826000Y-7569200D03*
G01X4826000Y-7315200D03*
G01X4826000Y-7061200D03*
G01X4826000Y-6807200D03*
G01X4826000Y-6553200D03*
G01X4826000Y-6299200D03*
G01X5588000Y-8077200D03*
G01X5588000Y-7823200D03*
G01X5588000Y-7569200D03*
G01X5588000Y-7315200D03*
G01X5588000Y-7061200D03*
G01X5588000Y-6807200D03*
G01X5588000Y-6553200D03*
G01X5588000Y-6299200D03*
G01X7327900Y-11366500D03*
G01X7327900Y-11112500D03*
G01X7327900Y-10858500D03*
G01X7327900Y-10604500D03*
G01X7327900Y-10350500D03*
G01X7327900Y-10096500D03*
G01X7327900Y-9842500D03*
G01X7327900Y-9588500D03*
G01X7366000Y-8521700D03*
G01X7366000Y-8267700D03*
G01X7366000Y-8013700D03*
G01X7366000Y-7759700D03*
G01X7366000Y-7505700D03*
G01X7366000Y-7251700D03*
G01X7366000Y-6997700D03*
G01X7366000Y-6743700D03*
G01X8089900Y-11366500D03*
G01X8089900Y-11112500D03*
G01X8089900Y-10858500D03*
G01X8089900Y-10604500D03*
G01X8089900Y-10350500D03*
G01X8089900Y-10096500D03*
G01X8089900Y-9842500D03*
G01X8089900Y-9588500D03*
G01X8128000Y-8521700D03*
G01X8128000Y-8267700D03*
G01X8128000Y-8013700D03*
G01X8128000Y-7759700D03*
G01X8128000Y-7505700D03*
G01X8128000Y-7251700D03*
G01X8128000Y-6997700D03*
G01X8128000Y-6743700D03*
G01X8826500Y-6807200D03*
G01X8826500Y-6553200D03*
G01X8826500Y-6299200D03*
G01X8826500Y-6045200D03*
G01X8826500Y-5791200D03*
G01X8826500Y-5537200D03*
G01X8826500Y-5283200D03*
G01X8826500Y-5029200D03*
G01X9588500Y-6807200D03*
G01X9588500Y-6553200D03*
G01X9588500Y-6299200D03*
G01X9588500Y-6045200D03*
G01X9588500Y-5791200D03*
G01X9588500Y-5537200D03*
G01X9588500Y-5283200D03*
G01X9588500Y-5029200D03*
G01X10972800Y-9677400D03*
G01X10972800Y-9423400D03*
G01X10972800Y-9169400D03*
G01X10972800Y-8915400D03*
G01X10972800Y-8661400D03*
G01X10972800Y-8407400D03*
G01X10972800Y-8153400D03*
G01X10972800Y-7899400D03*
G01X11734800Y-9677400D03*
G01X11734800Y-9423400D03*
G01X11734800Y-9169400D03*
G01X11734800Y-8915400D03*
G01X11734800Y-8661400D03*
G01X11734800Y-8407400D03*
G01X11734800Y-8153400D03*
G01X11734800Y-7899400D03*
G01X12293600Y-7772400D03*
G01X12293600Y-7518400D03*
G01X12293600Y-7264400D03*
G01X12293600Y-7010400D03*
G01X12293600Y-6756400D03*
G01X12293600Y-6502400D03*
G01X12293600Y-6248400D03*
G01X12293600Y-5994400D03*
G01X13055600Y-7772400D03*
G01X13055600Y-7518400D03*
G01X13055600Y-7264400D03*
G01X13055600Y-7010400D03*
G01X13055600Y-6756400D03*
G01X13055600Y-6502400D03*
G01X13055600Y-6248400D03*
G01X13055600Y-5994400D03*
G01X13957300Y-8216900D03*
G01X13957300Y-7962900D03*
G01X13957300Y-7708900D03*
G01X13957300Y-7454900D03*
G01X13957300Y-7200900D03*
G01X13957300Y-6946900D03*
G01X13957300Y-6692900D03*
G01X13957300Y-6438900D03*
G01X14719300Y-8216900D03*
G01X14719300Y-7962900D03*
G01X14719300Y-7708900D03*
G01X14719300Y-7454900D03*
G01X14719300Y-7200900D03*
G01X14719300Y-6946900D03*
G01X14719300Y-6692900D03*
G01X14719300Y-6438900D03*
G04 Drill Drawing End*

M02*

