;TYPE=PLATED
;Layer: PTH_Through_Via
;EasyEDA Pro Client v2.2.40.8, 2025-08-17 11:35:07
;Gerber Generator version 0.3
M48
METRIC,LZ,0000.00000
;Hole size 1 = 0.30480 METRIC
T01C0.30480
;Hole size 2 = 0.30500 METRIC
T02C0.30500
%
G05
G90
T01
X47.244Y-48.387
X147.93087Y-14.81899
X143.80799Y-14.40248
X97.76587Y-32.599
X91.66987Y-36.40899
X90.14587Y-69.17499
X85.0138Y-109.94199
X191.11087Y-6.644
X188.36513Y-6.69226
X190.60287Y-14.13701
X182.22087Y-15.2019
X149.20087Y-14.51801
X138.87358Y-14.8209
X15.36706Y-135.51979
X13.781Y-137.02173
X189.21451Y-31.115
X200.09155Y-24.8125
X138.26698Y-25.90998
X164.93698Y-30.98998
X163.51098Y-29.97149
X162.49498Y-25.14549
X117.094Y-22.84705
X76.327Y-54.483
X76.454Y-57.15
X41.91Y-42.164
X67.17091Y-49.29759
X20.23308Y-127.97599
X40.61308Y-127.21399
X42.13708Y-132.92899
X67.15608Y-100.417
X66.167Y-91.79941
X101.36441Y-35.58159
X103.39641Y-28.21559
X109.641Y-26.035
X73.914Y-29.718
X69.215Y-40.386
X75.565Y-59.182
X76.581Y-60.198
X189.84087Y-29.678
X189.84087Y-16.978
X58.61695Y-60.98159
X62.42695Y-58.69559
X67.37995Y-52.09159
X67.25295Y-64.53759
X68.52295Y-66.06159
X88.61908Y-68.413
X114.78108Y-70.57199
X63.44295Y-56.15559
X71.06295Y-59.71159
X73.60295Y-64.02959
X82.49295Y-89.04859
X166.97808Y-93.17799
X179.04308Y-91.39999
X67.50695Y-75.96759
X73.60295Y-97.71987
X118.33708Y-108.672
X130.78308Y-112.73599
X66.74495Y-75.20559
X75.88895Y-120.16359
X151.35708Y-130.89699
X164.94608Y-133.05599
X78.68295Y-114.57559
X115.03508Y-155.15399
X185.13908Y-153.50299
X57.55792Y-74.65456
X57.55792Y-109.96056
X70.89887Y-54.63159
X64.29487Y-103.39959
X62.26287Y-62.25159
X74.82992Y-65.67465
X63.02487Y-63.01359
X73.94687Y-65.55359
X49.53Y-32.512
X51.562Y-30.48
X52.705Y-31.369
X130.683Y-31.369
X56.626Y-30.369
X153.654Y-31.893
X24.638Y-33.274
X43.87918Y-37.14818
X27.432Y-32.766
X43.688Y-29.718
X60.706Y-28.194
X194.31Y-31.75
X66.07287Y-60.21959
X67.43695Y-61.03099
X8.636Y-30.988
X72.263Y-32.131
X83.947Y-37.465
X88.519Y-35.941
X92.01302Y-33.528
X97.06399Y-23.95101
X100.61999Y-14.05598
X140.081Y-23.86
X68.11696Y-74.51014
X64.81496Y-76.54214
X21.42307Y-132.65899
X176.97602Y-32.512
X184.34202Y-55.372
X182.626Y-58.42
X150.114Y-104.775
X145.923Y-108.458
X70.739Y-45.466
X23.876Y-50.419
X67.05595Y-58.99899
X85.852Y-36.576
X86.106Y-32.004
X18.542Y-45.212
X42.06909Y-38.13209
X19.558Y-46.228
X38.1Y-51.689
X61.51296Y-82.14741
X58.21096Y-76.05141
X31.79496Y-63.60541
X39.878Y-58.928
X57.912Y-61.976
X58.166Y-63.246
X67.818Y-62.23
X69.342Y-66.04
X56.134Y-65.278
X69.596Y-69.85
X34.544Y-63.754
X98.59696Y-87.73541
X97.58096Y-87.73541
X86.40496Y-85.19541
X113.83696Y-89.00541
X131.10896Y-90.27541
X130.96392Y-123.02299
X132.48792Y-131.65899
X90.97696Y-87.73541
X98.59696Y-86.21141
X146.73034Y-88.75141
X166.26954Y-76.922
X165.25354Y-92.41599
X118.40896Y-92.56141
X131.23596Y-94.39719
X182.41696Y-109.07141
X181.29237Y-91.65399
X156.87154Y-92.16199
X79.756Y-55.17642
X60.96686Y-50.35042
X50.29886Y-40.19042
X40.01186Y-29.90342
X81.56585Y-127.254
X113.792Y-32.131
X140.716Y-31.369
X145.90751Y-31.369
X177.40351Y-33.909
X60.198Y-38.227
T02
X177.419Y-74.041
X161.163Y-88.011
X145.034Y-85.471
X132.97586Y-95.631
X104.013Y-119.888
X113.538Y-116.586
X171.831Y-110.70399
X171.831Y-114.681
M30