;TYPE=PLATED
;Layer: PTH_Through
;EasyEDA Pro Client v2.2.40.8, 2025-08-17 11:35:07
;Gerber Generator version 0.3
M48
METRIC,LZ,0000.00000
;Hole size 1 = 0.30480 METRIC
T01C0.30480
;Hole size 2 = 0.30500 METRIC
T02C0.30500
;Hole size 3 = 0.50002 METRIC
T03C0.50002
;Hole size 4 = 0.70002 METRIC
T04C0.70002
;Hole size 5 = 0.90002 METRIC
T05C0.90002
;Hole size 6 = 0.91440 METRIC
T06C0.91440
;Hole size 7 = 1.00000 METRIC
T07C1.00000
;Hole size 8 = 1.02000 METRIC
T08C1.02000
;Hole size 9 = 1.04999 METRIC
T09C1.04999
;Hole size 10 = 1.05999 METRIC
T10C1.05999
;Hole size 11 = 1.20000 METRIC
T11C1.20000
;Hole size 12 = 1.50002 METRIC
T12C1.50002
;Hole size 13 = 2.00000 METRIC
T13C2.00000
%
G05
G90
T01
X47.244Y-48.387
X147.93087Y-14.81899
X143.80799Y-14.40248
X97.76587Y-32.599
X91.66987Y-36.40899
X90.14587Y-69.17499
X85.0138Y-109.94199
X191.11087Y-6.644
X188.36513Y-6.69226
X190.60287Y-14.13701
X182.22087Y-15.2019
X149.20087Y-14.51801
X138.87358Y-14.8209
X15.36706Y-135.51979
X13.781Y-137.02173
X189.21451Y-31.115
X200.09155Y-24.8125
X138.26698Y-25.90998
X164.93698Y-30.98998
X163.51098Y-29.97149
X162.49498Y-25.14549
X117.094Y-22.84705
X76.327Y-54.483
X76.454Y-57.15
X41.91Y-42.164
X67.17091Y-49.29759
X20.23308Y-127.97599
X40.61308Y-127.21399
X42.13708Y-132.92899
X67.15608Y-100.417
X66.167Y-91.79941
X101.36441Y-35.58159
X103.39641Y-28.21559
X109.641Y-26.035
X73.914Y-29.718
X69.215Y-40.386
X75.565Y-59.182
X76.581Y-60.198
X189.84087Y-29.678
X189.84087Y-16.978
X58.61695Y-60.98159
X62.42695Y-58.69559
X67.37995Y-52.09159
X67.25295Y-64.53759
X68.52295Y-66.06159
X88.61908Y-68.413
X114.78108Y-70.57199
X63.44295Y-56.15559
X71.06295Y-59.71159
X73.60295Y-64.02959
X82.49295Y-89.04859
X166.97808Y-93.17799
X179.04308Y-91.39999
X67.50695Y-75.96759
X73.60295Y-97.71987
X118.33708Y-108.672
X130.78308Y-112.73599
X66.74495Y-75.20559
X75.88895Y-120.16359
X151.35708Y-130.89699
X164.94608Y-133.05599
X78.68295Y-114.57559
X115.03508Y-155.15399
X185.13908Y-153.50299
X57.55792Y-74.65456
X57.55792Y-109.96056
X70.89887Y-54.63159
X64.29487Y-103.39959
X62.26287Y-62.25159
X74.82992Y-65.67465
X63.02487Y-63.01359
X73.94687Y-65.55359
X49.53Y-32.512
X51.562Y-30.48
X52.705Y-31.369
X130.683Y-31.369
X56.626Y-30.369
X153.654Y-31.893
X24.638Y-33.274
X43.87918Y-37.14818
X27.432Y-32.766
X43.688Y-29.718
X60.706Y-28.194
X194.31Y-31.75
X66.07287Y-60.21959
X67.43695Y-61.03099
X8.636Y-30.988
X72.263Y-32.131
X83.947Y-37.465
X88.519Y-35.941
X92.01302Y-33.528
X97.06399Y-23.95101
X100.61999Y-14.05598
X140.081Y-23.86
X68.11696Y-74.51014
X64.81496Y-76.54214
X21.42307Y-132.65899
X176.97602Y-32.512
X184.34202Y-55.372
X182.626Y-58.42
X150.114Y-104.775
X145.923Y-108.458
X70.739Y-45.466
X23.876Y-50.419
X67.05595Y-58.99899
X85.852Y-36.576
X86.106Y-32.004
X18.542Y-45.212
X42.06909Y-38.13209
X19.558Y-46.228
X38.1Y-51.689
X61.51296Y-82.14741
X58.21096Y-76.05141
X31.79496Y-63.60541
X39.878Y-58.928
X57.912Y-61.976
X58.166Y-63.246
X67.818Y-62.23
X69.342Y-66.04
X56.134Y-65.278
X69.596Y-69.85
X34.544Y-63.754
X98.59696Y-87.73541
X97.58096Y-87.73541
X86.40496Y-85.19541
X113.83696Y-89.00541
X131.10896Y-90.27541
X130.96392Y-123.02299
X132.48792Y-131.65899
X90.97696Y-87.73541
X98.59696Y-86.21141
X146.73034Y-88.75141
X166.26954Y-76.922
X165.25354Y-92.41599
X118.40896Y-92.56141
X131.23596Y-94.39719
X182.41696Y-109.07141
X181.29237Y-91.65399
X156.87154Y-92.16199
X79.756Y-55.17642
X60.96686Y-50.35042
X50.29886Y-40.19042
X40.01186Y-29.90342
X81.56585Y-127.254
X113.792Y-32.131
X140.716Y-31.369
X145.90751Y-31.369
X177.40351Y-33.909
X60.198Y-38.227
T02
X177.419Y-74.041
X161.163Y-88.011
X145.034Y-85.471
X132.97586Y-95.631
X104.013Y-119.888
X113.538Y-116.586
X171.831Y-110.70399
X171.831Y-114.681
T03
X97.06399Y-16.60401G85X97.06399Y-17.60395
X101.56401Y-8.30401G85X101.56401Y-9.30398
X101.56401Y-11.404G85X101.56401Y-12.40398
X101.56401Y-15.50399G85X101.56401Y-16.50397
X111.16099Y-16.60401G85X111.16099Y-17.60395
X115.66101Y-8.30401G85X115.66101Y-9.30398
X115.66101Y-11.404G85X115.66101Y-12.40398
X115.66101Y-15.50399G85X115.66101Y-16.50397
X139.86299Y-16.60401G85X139.86299Y-17.60395
X144.36301Y-8.30401G85X144.36301Y-9.30398
X144.36301Y-11.404G85X144.36301Y-12.40398
X144.36301Y-15.50399G85X144.36301Y-16.50397
X154.84899Y-16.60401G85X154.84899Y-17.60395
X159.34901Y-8.30401G85X159.34901Y-9.30398
X159.34901Y-11.404G85X159.34901Y-12.40398
X159.34901Y-15.50399G85X159.34901Y-16.50397
X181.39199Y-16.60401G85X181.39199Y-17.60395
X185.89201Y-8.30401G85X185.89201Y-9.30398
X185.89201Y-11.404G85X185.89201Y-12.40398
X185.89201Y-15.50399G85X185.89201Y-16.50397
X195.86999Y-16.60401G85X195.86999Y-17.60395
X200.37001Y-8.30401G85X200.37001Y-9.30398
X200.37001Y-11.404G85X200.37001Y-12.40398
X200.37001Y-15.50399G85X200.37001Y-16.50397
X34.83399Y-16.60401G85X34.83399Y-17.60395
X39.33401Y-8.30401G85X39.33401Y-9.30398
X39.33401Y-11.404G85X39.33401Y-12.40398
X39.33401Y-15.50399G85X39.33401Y-16.50397
X86.01499Y-16.60401G85X86.01499Y-17.60395
X90.51501Y-8.30401G85X90.51501Y-9.30398
X90.51501Y-11.404G85X90.51501Y-12.40398
X90.51501Y-15.50399G85X90.51501Y-16.50397
T04
X46.355Y-44.847
X46.355Y-46.847
T05
X53.975Y-30.988
X53.975Y-33.528
X53.975Y-36.068
X53.975Y-38.608
X61.595Y-30.988
X61.595Y-33.528
X61.595Y-36.068
X61.595Y-38.608
T06
X50.178Y-29.845
X42.278Y-29.845
X21.41499Y-10.71905
X21.41499Y-12.71905
X28.11501Y-10.71905
X28.11501Y-12.71905
X23.765Y-13.91905
X25.765Y-13.91905
X102.489Y-35.065
X102.489Y-27.165
X154.813Y-27.165
X154.813Y-35.065
X112.522Y-27.165
X112.522Y-35.065
X145.034Y-34.811
X145.034Y-26.911
X186.309Y-34.811
X186.309Y-26.911
X195.961Y-26.911
X195.961Y-34.811
T07
X21.931Y-145.73987
X19.431Y-145.73987
X16.93101Y-145.73987
X21.423Y-128.34087
X18.923Y-128.34087
X16.42301Y-128.34087
X21.55Y-110.56087
X19.05Y-110.56087
X16.55Y-110.56087
X68.453Y-42.545
X70.993Y-42.545
X73.533Y-42.545
X76.073Y-42.545
X78.613Y-42.545
X81.153Y-42.545
X83.693Y-42.545
X68.453Y-34.925
X70.993Y-34.925
X73.533Y-34.925
X76.073Y-34.925
X78.613Y-34.925
X81.153Y-34.925
X83.693Y-34.925
X86.36Y-54.356
X86.36Y-59.436
X62.103Y-92.81541
X67.183Y-92.81541
X62.09091Y-48.02759
X67.17091Y-48.02759
X11.85088Y-29.083
X16.85087Y-29.083
X81.01391Y-72.15759
X75.93391Y-72.15759
X67.818Y-30.734
X72.898Y-30.734
X110.06912Y-24.511
X105.06913Y-24.511
X188.722Y-57.404
X183.642Y-57.404
X172.72Y-78.232
X167.64Y-78.232
X156.464Y-99.695
X151.384Y-99.695
X139.192Y-120.904
X134.112Y-120.904
X122.428Y-141.986
X117.348Y-141.986
X106.426Y-162.941
X101.346Y-162.941
X55.245Y-43.307
X55.245Y-48.387
X152.36012Y-24.257
X147.36013Y-24.257
X193.63512Y-24.257
X188.63513Y-24.257
X205.232Y-18.923
X205.232Y-13.843
X83.947Y-124.587
X78.867Y-124.587
T08
X9.398Y-52.832
X11.938Y-52.832
X14.478Y-52.832
X17.018Y-52.832
X39.878Y-47.752
X11.938Y-37.592
X19.558Y-52.832
X22.098Y-52.832
X24.638Y-52.832
X27.178Y-52.832
X29.718Y-52.832
X32.258Y-52.832
X34.798Y-52.832
X37.338Y-52.832
X39.878Y-52.832
X39.878Y-37.592
X37.338Y-37.592
X34.798Y-37.592
X32.258Y-37.592
X29.718Y-37.592
X27.178Y-37.592
X24.638Y-37.592
X22.098Y-37.592
X19.558Y-37.592
X17.018Y-37.592
X14.478Y-37.592
X6.858Y-52.832
X39.878Y-45.212
X9.398Y-37.592
X39.878Y-40.132
X39.878Y-42.672
X39.878Y-50.292
X6.858Y-37.592
T09
X28.702Y-64.897
X31.242Y-64.897
X33.782Y-64.897
X36.322Y-64.897
T10
X31.115Y-15.50993
X31.115Y-4.81007
T11
X11.60089Y-17.57782G85X9.10087Y-17.57782
X9.10112Y-11.37818G85X11.60115Y-11.37818
X5.65087Y-15.82809G85X5.65087Y-13.32807
T12
X59.06211Y-15.84211
X56.56212Y-18.3421
X51.56213Y-15.84211
X46.56214Y-18.3421
X44.06214Y-15.84211
X56.56212Y-6.04213
X46.56214Y-6.04213
X81.16011Y-15.84211
X78.66012Y-18.3421
X73.66013Y-15.84211
X68.66014Y-18.3421
X66.16014Y-15.84211
X78.66012Y-6.04213
X68.66014Y-6.04213
X120.24208Y-44.49013
X132.74192Y-44.49013
X120.24208Y-49.49012
X132.74192Y-49.49012
X136.49808Y-44.49013
X148.99792Y-44.49013
X136.49808Y-49.49012
X148.99792Y-49.49012
X153.64308Y-44.61713
X166.14292Y-44.61713
X153.64308Y-49.61712
X166.14292Y-49.61712
X170.53408Y-44.49013
X183.03392Y-44.49013
X170.53408Y-49.49012
X183.03392Y-49.49012
X187.04408Y-44.49013
X199.54392Y-44.49013
X187.04408Y-49.49012
X199.54392Y-49.49012
X87.85708Y-64.93713
X100.35692Y-64.93713
X87.85708Y-69.93712
X100.35692Y-69.93712
X103.98608Y-64.93713
X116.48592Y-64.93713
X103.98608Y-69.93712
X116.48592Y-69.93712
X120.24208Y-65.06413
X132.74192Y-65.06413
X120.24208Y-70.06412
X132.74192Y-70.06412
X136.75208Y-65.19113
X149.25192Y-65.19113
X136.75208Y-70.19112
X149.25192Y-70.19112
X153.77008Y-65.44513
X166.26992Y-65.44513
X153.77008Y-70.44512
X166.26992Y-70.44512
X170.40708Y-65.44513
X182.90692Y-65.44513
X170.40708Y-70.44512
X182.90692Y-70.44512
X187.17108Y-65.44513
X199.67092Y-65.44513
X187.17108Y-70.44512
X199.67092Y-70.44512
X62.07608Y-107.10113
X74.57592Y-107.10113
X62.07608Y-112.10112
X74.57592Y-112.10112
X87.98408Y-85.89213
X100.48392Y-85.89213
X87.98408Y-90.89212
X100.48392Y-90.89212
X103.98608Y-85.89213
X116.48592Y-85.89213
X103.98608Y-90.89212
X116.48592Y-90.89212
X119.98808Y-86.01913
X132.48792Y-86.01913
X119.98808Y-91.01912
X132.48792Y-91.01912
X136.75208Y-86.27313
X149.25192Y-86.27313
X136.75208Y-91.27312
X149.25192Y-91.27312
X154.02408Y-86.40013
X166.52392Y-86.40013
X154.02408Y-91.40012
X166.52392Y-91.40012
X170.40708Y-86.40013
X182.90692Y-86.40013
X170.40708Y-91.40012
X182.90692Y-91.40012
X187.29808Y-86.40013
X199.79792Y-86.40013
X187.29808Y-91.40012
X199.79792Y-91.40012
X87.98408Y-107.10113
X100.48392Y-107.10113
X87.98408Y-112.10112
X100.48392Y-112.10112
X104.11308Y-107.10113
X116.61292Y-107.10113
X104.11308Y-112.10112
X116.61292Y-112.10112
X119.98808Y-107.10113
X132.48792Y-107.10113
X119.98808Y-112.10112
X132.48792Y-112.10112
X137.00608Y-107.22813
X149.50592Y-107.22813
X137.00608Y-112.22812
X149.50592Y-112.22812
X154.02408Y-107.48213
X166.52392Y-107.48213
X154.02408Y-112.48212
X166.52392Y-112.48212
X170.40708Y-107.35513
X182.90692Y-107.35513
X170.40708Y-112.35512
X182.90692Y-112.35512
X187.42508Y-107.35513
X199.92492Y-107.35513
X187.42508Y-112.35512
X199.92492Y-112.35512
X87.98408Y-128.31013
X100.48392Y-128.31013
X87.98408Y-133.31012
X100.48392Y-133.31012
X104.24008Y-128.31013
X116.73992Y-128.31013
X104.24008Y-133.31012
X116.73992Y-133.31012
X120.11508Y-128.43713
X132.61492Y-128.43713
X120.11508Y-133.43712
X132.61492Y-133.43712
X137.00608Y-128.43713
X149.50592Y-128.43713
X137.00608Y-133.43712
X149.50592Y-133.43712
X154.15108Y-128.69113
X166.65092Y-128.69113
X154.15108Y-133.69112
X166.65092Y-133.69112
X170.40708Y-128.56413
X182.90692Y-128.56413
X170.40708Y-133.56412
X182.90692Y-133.56412
X187.55208Y-128.56413
X200.05192Y-128.56413
X187.55208Y-133.56412
X200.05192Y-133.56412
X88.11108Y-149.51913
X100.61092Y-149.51913
X88.11108Y-154.51912
X100.61092Y-154.51912
X104.24008Y-149.51913
X116.73992Y-149.51913
X104.24008Y-154.51912
X116.73992Y-154.51912
X119.98808Y-149.64613
X132.48792Y-149.64613
X119.98808Y-154.64612
X132.48792Y-154.64612
X137.00608Y-149.77313
X149.50592Y-149.77313
X137.00608Y-154.77312
X149.50592Y-154.77312
X154.15108Y-150.02713
X166.65092Y-150.02713
X154.15108Y-155.02712
X166.65092Y-155.02712
X170.40708Y-149.77313
X182.90692Y-149.77313
X170.40708Y-154.77312
X182.90692Y-154.77312
X187.55208Y-149.77313
X200.05192Y-149.77313
X187.55208Y-154.77312
X200.05192Y-154.77312
X42.77208Y-107.22813
X55.27192Y-107.22813
X42.77208Y-112.22812
X55.27192Y-112.22812
X30.45308Y-122.21413
X42.95292Y-122.21413
X30.45308Y-127.21412
X42.95292Y-127.21412
X42.77208Y-137.20013
X55.27192Y-137.20013
X42.77208Y-142.20012
X55.27192Y-142.20012
X62.33008Y-137.20013
X74.82992Y-137.20013
X62.33008Y-142.20012
X74.82992Y-142.20012
X49.63008Y-122.34113
X62.12992Y-122.34113
X49.63008Y-127.34112
X62.12992Y-127.34112
X100.10292Y-49.48987
X87.60308Y-49.48987
X100.10292Y-44.48988
X87.60308Y-44.48988
X116.73992Y-49.61687
X104.24008Y-49.61687
X116.73992Y-44.61688
X104.24008Y-44.61688
T13
X15.03101Y-138.58988G85X15.03101Y-138.88988
X23.83099Y-138.58988G85X23.83099Y-138.88988
X14.52301Y-121.19088G85X14.52301Y-121.49088
X23.32299Y-121.19088G85X23.32299Y-121.49088
X14.65001Y-103.41088G85X14.65001Y-103.71088
X23.44999Y-103.41088G85X23.44999Y-103.71088
M30