G04 Layer: TopAssemblyLayer*
G04 EasyEDA Pro v2.2.40.8, 2025-08-17 11:35:06*
G04 Gerber Generator version 0.3*
G04 Scale: 100 percent, Rotated: No, Reflected: No*
G04 Dimensions in millimeters*
G04 Leading zeros omitted, absolute positions, 4 integers and 5 decimals*
G04 Generated by one-click*
%FSLAX45Y45*%
%MOMM*%
%ADD10C,0.15*%
%ADD11C,0.127*%
%ADD12C,0.5739*%
G75*


G04 Text Start*
G54D10*
G01X2379532Y-4540212D02*
G01X2379532Y-4585170D01*
G01X2382072Y-4593298D01*
G01X2387406Y-4595838D01*
G01X2392740Y-4595838D01*
G01X2371658Y-4558754D02*
G01X2390200Y-4558754D01*
G01X2420426Y-4574756D02*
G01X2452430Y-4574756D01*
G01X2452430Y-4569422D01*
G01X2449636Y-4564088D01*
G01X2447096Y-4561294D01*
G01X2441762Y-4558754D01*
G01X2433888Y-4558754D01*
G01X2428554Y-4561294D01*
G01X2423220Y-4566628D01*
G01X2420426Y-4574756D01*
G01X2420426Y-4580090D01*
G01X2423220Y-4587964D01*
G01X2428554Y-4593298D01*
G01X2433888Y-4595838D01*
G01X2441762Y-4595838D01*
G01X2447096Y-4593298D01*
G01X2452430Y-4587964D01*
G01X2480116Y-4574756D02*
G01X2512120Y-4574756D01*
G01X2512120Y-4569422D01*
G01X2509326Y-4564088D01*
G01X2506786Y-4561294D01*
G01X2501452Y-4558754D01*
G01X2493578Y-4558754D01*
G01X2488244Y-4561294D01*
G01X2482910Y-4566628D01*
G01X2480116Y-4574756D01*
G01X2480116Y-4580090D01*
G01X2482910Y-4587964D01*
G01X2488244Y-4593298D01*
G01X2493578Y-4595838D01*
G01X2501452Y-4595838D01*
G01X2506786Y-4593298D01*
G01X2512120Y-4587964D01*
G01X2539806Y-4558754D02*
G01X2539806Y-4595838D01*
G01X2539806Y-4569422D02*
G01X2547934Y-4561294D01*
G01X2553268Y-4558754D01*
G01X2561142Y-4558754D01*
G01X2566476Y-4561294D01*
G01X2569016Y-4569422D01*
G01X2569016Y-4595838D01*
G01X2625912Y-4566628D02*
G01X2623372Y-4561294D01*
G01X2615244Y-4558754D01*
G01X2607370Y-4558754D01*
G01X2599496Y-4561294D01*
G01X2596702Y-4566628D01*
G01X2599496Y-4571962D01*
G01X2604830Y-4574756D01*
G01X2618038Y-4577296D01*
G01X2623372Y-4580090D01*
G01X2625912Y-4585170D01*
G01X2625912Y-4587964D01*
G01X2623372Y-4593298D01*
G01X2615244Y-4595838D01*
G01X2607370Y-4595838D01*
G01X2599496Y-4593298D01*
G01X2596702Y-4587964D01*
G01X2656392Y-4558754D02*
G01X2672140Y-4595838D01*
G01X2688142Y-4558754D02*
G01X2672140Y-4595838D01*
G01X2667060Y-4606506D01*
G01X2661726Y-4611840D01*
G01X2656392Y-4614380D01*
G01X2653598Y-4614380D01*
G01X2742498Y-4540212D02*
G01X2715828Y-4577296D01*
G01X2755706Y-4577296D01*
G01X2742498Y-4540212D02*
G01X2742498Y-4595838D01*
G01X2799394Y-4540212D02*
G01X2791520Y-4542752D01*
G01X2786186Y-4550626D01*
G01X2783392Y-4564088D01*
G01X2783392Y-4571962D01*
G01X2786186Y-4585170D01*
G01X2791520Y-4593298D01*
G01X2799394Y-4595838D01*
G01X2804728Y-4595838D01*
G01X2812602Y-4593298D01*
G01X2817936Y-4585170D01*
G01X2820730Y-4571962D01*
G01X2820730Y-4564088D01*
G01X2817936Y-4550626D01*
G01X2812602Y-4542752D01*
G01X2804728Y-4540212D01*
G01X2799394Y-4540212D01*
G01X2848416Y-4614380D02*
G01X2896168Y-4614380D01*
G01X2923854Y-4540212D02*
G01X2923854Y-4595838D01*
G01X2923854Y-4540212D02*
G01X2942396Y-4540212D01*
G01X2950524Y-4542752D01*
G01X2955858Y-4548086D01*
G01X2958398Y-4553420D01*
G01X2961192Y-4561294D01*
G01X2961192Y-4574756D01*
G01X2958398Y-4582630D01*
G01X2955858Y-4587964D01*
G01X2950524Y-4593298D01*
G01X2942396Y-4595838D01*
G01X2923854Y-4595838D01*
G01X2988878Y-4540212D02*
G01X2988878Y-4595838D01*
G01X2988878Y-4540212D02*
G01X3023422Y-4540212D01*
G01X2988878Y-4566628D02*
G01X3010214Y-4566628D01*
G01X2988878Y-4595838D02*
G01X3023422Y-4595838D01*
G01X3051108Y-4540212D02*
G01X3072444Y-4595838D01*
G01X3093780Y-4540212D02*
G01X3072444Y-4595838D01*
G01X3121466Y-4571962D02*
G01X3169218Y-4571962D01*
G01X3196904Y-4550626D02*
G01X3202238Y-4548086D01*
G01X3210366Y-4540212D01*
G01X3210366Y-4595838D01*
G01X3270056Y-4540212D02*
G01X3243386Y-4540212D01*
G01X3240846Y-4564088D01*
G01X3243386Y-4561294D01*
G01X3251514Y-4558754D01*
G01X3259388Y-4558754D01*
G01X3267262Y-4561294D01*
G01X3272596Y-4566628D01*
G01X3275390Y-4574756D01*
G01X3275390Y-4580090D01*
G01X3272596Y-4587964D01*
G01X3267262Y-4593298D01*
G01X3259388Y-4595838D01*
G01X3251514Y-4595838D01*
G01X3243386Y-4593298D01*
G01X3240846Y-4590504D01*
G01X3238052Y-4585170D01*
G01X3335080Y-4540212D02*
G01X3308410Y-4540212D01*
G01X3305870Y-4564088D01*
G01X3308410Y-4561294D01*
G01X3316538Y-4558754D01*
G01X3324412Y-4558754D01*
G01X3332286Y-4561294D01*
G01X3337620Y-4566628D01*
G01X3340414Y-4574756D01*
G01X3340414Y-4580090D01*
G01X3337620Y-4587964D01*
G01X3332286Y-4593298D01*
G01X3324412Y-4595838D01*
G01X3316538Y-4595838D01*
G01X3308410Y-4593298D01*
G01X3305870Y-4590504D01*
G01X3303076Y-4585170D01*
G01X3381562Y-4540212D02*
G01X3373434Y-4542752D01*
G01X3370894Y-4548086D01*
G01X3370894Y-4553420D01*
G01X3373434Y-4558754D01*
G01X3378768Y-4561294D01*
G01X3389436Y-4564088D01*
G01X3397310Y-4566628D01*
G01X3402644Y-4571962D01*
G01X3405438Y-4577296D01*
G01X3405438Y-4585170D01*
G01X3402644Y-4590504D01*
G01X3400104Y-4593298D01*
G01X3391976Y-4595838D01*
G01X3381562Y-4595838D01*
G01X3373434Y-4593298D01*
G01X3370894Y-4590504D01*
G01X3368100Y-4585170D01*
G01X3368100Y-4577296D01*
G01X3370894Y-4571962D01*
G01X3376228Y-4566628D01*
G01X3384102Y-4564088D01*
G01X3394770Y-4561294D01*
G01X3400104Y-4558754D01*
G01X3402644Y-4553420D01*
G01X3402644Y-4548086D01*
G01X3400104Y-4542752D01*
G01X3391976Y-4540212D01*
G01X3381562Y-4540212D01*
G01X3438458Y-4540212D02*
G01X3467668Y-4540212D01*
G01X3451666Y-4561294D01*
G01X3459794Y-4561294D01*
G01X3465128Y-4564088D01*
G01X3467668Y-4566628D01*
G01X3470462Y-4574756D01*
G01X3470462Y-4580090D01*
G01X3467668Y-4587964D01*
G01X3462334Y-4593298D01*
G01X3454460Y-4595838D01*
G01X3446586Y-4595838D01*
G01X3438458Y-4593298D01*
G01X3435918Y-4590504D01*
G01X3433124Y-4585170D01*
G04 Text End*

G04 PolygonModel Start*
G54D11*
G01X488800Y-3632200D02*
G01X4114800Y-3632200D01*
G01X488800Y-5410200D02*
G01X488800Y-3632200D01*
G01X4114800Y-5410200D02*
G01X488800Y-5410200D01*
G01X4114800Y-3632200D02*
G01X4114800Y-5410200D01*

M02*

