G04 Layer: DrillDrawingLayer*
G04 EasyEDA Pro v2.2.40.8, 2025-08-17 11:35:06*
G04 Gerber Generator version 0.3*
G04 Scale: 100 percent, Rotated: No, Reflected: No*
G04 Dimensions in millimeters*
G04 Leading zeros omitted, absolute positions, 4 integers and 5 decimals*
G04 Generated by one-click*
%FSLAX45Y45*%
%MOMM*%
%AMIconRect*4,1,4,0.2,-0.2,-0.2,-0.2,-0.2,0.2,0.2,0.2,0.2,-0.2,0*4,0,4,0.166667,-0.166667,0.166667,0.166667,-0.166667,0.166667,-0.166667,-0.166667,0.166667,-0.166667,0*%
%AMIconTriangle*4,1,3,-0.242567,0.171767,0.242567,0.171767,0,-0.2706,-0.242567,0.171767,0*4,0,3,-0.189767,0.1386,0,-0.1953,0.190167,0.1386,-0.189767,0.1386,0*%
%AMIconStar6*4,1,12,0.0862,0.1492,0.213233,0.123367,0.172367,0,0.213233,-0.1229,0.0862,-0.148733,0,-0.245767,-0.085767,-0.148733,-0.213267,-0.1229,-0.171933,0,-0.213267,0.1229,-0.085767,0.1492,0,0.245767,0.0862,0.1492,0*4,0,12,-0.000333,0.195333,-0.064333,0.122667,-0.169667,0.097667,-0.138333,-0.005333,-0.169667,-0.098,-0.064333,-0.122667,-0.000333,-0.195667,0.064333,-0.122667,0.169667,-0.098,0.138667,0.005,0.169667,0.098,0.064333,0.122333,-0.000333,0.195333,0*%
%AMIconStar4*4,1,8,-0.222667,0.222667,0,0.144667,0.222667,0.222667,0.144667,0,0.222667,-0.222667,0,-0.144667,-0.217433,-0.222667,-0.144667,0,-0.222667,0.222667,0*4,0,8,0.166667,-0.166667,0.108,0,0.166667,0.166667,0,0.108,-0.166667,0.166667,-0.108,0,-0.166667,-0.166667,0,-0.108,0.166667,-0.166667,0*%
%AMIconPlus*4,1,12,0.124,-0.2,-0.124,-0.2,-0.124,-0.124,-0.2,-0.124,-0.2,0.124,-0.124,0.124,-0.124,0.2,0.124,0.2,0.124,0.124,0.2,0.124,0.2,-0.124,0.124,-0.124,0.124,-0.2,0*4,0,12,0.090667,-0.166667,0.090667,-0.090667,0.166667,-0.090667,0.166667,0.090667,0.090667,0.090667,0.090667,0.166667,-0.090667,0.166667,-0.090667,0.090667,-0.166667,0.090667,-0.166667,-0.090667,-0.090667,-0.090667,-0.090667,-0.166667,0.090667,-0.166667,0*%
%AMIconX*4,1,16,0.2,-0.2,0.054533,-0.2,0,-0.145467,-0.054533,-0.2,-0.2,-0.2,-0.2,-0.054533,-0.145467,0,-0.2,0.054533,-0.2,0.2,-0.054533,0.2,0,0.145467,0.054533,0.2,0.2,0.2,0.2,0.054533,0.145467,0,0.2,-0.054533,0.2,-0.2,0*4,0,16,0.1668,-0.1664,0.1668,-0.068467,0.097933,0.000067,0.1668,0.068467,0.1668,0.1665,0.068467,0.1665,0,0.097933,-0.068467,0.1665,-0.1668,0.1665,-0.1668,0.068467,-0.097933,0.000067,-0.1668,-0.068467,-0.1668,-0.1664,-0.068467,-0.1664,0,-0.097933,0.068467,-0.1664,0.1668,-0.1664,0*%
%AMIconDiamond*4,1,4,0,-0.26,-0.26,0,0,0.26,0.26,0,0,-0.26,0*4,0,4,0,-0.203433,0.203433,0,0,0.2036,-0.203433,0,0,-0.203433,0*%
%AMIconRect2*4,1,6,0.2,-0.2,-0.2,-0.2,-0.2,0.2,-0.1668,0.1665,-0.166667,-0.166667,0.1668,-0.166667,0.2,-0.2,0*4,1,6,0.2,-0.2,0.1668,-0.166667,0.1668,0.1665,-0.1668,0.1665,-0.2,0.2,0.2,0.2,0.2,-0.2,0*4,1,6,0.133467,-0.133333,-0.133333,-0.133333,-0.133333,0.133467,-0.1,0.100133,-0.1,-0.1,0.100133,-0.1,0.133467,-0.133333,0*4,1,6,0.133467,-0.133333,0.100133,-0.1,0.100133,0.100133,-0.1,0.100133,-0.133333,0.133467,0.133467,0.133467,0.133467,-0.133333,0*%
%AMCharA*4,1,8,-0.122067,-0.1864,-0.1532,-0.174533,-0.015133,0.1864,0.016,0.1864,0.1532,-0.174533,0.122067,-0.1864,0.0764,-0.0662,-0.076133,-0.0662,-0.122067,-0.1864,0*4,0,3,-0.063333,-0.032867,0.063667,-0.032867,0.000333,0.1338,-0.063333,-0.032867,0*%
%AMCharB*4,1,17,-0.131133,-0.1894,-0.131133,0.1894,0.033533,0.1894,0.088067,0.172467,0.1114,0.151733,0.131133,0.114133,0.131,0.066467,0.114333,0.0338,0.094733,0.0128,0.086467,0.0084,0.094733,0.003867,0.114333,-0.017133,0.131,-0.0498,0.131133,-0.114133,0.1114,-0.151733,0.088067,-0.1726,0.033533,-0.1894,-0.131133,-0.1894,0*4,0,10,-0.0978,-0.156067,0.030867,-0.156067,0.073867,-0.142,0.085867,-0.130133,0.099533,-0.1028,0.099533,-0.0614,0.085867,-0.034533,0.073867,-0.0226,0.030867,-0.008667,-0.0978,-0.008667,-0.0978,-0.156067,0*4,0,10,-0.0978,0.024667,0.0308,0.024667,0.073867,0.039267,0.085867,0.051267,0.099533,0.078067,0.099533,0.102667,0.085867,0.130133,0.073867,0.142,0.030867,0.156067,-0.0978,0.156067,-0.0978,0.024667,0*%
%AMCharC*4,1,36,-0.027533,-0.1894,-0.071933,-0.1684,-0.1084,-0.130667,-0.125333,-0.096,-0.1428,-0.041333,-0.1428,0.041333,-0.1244,0.098,-0.105267,0.135067,-0.067533,0.171667,-0.027533,0.1894,0.038533,0.1894,0.083067,0.1684,0.119467,0.130667,0.1428,0.083,0.112867,0.0684,0.090867,0.113467,0.0614,0.142933,0.034733,0.156067,-0.0236,0.156067,-0.050333,0.142933,-0.079733,0.113467,-0.094067,0.084333,-0.109467,0.0386,-0.109467,-0.0386,-0.094067,-0.084333,-0.079733,-0.113467,-0.050333,-0.142867,-0.0236,-0.156067,0.034733,-0.156067,0.0614,-0.142867,0.090867,-0.113467,0.112867,-0.0684,0.1428,-0.083,0.119467,-0.130667,0.083067,-0.1684,0.038533,-0.1894,-0.027533,-0.1894,0*%
%AMCharD*4,1,12,-0.132,-0.1894,-0.132,0.1894,-0.000067,0.1894,0.054533,0.172467,0.0968,0.130933,0.1144,0.096067,0.132,0.041333,0.132,-0.041333,0.113467,-0.098267,0.093933,-0.134933,0.054533,-0.1726,-0.000067,-0.1894,-0.132,-0.1894,0*4,0,12,-0.098667,-0.156067,-0.002667,-0.156067,0.040333,-0.142133,0.068333,-0.113467,0.083267,-0.0842,0.098667,-0.0386,0.098667,0.0386,0.083267,0.0842,0.068333,0.113467,0.040333,0.142133,-0.002667,0.156067,-0.098667,0.156067,-0.098667,-0.156067,0*%
%ADD10C,0.254*%
%ADD11IconRect*%
%ADD12C,0.44X0.373333*%
%ADD13IconTriangle*%
%ADD14IconStar6*%
%ADD15IconStar4*%
%ADD16IconPlus*%
%ADD17IconX*%
%ADD18IconDiamond*%
%ADD19IconRect2*%
%ADD20CharA*%
%ADD21CharB*%
%ADD22CharC*%
%ADD23CharD*%
G75*


G04 Circle Start*
G54D10*
G01X1946833Y-8849690D02*
G03X2205559Y-8849690I129363J0D01*
G03X1946833Y-8849690I-129363J0D01*
G01X4290237Y-8851900D02*
G03X4548963Y-8851900I129363J0D01*
G03X4290237Y-8851900I-129363J0D01*
G01X1946833Y-6469710D02*
G03X2205559Y-6469710I129363J0D01*
G03X1946833Y-6469710I-129363J0D01*
G01X4296841Y-6469710D02*
G03X4555567Y-6469710I129363J0D01*
G03X4296841Y-6469710I-129363J0D01*
G04 Circle End*

G04 Drill Drawing Start*
G54D11*
G01X3111500Y-1550993D03*
G01X3111500Y-481007D03*
G54D12*
G01X4635500Y-4684700D03*
G01X4635500Y-4484700D03*
G54D13*
G01X565087Y-1457808D03*
G01X1035088Y-1757782D03*
G01X1035114Y-1137818D03*
G54D14*
G01X2870200Y-6489700D03*
G01X3124200Y-6489700D03*
G01X3378200Y-6489700D03*
G01X3632200Y-6489700D03*
G54D15*
G01X1452301Y-12134088D03*
G01X1465001Y-10356088D03*
G01X1503101Y-13873988D03*
G01X2332299Y-12134088D03*
G01X2344999Y-10356088D03*
G01X2383099Y-13873988D03*
G54D16*
G01X5397500Y-3860800D03*
G01X5397500Y-3606800D03*
G01X5397500Y-3352800D03*
G01X5397500Y-3098800D03*
G01X6159500Y-3860800D03*
G01X6159500Y-3606800D03*
G01X6159500Y-3352800D03*
G01X6159500Y-3098800D03*
G54D17*
G01X3708400Y-1420398D03*
G01X3708400Y-720400D03*
G01X8826500Y-1420398D03*
G01X8826500Y-720400D03*
G01X9931400Y-1420398D03*
G01X9931400Y-720400D03*
G01X11341100Y-1420398D03*
G01X11341100Y-720400D03*
G01X14211300Y-1420398D03*
G01X14211300Y-720400D03*
G01X15709900Y-1420398D03*
G01X15709900Y-720400D03*
G01X18364200Y-1420398D03*
G01X18364200Y-720400D03*
G01X19812000Y-1420398D03*
G01X19812000Y-720400D03*
G54D18*
G01X2141499Y-1271905D03*
G01X2141499Y-1071905D03*
G01X2376500Y-1391905D03*
G01X2576500Y-1391905D03*
G01X2811501Y-1271905D03*
G01X2811501Y-1071905D03*
G01X4227800Y-2984500D03*
G01X5017800Y-2984500D03*
G01X10248900Y-3506500D03*
G01X10248900Y-2716500D03*
G01X11252200Y-3506500D03*
G01X11252200Y-2716500D03*
G01X14503400Y-3481100D03*
G01X14503400Y-2691100D03*
G01X15481300Y-3506500D03*
G01X15481300Y-2716500D03*
G01X18630900Y-3481100D03*
G01X18630900Y-2691100D03*
G01X19596100Y-3481100D03*
G01X19596100Y-2691100D03*
G54D19*
G01X3483399Y-1710398D03*
G01X3933401Y-1600398D03*
G01X3933401Y-1190399D03*
G01X3933401Y-880400D03*
G01X8601499Y-1710398D03*
G01X9051501Y-1600398D03*
G01X9051501Y-1190399D03*
G01X9051501Y-880400D03*
G01X9706399Y-1710398D03*
G01X10156401Y-1600398D03*
G01X10156401Y-1190399D03*
G01X10156401Y-880400D03*
G01X11116099Y-1710398D03*
G01X11566101Y-1600398D03*
G01X11566101Y-1190399D03*
G01X11566101Y-880400D03*
G01X13986299Y-1710398D03*
G01X14436301Y-1600398D03*
G01X14436301Y-1190399D03*
G01X14436301Y-880400D03*
G01X15484899Y-1710398D03*
G01X15934901Y-1600398D03*
G01X15934901Y-1190399D03*
G01X15934901Y-880400D03*
G01X18139199Y-1710398D03*
G01X18589201Y-1600398D03*
G01X18589201Y-1190399D03*
G01X18589201Y-880400D03*
G01X19586999Y-1710398D03*
G01X20037001Y-1600398D03*
G01X20037001Y-1190399D03*
G01X20037001Y-880400D03*
G54D20*
G01X685800Y-5283200D03*
G01X685800Y-3759200D03*
G01X939800Y-3759200D03*
G01X939800Y-5283200D03*
G01X1193800Y-3759200D03*
G01X1193800Y-5283200D03*
G01X1447800Y-3759200D03*
G01X1447800Y-5283200D03*
G01X1701800Y-5283200D03*
G01X1701800Y-3759200D03*
G01X1955800Y-5283200D03*
G01X1955800Y-3759200D03*
G01X2209800Y-5283200D03*
G01X2209800Y-3759200D03*
G01X2463800Y-5283200D03*
G01X2463800Y-3759200D03*
G01X2717800Y-5283200D03*
G01X2717800Y-3759200D03*
G01X2971800Y-5283200D03*
G01X2971800Y-3759200D03*
G01X3225800Y-5283200D03*
G01X3225800Y-3759200D03*
G01X3479800Y-5283200D03*
G01X3479800Y-3759200D03*
G01X3733800Y-5283200D03*
G01X3733800Y-3759200D03*
G01X3987800Y-5283200D03*
G01X3987800Y-5029200D03*
G01X3987800Y-4775200D03*
G01X3987800Y-4521200D03*
G01X3987800Y-4267200D03*
G01X3987800Y-4013200D03*
G01X3987800Y-3759200D03*
G54D21*
G01X1185088Y-2908300D03*
G01X1642301Y-12834087D03*
G01X1655001Y-11056087D03*
G01X1685087Y-2908300D03*
G01X1693101Y-14573987D03*
G01X1892300Y-12834087D03*
G01X1905000Y-11056087D03*
G01X1943100Y-14573987D03*
G01X2142300Y-12834087D03*
G01X2155000Y-11056087D03*
G01X2193100Y-14573987D03*
G01X5524500Y-4838700D03*
G01X5524500Y-4330700D03*
G01X6209091Y-4802759D03*
G01X6210300Y-9281541D03*
G01X6717091Y-4802759D03*
G01X6718300Y-9281541D03*
G01X6781800Y-3073400D03*
G01X6845300Y-4254500D03*
G01X6845300Y-3492500D03*
G01X7099300Y-4254500D03*
G01X7099300Y-3492500D03*
G01X7289800Y-3073400D03*
G01X7353300Y-4254500D03*
G01X7353300Y-3492500D03*
G01X7593391Y-7215759D03*
G01X7607300Y-4254500D03*
G01X7607300Y-3492500D03*
G01X7861300Y-4254500D03*
G01X7861300Y-3492500D03*
G01X7886700Y-12458700D03*
G01X8101391Y-7215759D03*
G01X8115300Y-4254500D03*
G01X8115300Y-3492500D03*
G01X8369300Y-4254500D03*
G01X8369300Y-3492500D03*
G01X8394700Y-12458700D03*
G01X8636000Y-5943600D03*
G01X8636000Y-5435600D03*
G01X10134600Y-16294100D03*
G01X10506913Y-2451100D03*
G01X10642600Y-16294100D03*
G01X11006912Y-2451100D03*
G01X11734800Y-14198600D03*
G01X12242800Y-14198600D03*
G01X13411200Y-12090400D03*
G01X13919200Y-12090400D03*
G01X14736013Y-2425700D03*
G01X15138400Y-9969500D03*
G01X15236012Y-2425700D03*
G01X15646400Y-9969500D03*
G01X16764000Y-7823200D03*
G01X17272000Y-7823200D03*
G01X18364200Y-5740400D03*
G01X18863513Y-2425700D03*
G01X18872200Y-5740400D03*
G01X19363512Y-2425700D03*
G01X20523200Y-1892300D03*
G01X20523200Y-1384300D03*
G54D22*
G01X863600Y-3098800D03*
G01X1378100Y-13702173D03*
G01X1536706Y-13551979D03*
G01X1854200Y-4521200D03*
G01X1955800Y-4622800D03*
G01X2023308Y-12797599D03*
G01X2142307Y-13265899D03*
G01X2387600Y-5041900D03*
G01X2463800Y-3327400D03*
G01X2743200Y-3276600D03*
G01X3179496Y-6360541D03*
G01X3454400Y-6375400D03*
G01X3810000Y-5168900D03*
G01X3987800Y-5892800D03*
G01X4001186Y-2990342D03*
G01X4061308Y-12721399D03*
G01X4191000Y-4216400D03*
G01X4206909Y-3813209D03*
G01X4213708Y-13292899D03*
G01X4368800Y-2971800D03*
G01X4387918Y-3714818D03*
G01X4724400Y-4838700D03*
G01X4953000Y-3251200D03*
G01X5029886Y-4019042D03*
G01X5156200Y-3048000D03*
G01X5270500Y-3136900D03*
G01X5613400Y-6527800D03*
G01X5662600Y-3036900D03*
G01X5755792Y-10996056D03*
G01X5755792Y-7465456D03*
G01X5791200Y-6197600D03*
G01X5816600Y-6324600D03*
G01X5821096Y-7605141D03*
G01X5861695Y-6098159D03*
G01X6019800Y-3822700D03*
G01X6070600Y-2819400D03*
G01X6096686Y-5035042D03*
G01X6151296Y-8214741D03*
G01X6226287Y-6225159D03*
G01X6242695Y-5869559D03*
G01X6302487Y-6301359D03*
G01X6344295Y-5615559D03*
G01X6429487Y-10339959D03*
G01X6481496Y-7654214D03*
G01X6607287Y-6021959D03*
G01X6616700Y-9179941D03*
G01X6674495Y-7520559D03*
G01X6705595Y-5899899D03*
G01X6715608Y-10041699D03*
G01X6717091Y-4929759D03*
G01X6725295Y-6453759D03*
G01X6737995Y-5209159D03*
G01X6743695Y-6103099D03*
G01X6750695Y-7596759D03*
G01X6781800Y-6223000D03*
G01X6811696Y-7451014D03*
G01X6852295Y-6606159D03*
G01X6921500Y-4038600D03*
G01X6934200Y-6604000D03*
G01X6959600Y-6985000D03*
G01X7073900Y-4546600D03*
G01X7089887Y-5463159D03*
G01X7106295Y-5971159D03*
G01X7226300Y-3213100D03*
G01X7360295Y-9771987D03*
G01X7360295Y-6402959D03*
G01X7391400Y-2971800D03*
G01X7394687Y-6555359D03*
G01X7482992Y-6567465D03*
G01X7556500Y-5918200D03*
G01X7588895Y-12016359D03*
G01X7632700Y-5448300D03*
G01X7645400Y-5715000D03*
G01X7658100Y-6019800D03*
G01X7868295Y-11457559D03*
G01X7975600Y-5517642D03*
G01X8156585Y-12725400D03*
G01X8249295Y-8904859D03*
G01X8394700Y-3746500D03*
G01X8501380Y-10994199D03*
G01X8585200Y-3657600D03*
G01X8610600Y-3200400D03*
G01X8640496Y-8519541D03*
G01X8851900Y-3594100D03*
G01X8861908Y-6841299D03*
G01X9014587Y-6917499D03*
G01X9097696Y-8773541D03*
G01X9166987Y-3640899D03*
G01X9201302Y-3352800D03*
G01X9706399Y-2395101D03*
G01X9758096Y-8773541D03*
G01X9776587Y-3259899D03*
G01X9859696Y-8773541D03*
G01X9859696Y-8621141D03*
G01X10061999Y-1405598D03*
G01X10136442Y-3558159D03*
G01X10339642Y-2821559D03*
G01X10401300Y-11988800D03*
G01X10964101Y-2603500D03*
G01X11353800Y-11658600D03*
G01X11379200Y-3213100D03*
G01X11383696Y-8900541D03*
G01X11478108Y-7057199D03*
G01X11503508Y-15515399D03*
G01X11709400Y-2284705D03*
G01X11833708Y-10867199D03*
G01X11840896Y-9256141D03*
G01X13068300Y-3136900D03*
G01X13078308Y-11273599D03*
G01X13096392Y-12302299D03*
G01X13110896Y-9027541D03*
G01X13123596Y-9439719D03*
G01X13248792Y-13165899D03*
G01X13297586Y-9563100D03*
G01X13826698Y-2590998D03*
G01X13887358Y-1482090D03*
G01X14008100Y-2386000D03*
G01X14071600Y-3136900D03*
G01X14380799Y-1440248D03*
G01X14503400Y-8547100D03*
G01X14590751Y-3136900D03*
G01X14592300Y-10845800D03*
G01X14673034Y-8875141D03*
G01X14793087Y-1481899D03*
G01X14920087Y-1451800D03*
G01X15011400Y-10477500D03*
G01X15135708Y-13089699D03*
G01X15365400Y-3189300D03*
G01X15687154Y-9216199D03*
G01X16116300Y-8801100D03*
G01X16249498Y-2514549D03*
G01X16351098Y-2997149D03*
G01X16493698Y-3098998D03*
G01X16494608Y-13305599D03*
G01X16525354Y-9241599D03*
G01X16626954Y-7692199D03*
G01X16697808Y-9317799D03*
G01X17183100Y-11468100D03*
G01X17183100Y-11070399D03*
G01X17697602Y-3251200D03*
G01X17740351Y-3390900D03*
G01X17741900Y-7404100D03*
G01X17904308Y-9139999D03*
G01X18129237Y-9165399D03*
G01X18222087Y-1520190D03*
G01X18241696Y-10907141D03*
G01X18262600Y-5842000D03*
G01X18434202Y-5537200D03*
G01X18513908Y-15350299D03*
G01X18836513Y-669226D03*
G01X18921451Y-3111500D03*
G01X18984087Y-2967800D03*
G01X18984087Y-1697800D03*
G01X19060287Y-1413700D03*
G01X19111087Y-664400D03*
G01X19431000Y-3175000D03*
G01X20009155Y-2481250D03*
G54D23*
G01X3045308Y-12721412D03*
G01X3045308Y-12221413D03*
G01X4277208Y-14220012D03*
G01X4277208Y-13720013D03*
G01X4277208Y-11222812D03*
G01X4277208Y-10722813D03*
G01X4295292Y-12721412D03*
G01X4295292Y-12221413D03*
G01X4406214Y-1584211D03*
G01X4656214Y-1834210D03*
G01X4656214Y-604213D03*
G01X4963008Y-12734112D03*
G01X4963008Y-12234113D03*
G01X5156213Y-1584211D03*
G01X5527192Y-14220012D03*
G01X5527192Y-13720013D03*
G01X5527192Y-11222812D03*
G01X5527192Y-10722813D03*
G01X5656212Y-1834210D03*
G01X5656212Y-604213D03*
G01X5906211Y-1584211D03*
G01X6207608Y-11210112D03*
G01X6207608Y-10710113D03*
G01X6212992Y-12734112D03*
G01X6212992Y-12234113D03*
G01X6233008Y-14220012D03*
G01X6233008Y-13720013D03*
G01X6616014Y-1584211D03*
G01X6866014Y-1834210D03*
G01X6866014Y-604213D03*
G01X7366013Y-1584211D03*
G01X7457592Y-11210112D03*
G01X7457592Y-10710113D03*
G01X7482992Y-14220012D03*
G01X7482992Y-13720013D03*
G01X7866012Y-1834210D03*
G01X7866012Y-604213D03*
G01X8116011Y-1584211D03*
G01X8760308Y-4948987D03*
G01X8760308Y-4448988D03*
G01X8785708Y-6993712D03*
G01X8785708Y-6493713D03*
G01X8798408Y-13331012D03*
G01X8798408Y-12831013D03*
G01X8798408Y-11210112D03*
G01X8798408Y-10710113D03*
G01X8798408Y-9089212D03*
G01X8798408Y-8589213D03*
G01X8811108Y-15451912D03*
G01X8811108Y-14951913D03*
G01X10010292Y-4948987D03*
G01X10010292Y-4448988D03*
G01X10035692Y-6993712D03*
G01X10035692Y-6493713D03*
G01X10048392Y-13331012D03*
G01X10048392Y-12831013D03*
G01X10048392Y-11210112D03*
G01X10048392Y-10710113D03*
G01X10048392Y-9089212D03*
G01X10048392Y-8589213D03*
G01X10061092Y-15451912D03*
G01X10061092Y-14951913D03*
G01X10398608Y-9089212D03*
G01X10398608Y-8589213D03*
G01X10398608Y-6993712D03*
G01X10398608Y-6493713D03*
G01X10411308Y-11210112D03*
G01X10411308Y-10710113D03*
G01X10424008Y-15451912D03*
G01X10424008Y-14951913D03*
G01X10424008Y-13331012D03*
G01X10424008Y-12831013D03*
G01X10424008Y-4961687D03*
G01X10424008Y-4461688D03*
G01X11648592Y-9089212D03*
G01X11648592Y-8589213D03*
G01X11648592Y-6993712D03*
G01X11648592Y-6493713D03*
G01X11661292Y-11210112D03*
G01X11661292Y-10710113D03*
G01X11673992Y-15451912D03*
G01X11673992Y-14951913D03*
G01X11673992Y-13331012D03*
G01X11673992Y-12831013D03*
G01X11673992Y-4961687D03*
G01X11673992Y-4461688D03*
G01X11998808Y-15464612D03*
G01X11998808Y-14964613D03*
G01X11998808Y-11210112D03*
G01X11998808Y-10710113D03*
G01X11998808Y-9101912D03*
G01X11998808Y-8601913D03*
G01X12011508Y-13343712D03*
G01X12011508Y-12843713D03*
G01X12024208Y-7006412D03*
G01X12024208Y-6506413D03*
G01X12024208Y-4949012D03*
G01X12024208Y-4449013D03*
G01X13248792Y-15464612D03*
G01X13248792Y-14964613D03*
G01X13248792Y-11210112D03*
G01X13248792Y-10710113D03*
G01X13248792Y-9101912D03*
G01X13248792Y-8601913D03*
G01X13261492Y-13343712D03*
G01X13261492Y-12843713D03*
G01X13274192Y-7006412D03*
G01X13274192Y-6506413D03*
G01X13274192Y-4949012D03*
G01X13274192Y-4449013D03*
G01X13649808Y-4949012D03*
G01X13649808Y-4449013D03*
G01X13675208Y-9127312D03*
G01X13675208Y-8627313D03*
G01X13675208Y-7019112D03*
G01X13675208Y-6519113D03*
G01X13700608Y-15477312D03*
G01X13700608Y-14977313D03*
G01X13700608Y-13343712D03*
G01X13700608Y-12843713D03*
G01X13700608Y-11222812D03*
G01X13700608Y-10722813D03*
G01X14899792Y-4949012D03*
G01X14899792Y-4449013D03*
G01X14925192Y-9127312D03*
G01X14925192Y-8627313D03*
G01X14925192Y-7019112D03*
G01X14925192Y-6519113D03*
G01X14950592Y-15477312D03*
G01X14950592Y-14977313D03*
G01X14950592Y-13343712D03*
G01X14950592Y-12843713D03*
G01X14950592Y-11222812D03*
G01X14950592Y-10722813D03*
G01X15364308Y-4961712D03*
G01X15364308Y-4461713D03*
G01X15377008Y-7044512D03*
G01X15377008Y-6544513D03*
G01X15402408Y-11248212D03*
G01X15402408Y-10748213D03*
G01X15402408Y-9140012D03*
G01X15402408Y-8640013D03*
G01X15415108Y-15502712D03*
G01X15415108Y-15002713D03*
G01X15415108Y-13369112D03*
G01X15415108Y-12869113D03*
G01X16614292Y-4961712D03*
G01X16614292Y-4461713D03*
G01X16626992Y-7044512D03*
G01X16626992Y-6544513D03*
G01X16652392Y-11248212D03*
G01X16652392Y-10748213D03*
G01X16652392Y-9140012D03*
G01X16652392Y-8640013D03*
G01X16665092Y-15502712D03*
G01X16665092Y-15002713D03*
G01X16665092Y-13369112D03*
G01X16665092Y-12869113D03*
G01X17040708Y-15477312D03*
G01X17040708Y-14977313D03*
G01X17040708Y-13356412D03*
G01X17040708Y-12856413D03*
G01X17040708Y-11235512D03*
G01X17040708Y-10735513D03*
G01X17040708Y-9140012D03*
G01X17040708Y-8640013D03*
G01X17040708Y-7044512D03*
G01X17040708Y-6544513D03*
G01X17053408Y-4949012D03*
G01X17053408Y-4449013D03*
G01X18290692Y-15477312D03*
G01X18290692Y-14977313D03*
G01X18290692Y-13356412D03*
G01X18290692Y-12856413D03*
G01X18290692Y-11235512D03*
G01X18290692Y-10735513D03*
G01X18290692Y-9140012D03*
G01X18290692Y-8640013D03*
G01X18290692Y-7044512D03*
G01X18290692Y-6544513D03*
G01X18303392Y-4949012D03*
G01X18303392Y-4449013D03*
G01X18704408Y-4949012D03*
G01X18704408Y-4449013D03*
G01X18717108Y-7044512D03*
G01X18717108Y-6544513D03*
G01X18729808Y-9140012D03*
G01X18729808Y-8640013D03*
G01X18742508Y-11235512D03*
G01X18742508Y-10735513D03*
G01X18755208Y-15477312D03*
G01X18755208Y-14977313D03*
G01X18755208Y-13356412D03*
G01X18755208Y-12856413D03*
G01X19954392Y-4949012D03*
G01X19954392Y-4449013D03*
G01X19967092Y-7044512D03*
G01X19967092Y-6544513D03*
G01X19979792Y-9140012D03*
G01X19979792Y-8640013D03*
G01X19992492Y-11235512D03*
G01X19992492Y-10735513D03*
G01X20005192Y-15477312D03*
G01X20005192Y-14977313D03*
G01X20005192Y-13356412D03*
G01X20005192Y-12856413D03*
G04 Drill Drawing End*

M02*

