G04 Layer: TopLayer*
G04 EasyEDA Pro v2.2.40.8, 2025-08-17 11:35:06*
G04 Gerber Generator version 0.3*
G04 Scale: 100 percent, Rotated: No, Reflected: No*
G04 Dimensions in millimeters*
G04 Leading zeros omitted, absolute positions, 4 integers and 5 decimals*
G04 Generated by one-click*
%FSLAX45Y45*%
%MOMM*%
%ADD10R,0.6096X0.6096*%
%ADD11C,1.53*%
%ADD12C,1.8*%
%ADD13R,1.0X1.5*%
%ADD14C,1.524*%
%ADD15O,4.59999X2.0*%
%ADD16O,2.0X4.59999*%
%ADD17C,2.2*%
%ADD18O,1.0X2.0*%
%ADD19O,3.0058X3.29999*%
%ADD20O,2.99999X3.29999*%
%ADD21C,1.5*%
%ADD22O,2.38801X0.57399*%
%ADD23R,1.5X1.5*%
%ADD24C,2.49999*%
%ADD25R,3.49999X1.2*%
%ADD26R,1.72799X1.48501*%
%ADD27C,1.7*%
%ADD28R,1.19009X1.72799*%
%ADD29R,1.40668X3.49921*%
%ADD30R,1.5X2.0*%
%ADD31O,1.5X2.0*%
%ADD32O,1.865X0.63*%
%ADD33C,1.6*%
%ADD34C,1.1*%
%ADD35R,0.8X0.8*%
%ADD36R,0.8X0.9*%
%ADD37R,1.41X1.35001*%
%ADD38R,1.37701X1.13254*%
%ADD39R,1.13254X1.37701*%
%ADD40C,0.6096*%
%ADD41C,0.254*%
%ADD42C,0.635*%
%ADD43C,0.889*%
G75*


G04 Pad Start*
G54D10*
G01X1607676Y-1757782D03*
G01X1917700Y-2921000D03*
G01X4216400Y-4737100D03*
G01X11252200Y-2451100D03*
G01X14327926Y-3091630D03*
G01X18901920Y-2460751D03*
G01X5892800Y-5016500D03*
G01X6959600Y-9118600D03*
G01X939800Y-5600700D03*
G01X1193800Y-5600700D03*
G01X7137400Y-4533900D03*
G01X2260600Y-3403600D03*
G01X3035300Y-3403600D03*
G01X3378200Y-3403600D03*
G01X3479800Y-3403600D03*
G01X3759200Y-3403600D03*
G01X1981200Y-3403600D03*
G01X2527300Y-3403600D03*
G01X2755900Y-3403600D03*
G54D11*
G01X939800Y-5283200D03*
G01X1193800Y-5283200D03*
G01X1447800Y-5283200D03*
G01X1701800Y-5283200D03*
G01X3987800Y-4775200D03*
G01X1193800Y-3759200D03*
G01X1955800Y-5283200D03*
G01X2209800Y-5283200D03*
G01X2463800Y-5283200D03*
G01X2717800Y-5283200D03*
G01X2971800Y-5283200D03*
G01X3225800Y-5283200D03*
G01X3479800Y-5283200D03*
G01X3733800Y-5283200D03*
G01X3987800Y-5283200D03*
G01X3987800Y-3759200D03*
G01X3733800Y-3759200D03*
G01X3479800Y-3759200D03*
G01X3225800Y-3759200D03*
G01X2971800Y-3759200D03*
G01X2717800Y-3759200D03*
G01X2463800Y-3759200D03*
G01X2209800Y-3759200D03*
G01X1955800Y-3759200D03*
G01X1701800Y-3759200D03*
G01X1447800Y-3759200D03*
G01X685800Y-5283200D03*
G01X3987800Y-4521200D03*
G01X939800Y-3759200D03*
G01X3987800Y-4013200D03*
G01X3987800Y-4267200D03*
G01X3987800Y-5029200D03*
G01X685800Y-3759200D03*
G54D12*
G01X2870200Y-6489700D03*
G01X3124200Y-6489700D03*
G01X3378200Y-6489700D03*
G01X3632200Y-6489700D03*
G54D13*
G01X9248013Y-5926899D03*
G01X9547987Y-5926899D03*
G01X9547987Y-5426900D03*
G01X9248013Y-5426900D03*
G01X10873613Y-5926899D03*
G01X11173587Y-5926899D03*
G01X11173587Y-5426900D03*
G01X10873613Y-5426900D03*
G01X12473813Y-5926899D03*
G01X12773787Y-5926899D03*
G01X12773787Y-5426900D03*
G01X12473813Y-5426900D03*
G01X14137513Y-5939599D03*
G01X14437487Y-5939599D03*
G01X14437487Y-5439600D03*
G01X14137513Y-5439600D03*
G01X15852013Y-5964999D03*
G01X16151987Y-5964999D03*
G01X16151987Y-5465000D03*
G01X15852013Y-5465000D03*
G01X17528413Y-5964999D03*
G01X17828387Y-5964999D03*
G01X17828387Y-5465000D03*
G01X17528413Y-5465000D03*
G01X19192113Y-5964999D03*
G01X19492087Y-5964999D03*
G01X19492087Y-5465000D03*
G01X19192113Y-5465000D03*
G01X9286113Y-8022399D03*
G01X9586087Y-8022399D03*
G01X9586087Y-7522400D03*
G01X9286113Y-7522400D03*
G01X10886313Y-8022399D03*
G01X11186287Y-8022399D03*
G01X11186287Y-7522400D03*
G01X10886313Y-7522400D03*
G01X12486513Y-8022399D03*
G01X12786487Y-8022399D03*
G01X12786487Y-7522400D03*
G01X12486513Y-7522400D03*
G01X14162913Y-8060499D03*
G01X14462887Y-8060499D03*
G01X14462887Y-7560500D03*
G01X14162913Y-7560500D03*
G01X15852013Y-8073199D03*
G01X16151987Y-8073199D03*
G01X16151987Y-7573200D03*
G01X15852013Y-7573200D03*
G01X17503013Y-8060499D03*
G01X17802987Y-8060499D03*
G01X17802987Y-7560500D03*
G01X17503013Y-7560500D03*
G01X19204813Y-8073199D03*
G01X19504787Y-8073199D03*
G01X19504787Y-7573200D03*
G01X19204813Y-7573200D03*
G01X9286113Y-10143299D03*
G01X9586087Y-10143299D03*
G01X9586087Y-9643300D03*
G01X9286113Y-9643300D03*
G01X10899013Y-10143299D03*
G01X11198987Y-10143299D03*
G01X11198987Y-9643300D03*
G01X10899013Y-9643300D03*
G01X12473813Y-10143299D03*
G01X12773787Y-10143299D03*
G01X12773787Y-9643300D03*
G01X12473813Y-9643300D03*
G01X14162913Y-10155999D03*
G01X14462887Y-10155999D03*
G01X14462887Y-9656000D03*
G01X14162913Y-9656000D03*
G01X15877413Y-10181399D03*
G01X16177387Y-10181399D03*
G01X16177387Y-9681400D03*
G01X15877413Y-9681400D03*
G01X17515713Y-10168699D03*
G01X17815687Y-10168699D03*
G01X17815687Y-9668700D03*
G01X17515713Y-9668700D03*
G01X19217513Y-10168699D03*
G01X19517487Y-10168699D03*
G01X19517487Y-9668700D03*
G01X19217513Y-9668700D03*
G01X9286113Y-12264199D03*
G01X9586087Y-12264199D03*
G01X9586087Y-11764200D03*
G01X9286113Y-11764200D03*
G01X10899013Y-12264199D03*
G01X11198987Y-12264199D03*
G01X11198987Y-11764200D03*
G01X10899013Y-11764200D03*
G01X12473813Y-12264199D03*
G01X12773787Y-12264199D03*
G01X12773787Y-11764200D03*
G01X12473813Y-11764200D03*
G01X14175613Y-12276899D03*
G01X14475587Y-12276899D03*
G01X14475587Y-11776900D03*
G01X14175613Y-11776900D03*
G01X15877413Y-12302299D03*
G01X16177387Y-12302299D03*
G01X16177387Y-11802300D03*
G01X15877413Y-11802300D03*
G01X17515713Y-12289599D03*
G01X17815687Y-12289599D03*
G01X17815687Y-11789600D03*
G01X17515713Y-11789600D03*
G01X19230213Y-12289599D03*
G01X19530187Y-12289599D03*
G01X19530187Y-11789600D03*
G01X19230213Y-11789600D03*
G01X9286113Y-14385099D03*
G01X9586087Y-14385099D03*
G01X9586087Y-13885100D03*
G01X9286113Y-13885100D03*
G01X10911713Y-14385099D03*
G01X11211687Y-14385099D03*
G01X11211687Y-13885100D03*
G01X10911713Y-13885100D03*
G01X12486513Y-14397799D03*
G01X12786487Y-14397799D03*
G01X12786487Y-13897800D03*
G01X12486513Y-13897800D03*
G01X14175613Y-14410499D03*
G01X14475587Y-14410499D03*
G01X14475587Y-13910500D03*
G01X14175613Y-13910500D03*
G01X15877413Y-14423199D03*
G01X16177387Y-14423199D03*
G01X16177387Y-13923200D03*
G01X15877413Y-13923200D03*
G01X17515713Y-14410499D03*
G01X17815687Y-14410499D03*
G01X17815687Y-13910500D03*
G01X17515713Y-13910500D03*
G01X19242913Y-14410499D03*
G01X19542887Y-14410499D03*
G01X19542887Y-13910500D03*
G01X19242913Y-13910500D03*
G01X9273413Y-16505999D03*
G01X9573387Y-16505999D03*
G01X9573387Y-16006000D03*
G01X9273413Y-16006000D03*
G01X10899013Y-16505999D03*
G01X11198987Y-16505999D03*
G01X11198987Y-16006000D03*
G01X10899013Y-16006000D03*
G01X12486513Y-16518699D03*
G01X12786487Y-16518699D03*
G01X12786487Y-16018700D03*
G01X12486513Y-16018700D03*
G01X14162913Y-16531399D03*
G01X14462887Y-16531399D03*
G01X14462887Y-16031400D03*
G01X14162913Y-16031400D03*
G01X15890113Y-16556799D03*
G01X16190087Y-16556799D03*
G01X16190087Y-16056800D03*
G01X15890113Y-16056800D03*
G01X17515713Y-16544099D03*
G01X17815687Y-16544099D03*
G01X17815687Y-16044100D03*
G01X17515713Y-16044100D03*
G01X19293713Y-16531399D03*
G01X19593687Y-16531399D03*
G01X19593687Y-16031400D03*
G01X19293713Y-16031400D03*
G54D14*
G01X5017795Y-2984500D03*
G01X4227805Y-2984500D03*
G54D15*
G01X1035088Y-1757782D03*
G01X1035114Y-1137818D03*
G54D16*
G01X565087Y-1457808D03*
G54D17*
G01X5906199Y-1584211D03*
G01X5656212Y-1834197D03*
G01X5156213Y-1584211D03*
G01X4656214Y-1834197D03*
G01X4406202Y-1584211D03*
G01X5656212Y-604202D03*
G01X4656214Y-604202D03*
G01X8115999Y-1584211D03*
G01X7866012Y-1834197D03*
G01X7366013Y-1584211D03*
G01X6866014Y-1834197D03*
G01X6616002Y-1584211D03*
G01X7866012Y-604202D03*
G01X6866014Y-604202D03*
G54D18*
G01X9706399Y-1710398D03*
G01X10156398Y-880400D03*
G01X10156398Y-1190399D03*
G01X10156398Y-1600398D03*
G54D20*
G01X1503091Y-13874001D03*
G01X2383099Y-13874001D03*
G54D21*
G01X2193107Y-14573999D03*
G01X1943095Y-14573999D03*
G01X1693108Y-14573999D03*
G54D20*
G01X1452291Y-12134101D03*
G01X2332299Y-12134101D03*
G54D21*
G01X2142307Y-12834099D03*
G01X1892295Y-12834099D03*
G01X1642308Y-12834099D03*
G54D20*
G01X1464991Y-10356101D03*
G01X2344999Y-10356101D03*
G54D21*
G01X2155007Y-11056099D03*
G01X1904995Y-11056099D03*
G01X1655008Y-11056099D03*
G54D22*
G01X6938696Y-8951341D03*
G01X6938696Y-8824341D03*
G01X6938696Y-8697341D03*
G01X6938696Y-8570341D03*
G01X6938696Y-8443341D03*
G01X6938696Y-8316341D03*
G01X6938696Y-8189341D03*
G01X6938696Y-8062341D03*
G01X6938696Y-7935341D03*
G01X6938696Y-7808341D03*
G01X6938696Y-7681341D03*
G01X6938696Y-7554341D03*
G01X5989904Y-8951341D03*
G01X5989904Y-8824341D03*
G01X5989904Y-8697341D03*
G01X5989904Y-8570341D03*
G01X5989904Y-8443341D03*
G01X5989904Y-8316341D03*
G01X5989904Y-8189341D03*
G01X5989904Y-8062341D03*
G01X5989904Y-7935341D03*
G01X5989904Y-7808341D03*
G01X5989904Y-7681341D03*
G01X5989904Y-7554341D03*
G01X5988695Y-5132959D03*
G01X5988695Y-5259959D03*
G01X5988695Y-5386959D03*
G01X5988695Y-5513959D03*
G01X5988695Y-5640959D03*
G01X5988695Y-5767959D03*
G01X5988695Y-5894959D03*
G01X5988695Y-6021959D03*
G01X5988695Y-6148959D03*
G01X5988695Y-6275959D03*
G01X5988695Y-6402959D03*
G01X5988695Y-6529959D03*
G01X6937487Y-5132959D03*
G01X6937487Y-5259959D03*
G01X6937487Y-5386959D03*
G01X6937487Y-5513959D03*
G01X6937487Y-5640959D03*
G01X6937487Y-5767959D03*
G01X6937487Y-5894959D03*
G01X6937487Y-6021959D03*
G01X6937487Y-6148959D03*
G01X6937487Y-6275959D03*
G01X6937487Y-6402959D03*
G01X6937487Y-6529959D03*
G54D23*
G01X5397500Y-3098800D03*
G54D21*
G01X5397500Y-3352800D03*
G01X5397500Y-3606800D03*
G01X5397500Y-3860800D03*
G01X6159500Y-3098800D03*
G01X6159500Y-3352800D03*
G01X6159500Y-3606800D03*
G01X6159500Y-3860800D03*
G54D14*
G01X2141499Y-1071905D03*
G01X2141499Y-1271905D03*
G01X2811501Y-1071905D03*
G01X2811501Y-1271905D03*
G01X2376500Y-1391895D03*
G01X2576500Y-1391895D03*
G54D24*
G01X12024208Y-4449000D03*
G01X13274192Y-4449000D03*
G01X12024208Y-4948999D03*
G01X13274192Y-4948999D03*
G01X13649808Y-4449000D03*
G01X14899792Y-4449000D03*
G01X13649808Y-4948999D03*
G01X14899792Y-4948999D03*
G01X15364308Y-4461700D03*
G01X16614292Y-4461700D03*
G01X15364308Y-4961699D03*
G01X16614292Y-4961699D03*
G01X17053408Y-4449000D03*
G01X18303392Y-4449000D03*
G01X17053408Y-4948999D03*
G01X18303392Y-4948999D03*
G01X18704408Y-4449000D03*
G01X19954392Y-4449000D03*
G01X18704408Y-4948999D03*
G01X19954392Y-4948999D03*
G01X8785708Y-6493700D03*
G01X10035692Y-6493700D03*
G01X8785708Y-6993699D03*
G01X10035692Y-6993699D03*
G01X10398608Y-6493700D03*
G01X11648592Y-6493700D03*
G01X10398608Y-6993699D03*
G01X11648592Y-6993699D03*
G01X12024208Y-6506400D03*
G01X13274192Y-6506400D03*
G01X12024208Y-7006399D03*
G01X13274192Y-7006399D03*
G01X13675208Y-6519100D03*
G01X14925192Y-6519100D03*
G01X13675208Y-7019099D03*
G01X14925192Y-7019099D03*
G01X15377008Y-6544500D03*
G01X16626992Y-6544500D03*
G01X15377008Y-7044499D03*
G01X16626992Y-7044499D03*
G01X17040708Y-6544500D03*
G01X18290692Y-6544500D03*
G01X17040708Y-7044499D03*
G01X18290692Y-7044499D03*
G01X18717108Y-6544500D03*
G01X19967092Y-6544500D03*
G01X18717108Y-7044499D03*
G01X19967092Y-7044499D03*
G01X6207608Y-10710100D03*
G01X7457592Y-10710100D03*
G01X6207608Y-11210099D03*
G01X7457592Y-11210099D03*
G01X8798408Y-8589200D03*
G01X10048392Y-8589200D03*
G01X8798408Y-9089199D03*
G01X10048392Y-9089199D03*
G01X10398608Y-8589200D03*
G01X11648592Y-8589200D03*
G01X10398608Y-9089199D03*
G01X11648592Y-9089199D03*
G01X11998808Y-8601900D03*
G01X13248792Y-8601900D03*
G01X11998808Y-9101899D03*
G01X13248792Y-9101899D03*
G01X13675208Y-8627300D03*
G01X14925192Y-8627300D03*
G01X13675208Y-9127299D03*
G01X14925192Y-9127299D03*
G01X15402408Y-8640000D03*
G01X16652392Y-8640000D03*
G01X15402408Y-9139999D03*
G01X16652392Y-9139999D03*
G01X17040708Y-8640000D03*
G01X18290692Y-8640000D03*
G01X17040708Y-9139999D03*
G01X18290692Y-9139999D03*
G01X18729808Y-8640000D03*
G01X19979792Y-8640000D03*
G01X18729808Y-9139999D03*
G01X19979792Y-9139999D03*
G01X8798408Y-10710100D03*
G01X10048392Y-10710100D03*
G01X8798408Y-11210099D03*
G01X10048392Y-11210099D03*
G01X10411308Y-10710100D03*
G01X11661292Y-10710100D03*
G01X10411308Y-11210099D03*
G01X11661292Y-11210099D03*
G01X11998808Y-10710100D03*
G01X13248792Y-10710100D03*
G01X11998808Y-11210099D03*
G01X13248792Y-11210099D03*
G01X13700608Y-10722800D03*
G01X14950592Y-10722800D03*
G01X13700608Y-11222799D03*
G01X14950592Y-11222799D03*
G01X15402408Y-10748200D03*
G01X16652392Y-10748200D03*
G01X15402408Y-11248199D03*
G01X16652392Y-11248199D03*
G01X17040708Y-10735500D03*
G01X18290692Y-10735500D03*
G01X17040708Y-11235499D03*
G01X18290692Y-11235499D03*
G01X18742508Y-10735500D03*
G01X19992492Y-10735500D03*
G01X18742508Y-11235499D03*
G01X19992492Y-11235499D03*
G01X8798408Y-12831000D03*
G01X10048392Y-12831000D03*
G01X8798408Y-13330999D03*
G01X10048392Y-13330999D03*
G01X10424008Y-12831000D03*
G01X11673992Y-12831000D03*
G01X10424008Y-13330999D03*
G01X11673992Y-13330999D03*
G01X12011508Y-12843700D03*
G01X13261492Y-12843700D03*
G01X12011508Y-13343699D03*
G01X13261492Y-13343699D03*
G01X13700608Y-12843700D03*
G01X14950592Y-12843700D03*
G01X13700608Y-13343699D03*
G01X14950592Y-13343699D03*
G01X15415108Y-12869100D03*
G01X16665092Y-12869100D03*
G01X15415108Y-13369099D03*
G01X16665092Y-13369099D03*
G01X17040708Y-12856400D03*
G01X18290692Y-12856400D03*
G01X17040708Y-13356399D03*
G01X18290692Y-13356399D03*
G01X18755208Y-12856400D03*
G01X20005192Y-12856400D03*
G01X18755208Y-13356399D03*
G01X20005192Y-13356399D03*
G01X8811108Y-14951900D03*
G01X10061092Y-14951900D03*
G01X8811108Y-15451899D03*
G01X10061092Y-15451899D03*
G01X10424008Y-14951900D03*
G01X11673992Y-14951900D03*
G01X10424008Y-15451899D03*
G01X11673992Y-15451899D03*
G01X11998808Y-14964600D03*
G01X13248792Y-14964600D03*
G01X11998808Y-15464599D03*
G01X13248792Y-15464599D03*
G01X13700608Y-14977300D03*
G01X14950592Y-14977300D03*
G01X13700608Y-15477299D03*
G01X14950592Y-15477299D03*
G01X15415108Y-15002700D03*
G01X16665092Y-15002700D03*
G01X15415108Y-15502699D03*
G01X16665092Y-15502699D03*
G01X17040708Y-14977300D03*
G01X18290692Y-14977300D03*
G01X17040708Y-15477299D03*
G01X18290692Y-15477299D03*
G01X18755208Y-14977300D03*
G01X20005192Y-14977300D03*
G01X18755208Y-15477299D03*
G01X20005192Y-15477299D03*
G01X4277208Y-10722800D03*
G01X5527192Y-10722800D03*
G01X4277208Y-11222799D03*
G01X5527192Y-11222799D03*
G01X3045308Y-12221400D03*
G01X4295292Y-12221400D03*
G01X3045308Y-12721399D03*
G01X4295292Y-12721399D03*
G01X4277208Y-13720000D03*
G01X5527192Y-13720000D03*
G01X4277208Y-14219999D03*
G01X5527192Y-14219999D03*
G01X6233008Y-13720000D03*
G01X7482992Y-13720000D03*
G01X6233008Y-14219999D03*
G01X7482992Y-14219999D03*
G01X4963008Y-12234100D03*
G01X6212992Y-12234100D03*
G01X4963008Y-12734099D03*
G01X6212992Y-12734099D03*
G54D25*
G01X1180795Y-2298700D03*
G01X1714805Y-2298700D03*
G54D26*
G01X8140700Y-5517642D03*
G01X8140700Y-5836158D03*
G54D27*
G01X3111500Y-1551000D03*
G01X3111500Y-481000D03*
G54D14*
G01X10248900Y-3506495D03*
G01X10248900Y-2716505D03*
G01X15481300Y-2716505D03*
G01X15481300Y-3506495D03*
G01X11252200Y-2716505D03*
G01X11252200Y-3506495D03*
G01X14503400Y-3481095D03*
G01X14503400Y-2691105D03*
G01X18630900Y-3481095D03*
G01X18630900Y-2691105D03*
G01X19596100Y-2691105D03*
G01X19596100Y-3481095D03*
G54D28*
G01X1811299Y-1752600D03*
G01X2100301Y-1752600D03*
G54D18*
G01X11116099Y-1710398D03*
G01X11566098Y-880400D03*
G01X11566098Y-1190399D03*
G01X11566098Y-1600398D03*
G01X13986299Y-1710398D03*
G01X14436298Y-880400D03*
G01X14436298Y-1190399D03*
G01X14436298Y-1600398D03*
G01X15484899Y-1710398D03*
G01X15934898Y-880400D03*
G01X15934898Y-1190399D03*
G01X15934898Y-1600398D03*
G01X18139199Y-1710398D03*
G01X18589198Y-880400D03*
G01X18589198Y-1190399D03*
G01X18589198Y-1600398D03*
G01X19586999Y-1710398D03*
G01X20036998Y-880400D03*
G01X20036998Y-1190399D03*
G01X20036998Y-1600398D03*
G54D24*
G01X10010292Y-4948999D03*
G01X8760308Y-4948999D03*
G01X10010292Y-4449000D03*
G01X8760308Y-4449000D03*
G01X11673992Y-4961699D03*
G01X10424008Y-4961699D03*
G01X11673992Y-4461700D03*
G01X10424008Y-4461700D03*
G54D29*
G01X2966644Y-1879600D03*
G01X2595956Y-1879600D03*
G54D30*
G01X6845300Y-4254500D03*
G54D31*
G01X7099300Y-4254500D03*
G01X7353300Y-4254500D03*
G01X7607300Y-4254500D03*
G01X7861300Y-4254500D03*
G01X8115300Y-4254500D03*
G01X8369300Y-4254500D03*
G01X6845300Y-3492500D03*
G01X7099300Y-3492500D03*
G01X7353300Y-3492500D03*
G01X7607300Y-3492500D03*
G01X7861300Y-3492500D03*
G01X8115300Y-3492500D03*
G01X8369300Y-3492500D03*
G54D32*
G01X10488651Y-2679700D03*
G01X10488651Y-2806700D03*
G01X10488651Y-2933700D03*
G01X10488651Y-3060700D03*
G01X11025149Y-2679700D03*
G01X11025149Y-2806700D03*
G01X11025149Y-2933700D03*
G01X11025149Y-3060700D03*
G01X14717751Y-2654300D03*
G01X14717751Y-2781300D03*
G01X14717751Y-2908300D03*
G01X14717751Y-3035300D03*
G01X15254249Y-2654300D03*
G01X15254249Y-2781300D03*
G01X15254249Y-2908300D03*
G01X15254249Y-3035300D03*
G01X18845251Y-2654300D03*
G01X18845251Y-2781300D03*
G01X18845251Y-2908300D03*
G01X18845251Y-3035300D03*
G01X19381749Y-2654300D03*
G01X19381749Y-2781300D03*
G01X19381749Y-2908300D03*
G01X19381749Y-3035300D03*
G54D13*
G01X18963513Y-1037399D03*
G01X19263487Y-1037399D03*
G01X19263487Y-537400D03*
G01X18963513Y-537400D03*
G01X18963513Y-1837499D03*
G01X19263487Y-1837499D03*
G01X19263487Y-1337500D03*
G01X18963513Y-1337500D03*
G01X14810613Y-1050099D03*
G01X15110587Y-1050099D03*
G01X15110587Y-550100D03*
G01X14810613Y-550100D03*
G01X14823313Y-1837499D03*
G01X15123287Y-1837499D03*
G01X15123287Y-1337500D03*
G01X14823313Y-1337500D03*
G01X10492613Y-1050099D03*
G01X10792587Y-1050099D03*
G01X10792587Y-550100D03*
G01X10492613Y-550100D03*
G01X10492613Y-1837499D03*
G01X10792587Y-1837499D03*
G01X10792587Y-1337500D03*
G01X10492613Y-1337500D03*
G01X7304913Y-12683299D03*
G01X7604887Y-12683299D03*
G01X7604887Y-12183300D03*
G01X7304913Y-12183300D03*
G01X2745613Y-10613199D03*
G01X3045587Y-10613199D03*
G01X3045587Y-10113200D03*
G01X2745613Y-10113200D03*
G01X815213Y-12378499D03*
G01X1115187Y-12378499D03*
G01X1115187Y-11878500D03*
G01X815213Y-11878500D03*
G01X815213Y-14131099D03*
G01X1115187Y-14131099D03*
G01X1115187Y-13631100D03*
G01X815213Y-13631100D03*
G54D33*
G01X8636000Y-5435600D03*
G01X8636000Y-5943600D03*
G01X6210300Y-9281541D03*
G01X6718300Y-9281541D03*
G01X6209091Y-4802759D03*
G01X6717091Y-4802759D03*
G01X1185101Y-2908300D03*
G01X1685100Y-2908300D03*
G01X8101391Y-7215759D03*
G01X7593391Y-7215759D03*
G01X6781800Y-3073400D03*
G01X7289800Y-3073400D03*
G01X11006900Y-2451100D03*
G01X10506901Y-2451100D03*
G01X18872200Y-5740400D03*
G01X18364200Y-5740400D03*
G01X17272000Y-7823200D03*
G01X16764000Y-7823200D03*
G01X15646400Y-9969500D03*
G01X15138400Y-9969500D03*
G01X13919200Y-12090400D03*
G01X13411200Y-12090400D03*
G01X12242800Y-14198600D03*
G01X11734800Y-14198600D03*
G01X10642600Y-16294100D03*
G01X10134600Y-16294100D03*
G01X5524500Y-4330700D03*
G01X5524500Y-4838700D03*
G01X15236000Y-2425700D03*
G01X14736001Y-2425700D03*
G01X19363500Y-2425700D03*
G01X18863501Y-2425700D03*
G01X20523200Y-1892300D03*
G01X20523200Y-1384300D03*
G54D18*
G01X3483399Y-1710398D03*
G01X3933398Y-880400D03*
G01X3933398Y-1190399D03*
G01X3933398Y-1600398D03*
G01X8601499Y-1710398D03*
G01X9051498Y-880400D03*
G01X9051498Y-1190399D03*
G01X9051498Y-1600398D03*
G54D33*
G01X8394700Y-12458700D03*
G01X7886700Y-12458700D03*
G54D34*
G01X4635500Y-4484700D03*
G01X4635500Y-4684700D03*
G54D35*
G01X694754Y-2933713D03*
G01X854647Y-2933687D03*
G54D36*
G01X9175902Y-2578100D03*
G01X9035898Y-2578100D03*
G01X9175902Y-3276600D03*
G01X9035898Y-3276600D03*
G01X16528898Y-3276549D03*
G01X16668902Y-3276549D03*
G01X16528898Y-2590749D03*
G01X16668902Y-2590749D03*
G01X12299798Y-2590800D03*
G01X12439802Y-2590800D03*
G01X13430402Y-2590800D03*
G01X13290398Y-2590800D03*
G01X13430402Y-3289300D03*
G01X13290398Y-3289300D03*
G01X17621402Y-2590800D03*
G01X17481398Y-2590800D03*
G01X17621402Y-3276600D03*
G01X17481398Y-3276600D03*
G01X20605598Y-3276600D03*
G01X20745602Y-3276600D03*
G01X20605598Y-2578100D03*
G01X20745602Y-2578100D03*
G01X7790089Y-6644259D03*
G01X7930093Y-6644259D03*
G01X1263802Y-7797800D03*
G01X1123798Y-7797800D03*
G01X12439802Y-3302000D03*
G01X12299798Y-3302000D03*
G54D37*
G01X1268400Y-6959600D03*
G01X1068400Y-6959600D03*
G54D38*
G01X9664700Y-3176600D03*
G01X9664700Y-3376600D03*
G01X15760700Y-3189300D03*
G01X15760700Y-3389300D03*
G01X11518900Y-3189300D03*
G01X11518900Y-3389300D03*
G01X13906500Y-3176600D03*
G01X13906500Y-3376600D03*
G01X18097500Y-3176600D03*
G01X18097500Y-3376600D03*
G01X19888200Y-3176600D03*
G01X19888200Y-3376600D03*
G01X9956800Y-2287600D03*
G01X9956800Y-2487600D03*
G01X16052800Y-2287600D03*
G01X16052800Y-2487600D03*
G01X11823700Y-2487600D03*
G01X11823700Y-2287600D03*
G01X14211300Y-2287600D03*
G01X14211300Y-2487600D03*
G01X18338800Y-2287600D03*
G01X18338800Y-2487600D03*
G01X20110450Y-2281250D03*
G01X20110450Y-2481250D03*
G01X9664700Y-2287600D03*
G01X9664700Y-2487600D03*
G01X15760700Y-2287600D03*
G01X15760700Y-2487600D03*
G01X11518900Y-2300300D03*
G01X11518900Y-2500300D03*
G01X13906500Y-2287600D03*
G01X13906500Y-2487600D03*
G01X18103850Y-2281250D03*
G01X18103850Y-2481250D03*
G01X19894550Y-2281250D03*
G01X19894550Y-2481250D03*
G54D39*
G01X4773600Y-3822700D03*
G01X4573600Y-3822700D03*
G01X4786300Y-5372100D03*
G01X4586300Y-5372100D03*
G54D38*
G01X4216400Y-2351100D03*
G01X4216400Y-2551100D03*
G01X7645400Y-5602300D03*
G01X7645400Y-5802300D03*
G54D39*
G01X4773600Y-3479800D03*
G01X4573600Y-3479800D03*
G54D38*
G01X9956800Y-3376600D03*
G01X9956800Y-3176600D03*
G01X16052800Y-3189300D03*
G01X16052800Y-3389300D03*
G01X11823700Y-3389300D03*
G01X11823700Y-3189300D03*
G01X14211300Y-3176600D03*
G01X14211300Y-3376600D03*
G01X18326100Y-3176600D03*
G01X18326100Y-3376600D03*
G01X20116800Y-3176600D03*
G01X20116800Y-3376600D03*
G54D39*
G01X4303700Y-5956300D03*
G01X4103700Y-5956300D03*
G01X3313100Y-5956300D03*
G01X3113100Y-5956300D03*
G54D38*
G01X7569200Y-2589200D03*
G01X7569200Y-2389200D03*
G01X6629400Y-2576500D03*
G01X6629400Y-2376500D03*
G01X8128000Y-2589200D03*
G01X8128000Y-2389200D03*
G01X8585200Y-2589200D03*
G01X8585200Y-2389200D03*
G04 Pad End*

G04 Via Start*
G54D40*
G01X4724400Y-4838700D03*
G01X14793087Y-1481899D03*
G01X14380799Y-1440248D03*
G01X9776587Y-3259899D03*
G01X9166987Y-3640899D03*
G01X9014587Y-6917499D03*
G01X8501380Y-10994199D03*
G01X19111087Y-664400D03*
G01X18836513Y-669226D03*
G01X19060287Y-1413700D03*
G01X18222087Y-1520190D03*
G01X14920087Y-1451800D03*
G01X13887358Y-1482090D03*
G01X1536706Y-13551979D03*
G01X1378100Y-13702173D03*
G01X18921451Y-3111500D03*
G01X20009155Y-2481250D03*
G01X13826698Y-2590998D03*
G01X16493698Y-3098998D03*
G01X16351098Y-2997149D03*
G01X16249498Y-2514549D03*
G01X11709400Y-2284705D03*
G01X7632700Y-5448300D03*
G01X7645400Y-5715000D03*
G01X4191000Y-4216400D03*
G01X6717091Y-4929759D03*
G01X2023308Y-12797599D03*
G01X4061308Y-12721399D03*
G01X4213708Y-13292899D03*
G01X6715608Y-10041699D03*
G01X6616700Y-9179941D03*
G01X10136442Y-3558159D03*
G01X10339642Y-2821559D03*
G01X10964101Y-2603500D03*
G01X7391400Y-2971800D03*
G01X6921500Y-4038600D03*
G01X7556500Y-5918200D03*
G01X7658100Y-6019800D03*
G01X18984087Y-2967800D03*
G01X18984087Y-1697800D03*
G01X5861695Y-6098159D03*
G01X6242695Y-5869559D03*
G01X6737995Y-5209159D03*
G01X6725295Y-6453759D03*
G01X6852295Y-6606159D03*
G01X8861908Y-6841299D03*
G01X11478108Y-7057199D03*
G01X6344295Y-5615559D03*
G01X7106295Y-5971159D03*
G01X7360295Y-6402959D03*
G01X8249295Y-8904859D03*
G01X16697808Y-9317799D03*
G01X17904308Y-9139999D03*
G01X6750695Y-7596759D03*
G01X7360295Y-9771987D03*
G01X11833708Y-10867199D03*
G01X13078308Y-11273599D03*
G01X6674495Y-7520559D03*
G01X7588895Y-12016359D03*
G01X15135708Y-13089699D03*
G01X16494608Y-13305599D03*
G01X7868295Y-11457559D03*
G01X11503508Y-15515399D03*
G01X18513908Y-15350299D03*
G01X5755792Y-7465456D03*
G01X5755792Y-10996056D03*
G01X7089887Y-5463159D03*
G01X6429487Y-10339959D03*
G01X6226287Y-6225159D03*
G01X7482992Y-6567465D03*
G01X6302487Y-6301359D03*
G01X7394687Y-6555359D03*
G01X4953000Y-3251200D03*
G01X5156200Y-3048000D03*
G01X5270500Y-3136900D03*
G01X13068300Y-3136900D03*
G01X5662600Y-3036900D03*
G01X15365400Y-3189300D03*
G01X2463800Y-3327400D03*
G01X4387918Y-3714818D03*
G01X2743200Y-3276600D03*
G01X4368800Y-2971800D03*
G01X6070600Y-2819400D03*
G01X19431000Y-3175000D03*
G01X6607287Y-6021959D03*
G01X6743695Y-6103099D03*
G01X863600Y-3098800D03*
G01X7226300Y-3213100D03*
G01X8394700Y-3746500D03*
G01X8851900Y-3594100D03*
G01X9201302Y-3352800D03*
G01X9706399Y-2395101D03*
G01X10061999Y-1405598D03*
G01X14008100Y-2386000D03*
G01X6811696Y-7451014D03*
G01X6481496Y-7654214D03*
G01X2142307Y-13265899D03*
G01X17697602Y-3251200D03*
G01X18434202Y-5537200D03*
G01X18262600Y-5842000D03*
G01X15011400Y-10477500D03*
G01X14592300Y-10845800D03*
G01X7073900Y-4546600D03*
G01X2387600Y-5041900D03*
G01X6705595Y-5899899D03*
G01X8585200Y-3657600D03*
G01X8610600Y-3200400D03*
G01X1854200Y-4521200D03*
G01X4206909Y-3813209D03*
G01X1955800Y-4622800D03*
G01X3810000Y-5168900D03*
G01X6151296Y-8214741D03*
G01X5821096Y-7605141D03*
G01X3179496Y-6360541D03*
G01X3987800Y-5892800D03*
G01X5791200Y-6197600D03*
G01X5816600Y-6324600D03*
G01X6781800Y-6223000D03*
G01X6934200Y-6604000D03*
G01X5613400Y-6527800D03*
G01X6959600Y-6985000D03*
G01X3454400Y-6375400D03*
G01X9859696Y-8773541D03*
G01X9758096Y-8773541D03*
G01X8640496Y-8519541D03*
G01X11383696Y-8900541D03*
G01X13110896Y-9027541D03*
G01X13096392Y-12302299D03*
G01X13248792Y-13165899D03*
G01X9097696Y-8773541D03*
G01X9859696Y-8621141D03*
G01X14673034Y-8875141D03*
G01X16626954Y-7692199D03*
G01X16525354Y-9241599D03*
G01X11840896Y-9256141D03*
G01X13123596Y-9439719D03*
G01X18241696Y-10907141D03*
G01X18129237Y-9165399D03*
G01X15687154Y-9216199D03*
G01X7975600Y-5517642D03*
G01X6096686Y-5035042D03*
G01X5029886Y-4019042D03*
G01X4001186Y-2990342D03*
G01X8156585Y-12725400D03*
G01X11379200Y-3213100D03*
G01X14071600Y-3136900D03*
G01X14590751Y-3136900D03*
G01X17740351Y-3390900D03*
G01X6019800Y-3822700D03*
G01X17741900Y-7404100D03*
G01X16116300Y-8801100D03*
G01X14503400Y-8547100D03*
G01X13297586Y-9563100D03*
G01X10401300Y-11988800D03*
G01X11353800Y-11658600D03*
G01X17183100Y-11070399D03*
G01X17183100Y-11468100D03*
G04 Via End*

G04 Track Start*
G54D41*
G01X19542887Y-14410499D02*
G01X19542887Y-14461299D01*
G01X9400413Y-15879000D02*
G01X9273413Y-16006000D01*
G01X9586087Y-10143299D02*
G01X10399014Y-10143299D01*
G01X10899013Y-9643300D01*
G54D42*
G01X16177387Y-11802300D02*
G01X17028414Y-11802300D01*
G01X9586087Y-13885100D02*
G01X10411714Y-13885100D01*
G01X10911713Y-14385099D01*
G01X14437487Y-5439600D02*
G01X15326614Y-5439600D01*
G01X15852013Y-5964999D01*
G01X11198987Y-11764200D02*
G01X11973814Y-11764200D01*
G01X12473813Y-12264199D01*
G01X12773787Y-5426900D02*
G01X13624814Y-5426900D01*
G54D41*
G01X9586087Y-12264199D02*
G01X9713087Y-12391199D01*
G01X10957687Y-12391199D02*
G01X10983087Y-12365799D01*
G54D42*
G01X9573387Y-16006000D02*
G01X10354501Y-16006000D01*
G01X10642600Y-16294100D02*
G01X10687114Y-16294100D01*
G01X10899013Y-16505999D01*
G01X14462887Y-7560500D02*
G01X15339314Y-7560500D01*
G01X12786487Y-13897800D02*
G01X13662914Y-13897800D01*
G01X14462887Y-9656000D02*
G01X14564487Y-9554400D01*
G01X15655100Y-9960800D02*
G01X15646400Y-9969500D01*
G54D43*
G01X15783687Y-9960800D02*
G01X15783687Y-10087673D01*
G01X15877413Y-10181399D01*
G54D41*
G01X17815687Y-14410499D02*
G01X17714087Y-14308899D01*
G01X17714087Y-13826299D01*
G01X17739487Y-13800899D01*
G01X19133312Y-13800899D01*
G01X19242913Y-13910500D01*
G54D42*
G01X17815687Y-9668700D02*
G01X18717514Y-9668700D01*
G01X19217513Y-10168699D01*
G01X12786487Y-16018700D02*
G01X13650214Y-16018700D01*
G01X14162913Y-16531399D01*
G01X12773787Y-9643300D02*
G01X13650214Y-9643300D01*
G01X11186287Y-7522400D02*
G01X11986514Y-7522400D01*
G01X12486513Y-8022399D01*
G54D41*
G01X17802987Y-8060499D02*
G01X18717514Y-8060499D01*
G01X19204813Y-7573200D01*
G54D42*
G01X14475587Y-13910500D02*
G01X15364714Y-13910500D01*
G01X15877413Y-14423199D01*
G01X16151987Y-5465000D02*
G01X17028414Y-5465000D01*
G01X17528413Y-5964999D01*
G54D41*
G01X16177387Y-10181399D02*
G01X16278987Y-10282999D01*
G01X17599787Y-9752774D02*
G01X17515713Y-9668700D01*
G54D42*
G01X12773787Y-11764200D02*
G01X13593001Y-11764200D01*
G01X13919200Y-12090400D01*
G01X13989114Y-12090400D01*
G01X14175613Y-12276899D01*
G54D41*
G01X14475587Y-14410499D02*
G01X14602587Y-14537499D01*
G01X15948787Y-14537499D01*
G01X15974187Y-14512099D01*
G01X15974187Y-14019974D01*
G01X15877413Y-13923200D01*
G01X16664686Y-7560500D02*
G01X17503013Y-7560500D01*
G54D42*
G01X18872200Y-5740400D02*
G01X18967514Y-5740400D01*
G01X19192113Y-5964999D01*
G54D41*
G01X9573387Y-16505999D02*
G01X9700387Y-16632999D01*
G01X10957814Y-16632999D02*
G01X10983214Y-16607599D01*
G54D42*
G01X9586087Y-7522400D02*
G01X10386314Y-7522400D01*
G01X10886313Y-8022399D01*
G01X16190087Y-16056800D02*
G01X17028414Y-16056800D01*
G01X17515713Y-16544099D01*
G54D41*
G01X19492087Y-5964999D02*
G01X19492087Y-5990399D01*
G01X11160887Y-6828599D02*
G01X10576687Y-7412799D01*
G01X9395714Y-7412799D02*
G01X9286113Y-7522400D01*
G54D42*
G01X16177387Y-13923200D02*
G01X17028414Y-13923200D01*
G01X17815687Y-16044100D02*
G01X18806414Y-16044100D01*
G01X19293713Y-16531399D01*
G01X14475587Y-11776900D02*
G01X15352014Y-11776900D01*
G01X15877413Y-12302299D01*
G01X12242800Y-14198600D02*
G01X12287314Y-14198600D01*
G01X12486513Y-14397799D01*
G54D41*
G01X16177387Y-14423199D02*
G01X16278987Y-14524799D01*
G01X17599787Y-13994574D02*
G01X17515713Y-13910500D01*
G54D42*
G01X11198987Y-9643300D02*
G01X11973814Y-9643300D01*
G01X12473813Y-10143299D01*
G01X11173587Y-5426900D02*
G01X11973814Y-5426900D01*
G01X12473813Y-5926899D01*
G01X9547987Y-5426900D02*
G01X10373614Y-5426900D01*
G01X10873613Y-5926899D01*
G54D41*
G01X12786487Y-14397799D02*
G01X12913487Y-14524799D01*
G01X14234287Y-14524799D02*
G01X14259687Y-14499399D01*
G01X14259687Y-13994574D02*
G01X14175613Y-13910500D01*
G01X11173587Y-5926899D02*
G01X11300587Y-6053899D01*
G01X12519787Y-6053899D01*
G01X12570587Y-6003099D01*
G01X12570587Y-5523674D01*
G01X12473813Y-5426900D01*
G54D42*
G01X17815687Y-11789600D02*
G01X18730214Y-11789600D01*
G01X19230213Y-12289599D01*
G01X17815687Y-13910500D02*
G01X18742914Y-13910500D01*
G01X19242913Y-14410499D01*
G54D41*
G01X19530187Y-12289599D02*
G01X19530187Y-12314999D01*
G01X15974187Y-13153199D02*
G01X15369286Y-13758100D01*
G01X9413113Y-13758100D02*
G01X9286113Y-13885100D01*
G54D42*
G01X16177387Y-9681400D02*
G01X17028414Y-9681400D01*
G54D41*
G01X12773787Y-10143299D02*
G01X12900787Y-10270299D01*
G01X14221587Y-10270299D02*
G01X14246987Y-10244899D01*
G01X14246987Y-9740074D02*
G01X14162913Y-9656000D01*
G01X14475587Y-12276899D02*
G01X14627987Y-12429299D01*
G01X15936214Y-12429299D01*
G01X15961614Y-12403899D01*
G01X15961614Y-11886501D01*
G01X15877413Y-11802300D01*
G54D42*
G01X11198987Y-16006000D02*
G01X11973814Y-16006000D01*
G01X9586087Y-11764200D02*
G01X10399014Y-11764200D01*
G01X10899013Y-12264199D01*
G01X14462887Y-16031400D02*
G01X15364714Y-16031400D01*
G01X15890113Y-16556799D01*
G54D41*
G01X12773787Y-5926899D02*
G01X12900787Y-6053899D01*
G01X14221587Y-5523674D02*
G01X14137513Y-5439600D01*
G01X16177387Y-12302299D02*
G01X16278987Y-12403899D01*
G01X17574387Y-12403899D02*
G01X17599787Y-12378499D01*
G01X17599787Y-11873674D02*
G01X17515713Y-11789600D01*
G54D42*
G01X17405414Y-7823200D02*
G01X17272000Y-7823200D01*
G01X17405414Y-7823200D02*
G01X17405414Y-7962900D01*
G01X17503013Y-8060499D01*
G54D41*
G01X14437487Y-5939599D02*
G01X14589887Y-6091999D01*
G01X15910687Y-6091999D02*
G01X15936087Y-6066599D01*
G01X9586087Y-14385099D02*
G01X9713087Y-14512099D01*
G01X10957687Y-14512099D02*
G01X11008487Y-14461299D01*
G01X11008487Y-13981874D02*
G01X10911713Y-13885100D01*
G01X14462887Y-16531399D02*
G01X14615287Y-16683799D01*
G01X15986887Y-16153574D02*
G01X15890113Y-16056800D01*
G01X14462887Y-10155999D02*
G01X14937486Y-9681400D01*
G01X16151987Y-5964999D02*
G01X16278987Y-6091999D01*
G01X17574387Y-6091999D02*
G01X17625187Y-6041199D01*
G01X17625187Y-5561774D02*
G01X17528413Y-5465000D01*
G01X14462887Y-8060499D02*
G01X14589887Y-8187499D01*
G01X15910687Y-8187499D02*
G01X15936087Y-8162099D01*
G01X15936087Y-7657274D02*
G01X15852013Y-7573200D01*
G01X11198987Y-12264199D02*
G01X11325987Y-12391199D01*
G01X12519787Y-12391199D02*
G01X12570587Y-12340399D01*
G01X12570587Y-11860974D02*
G01X12473813Y-11764200D01*
G01X11698986Y-13897800D02*
G01X12486513Y-13897800D01*
G01X17815687Y-12289599D02*
G01X17942687Y-12416599D01*
G01X19288887Y-12416599D02*
G01X19314287Y-12391199D01*
G01X9586087Y-8022399D02*
G01X9713087Y-8149399D01*
G01X10932287Y-8149399D02*
G01X10983087Y-8098599D01*
G01X10983087Y-7619174D02*
G01X10886313Y-7522400D01*
G01X17828387Y-5964999D02*
G01X18328386Y-5465000D01*
G01X19192113Y-5465000D01*
G01X11198987Y-16505999D02*
G01X11325987Y-16632999D01*
G01X12545187Y-16632999D02*
G01X12570587Y-16607599D01*
G01X12570587Y-16102774D02*
G01X12486513Y-16018700D01*
G01X17815687Y-16544099D02*
G01X17917287Y-16645699D01*
G01X19365087Y-16645699D02*
G01X19390487Y-16620299D01*
G01X19390487Y-16128174D02*
G01X19293713Y-16031400D01*
G01X16190087Y-16556799D02*
G01X16291687Y-16658399D01*
G01X17587087Y-16658399D02*
G01X17612487Y-16632999D01*
G01X17612487Y-16140874D02*
G01X17515713Y-16044100D01*
G01X11198987Y-10143299D02*
G01X11325987Y-10270299D01*
G01X12519787Y-10270299D02*
G01X12570587Y-10219499D01*
G01X12570587Y-9740074D02*
G01X12473813Y-9643300D01*
G01X9547987Y-5926899D02*
G01X9674987Y-6053899D01*
G01X10919587Y-6053899D02*
G01X10970387Y-6003099D01*
G01X10970387Y-5523674D02*
G01X10873613Y-5426900D01*
G01X11186287Y-8022399D02*
G01X11313287Y-8149399D01*
G01X12532487Y-8149399D02*
G01X12583287Y-8098599D01*
G01X12583287Y-7619174D02*
G01X12486513Y-7522400D01*
G01X12786487Y-16518699D02*
G01X12913487Y-16645699D01*
G01X14234287Y-16645699D02*
G01X14259687Y-16620299D01*
G01X14259687Y-16128174D02*
G01X14162913Y-16031400D01*
G01X12786487Y-8022399D02*
G01X13701014Y-8022399D01*
G01X14162913Y-7560500D01*
G01X12773787Y-12264199D02*
G01X12799187Y-12238799D01*
G01X13967587Y-12238799D01*
G01X14119987Y-12391199D01*
G01X14246987Y-12391199D01*
G01X14272387Y-12365799D01*
G01X14272387Y-11873674D02*
G01X14175613Y-11776900D01*
G01X6616002Y-1584211D02*
G01X6616002Y-2363102D01*
G01X6629400Y-2376500D01*
G01X6866014Y-1834197D02*
G01X7014197Y-1834197D01*
G01X7569200Y-2389200D01*
G01X4227805Y-2984500D02*
G01X4227805Y-2562504D01*
G01X4216400Y-2551100D01*
G01X4406202Y-1584211D02*
G01X4406202Y-2161299D01*
G01X4216400Y-4737100D02*
G01X4025900Y-4737100D01*
G01X4216400Y-4737100D02*
G01X4470400Y-4737100D01*
G01X4521200Y-4686300D01*
G01X4633900Y-4686300D02*
G01X4635500Y-4684700D01*
G01X4597400Y-5361000D02*
G01X4586300Y-5372100D01*
G01X4573600Y-3935400D02*
G01X4573600Y-3822700D01*
G01X1447800Y-3759200D02*
G01X1422400Y-3759200D01*
G01X694754Y-3031553D02*
G01X694754Y-2933713D01*
G01X18882487Y-1456499D02*
G01X18882487Y-796099D01*
G01X19060287Y-618299D02*
G01X19060287Y-465899D01*
G01X19009487Y-415099D01*
G01X15428087Y-415099D02*
G01X15174087Y-669099D01*
G01X14929612Y-669099D02*
G01X14810613Y-550100D01*
G01X15110587Y-1050226D02*
G01X14823313Y-1337500D01*
G01X15123287Y-1837499D02*
G01X15123287Y-1812099D01*
G01X14793087Y-1481899D01*
G01X10957687Y-567499D02*
G01X10856087Y-669099D01*
G01X10611612Y-669099D02*
G01X10492613Y-550100D01*
G01X10792587Y-1050099D02*
G01X10780014Y-1050099D01*
G01X10492613Y-1337500D01*
G01X10792587Y-1837499D02*
G01X10233787Y-2396299D01*
G01X9878187Y-2396299D02*
G01X9776587Y-2497899D01*
G01X9166987Y-3640899D02*
G01X9370187Y-3844099D01*
G01X9370187Y-6561899D01*
G01X9014587Y-6917499D01*
G54D42*
G01X19263487Y-537400D02*
G01X19238087Y-537400D01*
G01X19111087Y-664400D01*
G01X14937613Y-923099D02*
G01X14810613Y-1050099D01*
G54D41*
G01X7604887Y-12683299D02*
G01X6741287Y-13546899D01*
G01X4226687Y-13546899D02*
G01X4150487Y-13623099D01*
G01X1280287Y-13623099D02*
G01X1178687Y-13521499D01*
G01X924814Y-13521499D02*
G01X815213Y-13631100D01*
G01X2745613Y-10113200D02*
G01X2847213Y-10214800D01*
G01X1115187Y-12200826D02*
G01X1115187Y-12378499D01*
G01X8128000Y-1803898D02*
G01X8128000Y-2389200D01*
G01X9051498Y-1600398D02*
G01X9051498Y-1922902D01*
G01X17621402Y-2590800D02*
G01X17794300Y-2590800D01*
G01X18103850Y-2281250D01*
G01X18332450Y-2281250D02*
G01X18338800Y-2287600D01*
G01X18630900Y-3481095D02*
G01X18630900Y-2973095D01*
G01X18822695Y-2781300D02*
G01X18845251Y-2781300D01*
G01X18870651Y-2781300D01*
G01X18972251Y-2679700D02*
G01X18972251Y-2628900D01*
G01X18896051Y-2552700D01*
G01X18403900Y-2552700D02*
G01X18338800Y-2487600D01*
G01X18630900Y-2691105D02*
G01X18808446Y-2691105D01*
G01X18427700Y-3275000D02*
G01X18326100Y-3376600D01*
G01X18097500Y-3376600D01*
G01X18845251Y-3035300D02*
G01X18921451Y-3111500D01*
G01X18901920Y-2460751D02*
G01X18898551Y-2460751D01*
G01X18863501Y-2425700D01*
G01X18901920Y-2460751D02*
G01X19188200Y-2460751D01*
G01X19381749Y-2654300D01*
G01X20605598Y-3276600D02*
G01X20605598Y-2776398D01*
G01X20110450Y-2281250D01*
G01X19894550Y-2281250D01*
G01X19596100Y-2691105D02*
G01X19596100Y-2716505D01*
G01X19404305Y-2908300D02*
G01X19381749Y-2908300D01*
G01X20009155Y-2481250D02*
G01X20110450Y-2481250D01*
G01X19700596Y-3376600D02*
G01X19888200Y-3376600D01*
G01X20116800Y-3376600D01*
G01X19367500Y-3150895D02*
G01X19418300Y-3100095D01*
G01X19469100Y-3100095D01*
G01X19519900Y-3049295D01*
G01X19519900Y-3023895D01*
G01X19469100Y-2973095D01*
G01X19280149Y-2973095D01*
G01X19254749Y-2947695D02*
G01X19254749Y-2882900D01*
G01X19356349Y-2781300D02*
G01X19381749Y-2781300D01*
G01X14436298Y-1600398D02*
G01X13852098Y-2184598D01*
G01X12846004Y-2184598D02*
G01X12439802Y-2590800D01*
G01X10156398Y-1600398D02*
G01X10013599Y-1600398D01*
G01X13826698Y-2590998D02*
G01X13750498Y-2667198D01*
G01X13366796Y-2667198D02*
G01X13290398Y-2590800D01*
G01X16493698Y-3098998D02*
G01X16493698Y-3101345D01*
G01X16668902Y-3276549D01*
G01X18589198Y-1600398D02*
G01X18471799Y-1600398D01*
G01X20824398Y-3197804D02*
G01X20745602Y-3276600D01*
G01X9175902Y-2578100D02*
G01X9374200Y-2578100D01*
G01X9664700Y-2287600D02*
G01X9956800Y-2287600D01*
G01X10248900Y-3506495D02*
G01X10248900Y-3023895D01*
G01X10466095Y-2806700D02*
G01X10488651Y-2806700D01*
G01X10514051Y-2806700D01*
G01X10615651Y-2705100D02*
G01X10615651Y-2654300D01*
G01X10539451Y-2578100D01*
G01X10047300Y-2578100D02*
G01X9956800Y-2487600D01*
G01X10248900Y-2716505D02*
G01X10451846Y-2716505D01*
G01X9956800Y-3008605D02*
G01X9956800Y-3176600D01*
G01X9756800Y-3376600D02*
G01X9664700Y-3376600D01*
G01X10488651Y-3060700D02*
G01X10564851Y-3060700D01*
G01X10895051Y-2730500D01*
G01X10895051Y-2562949D02*
G01X11006900Y-2451100D01*
G01X16351098Y-3098749D02*
G01X16351098Y-2997149D01*
G01X16249498Y-2514549D02*
G01X16249498Y-2438349D01*
G01X16098749Y-2287600D01*
G01X16052800Y-2287600D01*
G01X15760700Y-2287600D01*
G01X15481300Y-2716505D02*
G01X15289505Y-2908300D01*
G01X15481300Y-2716505D02*
G01X15823895Y-2716505D01*
G01X16052800Y-2487600D01*
G01X15598496Y-3389300D02*
G01X15760700Y-3389300D01*
G01X16052800Y-3389300D01*
G01X15557500Y-3430295D02*
G01X15506700Y-3430295D01*
G01X15303500Y-3227095D02*
G01X15303500Y-3150895D01*
G01X15379700Y-3074695D02*
G01X15379700Y-2998495D01*
G01X15354300Y-2973095D01*
G01X15151100Y-2973095D01*
G01X15125700Y-2947695D02*
G01X15125700Y-2884449D01*
G01X15215503Y-2794647D02*
G01X15240903Y-2794647D01*
G01X15254249Y-2781300D01*
G01X12299798Y-2590800D02*
G01X11926900Y-2590800D01*
G01X11823700Y-2487600D01*
G01X11706200Y-2487600D01*
G01X11252200Y-2716505D02*
G01X11252200Y-2741905D01*
G01X11709400Y-2284705D02*
G01X11820804Y-2284705D01*
G01X11823700Y-2287600D01*
G01X11369396Y-3389300D02*
G01X11518900Y-3389300D01*
G01X11623700Y-3389300D01*
G01X11823700Y-3189300D01*
G01X10898149Y-2906700D02*
G01X10987952Y-2816897D01*
G01X11014952Y-2816897D02*
G01X11025149Y-2806700D01*
G01X13430402Y-2590800D02*
G01X13603300Y-2590800D01*
G01X13906500Y-2287600D01*
G01X14211300Y-2287600D01*
G01X14503400Y-3481095D02*
G01X14503400Y-2973095D01*
G01X14695195Y-2781300D02*
G01X14717751Y-2781300D01*
G01X14743151Y-2781300D01*
G01X14844751Y-2679700D02*
G01X14844751Y-2628900D01*
G01X14768551Y-2552700D01*
G01X14276400Y-2552700D02*
G01X14211300Y-2487600D01*
G01X14503400Y-2691105D02*
G01X14680946Y-2691105D01*
G01X14503400Y-2691105D02*
G01X14401800Y-2792705D01*
G01X14401800Y-3186100D01*
G01X14211300Y-3376600D01*
G01X13906500Y-3376600D01*
G01X14717751Y-3035300D02*
G01X14753400Y-3035300D01*
G01X15124151Y-2664549D01*
G01X15124151Y-2537549D02*
G01X15236000Y-2425700D01*
G01X15254249Y-2654300D02*
G01X15355849Y-2552700D01*
G01X15355849Y-2374900D02*
G01X15279649Y-2298700D01*
G01X14863001Y-2298700D02*
G01X14736001Y-2425700D01*
G01X7353300Y-4254500D02*
G01X7632700Y-4533900D01*
G01X7645400Y-5715000D02*
G01X7645400Y-5802300D01*
G01X2590800Y-5434000D02*
G01X3113100Y-5956300D01*
G01X3113100Y-6478600D01*
G01X3124200Y-6489700D01*
G01X558800Y-6450000D02*
G01X1068400Y-6959600D01*
G01X1068400Y-7742403D01*
G01X1123798Y-7797800D01*
G01X1422400Y-3987800D02*
G01X1574800Y-3835400D01*
G01X2082800Y-3200400D02*
G01X2768600Y-3200400D01*
G01X2844800Y-3276600D01*
G01X2997200Y-3937000D02*
G01X3784600Y-3937000D01*
G01X3835400Y-3886200D02*
G01X3987800Y-3886200D01*
G01X4013200Y-3860800D01*
G01X4038600Y-3860800D01*
G01X4419600Y-3479800D01*
G01X4191000Y-4013200D02*
G01X4191000Y-4216400D01*
G01X6717091Y-4929759D02*
G01X6734287Y-4929759D01*
G01X6937487Y-5132959D01*
G01X1123798Y-7797800D02*
G01X1123798Y-10524889D01*
G01X1655008Y-11056099D02*
G01X1032708Y-11678399D01*
G01X1401008Y-12834099D02*
G01X1642308Y-12834099D01*
G01X1755008Y-12721399D01*
G01X1947108Y-12721399D01*
G01X2023308Y-12797599D01*
G01X4810608Y-12886499D02*
G01X4963008Y-12734099D01*
G01X4963008Y-12454699D01*
G01X6207608Y-11210099D01*
G01X6715608Y-10702099D01*
G01X10964101Y-2603500D02*
G01X10964101Y-2618651D01*
G01X11025149Y-2679700D01*
G01X7391400Y-2971800D02*
G01X7391400Y-2767000D01*
G01X7569200Y-2589200D01*
G01X8128000Y-2589200D01*
G01X6921500Y-4038600D02*
G01X6972300Y-4089400D01*
G01X6972300Y-4546600D01*
G01X7531100Y-5105400D01*
G01X7531100Y-5892800D02*
G01X7556500Y-5918200D01*
G01X7658100Y-6019800D02*
G01X7658100Y-6372266D01*
G01X7930093Y-6644259D01*
G01X7930093Y-7044461D01*
G01X8101391Y-7215759D01*
G01X19593687Y-16531399D02*
G01X19492087Y-16429799D01*
G01X19492087Y-14727999D02*
G01X19644487Y-14575599D01*
G01X19644487Y-5431600D02*
G01X18984087Y-4771200D01*
G01X18984087Y-1697800D02*
G01X18836513Y-1550226D01*
G01X18963513Y-651574D02*
G01X18963513Y-537400D01*
G01X5988695Y-6148959D02*
G01X5912495Y-6148959D01*
G01X5861695Y-6098159D01*
G01X5988695Y-6021959D02*
G01X6039495Y-6021959D01*
G01X6166495Y-6250559D02*
G01X6395095Y-6479159D01*
G01X6699895Y-6479159D02*
G01X6725295Y-6453759D01*
G01X7341436Y-7095299D02*
G01X7824036Y-7095299D01*
G01X8455508Y-7323899D02*
G01X8785708Y-6993699D01*
G01X8785708Y-6917499D02*
G01X8861908Y-6841299D01*
G01X11871808Y-7158799D02*
G01X12024208Y-7006399D01*
G01X12189308Y-7171499D01*
G01X13522808Y-7171499D02*
G01X13675208Y-7019099D01*
G01X13853008Y-7196899D01*
G01X15224608Y-7196899D02*
G01X15377008Y-7044499D01*
G01X15554808Y-7222299D01*
G01X16862908Y-7222299D02*
G01X17040708Y-7044499D01*
G01X17218508Y-7222299D01*
G01X18539308Y-7222299D02*
G01X18717108Y-7044499D01*
G01X6064895Y-5894959D02*
G01X6344295Y-5615559D01*
G01X7106295Y-5971159D02*
G01X7106295Y-6148959D01*
G01X7360295Y-6402959D01*
G01X8798408Y-9089199D02*
G01X9001608Y-8885999D01*
G01X10195408Y-8885999D01*
G01X10398608Y-9089199D01*
G01X11414608Y-9089199D01*
G01X11998808Y-9101899D02*
G01X12176608Y-9279699D01*
G01X13522808Y-9279699D02*
G01X13675208Y-9127299D01*
G01X16316808Y-9139999D02*
G01X16494608Y-9317799D01*
G01X16697808Y-9317799D01*
G01X17904308Y-9139999D02*
G01X18082108Y-8962199D01*
G01X18552008Y-8962199D01*
G01X18729808Y-9139999D01*
G01X5988695Y-5767959D02*
G01X5937895Y-5767959D01*
G01X5709295Y-6428359D02*
G01X6750695Y-7469759D01*
G01X7436495Y-9771987D02*
G01X8798408Y-11133899D01*
G01X8798408Y-11210099D02*
G01X8976208Y-11387899D01*
G01X10233508Y-11387899D02*
G01X10411308Y-11210099D01*
G01X13548208Y-11375199D02*
G01X13700608Y-11222799D01*
G01X15250008Y-11400599D02*
G01X15402408Y-11248199D01*
G01X15567508Y-11083099D01*
G01X16888308Y-11083099D02*
G01X17040708Y-11235499D01*
G01X17218508Y-11413299D01*
G01X18564708Y-11413299D02*
G01X18742508Y-11235499D01*
G01X5988695Y-5640959D02*
G01X5937895Y-5640959D01*
G01X6674495Y-7469759D02*
G01X6674495Y-7520559D01*
G01X7588895Y-12016359D02*
G01X7614295Y-12016359D01*
G01X7766695Y-12168759D02*
G01X7766695Y-12498959D01*
G01X7868295Y-12600559D01*
G01X8194967Y-12600559D02*
G01X8779167Y-13184759D01*
G01X8779167Y-13311759D01*
G01X8798408Y-13330999D01*
G01X8976208Y-13508799D01*
G01X10246208Y-13508799D02*
G01X10424008Y-13330999D01*
G01X10589108Y-13496099D01*
G01X11859108Y-13496099D02*
G01X12011508Y-13343699D01*
G01X12189308Y-13521499D01*
G01X13522808Y-13521499D02*
G01X13700608Y-13343699D01*
G01X16888308Y-13203999D02*
G01X17040708Y-13356399D01*
G01X17218508Y-13534199D01*
G01X18577408Y-13534199D02*
G01X18755208Y-13356399D01*
G01X5988695Y-5513959D02*
G01X5937895Y-5513959D01*
G01X5506095Y-5945759D02*
G01X5506095Y-6783959D01*
G01X6217295Y-7495159D01*
G01X6217295Y-7647559D02*
G01X6115695Y-7749159D01*
G01X5861695Y-7749159D02*
G01X5785495Y-7825359D01*
G01X5785495Y-9019159D01*
G01X7284095Y-10517759D01*
G01X7284095Y-10771759D01*
G01X7868295Y-11355959D02*
G01X7868295Y-11457559D01*
G01X11846408Y-15616999D02*
G01X11998808Y-15464599D01*
G01X12163908Y-15629699D01*
G01X13548208Y-15629699D02*
G01X13700608Y-15477299D01*
G01X15262708Y-15655099D02*
G01X15415108Y-15502699D01*
G01X16888308Y-15324899D02*
G01X17040708Y-15477299D01*
G01X17218508Y-15299499D01*
G01X18463108Y-15299499D02*
G01X18513908Y-15350299D01*
G01X5988695Y-5259959D02*
G01X5937895Y-5259959D01*
G01X5455295Y-7164959D02*
G01X5755792Y-7465456D01*
G01X5755792Y-10996056D02*
G01X5753936Y-10996056D01*
G01X5527192Y-11222799D01*
G01X6937487Y-5259959D02*
G01X6988287Y-5259959D01*
G01X6429487Y-10339959D02*
G01X6353287Y-10339959D01*
G01X5819887Y-10873359D01*
G01X5819887Y-11152759D01*
G01X4295887Y-12676759D02*
G01X4295292Y-12721399D01*
G01X6937487Y-5386959D02*
G01X6886687Y-5386959D01*
G01X6226287Y-6047359D02*
G01X6226287Y-6225159D01*
G01X6937487Y-5513959D02*
G01X6988287Y-5513959D01*
G01X7470887Y-5996559D02*
G01X7470887Y-6555359D01*
G01X7482992Y-6567465D01*
G01X6937487Y-5640959D02*
G01X6861287Y-5640959D01*
G01X6302487Y-6199759D02*
G01X6302487Y-6301359D01*
G01X6937487Y-5767959D02*
G01X6988287Y-5767959D01*
G01X7420087Y-6199759D02*
G01X7420087Y-6529959D01*
G01X7394687Y-6555359D01*
G01X3759200Y-3403600D02*
G01X3759200Y-3733800D01*
G01X3733800Y-3759200D01*
G01X3911600Y-3251200D02*
G01X4953000Y-3251200D01*
G01X5156200Y-3048000D02*
G01X5283200Y-2921000D01*
G01X5638800Y-2921000D02*
G01X5943600Y-3225800D01*
G01X7010400Y-3225800D02*
G01X7061200Y-3276600D01*
G01X9035898Y-3276600D02*
G01X9239098Y-3479800D01*
G01X9853600Y-3479800D02*
G01X9956800Y-3376600D01*
G01X3479800Y-3403600D02*
G01X3479800Y-3759200D01*
G01X3606800Y-3886200D01*
G01X3860800Y-3784600D02*
G01X3860800Y-3733800D01*
G01X4256100Y-3338500D01*
G01X5246700Y-3338500D01*
G01X5348300Y-3236900D01*
G01X5881700Y-3236900D01*
G01X6110300Y-3465500D01*
G01X6694500Y-3465500D01*
G01X6796100Y-3363900D02*
G01X9056700Y-3363900D01*
G01X9310700Y-3617900D01*
G01X11595100Y-3617900D02*
G01X11823700Y-3389300D01*
G01X12212498Y-3389300D01*
G01X12299798Y-3302000D01*
G01X3378200Y-3403600D02*
G01X3378200Y-3606800D01*
G01X3225800Y-3759200D01*
G01X3606800Y-3175000D02*
G01X5232400Y-3175000D01*
G01X5270500Y-3136900D01*
G01X13068300Y-3136900D02*
G01X13137998Y-3136900D01*
G01X13290398Y-3289300D01*
G01X13391998Y-3187700D02*
G01X13722198Y-3187700D01*
G01X13798398Y-3263900D01*
G01X14124000Y-3263900D02*
G01X14211300Y-3176600D01*
G01X3035300Y-3403600D02*
G01X3035300Y-3695700D01*
G01X3325800Y-3113100D02*
G01X5180000Y-3113100D01*
G01X5307000Y-2986100D01*
G01X5611800Y-2986100D02*
G01X5662600Y-3036900D01*
G01X15951200Y-3290900D02*
G01X16052800Y-3189300D01*
G01X16070351Y-3189300D01*
G01X2260600Y-3403600D02*
G01X2260600Y-3708400D01*
G01X2209800Y-3759200D01*
G01X2260600Y-3403600D02*
G01X2387600Y-3403600D01*
G01X2463800Y-3327400D01*
G01X8305800Y-3733800D02*
G01X8509000Y-3530600D01*
G01X9144000Y-3530600D01*
G01X9296400Y-3683000D01*
G01X17074998Y-3683000D02*
G01X17481398Y-3276600D01*
G01X17557598Y-3352800D01*
G01X17684598Y-3352800D01*
G01X17760798Y-3276600D01*
G01X18226100Y-3276600D02*
G01X18326100Y-3176600D01*
G01X1981200Y-3403600D02*
G01X1981200Y-3733800D01*
G01X1955800Y-3759200D01*
G01X2133600Y-3251200D02*
G01X2717800Y-3251200D01*
G01X2743200Y-3276600D01*
G01X4368800Y-2971800D02*
G01X4521200Y-2819400D01*
G01X6070600Y-2819400D01*
G01X19431000Y-3175000D02*
G01X19532600Y-3276600D01*
G01X20016800Y-3276600D02*
G01X20116800Y-3176600D01*
G01X20294600Y-3354400D01*
G01X20660976Y-3354400D02*
G01X20675600Y-3339777D01*
G01X20675600Y-2648102D02*
G01X20745602Y-2578100D01*
G01X6743695Y-6103099D02*
G01X6891627Y-6103099D01*
G01X6937487Y-6148959D01*
G01X863600Y-2946400D02*
G01X854647Y-2933687D01*
G01X863600Y-2946400D02*
G01X1147001Y-2946400D01*
G01X1185101Y-2908300D01*
G01X1185101Y-2303005D02*
G01X1180795Y-2298700D01*
G01X565087Y-1682991D02*
G01X565087Y-1457808D01*
G01X715124Y-1457808D01*
G01X1035114Y-1137818D01*
G01X2075586Y-1137818D01*
G01X2141499Y-1071905D01*
G01X2811501Y-1071905D02*
G01X3111500Y-771906D01*
G01X3111500Y-481000D01*
G01X3921305Y-1178306D02*
G01X3933398Y-1190399D01*
G01X3517900Y-1178306D02*
G01X3517900Y-1675897D01*
G01X685800Y-5283200D02*
G01X685800Y-5842000D01*
G01X1270000Y-6426200D01*
G01X1270000Y-6958000D02*
G01X1268400Y-6959600D01*
G01X1268400Y-7793203D02*
G01X1263802Y-7797800D01*
G01X1270000Y-6477000D02*
G01X2857500Y-6477000D01*
G01X2870200Y-6489700D01*
G01X3933398Y-1190399D02*
G01X5012413Y-1190399D01*
G01X5656212Y-1834197D01*
G01X6776403Y-3078797D02*
G01X6781800Y-3073400D01*
G01X7086600Y-3073400D01*
G01X7759700Y-4102100D02*
G01X7607300Y-4254500D01*
G01X8140700Y-4000500D02*
G01X8140700Y-4025900D01*
G01X8369300Y-4254500D01*
G01X7607300Y-4254500D02*
G01X7327900Y-3975100D01*
G01X6896100Y-3975100D02*
G01X6845300Y-4025900D01*
G01X6324600Y-4025900D01*
G01X9201302Y-3352800D02*
G01X9201302Y-3302000D01*
G01X9175902Y-3276600D01*
G01X9564700Y-3276600D01*
G01X9664700Y-3176600D01*
G01X9664700Y-2487600D01*
G01X9664700Y-2436800D01*
G01X9706399Y-2395101D01*
G01X10138199Y-1208598D02*
G01X10156398Y-1190399D01*
G01X10156398Y-880400D01*
G01X10400302Y-1591500D02*
G01X10400302Y-1921700D01*
G01X10425702Y-1947100D01*
G01X10552702Y-1947100D01*
G01X10705102Y-1794700D02*
G01X10705102Y-1743900D01*
G01X10781302Y-1667700D01*
G54D42*
G01X10781302Y-1667700D02*
G01X10781302Y-1348786D01*
G54D41*
G01X10781302Y-1348786D02*
G01X10792587Y-1337500D01*
G54D42*
G01X10781302Y-1667700D02*
G01X11073402Y-1667700D01*
G01X11116099Y-1710398D01*
G54D41*
G01X11116099Y-1710398D02*
G01X11166899Y-1710398D01*
G01X11547899Y-1208598D02*
G01X11566098Y-1190399D01*
G01X11566098Y-880400D01*
G01X6209091Y-4802759D02*
G01X6209091Y-5217363D01*
G01X6039495Y-5386959D02*
G01X5988695Y-5386959D01*
G01X11116099Y-1710398D02*
G01X11116099Y-2097499D01*
G01X11518900Y-2500300D01*
G01X11518900Y-3008300D02*
G01X11595100Y-3084500D01*
G01X11595100Y-3113100D01*
G01X12222302Y-3084500D02*
G01X12439802Y-3302000D01*
G01X13151002Y-3302000D02*
G01X13227202Y-3378200D01*
G01X13341502Y-3378200D01*
G01X13430402Y-3289300D01*
G01X13024002Y-3073400D02*
G01X13803300Y-3073400D01*
G01X13906500Y-3176600D01*
G01X13906500Y-2487600D01*
G01X14414500Y-2259000D02*
G01X14414500Y-1801800D01*
G01X14516100Y-1700200D01*
G01X14516100Y-1270201D02*
G01X14436298Y-1190399D01*
G01X14436298Y-880400D01*
G01X14516100Y-1700200D02*
G01X14770100Y-1954200D01*
G01X15484899Y-1710398D02*
G01X15535699Y-1710398D01*
G01X15916699Y-1208598D02*
G01X15934898Y-1190399D01*
G01X15934898Y-880400D01*
G01X15760700Y-2487600D02*
G01X15862300Y-2386000D01*
G01X16116300Y-2386000D02*
G01X16167100Y-2436800D01*
G01X16167100Y-2782900D02*
G01X15760700Y-3189300D01*
G01X16219449Y-2590749D02*
G01X16528898Y-2590749D01*
G01X7468503Y-5385703D02*
G01X7468503Y-5919103D01*
G01X7531100Y-5981700D02*
G01X7531100Y-6515100D01*
G01X7556500Y-6540500D01*
G01X7556500Y-6591300D01*
G01X7505700Y-6642100D01*
G01X7048500Y-6464300D02*
G01X6819900Y-6464300D01*
G01X7048500Y-6464300D02*
G01X7099300Y-6413500D01*
G01X7099300Y-6388100D01*
G01X6987159Y-6275959D02*
G01X6937487Y-6275959D01*
G01X7556500Y-6591300D02*
G01X7737130Y-6591300D01*
G01X7790089Y-6644259D01*
G01X6754241Y-6529959D02*
G01X6754241Y-6606159D01*
G01X7008241Y-6860159D02*
G01X6996151Y-6860159D01*
G01X6887896Y-6968414D02*
G01X6887896Y-7273214D01*
G01X6913296Y-7298614D01*
G01X7607300Y-5981700D02*
G01X7683500Y-5905500D01*
G01X8071358Y-5905500D01*
G01X8140700Y-5836158D01*
G01X8528558Y-5836158D01*
G01X8636000Y-5943600D01*
G01X6913296Y-7425614D02*
G01X6837096Y-7425614D01*
G01X6811696Y-7451014D01*
G01X5989904Y-7808341D02*
G01X5989904Y-7935341D01*
G01X5989904Y-8062341D01*
G01X5989904Y-8189341D01*
G01X5989904Y-8316341D01*
G01X5989904Y-8443341D01*
G01X5989904Y-8570341D01*
G01X5989904Y-8697341D01*
G01X5989904Y-8824341D01*
G01X5939104Y-8824341D01*
G01X5837504Y-8976741D02*
G01X6142304Y-9281541D01*
G01X16528898Y-2590749D02*
G01X16605098Y-2514549D01*
G01X17545152Y-3200349D02*
G01X17621402Y-3276600D01*
G01X17721402Y-3176600D02*
G01X18097500Y-3176600D01*
G01X18097500Y-2487600D02*
G01X18103850Y-2481250D01*
G01X17062298Y-2793949D02*
G01X17062298Y-2787299D01*
G01X18139199Y-1710398D01*
G01X18189999Y-1710398D01*
G01X18570999Y-1208598D02*
G01X18589198Y-1190399D01*
G01X18589198Y-880400D01*
G01X19586999Y-1710398D02*
G01X19637799Y-1710398D01*
G01X20018799Y-1208598D02*
G01X20036998Y-1190399D01*
G01X20036998Y-880400D01*
G01X20468298Y-1329398D02*
G01X20523200Y-1384300D01*
G01X19875251Y-2481250D02*
G01X19894550Y-2481250D01*
G01X19894550Y-3170250D02*
G01X19888200Y-3176600D01*
G01X19713999Y-2319998D02*
G01X19713999Y-2294598D01*
G01X20220496Y-2192998D02*
G01X20605598Y-2578100D01*
G01X1263802Y-7797800D02*
G01X1263802Y-10154912D01*
G01X1464991Y-10356101D01*
G01X2150791Y-10356101D02*
G01X2150791Y-11051883D01*
G01X2155007Y-11056099D01*
G01X3045587Y-10113200D02*
G01X3045587Y-10613199D01*
G01X3045587Y-11420813D01*
G01X2332299Y-12134101D01*
G01X2154499Y-12311901D01*
G01X2154499Y-12821907D02*
G01X2142307Y-12834099D01*
G01X2154499Y-12311901D02*
G01X1630091Y-12311901D01*
G01X1452291Y-12134101D01*
G01X17672202Y-3225800D02*
G01X17697602Y-3251200D01*
G01X18434202Y-5670398D02*
G01X18364200Y-5740400D01*
G01X7137400Y-4533900D02*
G01X7137400Y-4483100D01*
G01X7099300Y-4445000D02*
G01X7099300Y-4254500D01*
G01X7099300Y-4445000D02*
G01X7099300Y-4521200D01*
G01X7073900Y-4546600D01*
G01X9248013Y-5426900D02*
G01X9070213Y-5249100D01*
G01X7698613Y-5549087D02*
G01X7645400Y-5602300D01*
G01X6932546Y-5899899D02*
G01X6937487Y-5894959D01*
G01X8610600Y-3200400D02*
G01X8610600Y-2614600D01*
G01X8585200Y-2589200D01*
G01X8496300Y-2500300D01*
G01X6705600Y-2500300D02*
G01X6629400Y-2576500D01*
G01X939800Y-5600700D02*
G01X939800Y-5283200D01*
G01X6032500Y-3479800D02*
G01X6159500Y-3606800D01*
G01X1295400Y-5283200D02*
G01X1955800Y-4622800D01*
G01X5892800Y-5016500D02*
G01X5892800Y-5037064D01*
G01X5988695Y-5132959D01*
G01X5892800Y-5016500D02*
G01X5435600Y-5473700D01*
G01X4343400Y-5473700D01*
G01X4038600Y-5168900D01*
G01X6959600Y-8972245D02*
G01X6938696Y-8951341D01*
G01X6887896Y-8951341D01*
G01X5821096Y-7605141D02*
G01X4322496Y-7605141D01*
G01X3255696Y-6538341D01*
G01X3255696Y-6436741D02*
G01X3179496Y-6360541D01*
G01X5869559Y-6275959D02*
G01X5988695Y-6275959D01*
G01X5894959Y-6402959D02*
G01X5988695Y-6402959D01*
G01X6781800Y-6223000D02*
G01X6781800Y-6299200D01*
G01X6883400Y-6400800D01*
G01X6935328Y-6400800D02*
G01X6937487Y-6402959D01*
G01X6934200Y-6533246D02*
G01X6937487Y-6529959D01*
G01X5613400Y-6527800D02*
G01X5613400Y-6553200D01*
G01X6959600Y-6985000D02*
G01X7086600Y-7112000D01*
G01X6989496Y-7681341D02*
G01X6938696Y-7681341D01*
G01X1955800Y-5283200D02*
G01X2997200Y-6324600D01*
G01X4125341Y-7681341D02*
G01X5989904Y-7681341D01*
G01X3454400Y-6375400D02*
G01X3505200Y-6426200D01*
G01X3505200Y-6553200D01*
G01X4480941Y-7528941D02*
G01X5964504Y-7528941D01*
G01X6938696Y-7935341D02*
G01X7929296Y-7935341D01*
G01X10033851Y-6995541D02*
G01X10035692Y-6993699D01*
G01X8843696Y-7147941D02*
G01X8843696Y-7757541D01*
G01X9021496Y-6995541D02*
G01X8996096Y-6995541D01*
G01X8945296Y-6944741D01*
G01X8945296Y-6411341D01*
G01X9326296Y-6030341D01*
G01X6938696Y-8062341D02*
G01X9046896Y-8062341D01*
G01X9758096Y-8773541D01*
G01X6938696Y-8189341D02*
G01X8310296Y-8189341D01*
G01X11543791Y-8900541D02*
G01X11594591Y-8849741D01*
G01X12221896Y-8849741D02*
G01X12450496Y-9078341D01*
G01X13225234Y-9078341D02*
G01X13248792Y-9101899D01*
G01X13110896Y-9078341D02*
G01X13110896Y-9027541D01*
G01X13096392Y-12911899D02*
G01X13248792Y-13064299D01*
G01X6938696Y-8316341D02*
G01X8259496Y-8316341D01*
G01X8716696Y-8773541D01*
G01X9859696Y-8621141D02*
G01X10012096Y-8773541D01*
G01X11231296Y-8773541D02*
G01X11586896Y-8417941D01*
G01X14203096Y-8417941D02*
G01X14660296Y-8875141D01*
G01X14673034Y-8875141D01*
G01X6938696Y-8570341D02*
G01X6938696Y-8443341D01*
G01X6938696Y-8570341D02*
G01X8411896Y-8570341D01*
G01X8676754Y-8835199D01*
G01X11496154Y-8835199D02*
G01X11546954Y-8784399D01*
G01X14391754Y-8784399D02*
G01X14544154Y-8936799D01*
G01X16322154Y-8936799D01*
G01X16525354Y-9139999D01*
G01X16626954Y-9139999D02*
G01X16474554Y-8987599D01*
G01X16474554Y-7844599D02*
G01X16626954Y-7692199D01*
G01X16550754Y-9139999D02*
G01X16550754Y-9216199D01*
G01X16525354Y-9241599D01*
G01X6938696Y-8697341D02*
G01X7954696Y-8697341D01*
G01X17759096Y-9510141D02*
G01X18129237Y-9139999D01*
G01X18290692Y-9139999D01*
G01X17530496Y-9510141D02*
G01X17733696Y-9713341D01*
G01X17733696Y-10399141D01*
G01X18241696Y-10907141D01*
G01X18129237Y-9139999D02*
G01X18129237Y-9165399D01*
G01X2527300Y-3403600D02*
G01X2527300Y-3695700D01*
G01X2844800Y-5488000D02*
G01X3313100Y-5956300D01*
G01X3378200Y-6021400D01*
G01X3378200Y-6489700D01*
G01X3378200Y-6021400D02*
G01X4038600Y-6021400D01*
G01X4103700Y-5956300D01*
G01X2755900Y-3403600D02*
G01X2755900Y-3721100D01*
G01X2717800Y-3759200D02*
G01X3606800Y-4648200D01*
G01X3606800Y-5308600D02*
G01X4140200Y-5842000D01*
G01X4165600Y-5842000D01*
G01X4279900Y-5956300D02*
G01X4303700Y-5956300D01*
G01X4267200Y-5943600D02*
G01X4267200Y-5969000D01*
G01X3759200Y-6477000D02*
G01X3644900Y-6477000D01*
G01X3632200Y-6489700D01*
G01X1697800Y-2921000D02*
G01X1685100Y-2908300D01*
G01X1714805Y-2298700D02*
G01X2095805Y-1917700D01*
G01X2095805Y-1757096D02*
G01X2100301Y-1752600D01*
G01X2095805Y-1866900D02*
G01X2578405Y-1866900D01*
G01X2595956Y-1879600D01*
G01X2578405Y-1393800D02*
G01X2576500Y-1391895D01*
G01X2691511Y-1391895D01*
G01X2811501Y-1271905D01*
G01X2832405Y-1271905D01*
G01X3111500Y-1551000D01*
G01X1806118Y-1757782D02*
G01X1811299Y-1752600D01*
G54D42*
G01X9248013Y-5926899D02*
G01X9127300Y-5926899D01*
G01X8636000Y-5435600D02*
G01X8222742Y-5435600D01*
G01X8140700Y-5517642D01*
G54D41*
G01X11252200Y-2451100D02*
G01X11379200Y-2578100D01*
G01X11252200Y-2451100D02*
G01X11125200Y-2324100D01*
G01X10668000Y-2628900D02*
G01X10668000Y-2781300D01*
G01X10515600Y-2933700D01*
G01X11176000Y-2959100D02*
G01X11176000Y-2984500D01*
G01X11379200Y-3187700D01*
G01X11379200Y-3213100D01*
G01X14071600Y-3136900D02*
G01X14116870Y-3091630D01*
G01X14327926Y-3091630D01*
G01X14590751Y-3009900D02*
G01X14692351Y-2908300D01*
G01X15178049Y-3111500D02*
G01X15254249Y-3035300D01*
G01X18667451Y-3594100D02*
G01X18743651Y-3517900D01*
G01X18743651Y-3086100D01*
G01X18718251Y-3060700D01*
G01X18718251Y-3009900D02*
G01X18819851Y-2908300D01*
G01X19150051Y-2908300D02*
G01X19277051Y-3035300D01*
G01X6019800Y-3822700D02*
G01X5867400Y-3975100D01*
G01X5232400Y-3975100D02*
G01X5080000Y-3822700D01*
G01X4800600Y-5357800D02*
G01X4786300Y-5372100D01*
G01X6164212Y-2342197D02*
G01X6164212Y-3078797D01*
G01X6164212Y-3094088D01*
G01X12998602Y-3302000D02*
G01X13151002Y-3302000D01*
G01X16167100Y-2436800D02*
G01X16167100Y-2538400D01*
G01X16167100Y-2782900D01*
G01X7008241Y-6860159D02*
G01X7363841Y-7215759D01*
G01X6913296Y-7298614D02*
G01X6913296Y-7425614D01*
G01X6913296Y-7528941D01*
G01X16782898Y-2514549D02*
G01X17062298Y-2793949D01*
G01X17468698Y-3200349D01*
G01X13248792Y-13064299D02*
G01X13248792Y-13165899D01*
G01X13248792Y-13330999D01*
G01X17530496Y-9510141D02*
G01X17759096Y-9510141D01*
G01X14590751Y-3136900D02*
G01X14590751Y-3111500D01*
G54D42*
G01X4001186Y-2990342D02*
G01X4001186Y-2914142D01*
G01X2966644Y-1879600D01*
G01X17828387Y-5490400D02*
G01X17735487Y-5583301D01*
G01X17735487Y-6094076D02*
G01X17750110Y-6108700D01*
G01X18529300Y-6108700D01*
G01X18872200Y-5765800D01*
G01X17828387Y-5465000D02*
G01X17828387Y-5490400D01*
G01X18872200Y-5765800D02*
G01X18872200Y-5740400D01*
G01X17735487Y-5583301D02*
G01X17735487Y-5866446D01*
G01X17731397Y-5870536D01*
G01X17731397Y-6059463D01*
G01X17735487Y-6063553D01*
G01X17735487Y-6094076D01*
G01X19479387Y-5465000D02*
G01X19314287Y-5299900D01*
G01X12825541Y-5299900D01*
G01X12817851Y-5292211D01*
G01X12678923Y-5292211D01*
G01X12671233Y-5299900D01*
G01X12670600Y-5299900D01*
G01X12608687Y-5361813D01*
G01X9230487Y-7357300D02*
G01X9179687Y-7408100D01*
G01X9179687Y-7928674D01*
G01X9273413Y-8022399D01*
G01X19492087Y-5465000D02*
G01X19479387Y-5465000D01*
G01X9273413Y-8022399D02*
G01X9286113Y-8022399D01*
G01X12608687Y-5361813D02*
G01X12608687Y-5477360D01*
G01X12630277Y-5498950D01*
G01X11567287Y-6315900D02*
G01X10530078Y-7353109D01*
G01X9370990Y-7353109D01*
G01X9366799Y-7357300D01*
G01X9230487Y-7357300D01*
G01X12630277Y-6027824D02*
G01X12342200Y-6315900D01*
G01X12786487Y-7509700D02*
G01X12862687Y-7433500D01*
G01X14234287Y-7433500D01*
G01X14259687Y-7458900D01*
G01X12786487Y-7522400D02*
G01X12786487Y-7509700D01*
G01X14162913Y-8047799D02*
G01X14162913Y-8060499D01*
G01X14259687Y-7458900D02*
G01X14259687Y-7465821D01*
G01X14259903Y-7466037D01*
G01X14259903Y-7654964D01*
G01X14259687Y-7655180D01*
G01X14259687Y-7951025D01*
G01X16151987Y-7560500D02*
G01X16276574Y-7435913D01*
G01X17576800Y-7435913D01*
G01X17602200Y-7461313D01*
G01X17602200Y-7613713D01*
G01X16151987Y-7573200D02*
G01X16151987Y-7560500D01*
G01X17602200Y-7613713D02*
G01X17600003Y-7615911D01*
G01X17600003Y-7654964D02*
G01X17444467Y-7810500D01*
G01X17418114Y-7810500D01*
G01X17405414Y-7823200D01*
G01X17802987Y-7547800D02*
G01X17904587Y-7446200D01*
G01X19276187Y-7446200D01*
G01X19316700Y-7486713D01*
G01X19316700Y-7948612D01*
G01X17802987Y-7560500D02*
G01X17802987Y-7547800D01*
G01X19204813Y-8060499D02*
G01X19204813Y-8073199D01*
G54D41*
G01X6938696Y-8811641D02*
G01X8005496Y-8811641D01*
G01X15568854Y-9321800D02*
G01X15687154Y-9203499D01*
G01X8524354Y-9330499D02*
G01X9262301Y-9330499D01*
G01X9271000Y-9321800D01*
G01X15568854Y-9321800D01*
G54D42*
G01X19504787Y-7573200D02*
G01X19504787Y-7497000D01*
G01X19352387Y-7344600D01*
G01X17827433Y-7344600D01*
G01X15484538Y-8801100D02*
G01X15473648Y-8811990D01*
G01X16116300Y-8801100D02*
G01X15484538Y-8801100D01*
G01X16002000Y-9742487D02*
G01X15974403Y-9770085D01*
G01X15974403Y-9775864D01*
G01X15946877Y-9803390D01*
G01X15941097Y-9803390D01*
G01X15783687Y-9960800D01*
G01X16002000Y-9601200D02*
G01X16002000Y-9742487D01*
G01X15955201Y-9554400D02*
G01X16002000Y-9601200D01*
G54D41*
G01X13173427Y-9485710D02*
G01X17518765Y-9485710D01*
G01X17530496Y-9497441D01*
G01X17530496Y-9510141D01*
G01X19555587Y-10206799D02*
G01X19555587Y-10232199D01*
G01X19517487Y-10168699D02*
G01X19555587Y-10206799D01*
G54D42*
G01X19517487Y-9668700D02*
G01X19517487Y-9694100D01*
G01X19405600Y-9805987D01*
G01X19405600Y-10237787D01*
G01X11770166Y-10989500D02*
G01X11751497Y-11008169D01*
G01X10939018Y-11008169D01*
G01X10373487Y-11573700D01*
G01X9286113Y-12238799D02*
G01X9286113Y-12264199D01*
G54D41*
G01X17815687Y-10194099D02*
G01X17917287Y-10295699D01*
G01X19288887Y-9765474D02*
G01X19217513Y-9694100D01*
G01X17815687Y-10168699D02*
G01X17815687Y-10194099D01*
G01X19217513Y-9694100D02*
G01X19217513Y-9668700D01*
G01X19295453Y-10255272D02*
G01X19295453Y-10082127D01*
G01X19288887Y-10075561D01*
G01X19288887Y-9765474D01*
G01X17917287Y-10295699D02*
G01X19255026Y-10295699D01*
G01X19295453Y-10255272D01*
G54D42*
G01X15331167Y-8811990D02*
G01X15230418Y-8711241D01*
G01X14996433Y-8455311D02*
G01X14853952Y-8455311D01*
G01X14762163Y-8547100D01*
G01X14503400Y-8547100D01*
G01X15473648Y-8811990D02*
G01X15331167Y-8811990D01*
G01X15230418Y-8711241D02*
G01X15230418Y-8689296D01*
G01X14996433Y-8455311D01*
G54D41*
G01X13123596Y-9439719D02*
G01X13127436Y-9439719D01*
G01X13173427Y-9485710D01*
G01X13700608Y-9127299D02*
G01X13853008Y-9279699D01*
G01X15262708Y-9279699D02*
G01X15402408Y-9139999D01*
G01X13853008Y-9279699D02*
G01X14861303Y-9279699D01*
G01X14861843Y-9280239D01*
G01X14988542Y-9280239D01*
G01X14989082Y-9279699D01*
G01X15262708Y-9279699D01*
G54D42*
G01X9189123Y-12141810D02*
G01X9286113Y-12238799D01*
G01X10373487Y-11573700D02*
G01X9285159Y-11573700D01*
G01X9189123Y-11669737D01*
G01X11211687Y-13897800D02*
G01X11110087Y-13999400D01*
G01X11110087Y-14482000D02*
G01X11135487Y-14507400D01*
G01X11946700Y-14507400D01*
G01X12242800Y-14211300D01*
G01X11211687Y-13885100D02*
G01X11211687Y-13897800D01*
G01X12242800Y-14211300D02*
G01X12242800Y-14198600D01*
G01X19542887Y-13885100D02*
G01X19390487Y-13732700D01*
G01X16164687Y-13732700D01*
G01X16037687Y-13859700D01*
G01X9171813Y-16378999D02*
G01X9273413Y-16480599D01*
G01X19542887Y-13910500D02*
G01X19542887Y-13885100D01*
G01X9273413Y-16480599D02*
G01X9273413Y-16505999D01*
G01X16037687Y-14494700D02*
G01X16033877Y-14498510D01*
G01X15351887Y-14799500D02*
G01X15122582Y-15028805D01*
G01X15122582Y-15048541D01*
G01X9832213Y-15256700D02*
G01X9204903Y-15884011D01*
G01X9203949Y-15884011D01*
G01X9176423Y-15911537D01*
G01X9176423Y-15912490D01*
G01X9171813Y-15917100D01*
G01X16033877Y-14536824D02*
G01X15771200Y-14799500D01*
G01X15122582Y-15048541D02*
G01X14914423Y-15256700D01*
G01X9832213Y-15256700D01*
G01X19606387Y-16018700D02*
G01X19606387Y-14761400D01*
G01X20891500Y-13476287D02*
G01X20891500Y-2247900D01*
G01X20535900Y-1892300D01*
G01X19593687Y-16031400D02*
G01X19606387Y-16018700D01*
G01X20535900Y-1892300D02*
G01X20523200Y-1892300D01*
G01X20523200Y-1866900D02*
G01X20637500Y-1752600D01*
G01X19977100Y-736600D02*
G01X19799300Y-914400D01*
G01X19061113Y-914400D01*
G01X18963513Y-1011999D01*
G01X20523200Y-1892300D02*
G01X20523200Y-1866900D01*
G01X18963513Y-1011999D02*
G01X18963513Y-1037399D01*
G01X20637500Y-1752600D02*
G01X20637500Y-1449591D01*
G01X20650190Y-1436901D01*
G01X20650190Y-1331699D02*
G01X20637500Y-1319009D01*
G01X20637500Y-1295400D01*
G01X20133988Y-791888D01*
G01X20133988Y-790225D01*
G01X20077173Y-733410D01*
G01X19996824Y-733410D01*
G01X19993634Y-736600D01*
G01X19977100Y-736600D01*
G01X18757900Y-1631886D02*
G01X18963513Y-1837499D01*
G01X18836513Y-669226D02*
G01X18757900Y-747839D01*
G01X18757900Y-1631886D01*
G01X19149187Y-1337500D02*
G01X19072987Y-1413700D01*
G01X19060503Y-1413700D01*
G01X15975073Y-733410D02*
G01X15894724Y-733410D01*
G01X15837908Y-790225D01*
G01X15837908Y-810077D01*
G01X15724886Y-923099D01*
G01X15085187Y-550100D02*
G01X14958187Y-423100D01*
G01X14696313Y-473900D02*
G01X14696313Y-1735899D01*
G01X14797913Y-1837499D01*
G01X15110587Y-550100D02*
G01X15085187Y-550100D01*
G01X14797913Y-1837499D02*
G01X14823313Y-1837499D01*
G01X14747113Y-423100D02*
G01X14742103Y-428111D01*
G01X14741149Y-428111D01*
G01X14713623Y-455637D01*
G01X14713623Y-456590D01*
G01X14696313Y-473900D01*
G01X15123287Y-1350200D02*
G01X15047087Y-1426400D01*
G01X15123287Y-1337500D02*
G01X15123287Y-1350200D01*
G01X15047087Y-1426400D02*
G01X14945487Y-1426400D01*
G01X14920087Y-1451800D01*
G54D41*
G01X14380799Y-1440248D02*
G01X14368853Y-1440248D01*
G01X13496104Y-567499D01*
G54D42*
G01X13861958Y-1482090D02*
G01X13854147Y-1489900D01*
G01X12380087Y-1489900D01*
G01X11610086Y-719899D02*
G01X11533886Y-719899D01*
G01X11356086Y-897699D01*
G01X10619613Y-897699D01*
G01X10492613Y-1024699D01*
G01X13887359Y-1482090D02*
G01X13861958Y-1482090D01*
G01X10492613Y-1024699D02*
G01X10492613Y-1050099D01*
G01X10767187Y-550100D02*
G01X10640187Y-423100D01*
G01X10411587Y-423100D01*
G01X10386187Y-448500D01*
G01X10386187Y-1464500D01*
G01X10467213Y-1545526D01*
G01X10467213Y-1812099D01*
G01X10792587Y-550100D02*
G01X10767187Y-550100D01*
G01X10467213Y-1812099D02*
G01X10492613Y-1837499D01*
G01X2344999Y-10356101D02*
G01X2344999Y-10305301D01*
G01X2675199Y-9975101D01*
G01X2932887Y-9975101D01*
G01X3045587Y-10087800D01*
G01X3045587Y-10113200D01*
G54D41*
G01X764413Y-11878500D02*
G01X612013Y-12030900D01*
G01X612013Y-14164500D02*
G01X688213Y-14240700D01*
G01X954786Y-14240700D02*
G01X1064387Y-14131099D01*
G01X815213Y-11878500D02*
G01X764413Y-11878500D01*
G54D42*
G01X802513Y-12378499D02*
G01X688213Y-12492799D01*
G01X688213Y-13711999D01*
G01X739013Y-13762799D01*
G01X970788Y-13762799D01*
G01X815213Y-12378499D02*
G01X802513Y-12378499D01*
G01X1102487Y-13631100D02*
G01X1115187Y-13631100D01*
G01X1244600Y-13779500D02*
G01X1166813Y-13779500D01*
G01X1378100Y-13702173D02*
G01X1321927Y-13702173D01*
G01X1244600Y-13779500D01*
G54D41*
G01X4277208Y-12886499D02*
G01X4213708Y-12949999D01*
G01X4213708Y-13292899D01*
G54D42*
G01X7592187Y-12183300D02*
G01X6326188Y-13449300D01*
G01X4216400Y-13449300D01*
G01X4113721Y-13551979D01*
G01X7604887Y-12183300D02*
G01X7592187Y-12183300D01*
G01X9127300Y-5926899D02*
G01X8636000Y-5435600D01*
G01X15986963Y-745299D02*
G01X15975073Y-733410D01*
G01X18222087Y-1520190D02*
G01X17447197Y-745299D01*
G01X15986963Y-745299D01*
G54D41*
G01X8547100Y-3594100D02*
G01X8851900Y-3594100D01*
G01X8394700Y-3746500D02*
G01X8547100Y-3594100D01*
G01X8585200Y-4216400D02*
G01X8585200Y-3657600D01*
G01X8394700Y-4406900D02*
G01X8585200Y-4216400D01*
G01X8267700Y-4406900D02*
G01X8394700Y-4406900D01*
G01X8115300Y-4254500D02*
G01X8267700Y-4406900D01*
G01X3581400Y-5892800D02*
G01X3987800Y-5892800D01*
G01X2387600Y-5207000D02*
G01X2463800Y-5283200D01*
G01X2387600Y-5041900D02*
G01X2387600Y-5207000D01*
G01X18434202Y-5537200D02*
G01X18434202Y-5670398D01*
G01X6591300Y-4508500D02*
G01X6297041Y-4802759D01*
G01X6845300Y-4254500D02*
G01X6591300Y-4508500D01*
G01X6324600Y-4025900D02*
G01X6159500Y-3860800D01*
G01X7327900Y-3975100D02*
G01X6896100Y-3975100D01*
G01X8039100Y-4102100D02*
G01X7759700Y-4102100D01*
G01X5307000Y-2986100D02*
G01X5611800Y-2986100D01*
G01X5819887Y-11152759D02*
G01X4295887Y-12676759D01*
G01X17218508Y-15299499D02*
G01X18463108Y-15299499D01*
G01X15592908Y-15324899D02*
G01X16888308Y-15324899D01*
G01X15415108Y-15502699D02*
G01X15592908Y-15324899D01*
G01X13878408Y-15655099D02*
G01X15262708Y-15655099D01*
G01X13700608Y-15477299D02*
G01X13878408Y-15655099D01*
G01X12163908Y-15629699D02*
G01X13548208Y-15629699D01*
G01X11605108Y-15616999D02*
G01X11846408Y-15616999D01*
G01X17218508Y-13534199D02*
G01X18577408Y-13534199D01*
G01X16596208Y-13203999D02*
G01X16888308Y-13203999D01*
G01X12189308Y-13521499D02*
G01X13522808Y-13521499D01*
G01X10589108Y-13496099D02*
G01X11859108Y-13496099D01*
G01X8976208Y-13508799D02*
G01X10246208Y-13508799D01*
G01X7614295Y-12016359D02*
G01X7766695Y-12168759D01*
G01X5658495Y-6453759D02*
G01X6674495Y-7469759D01*
G01X17218508Y-7222299D02*
G01X18539308Y-7222299D01*
G01X15554808Y-7222299D02*
G01X16862908Y-7222299D01*
G01X13853008Y-7196899D02*
G01X15224608Y-7196899D01*
G01X12189308Y-7171499D02*
G01X13522808Y-7171499D01*
G01X11579708Y-7158799D02*
G01X11871808Y-7158799D01*
G54D42*
G01X20650190Y-1436901D02*
G01X20650190Y-1331699D01*
G54D41*
G01X4800600Y-3822700D02*
G01X4800600Y-5357800D01*
G01X5867400Y-3975100D02*
G01X5232400Y-3975100D01*
G01X18845251Y-2908300D02*
G01X19150051Y-2908300D01*
G01X17943551Y-3594100D02*
G01X18667451Y-3594100D01*
G01X17740351Y-3390900D02*
G01X17943551Y-3594100D01*
G01X14590751Y-3111500D02*
G01X14590751Y-3009900D01*
G01X14590751Y-3111500D02*
G01X15178049Y-3111500D01*
G01X11379200Y-2755900D02*
G01X11176000Y-2959100D01*
G01X11379200Y-2578100D02*
G01X11379200Y-2755900D01*
G01X11125200Y-2324100D02*
G01X10972800Y-2324100D01*
G01X1607676Y-1757782D02*
G01X1806118Y-1757782D01*
G01X2578405Y-1866900D02*
G01X2578405Y-1393800D01*
G01X2095805Y-1866900D02*
G01X2095805Y-1757096D01*
G01X1714500Y-2921000D02*
G01X1714500Y-2299005D01*
G01X4267200Y-5969000D02*
G01X3759200Y-6477000D01*
G01X2755900Y-3721100D02*
G01X2717800Y-3759200D01*
G01X2844800Y-4140200D02*
G01X2844800Y-5488000D01*
G01X2527300Y-3695700D02*
G01X2463800Y-3759200D01*
G01X8005496Y-8811641D02*
G01X8524354Y-9330499D01*
G01X8513496Y-9256141D02*
G01X11840896Y-9256141D01*
G01X7954696Y-8697341D02*
G01X8513496Y-9256141D01*
G01X16474554Y-8987599D02*
G01X16474554Y-7844599D01*
G01X11546954Y-8784399D02*
G01X14391754Y-8784399D01*
G01X11586896Y-8417941D02*
G01X14203096Y-8417941D01*
G01X13096392Y-12302299D02*
G01X13096392Y-12911899D01*
G01X13110896Y-9078341D02*
G01X13225234Y-9078341D01*
G01X11594591Y-8849741D02*
G01X12221896Y-8849741D01*
G01X11383696Y-8900541D02*
G01X11543791Y-8900541D01*
G01X8310296Y-8189341D02*
G01X8640496Y-8519541D01*
G01X9326296Y-6030341D02*
G01X9326296Y-5014989D01*
G01X8760308Y-4449000D01*
G01X8843696Y-7757541D02*
G01X9859696Y-8773541D01*
G01X9021496Y-6995541D02*
G01X10033851Y-6995541D01*
G01X8869096Y-7147941D02*
G01X9021496Y-6995541D01*
G01X7929296Y-7935341D02*
G01X8716696Y-7147941D01*
G01X5964504Y-7528941D02*
G01X5989904Y-7554341D01*
G01X2997200Y-6553200D02*
G01X4125341Y-7681341D01*
G01X7086600Y-7584237D02*
G01X6989496Y-7681341D01*
G01X7086600Y-7112000D02*
G01X7086600Y-7584237D01*
G01X5613400Y-6553200D02*
G01X6868541Y-7808341D01*
G01X6934200Y-6604000D02*
G01X6934200Y-6533246D01*
G01X6883400Y-6400800D02*
G01X6935328Y-6400800D01*
G01X5816600Y-6324600D02*
G01X5894959Y-6402959D01*
G01X5791200Y-6197600D02*
G01X5869559Y-6275959D01*
G01X6887896Y-8951341D02*
G01X6151296Y-8214741D01*
G01X6959600Y-9118600D02*
G01X6959600Y-8972245D01*
G01X1193800Y-5600700D02*
G01X1193800Y-5283200D01*
G01X1295400Y-5283200D01*
G01X4773600Y-3479800D02*
G01X6032500Y-3479800D01*
G01X8496300Y-2500300D02*
G01X6705600Y-2500300D01*
G01X6705595Y-5899899D02*
G01X6932546Y-5899899D01*
G01X7698613Y-5325300D02*
G01X7698613Y-5549087D01*
G01X9070213Y-5249100D02*
G01X7774813Y-5249100D01*
G01X7137400Y-4483100D02*
G01X7099300Y-4445000D01*
G01X2154499Y-12311901D02*
G01X2154499Y-12821907D01*
G01X19815599Y-2192998D02*
G01X20220496Y-2192998D01*
G01X19713999Y-2294598D02*
G01X19815599Y-2192998D01*
G01X19894550Y-2481250D02*
G01X19894550Y-3170250D01*
G01X19713999Y-2319998D02*
G01X19875251Y-2481250D01*
G01X20018799Y-1329398D02*
G01X20468298Y-1329398D01*
G01X20018799Y-1329398D02*
G01X20018799Y-1208598D01*
G01X19637799Y-1710398D02*
G01X20018799Y-1329398D01*
G01X18901199Y-1964398D02*
G01X19307599Y-1964398D01*
G01X18672599Y-1735798D02*
G01X18901199Y-1964398D01*
G01X18672599Y-1430998D02*
G01X18672599Y-1735798D01*
G01X18570999Y-1329398D02*
G01X18570999Y-1208598D01*
G01X18189999Y-1710398D02*
G01X18570999Y-1329398D01*
G01X18097500Y-3176600D02*
G01X18097500Y-2487600D01*
G01X17468698Y-3200349D02*
G01X17545152Y-3200349D01*
G01X5939104Y-8824341D02*
G01X5837504Y-8925941D01*
G01X6481496Y-7654214D02*
G01X6327369Y-7808341D01*
G01X7363841Y-7215759D02*
G01X7593391Y-7215759D01*
G01X6996151Y-6860159D02*
G01X6887896Y-6968414D01*
G01X7099300Y-6388100D02*
G01X6987159Y-6275959D01*
G01X6754241Y-6606159D02*
G01X7008241Y-6860159D01*
G01X6754241Y-6529959D02*
G01X5988695Y-6529959D01*
G01X6819900Y-6464300D02*
G01X6754241Y-6529959D01*
G01X7226300Y-6642100D02*
G01X7048500Y-6464300D01*
G01X7505700Y-6642100D02*
G01X7226300Y-6642100D01*
G01X6591300Y-4508500D02*
G01X7468503Y-5385703D01*
G01X7531100Y-5981700D02*
G01X7607300Y-5981700D01*
G01X6297041Y-4802759D02*
G01X6209091Y-4802759D01*
G01X16605098Y-2514549D02*
G01X16782898Y-2514549D01*
G01X16167100Y-2538400D02*
G01X16219449Y-2590749D01*
G01X15862300Y-2386000D02*
G01X16116300Y-2386000D01*
G01X15916699Y-1329398D02*
G01X15916699Y-1208598D01*
G01X15535699Y-1710398D02*
G01X15916699Y-1329398D01*
G01X14516100Y-1700200D02*
G01X14516100Y-1270201D01*
G01X14008100Y-2386000D02*
G01X14287500Y-2386000D01*
G01X13906500Y-2487600D02*
G01X14008100Y-2386000D01*
G01X12998602Y-3098800D02*
G01X13024002Y-3073400D01*
G01X12998602Y-3302000D02*
G01X12998602Y-3098800D01*
G01X12439802Y-3302000D02*
G01X12998602Y-3302000D01*
G01X11595100Y-3113100D02*
G01X11518900Y-3189300D01*
G01X11595100Y-3084500D02*
G01X12222302Y-3084500D01*
G01X6209091Y-5217363D02*
G01X6039495Y-5386959D01*
G01X11547899Y-1329398D02*
G01X11547899Y-1208598D01*
G01X11166899Y-1710398D02*
G01X11547899Y-1329398D01*
G01X10138199Y-1329398D02*
G01X10138199Y-1208598D01*
G01X7086600Y-3073400D02*
G01X7226300Y-3213100D01*
G01X6164212Y-3078797D02*
G01X6776403Y-3078797D01*
G01X5656212Y-1834197D02*
G01X6164212Y-2342197D01*
G01X1270000Y-6477000D02*
G01X1270000Y-6958000D01*
G01X1268400Y-6959600D02*
G01X1268400Y-7793203D01*
G01X3517900Y-1675897D02*
G01X3483399Y-1710398D01*
G01X3517900Y-1178306D02*
G01X3921305Y-1178306D01*
G01X1185101Y-2908300D02*
G01X1185101Y-2303005D01*
G01X863600Y-3098800D02*
G01X863600Y-2946400D01*
G01X6607287Y-6021959D02*
G01X6937487Y-6021959D01*
G01X20675600Y-3339777D02*
G01X20675600Y-2648102D01*
G01X20294600Y-3354400D02*
G01X20660976Y-3354400D01*
G01X19532600Y-3276600D02*
G01X20016800Y-3276600D01*
G01X1981200Y-3403600D02*
G01X2133600Y-3251200D01*
G01X17760798Y-3276600D02*
G01X18226100Y-3276600D01*
G01X9296400Y-3683000D02*
G01X17074998Y-3683000D01*
G01X16070351Y-3189300D02*
G01X16668902Y-2590749D01*
G01X15365400Y-3189300D02*
G01X15467000Y-3290900D01*
G01X15951200Y-3290900D01*
G01X3035300Y-3695700D02*
G01X2971800Y-3759200D01*
G01X13798398Y-3263900D02*
G01X14124000Y-3263900D01*
G01X13290398Y-3289300D02*
G01X13391998Y-3187700D01*
G01X3378200Y-3403600D02*
G01X3606800Y-3175000D01*
G01X9310700Y-3617900D02*
G01X11595100Y-3617900D01*
G01X3759200Y-3886200D02*
G01X3860800Y-3784600D01*
G01X3606800Y-3886200D02*
G01X3759200Y-3886200D01*
G01X9239098Y-3479800D02*
G01X9853600Y-3479800D01*
G01X5943600Y-3225800D02*
G01X7010400Y-3225800D01*
G01X3759200Y-3403600D02*
G01X3911600Y-3251200D01*
G01X6988287Y-5767959D02*
G01X7420087Y-6199759D01*
G01X6861287Y-5640959D02*
G01X6302487Y-6199759D01*
G01X6988287Y-5513959D02*
G01X7470887Y-5996559D01*
G01X6886687Y-5386959D02*
G01X6226287Y-6047359D01*
G01X6988287Y-5259959D02*
G01X7089887Y-5361559D01*
G01X5455295Y-5742559D02*
G01X5455295Y-7164959D01*
G01X5937895Y-5259959D02*
G01X5455295Y-5742559D01*
G01X5937895Y-5513959D02*
G01X5506095Y-5945759D01*
G01X5937895Y-5640959D02*
G01X5658495Y-5920359D01*
G01X17218508Y-11413299D02*
G01X18564708Y-11413299D01*
G01X15567508Y-11083099D02*
G01X16888308Y-11083099D01*
G01X13878408Y-11400599D02*
G01X15250008Y-11400599D01*
G01X13700608Y-11222799D02*
G01X13878408Y-11400599D01*
G01X13179908Y-11375199D02*
G01X13548208Y-11375199D01*
G01X7360295Y-9771987D02*
G01X7436495Y-9771987D01*
G01X8798408Y-11133899D02*
G01X8798408Y-11210099D01*
G01X8976208Y-11387899D02*
G01X10233508Y-11387899D01*
G01X6750695Y-7469759D02*
G01X6750695Y-7596759D01*
G01X5937895Y-5767959D02*
G01X5709295Y-5996559D01*
G01X12176608Y-9279699D02*
G01X13522808Y-9279699D01*
G01X11808308Y-8911399D02*
G01X11998808Y-9101899D01*
G01X11592408Y-8911399D02*
G01X11808308Y-8911399D01*
G01X11414608Y-9089199D02*
G01X11592408Y-8911399D01*
G01X5988695Y-5894959D02*
G01X6064895Y-5894959D01*
G01X8052636Y-7323899D02*
G01X8455508Y-7323899D01*
G01X6852295Y-6606159D02*
G01X7341436Y-7095299D01*
G01X6395095Y-6479159D02*
G01X6699895Y-6479159D01*
G01X6039495Y-6021959D02*
G01X6166495Y-6148959D01*
G01X18836513Y-1550226D02*
G01X18836513Y-778574D01*
G01X18984087Y-4771200D02*
G01X18984087Y-2967800D01*
G01X19644487Y-14575599D02*
G01X19644487Y-5431600D01*
G54D42*
G01X19606387Y-14761400D02*
G01X20891500Y-13476287D01*
G54D41*
G01X7531100Y-5105400D02*
G01X7531100Y-5892800D01*
G01X10136442Y-3024759D02*
G01X10339642Y-2821559D01*
G01X10136442Y-3558159D02*
G01X10136442Y-3024759D01*
G01X6616700Y-9179941D02*
G01X6388100Y-8951341D01*
G01X6715608Y-10702099D02*
G01X6715608Y-10041699D01*
G01X4277208Y-12886499D02*
G01X4810608Y-12886499D01*
G01X4226408Y-12886499D02*
G01X4277208Y-12886499D01*
G01X4061308Y-12721399D02*
G01X4226408Y-12886499D01*
G01X1032708Y-12465799D02*
G01X1401008Y-12834099D01*
G01X1032708Y-11678399D02*
G01X1032708Y-12465799D01*
G01X4038600Y-3860800D02*
G01X4191000Y-4013200D01*
G01X1123798Y-10524889D02*
G01X1655008Y-11056099D01*
G01X558800Y-5257800D02*
G01X558800Y-6450000D01*
G01X2590800Y-5156200D02*
G01X2590800Y-5434000D01*
G01X15279649Y-2298700D02*
G01X14863001Y-2298700D01*
G01X15355849Y-2552700D02*
G01X15355849Y-2374900D01*
G01X15124151Y-2664549D02*
G01X15124151Y-2537549D01*
G01X14680946Y-2691105D02*
G01X14717751Y-2654300D01*
G01X14768551Y-2552700D02*
G01X14276400Y-2552700D01*
G01X14743151Y-2781300D02*
G01X14844751Y-2679700D01*
G01X14503400Y-2973095D02*
G01X14695195Y-2781300D01*
G01X10987952Y-2816897D02*
G01X11014952Y-2816897D01*
G01X10898149Y-3084500D02*
G01X10898149Y-2906700D01*
G01X11202949Y-3389300D02*
G01X10898149Y-3084500D01*
G01X11369396Y-3389300D02*
G01X11202949Y-3389300D01*
G01X11252200Y-3506495D02*
G01X11369396Y-3389300D01*
G01X11252200Y-2741905D02*
G01X11060405Y-2933700D01*
G01X11706200Y-2487600D02*
G01X11518900Y-2300300D01*
G01X15506700Y-3430295D02*
G01X15303500Y-3227095D01*
G01X16528898Y-3276549D02*
G01X16351098Y-3098749D01*
G01X10895051Y-2730500D02*
G01X10895051Y-2562949D01*
G01X9956800Y-3176600D02*
G01X9756800Y-3376600D01*
G01X10451846Y-2716505D02*
G01X10488651Y-2679700D01*
G01X10248900Y-2716505D02*
G01X9956800Y-3008605D01*
G01X10539451Y-2578100D02*
G01X10047300Y-2578100D01*
G01X10514051Y-2806700D02*
G01X10615651Y-2705100D01*
G01X10248900Y-3023895D02*
G01X10466095Y-2806700D01*
G01X9374200Y-2578100D02*
G01X9664700Y-2287600D01*
G01X20824398Y-2387798D02*
G01X20824398Y-3197804D01*
G01X18471799Y-1600398D02*
G01X17481398Y-2590800D01*
G01X13750498Y-2667198D02*
G01X13366796Y-2667198D01*
G01X10013599Y-1600398D02*
G01X9035898Y-2578100D01*
G01X13852098Y-2184598D02*
G01X12846004Y-2184598D01*
G01X19570700Y-3404895D02*
G01X19367500Y-3201695D01*
G01X19672300Y-3404895D02*
G01X19570700Y-3404895D01*
G01X19672300Y-3404895D02*
G01X19700596Y-3376600D01*
G01X19596100Y-2716505D02*
G01X19404305Y-2908300D01*
G01X18427700Y-2894305D02*
G01X18427700Y-3275000D01*
G01X18808446Y-2691105D02*
G01X18845251Y-2654300D01*
G01X18896051Y-2552700D02*
G01X18403900Y-2552700D01*
G01X18870651Y-2781300D02*
G01X18972251Y-2679700D01*
G01X18630900Y-2973095D02*
G01X18822695Y-2781300D01*
G01X18103850Y-2281250D02*
G01X18332450Y-2281250D01*
G01X9051498Y-1922902D02*
G01X8585200Y-2389200D01*
G01X9051498Y-880400D02*
G01X8128000Y-1803898D01*
G01X1381633Y-11934380D02*
G01X1115187Y-12200826D01*
G01X1610233Y-11934380D02*
G01X1381633Y-11934380D01*
G01X2847213Y-10697400D02*
G01X1610233Y-11934380D01*
G01X2847213Y-10214800D02*
G01X2847213Y-10697400D01*
G01X1064387Y-14131099D02*
G01X1115187Y-14131099D01*
G01X688213Y-14240700D02*
G01X954786Y-14240700D01*
G01X612013Y-12030900D02*
G01X612013Y-14164500D01*
G54D42*
G01X970788Y-13762799D02*
G01X1102487Y-13631100D01*
G01X1166813Y-13779500D02*
G01X815213Y-14131099D01*
G54D41*
G01X4150487Y-13623099D02*
G01X1280287Y-13623099D01*
G54D42*
G01X12380087Y-1489900D02*
G01X11610086Y-719899D01*
G01X14958187Y-423100D02*
G01X14747113Y-423100D01*
G01X15724886Y-923099D02*
G01X14937613Y-923099D01*
G01X19263487Y-1337500D02*
G01X19149187Y-1337500D01*
G54D41*
G01X9776587Y-2497899D02*
G01X9776587Y-3259899D01*
G01X10856087Y-669099D02*
G01X10611612Y-669099D01*
G01X13496104Y-567499D02*
G01X10957687Y-567499D01*
G01X15174087Y-669099D02*
G01X14929612Y-669099D01*
G01X1422400Y-3759200D02*
G01X694754Y-3031553D01*
G01X3987800Y-4521200D02*
G01X4573600Y-3935400D01*
G01X4597400Y-4838700D02*
G01X4724400Y-4838700D01*
G01X4597400Y-4686300D02*
G01X4633900Y-4686300D01*
G01X4025900Y-4737100D02*
G01X3987800Y-4775200D01*
G01X4406202Y-2161299D02*
G01X4216400Y-2351100D01*
G01X14272387Y-12365799D02*
G01X14272387Y-11873674D01*
G01X14259687Y-16620299D02*
G01X14259687Y-16128174D01*
G01X12913487Y-16645699D02*
G01X14234287Y-16645699D01*
G01X12583287Y-8098599D02*
G01X12583287Y-7619174D01*
G01X11313287Y-8149399D02*
G01X12532487Y-8149399D01*
G01X10970387Y-6003099D02*
G01X10970387Y-5523674D01*
G01X9674987Y-6053899D02*
G01X10919587Y-6053899D01*
G01X12570587Y-10219499D02*
G01X12570587Y-9740074D01*
G01X11325987Y-10270299D02*
G01X12519787Y-10270299D01*
G01X17612487Y-16632999D02*
G01X17612487Y-16140874D01*
G01X16291687Y-16658399D02*
G01X17587087Y-16658399D01*
G01X19390487Y-16620299D02*
G01X19390487Y-16128174D01*
G01X17917287Y-16645699D02*
G01X19365087Y-16645699D01*
G01X12570587Y-16607599D02*
G01X12570587Y-16102774D01*
G01X11325987Y-16632999D02*
G01X12545187Y-16632999D01*
G01X10983087Y-8098599D02*
G01X10983087Y-7619174D01*
G01X9713087Y-8149399D02*
G01X10932287Y-8149399D01*
G01X19314287Y-11873674D02*
G01X19230213Y-11789600D01*
G01X19314287Y-12391199D02*
G01X19314287Y-11873674D01*
G01X17942687Y-12416599D02*
G01X19288887Y-12416599D01*
G01X11211687Y-14385099D02*
G01X11698986Y-13897800D01*
G01X12570587Y-12340399D02*
G01X12570587Y-11860974D01*
G01X11325987Y-12391199D02*
G01X12519787Y-12391199D01*
G54D42*
G01X17827433Y-7344600D02*
G01X17741900Y-7404100D01*
G54D41*
G01X15936087Y-8162099D02*
G01X15936087Y-7657274D01*
G01X14589887Y-8187499D02*
G01X15910687Y-8187499D01*
G01X17625187Y-6041199D02*
G01X17625187Y-5561774D01*
G01X16278987Y-6091999D02*
G01X17574387Y-6091999D01*
G01X15986887Y-16632999D02*
G01X15986887Y-16153574D01*
G01X14615287Y-16683799D02*
G01X15936087Y-16683799D01*
G01X11008487Y-14461299D02*
G01X11008487Y-13981874D01*
G01X9713087Y-14512099D02*
G01X10957687Y-14512099D01*
G01X15936087Y-5549074D02*
G01X15852013Y-5465000D01*
G01X15936087Y-6066599D02*
G01X15936087Y-5549074D01*
G01X14589887Y-6091999D02*
G01X15910687Y-6091999D01*
G54D42*
G01X17600003Y-7615911D02*
G01X17600003Y-7654964D01*
G54D41*
G01X17599787Y-12378499D02*
G01X17599787Y-11873674D01*
G01X16278987Y-12403899D02*
G01X17574387Y-12403899D01*
G01X14221587Y-6028499D02*
G01X14221587Y-5523674D01*
G01X12900787Y-6053899D02*
G01X14196187Y-6053899D01*
G54D42*
G01X11973814Y-16006000D02*
G01X12486513Y-16518699D01*
G54D41*
G01X14246987Y-10244899D02*
G01X14246987Y-9740074D01*
G01X12900787Y-10270299D02*
G01X14221587Y-10270299D01*
G54D42*
G01X17028414Y-9681400D02*
G01X17515713Y-10168699D01*
G54D41*
G01X15369286Y-13758100D02*
G01X9413113Y-13758100D01*
G01X18691987Y-13153199D02*
G01X15974187Y-13153199D01*
G01X19530187Y-12314999D02*
G01X18691987Y-13153199D01*
G01X14259687Y-14499399D02*
G01X14259687Y-13994574D01*
G01X12913487Y-14524799D02*
G01X14234287Y-14524799D01*
G54D42*
G01X9189123Y-11669737D02*
G01X9189123Y-12141810D01*
G01X18295270Y-10989500D02*
G01X11770166Y-10989500D01*
G54D41*
G01X17599787Y-14499399D02*
G01X17599787Y-13994574D01*
G01X16278987Y-14524799D02*
G01X17574387Y-14524799D01*
G54D42*
G01X11110087Y-13999400D02*
G01X11110087Y-14482000D01*
G01X17028414Y-13923200D02*
G01X17515713Y-14410499D01*
G54D41*
G01X10576687Y-7412799D02*
G01X9395714Y-7412799D01*
G01X18653887Y-6828599D02*
G01X11160887Y-6828599D01*
G01X19492087Y-5990399D02*
G01X18653887Y-6828599D01*
G54D42*
G01X19316700Y-7948612D02*
G01X19204813Y-8060499D01*
G54D41*
G01X10983214Y-16090201D02*
G01X10899013Y-16006000D01*
G01X10983214Y-16607599D02*
G01X10983214Y-16090201D01*
G01X9700387Y-16632999D02*
G01X10957814Y-16632999D01*
G01X16151987Y-8073199D02*
G01X16664686Y-7560500D01*
G01X19555587Y-10232199D02*
G01X18717387Y-11070399D01*
G54D42*
G01X9171813Y-15917100D02*
G01X9171813Y-16378999D01*
G01X15771200Y-14799500D02*
G01X15351887Y-14799500D01*
G01X16033877Y-14498510D02*
G01X16033877Y-14536824D01*
G01X16037687Y-13859700D02*
G01X16037687Y-14494700D01*
G54D41*
G01X17599787Y-10257599D02*
G01X17599787Y-9752774D01*
G01X16278987Y-10282999D02*
G01X17574387Y-10282999D01*
G54D42*
G01X12630277Y-5498950D02*
G01X12630277Y-6027824D01*
G01X12342200Y-6315900D02*
G01X11567287Y-6315900D01*
G01X13650214Y-9643300D02*
G01X14162913Y-10155999D01*
G01X14259687Y-7951025D02*
G01X14162913Y-8047799D01*
G01X15783687Y-9960800D02*
G01X15655100Y-9960800D01*
G01X14564487Y-9554400D02*
G01X15955201Y-9554400D01*
G01X13662914Y-13897800D02*
G01X14175613Y-14410499D01*
G01X15339314Y-7560500D02*
G01X15852013Y-8073199D01*
G01X10354501Y-16006000D02*
G01X10642600Y-16294100D01*
G54D41*
G01X10983087Y-11848274D02*
G01X10899013Y-11764200D01*
G01X10983087Y-12365799D02*
G01X10983087Y-11848274D01*
G01X9713087Y-12391199D02*
G01X10957687Y-12391199D01*
G54D42*
G01X13624814Y-5426900D02*
G01X14137513Y-5939599D01*
G01X17028414Y-11802300D02*
G01X17515713Y-12289599D01*
G54D41*
G01X18125186Y-15879000D02*
G01X9400413Y-15879000D01*
G01X19542887Y-14461299D02*
G01X18125186Y-15879000D01*
G01X8394700Y-3746500D02*
G01X8140700Y-4000500D01*
G01X8039100Y-4102100D01*
G01X7284095Y-10771759D02*
G01X7868295Y-11355959D01*
G01X6115695Y-7749159D02*
G01X5861695Y-7749159D01*
G01X6217295Y-7495159D02*
G01X6217295Y-7647559D01*
G01X2971800Y-5283200D02*
G01X3581400Y-5892800D01*
G01X18364200Y-5740400D02*
G01X18262600Y-5842000D01*
G01X6845300Y-4025900D02*
G01X6845300Y-4254500D01*
G01X11503508Y-15515399D02*
G01X11605108Y-15616999D01*
G01X16494608Y-13305599D02*
G01X16596208Y-13203999D01*
G01X7868295Y-12600559D02*
G01X8194967Y-12600559D01*
G01X5658495Y-5920359D02*
G01X5658495Y-6453759D01*
G01X11478108Y-7057199D02*
G01X11579708Y-7158799D01*
G01X3784600Y-3937000D02*
G01X3835400Y-3886200D01*
G01X2844800Y-3784600D02*
G01X2997200Y-3937000D01*
G01X2844800Y-3276600D02*
G01X2844800Y-3784600D01*
G01X1574800Y-3708400D02*
G01X2082800Y-3200400D01*
G01X1574800Y-3835400D02*
G01X1574800Y-3708400D01*
G01X4800600Y-3822700D02*
G01X4773600Y-3822700D01*
G01X5080000Y-3822700D02*
G01X4800600Y-3822700D01*
G01X19277051Y-3035300D02*
G01X19381749Y-3035300D01*
G01X18819851Y-2908300D02*
G01X18845251Y-2908300D01*
G01X18718251Y-3060700D02*
G01X18718251Y-3009900D01*
G01X14692351Y-2908300D02*
G01X14717751Y-2908300D01*
G01X10515600Y-2933700D02*
G01X10488651Y-2933700D01*
G01X10972800Y-2324100D02*
G01X10668000Y-2628900D01*
G01X11176000Y-2959100D02*
G01X11074400Y-3060700D01*
G01X11025149Y-3060700D01*
G01X1607676Y-1757782D02*
G01X1035088Y-1757782D01*
G01X2095805Y-1917700D02*
G01X2095805Y-1866900D01*
G01X1917700Y-2921000D02*
G01X1714500Y-2921000D01*
G01X1697800Y-2921000D01*
G01X4267200Y-5943600D02*
G01X4279900Y-5956300D01*
G01X4165600Y-5842000D02*
G01X4267200Y-5943600D01*
G01X3606800Y-4648200D02*
G01X3606800Y-5308600D01*
G01X2463800Y-3759200D02*
G01X2844800Y-4140200D01*
G01X16525354Y-9139999D02*
G01X16550754Y-9139999D01*
G01X16626954Y-9139999D01*
G01X16652392Y-9139999D01*
G01X8676754Y-8835199D02*
G01X11496154Y-8835199D01*
G01X10012096Y-8773541D02*
G01X11231296Y-8773541D01*
G01X8716696Y-8773541D02*
G01X9097696Y-8773541D01*
G01X13248792Y-13330999D02*
G01X13261492Y-13343699D01*
G01X12450496Y-9078341D02*
G01X13110896Y-9078341D01*
G01X8843696Y-7147941D02*
G01X8869096Y-7147941D01*
G01X8716696Y-7147941D02*
G01X8843696Y-7147941D01*
G01X3505200Y-6553200D02*
G01X4480941Y-7528941D01*
G01X2997200Y-6324600D02*
G01X2997200Y-6553200D01*
G01X6868541Y-7808341D02*
G01X6938696Y-7808341D01*
G01X3255696Y-6538341D02*
G01X3255696Y-6436741D01*
G01X4038600Y-5168900D02*
G01X3810000Y-5168900D01*
G01X7774813Y-5249100D02*
G01X7698613Y-5325300D01*
G01X2150791Y-10356101D02*
G01X2344999Y-10356101D01*
G01X1464991Y-10356101D02*
G01X2150791Y-10356101D01*
G01X19561599Y-1710398D02*
G01X19586999Y-1710398D01*
G01X19307599Y-1964398D02*
G01X19332999Y-1938998D01*
G01X19561599Y-1710398D01*
G01X19332999Y-1938998D02*
G01X19713999Y-2319998D01*
G01X18570999Y-1329398D02*
G01X18672599Y-1430998D01*
G01X17672202Y-3225800D02*
G01X17721402Y-3176600D01*
G01X17621402Y-3276600D02*
G01X17672202Y-3225800D01*
G01X6142304Y-9281541D02*
G01X6210300Y-9281541D01*
G01X5837504Y-8925941D02*
G01X5837504Y-8976741D01*
G01X6327369Y-7808341D02*
G01X5989904Y-7808341D01*
G01X6913296Y-7528941D02*
G01X6938696Y-7554341D01*
G01X7468503Y-5919103D02*
G01X7531100Y-5981700D01*
G01X15201900Y-1928800D02*
G01X15420302Y-1710398D01*
G01X15484899Y-1710398D01*
G01X15201900Y-1928800D02*
G01X15760700Y-2487600D01*
G01X15176500Y-1954200D02*
G01X15201900Y-1928800D01*
G01X14770100Y-1954200D02*
G01X15176500Y-1954200D01*
G01X14287500Y-2386000D02*
G01X14414500Y-2259000D01*
G01X11518900Y-2500300D02*
G01X11518900Y-3008300D01*
G01X10552702Y-1947100D02*
G01X10705102Y-1794700D01*
G01X10061999Y-1405598D02*
G01X10138199Y-1329398D01*
G01X10400302Y-1591500D01*
G01X6164212Y-3094088D02*
G01X6159500Y-3098800D01*
G01X1270000Y-6426200D02*
G01X1270000Y-6477000D01*
G01X3111500Y-771906D02*
G01X3517900Y-1178306D01*
G01X2141499Y-1071905D02*
G01X2811501Y-1071905D01*
G01X1180795Y-2298700D02*
G01X565087Y-1682991D01*
G01X5283200Y-3733800D02*
G01X8305800Y-3733800D01*
G01X3035300Y-3403600D02*
G01X3325800Y-3113100D01*
G01X6694500Y-3465500D02*
G01X6796100Y-3363900D01*
G01X7061200Y-3276600D02*
G01X9035898Y-3276600D01*
G01X5283200Y-2921000D02*
G01X5638800Y-2921000D01*
G01X7089887Y-5361559D02*
G01X7089887Y-5463159D01*
G01X13078308Y-11273599D02*
G01X13179908Y-11375199D01*
G01X5709295Y-5996559D02*
G01X5709295Y-6428359D01*
G01X15402408Y-9139999D02*
G01X16316808Y-9139999D01*
G01X13675208Y-9127299D02*
G01X13700608Y-9127299D01*
G01X8785708Y-6993699D02*
G01X8785708Y-6917499D01*
G01X7824036Y-7095299D02*
G01X8052636Y-7323899D01*
G01X6166495Y-6148959D02*
G01X6166495Y-6250559D01*
G01X18836513Y-778574D02*
G01X18963513Y-651574D01*
G01X19492087Y-16429799D02*
G01X19492087Y-14727999D01*
G01X6388100Y-8951341D02*
G01X5989904Y-8951341D01*
G01X4419600Y-3479800D02*
G01X4573600Y-3479800D01*
G01X1422400Y-3987800D02*
G01X1727200Y-4292600D01*
G01X2590800Y-5156200D01*
G01X1193800Y-3759200D02*
G01X1422400Y-3987800D01*
G01X7632700Y-4533900D02*
G01X7632700Y-5448300D01*
G01X11060405Y-2933700D02*
G01X11025149Y-2933700D01*
G01X15125700Y-2884449D02*
G01X15215503Y-2794647D01*
G01X15151100Y-2973095D02*
G01X15125700Y-2947695D01*
G01X15303500Y-3150895D02*
G01X15379700Y-3074695D01*
G01X15481300Y-3506495D02*
G01X15557500Y-3430295D01*
G01X15598496Y-3389300D01*
G01X15289505Y-2908300D02*
G01X15254249Y-2908300D01*
G01X20036998Y-1600398D02*
G01X20824398Y-2387798D01*
G01X19254749Y-2882900D02*
G01X19356349Y-2781300D01*
G01X19280149Y-2973095D02*
G01X19254749Y-2947695D01*
G01X19367500Y-3201695D02*
G01X19367500Y-3150895D01*
G01X19596100Y-3481095D02*
G01X19672300Y-3404895D01*
G01X18630900Y-2691105D02*
G01X18427700Y-2894305D01*
G01X1178687Y-13521499D02*
G01X924814Y-13521499D01*
G01X6741287Y-13546899D02*
G01X4226687Y-13546899D01*
G01X10233787Y-2396299D02*
G01X9878187Y-2396299D01*
G01X19009487Y-415099D02*
G01X15428087Y-415099D01*
G01X18882487Y-796099D02*
G01X19060287Y-618299D01*
G01X19263487Y-1837499D02*
G01X18882487Y-1456499D01*
G01X19263487Y-1037526D02*
G01X18963513Y-1337500D01*
G01X4597400Y-4838700D02*
G01X4597400Y-5361000D01*
G01X4521200Y-4686300D02*
G01X4597400Y-4686300D01*
G01X4597400Y-4838700D01*
G01X14937486Y-9681400D02*
G01X15877413Y-9681400D01*
G01X15936087Y-16683799D02*
G01X15986887Y-16632999D01*
G01X14196187Y-6053899D02*
G01X14221587Y-6028499D01*
G01X17574387Y-14524799D02*
G01X17599787Y-14499399D01*
G01X17574387Y-10282999D02*
G01X17599787Y-10257599D01*
G54D42*
G01X9598787Y-9643300D02*
G01X9605137Y-9649650D01*
G01X9630537Y-9649650D01*
G01X9586087Y-9643300D02*
G01X9598787Y-9643300D01*
G01X10911713Y-10143299D02*
G01X10899013Y-10143299D01*
G01X10918063Y-10149649D02*
G01X10911713Y-10143299D01*
G01X10943463Y-10149649D02*
G01X10918063Y-10149649D01*
G01X11010900Y-10082212D02*
G01X10943463Y-10149649D01*
G01X11010900Y-9535350D02*
G01X11010900Y-10082212D01*
G01X11008551Y-9535350D02*
G01X11010900Y-9535350D01*
G01X10984040Y-9510839D02*
G01X11008551Y-9535350D01*
G01X9769348Y-9510839D02*
G01X10984040Y-9510839D01*
G01X9630537Y-9649650D02*
G01X9769348Y-9510839D01*
G54D41*
G01X19504787Y-8047799D02*
G01X19479387Y-8047799D01*
G01X18895447Y-8631739D01*
G01X18895447Y-8677950D01*
G01X17536287Y-8822499D02*
G01X17206347Y-9152439D01*
G01X17206347Y-9177949D01*
G01X16755026Y-9355899D02*
G01X16734706Y-9376219D01*
G01X15604928Y-9355899D02*
G01X15598387Y-9362440D01*
G01X9497060Y-9362440D01*
G01X9486900Y-9372600D01*
G01X9480614Y-9372600D01*
G01X9298813Y-9554400D01*
G01X9298813Y-9592500D01*
G01X9286113Y-9605200D01*
G01X9286113Y-9617900D01*
G01X18895447Y-8677950D02*
G01X18882747Y-8690650D01*
G01X18882747Y-8703350D01*
G01X17206347Y-9177949D02*
G01X17193647Y-9190649D01*
G01X17193647Y-9203349D01*
G01X16475234Y-9355899D02*
G01X15604928Y-9355899D01*
G01X18882747Y-8703350D02*
G01X18763598Y-8822499D01*
G01X17536287Y-8822499D01*
G01X17193647Y-9203349D02*
G01X17041097Y-9355899D01*
G01X16755026Y-9355899D01*
G01X16734706Y-9376219D02*
G01X16495554Y-9376219D01*
G01X16475234Y-9355899D01*
G54D42*
G01X9286113Y-10143299D02*
G01X9286113Y-10130599D01*
G01X9489097Y-9927615D01*
G01X9489097Y-9536137D01*
G01X9601200Y-9424034D01*
G01X12966700Y-9537700D02*
G01X13141003Y-9537700D01*
G01X13148702Y-9545400D01*
G01X13292586Y-9545400D01*
G01X13297586Y-9550400D01*
G54D41*
G01X9286113Y-11764200D02*
G01X9510713Y-11988800D01*
G01X10401300Y-11988800D01*
G01X11353800Y-11658600D02*
G01X16045219Y-11658600D01*
G01X17060990Y-11590210D02*
G01X17183100Y-11468100D01*
G01X16045219Y-11658600D02*
G01X16113609Y-11590210D01*
G01X17060990Y-11590210D01*
G01X18717387Y-11070399D02*
G01X17183100Y-11070399D01*
G01X1727200Y-4292600D02*
G01X1524000Y-4292600D01*
G01X558800Y-5257800D01*
G01X1701800Y-4521200D02*
G01X1854200Y-4521200D01*
G01X939800Y-5283200D02*
G01X1701800Y-4521200D01*
G01X4545398Y-3611880D02*
G01X4563178Y-3629660D01*
G01X4623740Y-3629660D01*
G01X4773600Y-3479800D01*
G01X4206909Y-3813209D02*
G01X4408238Y-3611880D01*
G01X4545398Y-3611880D01*
G01X4387918Y-3714818D02*
G01X5264218Y-3714818D01*
G01X5283200Y-3733800D01*
G54D42*
G01X5080686Y-4019042D02*
G01X5029886Y-4019042D01*
G01X6096686Y-5035042D02*
G01X5519334Y-4457690D01*
G01X5471899Y-4457690D01*
G01X5397510Y-4383301D01*
G01X5397510Y-4335866D01*
G01X5080686Y-4019042D01*
G54D41*
G01X6402715Y-5544439D02*
G01X6737995Y-5209159D01*
G01X6242695Y-5869559D02*
G01X6242695Y-5799777D01*
G01X6402715Y-5639757D01*
G01X6402715Y-5544439D01*
G54D42*
G01X8140700Y-5517642D02*
G01X7975600Y-5517642D01*
G54D41*
G01X8249295Y-8904859D02*
G01X8614067Y-8904859D01*
G01X8798408Y-9089199D01*
G01X6248400Y-9281541D02*
G01X7518400Y-10551541D01*
G01X8559800Y-11823700D02*
G01X7924800Y-12458700D01*
G01X6210300Y-9281541D02*
G01X6248400Y-9281541D01*
G01X7924800Y-12458700D02*
G01X7886700Y-12458700D01*
G01X7518400Y-10551541D02*
G01X8158575Y-10551541D01*
G01X8559800Y-10952766D01*
G01X8559800Y-11823700D01*
G01X8501380Y-10994199D02*
G01X8494014Y-10994199D01*
G01X7304913Y-12183300D01*
G54D42*
G01X8156585Y-12725400D02*
G01X7908722Y-12725400D01*
G01X7897673Y-12714351D01*
G01X7850251Y-12714351D01*
G01X7748651Y-12612751D01*
G01X7382764Y-12748450D02*
G01X7370064Y-12748450D01*
G01X7304913Y-12683299D01*
G01X7748651Y-12612751D02*
G01X7725792Y-12612751D01*
G01X7674351Y-12561310D01*
G01X7535423Y-12561310D01*
G01X7507897Y-12588836D01*
G01X7507897Y-12623317D01*
G01X7382764Y-12748450D01*
G54D41*
G01X2142307Y-12834099D02*
G01X2142307Y-13265899D01*
G54D42*
G01X4113721Y-13551979D02*
G01X1536706Y-13551979D01*
G01X2605697Y-10613200D02*
G01X2745613Y-10613199D01*
G01X2276997Y-11106629D02*
G01X2276997Y-10941900D01*
G01X2605697Y-10613200D01*
G01X1115187Y-11878500D02*
G01X1192974Y-11800713D01*
G01X1582913Y-11800713D01*
G01X2276997Y-11106629D01*
G01X9601200Y-9424034D02*
G01X9601200Y-9422536D01*
G01X12864232Y-9435232D01*
G01X12966700Y-9537700D01*
G01X19405600Y-10237787D02*
G01X19216688Y-10426700D01*
G01X18808078Y-10426700D01*
G01X18570518Y-10664260D01*
G01X18570518Y-10714252D01*
G01X18295270Y-10989500D01*
G54D41*
G01X15011400Y-10477500D02*
G01X14960600Y-10477500D01*
G01X14592300Y-10845800D01*
G01X10411308Y-11210099D02*
G01X10754208Y-10867199D01*
G01X11833708Y-10867199D01*
G01X13700608Y-13343699D02*
G01X13954608Y-13089699D01*
G01X15135708Y-13089699D01*
G54D42*
G01X19339686Y-11700700D02*
G01X19428586Y-11789600D01*
G01X16057123Y-11731111D02*
G01X16058076Y-11731111D01*
G01X16029596Y-11758637D02*
G01X16057123Y-11731111D01*
G01X16029596Y-11759590D02*
G01X16029596Y-11758637D01*
G01X9165849Y-13813911D02*
G01X9166802Y-13813911D01*
G01X9138322Y-13841437D02*
G01X9165849Y-13813911D01*
G01X9138322Y-13842390D02*
G01X9138322Y-13841437D01*
G01X9121012Y-13859700D02*
G01X9138322Y-13842390D01*
G01X9121012Y-14321599D02*
G01X9121012Y-13859700D01*
G01X9184512Y-14385099D02*
G01X9121012Y-14321599D01*
G01X19428586Y-11789600D02*
G01X19530187Y-11789600D01*
G01X9286113Y-14385099D02*
G01X9184512Y-14385099D01*
G01X19332767Y-11700700D02*
G01X19339686Y-11700700D01*
G01X16080397Y-11708790D02*
G01X16080397Y-11707837D01*
G01X16058076Y-11731111D02*
G01X16080397Y-11708790D01*
G01X15974403Y-11814784D02*
G01X16029596Y-11759590D01*
G01X16021304Y-11861777D02*
G01X15974403Y-11814876D01*
G01X15536297Y-13001225D02*
G01X15536297Y-12991142D01*
G01X14839111Y-13698410D02*
G01X15536297Y-13001225D01*
G01X9388389Y-13698410D02*
G01X14839111Y-13698410D01*
G01X9354099Y-13732700D02*
G01X9388389Y-13698410D01*
G01X9248012Y-13732700D02*
G01X9354099Y-13732700D01*
G01X9217602Y-13763111D02*
G01X9248012Y-13732700D01*
G01X9216649Y-13763111D02*
G01X9217602Y-13763111D01*
G01X9189123Y-13790637D02*
G01X9216649Y-13763111D01*
G01X9189123Y-13791590D02*
G01X9189123Y-13790637D01*
G01X9166802Y-13813911D02*
G01X9189123Y-13791590D01*
G01X19299677Y-11667611D02*
G01X19332767Y-11700700D01*
G01X16120623Y-11667611D02*
G01X19299677Y-11667611D01*
G01X16080397Y-11707837D02*
G01X16120623Y-11667611D01*
G01X15587097Y-12862830D02*
G01X16021304Y-12428624D01*
G01X16021304Y-11861777D01*
G01X15536297Y-12991142D02*
G01X15587097Y-12940341D01*
G01X15587097Y-12862830D01*
G04 Track End*

M02*

