;TYPE=PLATED
;Layer: PTH_Through_Via
;EasyEDA Pro Client v2.2.40.8, 2025-08-02 10:36:10
;Gerber Generator version 0.3
M48
METRIC,LZ,0000.00000
;Hole size 1 = 0.30480 METRIC
T01C0.30480
;Hole size 2 = 0.30500 METRIC
T02C0.30500
%
G05
G90
T01
X159.0675Y-32.1818
X184.91047Y-31.74162
X65.44417Y-53.42699
X63.00122Y-54.37949
X68.84137Y-54.67955
X66.65323Y-56.82347
X69.38752Y-57.17153
X91.948Y-46.83631
X67.48659Y-82.9678
X68.28224Y-84.9814
X67.90327Y-86.97341
X61.51275Y-59.1452
X64.27105Y-112.94189
X67.4894Y-48.56418
X59.32771Y-54.6551
X53.848Y-155.2021
X71.80964Y-64.38899
X71.28246Y-66.30199
X39.88911Y-41.402
X61.19487Y-41.82378
X28.3083Y-45.19001
X62.07473Y-41.83679
X28.3083Y-50.67398
X29.13812Y-56.69376
X38.2158Y-32.7024
X71.05802Y-30.1086
X87.29634Y-67.1576
X83.20694Y-64.95199
X74.0028Y-25.1655
X85.11864Y-42.5544
X86.87572Y-35.5891
X91.52498Y-52.7512
X81.4707Y-56.69397
X33.22752Y-55.63789
X208.85832Y-48.9412
X135.0264Y-112.355
X79.0261Y-39.43747
X61.6059Y-37.338
X66.0782Y-27.4563
X87.42334Y-147.0833
X79.42661Y-62.3551
X92.85164Y-146.70635
X79.05831Y-61.19844
X37.06971Y-50.39458
X44.76404Y-96.52
X63.69111Y-91.36231
X62.8919Y-65.88079
X23.368Y-59.18425
X25.3902Y-109.9493
X74.56516Y-129.2727
X71.81568Y-77.95451
X4.99459Y-33.93569
X24.44024Y-133.8852
X88.76224Y-117.0572
X77.4222Y-77.7113
X31.94482Y-58.34418
X50.40436Y-55.88985
X58.54659Y-76.81341
X26.1444Y-58.89215
X29.71381Y-73.66
X55.57306Y-81.28
X58.95614Y-72.93961
X19.11041Y-35.44763
X30.05519Y-16.702
X30.09135Y-9.19506
X188.64388Y-13.71999
X190.75348Y-16.82095
X78.754Y-55.51229
X91.60557Y-57.66999
X69.088Y-4.45269
X19.47391Y-23.1823
X26.99665Y-18.796
X12.46776Y-102.5315
X104.51024Y-159.2915
X173.35217Y-50.6382
X106.28049Y-29.5046
X107.9849Y-25.8155
X126.44272Y-35.089
X159.0675Y-23.32036
X162.94094Y-31.88155
X148.6802Y-30.353
X150.56002Y-25.0222
X152.68917Y-25.9807
X153.91521Y-21.46035
X173.35217Y-24.6428
X191.135Y-29.3802
X191.83502Y-25.0222
X190.1076Y-29.4983
X189.70999Y-24.4947
X208.85832Y-31.8818
X105.98625Y-28.067
X101.181Y-31.6035
X105.51188Y-25.7215
X159.0675Y-24.87905
X150.2778Y-27.3447
X114.2999Y-33.44864
X142.80987Y-25.256
X144.2425Y-29.63844
X144.83778Y-33.09707
X189.6828Y-27.46345
X187.2107Y-24.7285
X183.261Y-35.3038
X180.8479Y-35.3038
X200.025Y-24.8158
X195.292Y-28.7096
X74.3458Y-46.83631
X77.796Y-57.45823
X133.34717Y-26.4239
X140.5637Y-31.6035
X182.14975Y-28.6714
X141.22737Y-72.2763
X58.93072Y-74.25041
X55.57306Y-58.58225
X187.88574Y-67.6656
X193.421Y-60.4888
X172.51539Y-75.8867
X171.69521Y-78.0705
X152.0444Y-92.7562
X155.94721Y-99.695
X157.41987Y-101.7863
X114.93113Y-134.15089
X116.33352Y-144.1577
X103.80442Y-158.06364
X114.808Y-158.15254
X99.88213Y-165.05135
X39.023Y-35.16749
X101.03926Y-60.2983
X106.8631Y-53.9883
X102.07817Y-54.43885
X102.43723Y-60.2983
X111.04074Y-59.269
X113.4565Y-53.9883
X113.4565Y-54.8907
X113.4565Y-60.2983
X135.0264Y-65.191
X138.7501Y-54.9542
X128.78876Y-50.7271
X131.12413Y-58.6781
X154.54284Y-60.2983
X155.32024Y-55.2336
X172.42649Y-50.7271
X173.06342Y-58.8686
X184.81945Y-44.49
X186.47969Y-46.4312
X196.3621Y-59.64999
X187.88574Y-74.4591
X112.48196Y-153.9548
X105.79437Y-80.0621
X104.44648Y-79.522
X105.79437Y-74.1393
X105.12042Y-75.5355
X107.23115Y-79.6109
X110.25676Y-80.22399
X107.58124Y-73.5484
X106.60166Y-74.31335
X108.86313Y-77.43825
X134.8994Y-84.9803
X141.22737Y-76.54103
X137.40644Y-74.1393
X143.129Y-80.60499
X148.34676Y-81.691
X149.87616Y-77.7113
X154.54284Y-75.09555
X157.29287Y-80.73199
X170.58759Y-79.58
X172.09699Y-76.70735
X179.13013Y-75.62295
X181.94366Y-82.4136
X196.4256Y-80.73199
X190.1751Y-101.7228
X97.41976Y-106.8243
X94.0816Y-96.433
X196.4256Y-76.1498
X185.4454Y-108.829
X96.44918Y-104.82115
X94.0816Y-101.3327
X99.79274Y-101.5232
X97.38562Y-94.4318
X133.87416Y-99.1756
X126.66174Y-96.49651
X123.1445Y-96.83975
X124.73813Y-100.4303
X125.71667Y-100.24045
X125.79753Y-95.87386
X131.12413Y-96.49651
X134.01848Y-98.3698
X154.09256Y-101.7863
X160.274Y-96.814
X163.38213Y-101.7863
X162.4457Y-99.0069
X170.14586Y-95.76495
X172.66311Y-101.7863
X186.4614Y-101.7863
X189.36037Y-96.5499
X188.50778Y-98.65225
X191.07752Y-101.1498
X193.7385Y-110.0128
X188.01274Y-115.0066
X162.5346Y-99.87515
X160.528Y-105.6126
X98.39034Y-106.03286
X94.361Y-122.4648
X99.1998Y-123.3672
X100.27803Y-117.0572
X101.31078Y-116.4663
X100.77166Y-122.4648
X114.93113Y-128.31
X116.33352Y-117.0572
X133.87416Y-116.4663
X126.66174Y-122.1867
X125.79753Y-121.54535
X125.16187Y-115.87845
X185.5089Y-128.9858
X190.518Y-117.1842
X188.01274Y-130.3882
X193.5226Y-123.4942
X196.73376Y-127.3042
X37.80444Y-141.63653
X198.9837Y-118.7818
X36.16152Y-143.4684
X116.67642Y-140.0683
X115.63233Y-142.98295
X185.5089Y-149.77301
X190.5815Y-139.2187
X192.42913Y-145.5287
X102.77008Y-161.8143
X196.26782Y-139.2187
X23.368Y-165.05135
X126.72524Y-160.43045
X131.46703Y-165.02242
X157.48337Y-165.02242
X193.76326Y-161.69185
X160.401Y-164.63966
X152.908Y-163.0356
X173.23137Y-161.35123
X176.657Y-164.63966
X195.69531Y-158.3523
X194.43033Y-165.2138
X10.51843Y-30.26736
X193.31779Y-13.22923
X191.11707Y-12.42449
X194.50323Y-5.30035
X188.01419Y-6.49618
X176.74126Y-14.5282
X169.70527Y-11.40839
X174.752Y-7.34917
X164.8044Y-11.24659
X153.924Y-11.24659
X144.55929Y-6.5358
X153.924Y-6.0625
X142.2435Y-7.80874
X147.75519Y-11.24659
X146.22588Y-7.30109
X132.715Y-11.95026
X125.11848Y-14.30176
X91.948Y-15.11873
X91.948Y-9.5999
X111.887Y-11.24659
X106.99156Y-6.50099
X106.99156Y-11.24659
X100.89275Y-8.25795
X56.21226Y-19.48586
X19.56281Y-34.60276
X5.77933Y-150.43286
X30.988Y-135.18007
X61.468Y-156.60719
X66.15884Y-128.39779
X27.00944Y-134.53264
X8.30917Y-148.67459
X32.95313Y-102.7349
X17.81091Y-111.39449
X14.20832Y-111.14916
X8.96156Y-123.9387
X24.42009Y-101.0557
X18.19374Y-88.9
X10.16232Y-118.78501
X8.09095Y-139.4193
X8.09095Y-121.285
X9.85404Y-138.78495
X118.5672Y-35.089
X108.99401Y-26.7411
X210.30269Y-24.5793
X74.5251Y-69.95349
X71.80964Y-50.39458
X62.7768Y-43.20411
X45.2315Y-42.63261
X186.49315Y-144.9378
X190.5815Y-143.85765
X157.32928Y-163.64625
X158.90113Y-164.60095
X173.23137Y-164.6203
X177.8889Y-162.97609
X70.79021Y-13.99705
X66.9227Y-8.90283
X15.02101Y-6.30936
X11.311Y-61.13892
X54.17433Y-66.3275
X57.16616Y-112.78949
T02
X89.408Y-52.197
X78.74Y-53.975
X65.913Y-58.293
X64.53345Y-61.57755
X78.486Y-68.961
X65.151Y-67.98779
X62.738Y-60.071
X44.831Y-49.73278
X46.228Y-50.8
X23.876Y-68.326
X56.642Y-65.659
X58.42Y-60.833
X63.45367Y-60.833
X64.897Y-59.182
X148.336Y-54.015
X149.606Y-59.309
X169.164Y-94.361
X166.97942Y-84.69261
X106.553Y-164.211
X107.061Y-162.56
; GND stitch around envelope follower
X30.0000Y-80.0000
X35.0000Y-80.0000
X40.0000Y-80.0000
X45.0000Y-80.0000
X50.0000Y-80.0000
M30
