;TYPE=PLATED
;Layer: PTH_Through
;EasyEDA Pro v2.2.35.2, 2025-01-22 11:24:47
;Gerber Generator version 0.3
M48
METRIC,LZ,0000.00000
;Hole size 1 = 0.30500 METRIC
T01C0.30500
;Hole size 2 = 0.50000 METRIC
T02C0.50000
;Hole size 3 = 0.80000 METRIC
T03C0.80000
;Hole size 4 = 1.00000 METRIC
T04C1.00000
;Hole size 5 = 1.80000 METRIC
T05C1.80000
%
G05
G90
T01
X227.86Y-36.195
X206.756Y-81.788
X98.498Y-60.154
X91.823Y-60.112
X73.498Y-60.154
X54.631Y-56.81
X105.102Y-69.552
X54.702Y-79.712
X155.61Y-102.852
X168.056Y-106.154
X229.028Y-61.214
X159.928Y-107.17
X54.269Y-145.368
X93.855Y-37.112
X54.631Y-33.81
X205.102Y-76.296
X53.975Y-108.678
X187.749Y-86.106
X126.281Y-89.662
X110.725Y-85.118
X113.519Y-97.564
X105.655Y-92.00433
X105.893Y-94.52833
X112.227Y-99.60833
X95.717Y-116.11833
X85.049Y-123.99233
X127.467Y-90.22633
X193.21867Y-91.97
X130.645Y-91.722
X130.899Y-95.024
X131.451Y-96.485
X112.147Y-85.817
X119.977Y-103.318
X122.771Y-103.572
X131.407Y-104.588
X132.677Y-99.762
X150.231Y-95.215
X164.709Y-85.309
X193.157Y-85.817
X145.241Y-102.96
X145.085Y-100.814
X128.269Y-61.382
X167.545Y-89.752
X193.707Y-91.276
X170.085Y-91.143
X170.6425Y-95.7625
X168.961Y-93.894
X175.869Y-97.282
X187.8225Y-93.9045
X192.1405Y-93.64488
X193.3625Y-92.992
X193.8705Y-96.294
X194.6325Y-96.18488
X214.6985Y-92.62888
X216.255Y-87.906
X103.578Y-75.59
X98.855Y-84.89
X103.324Y-99.098
X96.823Y-109.414
X101.546Y-124.638
X98.601Y-131.398
X101.546Y-147.638
X127.454Y-74.487
X126.546Y-147.638
X143.056Y-36.961
X153.578Y-51.487
X127.708Y-79.313
X153.324Y-122.098
X147.52Y-148.313
X175.379Y-104.588
X177.665Y-102.302
X79.594Y-99.606
X79.702Y-145.352
X55.372Y-126.686
X237.537Y-47.07
X59.246Y-76.098
X57.214Y-77.876
X56.09Y-103.5
X57.36Y-93.848
X56.09Y-57.018
X56.09Y-54.224
X56.852Y-96.926
X56.09Y-126.39
T02
X109.735Y-98.08433
X109.735Y-97.08433
X110.735Y-98.08433
X110.735Y-97.08433
X111.735Y-98.08433
X111.735Y-97.08433
X112.735Y-98.08433
X112.735Y-97.08433
X149.305Y-98.372
X149.305Y-97.372
X150.305Y-98.372
X150.305Y-97.372
X151.305Y-98.372
X151.305Y-97.372
X152.305Y-98.372
X152.305Y-97.372
X129.705Y-98.247
X129.705Y-97.247
X130.705Y-98.247
X130.705Y-97.247
X131.705Y-98.247
X131.705Y-97.247
X132.705Y-98.247
X132.705Y-97.247
X189.0925Y-98.20088
X189.0925Y-97.20088
X190.0925Y-98.20088
X190.0925Y-97.20088
X191.0925Y-98.20088
X191.0925Y-97.20088
X192.0925Y-98.20088
X192.0925Y-97.20088
X185.935Y-136.472
X184.935Y-136.472
X183.935Y-136.472
X51.735Y-94.132
X51.735Y-93.132
X52.735Y-94.132
X52.735Y-93.132
X53.735Y-94.132
X53.735Y-93.132
X54.735Y-94.132
X54.735Y-93.132
X213.875Y-29.792
X212.875Y-29.792
X211.875Y-29.792
X169.3725Y-98.4595
X169.3725Y-97.4595
X170.3725Y-98.4595
X170.3725Y-97.4595
X171.3725Y-98.4595
X171.3725Y-97.4595
X172.3725Y-98.4595
X172.3725Y-97.4595
T03
X226.822Y-64.008
X231.822Y-64.008
X231.521Y-53.975
X231.521Y-48.895
X221.869Y-50.8
X226.949Y-50.8
X235.331Y-44.196
X240.411Y-44.196
X229.642Y-58.393
X224.642Y-58.393
X222.758Y-44.323
X227.758Y-44.323
X216.662Y-64.008
X221.662Y-64.008
X236.855Y-57.531
X236.855Y-52.531
T04
X142.585Y-84.382
X145.085Y-84.382
X147.585Y-84.382
X192.585Y-107.382
X195.085Y-107.382
X197.585Y-107.382
X92.585Y-38.382
X95.085Y-38.382
X97.585Y-38.382
X117.585Y-107.382
X120.085Y-107.382
X122.585Y-107.382
X67.585Y-38.382
X70.085Y-38.382
X72.585Y-38.382
X42.585Y-38.382
X45.085Y-38.382
X47.585Y-38.382
X117.585Y-84.382
X120.085Y-84.382
X122.585Y-84.382
X167.585Y-153.382
X170.085Y-153.382
X172.585Y-153.382
X167.585Y-130.382
X170.085Y-130.382
X172.585Y-130.382
X42.585Y-153.382
X45.085Y-153.382
X47.585Y-153.382
X42.585Y-84.382
X45.085Y-84.382
X47.585Y-84.382
X67.585Y-130.382
X70.085Y-130.382
X72.585Y-130.382
X167.585Y-38.382
X170.085Y-38.382
X172.585Y-38.382
X241.525Y-91.462
X241.525Y-84.962
X237.025Y-84.962
X237.025Y-91.462
X92.585Y-107.382
X95.085Y-107.382
X97.585Y-107.382
X42.585Y-61.382
X45.085Y-61.382
X47.585Y-61.382
X167.585Y-84.382
X170.085Y-84.382
X172.585Y-84.382
X192.585Y-38.382
X195.085Y-38.382
X197.585Y-38.382
X142.585Y-153.382
X145.085Y-153.382
X147.585Y-153.382
X117.585Y-153.382
X120.085Y-153.382
X122.585Y-153.382
X117.585Y-38.382
X120.085Y-38.382
X122.585Y-38.382
X231.14Y-91.462
X231.14Y-84.962
X226.64Y-84.962
X226.64Y-91.462
X167.585Y-107.382
X170.085Y-107.382
X172.585Y-107.382
X42.585Y-130.382
X45.085Y-130.382
X47.585Y-130.382
X92.585Y-84.382
X95.085Y-84.382
X97.585Y-84.382
X67.585Y-84.382
X70.085Y-84.382
X72.585Y-84.382
X192.585Y-61.382
X195.085Y-61.382
X197.585Y-61.382
X142.585Y-38.382
X145.085Y-38.382
X147.585Y-38.382
X220.755Y-91.462
X220.755Y-84.962
X216.255Y-84.962
X216.255Y-91.462
X241.525Y-82.7
X241.525Y-76.2
X237.025Y-76.2
X237.025Y-82.7
X192.585Y-153.382
X195.085Y-153.382
X197.585Y-153.382
X192.585Y-84.382
X195.085Y-84.382
X197.585Y-84.382
X67.585Y-61.382
X70.085Y-61.382
X72.585Y-61.382
X67.585Y-153.382
X70.085Y-153.382
X72.585Y-153.382
X231.14Y-82.7
X231.14Y-76.2
X226.64Y-76.2
X226.64Y-82.7
X192.585Y-130.382
X195.085Y-130.382
X197.585Y-130.382
X142.585Y-61.382
X145.085Y-61.382
X147.585Y-61.382
X92.585Y-61.382
X95.085Y-61.382
X97.585Y-61.382
X142.585Y-107.382
X145.085Y-107.382
X147.585Y-107.382
X92.585Y-153.382
X95.085Y-153.382
X97.585Y-153.382
X67.585Y-107.382
X70.085Y-107.382
X72.585Y-107.382
X117.585Y-130.382
X120.085Y-130.382
X122.585Y-130.382
X220.755Y-82.7
X220.755Y-76.2
X216.255Y-76.2
X216.255Y-82.7
X142.585Y-130.382
X145.085Y-130.382
X147.585Y-130.382
X117.585Y-61.382
X120.085Y-61.382
X122.585Y-61.382
X42.585Y-107.382
X45.085Y-107.382
X47.585Y-107.382
X167.585Y-61.382
X170.085Y-61.382
X172.585Y-61.382
X92.585Y-130.382
X95.085Y-130.382
X97.585Y-130.382
T05
X149.485Y-77.232G85X149.485Y-77.532
X140.685Y-77.232G85X140.685Y-77.532
X199.485Y-100.232G85X199.485Y-100.532
X190.685Y-100.232G85X190.685Y-100.532
X99.485Y-31.232G85X99.485Y-31.532
X90.685Y-31.232G85X90.685Y-31.532
X124.485Y-100.232G85X124.485Y-100.532
X115.685Y-100.232G85X115.685Y-100.532
X74.485Y-31.232G85X74.485Y-31.532
X65.685Y-31.232G85X65.685Y-31.532
X49.485Y-31.232G85X49.485Y-31.532
X40.685Y-31.232G85X40.685Y-31.532
X124.485Y-77.232G85X124.485Y-77.532
X115.685Y-77.232G85X115.685Y-77.532
X174.485Y-146.232G85X174.485Y-146.532
X165.685Y-146.232G85X165.685Y-146.532
X174.485Y-123.232G85X174.485Y-123.532
X165.685Y-123.232G85X165.685Y-123.532
X49.485Y-146.232G85X49.485Y-146.532
X40.685Y-146.232G85X40.685Y-146.532
X49.485Y-77.232G85X49.485Y-77.532
X40.685Y-77.232G85X40.685Y-77.532
X74.485Y-123.232G85X74.485Y-123.532
X65.685Y-123.232G85X65.685Y-123.532
X174.485Y-31.232G85X174.485Y-31.532
X165.685Y-31.232G85X165.685Y-31.532
X99.485Y-100.232G85X99.485Y-100.532
X90.685Y-100.232G85X90.685Y-100.532
X49.485Y-54.232G85X49.485Y-54.532
X40.685Y-54.232G85X40.685Y-54.532
X174.485Y-77.232G85X174.485Y-77.532
X165.685Y-77.232G85X165.685Y-77.532
X199.485Y-31.232G85X199.485Y-31.532
X190.685Y-31.232G85X190.685Y-31.532
X149.485Y-146.232G85X149.485Y-146.532
X140.685Y-146.232G85X140.685Y-146.532
X124.485Y-146.232G85X124.485Y-146.532
X115.685Y-146.232G85X115.685Y-146.532
X124.485Y-31.232G85X124.485Y-31.532
X115.685Y-31.232G85X115.685Y-31.532
X174.485Y-100.232G85X174.485Y-100.532
X165.685Y-100.232G85X165.685Y-100.532
X49.485Y-123.232G85X49.485Y-123.532
X40.685Y-123.232G85X40.685Y-123.532
X99.485Y-77.232G85X99.485Y-77.532
X90.685Y-77.232G85X90.685Y-77.532
X74.485Y-77.232G85X74.485Y-77.532
X65.685Y-77.232G85X65.685Y-77.532
X199.485Y-54.232G85X199.485Y-54.532
X190.685Y-54.232G85X190.685Y-54.532
X149.485Y-31.232G85X149.485Y-31.532
X140.685Y-31.232G85X140.685Y-31.532
X199.485Y-146.232G85X199.485Y-146.532
X190.685Y-146.232G85X190.685Y-146.532
X199.485Y-77.232G85X199.485Y-77.532
X190.685Y-77.232G85X190.685Y-77.532
X74.485Y-54.232G85X74.485Y-54.532
X65.685Y-54.232G85X65.685Y-54.532
X74.485Y-146.232G85X74.485Y-146.532
X65.685Y-146.232G85X65.685Y-146.532
X199.485Y-123.232G85X199.485Y-123.532
X190.685Y-123.232G85X190.685Y-123.532
X149.485Y-54.232G85X149.485Y-54.532
X140.685Y-54.232G85X140.685Y-54.532
X99.485Y-54.232G85X99.485Y-54.532
X90.685Y-54.232G85X90.685Y-54.532
X149.485Y-100.232G85X149.485Y-100.532
X140.685Y-100.232G85X140.685Y-100.532
X99.485Y-146.232G85X99.485Y-146.532
X90.685Y-146.232G85X90.685Y-146.532
X74.485Y-100.232G85X74.485Y-100.532
X65.685Y-100.232G85X65.685Y-100.532
X124.485Y-123.232G85X124.485Y-123.532
X115.685Y-123.232G85X115.685Y-123.532
X149.485Y-123.232G85X149.485Y-123.532
X140.685Y-123.232G85X140.685Y-123.532
X124.485Y-54.232G85X124.485Y-54.532
X115.685Y-54.232G85X115.685Y-54.532
X49.485Y-100.232G85X49.485Y-100.532
X40.685Y-100.232G85X40.685Y-100.532
X174.485Y-54.232G85X174.485Y-54.532
X165.685Y-54.232G85X165.685Y-54.532
X99.485Y-123.232G85X99.485Y-123.532
X90.685Y-123.232G85X90.685Y-123.532
M30