G04 Layer: TopPasteMaskLayer*
G04 EasyEDA Pro v2.2.35.2, 2025-01-22 11:24:46*
G04 Gerber Generator version 0.3*
G04 Scale: 100 percent, Rotated: No, Reflected: No*
G04 Dimensions in millimeters*
G04 Leading zeros omitted, absolute positions, 4 integers and 5 decimals*
%FSLAX45Y45*%
%MOMM*%
%ADD10R,0.85X1.6*%
%ADD11R,0.4X2.0*%
G75*


G04 Pad Start*
G54D10*
G01X10609000Y-5208200D03*
G01X10434000Y-5208200D03*
G01X10434000Y-5558200D03*
G01X10609000Y-5558200D03*
G54D11*
G01X22302200Y-3441700D03*
G01X22372200Y-3441700D03*
G01X22442200Y-3441700D03*
G01X22512200Y-3441700D03*
G01X22582200Y-3441700D03*
G01X22652200Y-3441700D03*
G01X22722200Y-3441700D03*
G01X22792200Y-3441700D03*
G01X22862200Y-3441700D03*
G01X22932200Y-3441700D03*
G01X23002200Y-3441700D03*
G01X23072200Y-3441700D03*
G01X23142200Y-3441700D03*
G01X23212200Y-3441700D03*
G01X23282200Y-3441700D03*
G01X23352200Y-3441700D03*
G01X23422200Y-3441700D03*
G01X23492200Y-3441700D03*
G01X23562200Y-3441700D03*
G01X23632200Y-3441700D03*
G01X23702200Y-3441700D03*
G01X23772200Y-3441700D03*
G01X23842200Y-3441700D03*
G01X23912200Y-3441700D03*
G01X23982200Y-3441700D03*
G01X24052200Y-3441700D03*
G01X24122200Y-3441700D03*
G01X24192200Y-3441700D03*
G01X24262200Y-3441700D03*
G01X24332200Y-3441700D03*
G54D10*
G01X15609000Y-2908200D03*
G01X15434000Y-2908200D03*
G01X15434000Y-3258200D03*
G01X15609000Y-3258200D03*
G01X8109000Y-2908200D03*
G01X7934000Y-2908200D03*
G01X7934000Y-3258200D03*
G01X8109000Y-3258200D03*
G01X8109000Y-7508200D03*
G01X7934000Y-7508200D03*
G01X7934000Y-7858200D03*
G01X8109000Y-7858200D03*
G01X20609000Y-2908200D03*
G01X20434000Y-2908200D03*
G01X20434000Y-3258200D03*
G01X20609000Y-3258200D03*
G01X8109000Y-14408200D03*
G01X7934000Y-14408200D03*
G01X7934000Y-14758200D03*
G01X8109000Y-14758200D03*
G01X18109000Y-7508200D03*
G01X17934000Y-7508200D03*
G01X17934000Y-7858200D03*
G01X18109000Y-7858200D03*
G01X5609000Y-12108200D03*
G01X5434000Y-12108200D03*
G01X5434000Y-12458200D03*
G01X5609000Y-12458200D03*
G01X15609000Y-9808200D03*
G01X15434000Y-9808200D03*
G01X15434000Y-10158200D03*
G01X15609000Y-10158200D03*
G01X18109000Y-14408200D03*
G01X17934000Y-14408200D03*
G01X17934000Y-14758200D03*
G01X18109000Y-14758200D03*
G01X18109000Y-9808200D03*
G01X17934000Y-9808200D03*
G01X17934000Y-10158200D03*
G01X18109000Y-10158200D03*
G01X5609000Y-7508200D03*
G01X5434000Y-7508200D03*
G01X5434000Y-7858200D03*
G01X5609000Y-7858200D03*
G01X15609000Y-12108200D03*
G01X15434000Y-12108200D03*
G01X15434000Y-12458200D03*
G01X15609000Y-12458200D03*
G01X13109000Y-2908200D03*
G01X12934000Y-2908200D03*
G01X12934000Y-3258200D03*
G01X13109000Y-3258200D03*
G01X10609000Y-7508200D03*
G01X10434000Y-7508200D03*
G01X10434000Y-7858200D03*
G01X10609000Y-7858200D03*
G01X20609000Y-14408200D03*
G01X20434000Y-14408200D03*
G01X20434000Y-14758200D03*
G01X20609000Y-14758200D03*
G01X20609000Y-7508200D03*
G01X20434000Y-7508200D03*
G01X20434000Y-7858200D03*
G01X20609000Y-7858200D03*
G01X20609000Y-12108200D03*
G01X20434000Y-12108200D03*
G01X20434000Y-12458200D03*
G01X20609000Y-12458200D03*
G01X5609000Y-5208200D03*
G01X5434000Y-5208200D03*
G01X5434000Y-5558200D03*
G01X5609000Y-5558200D03*
G01X10609000Y-14408200D03*
G01X10434000Y-14408200D03*
G01X10434000Y-14758200D03*
G01X10609000Y-14758200D03*
G01X20609000Y-5208200D03*
G01X20434000Y-5208200D03*
G01X20434000Y-5558200D03*
G01X20609000Y-5558200D03*
G01X20609000Y-9808200D03*
G01X20434000Y-9808200D03*
G01X20434000Y-10158200D03*
G01X20609000Y-10158200D03*
G01X13109000Y-7508200D03*
G01X12934000Y-7508200D03*
G01X12934000Y-7858200D03*
G01X13109000Y-7858200D03*
G01X13109000Y-5208200D03*
G01X12934000Y-5208200D03*
G01X12934000Y-5558200D03*
G01X13109000Y-5558200D03*
G01X10609000Y-2908200D03*
G01X10434000Y-2908200D03*
G01X10434000Y-3258200D03*
G01X10609000Y-3258200D03*
G01X5609000Y-2908200D03*
G01X5434000Y-2908200D03*
G01X5434000Y-3258200D03*
G01X5609000Y-3258200D03*
G01X18109000Y-12108200D03*
G01X17934000Y-12108200D03*
G01X17934000Y-12458200D03*
G01X18109000Y-12458200D03*
G01X13109000Y-12108200D03*
G01X12934000Y-12108200D03*
G01X12934000Y-12458200D03*
G01X13109000Y-12458200D03*
G01X13109000Y-14408200D03*
G01X12934000Y-14408200D03*
G01X12934000Y-14758200D03*
G01X13109000Y-14758200D03*
G01X18109000Y-5208200D03*
G01X17934000Y-5208200D03*
G01X17934000Y-5558200D03*
G01X18109000Y-5558200D03*
G01X8109000Y-5208200D03*
G01X7934000Y-5208200D03*
G01X7934000Y-5558200D03*
G01X8109000Y-5558200D03*
G01X13109000Y-9808200D03*
G01X12934000Y-9808200D03*
G01X12934000Y-10158200D03*
G01X13109000Y-10158200D03*
G01X5609000Y-14408200D03*
G01X5434000Y-14408200D03*
G01X5434000Y-14758200D03*
G01X5609000Y-14758200D03*
G01X15609000Y-7508200D03*
G01X15434000Y-7508200D03*
G01X15434000Y-7858200D03*
G01X15609000Y-7858200D03*
G01X15609000Y-5208200D03*
G01X15434000Y-5208200D03*
G01X15434000Y-5558200D03*
G01X15609000Y-5558200D03*
G01X18109000Y-2908200D03*
G01X17934000Y-2908200D03*
G01X17934000Y-3258200D03*
G01X18109000Y-3258200D03*
G01X10609000Y-9808200D03*
G01X10434000Y-9808200D03*
G01X10434000Y-10158200D03*
G01X10609000Y-10158200D03*
G01X15609000Y-14408200D03*
G01X15434000Y-14408200D03*
G01X15434000Y-14758200D03*
G01X15609000Y-14758200D03*
G01X8109000Y-12108200D03*
G01X7934000Y-12108200D03*
G01X7934000Y-12458200D03*
G01X8109000Y-12458200D03*
G01X5609000Y-9808200D03*
G01X5434000Y-9808200D03*
G01X5434000Y-10158200D03*
G01X5609000Y-10158200D03*
G01X10609000Y-12108200D03*
G01X10434000Y-12108200D03*
G01X10434000Y-12458200D03*
G01X10609000Y-12458200D03*
G01X8109000Y-9808200D03*
G01X7934000Y-9808200D03*
G01X7934000Y-10158200D03*
G01X8109000Y-10158200D03*
G04 Pad End*

M02*

