G04 Layer: TopSilkscreenLayer*
G04 EasyEDA Pro v2.2.35.2, 2025-01-22 11:24:46*
G04 Gerber Generator version 0.3*
G04 Scale: 100 percent, Rotated: No, Reflected: No*
G04 Dimensions in millimeters*
G04 Leading zeros omitted, absolute positions, 4 integers and 5 decimals*
%FSLAX45Y45*%
%MOMM*%
%ADD10C,0.15*%
%ADD11C,0.12*%
%ADD12C,0.1*%
G75*


G04 Text Start*
G54D10*
G01X10764712Y-5465309D02*
G01X10820338Y-5465309D01*
G01X10764712Y-5465309D02*
G01X10764712Y-5446767D01*
G01X10767252Y-5438893D01*
G01X10772586Y-5433559D01*
G01X10777920Y-5431019D01*
G01X10785794Y-5428225D01*
G01X10799256Y-5428225D01*
G01X10807130Y-5431019D01*
G01X10812464Y-5433559D01*
G01X10817798Y-5438893D01*
G01X10820338Y-5446767D01*
G01X10820338Y-5465309D01*
G01X10777920Y-5397745D02*
G01X10775126Y-5397745D01*
G01X10770046Y-5395205D01*
G01X10767252Y-5392411D01*
G01X10764712Y-5387077D01*
G01X10764712Y-5376663D01*
G01X10767252Y-5371329D01*
G01X10770046Y-5368535D01*
G01X10775126Y-5365995D01*
G01X10780460Y-5365995D01*
G01X10785794Y-5368535D01*
G01X10793922Y-5373869D01*
G01X10820338Y-5400539D01*
G01X10820338Y-5363201D01*
G01X10772586Y-5303511D02*
G01X10767252Y-5306305D01*
G01X10764712Y-5314179D01*
G01X10764712Y-5319513D01*
G01X10767252Y-5327387D01*
G01X10775126Y-5332721D01*
G01X10788588Y-5335515D01*
G01X10801796Y-5335515D01*
G01X10812464Y-5332721D01*
G01X10817798Y-5327387D01*
G01X10820338Y-5319513D01*
G01X10820338Y-5316973D01*
G01X10817798Y-5308845D01*
G01X10812464Y-5303511D01*
G01X10804590Y-5300971D01*
G01X10801796Y-5300971D01*
G01X10793922Y-5303511D01*
G01X10788588Y-5308845D01*
G01X10785794Y-5316973D01*
G01X10785794Y-5319513D01*
G01X10788588Y-5327387D01*
G01X10793922Y-5332721D01*
G01X10801796Y-5335515D01*
G01X10587626Y-5039744D02*
G01X10585086Y-5034664D01*
G01X10577212Y-5026536D01*
G01X10632838Y-5026536D01*
G01X13711712Y-7904768D02*
G01X13767338Y-7904768D01*
G01X13711712Y-7904768D02*
G01X13711712Y-7880892D01*
G01X13714252Y-7873018D01*
G01X13717046Y-7870478D01*
G01X13722126Y-7867684D01*
G01X13727460Y-7867684D01*
G01X13732794Y-7870478D01*
G01X13735588Y-7873018D01*
G01X13738128Y-7880892D01*
G01X13738128Y-7904768D01*
G01X13738128Y-7886226D02*
G01X13767338Y-7867684D01*
G01X13722126Y-7839998D02*
G01X13719586Y-7834664D01*
G01X13711712Y-7826536D01*
G01X13767338Y-7826536D01*
G01X13711712Y-7766846D02*
G01X13711712Y-7793516D01*
G01X13735588Y-7796056D01*
G01X13732794Y-7793516D01*
G01X13730254Y-7785388D01*
G01X13730254Y-7777514D01*
G01X13732794Y-7769640D01*
G01X13738128Y-7764306D01*
G01X13746256Y-7761512D01*
G01X13751590Y-7761512D01*
G01X13759464Y-7764306D01*
G01X13764798Y-7769640D01*
G01X13767338Y-7777514D01*
G01X13767338Y-7785388D01*
G01X13764798Y-7793516D01*
G01X13762004Y-7796056D01*
G01X13756670Y-7798850D01*
G01X18711712Y-10185464D02*
G01X18767338Y-10185464D01*
G01X18711712Y-10185464D02*
G01X18711712Y-10161588D01*
G01X18714252Y-10153714D01*
G01X18717046Y-10151174D01*
G01X18722126Y-10148380D01*
G01X18727460Y-10148380D01*
G01X18732794Y-10151174D01*
G01X18735588Y-10153714D01*
G01X18738128Y-10161588D01*
G01X18738128Y-10185464D01*
G01X18738128Y-10166922D02*
G01X18767338Y-10148380D01*
G01X18711712Y-10094024D02*
G01X18748796Y-10120694D01*
G01X18748796Y-10080816D01*
G01X18711712Y-10094024D02*
G01X18767338Y-10094024D01*
G01X23210632Y-3619912D02*
G01X23210632Y-3675538D01*
G01X23210632Y-3619912D02*
G01X23229174Y-3619912D01*
G01X23237048Y-3622452D01*
G01X23242382Y-3627786D01*
G01X23244922Y-3633120D01*
G01X23247716Y-3640994D01*
G01X23247716Y-3654456D01*
G01X23244922Y-3662330D01*
G01X23242382Y-3667664D01*
G01X23237048Y-3672998D01*
G01X23229174Y-3675538D01*
G01X23210632Y-3675538D01*
G01X23312740Y-3627786D02*
G01X23307406Y-3622452D01*
G01X23299278Y-3619912D01*
G01X23288864Y-3619912D01*
G01X23280736Y-3622452D01*
G01X23275402Y-3627786D01*
G01X23275402Y-3633120D01*
G01X23278196Y-3638454D01*
G01X23280736Y-3640994D01*
G01X23286070Y-3643788D01*
G01X23302072Y-3649122D01*
G01X23307406Y-3651662D01*
G01X23309946Y-3654456D01*
G01X23312740Y-3659790D01*
G01X23312740Y-3667664D01*
G01X23307406Y-3672998D01*
G01X23299278Y-3675538D01*
G01X23288864Y-3675538D01*
G01X23280736Y-3672998D01*
G01X23275402Y-3667664D01*
G01X23340426Y-3630326D02*
G01X23345760Y-3627786D01*
G01X23353888Y-3619912D01*
G01X23353888Y-3675538D01*
G01X15764712Y-3154768D02*
G01X15820338Y-3154768D01*
G01X15764712Y-3154768D02*
G01X15764712Y-3136226D01*
G01X15767252Y-3128352D01*
G01X15772586Y-3123018D01*
G01X15777920Y-3120478D01*
G01X15785794Y-3117684D01*
G01X15799256Y-3117684D01*
G01X15807130Y-3120478D01*
G01X15812464Y-3123018D01*
G01X15817798Y-3128352D01*
G01X15820338Y-3136226D01*
G01X15820338Y-3154768D01*
G01X15775126Y-3089998D02*
G01X15772586Y-3084664D01*
G01X15764712Y-3076536D01*
G01X15820338Y-3076536D01*
G01X15764712Y-3043516D02*
G01X15764712Y-3014306D01*
G01X15785794Y-3030308D01*
G01X15785794Y-3022180D01*
G01X15788588Y-3016846D01*
G01X15791128Y-3014306D01*
G01X15799256Y-3011512D01*
G01X15804590Y-3011512D01*
G01X15812464Y-3014306D01*
G01X15817798Y-3019640D01*
G01X15820338Y-3027514D01*
G01X15820338Y-3035388D01*
G01X15817798Y-3043516D01*
G01X15815004Y-3046056D01*
G01X15809670Y-3048850D01*
G01X15587626Y-2739744D02*
G01X15585086Y-2734664D01*
G01X15577212Y-2726536D01*
G01X15632838Y-2726536D01*
G01X8711712Y-3316706D02*
G01X8767338Y-3316706D01*
G01X8711712Y-3316706D02*
G01X8711712Y-3292830D01*
G01X8714252Y-3284956D01*
G01X8717046Y-3282416D01*
G01X8722126Y-3279622D01*
G01X8727460Y-3279622D01*
G01X8732794Y-3282416D01*
G01X8735588Y-3284956D01*
G01X8738128Y-3292830D01*
G01X8738128Y-3316706D01*
G01X8738128Y-3298164D02*
G01X8767338Y-3279622D01*
G01X8724920Y-3249142D02*
G01X8722126Y-3249142D01*
G01X8717046Y-3246602D01*
G01X8714252Y-3243808D01*
G01X8711712Y-3238474D01*
G01X8711712Y-3228060D01*
G01X8714252Y-3222726D01*
G01X8717046Y-3219932D01*
G01X8722126Y-3217392D01*
G01X8727460Y-3217392D01*
G01X8732794Y-3219932D01*
G01X8740922Y-3225266D01*
G01X8767338Y-3251936D01*
G01X8767338Y-3214598D01*
G01X8711712Y-3154908D02*
G01X8711712Y-3181578D01*
G01X8735588Y-3184118D01*
G01X8732794Y-3181578D01*
G01X8730254Y-3173450D01*
G01X8730254Y-3165576D01*
G01X8732794Y-3157702D01*
G01X8738128Y-3152368D01*
G01X8746256Y-3149574D01*
G01X8751590Y-3149574D01*
G01X8759464Y-3152368D01*
G01X8764798Y-3157702D01*
G01X8767338Y-3165576D01*
G01X8767338Y-3173450D01*
G01X8764798Y-3181578D01*
G01X8762004Y-3184118D01*
G01X8756670Y-3186912D01*
G01X11211712Y-10216706D02*
G01X11267338Y-10216706D01*
G01X11211712Y-10216706D02*
G01X11211712Y-10192830D01*
G01X11214252Y-10184956D01*
G01X11217046Y-10182416D01*
G01X11222126Y-10179622D01*
G01X11227460Y-10179622D01*
G01X11232794Y-10182416D01*
G01X11235588Y-10184956D01*
G01X11238128Y-10192830D01*
G01X11238128Y-10216706D01*
G01X11238128Y-10198164D02*
G01X11267338Y-10179622D01*
G01X11224920Y-10149142D02*
G01X11222126Y-10149142D01*
G01X11217046Y-10146602D01*
G01X11214252Y-10143808D01*
G01X11211712Y-10138474D01*
G01X11211712Y-10128060D01*
G01X11214252Y-10122726D01*
G01X11217046Y-10119932D01*
G01X11222126Y-10117392D01*
G01X11227460Y-10117392D01*
G01X11232794Y-10119932D01*
G01X11240922Y-10125266D01*
G01X11267338Y-10151936D01*
G01X11267338Y-10114598D01*
G01X11224920Y-10084118D02*
G01X11222126Y-10084118D01*
G01X11217046Y-10081578D01*
G01X11214252Y-10078784D01*
G01X11211712Y-10073450D01*
G01X11211712Y-10063036D01*
G01X11214252Y-10057702D01*
G01X11217046Y-10054908D01*
G01X11222126Y-10052368D01*
G01X11227460Y-10052368D01*
G01X11232794Y-10054908D01*
G01X11240922Y-10060242D01*
G01X11267338Y-10086912D01*
G01X11267338Y-10049574D01*
G01X8264712Y-3154768D02*
G01X8320338Y-3154768D01*
G01X8264712Y-3154768D02*
G01X8264712Y-3136226D01*
G01X8267252Y-3128352D01*
G01X8272586Y-3123018D01*
G01X8277920Y-3120478D01*
G01X8285794Y-3117684D01*
G01X8299256Y-3117684D01*
G01X8307130Y-3120478D01*
G01X8312464Y-3123018D01*
G01X8317798Y-3128352D01*
G01X8320338Y-3136226D01*
G01X8320338Y-3154768D01*
G01X8264712Y-3084664D02*
G01X8264712Y-3055454D01*
G01X8285794Y-3071456D01*
G01X8285794Y-3063328D01*
G01X8288588Y-3057994D01*
G01X8291128Y-3055454D01*
G01X8299256Y-3052660D01*
G01X8304590Y-3052660D01*
G01X8312464Y-3055454D01*
G01X8317798Y-3060788D01*
G01X8320338Y-3068662D01*
G01X8320338Y-3076536D01*
G01X8317798Y-3084664D01*
G01X8315004Y-3087204D01*
G01X8309670Y-3089998D01*
G01X8275126Y-3024974D02*
G01X8272586Y-3019640D01*
G01X8264712Y-3011512D01*
G01X8320338Y-3011512D01*
G01X8087626Y-2739744D02*
G01X8085086Y-2734664D01*
G01X8077212Y-2726536D01*
G01X8132838Y-2726536D01*
G01X6211712Y-3304768D02*
G01X6267338Y-3304768D01*
G01X6211712Y-3304768D02*
G01X6211712Y-3280892D01*
G01X6214252Y-3273018D01*
G01X6217046Y-3270478D01*
G01X6222126Y-3267684D01*
G01X6227460Y-3267684D01*
G01X6232794Y-3270478D01*
G01X6235588Y-3273018D01*
G01X6238128Y-3280892D01*
G01X6238128Y-3304768D01*
G01X6238128Y-3286226D02*
G01X6267338Y-3267684D01*
G01X6211712Y-3234664D02*
G01X6211712Y-3205454D01*
G01X6232794Y-3221456D01*
G01X6232794Y-3213328D01*
G01X6235588Y-3207994D01*
G01X6238128Y-3205454D01*
G01X6246256Y-3202660D01*
G01X6251590Y-3202660D01*
G01X6259464Y-3205454D01*
G01X6264798Y-3210788D01*
G01X6267338Y-3218662D01*
G01X6267338Y-3226536D01*
G01X6264798Y-3234664D01*
G01X6262004Y-3237204D01*
G01X6256670Y-3239998D01*
G01X6222126Y-3174974D02*
G01X6219586Y-3169640D01*
G01X6211712Y-3161512D01*
G01X6267338Y-3161512D01*
G01X8264712Y-7766706D02*
G01X8320338Y-7766706D01*
G01X8264712Y-7766706D02*
G01X8264712Y-7748164D01*
G01X8267252Y-7740290D01*
G01X8272586Y-7734956D01*
G01X8277920Y-7732416D01*
G01X8285794Y-7729622D01*
G01X8299256Y-7729622D01*
G01X8307130Y-7732416D01*
G01X8312464Y-7734956D01*
G01X8317798Y-7740290D01*
G01X8320338Y-7748164D01*
G01X8320338Y-7766706D01*
G01X8264712Y-7696602D02*
G01X8264712Y-7667392D01*
G01X8285794Y-7683394D01*
G01X8285794Y-7675266D01*
G01X8288588Y-7669932D01*
G01X8291128Y-7667392D01*
G01X8299256Y-7664598D01*
G01X8304590Y-7664598D01*
G01X8312464Y-7667392D01*
G01X8317798Y-7672726D01*
G01X8320338Y-7680600D01*
G01X8320338Y-7688474D01*
G01X8317798Y-7696602D01*
G01X8315004Y-7699142D01*
G01X8309670Y-7701936D01*
G01X8264712Y-7631578D02*
G01X8264712Y-7602368D01*
G01X8285794Y-7618370D01*
G01X8285794Y-7610242D01*
G01X8288588Y-7604908D01*
G01X8291128Y-7602368D01*
G01X8299256Y-7599574D01*
G01X8304590Y-7599574D01*
G01X8312464Y-7602368D01*
G01X8317798Y-7607702D01*
G01X8320338Y-7615576D01*
G01X8320338Y-7623450D01*
G01X8317798Y-7631578D01*
G01X8315004Y-7634118D01*
G01X8309670Y-7636912D01*
G01X8087626Y-7339744D02*
G01X8085086Y-7334664D01*
G01X8077212Y-7326536D01*
G01X8132838Y-7326536D01*
G01X20764712Y-3122256D02*
G01X20820338Y-3122256D01*
G01X20764712Y-3122256D02*
G01X20764712Y-3103714D01*
G01X20767252Y-3095840D01*
G01X20772586Y-3090506D01*
G01X20777920Y-3087966D01*
G01X20785794Y-3085172D01*
G01X20799256Y-3085172D01*
G01X20807130Y-3087966D01*
G01X20812464Y-3090506D01*
G01X20817798Y-3095840D01*
G01X20820338Y-3103714D01*
G01X20820338Y-3122256D01*
G01X20775126Y-3057486D02*
G01X20772586Y-3052152D01*
G01X20764712Y-3044024D01*
G01X20820338Y-3044024D01*
G01X20587626Y-2739744D02*
G01X20585086Y-2734664D01*
G01X20577212Y-2726536D01*
G01X20632838Y-2726536D01*
G01X3711712Y-3316706D02*
G01X3767338Y-3316706D01*
G01X3711712Y-3316706D02*
G01X3711712Y-3292830D01*
G01X3714252Y-3284956D01*
G01X3717046Y-3282416D01*
G01X3722126Y-3279622D01*
G01X3727460Y-3279622D01*
G01X3732794Y-3282416D01*
G01X3735588Y-3284956D01*
G01X3738128Y-3292830D01*
G01X3738128Y-3316706D01*
G01X3738128Y-3298164D02*
G01X3767338Y-3279622D01*
G01X3711712Y-3246602D02*
G01X3711712Y-3217392D01*
G01X3732794Y-3233394D01*
G01X3732794Y-3225266D01*
G01X3735588Y-3219932D01*
G01X3738128Y-3217392D01*
G01X3746256Y-3214598D01*
G01X3751590Y-3214598D01*
G01X3759464Y-3217392D01*
G01X3764798Y-3222726D01*
G01X3767338Y-3230600D01*
G01X3767338Y-3238474D01*
G01X3764798Y-3246602D01*
G01X3762004Y-3249142D01*
G01X3756670Y-3251936D01*
G01X3711712Y-3149574D02*
G01X3767338Y-3176244D01*
G01X3711712Y-3186912D02*
G01X3711712Y-3149574D01*
G01X8264712Y-14665309D02*
G01X8320338Y-14665309D01*
G01X8264712Y-14665309D02*
G01X8264712Y-14646767D01*
G01X8267252Y-14638893D01*
G01X8272586Y-14633559D01*
G01X8277920Y-14631019D01*
G01X8285794Y-14628225D01*
G01X8299256Y-14628225D01*
G01X8307130Y-14631019D01*
G01X8312464Y-14633559D01*
G01X8317798Y-14638893D01*
G01X8320338Y-14646767D01*
G01X8320338Y-14665309D01*
G01X8264712Y-14595205D02*
G01X8264712Y-14565995D01*
G01X8285794Y-14581997D01*
G01X8285794Y-14573869D01*
G01X8288588Y-14568535D01*
G01X8291128Y-14565995D01*
G01X8299256Y-14563201D01*
G01X8304590Y-14563201D01*
G01X8312464Y-14565995D01*
G01X8317798Y-14571329D01*
G01X8320338Y-14579203D01*
G01X8320338Y-14587077D01*
G01X8317798Y-14595205D01*
G01X8315004Y-14597745D01*
G01X8309670Y-14600539D01*
G01X8272586Y-14503511D02*
G01X8267252Y-14506305D01*
G01X8264712Y-14514179D01*
G01X8264712Y-14519513D01*
G01X8267252Y-14527387D01*
G01X8275126Y-14532721D01*
G01X8288588Y-14535515D01*
G01X8301796Y-14535515D01*
G01X8312464Y-14532721D01*
G01X8317798Y-14527387D01*
G01X8320338Y-14519513D01*
G01X8320338Y-14516973D01*
G01X8317798Y-14508845D01*
G01X8312464Y-14503511D01*
G01X8304590Y-14500971D01*
G01X8301796Y-14500971D01*
G01X8293922Y-14503511D01*
G01X8288588Y-14508845D01*
G01X8285794Y-14516973D01*
G01X8285794Y-14519513D01*
G01X8288588Y-14527387D01*
G01X8293922Y-14532721D01*
G01X8301796Y-14535515D01*
G01X8087626Y-14239744D02*
G01X8085086Y-14234664D01*
G01X8077212Y-14226536D01*
G01X8132838Y-14226536D01*
G01X10785712Y-9777677D02*
G01X10828130Y-9777677D01*
G01X10836004Y-9780217D01*
G01X10838798Y-9783011D01*
G01X10841338Y-9788345D01*
G01X10841338Y-9793679D01*
G01X10838798Y-9799013D01*
G01X10836004Y-9801553D01*
G01X10828130Y-9804093D01*
G01X10822796Y-9804093D01*
G01X10785712Y-9744657D02*
G01X10785712Y-9715447D01*
G01X10806794Y-9731449D01*
G01X10806794Y-9723321D01*
G01X10809588Y-9717987D01*
G01X10812128Y-9715447D01*
G01X10820256Y-9712653D01*
G01X10825590Y-9712653D01*
G01X10833464Y-9715447D01*
G01X10838798Y-9720781D01*
G01X10841338Y-9728655D01*
G01X10841338Y-9736529D01*
G01X10838798Y-9744657D01*
G01X10836004Y-9747197D01*
G01X10830670Y-9749991D01*
G01X18264712Y-7732797D02*
G01X18320338Y-7732797D01*
G01X18264712Y-7732797D02*
G01X18264712Y-7714255D01*
G01X18267252Y-7706381D01*
G01X18272586Y-7701047D01*
G01X18277920Y-7698507D01*
G01X18285794Y-7695713D01*
G01X18299256Y-7695713D01*
G01X18307130Y-7698507D01*
G01X18312464Y-7701047D01*
G01X18317798Y-7706381D01*
G01X18320338Y-7714255D01*
G01X18320338Y-7732797D01*
G01X18283254Y-7633483D02*
G01X18291128Y-7636023D01*
G01X18296462Y-7641357D01*
G01X18299256Y-7649485D01*
G01X18299256Y-7652025D01*
G01X18296462Y-7659899D01*
G01X18291128Y-7665233D01*
G01X18283254Y-7668027D01*
G01X18280460Y-7668027D01*
G01X18272586Y-7665233D01*
G01X18267252Y-7659899D01*
G01X18264712Y-7652025D01*
G01X18264712Y-7649485D01*
G01X18267252Y-7641357D01*
G01X18272586Y-7636023D01*
G01X18283254Y-7633483D01*
G01X18296462Y-7633483D01*
G01X18309670Y-7636023D01*
G01X18317798Y-7641357D01*
G01X18320338Y-7649485D01*
G01X18320338Y-7654565D01*
G01X18317798Y-7662693D01*
G01X18312464Y-7665233D01*
G01X18077212Y-7468268D02*
G01X18132838Y-7468268D01*
G01X18077212Y-7468268D02*
G01X18077212Y-7444392D01*
G01X18079752Y-7436518D01*
G01X18082546Y-7433978D01*
G01X18087626Y-7431184D01*
G01X18092960Y-7431184D01*
G01X18098294Y-7433978D01*
G01X18101088Y-7436518D01*
G01X18103628Y-7444392D01*
G01X18103628Y-7468268D01*
G01X18103628Y-7449726D02*
G01X18132838Y-7431184D01*
G01X18077212Y-7403498D02*
G01X18132838Y-7403498D01*
G01X18077212Y-7403498D02*
G01X18077212Y-7368954D01*
G01X18103628Y-7403498D02*
G01X18103628Y-7382162D01*
G01X18132838Y-7403498D02*
G01X18132838Y-7368954D01*
G01X18077212Y-7341268D02*
G01X18132838Y-7341268D01*
G01X18077212Y-7341268D02*
G01X18077212Y-7306724D01*
G01X18103628Y-7341268D02*
G01X18103628Y-7319932D01*
G01X18092960Y-7265576D02*
G01X18124964Y-7265576D01*
G01X18101088Y-7279038D02*
G01X18117090Y-7252368D01*
G01X18101088Y-7252368D02*
G01X18117090Y-7279038D01*
G01X18092960Y-7211220D02*
G01X18124964Y-7211220D01*
G01X18101088Y-7224682D02*
G01X18117090Y-7198012D01*
G01X18101088Y-7198012D02*
G01X18117090Y-7224682D01*
G01X5764712Y-12356038D02*
G01X5820338Y-12356038D01*
G01X5764712Y-12356038D02*
G01X5764712Y-12337496D01*
G01X5767252Y-12329622D01*
G01X5772586Y-12324288D01*
G01X5777920Y-12321748D01*
G01X5785794Y-12318954D01*
G01X5799256Y-12318954D01*
G01X5807130Y-12321748D01*
G01X5812464Y-12324288D01*
G01X5817798Y-12329622D01*
G01X5820338Y-12337496D01*
G01X5820338Y-12356038D01*
G01X5764712Y-12264598D02*
G01X5801796Y-12291268D01*
G01X5801796Y-12251390D01*
G01X5764712Y-12264598D02*
G01X5820338Y-12264598D01*
G01X5775126Y-12223704D02*
G01X5772586Y-12218370D01*
G01X5764712Y-12210242D01*
G01X5820338Y-12210242D01*
G01X5587626Y-11939744D02*
G01X5585086Y-11934664D01*
G01X5577212Y-11926536D01*
G01X5632838Y-11926536D01*
G01X15764712Y-10053371D02*
G01X15820338Y-10053371D01*
G01X15764712Y-10053371D02*
G01X15764712Y-10034829D01*
G01X15767252Y-10026955D01*
G01X15772586Y-10021621D01*
G01X15777920Y-10019081D01*
G01X15785794Y-10016287D01*
G01X15799256Y-10016287D01*
G01X15807130Y-10019081D01*
G01X15812464Y-10021621D01*
G01X15817798Y-10026955D01*
G01X15820338Y-10034829D01*
G01X15820338Y-10053371D01*
G01X15775126Y-9988601D02*
G01X15772586Y-9983267D01*
G01X15764712Y-9975139D01*
G01X15820338Y-9975139D01*
G01X15772586Y-9915449D02*
G01X15767252Y-9918243D01*
G01X15764712Y-9926117D01*
G01X15764712Y-9931451D01*
G01X15767252Y-9939325D01*
G01X15775126Y-9944659D01*
G01X15788588Y-9947453D01*
G01X15801796Y-9947453D01*
G01X15812464Y-9944659D01*
G01X15817798Y-9939325D01*
G01X15820338Y-9931451D01*
G01X15820338Y-9928911D01*
G01X15817798Y-9920783D01*
G01X15812464Y-9915449D01*
G01X15804590Y-9912909D01*
G01X15801796Y-9912909D01*
G01X15793922Y-9915449D01*
G01X15788588Y-9920783D01*
G01X15785794Y-9928911D01*
G01X15785794Y-9931451D01*
G01X15788588Y-9939325D01*
G01X15793922Y-9944659D01*
G01X15801796Y-9947453D01*
G01X15587626Y-9639744D02*
G01X15585086Y-9634664D01*
G01X15577212Y-9626536D01*
G01X15632838Y-9626536D01*
G01X11211712Y-7904768D02*
G01X11267338Y-7904768D01*
G01X11211712Y-7904768D02*
G01X11211712Y-7880892D01*
G01X11214252Y-7873018D01*
G01X11217046Y-7870478D01*
G01X11222126Y-7867684D01*
G01X11227460Y-7867684D01*
G01X11232794Y-7870478D01*
G01X11235588Y-7873018D01*
G01X11238128Y-7880892D01*
G01X11238128Y-7904768D01*
G01X11238128Y-7886226D02*
G01X11267338Y-7867684D01*
G01X11224920Y-7837204D02*
G01X11222126Y-7837204D01*
G01X11217046Y-7834664D01*
G01X11214252Y-7831870D01*
G01X11211712Y-7826536D01*
G01X11211712Y-7816122D01*
G01X11214252Y-7810788D01*
G01X11217046Y-7807994D01*
G01X11222126Y-7805454D01*
G01X11227460Y-7805454D01*
G01X11232794Y-7807994D01*
G01X11240922Y-7813328D01*
G01X11267338Y-7839998D01*
G01X11267338Y-7802660D01*
G01X11222126Y-7774974D02*
G01X11219586Y-7769640D01*
G01X11211712Y-7761512D01*
G01X11267338Y-7761512D01*
G01X16211712Y-14804768D02*
G01X16267338Y-14804768D01*
G01X16211712Y-14804768D02*
G01X16211712Y-14780892D01*
G01X16214252Y-14773018D01*
G01X16217046Y-14770478D01*
G01X16222126Y-14767684D01*
G01X16227460Y-14767684D01*
G01X16232794Y-14770478D01*
G01X16235588Y-14773018D01*
G01X16238128Y-14780892D01*
G01X16238128Y-14804768D01*
G01X16238128Y-14786226D02*
G01X16267338Y-14767684D01*
G01X16222126Y-14739998D02*
G01X16219586Y-14734664D01*
G01X16211712Y-14726536D01*
G01X16267338Y-14726536D01*
G01X16224920Y-14696056D02*
G01X16222126Y-14696056D01*
G01X16217046Y-14693516D01*
G01X16214252Y-14690722D01*
G01X16211712Y-14685388D01*
G01X16211712Y-14674974D01*
G01X16214252Y-14669640D01*
G01X16217046Y-14666846D01*
G01X16222126Y-14664306D01*
G01X16227460Y-14664306D01*
G01X16232794Y-14666846D01*
G01X16240922Y-14672180D01*
G01X16267338Y-14698850D01*
G01X16267338Y-14661512D01*
G01X18264712Y-14654768D02*
G01X18320338Y-14654768D01*
G01X18264712Y-14654768D02*
G01X18264712Y-14636226D01*
G01X18267252Y-14628352D01*
G01X18272586Y-14623018D01*
G01X18277920Y-14620478D01*
G01X18285794Y-14617684D01*
G01X18299256Y-14617684D01*
G01X18307130Y-14620478D01*
G01X18312464Y-14623018D01*
G01X18317798Y-14628352D01*
G01X18320338Y-14636226D01*
G01X18320338Y-14654768D01*
G01X18275126Y-14589998D02*
G01X18272586Y-14584664D01*
G01X18264712Y-14576536D01*
G01X18320338Y-14576536D01*
G01X18277920Y-14546056D02*
G01X18275126Y-14546056D01*
G01X18270046Y-14543516D01*
G01X18267252Y-14540722D01*
G01X18264712Y-14535388D01*
G01X18264712Y-14524974D01*
G01X18267252Y-14519640D01*
G01X18270046Y-14516846D01*
G01X18275126Y-14514306D01*
G01X18280460Y-14514306D01*
G01X18285794Y-14516846D01*
G01X18293922Y-14522180D01*
G01X18320338Y-14548850D01*
G01X18320338Y-14511512D01*
G01X18087626Y-14239744D02*
G01X18085086Y-14234664D01*
G01X18077212Y-14226536D01*
G01X18132838Y-14226536D01*
G01X16211712Y-12492830D02*
G01X16267338Y-12492830D01*
G01X16211712Y-12492830D02*
G01X16211712Y-12468954D01*
G01X16214252Y-12461080D01*
G01X16217046Y-12458540D01*
G01X16222126Y-12455746D01*
G01X16227460Y-12455746D01*
G01X16232794Y-12458540D01*
G01X16235588Y-12461080D01*
G01X16238128Y-12468954D01*
G01X16238128Y-12492830D01*
G01X16238128Y-12474288D02*
G01X16267338Y-12455746D01*
G01X16222126Y-12428060D02*
G01X16219586Y-12422726D01*
G01X16211712Y-12414598D01*
G01X16267338Y-12414598D01*
G01X16222126Y-12386912D02*
G01X16219586Y-12381578D01*
G01X16211712Y-12373450D01*
G01X16267338Y-12373450D01*
G01X18264712Y-10054768D02*
G01X18320338Y-10054768D01*
G01X18264712Y-10054768D02*
G01X18264712Y-10036226D01*
G01X18267252Y-10028352D01*
G01X18272586Y-10023018D01*
G01X18277920Y-10020478D01*
G01X18285794Y-10017684D01*
G01X18299256Y-10017684D01*
G01X18307130Y-10020478D01*
G01X18312464Y-10023018D01*
G01X18317798Y-10028352D01*
G01X18320338Y-10036226D01*
G01X18320338Y-10054768D01*
G01X18275126Y-9989998D02*
G01X18272586Y-9984664D01*
G01X18264712Y-9976536D01*
G01X18320338Y-9976536D01*
G01X18264712Y-9932848D02*
G01X18267252Y-9940722D01*
G01X18275126Y-9946056D01*
G01X18288588Y-9948850D01*
G01X18296462Y-9948850D01*
G01X18309670Y-9946056D01*
G01X18317798Y-9940722D01*
G01X18320338Y-9932848D01*
G01X18320338Y-9927514D01*
G01X18317798Y-9919640D01*
G01X18309670Y-9914306D01*
G01X18296462Y-9911512D01*
G01X18288588Y-9911512D01*
G01X18275126Y-9914306D01*
G01X18267252Y-9919640D01*
G01X18264712Y-9927514D01*
G01X18264712Y-9932848D01*
G01X18087626Y-9639744D02*
G01X18085086Y-9634664D01*
G01X18077212Y-9626536D01*
G01X18132838Y-9626536D01*
G01X3711712Y-14817976D02*
G01X3767338Y-14817976D01*
G01X3711712Y-14817976D02*
G01X3711712Y-14794100D01*
G01X3714252Y-14786226D01*
G01X3717046Y-14783686D01*
G01X3722126Y-14780892D01*
G01X3727460Y-14780892D01*
G01X3732794Y-14783686D01*
G01X3735588Y-14786226D01*
G01X3738128Y-14794100D01*
G01X3738128Y-14817976D01*
G01X3738128Y-14799434D02*
G01X3767338Y-14780892D01*
G01X3711712Y-14726536D02*
G01X3748796Y-14753206D01*
G01X3748796Y-14713328D01*
G01X3711712Y-14726536D02*
G01X3767338Y-14726536D01*
G01X3724920Y-14682848D02*
G01X3722126Y-14682848D01*
G01X3717046Y-14680308D01*
G01X3714252Y-14677514D01*
G01X3711712Y-14672180D01*
G01X3711712Y-14661766D01*
G01X3714252Y-14656432D01*
G01X3717046Y-14653638D01*
G01X3722126Y-14651098D01*
G01X3727460Y-14651098D01*
G01X3732794Y-14653638D01*
G01X3740922Y-14658972D01*
G01X3767338Y-14685642D01*
G01X3767338Y-14648304D01*
G01X22919560Y-6162220D02*
G01X22917020Y-6156886D01*
G01X22911686Y-6151552D01*
G01X22906352Y-6149012D01*
G01X22895684Y-6149012D01*
G01X22890350Y-6151552D01*
G01X22885016Y-6156886D01*
G01X22882476Y-6162220D01*
G01X22879936Y-6170094D01*
G01X22879936Y-6183556D01*
G01X22882476Y-6191430D01*
G01X22885016Y-6196764D01*
G01X22890350Y-6202098D01*
G01X22895684Y-6204638D01*
G01X22906352Y-6204638D01*
G01X22911686Y-6202098D01*
G01X22917020Y-6196764D01*
G01X22919560Y-6191430D01*
G01X22979250Y-6149012D02*
G01X22952580Y-6149012D01*
G01X22950040Y-6172888D01*
G01X22952580Y-6170094D01*
G01X22960708Y-6167554D01*
G01X22968582Y-6167554D01*
G01X22976456Y-6170094D01*
G01X22981790Y-6175428D01*
G01X22984584Y-6183556D01*
G01X22984584Y-6188890D01*
G01X22981790Y-6196764D01*
G01X22976456Y-6202098D01*
G01X22968582Y-6204638D01*
G01X22960708Y-6204638D01*
G01X22952580Y-6202098D01*
G01X22950040Y-6199304D01*
G01X22947246Y-6193970D01*
G01X3711712Y-7915309D02*
G01X3767338Y-7915309D01*
G01X3711712Y-7915309D02*
G01X3711712Y-7891433D01*
G01X3714252Y-7883559D01*
G01X3717046Y-7881019D01*
G01X3722126Y-7878225D01*
G01X3727460Y-7878225D01*
G01X3732794Y-7881019D01*
G01X3735588Y-7883559D01*
G01X3738128Y-7891433D01*
G01X3738128Y-7915309D01*
G01X3738128Y-7896767D02*
G01X3767338Y-7878225D01*
G01X3711712Y-7845205D02*
G01X3711712Y-7815995D01*
G01X3732794Y-7831997D01*
G01X3732794Y-7823869D01*
G01X3735588Y-7818535D01*
G01X3738128Y-7815995D01*
G01X3746256Y-7813201D01*
G01X3751590Y-7813201D01*
G01X3759464Y-7815995D01*
G01X3764798Y-7821329D01*
G01X3767338Y-7829203D01*
G01X3767338Y-7837077D01*
G01X3764798Y-7845205D01*
G01X3762004Y-7847745D01*
G01X3756670Y-7850539D01*
G01X3730254Y-7750971D02*
G01X3738128Y-7753511D01*
G01X3743462Y-7758845D01*
G01X3746256Y-7766973D01*
G01X3746256Y-7769513D01*
G01X3743462Y-7777387D01*
G01X3738128Y-7782721D01*
G01X3730254Y-7785515D01*
G01X3727460Y-7785515D01*
G01X3719586Y-7782721D01*
G01X3714252Y-7777387D01*
G01X3711712Y-7769513D01*
G01X3711712Y-7766973D01*
G01X3714252Y-7758845D01*
G01X3719586Y-7753511D01*
G01X3730254Y-7750971D01*
G01X3743462Y-7750971D01*
G01X3756670Y-7753511D01*
G01X3764798Y-7758845D01*
G01X3767338Y-7766973D01*
G01X3767338Y-7772053D01*
G01X3764798Y-7780181D01*
G01X3759464Y-7782721D01*
G01X5764712Y-7765309D02*
G01X5820338Y-7765309D01*
G01X5764712Y-7765309D02*
G01X5764712Y-7746767D01*
G01X5767252Y-7738893D01*
G01X5772586Y-7733559D01*
G01X5777920Y-7731019D01*
G01X5785794Y-7728225D01*
G01X5799256Y-7728225D01*
G01X5807130Y-7731019D01*
G01X5812464Y-7733559D01*
G01X5817798Y-7738893D01*
G01X5820338Y-7746767D01*
G01X5820338Y-7765309D01*
G01X5764712Y-7695205D02*
G01X5764712Y-7665995D01*
G01X5785794Y-7681997D01*
G01X5785794Y-7673869D01*
G01X5788588Y-7668535D01*
G01X5791128Y-7665995D01*
G01X5799256Y-7663201D01*
G01X5804590Y-7663201D01*
G01X5812464Y-7665995D01*
G01X5817798Y-7671329D01*
G01X5820338Y-7679203D01*
G01X5820338Y-7687077D01*
G01X5817798Y-7695205D01*
G01X5815004Y-7697745D01*
G01X5809670Y-7700539D01*
G01X5783254Y-7600971D02*
G01X5791128Y-7603511D01*
G01X5796462Y-7608845D01*
G01X5799256Y-7616973D01*
G01X5799256Y-7619513D01*
G01X5796462Y-7627387D01*
G01X5791128Y-7632721D01*
G01X5783254Y-7635515D01*
G01X5780460Y-7635515D01*
G01X5772586Y-7632721D01*
G01X5767252Y-7627387D01*
G01X5764712Y-7619513D01*
G01X5764712Y-7616973D01*
G01X5767252Y-7608845D01*
G01X5772586Y-7603511D01*
G01X5783254Y-7600971D01*
G01X5796462Y-7600971D01*
G01X5809670Y-7603511D01*
G01X5817798Y-7608845D01*
G01X5820338Y-7616973D01*
G01X5820338Y-7622053D01*
G01X5817798Y-7630181D01*
G01X5812464Y-7632721D01*
G01X5587626Y-7339744D02*
G01X5585086Y-7334664D01*
G01X5577212Y-7326536D01*
G01X5632838Y-7326536D01*
G01X15764712Y-12354768D02*
G01X15820338Y-12354768D01*
G01X15764712Y-12354768D02*
G01X15764712Y-12336226D01*
G01X15767252Y-12328352D01*
G01X15772586Y-12323018D01*
G01X15777920Y-12320478D01*
G01X15785794Y-12317684D01*
G01X15799256Y-12317684D01*
G01X15807130Y-12320478D01*
G01X15812464Y-12323018D01*
G01X15817798Y-12328352D01*
G01X15820338Y-12336226D01*
G01X15820338Y-12354768D01*
G01X15775126Y-12289998D02*
G01X15772586Y-12284664D01*
G01X15764712Y-12276536D01*
G01X15820338Y-12276536D01*
G01X15764712Y-12211512D02*
G01X15820338Y-12238182D01*
G01X15764712Y-12248850D02*
G01X15764712Y-12211512D01*
G01X15587626Y-11939744D02*
G01X15585086Y-11934664D01*
G01X15577212Y-11926536D01*
G01X15632838Y-11926536D01*
G01X13264712Y-3153371D02*
G01X13320338Y-3153371D01*
G01X13264712Y-3153371D02*
G01X13264712Y-3134829D01*
G01X13267252Y-3126955D01*
G01X13272586Y-3121621D01*
G01X13277920Y-3119081D01*
G01X13285794Y-3116287D01*
G01X13299256Y-3116287D01*
G01X13307130Y-3119081D01*
G01X13312464Y-3121621D01*
G01X13317798Y-3126955D01*
G01X13320338Y-3134829D01*
G01X13320338Y-3153371D01*
G01X13275126Y-3088601D02*
G01X13272586Y-3083267D01*
G01X13264712Y-3075139D01*
G01X13320338Y-3075139D01*
G01X13283254Y-3012909D02*
G01X13291128Y-3015449D01*
G01X13296462Y-3020783D01*
G01X13299256Y-3028911D01*
G01X13299256Y-3031451D01*
G01X13296462Y-3039325D01*
G01X13291128Y-3044659D01*
G01X13283254Y-3047453D01*
G01X13280460Y-3047453D01*
G01X13272586Y-3044659D01*
G01X13267252Y-3039325D01*
G01X13264712Y-3031451D01*
G01X13264712Y-3028911D01*
G01X13267252Y-3020783D01*
G01X13272586Y-3015449D01*
G01X13283254Y-3012909D01*
G01X13296462Y-3012909D01*
G01X13309670Y-3015449D01*
G01X13317798Y-3020783D01*
G01X13320338Y-3028911D01*
G01X13320338Y-3033991D01*
G01X13317798Y-3042119D01*
G01X13312464Y-3044659D01*
G01X13087626Y-2739744D02*
G01X13085086Y-2734664D01*
G01X13077212Y-2726536D01*
G01X13132838Y-2726536D01*
G01X22868312Y-5228276D02*
G01X22923938Y-5228276D01*
G01X22868312Y-5228276D02*
G01X22868312Y-5204400D01*
G01X22870852Y-5196526D01*
G01X22873646Y-5193986D01*
G01X22878726Y-5191192D01*
G01X22884060Y-5191192D01*
G01X22889394Y-5193986D01*
G01X22892188Y-5196526D01*
G01X22894728Y-5204400D01*
G01X22894728Y-5228276D01*
G01X22894728Y-5209734D02*
G01X22923938Y-5191192D01*
G01X22868312Y-5136836D02*
G01X22905396Y-5163506D01*
G01X22905396Y-5123628D01*
G01X22868312Y-5136836D02*
G01X22923938Y-5136836D01*
G01X22868312Y-5090608D02*
G01X22868312Y-5061398D01*
G01X22889394Y-5077400D01*
G01X22889394Y-5069272D01*
G01X22892188Y-5063938D01*
G01X22894728Y-5061398D01*
G01X22902856Y-5058604D01*
G01X22908190Y-5058604D01*
G01X22916064Y-5061398D01*
G01X22921398Y-5066732D01*
G01X22923938Y-5074606D01*
G01X22923938Y-5082480D01*
G01X22921398Y-5090608D01*
G01X22918604Y-5093148D01*
G01X22913270Y-5095942D01*
G01X6211712Y-12516706D02*
G01X6267338Y-12516706D01*
G01X6211712Y-12516706D02*
G01X6211712Y-12492830D01*
G01X6214252Y-12484956D01*
G01X6217046Y-12482416D01*
G01X6222126Y-12479622D01*
G01X6227460Y-12479622D01*
G01X6232794Y-12482416D01*
G01X6235588Y-12484956D01*
G01X6238128Y-12492830D01*
G01X6238128Y-12516706D01*
G01X6238128Y-12498164D02*
G01X6267338Y-12479622D01*
G01X6211712Y-12446602D02*
G01X6211712Y-12417392D01*
G01X6232794Y-12433394D01*
G01X6232794Y-12425266D01*
G01X6235588Y-12419932D01*
G01X6238128Y-12417392D01*
G01X6246256Y-12414598D01*
G01X6251590Y-12414598D01*
G01X6259464Y-12417392D01*
G01X6264798Y-12422726D01*
G01X6267338Y-12430600D01*
G01X6267338Y-12438474D01*
G01X6264798Y-12446602D01*
G01X6262004Y-12449142D01*
G01X6256670Y-12451936D01*
G01X6211712Y-12354908D02*
G01X6211712Y-12381578D01*
G01X6235588Y-12384118D01*
G01X6232794Y-12381578D01*
G01X6230254Y-12373450D01*
G01X6230254Y-12365576D01*
G01X6232794Y-12357702D01*
G01X6238128Y-12352368D01*
G01X6246256Y-12349574D01*
G01X6251590Y-12349574D01*
G01X6259464Y-12352368D01*
G01X6264798Y-12357702D01*
G01X6267338Y-12365576D01*
G01X6267338Y-12373450D01*
G01X6264798Y-12381578D01*
G01X6262004Y-12384118D01*
G01X6256670Y-12386912D01*
G01X10764712Y-7766706D02*
G01X10820338Y-7766706D01*
G01X10764712Y-7766706D02*
G01X10764712Y-7748164D01*
G01X10767252Y-7740290D01*
G01X10772586Y-7734956D01*
G01X10777920Y-7732416D01*
G01X10785794Y-7729622D01*
G01X10799256Y-7729622D01*
G01X10807130Y-7732416D01*
G01X10812464Y-7734956D01*
G01X10817798Y-7740290D01*
G01X10820338Y-7748164D01*
G01X10820338Y-7766706D01*
G01X10777920Y-7699142D02*
G01X10775126Y-7699142D01*
G01X10770046Y-7696602D01*
G01X10767252Y-7693808D01*
G01X10764712Y-7688474D01*
G01X10764712Y-7678060D01*
G01X10767252Y-7672726D01*
G01X10770046Y-7669932D01*
G01X10775126Y-7667392D01*
G01X10780460Y-7667392D01*
G01X10785794Y-7669932D01*
G01X10793922Y-7675266D01*
G01X10820338Y-7701936D01*
G01X10820338Y-7664598D01*
G01X10764712Y-7599574D02*
G01X10820338Y-7626244D01*
G01X10764712Y-7636912D02*
G01X10764712Y-7599574D01*
G01X10587626Y-7339744D02*
G01X10585086Y-7334664D01*
G01X10577212Y-7326536D01*
G01X10632838Y-7326536D01*
G01X16211712Y-3284194D02*
G01X16267338Y-3284194D01*
G01X16211712Y-3284194D02*
G01X16211712Y-3260318D01*
G01X16214252Y-3252444D01*
G01X16217046Y-3249904D01*
G01X16222126Y-3247110D01*
G01X16227460Y-3247110D01*
G01X16232794Y-3249904D01*
G01X16235588Y-3252444D01*
G01X16238128Y-3260318D01*
G01X16238128Y-3284194D01*
G01X16238128Y-3265652D02*
G01X16267338Y-3247110D01*
G01X16211712Y-3182086D02*
G01X16267338Y-3208756D01*
G01X16211712Y-3219424D02*
G01X16211712Y-3182086D01*
G01X20764712Y-14632797D02*
G01X20820338Y-14632797D01*
G01X20764712Y-14632797D02*
G01X20764712Y-14614255D01*
G01X20767252Y-14606381D01*
G01X20772586Y-14601047D01*
G01X20777920Y-14598507D01*
G01X20785794Y-14595713D01*
G01X20799256Y-14595713D01*
G01X20807130Y-14598507D01*
G01X20812464Y-14601047D01*
G01X20817798Y-14606381D01*
G01X20820338Y-14614255D01*
G01X20820338Y-14632797D01*
G01X20772586Y-14536023D02*
G01X20767252Y-14538817D01*
G01X20764712Y-14546691D01*
G01X20764712Y-14552025D01*
G01X20767252Y-14559899D01*
G01X20775126Y-14565233D01*
G01X20788588Y-14568027D01*
G01X20801796Y-14568027D01*
G01X20812464Y-14565233D01*
G01X20817798Y-14559899D01*
G01X20820338Y-14552025D01*
G01X20820338Y-14549485D01*
G01X20817798Y-14541357D01*
G01X20812464Y-14536023D01*
G01X20804590Y-14533483D01*
G01X20801796Y-14533483D01*
G01X20793922Y-14536023D01*
G01X20788588Y-14541357D01*
G01X20785794Y-14549485D01*
G01X20785794Y-14552025D01*
G01X20788588Y-14559899D01*
G01X20793922Y-14565233D01*
G01X20801796Y-14568027D01*
G01X20577212Y-14368268D02*
G01X20632838Y-14368268D01*
G01X20577212Y-14368268D02*
G01X20577212Y-14344392D01*
G01X20579752Y-14336518D01*
G01X20582546Y-14333978D01*
G01X20587626Y-14331184D01*
G01X20592960Y-14331184D01*
G01X20598294Y-14333978D01*
G01X20601088Y-14336518D01*
G01X20603628Y-14344392D01*
G01X20603628Y-14368268D01*
G01X20603628Y-14349726D02*
G01X20632838Y-14331184D01*
G01X20577212Y-14303498D02*
G01X20632838Y-14303498D01*
G01X20577212Y-14303498D02*
G01X20577212Y-14268954D01*
G01X20603628Y-14303498D02*
G01X20603628Y-14282162D01*
G01X20632838Y-14303498D02*
G01X20632838Y-14268954D01*
G01X20577212Y-14241268D02*
G01X20632838Y-14241268D01*
G01X20577212Y-14241268D02*
G01X20577212Y-14206724D01*
G01X20603628Y-14241268D02*
G01X20603628Y-14219932D01*
G01X20592960Y-14165576D02*
G01X20624964Y-14165576D01*
G01X20601088Y-14179038D02*
G01X20617090Y-14152368D01*
G01X20601088Y-14152368D02*
G01X20617090Y-14179038D01*
G01X20592960Y-14111220D02*
G01X20624964Y-14111220D01*
G01X20601088Y-14124682D02*
G01X20617090Y-14098012D01*
G01X20601088Y-14098012D02*
G01X20617090Y-14124682D01*
G01X24333586Y-8875496D02*
G01X24328252Y-8880830D01*
G01X24325712Y-8888704D01*
G01X24325712Y-8899372D01*
G01X24328252Y-8907500D01*
G01X24333586Y-8912580D01*
G01X24338920Y-8912580D01*
G01X24344254Y-8910040D01*
G01X24346794Y-8907500D01*
G01X24349588Y-8902166D01*
G01X24354922Y-8886164D01*
G01X24357462Y-8880830D01*
G01X24360256Y-8878290D01*
G01X24365590Y-8875496D01*
G01X24373464Y-8875496D01*
G01X24378798Y-8880830D01*
G01X24381338Y-8888704D01*
G01X24381338Y-8899372D01*
G01X24378798Y-8907500D01*
G01X24373464Y-8912580D01*
G01X24325712Y-8847810D02*
G01X24381338Y-8834348D01*
G01X24325712Y-8821140D02*
G01X24381338Y-8834348D01*
G01X24325712Y-8821140D02*
G01X24381338Y-8807932D01*
G01X24325712Y-8794724D02*
G01X24381338Y-8807932D01*
G01X24338920Y-8764244D02*
G01X24336126Y-8764244D01*
G01X24331046Y-8761704D01*
G01X24328252Y-8758910D01*
G01X24325712Y-8753576D01*
G01X24325712Y-8743162D01*
G01X24328252Y-8737828D01*
G01X24331046Y-8735034D01*
G01X24336126Y-8732494D01*
G01X24341460Y-8732494D01*
G01X24346794Y-8735034D01*
G01X24354922Y-8740368D01*
G01X24381338Y-8767038D01*
G01X24381338Y-8729700D01*
G01X20764712Y-7734194D02*
G01X20820338Y-7734194D01*
G01X20764712Y-7734194D02*
G01X20764712Y-7715652D01*
G01X20767252Y-7707778D01*
G01X20772586Y-7702444D01*
G01X20777920Y-7699904D01*
G01X20785794Y-7697110D01*
G01X20799256Y-7697110D01*
G01X20807130Y-7699904D01*
G01X20812464Y-7702444D01*
G01X20817798Y-7707778D01*
G01X20820338Y-7715652D01*
G01X20820338Y-7734194D01*
G01X20764712Y-7664090D02*
G01X20764712Y-7634880D01*
G01X20785794Y-7650882D01*
G01X20785794Y-7642754D01*
G01X20788588Y-7637420D01*
G01X20791128Y-7634880D01*
G01X20799256Y-7632086D01*
G01X20804590Y-7632086D01*
G01X20812464Y-7634880D01*
G01X20817798Y-7640214D01*
G01X20820338Y-7648088D01*
G01X20820338Y-7655962D01*
G01X20817798Y-7664090D01*
G01X20815004Y-7666630D01*
G01X20809670Y-7669424D01*
G01X20587626Y-7339744D02*
G01X20585086Y-7334664D01*
G01X20577212Y-7326536D01*
G01X20632838Y-7326536D01*
G01X14742712Y-9805047D02*
G01X14785130Y-9805047D01*
G01X14793004Y-9807587D01*
G01X14795798Y-9810381D01*
G01X14798338Y-9815715D01*
G01X14798338Y-9821049D01*
G01X14795798Y-9826383D01*
G01X14793004Y-9828923D01*
G01X14785130Y-9831463D01*
G01X14779796Y-9831463D01*
G01X14750586Y-9745357D02*
G01X14745252Y-9748151D01*
G01X14742712Y-9756025D01*
G01X14742712Y-9761359D01*
G01X14745252Y-9769233D01*
G01X14753126Y-9774567D01*
G01X14766588Y-9777361D01*
G01X14779796Y-9777361D01*
G01X14790464Y-9774567D01*
G01X14795798Y-9769233D01*
G01X14798338Y-9761359D01*
G01X14798338Y-9758819D01*
G01X14795798Y-9750691D01*
G01X14790464Y-9745357D01*
G01X14782590Y-9742817D01*
G01X14779796Y-9742817D01*
G01X14771922Y-9745357D01*
G01X14766588Y-9750691D01*
G01X14763794Y-9758819D01*
G01X14763794Y-9761359D01*
G01X14766588Y-9769233D01*
G01X14771922Y-9774567D01*
G01X14779796Y-9777361D01*
G01X8711712Y-10216706D02*
G01X8767338Y-10216706D01*
G01X8711712Y-10216706D02*
G01X8711712Y-10192830D01*
G01X8714252Y-10184956D01*
G01X8717046Y-10182416D01*
G01X8722126Y-10179622D01*
G01X8727460Y-10179622D01*
G01X8732794Y-10182416D01*
G01X8735588Y-10184956D01*
G01X8738128Y-10192830D01*
G01X8738128Y-10216706D01*
G01X8738128Y-10198164D02*
G01X8767338Y-10179622D01*
G01X8724920Y-10149142D02*
G01X8722126Y-10149142D01*
G01X8717046Y-10146602D01*
G01X8714252Y-10143808D01*
G01X8711712Y-10138474D01*
G01X8711712Y-10128060D01*
G01X8714252Y-10122726D01*
G01X8717046Y-10119932D01*
G01X8722126Y-10117392D01*
G01X8727460Y-10117392D01*
G01X8732794Y-10119932D01*
G01X8740922Y-10125266D01*
G01X8767338Y-10151936D01*
G01X8767338Y-10114598D01*
G01X8711712Y-10073450D02*
G01X8714252Y-10081578D01*
G01X8719586Y-10084118D01*
G01X8724920Y-10084118D01*
G01X8730254Y-10081578D01*
G01X8732794Y-10076244D01*
G01X8735588Y-10065576D01*
G01X8738128Y-10057702D01*
G01X8743462Y-10052368D01*
G01X8748796Y-10049574D01*
G01X8756670Y-10049574D01*
G01X8762004Y-10052368D01*
G01X8764798Y-10054908D01*
G01X8767338Y-10063036D01*
G01X8767338Y-10073450D01*
G01X8764798Y-10081578D01*
G01X8762004Y-10084118D01*
G01X8756670Y-10086912D01*
G01X8748796Y-10086912D01*
G01X8743462Y-10084118D01*
G01X8738128Y-10078784D01*
G01X8735588Y-10070910D01*
G01X8732794Y-10060242D01*
G01X8730254Y-10054908D01*
G01X8724920Y-10052368D01*
G01X8719586Y-10052368D01*
G01X8714252Y-10054908D01*
G01X8711712Y-10063036D01*
G01X8711712Y-10073450D01*
G01X20764712Y-12334194D02*
G01X20820338Y-12334194D01*
G01X20764712Y-12334194D02*
G01X20764712Y-12315652D01*
G01X20767252Y-12307778D01*
G01X20772586Y-12302444D01*
G01X20777920Y-12299904D01*
G01X20785794Y-12297110D01*
G01X20799256Y-12297110D01*
G01X20807130Y-12299904D01*
G01X20812464Y-12302444D01*
G01X20817798Y-12307778D01*
G01X20820338Y-12315652D01*
G01X20820338Y-12334194D01*
G01X20764712Y-12237420D02*
G01X20764712Y-12264090D01*
G01X20788588Y-12266630D01*
G01X20785794Y-12264090D01*
G01X20783254Y-12255962D01*
G01X20783254Y-12248088D01*
G01X20785794Y-12240214D01*
G01X20791128Y-12234880D01*
G01X20799256Y-12232086D01*
G01X20804590Y-12232086D01*
G01X20812464Y-12234880D01*
G01X20817798Y-12240214D01*
G01X20820338Y-12248088D01*
G01X20820338Y-12255962D01*
G01X20817798Y-12264090D01*
G01X20815004Y-12266630D01*
G01X20809670Y-12269424D01*
G01X20587626Y-11939744D02*
G01X20585086Y-11934664D01*
G01X20577212Y-11926536D01*
G01X20632838Y-11926536D01*
G01X3711712Y-5616706D02*
G01X3767338Y-5616706D01*
G01X3711712Y-5616706D02*
G01X3711712Y-5592830D01*
G01X3714252Y-5584956D01*
G01X3717046Y-5582416D01*
G01X3722126Y-5579622D01*
G01X3727460Y-5579622D01*
G01X3732794Y-5582416D01*
G01X3735588Y-5584956D01*
G01X3738128Y-5592830D01*
G01X3738128Y-5616706D01*
G01X3738128Y-5598164D02*
G01X3767338Y-5579622D01*
G01X3711712Y-5546602D02*
G01X3711712Y-5517392D01*
G01X3732794Y-5533394D01*
G01X3732794Y-5525266D01*
G01X3735588Y-5519932D01*
G01X3738128Y-5517392D01*
G01X3746256Y-5514598D01*
G01X3751590Y-5514598D01*
G01X3759464Y-5517392D01*
G01X3764798Y-5522726D01*
G01X3767338Y-5530600D01*
G01X3767338Y-5538474D01*
G01X3764798Y-5546602D01*
G01X3762004Y-5549142D01*
G01X3756670Y-5551936D01*
G01X3711712Y-5473450D02*
G01X3714252Y-5481578D01*
G01X3719586Y-5484118D01*
G01X3724920Y-5484118D01*
G01X3730254Y-5481578D01*
G01X3732794Y-5476244D01*
G01X3735588Y-5465576D01*
G01X3738128Y-5457702D01*
G01X3743462Y-5452368D01*
G01X3748796Y-5449574D01*
G01X3756670Y-5449574D01*
G01X3762004Y-5452368D01*
G01X3764798Y-5454908D01*
G01X3767338Y-5463036D01*
G01X3767338Y-5473450D01*
G01X3764798Y-5481578D01*
G01X3762004Y-5484118D01*
G01X3756670Y-5486912D01*
G01X3748796Y-5486912D01*
G01X3743462Y-5484118D01*
G01X3738128Y-5478784D01*
G01X3735588Y-5470910D01*
G01X3732794Y-5460242D01*
G01X3730254Y-5454908D01*
G01X3724920Y-5452368D01*
G01X3719586Y-5452368D01*
G01X3714252Y-5454908D01*
G01X3711712Y-5463036D01*
G01X3711712Y-5473450D01*
G01X5764712Y-5466706D02*
G01X5820338Y-5466706D01*
G01X5764712Y-5466706D02*
G01X5764712Y-5448164D01*
G01X5767252Y-5440290D01*
G01X5772586Y-5434956D01*
G01X5777920Y-5432416D01*
G01X5785794Y-5429622D01*
G01X5799256Y-5429622D01*
G01X5807130Y-5432416D01*
G01X5812464Y-5434956D01*
G01X5817798Y-5440290D01*
G01X5820338Y-5448164D01*
G01X5820338Y-5466706D01*
G01X5764712Y-5396602D02*
G01X5764712Y-5367392D01*
G01X5785794Y-5383394D01*
G01X5785794Y-5375266D01*
G01X5788588Y-5369932D01*
G01X5791128Y-5367392D01*
G01X5799256Y-5364598D01*
G01X5804590Y-5364598D01*
G01X5812464Y-5367392D01*
G01X5817798Y-5372726D01*
G01X5820338Y-5380600D01*
G01X5820338Y-5388474D01*
G01X5817798Y-5396602D01*
G01X5815004Y-5399142D01*
G01X5809670Y-5401936D01*
G01X5764712Y-5323450D02*
G01X5767252Y-5331578D01*
G01X5772586Y-5334118D01*
G01X5777920Y-5334118D01*
G01X5783254Y-5331578D01*
G01X5785794Y-5326244D01*
G01X5788588Y-5315576D01*
G01X5791128Y-5307702D01*
G01X5796462Y-5302368D01*
G01X5801796Y-5299574D01*
G01X5809670Y-5299574D01*
G01X5815004Y-5302368D01*
G01X5817798Y-5304908D01*
G01X5820338Y-5313036D01*
G01X5820338Y-5323450D01*
G01X5817798Y-5331578D01*
G01X5815004Y-5334118D01*
G01X5809670Y-5336912D01*
G01X5801796Y-5336912D01*
G01X5796462Y-5334118D01*
G01X5791128Y-5328784D01*
G01X5788588Y-5320910D01*
G01X5785794Y-5310242D01*
G01X5783254Y-5304908D01*
G01X5777920Y-5302368D01*
G01X5772586Y-5302368D01*
G01X5767252Y-5304908D01*
G01X5764712Y-5313036D01*
G01X5764712Y-5323450D01*
G01X5587626Y-5039744D02*
G01X5585086Y-5034664D01*
G01X5577212Y-5026536D01*
G01X5632838Y-5026536D01*
G01X16211712Y-7882797D02*
G01X16267338Y-7882797D01*
G01X16211712Y-7882797D02*
G01X16211712Y-7858921D01*
G01X16214252Y-7851047D01*
G01X16217046Y-7848507D01*
G01X16222126Y-7845713D01*
G01X16227460Y-7845713D01*
G01X16232794Y-7848507D01*
G01X16235588Y-7851047D01*
G01X16238128Y-7858921D01*
G01X16238128Y-7882797D01*
G01X16238128Y-7864255D02*
G01X16267338Y-7845713D01*
G01X16230254Y-7783483D02*
G01X16238128Y-7786023D01*
G01X16243462Y-7791357D01*
G01X16246256Y-7799485D01*
G01X16246256Y-7802025D01*
G01X16243462Y-7809899D01*
G01X16238128Y-7815233D01*
G01X16230254Y-7818027D01*
G01X16227460Y-7818027D01*
G01X16219586Y-7815233D01*
G01X16214252Y-7809899D01*
G01X16211712Y-7802025D01*
G01X16211712Y-7799485D01*
G01X16214252Y-7791357D01*
G01X16219586Y-7786023D01*
G01X16230254Y-7783483D01*
G01X16243462Y-7783483D01*
G01X16256670Y-7786023D01*
G01X16264798Y-7791357D01*
G01X16267338Y-7799485D01*
G01X16267338Y-7804565D01*
G01X16264798Y-7812693D01*
G01X16259464Y-7815233D01*
G01X18711712Y-3272256D02*
G01X18767338Y-3272256D01*
G01X18711712Y-3272256D02*
G01X18711712Y-3248380D01*
G01X18714252Y-3240506D01*
G01X18717046Y-3237966D01*
G01X18722126Y-3235172D01*
G01X18727460Y-3235172D01*
G01X18732794Y-3237966D01*
G01X18735588Y-3240506D01*
G01X18738128Y-3248380D01*
G01X18738128Y-3272256D01*
G01X18738128Y-3253714D02*
G01X18767338Y-3235172D01*
G01X18722126Y-3207486D02*
G01X18719586Y-3202152D01*
G01X18711712Y-3194024D01*
G01X18767338Y-3194024D01*
G01X10764712Y-14666706D02*
G01X10820338Y-14666706D01*
G01X10764712Y-14666706D02*
G01X10764712Y-14648164D01*
G01X10767252Y-14640290D01*
G01X10772586Y-14634956D01*
G01X10777920Y-14632416D01*
G01X10785794Y-14629622D01*
G01X10799256Y-14629622D01*
G01X10807130Y-14632416D01*
G01X10812464Y-14634956D01*
G01X10817798Y-14640290D01*
G01X10820338Y-14648164D01*
G01X10820338Y-14666706D01*
G01X10764712Y-14596602D02*
G01X10764712Y-14567392D01*
G01X10785794Y-14583394D01*
G01X10785794Y-14575266D01*
G01X10788588Y-14569932D01*
G01X10791128Y-14567392D01*
G01X10799256Y-14564598D01*
G01X10804590Y-14564598D01*
G01X10812464Y-14567392D01*
G01X10817798Y-14572726D01*
G01X10820338Y-14580600D01*
G01X10820338Y-14588474D01*
G01X10817798Y-14596602D01*
G01X10815004Y-14599142D01*
G01X10809670Y-14601936D01*
G01X10764712Y-14520910D02*
G01X10767252Y-14528784D01*
G01X10775126Y-14534118D01*
G01X10788588Y-14536912D01*
G01X10796462Y-14536912D01*
G01X10809670Y-14534118D01*
G01X10817798Y-14528784D01*
G01X10820338Y-14520910D01*
G01X10820338Y-14515576D01*
G01X10817798Y-14507702D01*
G01X10809670Y-14502368D01*
G01X10796462Y-14499574D01*
G01X10788588Y-14499574D01*
G01X10775126Y-14502368D01*
G01X10767252Y-14507702D01*
G01X10764712Y-14515576D01*
G01X10764712Y-14520910D01*
G01X10587626Y-14239744D02*
G01X10585086Y-14234664D01*
G01X10577212Y-14226536D01*
G01X10632838Y-14226536D01*
G01X13711712Y-14804768D02*
G01X13767338Y-14804768D01*
G01X13711712Y-14804768D02*
G01X13711712Y-14780892D01*
G01X13714252Y-14773018D01*
G01X13717046Y-14770478D01*
G01X13722126Y-14767684D01*
G01X13727460Y-14767684D01*
G01X13732794Y-14770478D01*
G01X13735588Y-14773018D01*
G01X13738128Y-14780892D01*
G01X13738128Y-14804768D01*
G01X13738128Y-14786226D02*
G01X13767338Y-14767684D01*
G01X13722126Y-14739998D02*
G01X13719586Y-14734664D01*
G01X13711712Y-14726536D01*
G01X13767338Y-14726536D01*
G01X13711712Y-14685388D02*
G01X13714252Y-14693516D01*
G01X13719586Y-14696056D01*
G01X13724920Y-14696056D01*
G01X13730254Y-14693516D01*
G01X13732794Y-14688182D01*
G01X13735588Y-14677514D01*
G01X13738128Y-14669640D01*
G01X13743462Y-14664306D01*
G01X13748796Y-14661512D01*
G01X13756670Y-14661512D01*
G01X13762004Y-14664306D01*
G01X13764798Y-14666846D01*
G01X13767338Y-14674974D01*
G01X13767338Y-14685388D01*
G01X13764798Y-14693516D01*
G01X13762004Y-14696056D01*
G01X13756670Y-14698850D01*
G01X13748796Y-14698850D01*
G01X13743462Y-14696056D01*
G01X13738128Y-14690722D01*
G01X13735588Y-14682848D01*
G01X13732794Y-14672180D01*
G01X13730254Y-14666846D01*
G01X13724920Y-14664306D01*
G01X13719586Y-14664306D01*
G01X13714252Y-14666846D01*
G01X13711712Y-14674974D01*
G01X13711712Y-14685388D01*
G01X11211712Y-14817976D02*
G01X11267338Y-14817976D01*
G01X11211712Y-14817976D02*
G01X11211712Y-14794100D01*
G01X11214252Y-14786226D01*
G01X11217046Y-14783686D01*
G01X11222126Y-14780892D01*
G01X11227460Y-14780892D01*
G01X11232794Y-14783686D01*
G01X11235588Y-14786226D01*
G01X11238128Y-14794100D01*
G01X11238128Y-14817976D01*
G01X11238128Y-14799434D02*
G01X11267338Y-14780892D01*
G01X11224920Y-14750412D02*
G01X11222126Y-14750412D01*
G01X11217046Y-14747872D01*
G01X11214252Y-14745078D01*
G01X11211712Y-14739744D01*
G01X11211712Y-14729330D01*
G01X11214252Y-14723996D01*
G01X11217046Y-14721202D01*
G01X11222126Y-14718662D01*
G01X11227460Y-14718662D01*
G01X11232794Y-14721202D01*
G01X11240922Y-14726536D01*
G01X11267338Y-14753206D01*
G01X11267338Y-14715868D01*
G01X11211712Y-14661512D02*
G01X11248796Y-14688182D01*
G01X11248796Y-14648304D01*
G01X11211712Y-14661512D02*
G01X11267338Y-14661512D01*
G01X11211712Y-3303371D02*
G01X11267338Y-3303371D01*
G01X11211712Y-3303371D02*
G01X11211712Y-3279495D01*
G01X11214252Y-3271621D01*
G01X11217046Y-3269081D01*
G01X11222126Y-3266287D01*
G01X11227460Y-3266287D01*
G01X11232794Y-3269081D01*
G01X11235588Y-3271621D01*
G01X11238128Y-3279495D01*
G01X11238128Y-3303371D01*
G01X11238128Y-3284829D02*
G01X11267338Y-3266287D01*
G01X11222126Y-3238601D02*
G01X11219586Y-3233267D01*
G01X11211712Y-3225139D01*
G01X11267338Y-3225139D01*
G01X11230254Y-3162909D02*
G01X11238128Y-3165449D01*
G01X11243462Y-3170783D01*
G01X11246256Y-3178911D01*
G01X11246256Y-3181451D01*
G01X11243462Y-3189325D01*
G01X11238128Y-3194659D01*
G01X11230254Y-3197453D01*
G01X11227460Y-3197453D01*
G01X11219586Y-3194659D01*
G01X11214252Y-3189325D01*
G01X11211712Y-3181451D01*
G01X11211712Y-3178911D01*
G01X11214252Y-3170783D01*
G01X11219586Y-3165449D01*
G01X11230254Y-3162909D01*
G01X11243462Y-3162909D01*
G01X11256670Y-3165449D01*
G01X11264798Y-3170783D01*
G01X11267338Y-3178911D01*
G01X11267338Y-3183991D01*
G01X11264798Y-3192119D01*
G01X11259464Y-3194659D01*
G01X20764712Y-5434194D02*
G01X20820338Y-5434194D01*
G01X20764712Y-5434194D02*
G01X20764712Y-5415652D01*
G01X20767252Y-5407778D01*
G01X20772586Y-5402444D01*
G01X20777920Y-5399904D01*
G01X20785794Y-5397110D01*
G01X20799256Y-5397110D01*
G01X20807130Y-5399904D01*
G01X20812464Y-5402444D01*
G01X20817798Y-5407778D01*
G01X20820338Y-5415652D01*
G01X20820338Y-5434194D01*
G01X20777920Y-5366630D02*
G01X20775126Y-5366630D01*
G01X20770046Y-5364090D01*
G01X20767252Y-5361296D01*
G01X20764712Y-5355962D01*
G01X20764712Y-5345548D01*
G01X20767252Y-5340214D01*
G01X20770046Y-5337420D01*
G01X20775126Y-5334880D01*
G01X20780460Y-5334880D01*
G01X20785794Y-5337420D01*
G01X20793922Y-5342754D01*
G01X20820338Y-5369424D01*
G01X20820338Y-5332086D01*
G01X20577212Y-5168268D02*
G01X20632838Y-5168268D01*
G01X20577212Y-5168268D02*
G01X20577212Y-5144392D01*
G01X20579752Y-5136518D01*
G01X20582546Y-5133978D01*
G01X20587626Y-5131184D01*
G01X20592960Y-5131184D01*
G01X20598294Y-5133978D01*
G01X20601088Y-5136518D01*
G01X20603628Y-5144392D01*
G01X20603628Y-5168268D01*
G01X20603628Y-5149726D02*
G01X20632838Y-5131184D01*
G01X20577212Y-5103498D02*
G01X20632838Y-5103498D01*
G01X20577212Y-5103498D02*
G01X20577212Y-5068954D01*
G01X20603628Y-5103498D02*
G01X20603628Y-5082162D01*
G01X20632838Y-5103498D02*
G01X20632838Y-5068954D01*
G01X20577212Y-5041268D02*
G01X20632838Y-5041268D01*
G01X20577212Y-5041268D02*
G01X20577212Y-5006724D01*
G01X20603628Y-5041268D02*
G01X20603628Y-5019932D01*
G01X20592960Y-4965576D02*
G01X20624964Y-4965576D01*
G01X20601088Y-4979038D02*
G01X20617090Y-4952368D01*
G01X20601088Y-4952368D02*
G01X20617090Y-4979038D01*
G01X20592960Y-4911220D02*
G01X20624964Y-4911220D01*
G01X20601088Y-4924682D02*
G01X20617090Y-4898012D01*
G01X20601088Y-4898012D02*
G01X20617090Y-4924682D01*
G01X20764712Y-10035464D02*
G01X20820338Y-10035464D01*
G01X20764712Y-10035464D02*
G01X20764712Y-10016922D01*
G01X20767252Y-10009048D01*
G01X20772586Y-10003714D01*
G01X20777920Y-10001174D01*
G01X20785794Y-9998380D01*
G01X20799256Y-9998380D01*
G01X20807130Y-10001174D01*
G01X20812464Y-10003714D01*
G01X20817798Y-10009048D01*
G01X20820338Y-10016922D01*
G01X20820338Y-10035464D01*
G01X20764712Y-9944024D02*
G01X20801796Y-9970694D01*
G01X20801796Y-9930816D01*
G01X20764712Y-9944024D02*
G01X20820338Y-9944024D01*
G01X20587626Y-9639744D02*
G01X20585086Y-9634664D01*
G01X20577212Y-9626536D01*
G01X20632838Y-9626536D01*
G01X23295086Y-8876766D02*
G01X23289752Y-8882100D01*
G01X23287212Y-8889974D01*
G01X23287212Y-8900642D01*
G01X23289752Y-8908770D01*
G01X23295086Y-8913850D01*
G01X23300420Y-8913850D01*
G01X23305754Y-8911310D01*
G01X23308294Y-8908770D01*
G01X23311088Y-8903436D01*
G01X23316422Y-8887434D01*
G01X23318962Y-8882100D01*
G01X23321756Y-8879560D01*
G01X23327090Y-8876766D01*
G01X23334964Y-8876766D01*
G01X23340298Y-8882100D01*
G01X23342838Y-8889974D01*
G01X23342838Y-8900642D01*
G01X23340298Y-8908770D01*
G01X23334964Y-8913850D01*
G01X23287212Y-8849080D02*
G01X23342838Y-8835618D01*
G01X23287212Y-8822410D02*
G01X23342838Y-8835618D01*
G01X23287212Y-8822410D02*
G01X23342838Y-8809202D01*
G01X23287212Y-8795994D02*
G01X23342838Y-8809202D01*
G01X23287212Y-8741638D02*
G01X23324296Y-8768308D01*
G01X23324296Y-8728430D01*
G01X23287212Y-8741638D02*
G01X23342838Y-8741638D01*
G01X12782712Y-9793944D02*
G01X12825130Y-9793944D01*
G01X12833004Y-9796484D01*
G01X12835798Y-9799278D01*
G01X12838338Y-9804612D01*
G01X12838338Y-9809946D01*
G01X12835798Y-9815280D01*
G01X12833004Y-9817820D01*
G01X12825130Y-9820360D01*
G01X12819796Y-9820360D01*
G01X12782712Y-9734254D02*
G01X12782712Y-9760924D01*
G01X12806588Y-9763464D01*
G01X12803794Y-9760924D01*
G01X12801254Y-9752796D01*
G01X12801254Y-9744922D01*
G01X12803794Y-9737048D01*
G01X12809128Y-9731714D01*
G01X12817256Y-9728920D01*
G01X12822590Y-9728920D01*
G01X12830464Y-9731714D01*
G01X12835798Y-9737048D01*
G01X12838338Y-9744922D01*
G01X12838338Y-9752796D01*
G01X12835798Y-9760924D01*
G01X12833004Y-9763464D01*
G01X12827670Y-9766258D01*
G01X16211712Y-10204768D02*
G01X16267338Y-10204768D01*
G01X16211712Y-10204768D02*
G01X16211712Y-10180892D01*
G01X16214252Y-10173018D01*
G01X16217046Y-10170478D01*
G01X16222126Y-10167684D01*
G01X16227460Y-10167684D01*
G01X16232794Y-10170478D01*
G01X16235588Y-10173018D01*
G01X16238128Y-10180892D01*
G01X16238128Y-10204768D01*
G01X16238128Y-10186226D02*
G01X16267338Y-10167684D01*
G01X16222126Y-10139998D02*
G01X16219586Y-10134664D01*
G01X16211712Y-10126536D01*
G01X16267338Y-10126536D01*
G01X16211712Y-10082848D02*
G01X16214252Y-10090722D01*
G01X16222126Y-10096056D01*
G01X16235588Y-10098850D01*
G01X16243462Y-10098850D01*
G01X16256670Y-10096056D01*
G01X16264798Y-10090722D01*
G01X16267338Y-10082848D01*
G01X16267338Y-10077514D01*
G01X16264798Y-10069640D01*
G01X16256670Y-10064306D01*
G01X16243462Y-10061512D01*
G01X16235588Y-10061512D01*
G01X16222126Y-10064306D01*
G01X16214252Y-10069640D01*
G01X16211712Y-10077514D01*
G01X16211712Y-10082848D01*
G01X13264712Y-7754768D02*
G01X13320338Y-7754768D01*
G01X13264712Y-7754768D02*
G01X13264712Y-7736226D01*
G01X13267252Y-7728352D01*
G01X13272586Y-7723018D01*
G01X13277920Y-7720478D01*
G01X13285794Y-7717684D01*
G01X13299256Y-7717684D01*
G01X13307130Y-7720478D01*
G01X13312464Y-7723018D01*
G01X13317798Y-7728352D01*
G01X13320338Y-7736226D01*
G01X13320338Y-7754768D01*
G01X13277920Y-7687204D02*
G01X13275126Y-7687204D01*
G01X13270046Y-7684664D01*
G01X13267252Y-7681870D01*
G01X13264712Y-7676536D01*
G01X13264712Y-7666122D01*
G01X13267252Y-7660788D01*
G01X13270046Y-7657994D01*
G01X13275126Y-7655454D01*
G01X13280460Y-7655454D01*
G01X13285794Y-7657994D01*
G01X13293922Y-7663328D01*
G01X13320338Y-7689998D01*
G01X13320338Y-7652660D01*
G01X13275126Y-7624974D02*
G01X13272586Y-7619640D01*
G01X13264712Y-7611512D01*
G01X13320338Y-7611512D01*
G01X13087626Y-7339744D02*
G01X13085086Y-7334664D01*
G01X13077212Y-7326536D01*
G01X13132838Y-7326536D01*
G01X3711712Y-12506038D02*
G01X3767338Y-12506038D01*
G01X3711712Y-12506038D02*
G01X3711712Y-12482162D01*
G01X3714252Y-12474288D01*
G01X3717046Y-12471748D01*
G01X3722126Y-12468954D01*
G01X3727460Y-12468954D01*
G01X3732794Y-12471748D01*
G01X3735588Y-12474288D01*
G01X3738128Y-12482162D01*
G01X3738128Y-12506038D01*
G01X3738128Y-12487496D02*
G01X3767338Y-12468954D01*
G01X3711712Y-12414598D02*
G01X3748796Y-12441268D01*
G01X3748796Y-12401390D01*
G01X3711712Y-12414598D02*
G01X3767338Y-12414598D01*
G01X3722126Y-12373704D02*
G01X3719586Y-12368370D01*
G01X3711712Y-12360242D01*
G01X3767338Y-12360242D01*
G01X18721462Y-9789332D02*
G01X18763880Y-9789332D01*
G01X18771754Y-9791872D01*
G01X18774548Y-9794666D01*
G01X18777088Y-9800000D01*
G01X18777088Y-9805334D01*
G01X18774548Y-9810668D01*
G01X18771754Y-9813208D01*
G01X18763880Y-9815748D01*
G01X18758546Y-9815748D01*
G01X18721462Y-9748184D02*
G01X18724002Y-9756312D01*
G01X18729336Y-9758852D01*
G01X18734670Y-9758852D01*
G01X18740004Y-9756312D01*
G01X18742544Y-9750978D01*
G01X18745338Y-9740310D01*
G01X18747878Y-9732436D01*
G01X18753212Y-9727102D01*
G01X18758546Y-9724308D01*
G01X18766420Y-9724308D01*
G01X18771754Y-9727102D01*
G01X18774548Y-9729642D01*
G01X18777088Y-9737770D01*
G01X18777088Y-9748184D01*
G01X18774548Y-9756312D01*
G01X18771754Y-9758852D01*
G01X18766420Y-9761646D01*
G01X18758546Y-9761646D01*
G01X18753212Y-9758852D01*
G01X18747878Y-9753518D01*
G01X18745338Y-9745644D01*
G01X18742544Y-9734976D01*
G01X18740004Y-9729642D01*
G01X18734670Y-9727102D01*
G01X18729336Y-9727102D01*
G01X18724002Y-9729642D01*
G01X18721462Y-9737770D01*
G01X18721462Y-9748184D01*
G01X8711712Y-7916706D02*
G01X8767338Y-7916706D01*
G01X8711712Y-7916706D02*
G01X8711712Y-7892830D01*
G01X8714252Y-7884956D01*
G01X8717046Y-7882416D01*
G01X8722126Y-7879622D01*
G01X8727460Y-7879622D01*
G01X8732794Y-7882416D01*
G01X8735588Y-7884956D01*
G01X8738128Y-7892830D01*
G01X8738128Y-7916706D01*
G01X8738128Y-7898164D02*
G01X8767338Y-7879622D01*
G01X8724920Y-7849142D02*
G01X8722126Y-7849142D01*
G01X8717046Y-7846602D01*
G01X8714252Y-7843808D01*
G01X8711712Y-7838474D01*
G01X8711712Y-7828060D01*
G01X8714252Y-7822726D01*
G01X8717046Y-7819932D01*
G01X8722126Y-7817392D01*
G01X8727460Y-7817392D01*
G01X8732794Y-7819932D01*
G01X8740922Y-7825266D01*
G01X8767338Y-7851936D01*
G01X8767338Y-7814598D01*
G01X8711712Y-7749574D02*
G01X8767338Y-7776244D01*
G01X8711712Y-7786912D02*
G01X8711712Y-7749574D01*
G01X6211712Y-7916706D02*
G01X6267338Y-7916706D01*
G01X6211712Y-7916706D02*
G01X6211712Y-7892830D01*
G01X6214252Y-7884956D01*
G01X6217046Y-7882416D01*
G01X6222126Y-7879622D01*
G01X6227460Y-7879622D01*
G01X6232794Y-7882416D01*
G01X6235588Y-7884956D01*
G01X6238128Y-7892830D01*
G01X6238128Y-7916706D01*
G01X6238128Y-7898164D02*
G01X6267338Y-7879622D01*
G01X6211712Y-7846602D02*
G01X6211712Y-7817392D01*
G01X6232794Y-7833394D01*
G01X6232794Y-7825266D01*
G01X6235588Y-7819932D01*
G01X6238128Y-7817392D01*
G01X6246256Y-7814598D01*
G01X6251590Y-7814598D01*
G01X6259464Y-7817392D01*
G01X6264798Y-7822726D01*
G01X6267338Y-7830600D01*
G01X6267338Y-7838474D01*
G01X6264798Y-7846602D01*
G01X6262004Y-7849142D01*
G01X6256670Y-7851936D01*
G01X6211712Y-7781578D02*
G01X6211712Y-7752368D01*
G01X6232794Y-7768370D01*
G01X6232794Y-7760242D01*
G01X6235588Y-7754908D01*
G01X6238128Y-7752368D01*
G01X6246256Y-7749574D01*
G01X6251590Y-7749574D01*
G01X6259464Y-7752368D01*
G01X6264798Y-7757702D01*
G01X6267338Y-7765576D01*
G01X6267338Y-7773450D01*
G01X6264798Y-7781578D01*
G01X6262004Y-7784118D01*
G01X6256670Y-7786912D01*
G01X18717712Y-13667714D02*
G01X18760130Y-13667714D01*
G01X18768004Y-13670254D01*
G01X18770798Y-13673048D01*
G01X18773338Y-13678382D01*
G01X18773338Y-13683716D01*
G01X18770798Y-13689050D01*
G01X18768004Y-13691590D01*
G01X18760130Y-13694130D01*
G01X18754796Y-13694130D01*
G01X18717712Y-13613358D02*
G01X18754796Y-13640028D01*
G01X18754796Y-13600150D01*
G01X18717712Y-13613358D02*
G01X18773338Y-13613358D01*
G01X13264712Y-5466706D02*
G01X13320338Y-5466706D01*
G01X13264712Y-5466706D02*
G01X13264712Y-5448164D01*
G01X13267252Y-5440290D01*
G01X13272586Y-5434956D01*
G01X13277920Y-5432416D01*
G01X13285794Y-5429622D01*
G01X13299256Y-5429622D01*
G01X13307130Y-5432416D01*
G01X13312464Y-5434956D01*
G01X13317798Y-5440290D01*
G01X13320338Y-5448164D01*
G01X13320338Y-5466706D01*
G01X13277920Y-5399142D02*
G01X13275126Y-5399142D01*
G01X13270046Y-5396602D01*
G01X13267252Y-5393808D01*
G01X13264712Y-5388474D01*
G01X13264712Y-5378060D01*
G01X13267252Y-5372726D01*
G01X13270046Y-5369932D01*
G01X13275126Y-5367392D01*
G01X13280460Y-5367392D01*
G01X13285794Y-5369932D01*
G01X13293922Y-5375266D01*
G01X13320338Y-5401936D01*
G01X13320338Y-5364598D01*
G01X13264712Y-5320910D02*
G01X13267252Y-5328784D01*
G01X13275126Y-5334118D01*
G01X13288588Y-5336912D01*
G01X13296462Y-5336912D01*
G01X13309670Y-5334118D01*
G01X13317798Y-5328784D01*
G01X13320338Y-5320910D01*
G01X13320338Y-5315576D01*
G01X13317798Y-5307702D01*
G01X13309670Y-5302368D01*
G01X13296462Y-5299574D01*
G01X13288588Y-5299574D01*
G01X13275126Y-5302368D01*
G01X13267252Y-5307702D01*
G01X13264712Y-5315576D01*
G01X13264712Y-5320910D01*
G01X13087626Y-5039744D02*
G01X13085086Y-5034664D01*
G01X13077212Y-5026536D01*
G01X13132838Y-5026536D01*
G01X10764712Y-3166706D02*
G01X10820338Y-3166706D01*
G01X10764712Y-3166706D02*
G01X10764712Y-3148164D01*
G01X10767252Y-3140290D01*
G01X10772586Y-3134956D01*
G01X10777920Y-3132416D01*
G01X10785794Y-3129622D01*
G01X10799256Y-3129622D01*
G01X10807130Y-3132416D01*
G01X10812464Y-3134956D01*
G01X10817798Y-3140290D01*
G01X10820338Y-3148164D01*
G01X10820338Y-3166706D01*
G01X10777920Y-3099142D02*
G01X10775126Y-3099142D01*
G01X10770046Y-3096602D01*
G01X10767252Y-3093808D01*
G01X10764712Y-3088474D01*
G01X10764712Y-3078060D01*
G01X10767252Y-3072726D01*
G01X10770046Y-3069932D01*
G01X10775126Y-3067392D01*
G01X10780460Y-3067392D01*
G01X10785794Y-3069932D01*
G01X10793922Y-3075266D01*
G01X10820338Y-3101936D01*
G01X10820338Y-3064598D01*
G01X10764712Y-3004908D02*
G01X10764712Y-3031578D01*
G01X10788588Y-3034118D01*
G01X10785794Y-3031578D01*
G01X10783254Y-3023450D01*
G01X10783254Y-3015576D01*
G01X10785794Y-3007702D01*
G01X10791128Y-3002368D01*
G01X10799256Y-2999574D01*
G01X10804590Y-2999574D01*
G01X10812464Y-3002368D01*
G01X10817798Y-3007702D01*
G01X10820338Y-3015576D01*
G01X10820338Y-3023450D01*
G01X10817798Y-3031578D01*
G01X10815004Y-3034118D01*
G01X10809670Y-3036912D01*
G01X10587626Y-2739744D02*
G01X10585086Y-2734664D01*
G01X10577212Y-2726536D01*
G01X10632838Y-2726536D01*
G01X5764712Y-3166706D02*
G01X5820338Y-3166706D01*
G01X5764712Y-3166706D02*
G01X5764712Y-3148164D01*
G01X5767252Y-3140290D01*
G01X5772586Y-3134956D01*
G01X5777920Y-3132416D01*
G01X5785794Y-3129622D01*
G01X5799256Y-3129622D01*
G01X5807130Y-3132416D01*
G01X5812464Y-3134956D01*
G01X5817798Y-3140290D01*
G01X5820338Y-3148164D01*
G01X5820338Y-3166706D01*
G01X5764712Y-3096602D02*
G01X5764712Y-3067392D01*
G01X5785794Y-3083394D01*
G01X5785794Y-3075266D01*
G01X5788588Y-3069932D01*
G01X5791128Y-3067392D01*
G01X5799256Y-3064598D01*
G01X5804590Y-3064598D01*
G01X5812464Y-3067392D01*
G01X5817798Y-3072726D01*
G01X5820338Y-3080600D01*
G01X5820338Y-3088474D01*
G01X5817798Y-3096602D01*
G01X5815004Y-3099142D01*
G01X5809670Y-3101936D01*
G01X5764712Y-2999574D02*
G01X5820338Y-3026244D01*
G01X5764712Y-3036912D02*
G01X5764712Y-2999574D01*
G01X5587626Y-2739744D02*
G01X5585086Y-2734664D01*
G01X5577212Y-2726536D01*
G01X5632838Y-2726536D01*
G01X18264712Y-12342830D02*
G01X18320338Y-12342830D01*
G01X18264712Y-12342830D02*
G01X18264712Y-12324288D01*
G01X18267252Y-12316414D01*
G01X18272586Y-12311080D01*
G01X18277920Y-12308540D01*
G01X18285794Y-12305746D01*
G01X18299256Y-12305746D01*
G01X18307130Y-12308540D01*
G01X18312464Y-12311080D01*
G01X18317798Y-12316414D01*
G01X18320338Y-12324288D01*
G01X18320338Y-12342830D01*
G01X18275126Y-12278060D02*
G01X18272586Y-12272726D01*
G01X18264712Y-12264598D01*
G01X18320338Y-12264598D01*
G01X18275126Y-12236912D02*
G01X18272586Y-12231578D01*
G01X18264712Y-12223450D01*
G01X18320338Y-12223450D01*
G01X18077212Y-12068268D02*
G01X18132838Y-12068268D01*
G01X18077212Y-12068268D02*
G01X18077212Y-12044392D01*
G01X18079752Y-12036518D01*
G01X18082546Y-12033978D01*
G01X18087626Y-12031184D01*
G01X18092960Y-12031184D01*
G01X18098294Y-12033978D01*
G01X18101088Y-12036518D01*
G01X18103628Y-12044392D01*
G01X18103628Y-12068268D01*
G01X18103628Y-12049726D02*
G01X18132838Y-12031184D01*
G01X18077212Y-12003498D02*
G01X18132838Y-12003498D01*
G01X18077212Y-12003498D02*
G01X18077212Y-11968954D01*
G01X18103628Y-12003498D02*
G01X18103628Y-11982162D01*
G01X18132838Y-12003498D02*
G01X18132838Y-11968954D01*
G01X18077212Y-11941268D02*
G01X18132838Y-11941268D01*
G01X18077212Y-11941268D02*
G01X18077212Y-11906724D01*
G01X18103628Y-11941268D02*
G01X18103628Y-11919932D01*
G01X18092960Y-11865576D02*
G01X18124964Y-11865576D01*
G01X18101088Y-11879038D02*
G01X18117090Y-11852368D01*
G01X18101088Y-11852368D02*
G01X18117090Y-11879038D01*
G01X18092960Y-11811220D02*
G01X18124964Y-11811220D01*
G01X18101088Y-11824682D02*
G01X18117090Y-11798012D01*
G01X18101088Y-11798012D02*
G01X18117090Y-11824682D01*
G01X13264712Y-12366706D02*
G01X13320338Y-12366706D01*
G01X13264712Y-12366706D02*
G01X13264712Y-12348164D01*
G01X13267252Y-12340290D01*
G01X13272586Y-12334956D01*
G01X13277920Y-12332416D01*
G01X13285794Y-12329622D01*
G01X13299256Y-12329622D01*
G01X13307130Y-12332416D01*
G01X13312464Y-12334956D01*
G01X13317798Y-12340290D01*
G01X13320338Y-12348164D01*
G01X13320338Y-12366706D01*
G01X13277920Y-12299142D02*
G01X13275126Y-12299142D01*
G01X13270046Y-12296602D01*
G01X13267252Y-12293808D01*
G01X13264712Y-12288474D01*
G01X13264712Y-12278060D01*
G01X13267252Y-12272726D01*
G01X13270046Y-12269932D01*
G01X13275126Y-12267392D01*
G01X13280460Y-12267392D01*
G01X13285794Y-12269932D01*
G01X13293922Y-12275266D01*
G01X13320338Y-12301936D01*
G01X13320338Y-12264598D01*
G01X13264712Y-12231578D02*
G01X13264712Y-12202368D01*
G01X13285794Y-12218370D01*
G01X13285794Y-12210242D01*
G01X13288588Y-12204908D01*
G01X13291128Y-12202368D01*
G01X13299256Y-12199574D01*
G01X13304590Y-12199574D01*
G01X13312464Y-12202368D01*
G01X13317798Y-12207702D01*
G01X13320338Y-12215576D01*
G01X13320338Y-12223450D01*
G01X13317798Y-12231578D01*
G01X13315004Y-12234118D01*
G01X13309670Y-12236912D01*
G01X13087626Y-11939744D02*
G01X13085086Y-11934664D01*
G01X13077212Y-11926536D01*
G01X13132838Y-11926536D01*
G01X13264712Y-14667976D02*
G01X13320338Y-14667976D01*
G01X13264712Y-14667976D02*
G01X13264712Y-14649434D01*
G01X13267252Y-14641560D01*
G01X13272586Y-14636226D01*
G01X13277920Y-14633686D01*
G01X13285794Y-14630892D01*
G01X13299256Y-14630892D01*
G01X13307130Y-14633686D01*
G01X13312464Y-14636226D01*
G01X13317798Y-14641560D01*
G01X13320338Y-14649434D01*
G01X13320338Y-14667976D01*
G01X13277920Y-14600412D02*
G01X13275126Y-14600412D01*
G01X13270046Y-14597872D01*
G01X13267252Y-14595078D01*
G01X13264712Y-14589744D01*
G01X13264712Y-14579330D01*
G01X13267252Y-14573996D01*
G01X13270046Y-14571202D01*
G01X13275126Y-14568662D01*
G01X13280460Y-14568662D01*
G01X13285794Y-14571202D01*
G01X13293922Y-14576536D01*
G01X13320338Y-14603206D01*
G01X13320338Y-14565868D01*
G01X13264712Y-14511512D02*
G01X13301796Y-14538182D01*
G01X13301796Y-14498304D01*
G01X13264712Y-14511512D02*
G01X13320338Y-14511512D01*
G01X13087626Y-14239744D02*
G01X13085086Y-14234664D01*
G01X13077212Y-14226536D01*
G01X13132838Y-14226536D01*
G01X18711712Y-5584194D02*
G01X18767338Y-5584194D01*
G01X18711712Y-5584194D02*
G01X18711712Y-5560318D01*
G01X18714252Y-5552444D01*
G01X18717046Y-5549904D01*
G01X18722126Y-5547110D01*
G01X18727460Y-5547110D01*
G01X18732794Y-5549904D01*
G01X18735588Y-5552444D01*
G01X18738128Y-5560318D01*
G01X18738128Y-5584194D01*
G01X18738128Y-5565652D02*
G01X18767338Y-5547110D01*
G01X18724920Y-5516630D02*
G01X18722126Y-5516630D01*
G01X18717046Y-5514090D01*
G01X18714252Y-5511296D01*
G01X18711712Y-5505962D01*
G01X18711712Y-5495548D01*
G01X18714252Y-5490214D01*
G01X18717046Y-5487420D01*
G01X18722126Y-5484880D01*
G01X18727460Y-5484880D01*
G01X18732794Y-5487420D01*
G01X18740922Y-5492754D01*
G01X18767338Y-5519424D01*
G01X18767338Y-5482086D01*
G01X13711712Y-3304768D02*
G01X13767338Y-3304768D01*
G01X13711712Y-3304768D02*
G01X13711712Y-3280892D01*
G01X13714252Y-3273018D01*
G01X13717046Y-3270478D01*
G01X13722126Y-3267684D01*
G01X13727460Y-3267684D01*
G01X13732794Y-3270478D01*
G01X13735588Y-3273018D01*
G01X13738128Y-3280892D01*
G01X13738128Y-3304768D01*
G01X13738128Y-3286226D02*
G01X13767338Y-3267684D01*
G01X13722126Y-3239998D02*
G01X13719586Y-3234664D01*
G01X13711712Y-3226536D01*
G01X13767338Y-3226536D01*
G01X13711712Y-3193516D02*
G01X13711712Y-3164306D01*
G01X13732794Y-3180308D01*
G01X13732794Y-3172180D01*
G01X13735588Y-3166846D01*
G01X13738128Y-3164306D01*
G01X13746256Y-3161512D01*
G01X13751590Y-3161512D01*
G01X13759464Y-3164306D01*
G01X13764798Y-3169640D01*
G01X13767338Y-3177514D01*
G01X13767338Y-3185388D01*
G01X13764798Y-3193516D01*
G01X13762004Y-3196056D01*
G01X13756670Y-3198850D01*
G01X18264712Y-5434194D02*
G01X18320338Y-5434194D01*
G01X18264712Y-5434194D02*
G01X18264712Y-5415652D01*
G01X18267252Y-5407778D01*
G01X18272586Y-5402444D01*
G01X18277920Y-5399904D01*
G01X18285794Y-5397110D01*
G01X18299256Y-5397110D01*
G01X18307130Y-5399904D01*
G01X18312464Y-5402444D01*
G01X18317798Y-5407778D01*
G01X18320338Y-5415652D01*
G01X18320338Y-5434194D01*
G01X18264712Y-5355962D02*
G01X18267252Y-5364090D01*
G01X18272586Y-5366630D01*
G01X18277920Y-5366630D01*
G01X18283254Y-5364090D01*
G01X18285794Y-5358756D01*
G01X18288588Y-5348088D01*
G01X18291128Y-5340214D01*
G01X18296462Y-5334880D01*
G01X18301796Y-5332086D01*
G01X18309670Y-5332086D01*
G01X18315004Y-5334880D01*
G01X18317798Y-5337420D01*
G01X18320338Y-5345548D01*
G01X18320338Y-5355962D01*
G01X18317798Y-5364090D01*
G01X18315004Y-5366630D01*
G01X18309670Y-5369424D01*
G01X18301796Y-5369424D01*
G01X18296462Y-5366630D01*
G01X18291128Y-5361296D01*
G01X18288588Y-5353422D01*
G01X18285794Y-5342754D01*
G01X18283254Y-5337420D01*
G01X18277920Y-5334880D01*
G01X18272586Y-5334880D01*
G01X18267252Y-5337420D01*
G01X18264712Y-5345548D01*
G01X18264712Y-5355962D01*
G01X18077212Y-5168268D02*
G01X18132838Y-5168268D01*
G01X18077212Y-5168268D02*
G01X18077212Y-5144392D01*
G01X18079752Y-5136518D01*
G01X18082546Y-5133978D01*
G01X18087626Y-5131184D01*
G01X18092960Y-5131184D01*
G01X18098294Y-5133978D01*
G01X18101088Y-5136518D01*
G01X18103628Y-5144392D01*
G01X18103628Y-5168268D01*
G01X18103628Y-5149726D02*
G01X18132838Y-5131184D01*
G01X18077212Y-5103498D02*
G01X18132838Y-5103498D01*
G01X18077212Y-5103498D02*
G01X18077212Y-5068954D01*
G01X18103628Y-5103498D02*
G01X18103628Y-5082162D01*
G01X18132838Y-5103498D02*
G01X18132838Y-5068954D01*
G01X18077212Y-5041268D02*
G01X18132838Y-5041268D01*
G01X18077212Y-5041268D02*
G01X18077212Y-5006724D01*
G01X18103628Y-5041268D02*
G01X18103628Y-5019932D01*
G01X18092960Y-4965576D02*
G01X18124964Y-4965576D01*
G01X18101088Y-4979038D02*
G01X18117090Y-4952368D01*
G01X18101088Y-4952368D02*
G01X18117090Y-4979038D01*
G01X18092960Y-4911220D02*
G01X18124964Y-4911220D01*
G01X18101088Y-4924682D02*
G01X18117090Y-4898012D01*
G01X18101088Y-4898012D02*
G01X18117090Y-4924682D01*
G01X8264712Y-5466706D02*
G01X8320338Y-5466706D01*
G01X8264712Y-5466706D02*
G01X8264712Y-5448164D01*
G01X8267252Y-5440290D01*
G01X8272586Y-5434956D01*
G01X8277920Y-5432416D01*
G01X8285794Y-5429622D01*
G01X8299256Y-5429622D01*
G01X8307130Y-5432416D01*
G01X8312464Y-5434956D01*
G01X8317798Y-5440290D01*
G01X8320338Y-5448164D01*
G01X8320338Y-5466706D01*
G01X8264712Y-5396602D02*
G01X8264712Y-5367392D01*
G01X8285794Y-5383394D01*
G01X8285794Y-5375266D01*
G01X8288588Y-5369932D01*
G01X8291128Y-5367392D01*
G01X8299256Y-5364598D01*
G01X8304590Y-5364598D01*
G01X8312464Y-5367392D01*
G01X8317798Y-5372726D01*
G01X8320338Y-5380600D01*
G01X8320338Y-5388474D01*
G01X8317798Y-5396602D01*
G01X8315004Y-5399142D01*
G01X8309670Y-5401936D01*
G01X8277920Y-5334118D02*
G01X8275126Y-5334118D01*
G01X8270046Y-5331578D01*
G01X8267252Y-5328784D01*
G01X8264712Y-5323450D01*
G01X8264712Y-5313036D01*
G01X8267252Y-5307702D01*
G01X8270046Y-5304908D01*
G01X8275126Y-5302368D01*
G01X8280460Y-5302368D01*
G01X8285794Y-5304908D01*
G01X8293922Y-5310242D01*
G01X8320338Y-5336912D01*
G01X8320338Y-5299574D01*
G01X8087626Y-5039744D02*
G01X8085086Y-5034664D01*
G01X8077212Y-5026536D01*
G01X8132838Y-5026536D01*
G01X22256586Y-8874099D02*
G01X22251252Y-8879433D01*
G01X22248712Y-8887307D01*
G01X22248712Y-8897975D01*
G01X22251252Y-8906103D01*
G01X22256586Y-8911183D01*
G01X22261920Y-8911183D01*
G01X22267254Y-8908643D01*
G01X22269794Y-8906103D01*
G01X22272588Y-8900769D01*
G01X22277922Y-8884767D01*
G01X22280462Y-8879433D01*
G01X22283256Y-8876893D01*
G01X22288590Y-8874099D01*
G01X22296464Y-8874099D01*
G01X22301798Y-8879433D01*
G01X22304338Y-8887307D01*
G01X22304338Y-8897975D01*
G01X22301798Y-8906103D01*
G01X22296464Y-8911183D01*
G01X22248712Y-8846413D02*
G01X22304338Y-8832951D01*
G01X22248712Y-8819743D02*
G01X22304338Y-8832951D01*
G01X22248712Y-8819743D02*
G01X22304338Y-8806535D01*
G01X22248712Y-8793327D02*
G01X22304338Y-8806535D01*
G01X22256586Y-8733637D02*
G01X22251252Y-8736431D01*
G01X22248712Y-8744305D01*
G01X22248712Y-8749639D01*
G01X22251252Y-8757513D01*
G01X22259126Y-8762847D01*
G01X22272588Y-8765641D01*
G01X22285796Y-8765641D01*
G01X22296464Y-8762847D01*
G01X22301798Y-8757513D01*
G01X22304338Y-8749639D01*
G01X22304338Y-8747099D01*
G01X22301798Y-8738971D01*
G01X22296464Y-8733637D01*
G01X22288590Y-8731097D01*
G01X22285796Y-8731097D01*
G01X22277922Y-8733637D01*
G01X22272588Y-8738971D01*
G01X22269794Y-8747099D01*
G01X22269794Y-8749639D01*
G01X22272588Y-8757513D01*
G01X22277922Y-8762847D01*
G01X22285796Y-8765641D01*
G01X13264712Y-10066706D02*
G01X13320338Y-10066706D01*
G01X13264712Y-10066706D02*
G01X13264712Y-10048164D01*
G01X13267252Y-10040290D01*
G01X13272586Y-10034956D01*
G01X13277920Y-10032416D01*
G01X13285794Y-10029622D01*
G01X13299256Y-10029622D01*
G01X13307130Y-10032416D01*
G01X13312464Y-10034956D01*
G01X13317798Y-10040290D01*
G01X13320338Y-10048164D01*
G01X13320338Y-10066706D01*
G01X13277920Y-9999142D02*
G01X13275126Y-9999142D01*
G01X13270046Y-9996602D01*
G01X13267252Y-9993808D01*
G01X13264712Y-9988474D01*
G01X13264712Y-9978060D01*
G01X13267252Y-9972726D01*
G01X13270046Y-9969932D01*
G01X13275126Y-9967392D01*
G01X13280460Y-9967392D01*
G01X13285794Y-9969932D01*
G01X13293922Y-9975266D01*
G01X13320338Y-10001936D01*
G01X13320338Y-9964598D01*
G01X13277920Y-9934118D02*
G01X13275126Y-9934118D01*
G01X13270046Y-9931578D01*
G01X13267252Y-9928784D01*
G01X13264712Y-9923450D01*
G01X13264712Y-9913036D01*
G01X13267252Y-9907702D01*
G01X13270046Y-9904908D01*
G01X13275126Y-9902368D01*
G01X13280460Y-9902368D01*
G01X13285794Y-9904908D01*
G01X13293922Y-9910242D01*
G01X13320338Y-9936912D01*
G01X13320338Y-9899574D01*
G01X13087626Y-9639744D02*
G01X13085086Y-9634664D01*
G01X13077212Y-9626536D01*
G01X13132838Y-9626536D01*
G01X24333586Y-7987358D02*
G01X24328252Y-7992692D01*
G01X24325712Y-8000566D01*
G01X24325712Y-8011234D01*
G01X24328252Y-8019362D01*
G01X24333586Y-8024442D01*
G01X24338920Y-8024442D01*
G01X24344254Y-8021902D01*
G01X24346794Y-8019362D01*
G01X24349588Y-8014028D01*
G01X24354922Y-7998026D01*
G01X24357462Y-7992692D01*
G01X24360256Y-7990152D01*
G01X24365590Y-7987358D01*
G01X24373464Y-7987358D01*
G01X24378798Y-7992692D01*
G01X24381338Y-8000566D01*
G01X24381338Y-8011234D01*
G01X24378798Y-8019362D01*
G01X24373464Y-8024442D01*
G01X24325712Y-7959672D02*
G01X24381338Y-7946210D01*
G01X24325712Y-7933002D02*
G01X24381338Y-7946210D01*
G01X24325712Y-7933002D02*
G01X24381338Y-7919794D01*
G01X24325712Y-7906586D02*
G01X24381338Y-7919794D01*
G01X24336126Y-7878900D02*
G01X24333586Y-7873566D01*
G01X24325712Y-7865438D01*
G01X24381338Y-7865438D01*
G01X18711712Y-14782797D02*
G01X18767338Y-14782797D01*
G01X18711712Y-14782797D02*
G01X18711712Y-14758921D01*
G01X18714252Y-14751047D01*
G01X18717046Y-14748507D01*
G01X18722126Y-14745713D01*
G01X18727460Y-14745713D01*
G01X18732794Y-14748507D01*
G01X18735588Y-14751047D01*
G01X18738128Y-14758921D01*
G01X18738128Y-14782797D01*
G01X18738128Y-14764255D02*
G01X18767338Y-14745713D01*
G01X18719586Y-14686023D02*
G01X18714252Y-14688817D01*
G01X18711712Y-14696691D01*
G01X18711712Y-14702025D01*
G01X18714252Y-14709899D01*
G01X18722126Y-14715233D01*
G01X18735588Y-14718027D01*
G01X18748796Y-14718027D01*
G01X18759464Y-14715233D01*
G01X18764798Y-14709899D01*
G01X18767338Y-14702025D01*
G01X18767338Y-14699485D01*
G01X18764798Y-14691357D01*
G01X18759464Y-14686023D01*
G01X18751590Y-14683483D01*
G01X18748796Y-14683483D01*
G01X18740922Y-14686023D01*
G01X18735588Y-14691357D01*
G01X18732794Y-14699485D01*
G01X18732794Y-14702025D01*
G01X18735588Y-14709899D01*
G01X18740922Y-14715233D01*
G01X18748796Y-14718027D01*
G01X18711712Y-7884194D02*
G01X18767338Y-7884194D01*
G01X18711712Y-7884194D02*
G01X18711712Y-7860318D01*
G01X18714252Y-7852444D01*
G01X18717046Y-7849904D01*
G01X18722126Y-7847110D01*
G01X18727460Y-7847110D01*
G01X18732794Y-7849904D01*
G01X18735588Y-7852444D01*
G01X18738128Y-7860318D01*
G01X18738128Y-7884194D01*
G01X18738128Y-7865652D02*
G01X18767338Y-7847110D01*
G01X18711712Y-7814090D02*
G01X18711712Y-7784880D01*
G01X18732794Y-7800882D01*
G01X18732794Y-7792754D01*
G01X18735588Y-7787420D01*
G01X18738128Y-7784880D01*
G01X18746256Y-7782086D01*
G01X18751590Y-7782086D01*
G01X18759464Y-7784880D01*
G01X18764798Y-7790214D01*
G01X18767338Y-7798088D01*
G01X18767338Y-7805962D01*
G01X18764798Y-7814090D01*
G01X18762004Y-7816630D01*
G01X18756670Y-7819424D01*
G01X6211712Y-5616706D02*
G01X6267338Y-5616706D01*
G01X6211712Y-5616706D02*
G01X6211712Y-5592830D01*
G01X6214252Y-5584956D01*
G01X6217046Y-5582416D01*
G01X6222126Y-5579622D01*
G01X6227460Y-5579622D01*
G01X6232794Y-5582416D01*
G01X6235588Y-5584956D01*
G01X6238128Y-5592830D01*
G01X6238128Y-5616706D01*
G01X6238128Y-5598164D02*
G01X6267338Y-5579622D01*
G01X6211712Y-5546602D02*
G01X6211712Y-5517392D01*
G01X6232794Y-5533394D01*
G01X6232794Y-5525266D01*
G01X6235588Y-5519932D01*
G01X6238128Y-5517392D01*
G01X6246256Y-5514598D01*
G01X6251590Y-5514598D01*
G01X6259464Y-5517392D01*
G01X6264798Y-5522726D01*
G01X6267338Y-5530600D01*
G01X6267338Y-5538474D01*
G01X6264798Y-5546602D01*
G01X6262004Y-5549142D01*
G01X6256670Y-5551936D01*
G01X6224920Y-5484118D02*
G01X6222126Y-5484118D01*
G01X6217046Y-5481578D01*
G01X6214252Y-5478784D01*
G01X6211712Y-5473450D01*
G01X6211712Y-5463036D01*
G01X6214252Y-5457702D01*
G01X6217046Y-5454908D01*
G01X6222126Y-5452368D01*
G01X6227460Y-5452368D01*
G01X6232794Y-5454908D01*
G01X6240922Y-5460242D01*
G01X6267338Y-5486912D01*
G01X6267338Y-5449574D01*
G01X6211712Y-14815309D02*
G01X6267338Y-14815309D01*
G01X6211712Y-14815309D02*
G01X6211712Y-14791433D01*
G01X6214252Y-14783559D01*
G01X6217046Y-14781019D01*
G01X6222126Y-14778225D01*
G01X6227460Y-14778225D01*
G01X6232794Y-14781019D01*
G01X6235588Y-14783559D01*
G01X6238128Y-14791433D01*
G01X6238128Y-14815309D01*
G01X6238128Y-14796767D02*
G01X6267338Y-14778225D01*
G01X6211712Y-14745205D02*
G01X6211712Y-14715995D01*
G01X6232794Y-14731997D01*
G01X6232794Y-14723869D01*
G01X6235588Y-14718535D01*
G01X6238128Y-14715995D01*
G01X6246256Y-14713201D01*
G01X6251590Y-14713201D01*
G01X6259464Y-14715995D01*
G01X6264798Y-14721329D01*
G01X6267338Y-14729203D01*
G01X6267338Y-14737077D01*
G01X6264798Y-14745205D01*
G01X6262004Y-14747745D01*
G01X6256670Y-14750539D01*
G01X6219586Y-14653511D02*
G01X6214252Y-14656305D01*
G01X6211712Y-14664179D01*
G01X6211712Y-14669513D01*
G01X6214252Y-14677387D01*
G01X6222126Y-14682721D01*
G01X6235588Y-14685515D01*
G01X6248796Y-14685515D01*
G01X6259464Y-14682721D01*
G01X6264798Y-14677387D01*
G01X6267338Y-14669513D01*
G01X6267338Y-14666973D01*
G01X6264798Y-14658845D01*
G01X6259464Y-14653511D01*
G01X6251590Y-14650971D01*
G01X6248796Y-14650971D01*
G01X6240922Y-14653511D01*
G01X6235588Y-14658845D01*
G01X6232794Y-14666973D01*
G01X6232794Y-14669513D01*
G01X6235588Y-14677387D01*
G01X6240922Y-14682721D01*
G01X6248796Y-14685515D01*
G01X23295086Y-7999296D02*
G01X23289752Y-8004630D01*
G01X23287212Y-8012504D01*
G01X23287212Y-8023172D01*
G01X23289752Y-8031300D01*
G01X23295086Y-8036380D01*
G01X23300420Y-8036380D01*
G01X23305754Y-8033840D01*
G01X23308294Y-8031300D01*
G01X23311088Y-8025966D01*
G01X23316422Y-8009964D01*
G01X23318962Y-8004630D01*
G01X23321756Y-8002090D01*
G01X23327090Y-7999296D01*
G01X23334964Y-7999296D01*
G01X23340298Y-8004630D01*
G01X23342838Y-8012504D01*
G01X23342838Y-8023172D01*
G01X23340298Y-8031300D01*
G01X23334964Y-8036380D01*
G01X23287212Y-7971610D02*
G01X23342838Y-7958148D01*
G01X23287212Y-7944940D02*
G01X23342838Y-7958148D01*
G01X23287212Y-7944940D02*
G01X23342838Y-7931732D01*
G01X23287212Y-7918524D02*
G01X23342838Y-7931732D01*
G01X23287212Y-7885504D02*
G01X23287212Y-7856294D01*
G01X23308294Y-7872296D01*
G01X23308294Y-7864168D01*
G01X23311088Y-7858834D01*
G01X23313628Y-7856294D01*
G01X23321756Y-7853500D01*
G01X23327090Y-7853500D01*
G01X23334964Y-7856294D01*
G01X23340298Y-7861628D01*
G01X23342838Y-7869502D01*
G01X23342838Y-7877376D01*
G01X23340298Y-7885504D01*
G01X23337504Y-7888044D01*
G01X23332170Y-7890838D01*
G01X5764712Y-14667976D02*
G01X5820338Y-14667976D01*
G01X5764712Y-14667976D02*
G01X5764712Y-14649434D01*
G01X5767252Y-14641560D01*
G01X5772586Y-14636226D01*
G01X5777920Y-14633686D01*
G01X5785794Y-14630892D01*
G01X5799256Y-14630892D01*
G01X5807130Y-14633686D01*
G01X5812464Y-14636226D01*
G01X5817798Y-14641560D01*
G01X5820338Y-14649434D01*
G01X5820338Y-14667976D01*
G01X5764712Y-14576536D02*
G01X5801796Y-14603206D01*
G01X5801796Y-14563328D01*
G01X5764712Y-14576536D02*
G01X5820338Y-14576536D01*
G01X5777920Y-14532848D02*
G01X5775126Y-14532848D01*
G01X5770046Y-14530308D01*
G01X5767252Y-14527514D01*
G01X5764712Y-14522180D01*
G01X5764712Y-14511766D01*
G01X5767252Y-14506432D01*
G01X5770046Y-14503638D01*
G01X5775126Y-14501098D01*
G01X5780460Y-14501098D01*
G01X5785794Y-14503638D01*
G01X5793922Y-14508972D01*
G01X5820338Y-14535642D01*
G01X5820338Y-14498304D01*
G01X5587626Y-14239744D02*
G01X5585086Y-14234664D01*
G01X5577212Y-14226536D01*
G01X5632838Y-14226536D01*
G01X18711712Y-12484194D02*
G01X18767338Y-12484194D01*
G01X18711712Y-12484194D02*
G01X18711712Y-12460318D01*
G01X18714252Y-12452444D01*
G01X18717046Y-12449904D01*
G01X18722126Y-12447110D01*
G01X18727460Y-12447110D01*
G01X18732794Y-12449904D01*
G01X18735588Y-12452444D01*
G01X18738128Y-12460318D01*
G01X18738128Y-12484194D01*
G01X18738128Y-12465652D02*
G01X18767338Y-12447110D01*
G01X18711712Y-12387420D02*
G01X18711712Y-12414090D01*
G01X18735588Y-12416630D01*
G01X18732794Y-12414090D01*
G01X18730254Y-12405962D01*
G01X18730254Y-12398088D01*
G01X18732794Y-12390214D01*
G01X18738128Y-12384880D01*
G01X18746256Y-12382086D01*
G01X18751590Y-12382086D01*
G01X18759464Y-12384880D01*
G01X18764798Y-12390214D01*
G01X18767338Y-12398088D01*
G01X18767338Y-12405962D01*
G01X18764798Y-12414090D01*
G01X18762004Y-12416630D01*
G01X18756670Y-12419424D01*
G01X23702324Y-4135812D02*
G01X23702324Y-4191438D01*
G01X23702324Y-4135812D02*
G01X23726200Y-4135812D01*
G01X23734074Y-4138352D01*
G01X23736614Y-4141146D01*
G01X23739408Y-4146226D01*
G01X23739408Y-4151560D01*
G01X23736614Y-4156894D01*
G01X23734074Y-4159688D01*
G01X23726200Y-4162228D01*
G01X23702324Y-4162228D01*
G01X23720866Y-4162228D02*
G01X23739408Y-4191438D01*
G01X23793764Y-4135812D02*
G01X23767094Y-4172896D01*
G01X23806972Y-4172896D01*
G01X23793764Y-4135812D02*
G01X23793764Y-4191438D01*
G01X23866662Y-4135812D02*
G01X23839992Y-4135812D01*
G01X23837452Y-4159688D01*
G01X23839992Y-4156894D01*
G01X23848120Y-4154354D01*
G01X23855994Y-4154354D01*
G01X23863868Y-4156894D01*
G01X23869202Y-4162228D01*
G01X23871996Y-4170356D01*
G01X23871996Y-4175690D01*
G01X23869202Y-4183564D01*
G01X23863868Y-4188898D01*
G01X23855994Y-4191438D01*
G01X23848120Y-4191438D01*
G01X23839992Y-4188898D01*
G01X23837452Y-4186104D01*
G01X23834658Y-4180770D01*
G01X15764712Y-7754768D02*
G01X15820338Y-7754768D01*
G01X15764712Y-7754768D02*
G01X15764712Y-7736226D01*
G01X15767252Y-7728352D01*
G01X15772586Y-7723018D01*
G01X15777920Y-7720478D01*
G01X15785794Y-7717684D01*
G01X15799256Y-7717684D01*
G01X15807130Y-7720478D01*
G01X15812464Y-7723018D01*
G01X15817798Y-7728352D01*
G01X15820338Y-7736226D01*
G01X15820338Y-7754768D01*
G01X15775126Y-7689998D02*
G01X15772586Y-7684664D01*
G01X15764712Y-7676536D01*
G01X15820338Y-7676536D01*
G01X15764712Y-7616846D02*
G01X15764712Y-7643516D01*
G01X15788588Y-7646056D01*
G01X15785794Y-7643516D01*
G01X15783254Y-7635388D01*
G01X15783254Y-7627514D01*
G01X15785794Y-7619640D01*
G01X15791128Y-7614306D01*
G01X15799256Y-7611512D01*
G01X15804590Y-7611512D01*
G01X15812464Y-7614306D01*
G01X15817798Y-7619640D01*
G01X15820338Y-7627514D01*
G01X15820338Y-7635388D01*
G01X15817798Y-7643516D01*
G01X15815004Y-7646056D01*
G01X15809670Y-7648850D01*
G01X15587626Y-7339744D02*
G01X15585086Y-7334664D01*
G01X15577212Y-7326536D01*
G01X15632838Y-7326536D01*
G01X15764712Y-5456038D02*
G01X15820338Y-5456038D01*
G01X15764712Y-5456038D02*
G01X15764712Y-5437496D01*
G01X15767252Y-5429622D01*
G01X15772586Y-5424288D01*
G01X15777920Y-5421748D01*
G01X15785794Y-5418954D01*
G01X15799256Y-5418954D01*
G01X15807130Y-5421748D01*
G01X15812464Y-5424288D01*
G01X15817798Y-5429622D01*
G01X15820338Y-5437496D01*
G01X15820338Y-5456038D01*
G01X15775126Y-5391268D02*
G01X15772586Y-5385934D01*
G01X15764712Y-5377806D01*
G01X15820338Y-5377806D01*
G01X15764712Y-5323450D02*
G01X15801796Y-5350120D01*
G01X15801796Y-5310242D01*
G01X15764712Y-5323450D02*
G01X15820338Y-5323450D01*
G01X15587626Y-5039744D02*
G01X15585086Y-5034664D01*
G01X15577212Y-5026536D01*
G01X15632838Y-5026536D01*
G01X4985712Y-9370506D02*
G01X5028130Y-9370506D01*
G01X5036004Y-9373046D01*
G01X5038798Y-9375840D01*
G01X5041338Y-9381174D01*
G01X5041338Y-9386508D01*
G01X5038798Y-9391842D01*
G01X5036004Y-9394382D01*
G01X5028130Y-9396922D01*
G01X5022796Y-9396922D01*
G01X4996126Y-9342820D02*
G01X4993586Y-9337486D01*
G01X4985712Y-9329358D01*
G01X5041338Y-9329358D01*
G01X18264712Y-3134194D02*
G01X18320338Y-3134194D01*
G01X18264712Y-3134194D02*
G01X18264712Y-3115652D01*
G01X18267252Y-3107778D01*
G01X18272586Y-3102444D01*
G01X18277920Y-3099904D01*
G01X18285794Y-3097110D01*
G01X18299256Y-3097110D01*
G01X18307130Y-3099904D01*
G01X18312464Y-3102444D01*
G01X18317798Y-3107778D01*
G01X18320338Y-3115652D01*
G01X18320338Y-3134194D01*
G01X18264712Y-3032086D02*
G01X18320338Y-3058756D01*
G01X18264712Y-3069424D02*
G01X18264712Y-3032086D01*
G01X18077212Y-2868268D02*
G01X18132838Y-2868268D01*
G01X18077212Y-2868268D02*
G01X18077212Y-2844392D01*
G01X18079752Y-2836518D01*
G01X18082546Y-2833978D01*
G01X18087626Y-2831184D01*
G01X18092960Y-2831184D01*
G01X18098294Y-2833978D01*
G01X18101088Y-2836518D01*
G01X18103628Y-2844392D01*
G01X18103628Y-2868268D01*
G01X18103628Y-2849726D02*
G01X18132838Y-2831184D01*
G01X18077212Y-2803498D02*
G01X18132838Y-2803498D01*
G01X18077212Y-2803498D02*
G01X18077212Y-2768954D01*
G01X18103628Y-2803498D02*
G01X18103628Y-2782162D01*
G01X18132838Y-2803498D02*
G01X18132838Y-2768954D01*
G01X18077212Y-2741268D02*
G01X18132838Y-2741268D01*
G01X18077212Y-2741268D02*
G01X18077212Y-2706724D01*
G01X18103628Y-2741268D02*
G01X18103628Y-2719932D01*
G01X18092960Y-2665576D02*
G01X18124964Y-2665576D01*
G01X18101088Y-2679038D02*
G01X18117090Y-2652368D01*
G01X18101088Y-2652368D02*
G01X18117090Y-2679038D01*
G01X18092960Y-2611220D02*
G01X18124964Y-2611220D01*
G01X18101088Y-2624682D02*
G01X18117090Y-2598012D01*
G01X18101088Y-2598012D02*
G01X18117090Y-2624682D01*
G01X13711712Y-5606038D02*
G01X13767338Y-5606038D01*
G01X13711712Y-5606038D02*
G01X13711712Y-5582162D01*
G01X13714252Y-5574288D01*
G01X13717046Y-5571748D01*
G01X13722126Y-5568954D01*
G01X13727460Y-5568954D01*
G01X13732794Y-5571748D01*
G01X13735588Y-5574288D01*
G01X13738128Y-5582162D01*
G01X13738128Y-5606038D01*
G01X13738128Y-5587496D02*
G01X13767338Y-5568954D01*
G01X13722126Y-5541268D02*
G01X13719586Y-5535934D01*
G01X13711712Y-5527806D01*
G01X13767338Y-5527806D01*
G01X13711712Y-5473450D02*
G01X13748796Y-5500120D01*
G01X13748796Y-5460242D01*
G01X13711712Y-5473450D02*
G01X13767338Y-5473450D01*
G01X22513160Y-4193720D02*
G01X22510620Y-4188386D01*
G01X22505286Y-4183052D01*
G01X22499952Y-4180512D01*
G01X22489284Y-4180512D01*
G01X22483950Y-4183052D01*
G01X22478616Y-4188386D01*
G01X22476076Y-4193720D01*
G01X22473536Y-4201594D01*
G01X22473536Y-4215056D01*
G01X22476076Y-4222930D01*
G01X22478616Y-4228264D01*
G01X22483950Y-4233598D01*
G01X22489284Y-4236138D01*
G01X22499952Y-4236138D01*
G01X22505286Y-4233598D01*
G01X22510620Y-4228264D01*
G01X22513160Y-4222930D01*
G01X22543640Y-4193720D02*
G01X22543640Y-4190926D01*
G01X22546180Y-4185846D01*
G01X22548974Y-4183052D01*
G01X22554308Y-4180512D01*
G01X22564722Y-4180512D01*
G01X22570056Y-4183052D01*
G01X22572850Y-4185846D01*
G01X22575390Y-4190926D01*
G01X22575390Y-4196260D01*
G01X22572850Y-4201594D01*
G01X22567516Y-4209722D01*
G01X22540846Y-4236138D01*
G01X22578184Y-4236138D01*
G01X21915498Y-6162220D02*
G01X21912958Y-6156886D01*
G01X21907624Y-6151552D01*
G01X21902290Y-6149012D01*
G01X21891622Y-6149012D01*
G01X21886288Y-6151552D01*
G01X21880954Y-6156886D01*
G01X21878414Y-6162220D01*
G01X21875874Y-6170094D01*
G01X21875874Y-6183556D01*
G01X21878414Y-6191430D01*
G01X21880954Y-6196764D01*
G01X21886288Y-6202098D01*
G01X21891622Y-6204638D01*
G01X21902290Y-6204638D01*
G01X21907624Y-6202098D01*
G01X21912958Y-6196764D01*
G01X21915498Y-6191430D01*
G01X21943184Y-6159426D02*
G01X21948518Y-6156886D01*
G01X21956646Y-6149012D01*
G01X21956646Y-6204638D01*
G01X8711712Y-5615309D02*
G01X8767338Y-5615309D01*
G01X8711712Y-5615309D02*
G01X8711712Y-5591433D01*
G01X8714252Y-5583559D01*
G01X8717046Y-5581019D01*
G01X8722126Y-5578225D01*
G01X8727460Y-5578225D01*
G01X8732794Y-5581019D01*
G01X8735588Y-5583559D01*
G01X8738128Y-5591433D01*
G01X8738128Y-5615309D01*
G01X8738128Y-5596767D02*
G01X8767338Y-5578225D01*
G01X8724920Y-5547745D02*
G01X8722126Y-5547745D01*
G01X8717046Y-5545205D01*
G01X8714252Y-5542411D01*
G01X8711712Y-5537077D01*
G01X8711712Y-5526663D01*
G01X8714252Y-5521329D01*
G01X8717046Y-5518535D01*
G01X8722126Y-5515995D01*
G01X8727460Y-5515995D01*
G01X8732794Y-5518535D01*
G01X8740922Y-5523869D01*
G01X8767338Y-5550539D01*
G01X8767338Y-5513201D01*
G01X8719586Y-5453511D02*
G01X8714252Y-5456305D01*
G01X8711712Y-5464179D01*
G01X8711712Y-5469513D01*
G01X8714252Y-5477387D01*
G01X8722126Y-5482721D01*
G01X8735588Y-5485515D01*
G01X8748796Y-5485515D01*
G01X8759464Y-5482721D01*
G01X8764798Y-5477387D01*
G01X8767338Y-5469513D01*
G01X8767338Y-5466973D01*
G01X8764798Y-5458845D01*
G01X8759464Y-5453511D01*
G01X8751590Y-5450971D01*
G01X8748796Y-5450971D01*
G01X8740922Y-5453511D01*
G01X8735588Y-5458845D01*
G01X8732794Y-5466973D01*
G01X8732794Y-5469513D01*
G01X8735588Y-5477387D01*
G01X8740922Y-5482721D01*
G01X8748796Y-5485515D01*
G01X10764712Y-10066706D02*
G01X10820338Y-10066706D01*
G01X10764712Y-10066706D02*
G01X10764712Y-10048164D01*
G01X10767252Y-10040290D01*
G01X10772586Y-10034956D01*
G01X10777920Y-10032416D01*
G01X10785794Y-10029622D01*
G01X10799256Y-10029622D01*
G01X10807130Y-10032416D01*
G01X10812464Y-10034956D01*
G01X10817798Y-10040290D01*
G01X10820338Y-10048164D01*
G01X10820338Y-10066706D01*
G01X10777920Y-9999142D02*
G01X10775126Y-9999142D01*
G01X10770046Y-9996602D01*
G01X10767252Y-9993808D01*
G01X10764712Y-9988474D01*
G01X10764712Y-9978060D01*
G01X10767252Y-9972726D01*
G01X10770046Y-9969932D01*
G01X10775126Y-9967392D01*
G01X10780460Y-9967392D01*
G01X10785794Y-9969932D01*
G01X10793922Y-9975266D01*
G01X10820338Y-10001936D01*
G01X10820338Y-9964598D01*
G01X10764712Y-9923450D02*
G01X10767252Y-9931578D01*
G01X10772586Y-9934118D01*
G01X10777920Y-9934118D01*
G01X10783254Y-9931578D01*
G01X10785794Y-9926244D01*
G01X10788588Y-9915576D01*
G01X10791128Y-9907702D01*
G01X10796462Y-9902368D01*
G01X10801796Y-9899574D01*
G01X10809670Y-9899574D01*
G01X10815004Y-9902368D01*
G01X10817798Y-9904908D01*
G01X10820338Y-9913036D01*
G01X10820338Y-9923450D01*
G01X10817798Y-9931578D01*
G01X10815004Y-9934118D01*
G01X10809670Y-9936912D01*
G01X10801796Y-9936912D01*
G01X10796462Y-9934118D01*
G01X10791128Y-9928784D01*
G01X10788588Y-9920910D01*
G01X10785794Y-9910242D01*
G01X10783254Y-9904908D01*
G01X10777920Y-9902368D01*
G01X10772586Y-9902368D01*
G01X10767252Y-9904908D01*
G01X10764712Y-9913036D01*
G01X10764712Y-9923450D01*
G01X10587626Y-9639744D02*
G01X10585086Y-9634664D01*
G01X10577212Y-9626536D01*
G01X10632838Y-9626536D01*
G01X13711712Y-10203371D02*
G01X13767338Y-10203371D01*
G01X13711712Y-10203371D02*
G01X13711712Y-10179495D01*
G01X13714252Y-10171621D01*
G01X13717046Y-10169081D01*
G01X13722126Y-10166287D01*
G01X13727460Y-10166287D01*
G01X13732794Y-10169081D01*
G01X13735588Y-10171621D01*
G01X13738128Y-10179495D01*
G01X13738128Y-10203371D01*
G01X13738128Y-10184829D02*
G01X13767338Y-10166287D01*
G01X13722126Y-10138601D02*
G01X13719586Y-10133267D01*
G01X13711712Y-10125139D01*
G01X13767338Y-10125139D01*
G01X13719586Y-10065449D02*
G01X13714252Y-10068243D01*
G01X13711712Y-10076117D01*
G01X13711712Y-10081451D01*
G01X13714252Y-10089325D01*
G01X13722126Y-10094659D01*
G01X13735588Y-10097453D01*
G01X13748796Y-10097453D01*
G01X13759464Y-10094659D01*
G01X13764798Y-10089325D01*
G01X13767338Y-10081451D01*
G01X13767338Y-10078911D01*
G01X13764798Y-10070783D01*
G01X13759464Y-10065449D01*
G01X13751590Y-10062909D01*
G01X13748796Y-10062909D01*
G01X13740922Y-10065449D01*
G01X13735588Y-10070783D01*
G01X13732794Y-10078911D01*
G01X13732794Y-10081451D01*
G01X13735588Y-10089325D01*
G01X13740922Y-10094659D01*
G01X13748796Y-10097453D01*
G01X21511712Y-2998444D02*
G01X21554130Y-2998444D01*
G01X21562004Y-3000984D01*
G01X21564798Y-3003778D01*
G01X21567338Y-3009112D01*
G01X21567338Y-3014446D01*
G01X21564798Y-3019780D01*
G01X21562004Y-3022320D01*
G01X21554130Y-3024860D01*
G01X21548796Y-3024860D01*
G01X21524920Y-2967964D02*
G01X21522126Y-2967964D01*
G01X21517046Y-2965424D01*
G01X21514252Y-2962630D01*
G01X21511712Y-2957296D01*
G01X21511712Y-2946882D01*
G01X21514252Y-2941548D01*
G01X21517046Y-2938754D01*
G01X21522126Y-2936214D01*
G01X21527460Y-2936214D01*
G01X21532794Y-2938754D01*
G01X21540922Y-2944088D01*
G01X21567338Y-2970758D01*
G01X21567338Y-2933420D01*
G01X8711712Y-14816706D02*
G01X8767338Y-14816706D01*
G01X8711712Y-14816706D02*
G01X8711712Y-14792830D01*
G01X8714252Y-14784956D01*
G01X8717046Y-14782416D01*
G01X8722126Y-14779622D01*
G01X8727460Y-14779622D01*
G01X8732794Y-14782416D01*
G01X8735588Y-14784956D01*
G01X8738128Y-14792830D01*
G01X8738128Y-14816706D01*
G01X8738128Y-14798164D02*
G01X8767338Y-14779622D01*
G01X8711712Y-14746602D02*
G01X8711712Y-14717392D01*
G01X8732794Y-14733394D01*
G01X8732794Y-14725266D01*
G01X8735588Y-14719932D01*
G01X8738128Y-14717392D01*
G01X8746256Y-14714598D01*
G01X8751590Y-14714598D01*
G01X8759464Y-14717392D01*
G01X8764798Y-14722726D01*
G01X8767338Y-14730600D01*
G01X8767338Y-14738474D01*
G01X8764798Y-14746602D01*
G01X8762004Y-14749142D01*
G01X8756670Y-14751936D01*
G01X8711712Y-14670910D02*
G01X8714252Y-14678784D01*
G01X8722126Y-14684118D01*
G01X8735588Y-14686912D01*
G01X8743462Y-14686912D01*
G01X8756670Y-14684118D01*
G01X8764798Y-14678784D01*
G01X8767338Y-14670910D01*
G01X8767338Y-14665576D01*
G01X8764798Y-14657702D01*
G01X8756670Y-14652368D01*
G01X8743462Y-14649574D01*
G01X8735588Y-14649574D01*
G01X8722126Y-14652368D01*
G01X8714252Y-14657702D01*
G01X8711712Y-14665576D01*
G01X8711712Y-14670910D01*
G01X6211712Y-10217976D02*
G01X6267338Y-10217976D01*
G01X6211712Y-10217976D02*
G01X6211712Y-10194100D01*
G01X6214252Y-10186226D01*
G01X6217046Y-10183686D01*
G01X6222126Y-10180892D01*
G01X6227460Y-10180892D01*
G01X6232794Y-10183686D01*
G01X6235588Y-10186226D01*
G01X6238128Y-10194100D01*
G01X6238128Y-10217976D01*
G01X6238128Y-10199434D02*
G01X6267338Y-10180892D01*
G01X6211712Y-10147872D02*
G01X6211712Y-10118662D01*
G01X6232794Y-10134664D01*
G01X6232794Y-10126536D01*
G01X6235588Y-10121202D01*
G01X6238128Y-10118662D01*
G01X6246256Y-10115868D01*
G01X6251590Y-10115868D01*
G01X6259464Y-10118662D01*
G01X6264798Y-10123996D01*
G01X6267338Y-10131870D01*
G01X6267338Y-10139744D01*
G01X6264798Y-10147872D01*
G01X6262004Y-10150412D01*
G01X6256670Y-10153206D01*
G01X6211712Y-10061512D02*
G01X6248796Y-10088182D01*
G01X6248796Y-10048304D01*
G01X6211712Y-10061512D02*
G01X6267338Y-10061512D01*
G01X11211712Y-12516706D02*
G01X11267338Y-12516706D01*
G01X11211712Y-12516706D02*
G01X11211712Y-12492830D01*
G01X11214252Y-12484956D01*
G01X11217046Y-12482416D01*
G01X11222126Y-12479622D01*
G01X11227460Y-12479622D01*
G01X11232794Y-12482416D01*
G01X11235588Y-12484956D01*
G01X11238128Y-12492830D01*
G01X11238128Y-12516706D01*
G01X11238128Y-12498164D02*
G01X11267338Y-12479622D01*
G01X11224920Y-12449142D02*
G01X11222126Y-12449142D01*
G01X11217046Y-12446602D01*
G01X11214252Y-12443808D01*
G01X11211712Y-12438474D01*
G01X11211712Y-12428060D01*
G01X11214252Y-12422726D01*
G01X11217046Y-12419932D01*
G01X11222126Y-12417392D01*
G01X11227460Y-12417392D01*
G01X11232794Y-12419932D01*
G01X11240922Y-12425266D01*
G01X11267338Y-12451936D01*
G01X11267338Y-12414598D01*
G01X11211712Y-12381578D02*
G01X11211712Y-12352368D01*
G01X11232794Y-12368370D01*
G01X11232794Y-12360242D01*
G01X11235588Y-12354908D01*
G01X11238128Y-12352368D01*
G01X11246256Y-12349574D01*
G01X11251590Y-12349574D01*
G01X11259464Y-12352368D01*
G01X11264798Y-12357702D01*
G01X11267338Y-12365576D01*
G01X11267338Y-12373450D01*
G01X11264798Y-12381578D01*
G01X11262004Y-12384118D01*
G01X11256670Y-12386912D01*
G01X22256586Y-7999296D02*
G01X22251252Y-8004630D01*
G01X22248712Y-8012504D01*
G01X22248712Y-8023172D01*
G01X22251252Y-8031300D01*
G01X22256586Y-8036380D01*
G01X22261920Y-8036380D01*
G01X22267254Y-8033840D01*
G01X22269794Y-8031300D01*
G01X22272588Y-8025966D01*
G01X22277922Y-8009964D01*
G01X22280462Y-8004630D01*
G01X22283256Y-8002090D01*
G01X22288590Y-7999296D01*
G01X22296464Y-7999296D01*
G01X22301798Y-8004630D01*
G01X22304338Y-8012504D01*
G01X22304338Y-8023172D01*
G01X22301798Y-8031300D01*
G01X22296464Y-8036380D01*
G01X22248712Y-7971610D02*
G01X22304338Y-7958148D01*
G01X22248712Y-7944940D02*
G01X22304338Y-7958148D01*
G01X22248712Y-7944940D02*
G01X22304338Y-7931732D01*
G01X22248712Y-7918524D02*
G01X22304338Y-7931732D01*
G01X22248712Y-7858834D02*
G01X22248712Y-7885504D01*
G01X22272588Y-7888044D01*
G01X22269794Y-7885504D01*
G01X22267254Y-7877376D01*
G01X22267254Y-7869502D01*
G01X22269794Y-7861628D01*
G01X22275128Y-7856294D01*
G01X22283256Y-7853500D01*
G01X22288590Y-7853500D01*
G01X22296464Y-7856294D01*
G01X22301798Y-7861628D01*
G01X22304338Y-7869502D01*
G01X22304338Y-7877376D01*
G01X22301798Y-7885504D01*
G01X22299004Y-7888044D01*
G01X22293670Y-7890838D01*
G01X15764712Y-14654768D02*
G01X15820338Y-14654768D01*
G01X15764712Y-14654768D02*
G01X15764712Y-14636226D01*
G01X15767252Y-14628352D01*
G01X15772586Y-14623018D01*
G01X15777920Y-14620478D01*
G01X15785794Y-14617684D01*
G01X15799256Y-14617684D01*
G01X15807130Y-14620478D01*
G01X15812464Y-14623018D01*
G01X15817798Y-14628352D01*
G01X15820338Y-14636226D01*
G01X15820338Y-14654768D01*
G01X15775126Y-14589998D02*
G01X15772586Y-14584664D01*
G01X15764712Y-14576536D01*
G01X15820338Y-14576536D01*
G01X15764712Y-14535388D02*
G01X15767252Y-14543516D01*
G01X15772586Y-14546056D01*
G01X15777920Y-14546056D01*
G01X15783254Y-14543516D01*
G01X15785794Y-14538182D01*
G01X15788588Y-14527514D01*
G01X15791128Y-14519640D01*
G01X15796462Y-14514306D01*
G01X15801796Y-14511512D01*
G01X15809670Y-14511512D01*
G01X15815004Y-14514306D01*
G01X15817798Y-14516846D01*
G01X15820338Y-14524974D01*
G01X15820338Y-14535388D01*
G01X15817798Y-14543516D01*
G01X15815004Y-14546056D01*
G01X15809670Y-14548850D01*
G01X15801796Y-14548850D01*
G01X15796462Y-14546056D01*
G01X15791128Y-14540722D01*
G01X15788588Y-14532848D01*
G01X15785794Y-14522180D01*
G01X15783254Y-14516846D01*
G01X15777920Y-14514306D01*
G01X15772586Y-14514306D01*
G01X15767252Y-14516846D01*
G01X15764712Y-14524974D01*
G01X15764712Y-14535388D01*
G01X15587626Y-14239744D02*
G01X15585086Y-14234664D01*
G01X15577212Y-14226536D01*
G01X15632838Y-14226536D01*
G01X13711712Y-12504768D02*
G01X13767338Y-12504768D01*
G01X13711712Y-12504768D02*
G01X13711712Y-12480892D01*
G01X13714252Y-12473018D01*
G01X13717046Y-12470478D01*
G01X13722126Y-12467684D01*
G01X13727460Y-12467684D01*
G01X13732794Y-12470478D01*
G01X13735588Y-12473018D01*
G01X13738128Y-12480892D01*
G01X13738128Y-12504768D01*
G01X13738128Y-12486226D02*
G01X13767338Y-12467684D01*
G01X13722126Y-12439998D02*
G01X13719586Y-12434664D01*
G01X13711712Y-12426536D01*
G01X13767338Y-12426536D01*
G01X13711712Y-12361512D02*
G01X13767338Y-12388182D01*
G01X13711712Y-12398850D02*
G01X13711712Y-12361512D01*
G01X11211712Y-5616706D02*
G01X11267338Y-5616706D01*
G01X11211712Y-5616706D02*
G01X11211712Y-5592830D01*
G01X11214252Y-5584956D01*
G01X11217046Y-5582416D01*
G01X11222126Y-5579622D01*
G01X11227460Y-5579622D01*
G01X11232794Y-5582416D01*
G01X11235588Y-5584956D01*
G01X11238128Y-5592830D01*
G01X11238128Y-5616706D01*
G01X11238128Y-5598164D02*
G01X11267338Y-5579622D01*
G01X11224920Y-5549142D02*
G01X11222126Y-5549142D01*
G01X11217046Y-5546602D01*
G01X11214252Y-5543808D01*
G01X11211712Y-5538474D01*
G01X11211712Y-5528060D01*
G01X11214252Y-5522726D01*
G01X11217046Y-5519932D01*
G01X11222126Y-5517392D01*
G01X11227460Y-5517392D01*
G01X11232794Y-5519932D01*
G01X11240922Y-5525266D01*
G01X11267338Y-5551936D01*
G01X11267338Y-5514598D01*
G01X11211712Y-5470910D02*
G01X11214252Y-5478784D01*
G01X11222126Y-5484118D01*
G01X11235588Y-5486912D01*
G01X11243462Y-5486912D01*
G01X11256670Y-5484118D01*
G01X11264798Y-5478784D01*
G01X11267338Y-5470910D01*
G01X11267338Y-5465576D01*
G01X11264798Y-5457702D01*
G01X11256670Y-5452368D01*
G01X11243462Y-5449574D01*
G01X11235588Y-5449574D01*
G01X11222126Y-5452368D01*
G01X11214252Y-5457702D01*
G01X11211712Y-5465576D01*
G01X11211712Y-5470910D01*
G01X8264712Y-12366706D02*
G01X8320338Y-12366706D01*
G01X8264712Y-12366706D02*
G01X8264712Y-12348164D01*
G01X8267252Y-12340290D01*
G01X8272586Y-12334956D01*
G01X8277920Y-12332416D01*
G01X8285794Y-12329622D01*
G01X8299256Y-12329622D01*
G01X8307130Y-12332416D01*
G01X8312464Y-12334956D01*
G01X8317798Y-12340290D01*
G01X8320338Y-12348164D01*
G01X8320338Y-12366706D01*
G01X8264712Y-12296602D02*
G01X8264712Y-12267392D01*
G01X8285794Y-12283394D01*
G01X8285794Y-12275266D01*
G01X8288588Y-12269932D01*
G01X8291128Y-12267392D01*
G01X8299256Y-12264598D01*
G01X8304590Y-12264598D01*
G01X8312464Y-12267392D01*
G01X8317798Y-12272726D01*
G01X8320338Y-12280600D01*
G01X8320338Y-12288474D01*
G01X8317798Y-12296602D01*
G01X8315004Y-12299142D01*
G01X8309670Y-12301936D01*
G01X8264712Y-12204908D02*
G01X8264712Y-12231578D01*
G01X8288588Y-12234118D01*
G01X8285794Y-12231578D01*
G01X8283254Y-12223450D01*
G01X8283254Y-12215576D01*
G01X8285794Y-12207702D01*
G01X8291128Y-12202368D01*
G01X8299256Y-12199574D01*
G01X8304590Y-12199574D01*
G01X8312464Y-12202368D01*
G01X8317798Y-12207702D01*
G01X8320338Y-12215576D01*
G01X8320338Y-12223450D01*
G01X8317798Y-12231578D01*
G01X8315004Y-12234118D01*
G01X8309670Y-12236912D01*
G01X8087626Y-11939744D02*
G01X8085086Y-11934664D01*
G01X8077212Y-11926536D01*
G01X8132838Y-11926536D01*
G01X5764712Y-10067976D02*
G01X5820338Y-10067976D01*
G01X5764712Y-10067976D02*
G01X5764712Y-10049434D01*
G01X5767252Y-10041560D01*
G01X5772586Y-10036226D01*
G01X5777920Y-10033686D01*
G01X5785794Y-10030892D01*
G01X5799256Y-10030892D01*
G01X5807130Y-10033686D01*
G01X5812464Y-10036226D01*
G01X5817798Y-10041560D01*
G01X5820338Y-10049434D01*
G01X5820338Y-10067976D01*
G01X5764712Y-9976536D02*
G01X5801796Y-10003206D01*
G01X5801796Y-9963328D01*
G01X5764712Y-9976536D02*
G01X5820338Y-9976536D01*
G01X5764712Y-9919640D02*
G01X5767252Y-9927514D01*
G01X5775126Y-9932848D01*
G01X5788588Y-9935642D01*
G01X5796462Y-9935642D01*
G01X5809670Y-9932848D01*
G01X5817798Y-9927514D01*
G01X5820338Y-9919640D01*
G01X5820338Y-9914306D01*
G01X5817798Y-9906432D01*
G01X5809670Y-9901098D01*
G01X5796462Y-9898304D01*
G01X5788588Y-9898304D01*
G01X5775126Y-9901098D01*
G01X5767252Y-9906432D01*
G01X5764712Y-9914306D01*
G01X5764712Y-9919640D01*
G01X5587626Y-9639744D02*
G01X5585086Y-9634664D01*
G01X5577212Y-9626536D01*
G01X5632838Y-9626536D01*
G01X16749462Y-9815194D02*
G01X16791880Y-9815194D01*
G01X16799754Y-9817734D01*
G01X16802548Y-9820528D01*
G01X16805088Y-9825862D01*
G01X16805088Y-9831196D01*
G01X16802548Y-9836530D01*
G01X16799754Y-9839070D01*
G01X16791880Y-9841610D01*
G01X16786546Y-9841610D01*
G01X16749462Y-9750170D02*
G01X16805088Y-9776840D01*
G01X16749462Y-9787508D02*
G01X16749462Y-9750170D01*
G01X10764712Y-12365309D02*
G01X10820338Y-12365309D01*
G01X10764712Y-12365309D02*
G01X10764712Y-12346767D01*
G01X10767252Y-12338893D01*
G01X10772586Y-12333559D01*
G01X10777920Y-12331019D01*
G01X10785794Y-12328225D01*
G01X10799256Y-12328225D01*
G01X10807130Y-12331019D01*
G01X10812464Y-12333559D01*
G01X10817798Y-12338893D01*
G01X10820338Y-12346767D01*
G01X10820338Y-12365309D01*
G01X10777920Y-12297745D02*
G01X10775126Y-12297745D01*
G01X10770046Y-12295205D01*
G01X10767252Y-12292411D01*
G01X10764712Y-12287077D01*
G01X10764712Y-12276663D01*
G01X10767252Y-12271329D01*
G01X10770046Y-12268535D01*
G01X10775126Y-12265995D01*
G01X10780460Y-12265995D01*
G01X10785794Y-12268535D01*
G01X10793922Y-12273869D01*
G01X10820338Y-12300539D01*
G01X10820338Y-12263201D01*
G01X10783254Y-12200971D02*
G01X10791128Y-12203511D01*
G01X10796462Y-12208845D01*
G01X10799256Y-12216973D01*
G01X10799256Y-12219513D01*
G01X10796462Y-12227387D01*
G01X10791128Y-12232721D01*
G01X10783254Y-12235515D01*
G01X10780460Y-12235515D01*
G01X10772586Y-12232721D01*
G01X10767252Y-12227387D01*
G01X10764712Y-12219513D01*
G01X10764712Y-12216973D01*
G01X10767252Y-12208845D01*
G01X10772586Y-12203511D01*
G01X10783254Y-12200971D01*
G01X10796462Y-12200971D01*
G01X10809670Y-12203511D01*
G01X10817798Y-12208845D01*
G01X10820338Y-12216973D01*
G01X10820338Y-12222053D01*
G01X10817798Y-12230181D01*
G01X10812464Y-12232721D01*
G01X10587626Y-11939744D02*
G01X10585086Y-11934664D01*
G01X10577212Y-11926536D01*
G01X10632838Y-11926536D01*
G01X8264712Y-10067976D02*
G01X8320338Y-10067976D01*
G01X8264712Y-10067976D02*
G01X8264712Y-10049434D01*
G01X8267252Y-10041560D01*
G01X8272586Y-10036226D01*
G01X8277920Y-10033686D01*
G01X8285794Y-10030892D01*
G01X8299256Y-10030892D01*
G01X8307130Y-10033686D01*
G01X8312464Y-10036226D01*
G01X8317798Y-10041560D01*
G01X8320338Y-10049434D01*
G01X8320338Y-10067976D01*
G01X8264712Y-9997872D02*
G01X8264712Y-9968662D01*
G01X8285794Y-9984664D01*
G01X8285794Y-9976536D01*
G01X8288588Y-9971202D01*
G01X8291128Y-9968662D01*
G01X8299256Y-9965868D01*
G01X8304590Y-9965868D01*
G01X8312464Y-9968662D01*
G01X8317798Y-9973996D01*
G01X8320338Y-9981870D01*
G01X8320338Y-9989744D01*
G01X8317798Y-9997872D01*
G01X8315004Y-10000412D01*
G01X8309670Y-10003206D01*
G01X8264712Y-9911512D02*
G01X8301796Y-9938182D01*
G01X8301796Y-9898304D01*
G01X8264712Y-9911512D02*
G01X8320338Y-9911512D01*
G01X8087626Y-9639744D02*
G01X8085086Y-9634664D01*
G01X8077212Y-9626536D01*
G01X8132838Y-9626536D01*
G01X23446920Y-5515740D02*
G01X23441586Y-5518280D01*
G01X23436252Y-5523614D01*
G01X23433712Y-5528948D01*
G01X23433712Y-5539616D01*
G01X23436252Y-5544950D01*
G01X23441586Y-5550284D01*
G01X23446920Y-5552824D01*
G01X23454794Y-5555364D01*
G01X23468256Y-5555364D01*
G01X23476130Y-5552824D01*
G01X23481464Y-5550284D01*
G01X23486798Y-5544950D01*
G01X23489338Y-5539616D01*
G01X23489338Y-5528948D01*
G01X23486798Y-5523614D01*
G01X23481464Y-5518280D01*
G01X23476130Y-5515740D01*
G01X23433712Y-5482720D02*
G01X23433712Y-5453510D01*
G01X23454794Y-5469512D01*
G01X23454794Y-5461384D01*
G01X23457588Y-5456050D01*
G01X23460128Y-5453510D01*
G01X23468256Y-5450716D01*
G01X23473590Y-5450716D01*
G01X23481464Y-5453510D01*
G01X23486798Y-5458844D01*
G01X23489338Y-5466718D01*
G01X23489338Y-5474592D01*
G01X23486798Y-5482720D01*
G01X23484004Y-5485260D01*
G01X23478670Y-5488054D01*
G01X3711712Y-10217976D02*
G01X3767338Y-10217976D01*
G01X3711712Y-10217976D02*
G01X3711712Y-10194100D01*
G01X3714252Y-10186226D01*
G01X3717046Y-10183686D01*
G01X3722126Y-10180892D01*
G01X3727460Y-10180892D01*
G01X3732794Y-10183686D01*
G01X3735588Y-10186226D01*
G01X3738128Y-10194100D01*
G01X3738128Y-10217976D01*
G01X3738128Y-10199434D02*
G01X3767338Y-10180892D01*
G01X3711712Y-10126536D02*
G01X3748796Y-10153206D01*
G01X3748796Y-10113328D01*
G01X3711712Y-10126536D02*
G01X3767338Y-10126536D01*
G01X3711712Y-10069640D02*
G01X3714252Y-10077514D01*
G01X3722126Y-10082848D01*
G01X3735588Y-10085642D01*
G01X3743462Y-10085642D01*
G01X3756670Y-10082848D01*
G01X3764798Y-10077514D01*
G01X3767338Y-10069640D01*
G01X3767338Y-10064306D01*
G01X3764798Y-10056432D01*
G01X3756670Y-10051098D01*
G01X3743462Y-10048304D01*
G01X3735588Y-10048304D01*
G01X3722126Y-10051098D01*
G01X3714252Y-10056432D01*
G01X3711712Y-10064306D01*
G01X3711712Y-10069640D01*
G01X16211712Y-5584194D02*
G01X16267338Y-5584194D01*
G01X16211712Y-5584194D02*
G01X16211712Y-5560318D01*
G01X16214252Y-5552444D01*
G01X16217046Y-5549904D01*
G01X16222126Y-5547110D01*
G01X16227460Y-5547110D01*
G01X16232794Y-5549904D01*
G01X16235588Y-5552444D01*
G01X16238128Y-5560318D01*
G01X16238128Y-5584194D01*
G01X16238128Y-5565652D02*
G01X16267338Y-5547110D01*
G01X16211712Y-5505962D02*
G01X16214252Y-5514090D01*
G01X16219586Y-5516630D01*
G01X16224920Y-5516630D01*
G01X16230254Y-5514090D01*
G01X16232794Y-5508756D01*
G01X16235588Y-5498088D01*
G01X16238128Y-5490214D01*
G01X16243462Y-5484880D01*
G01X16248796Y-5482086D01*
G01X16256670Y-5482086D01*
G01X16262004Y-5484880D01*
G01X16264798Y-5487420D01*
G01X16267338Y-5495548D01*
G01X16267338Y-5505962D01*
G01X16264798Y-5514090D01*
G01X16262004Y-5516630D01*
G01X16256670Y-5519424D01*
G01X16248796Y-5519424D01*
G01X16243462Y-5516630D01*
G01X16238128Y-5511296D01*
G01X16235588Y-5503422D01*
G01X16232794Y-5492754D01*
G01X16230254Y-5487420D01*
G01X16224920Y-5484880D01*
G01X16219586Y-5484880D01*
G01X16214252Y-5487420D01*
G01X16211712Y-5495548D01*
G01X16211712Y-5505962D01*
G01X8711712Y-12515309D02*
G01X8767338Y-12515309D01*
G01X8711712Y-12515309D02*
G01X8711712Y-12491433D01*
G01X8714252Y-12483559D01*
G01X8717046Y-12481019D01*
G01X8722126Y-12478225D01*
G01X8727460Y-12478225D01*
G01X8732794Y-12481019D01*
G01X8735588Y-12483559D01*
G01X8738128Y-12491433D01*
G01X8738128Y-12515309D01*
G01X8738128Y-12496767D02*
G01X8767338Y-12478225D01*
G01X8724920Y-12447745D02*
G01X8722126Y-12447745D01*
G01X8717046Y-12445205D01*
G01X8714252Y-12442411D01*
G01X8711712Y-12437077D01*
G01X8711712Y-12426663D01*
G01X8714252Y-12421329D01*
G01X8717046Y-12418535D01*
G01X8722126Y-12415995D01*
G01X8727460Y-12415995D01*
G01X8732794Y-12418535D01*
G01X8740922Y-12423869D01*
G01X8767338Y-12450539D01*
G01X8767338Y-12413201D01*
G01X8730254Y-12350971D02*
G01X8738128Y-12353511D01*
G01X8743462Y-12358845D01*
G01X8746256Y-12366973D01*
G01X8746256Y-12369513D01*
G01X8743462Y-12377387D01*
G01X8738128Y-12382721D01*
G01X8730254Y-12385515D01*
G01X8727460Y-12385515D01*
G01X8719586Y-12382721D01*
G01X8714252Y-12377387D01*
G01X8711712Y-12369513D01*
G01X8711712Y-12366973D01*
G01X8714252Y-12358845D01*
G01X8719586Y-12353511D01*
G01X8730254Y-12350971D01*
G01X8743462Y-12350971D01*
G01X8756670Y-12353511D01*
G01X8764798Y-12358845D01*
G01X8767338Y-12366973D01*
G01X8767338Y-12372053D01*
G01X8764798Y-12380181D01*
G01X8759464Y-12382721D01*
G01X22354854Y-4796212D02*
G01X22354854Y-4851838D01*
G01X22354854Y-4796212D02*
G01X22378730Y-4796212D01*
G01X22386604Y-4798752D01*
G01X22389144Y-4801546D01*
G01X22391938Y-4806626D01*
G01X22391938Y-4811960D01*
G01X22389144Y-4817294D01*
G01X22386604Y-4820088D01*
G01X22378730Y-4822628D01*
G01X22354854Y-4822628D01*
G01X22373396Y-4822628D02*
G01X22391938Y-4851838D01*
G01X22446294Y-4796212D02*
G01X22419624Y-4833296D01*
G01X22459502Y-4833296D01*
G01X22446294Y-4796212D02*
G01X22446294Y-4851838D01*
G01X22513858Y-4796212D02*
G01X22487188Y-4833296D01*
G01X22527066Y-4833296D01*
G01X22513858Y-4796212D02*
G01X22513858Y-4851838D01*
G01X22700290Y-6040720D02*
G01X22697750Y-6035386D01*
G01X22692416Y-6030052D01*
G01X22687082Y-6027512D01*
G01X22676414Y-6027512D01*
G01X22671080Y-6030052D01*
G01X22665746Y-6035386D01*
G01X22663206Y-6040720D01*
G01X22660666Y-6048594D01*
G01X22660666Y-6062056D01*
G01X22663206Y-6069930D01*
G01X22665746Y-6075264D01*
G01X22671080Y-6080598D01*
G01X22676414Y-6083138D01*
G01X22687082Y-6083138D01*
G01X22692416Y-6080598D01*
G01X22697750Y-6075264D01*
G01X22700290Y-6069930D01*
G01X22754646Y-6027512D02*
G01X22727976Y-6064596D01*
G01X22767854Y-6064596D01*
G01X22754646Y-6027512D02*
G01X22754646Y-6083138D01*
G04 Text End*

G04 PolygonModel Start*
G54D11*
G01X10326500Y-5678200D02*
G01X10434000Y-5678200D01*
G01X10716500Y-5088200D02*
G01X10716500Y-5678200D01*
G01X10326500Y-5088200D02*
G01X10326500Y-5678200D01*
G01X14006400Y-7126200D02*
G01X15010500Y-7126200D01*
G01X15010500Y-8350200D02*
G01X15010500Y-7956500D01*
G01X15010500Y-7519800D02*
G01X15010500Y-7126200D01*
G01X14006400Y-7519800D02*
G01X14006400Y-7126200D01*
G01X14006400Y-8350200D02*
G01X14138500Y-8350200D01*
G01X14845500Y-8350200D02*
G01X15010500Y-8350200D01*
G01X14595600Y-8350200D02*
G01X14671500Y-8350200D01*
G01X14383500Y-8350200D02*
G01X14421500Y-8350200D01*
G01X14006400Y-8350200D02*
G01X14006400Y-7956500D01*
G01X19006400Y-9426200D02*
G01X20010500Y-9426200D01*
G01X20010500Y-10650200D02*
G01X20010500Y-10256500D01*
G01X20010500Y-9819800D02*
G01X20010500Y-9426200D01*
G01X19006400Y-9819800D02*
G01X19006400Y-9426200D01*
G01X19006400Y-10650200D02*
G01X19138500Y-10650200D01*
G01X19845500Y-10650200D02*
G01X20010500Y-10650200D01*
G01X19595600Y-10650200D02*
G01X19671500Y-10650200D01*
G01X19383500Y-10650200D02*
G01X19421500Y-10650200D01*
G01X19006400Y-10650200D02*
G01X19006400Y-10256500D01*
G01X22202200Y-3556700D02*
G01X24432200Y-3556700D01*
G01X22202200Y-3341700D02*
G01X22202200Y-3556700D01*
G01X24432200Y-3556700D02*
G01X24432200Y-3341700D01*
G01X15326500Y-3378200D02*
G01X15434000Y-3378200D01*
G01X15716500Y-2788200D02*
G01X15716500Y-3378200D01*
G01X15326500Y-2788200D02*
G01X15326500Y-3378200D01*
G01X9006400Y-2526200D02*
G01X10010500Y-2526200D01*
G01X10010500Y-3750200D02*
G01X10010500Y-3356500D01*
G01X10010500Y-2919800D02*
G01X10010500Y-2526200D01*
G01X9006400Y-2919800D02*
G01X9006400Y-2526200D01*
G01X9006400Y-3750200D02*
G01X9138500Y-3750200D01*
G01X9845500Y-3750200D02*
G01X10010500Y-3750200D01*
G01X9595600Y-3750200D02*
G01X9671500Y-3750200D01*
G01X9383500Y-3750200D02*
G01X9421500Y-3750200D01*
G01X9006400Y-3750200D02*
G01X9006400Y-3356500D01*
G01X11506400Y-9426200D02*
G01X12510500Y-9426200D01*
G01X12510500Y-10650200D02*
G01X12510500Y-10256500D01*
G01X12510500Y-9819800D02*
G01X12510500Y-9426200D01*
G01X11506400Y-9819800D02*
G01X11506400Y-9426200D01*
G01X11506400Y-10650200D02*
G01X11638500Y-10650200D01*
G01X12345500Y-10650200D02*
G01X12510500Y-10650200D01*
G01X12095600Y-10650200D02*
G01X12171500Y-10650200D01*
G01X11883500Y-10650200D02*
G01X11921500Y-10650200D01*
G01X11506400Y-10650200D02*
G01X11506400Y-10256500D01*
G01X7826500Y-3378200D02*
G01X7934000Y-3378200D01*
G01X8216500Y-2788200D02*
G01X8216500Y-3378200D01*
G01X7826500Y-2788200D02*
G01X7826500Y-3378200D01*
G01X6506400Y-2526200D02*
G01X7510500Y-2526200D01*
G01X7510500Y-3750200D02*
G01X7510500Y-3356500D01*
G01X7510500Y-2919800D02*
G01X7510500Y-2526200D01*
G01X6506400Y-2919800D02*
G01X6506400Y-2526200D01*
G01X6506400Y-3750200D02*
G01X6638500Y-3750200D01*
G01X7345500Y-3750200D02*
G01X7510500Y-3750200D01*
G01X7095600Y-3750200D02*
G01X7171500Y-3750200D01*
G01X6883500Y-3750200D02*
G01X6921500Y-3750200D01*
G01X6506400Y-3750200D02*
G01X6506400Y-3356500D01*
G01X7826500Y-7978200D02*
G01X7934000Y-7978200D01*
G01X8216500Y-7388200D02*
G01X8216500Y-7978200D01*
G01X7826500Y-7388200D02*
G01X7826500Y-7978200D01*
G01X20326500Y-3378200D02*
G01X20434000Y-3378200D01*
G01X20716500Y-2788200D02*
G01X20716500Y-3378200D01*
G01X20326500Y-2788200D02*
G01X20326500Y-3378200D01*
G01X4006400Y-2526200D02*
G01X5010500Y-2526200D01*
G01X5010500Y-3750200D02*
G01X5010500Y-3356500D01*
G01X5010500Y-2919800D02*
G01X5010500Y-2526200D01*
G01X4006400Y-2919800D02*
G01X4006400Y-2526200D01*
G01X4006400Y-3750200D02*
G01X4138500Y-3750200D01*
G01X4845500Y-3750200D02*
G01X5010500Y-3750200D01*
G01X4595600Y-3750200D02*
G01X4671500Y-3750200D01*
G01X4383500Y-3750200D02*
G01X4421500Y-3750200D01*
G01X4006400Y-3750200D02*
G01X4006400Y-3356500D01*
G01X7826500Y-14878200D02*
G01X7934000Y-14878200D01*
G01X8216500Y-14288200D02*
G01X8216500Y-14878200D01*
G01X7826500Y-14288200D02*
G01X7826500Y-14878200D01*
G01X11329500Y-9879433D02*
G01X11329500Y-9847882D01*
G01X11329500Y-9668984D02*
G01X11329500Y-9637433D01*
G01X10973500Y-9879433D02*
G01X10905000Y-9879433D01*
G01X11042000Y-9879433D02*
G01X11042000Y-9869260D01*
G01X10917500Y-9668984D02*
G01X10917500Y-9637433D01*
G01X11329500Y-9768984D02*
G01X11329500Y-9747882D01*
G01X10905000Y-9879433D02*
G01X10905000Y-9808433D01*
G01X10917500Y-9637433D02*
G01X11329500Y-9637433D01*
G01X11042000Y-9879433D02*
G01X11329500Y-9879433D01*
G01X17826500Y-7978200D02*
G01X17934000Y-7978200D01*
G01X18216500Y-7388200D02*
G01X18216500Y-7978200D01*
G01X17826500Y-7388200D02*
G01X17826500Y-7978200D01*
G01X5326500Y-12578200D02*
G01X5434000Y-12578200D01*
G01X5716500Y-11988200D02*
G01X5716500Y-12578200D01*
G01X5326500Y-11988200D02*
G01X5326500Y-12578200D01*
G01X15326500Y-10278200D02*
G01X15434000Y-10278200D01*
G01X15716500Y-9688200D02*
G01X15716500Y-10278200D01*
G01X15326500Y-9688200D02*
G01X15326500Y-10278200D01*
G01X11506400Y-7126200D02*
G01X12510500Y-7126200D01*
G01X12510500Y-8350200D02*
G01X12510500Y-7956500D01*
G01X12510500Y-7519800D02*
G01X12510500Y-7126200D01*
G01X11506400Y-7519800D02*
G01X11506400Y-7126200D01*
G01X11506400Y-8350200D02*
G01X11638500Y-8350200D01*
G01X12345500Y-8350200D02*
G01X12510500Y-8350200D01*
G01X12095600Y-8350200D02*
G01X12171500Y-8350200D01*
G01X11883500Y-8350200D02*
G01X11921500Y-8350200D01*
G01X11506400Y-8350200D02*
G01X11506400Y-7956500D01*
G01X16506400Y-14026200D02*
G01X17510500Y-14026200D01*
G01X17510500Y-15250200D02*
G01X17510500Y-14856500D01*
G01X17510500Y-14419800D02*
G01X17510500Y-14026200D01*
G01X16506400Y-14419800D02*
G01X16506400Y-14026200D01*
G01X16506400Y-15250200D02*
G01X16638500Y-15250200D01*
G01X17345500Y-15250200D02*
G01X17510500Y-15250200D01*
G01X17095600Y-15250200D02*
G01X17171500Y-15250200D01*
G01X16883500Y-15250200D02*
G01X16921500Y-15250200D01*
G01X16506400Y-15250200D02*
G01X16506400Y-14856500D01*
G01X17826500Y-14878200D02*
G01X17934000Y-14878200D01*
G01X18216500Y-14288200D02*
G01X18216500Y-14878200D01*
G01X17826500Y-14288200D02*
G01X17826500Y-14878200D01*
G01X16506400Y-11726200D02*
G01X17510500Y-11726200D01*
G01X17510500Y-12950200D02*
G01X17510500Y-12556500D01*
G01X17510500Y-12119800D02*
G01X17510500Y-11726200D01*
G01X16506400Y-12119800D02*
G01X16506400Y-11726200D01*
G01X16506400Y-12950200D02*
G01X16638500Y-12950200D01*
G01X17345500Y-12950200D02*
G01X17510500Y-12950200D01*
G01X17095600Y-12950200D02*
G01X17171500Y-12950200D01*
G01X16883500Y-12950200D02*
G01X16921500Y-12950200D01*
G01X16506400Y-12950200D02*
G01X16506400Y-12556500D01*
G01X17826500Y-10278200D02*
G01X17934000Y-10278200D01*
G01X18216500Y-9688200D02*
G01X18216500Y-10278200D01*
G01X17826500Y-9688200D02*
G01X17826500Y-10278200D01*
G01X4006400Y-14026200D02*
G01X5010500Y-14026200D01*
G01X5010500Y-15250200D02*
G01X5010500Y-14856500D01*
G01X5010500Y-14419800D02*
G01X5010500Y-14026200D01*
G01X4006400Y-14419800D02*
G01X4006400Y-14026200D01*
G01X4006400Y-15250200D02*
G01X4138500Y-15250200D01*
G01X4845500Y-15250200D02*
G01X5010500Y-15250200D01*
G01X4595600Y-15250200D02*
G01X4671500Y-15250200D01*
G01X4383500Y-15250200D02*
G01X4421500Y-15250200D01*
G01X4006400Y-15250200D02*
G01X4006400Y-14856500D01*
G01X22705200Y-6507800D02*
G01X23159200Y-6507800D01*
G01X23159200Y-6506300D02*
G01X23159200Y-6507800D01*
G01X23159200Y-6293800D02*
G01X23159200Y-6295300D01*
G01X22705200Y-6293800D02*
G01X22705200Y-6295300D01*
G01X22705200Y-6293800D02*
G01X23159200Y-6293800D01*
G01X22705200Y-6506300D02*
G01X22705200Y-6507800D01*
G01X4006400Y-7126200D02*
G01X5010500Y-7126200D01*
G01X5010500Y-8350200D02*
G01X5010500Y-7956500D01*
G01X5010500Y-7519800D02*
G01X5010500Y-7126200D01*
G01X4006400Y-7519800D02*
G01X4006400Y-7126200D01*
G01X4006400Y-8350200D02*
G01X4138500Y-8350200D01*
G01X4845500Y-8350200D02*
G01X5010500Y-8350200D01*
G01X4595600Y-8350200D02*
G01X4671500Y-8350200D01*
G01X4383500Y-8350200D02*
G01X4421500Y-8350200D01*
G01X4006400Y-8350200D02*
G01X4006400Y-7956500D01*
G01X5326500Y-7978200D02*
G01X5434000Y-7978200D01*
G01X5716500Y-7388200D02*
G01X5716500Y-7978200D01*
G01X5326500Y-7388200D02*
G01X5326500Y-7978200D01*
G01X15326500Y-12578200D02*
G01X15434000Y-12578200D01*
G01X15716500Y-11988200D02*
G01X15716500Y-12578200D01*
G01X15326500Y-11988200D02*
G01X15326500Y-12578200D01*
G01X12826500Y-3378200D02*
G01X12934000Y-3378200D01*
G01X13216500Y-2788200D02*
G01X13216500Y-3378200D01*
G01X12826500Y-2788200D02*
G01X12826500Y-3378200D01*
G01X23013100Y-4712500D02*
G01X23291100Y-4712500D01*
G01X23013100Y-5574500D02*
G01X23291100Y-5574500D01*
G01X23013100Y-5574500D02*
G01X23013100Y-4712500D01*
G01X23291100Y-5574500D02*
G01X23291100Y-4712500D01*
G01X6506400Y-11726200D02*
G01X7510500Y-11726200D01*
G01X7510500Y-12950200D02*
G01X7510500Y-12556500D01*
G01X7510500Y-12119800D02*
G01X7510500Y-11726200D01*
G01X6506400Y-12119800D02*
G01X6506400Y-11726200D01*
G01X6506400Y-12950200D02*
G01X6638500Y-12950200D01*
G01X7345500Y-12950200D02*
G01X7510500Y-12950200D01*
G01X7095600Y-12950200D02*
G01X7171500Y-12950200D01*
G01X6883500Y-12950200D02*
G01X6921500Y-12950200D01*
G01X6506400Y-12950200D02*
G01X6506400Y-12556500D01*
G01X10326500Y-7978200D02*
G01X10434000Y-7978200D01*
G01X10716500Y-7388200D02*
G01X10716500Y-7978200D01*
G01X10326500Y-7388200D02*
G01X10326500Y-7978200D01*
G01X16506400Y-2526200D02*
G01X17510500Y-2526200D01*
G01X17510500Y-3750200D02*
G01X17510500Y-3356500D01*
G01X17510500Y-2919800D02*
G01X17510500Y-2526200D01*
G01X16506400Y-2919800D02*
G01X16506400Y-2526200D01*
G01X16506400Y-3750200D02*
G01X16638500Y-3750200D01*
G01X17345500Y-3750200D02*
G01X17510500Y-3750200D01*
G01X17095600Y-3750200D02*
G01X17171500Y-3750200D01*
G01X16883500Y-3750200D02*
G01X16921500Y-3750200D01*
G01X16506400Y-3750200D02*
G01X16506400Y-3356500D01*
G01X20326500Y-14878200D02*
G01X20434000Y-14878200D01*
G01X20716500Y-14288200D02*
G01X20716500Y-14878200D01*
G01X20326500Y-14288200D02*
G01X20326500Y-14878200D01*
G01X24239500Y-8616200D02*
G01X24239500Y-9056200D01*
G01X23812500Y-8509200D02*
G01X24032500Y-8509200D01*
G01X23615500Y-8556200D02*
G01X23615500Y-9076200D01*
G01X24032500Y-9133200D02*
G01X23812500Y-9133200D01*
G01X20326500Y-7978200D02*
G01X20434000Y-7978200D01*
G01X20716500Y-7388200D02*
G01X20716500Y-7978200D01*
G01X20326500Y-7388200D02*
G01X20326500Y-7978200D01*
G01X15286500Y-9908200D02*
G01X15286500Y-9876649D01*
G01X14874500Y-9666200D02*
G01X15286500Y-9666200D01*
G01X15286500Y-9797751D02*
G01X15286500Y-9776649D01*
G01X15286500Y-9697751D02*
G01X15286500Y-9666200D01*
G01X14999000Y-9908200D02*
G01X14999000Y-9898028D01*
G01X14930500Y-9908200D02*
G01X14862000Y-9908200D01*
G01X14862000Y-9908200D02*
G01X14862000Y-9837200D01*
G01X14874500Y-9697751D02*
G01X14874500Y-9666200D01*
G01X14999000Y-9908200D02*
G01X15286500Y-9908200D01*
G01X9006400Y-9426200D02*
G01X10010500Y-9426200D01*
G01X10010500Y-10650200D02*
G01X10010500Y-10256500D01*
G01X10010500Y-9819800D02*
G01X10010500Y-9426200D01*
G01X9006400Y-9819800D02*
G01X9006400Y-9426200D01*
G01X9006400Y-10650200D02*
G01X9138500Y-10650200D01*
G01X9845500Y-10650200D02*
G01X10010500Y-10650200D01*
G01X9595600Y-10650200D02*
G01X9671500Y-10650200D01*
G01X9383500Y-10650200D02*
G01X9421500Y-10650200D01*
G01X9006400Y-10650200D02*
G01X9006400Y-10256500D01*
G01X20326500Y-12578200D02*
G01X20434000Y-12578200D01*
G01X20716500Y-11988200D02*
G01X20716500Y-12578200D01*
G01X20326500Y-11988200D02*
G01X20326500Y-12578200D01*
G01X4006400Y-4826200D02*
G01X5010500Y-4826200D01*
G01X5010500Y-6050200D02*
G01X5010500Y-5656500D01*
G01X5010500Y-5219800D02*
G01X5010500Y-4826200D01*
G01X4006400Y-5219800D02*
G01X4006400Y-4826200D01*
G01X4006400Y-6050200D02*
G01X4138500Y-6050200D01*
G01X4845500Y-6050200D02*
G01X5010500Y-6050200D01*
G01X4595600Y-6050200D02*
G01X4671500Y-6050200D01*
G01X4383500Y-6050200D02*
G01X4421500Y-6050200D01*
G01X4006400Y-6050200D02*
G01X4006400Y-5656500D01*
G01X22871900Y-4941000D02*
G01X22871900Y-5219000D01*
G01X22009900Y-4941000D02*
G01X22009900Y-5219000D01*
G01X22009900Y-4941000D02*
G01X22871900Y-4941000D01*
G01X22009900Y-5219000D02*
G01X22871900Y-5219000D01*
G01X5326500Y-5678200D02*
G01X5434000Y-5678200D01*
G01X5716500Y-5088200D02*
G01X5716500Y-5678200D01*
G01X5326500Y-5088200D02*
G01X5326500Y-5678200D01*
G01X16506400Y-7126200D02*
G01X17510500Y-7126200D01*
G01X17510500Y-8350200D02*
G01X17510500Y-7956500D01*
G01X17510500Y-7519800D02*
G01X17510500Y-7126200D01*
G01X16506400Y-7519800D02*
G01X16506400Y-7126200D01*
G01X16506400Y-8350200D02*
G01X16638500Y-8350200D01*
G01X17345500Y-8350200D02*
G01X17510500Y-8350200D01*
G01X17095600Y-8350200D02*
G01X17171500Y-8350200D01*
G01X16883500Y-8350200D02*
G01X16921500Y-8350200D01*
G01X16506400Y-8350200D02*
G01X16506400Y-7956500D01*
G01X19006400Y-2526200D02*
G01X20010500Y-2526200D01*
G01X20010500Y-3750200D02*
G01X20010500Y-3356500D01*
G01X20010500Y-2919800D02*
G01X20010500Y-2526200D01*
G01X19006400Y-2919800D02*
G01X19006400Y-2526200D01*
G01X19006400Y-3750200D02*
G01X19138500Y-3750200D01*
G01X19845500Y-3750200D02*
G01X20010500Y-3750200D01*
G01X19595600Y-3750200D02*
G01X19671500Y-3750200D01*
G01X19383500Y-3750200D02*
G01X19421500Y-3750200D01*
G01X19006400Y-3750200D02*
G01X19006400Y-3356500D01*
G01X10326500Y-14878200D02*
G01X10434000Y-14878200D01*
G01X10716500Y-14288200D02*
G01X10716500Y-14878200D01*
G01X10326500Y-14288200D02*
G01X10326500Y-14878200D01*
G01X14006400Y-14026200D02*
G01X15010500Y-14026200D01*
G01X15010500Y-15250200D02*
G01X15010500Y-14856500D01*
G01X15010500Y-14419800D02*
G01X15010500Y-14026200D01*
G01X14006400Y-14419800D02*
G01X14006400Y-14026200D01*
G01X14006400Y-15250200D02*
G01X14138500Y-15250200D01*
G01X14845500Y-15250200D02*
G01X15010500Y-15250200D01*
G01X14595600Y-15250200D02*
G01X14671500Y-15250200D01*
G01X14383500Y-15250200D02*
G01X14421500Y-15250200D01*
G01X14006400Y-15250200D02*
G01X14006400Y-14856500D01*
G01X11506400Y-14026200D02*
G01X12510500Y-14026200D01*
G01X12510500Y-15250200D02*
G01X12510500Y-14856500D01*
G01X12510500Y-14419800D02*
G01X12510500Y-14026200D01*
G01X11506400Y-14419800D02*
G01X11506400Y-14026200D01*
G01X11506400Y-15250200D02*
G01X11638500Y-15250200D01*
G01X12345500Y-15250200D02*
G01X12510500Y-15250200D01*
G01X12095600Y-15250200D02*
G01X12171500Y-15250200D01*
G01X11883500Y-15250200D02*
G01X11921500Y-15250200D01*
G01X11506400Y-15250200D02*
G01X11506400Y-14856500D01*
G01X11506400Y-2526200D02*
G01X12510500Y-2526200D01*
G01X12510500Y-3750200D02*
G01X12510500Y-3356500D01*
G01X12510500Y-2919800D02*
G01X12510500Y-2526200D01*
G01X11506400Y-2919800D02*
G01X11506400Y-2526200D01*
G01X11506400Y-3750200D02*
G01X11638500Y-3750200D01*
G01X12345500Y-3750200D02*
G01X12510500Y-3750200D01*
G01X12095600Y-3750200D02*
G01X12171500Y-3750200D01*
G01X11883500Y-3750200D02*
G01X11921500Y-3750200D01*
G01X11506400Y-3750200D02*
G01X11506400Y-3356500D01*
G01X20326500Y-5678200D02*
G01X20434000Y-5678200D01*
G01X20716500Y-5088200D02*
G01X20716500Y-5678200D01*
G01X20326500Y-5088200D02*
G01X20326500Y-5678200D01*
G01X20326500Y-10278200D02*
G01X20434000Y-10278200D01*
G01X20716500Y-9688200D02*
G01X20716500Y-10278200D01*
G01X20326500Y-9688200D02*
G01X20326500Y-10278200D01*
G01X23201000Y-8616200D02*
G01X23201000Y-9056200D01*
G01X22774000Y-8509200D02*
G01X22994000Y-8509200D01*
G01X22577000Y-8556200D02*
G01X22577000Y-9076200D01*
G01X22994000Y-9133200D02*
G01X22774000Y-9133200D01*
G01X13326500Y-9895700D02*
G01X13326500Y-9864149D01*
G01X12914500Y-9653700D02*
G01X13326500Y-9653700D01*
G01X13326500Y-9785251D02*
G01X13326500Y-9764149D01*
G01X13326500Y-9685251D02*
G01X13326500Y-9653700D01*
G01X13039000Y-9895700D02*
G01X13039000Y-9885528D01*
G01X12970500Y-9895700D02*
G01X12902000Y-9895700D01*
G01X12902000Y-9895700D02*
G01X12902000Y-9824700D01*
G01X12914500Y-9685251D02*
G01X12914500Y-9653700D01*
G01X13039000Y-9895700D02*
G01X13326500Y-9895700D01*
G01X16506400Y-9426200D02*
G01X17510500Y-9426200D01*
G01X17510500Y-10650200D02*
G01X17510500Y-10256500D01*
G01X17510500Y-9819800D02*
G01X17510500Y-9426200D01*
G01X16506400Y-9819800D02*
G01X16506400Y-9426200D01*
G01X16506400Y-10650200D02*
G01X16638500Y-10650200D01*
G01X17345500Y-10650200D02*
G01X17510500Y-10650200D01*
G01X17095600Y-10650200D02*
G01X17171500Y-10650200D01*
G01X16883500Y-10650200D02*
G01X16921500Y-10650200D01*
G01X16506400Y-10650200D02*
G01X16506400Y-10256500D01*
G01X12826500Y-7978200D02*
G01X12934000Y-7978200D01*
G01X13216500Y-7388200D02*
G01X13216500Y-7978200D01*
G01X12826500Y-7388200D02*
G01X12826500Y-7978200D01*
G01X4006400Y-11726200D02*
G01X5010500Y-11726200D01*
G01X5010500Y-12950200D02*
G01X5010500Y-12556500D01*
G01X5010500Y-12119800D02*
G01X5010500Y-11726200D01*
G01X4006400Y-12119800D02*
G01X4006400Y-11726200D01*
G01X4006400Y-12950200D02*
G01X4138500Y-12950200D01*
G01X4845500Y-12950200D02*
G01X5010500Y-12950200D01*
G01X4595600Y-12950200D02*
G01X4671500Y-12950200D01*
G01X4383500Y-12950200D02*
G01X4421500Y-12950200D01*
G01X4006400Y-12950200D02*
G01X4006400Y-12556500D01*
G01X18977750Y-9891088D02*
G01X19265250Y-9891088D01*
G01X18909250Y-9891088D02*
G01X18840750Y-9891088D01*
G01X18853250Y-9680639D02*
G01X18853250Y-9649088D01*
G01X18840750Y-9891088D02*
G01X18840750Y-9820088D01*
G01X19265250Y-9680639D02*
G01X19265250Y-9649088D01*
G01X19265250Y-9780639D02*
G01X19265250Y-9759537D01*
G01X19265250Y-9891088D02*
G01X19265250Y-9859537D01*
G01X18977750Y-9891088D02*
G01X18977750Y-9880916D01*
G01X18853250Y-9649088D02*
G01X19265250Y-9649088D01*
G01X9006400Y-7126200D02*
G01X10010500Y-7126200D01*
G01X10010500Y-8350200D02*
G01X10010500Y-7956500D01*
G01X10010500Y-7519800D02*
G01X10010500Y-7126200D01*
G01X9006400Y-7519800D02*
G01X9006400Y-7126200D01*
G01X9006400Y-8350200D02*
G01X9138500Y-8350200D01*
G01X9845500Y-8350200D02*
G01X10010500Y-8350200D01*
G01X9595600Y-8350200D02*
G01X9671500Y-8350200D01*
G01X9383500Y-8350200D02*
G01X9421500Y-8350200D01*
G01X9006400Y-8350200D02*
G01X9006400Y-7956500D01*
G01X6506400Y-7126200D02*
G01X7510500Y-7126200D01*
G01X7510500Y-8350200D02*
G01X7510500Y-7956500D01*
G01X7510500Y-7519800D02*
G01X7510500Y-7126200D01*
G01X6506400Y-7519800D02*
G01X6506400Y-7126200D01*
G01X6506400Y-8350200D02*
G01X6638500Y-8350200D01*
G01X7345500Y-8350200D02*
G01X7510500Y-8350200D01*
G01X7095600Y-8350200D02*
G01X7171500Y-8350200D01*
G01X6883500Y-8350200D02*
G01X6921500Y-8350200D01*
G01X6506400Y-8350200D02*
G01X6506400Y-7956500D01*
G01X18525000Y-13716700D02*
G01X18337500Y-13716700D01*
G01X18525000Y-13577700D02*
G01X18525000Y-13586372D01*
G01X18525000Y-13708028D02*
G01X18525000Y-13716700D01*
G01X18525000Y-13577700D02*
G01X18337500Y-13577700D01*
G01X18337500Y-13577700D02*
G01X18337500Y-13607751D01*
G01X18662000Y-13577700D02*
G01X18662000Y-13647200D01*
G01X18337500Y-13686649D02*
G01X18337500Y-13716700D01*
G01X18593500Y-13577700D02*
G01X18662000Y-13577700D01*
G01X12826500Y-5678200D02*
G01X12934000Y-5678200D01*
G01X13216500Y-5088200D02*
G01X13216500Y-5678200D01*
G01X12826500Y-5088200D02*
G01X12826500Y-5678200D01*
G01X10326500Y-3378200D02*
G01X10434000Y-3378200D01*
G01X10716500Y-2788200D02*
G01X10716500Y-3378200D01*
G01X10326500Y-2788200D02*
G01X10326500Y-3378200D01*
G01X5326500Y-3378200D02*
G01X5434000Y-3378200D01*
G01X5716500Y-2788200D02*
G01X5716500Y-3378200D01*
G01X5326500Y-2788200D02*
G01X5326500Y-3378200D01*
G01X17826500Y-12578200D02*
G01X17934000Y-12578200D01*
G01X18216500Y-11988200D02*
G01X18216500Y-12578200D01*
G01X17826500Y-11988200D02*
G01X17826500Y-12578200D01*
G01X12826500Y-12578200D02*
G01X12934000Y-12578200D01*
G01X13216500Y-11988200D02*
G01X13216500Y-12578200D01*
G01X12826500Y-11988200D02*
G01X12826500Y-12578200D01*
G01X12826500Y-14878200D02*
G01X12934000Y-14878200D01*
G01X13216500Y-14288200D02*
G01X13216500Y-14878200D01*
G01X12826500Y-14288200D02*
G01X12826500Y-14878200D01*
G01X19006400Y-4826200D02*
G01X20010500Y-4826200D01*
G01X20010500Y-6050200D02*
G01X20010500Y-5656500D01*
G01X20010500Y-5219800D02*
G01X20010500Y-4826200D01*
G01X19006400Y-5219800D02*
G01X19006400Y-4826200D01*
G01X19006400Y-6050200D02*
G01X19138500Y-6050200D01*
G01X19845500Y-6050200D02*
G01X20010500Y-6050200D01*
G01X19595600Y-6050200D02*
G01X19671500Y-6050200D01*
G01X19383500Y-6050200D02*
G01X19421500Y-6050200D01*
G01X19006400Y-6050200D02*
G01X19006400Y-5656500D01*
G01X14006400Y-2526200D02*
G01X15010500Y-2526200D01*
G01X15010500Y-3750200D02*
G01X15010500Y-3356500D01*
G01X15010500Y-2919800D02*
G01X15010500Y-2526200D01*
G01X14006400Y-2919800D02*
G01X14006400Y-2526200D01*
G01X14006400Y-3750200D02*
G01X14138500Y-3750200D01*
G01X14845500Y-3750200D02*
G01X15010500Y-3750200D01*
G01X14595600Y-3750200D02*
G01X14671500Y-3750200D01*
G01X14383500Y-3750200D02*
G01X14421500Y-3750200D01*
G01X14006400Y-3750200D02*
G01X14006400Y-3356500D01*
G01X17826500Y-5678200D02*
G01X17934000Y-5678200D01*
G01X18216500Y-5088200D02*
G01X18216500Y-5678200D01*
G01X17826500Y-5088200D02*
G01X17826500Y-5678200D01*
G01X7826500Y-5678200D02*
G01X7934000Y-5678200D01*
G01X8216500Y-5088200D02*
G01X8216500Y-5678200D01*
G01X7826500Y-5088200D02*
G01X7826500Y-5678200D01*
G01X22162500Y-8616200D02*
G01X22162500Y-9056200D01*
G01X21735500Y-8509200D02*
G01X21955500Y-8509200D01*
G01X21538500Y-8556200D02*
G01X21538500Y-9076200D01*
G01X21955500Y-9133200D02*
G01X21735500Y-9133200D01*
G01X12826500Y-10278200D02*
G01X12934000Y-10278200D01*
G01X13216500Y-9688200D02*
G01X13216500Y-10278200D01*
G01X12826500Y-9688200D02*
G01X12826500Y-10278200D01*
G01X24239500Y-7740000D02*
G01X24239500Y-8180000D01*
G01X23812500Y-7633000D02*
G01X24032500Y-7633000D01*
G01X23615500Y-7680000D02*
G01X23615500Y-8200000D01*
G01X24032500Y-8257000D02*
G01X23812500Y-8257000D01*
G01X19006400Y-14026200D02*
G01X20010500Y-14026200D01*
G01X20010500Y-15250200D02*
G01X20010500Y-14856500D01*
G01X20010500Y-14419800D02*
G01X20010500Y-14026200D01*
G01X19006400Y-14419800D02*
G01X19006400Y-14026200D01*
G01X19006400Y-15250200D02*
G01X19138500Y-15250200D01*
G01X19845500Y-15250200D02*
G01X20010500Y-15250200D01*
G01X19595600Y-15250200D02*
G01X19671500Y-15250200D01*
G01X19383500Y-15250200D02*
G01X19421500Y-15250200D01*
G01X19006400Y-15250200D02*
G01X19006400Y-14856500D01*
G01X19006400Y-7126200D02*
G01X20010500Y-7126200D01*
G01X20010500Y-8350200D02*
G01X20010500Y-7956500D01*
G01X20010500Y-7519800D02*
G01X20010500Y-7126200D01*
G01X19006400Y-7519800D02*
G01X19006400Y-7126200D01*
G01X19006400Y-8350200D02*
G01X19138500Y-8350200D01*
G01X19845500Y-8350200D02*
G01X20010500Y-8350200D01*
G01X19595600Y-8350200D02*
G01X19671500Y-8350200D01*
G01X19383500Y-8350200D02*
G01X19421500Y-8350200D01*
G01X19006400Y-8350200D02*
G01X19006400Y-7956500D01*
G01X6506400Y-4826200D02*
G01X7510500Y-4826200D01*
G01X7510500Y-6050200D02*
G01X7510500Y-5656500D01*
G01X7510500Y-5219800D02*
G01X7510500Y-4826200D01*
G01X6506400Y-5219800D02*
G01X6506400Y-4826200D01*
G01X6506400Y-6050200D02*
G01X6638500Y-6050200D01*
G01X7345500Y-6050200D02*
G01X7510500Y-6050200D01*
G01X7095600Y-6050200D02*
G01X7171500Y-6050200D01*
G01X6883500Y-6050200D02*
G01X6921500Y-6050200D01*
G01X6506400Y-6050200D02*
G01X6506400Y-5656500D01*
G01X6506400Y-14026200D02*
G01X7510500Y-14026200D01*
G01X7510500Y-15250200D02*
G01X7510500Y-14856500D01*
G01X7510500Y-14419800D02*
G01X7510500Y-14026200D01*
G01X6506400Y-14419800D02*
G01X6506400Y-14026200D01*
G01X6506400Y-15250200D02*
G01X6638500Y-15250200D01*
G01X7345500Y-15250200D02*
G01X7510500Y-15250200D01*
G01X7095600Y-15250200D02*
G01X7171500Y-15250200D01*
G01X6883500Y-15250200D02*
G01X6921500Y-15250200D01*
G01X6506400Y-15250200D02*
G01X6506400Y-14856500D01*
G01X23201000Y-7740000D02*
G01X23201000Y-8180000D01*
G01X22774000Y-7633000D02*
G01X22994000Y-7633000D01*
G01X22577000Y-7680000D02*
G01X22577000Y-8200000D01*
G01X22994000Y-8257000D02*
G01X22774000Y-8257000D01*
G01X5326500Y-14878200D02*
G01X5434000Y-14878200D01*
G01X5716500Y-14288200D02*
G01X5716500Y-14878200D01*
G01X5326500Y-14288200D02*
G01X5326500Y-14878200D01*
G01X19006400Y-11726200D02*
G01X20010500Y-11726200D01*
G01X20010500Y-12950200D02*
G01X20010500Y-12556500D01*
G01X20010500Y-12119800D02*
G01X20010500Y-11726200D01*
G01X19006400Y-12119800D02*
G01X19006400Y-11726200D01*
G01X19006400Y-12950200D02*
G01X19138500Y-12950200D01*
G01X19845500Y-12950200D02*
G01X20010500Y-12950200D01*
G01X19595600Y-12950200D02*
G01X19671500Y-12950200D01*
G01X19383500Y-12950200D02*
G01X19421500Y-12950200D01*
G01X19006400Y-12950200D02*
G01X19006400Y-12556500D01*
G01X24218100Y-4280600D02*
G01X24218100Y-4558600D01*
G01X23356100Y-4280600D02*
G01X23356100Y-4558600D01*
G01X23356100Y-4280600D02*
G01X24218100Y-4280600D01*
G01X23356100Y-4558600D02*
G01X24218100Y-4558600D01*
G01X15326500Y-7978200D02*
G01X15434000Y-7978200D01*
G01X15716500Y-7388200D02*
G01X15716500Y-7978200D01*
G01X15326500Y-7388200D02*
G01X15326500Y-7978200D01*
G01X15326500Y-5678200D02*
G01X15434000Y-5678200D01*
G01X15716500Y-5088200D02*
G01X15716500Y-5678200D01*
G01X15326500Y-5088200D02*
G01X15326500Y-5678200D01*
G01X5529500Y-9484200D02*
G01X5529500Y-9452649D01*
G01X5529500Y-9273751D02*
G01X5529500Y-9242200D01*
G01X5173500Y-9484200D02*
G01X5105000Y-9484200D01*
G01X5242000Y-9484200D02*
G01X5242000Y-9474028D01*
G01X5117500Y-9273751D02*
G01X5117500Y-9242200D01*
G01X5529500Y-9373751D02*
G01X5529500Y-9352649D01*
G01X5105000Y-9484200D02*
G01X5105000Y-9413200D01*
G01X5117500Y-9242200D02*
G01X5529500Y-9242200D01*
G01X5242000Y-9484200D02*
G01X5529500Y-9484200D01*
G01X17826500Y-3378200D02*
G01X17934000Y-3378200D01*
G01X18216500Y-2788200D02*
G01X18216500Y-3378200D01*
G01X17826500Y-2788200D02*
G01X17826500Y-3378200D01*
G01X14006400Y-4826200D02*
G01X15010500Y-4826200D01*
G01X15010500Y-6050200D02*
G01X15010500Y-5656500D01*
G01X15010500Y-5219800D02*
G01X15010500Y-4826200D01*
G01X14006400Y-5219800D02*
G01X14006400Y-4826200D01*
G01X14006400Y-6050200D02*
G01X14138500Y-6050200D01*
G01X14845500Y-6050200D02*
G01X15010500Y-6050200D01*
G01X14595600Y-6050200D02*
G01X14671500Y-6050200D01*
G01X14383500Y-6050200D02*
G01X14421500Y-6050200D01*
G01X14006400Y-6050200D02*
G01X14006400Y-5656500D01*
G01X22941200Y-5732300D02*
G01X22487200Y-5732300D01*
G01X22487200Y-5733800D02*
G01X22487200Y-5732300D01*
G01X22487200Y-5946300D02*
G01X22487200Y-5944800D01*
G01X22941200Y-5946300D02*
G01X22941200Y-5944800D01*
G01X22941200Y-5946300D02*
G01X22487200Y-5946300D01*
G01X22941200Y-5733800D02*
G01X22941200Y-5732300D01*
G01X22298800Y-4539300D02*
G01X22752800Y-4539300D01*
G01X22752800Y-4537800D02*
G01X22752800Y-4539300D01*
G01X22752800Y-4325300D02*
G01X22752800Y-4326800D01*
G01X22298800Y-4325300D02*
G01X22298800Y-4326800D01*
G01X22298800Y-4325300D02*
G01X22752800Y-4325300D01*
G01X22298800Y-4537800D02*
G01X22298800Y-4539300D01*
G01X21689200Y-6507800D02*
G01X22143200Y-6507800D01*
G01X22143200Y-6506300D02*
G01X22143200Y-6507800D01*
G01X22143200Y-6293800D02*
G01X22143200Y-6295300D01*
G01X21689200Y-6293800D02*
G01X21689200Y-6295300D01*
G01X21689200Y-6293800D02*
G01X22143200Y-6293800D01*
G01X21689200Y-6506300D02*
G01X21689200Y-6507800D01*
G01X9006400Y-4826200D02*
G01X10010500Y-4826200D01*
G01X10010500Y-6050200D02*
G01X10010500Y-5656500D01*
G01X10010500Y-5219800D02*
G01X10010500Y-4826200D01*
G01X9006400Y-5219800D02*
G01X9006400Y-4826200D01*
G01X9006400Y-6050200D02*
G01X9138500Y-6050200D01*
G01X9845500Y-6050200D02*
G01X10010500Y-6050200D01*
G01X9595600Y-6050200D02*
G01X9671500Y-6050200D01*
G01X9383500Y-6050200D02*
G01X9421500Y-6050200D01*
G01X9006400Y-6050200D02*
G01X9006400Y-5656500D01*
G01X10326500Y-10278200D02*
G01X10434000Y-10278200D01*
G01X10716500Y-9688200D02*
G01X10716500Y-10278200D01*
G01X10326500Y-9688200D02*
G01X10326500Y-10278200D01*
G01X14006400Y-9426200D02*
G01X15010500Y-9426200D01*
G01X15010500Y-10650200D02*
G01X15010500Y-10256500D01*
G01X15010500Y-9819800D02*
G01X15010500Y-9426200D01*
G01X14006400Y-9819800D02*
G01X14006400Y-9426200D01*
G01X14006400Y-10650200D02*
G01X14138500Y-10650200D01*
G01X14845500Y-10650200D02*
G01X15010500Y-10650200D01*
G01X14595600Y-10650200D02*
G01X14671500Y-10650200D01*
G01X14383500Y-10650200D02*
G01X14421500Y-10650200D01*
G01X14006400Y-10650200D02*
G01X14006400Y-10256500D01*
G01X21319000Y-2909700D02*
G01X21131500Y-2909700D01*
G01X21387500Y-2909700D02*
G01X21456000Y-2909700D01*
G01X21456000Y-2909700D02*
G01X21456000Y-2979200D01*
G01X21131500Y-2909700D02*
G01X21131500Y-2939751D01*
G01X21319000Y-3048700D02*
G01X21131500Y-3048700D01*
G01X21319000Y-3040028D02*
G01X21319000Y-3048700D01*
G01X21131500Y-3018649D02*
G01X21131500Y-3048700D01*
G01X21319000Y-2909700D02*
G01X21319000Y-2918372D01*
G01X9006400Y-14026200D02*
G01X10010500Y-14026200D01*
G01X10010500Y-15250200D02*
G01X10010500Y-14856500D01*
G01X10010500Y-14419800D02*
G01X10010500Y-14026200D01*
G01X9006400Y-14419800D02*
G01X9006400Y-14026200D01*
G01X9006400Y-15250200D02*
G01X9138500Y-15250200D01*
G01X9845500Y-15250200D02*
G01X10010500Y-15250200D01*
G01X9595600Y-15250200D02*
G01X9671500Y-15250200D01*
G01X9383500Y-15250200D02*
G01X9421500Y-15250200D01*
G01X9006400Y-15250200D02*
G01X9006400Y-14856500D01*
G01X6506400Y-9426200D02*
G01X7510500Y-9426200D01*
G01X7510500Y-10650200D02*
G01X7510500Y-10256500D01*
G01X7510500Y-9819800D02*
G01X7510500Y-9426200D01*
G01X6506400Y-9819800D02*
G01X6506400Y-9426200D01*
G01X6506400Y-10650200D02*
G01X6638500Y-10650200D01*
G01X7345500Y-10650200D02*
G01X7510500Y-10650200D01*
G01X7095600Y-10650200D02*
G01X7171500Y-10650200D01*
G01X6883500Y-10650200D02*
G01X6921500Y-10650200D01*
G01X6506400Y-10650200D02*
G01X6506400Y-10256500D01*
G01X11506400Y-11726200D02*
G01X12510500Y-11726200D01*
G01X12510500Y-12950200D02*
G01X12510500Y-12556500D01*
G01X12510500Y-12119800D02*
G01X12510500Y-11726200D01*
G01X11506400Y-12119800D02*
G01X11506400Y-11726200D01*
G01X11506400Y-12950200D02*
G01X11638500Y-12950200D01*
G01X12345500Y-12950200D02*
G01X12510500Y-12950200D01*
G01X12095600Y-12950200D02*
G01X12171500Y-12950200D01*
G01X11883500Y-12950200D02*
G01X11921500Y-12950200D01*
G01X11506400Y-12950200D02*
G01X11506400Y-12556500D01*
G01X22162500Y-7740000D02*
G01X22162500Y-8180000D01*
G01X21735500Y-7633000D02*
G01X21955500Y-7633000D01*
G01X21538500Y-7680000D02*
G01X21538500Y-8200000D01*
G01X21955500Y-8257000D02*
G01X21735500Y-8257000D01*
G01X15326500Y-14878200D02*
G01X15434000Y-14878200D01*
G01X15716500Y-14288200D02*
G01X15716500Y-14878200D01*
G01X15326500Y-14288200D02*
G01X15326500Y-14878200D01*
G01X14006400Y-11726200D02*
G01X15010500Y-11726200D01*
G01X15010500Y-12950200D02*
G01X15010500Y-12556500D01*
G01X15010500Y-12119800D02*
G01X15010500Y-11726200D01*
G01X14006400Y-12119800D02*
G01X14006400Y-11726200D01*
G01X14006400Y-12950200D02*
G01X14138500Y-12950200D01*
G01X14845500Y-12950200D02*
G01X15010500Y-12950200D01*
G01X14595600Y-12950200D02*
G01X14671500Y-12950200D01*
G01X14383500Y-12950200D02*
G01X14421500Y-12950200D01*
G01X14006400Y-12950200D02*
G01X14006400Y-12556500D01*
G01X11506400Y-4826200D02*
G01X12510500Y-4826200D01*
G01X12510500Y-6050200D02*
G01X12510500Y-5656500D01*
G01X12510500Y-5219800D02*
G01X12510500Y-4826200D01*
G01X11506400Y-5219800D02*
G01X11506400Y-4826200D01*
G01X11506400Y-6050200D02*
G01X11638500Y-6050200D01*
G01X12345500Y-6050200D02*
G01X12510500Y-6050200D01*
G01X12095600Y-6050200D02*
G01X12171500Y-6050200D01*
G01X11883500Y-6050200D02*
G01X11921500Y-6050200D01*
G01X11506400Y-6050200D02*
G01X11506400Y-5656500D01*
G01X7826500Y-12578200D02*
G01X7934000Y-12578200D01*
G01X8216500Y-11988200D02*
G01X8216500Y-12578200D01*
G01X7826500Y-11988200D02*
G01X7826500Y-12578200D01*
G01X5326500Y-10278200D02*
G01X5434000Y-10278200D01*
G01X5716500Y-9688200D02*
G01X5716500Y-10278200D01*
G01X5326500Y-9688200D02*
G01X5326500Y-10278200D01*
G01X17005750Y-9916950D02*
G01X17293250Y-9916950D01*
G01X16937250Y-9916950D02*
G01X16868750Y-9916950D01*
G01X16881250Y-9706501D02*
G01X16881250Y-9674950D01*
G01X16868750Y-9916950D02*
G01X16868750Y-9845950D01*
G01X17293250Y-9706501D02*
G01X17293250Y-9674950D01*
G01X17293250Y-9806501D02*
G01X17293250Y-9785399D01*
G01X17293250Y-9916950D02*
G01X17293250Y-9885399D01*
G01X17005750Y-9916950D02*
G01X17005750Y-9906778D01*
G01X16881250Y-9674950D02*
G01X17293250Y-9674950D01*
G01X10326500Y-12578200D02*
G01X10434000Y-12578200D01*
G01X10716500Y-11988200D02*
G01X10716500Y-12578200D01*
G01X10326500Y-11988200D02*
G01X10326500Y-12578200D01*
G01X7826500Y-10278200D02*
G01X7934000Y-10278200D01*
G01X8216500Y-9688200D02*
G01X8216500Y-10278200D01*
G01X7826500Y-9688200D02*
G01X7826500Y-10278200D01*
G01X23792500Y-5730100D02*
G01X23792500Y-5276100D01*
G01X23791000Y-5276100D02*
G01X23792500Y-5276100D01*
G01X23578500Y-5276100D02*
G01X23580000Y-5276100D01*
G01X23578500Y-5730100D02*
G01X23580000Y-5730100D01*
G01X23578500Y-5730100D02*
G01X23578500Y-5276100D01*
G01X23791000Y-5730100D02*
G01X23792500Y-5730100D01*
G01X4006400Y-9426200D02*
G01X5010500Y-9426200D01*
G01X5010500Y-10650200D02*
G01X5010500Y-10256500D01*
G01X5010500Y-9819800D02*
G01X5010500Y-9426200D01*
G01X4006400Y-9819800D02*
G01X4006400Y-9426200D01*
G01X4006400Y-10650200D02*
G01X4138500Y-10650200D01*
G01X4845500Y-10650200D02*
G01X5010500Y-10650200D01*
G01X4595600Y-10650200D02*
G01X4671500Y-10650200D01*
G01X4383500Y-10650200D02*
G01X4421500Y-10650200D01*
G01X4006400Y-10650200D02*
G01X4006400Y-10256500D01*
G01X16506400Y-4826200D02*
G01X17510500Y-4826200D01*
G01X17510500Y-6050200D02*
G01X17510500Y-5656500D01*
G01X17510500Y-5219800D02*
G01X17510500Y-4826200D01*
G01X16506400Y-5219800D02*
G01X16506400Y-4826200D01*
G01X16506400Y-6050200D02*
G01X16638500Y-6050200D01*
G01X17345500Y-6050200D02*
G01X17510500Y-6050200D01*
G01X17095600Y-6050200D02*
G01X17171500Y-6050200D01*
G01X16883500Y-6050200D02*
G01X16921500Y-6050200D01*
G01X16506400Y-6050200D02*
G01X16506400Y-5656500D01*
G01X9006400Y-11726200D02*
G01X10010500Y-11726200D01*
G01X10010500Y-12950200D02*
G01X10010500Y-12556500D01*
G01X10010500Y-12119800D02*
G01X10010500Y-11726200D01*
G01X9006400Y-12119800D02*
G01X9006400Y-11726200D01*
G01X9006400Y-12950200D02*
G01X9138500Y-12950200D01*
G01X9845500Y-12950200D02*
G01X10010500Y-12950200D01*
G01X9595600Y-12950200D02*
G01X9671500Y-12950200D01*
G01X9383500Y-12950200D02*
G01X9421500Y-12950200D01*
G01X9006400Y-12950200D02*
G01X9006400Y-12556500D01*

G04 Circle Start*
G54D12*
G01X24082200Y-3066700D02*
G03X24152200Y-3066700I35000J0D01*
G03X24082200Y-3066700I-35000J0D01*
G01X22482200Y-3066700D02*
G03X22552200Y-3066700I35000J0D01*
G03X22482200Y-3066700I-35000J0D01*
G54D11*
G01X23786079Y-8821200D02*
G03X24068921Y-8821200I141421J0D01*
G03X23786079Y-8821200I-141421J0D01*
G01X22747579Y-8821200D02*
G03X23030421Y-8821200I141421J0D01*
G03X22747579Y-8821200I-141421J0D01*
G01X21709079Y-8821200D02*
G03X21991921Y-8821200I141421J0D01*
G03X21709079Y-8821200I-141421J0D01*
G01X23786079Y-7945000D02*
G03X24068921Y-7945000I141421J0D01*
G03X23786079Y-7945000I-141421J0D01*
G01X22747579Y-7945000D02*
G03X23030421Y-7945000I141421J0D01*
G03X22747579Y-7945000I-141421J0D01*
G01X21709079Y-7945000D02*
G03X21991921Y-7945000I141421J0D01*
G03X21709079Y-7945000I-141421J0D01*
G04 Circle End*

M02*

