;TYPE=NON_PLATED
;Layer: NPTH_Through
;EasyEDA Pro Client v2.2.40.8, 2025-08-28 14:02:14
;Gerber Generator version 0.3
M48
METRIC,LZ,0000.00000
;Hole size 1 = 1.00000 METRIC
T01C1.00000
;Hole size 2 = 2.29616 METRIC
T02C2.29616
;Hole size 3 = 2.29838 METRIC
T03C2.29838
;Hole size 4 = 6.40080 METRIC
T04C6.40080
%
G05
G90
T01
X98.933Y-7.204
X98.933Y-14.20398
X113.919Y-7.204
X113.919Y-14.20398
X141.859Y-7.204
X141.859Y-14.20398
X157.226Y-7.204
X157.226Y-14.20398
X183.515Y-7.204
X183.515Y-14.20398
X198.628Y-7.204
X198.628Y-14.20398
X88.265Y-7.204
X88.265Y-14.20398
X37.084Y-7.204
X37.084Y-14.20398
T02
X20.76196Y-64.6971
X44.26204Y-64.6971
X44.196Y-88.519
T03
X20.76196Y-88.4969
T04
X9.398Y-164.846
X215.519Y-164.846
X215.519Y-19.558
M30