G04 Layer: TopLayer*
G04 EasyEDA Pro v2.2.40.8, 2025-08-28 14:02:13*
G04 Gerber Generator version 0.3*
G04 Scale: 100 percent, Rotated: No, Reflected: No*
G04 Dimensions in millimeters*
G04 Leading zeros omitted, absolute positions, 4 integers and 5 decimals*
G04 Generated by one-click*
%FSLAX45Y45*%
%MOMM*%
%ADD10R,0.6096X0.6096*%
%ADD11O,4.59999X2.0*%
%ADD12O,2.0X4.59999*%
%ADD13O,1.0X2.0*%
%ADD14C,1.524*%
%ADD15R,1.48501X1.72799*%
%ADD16C,1.7034*%
%ADD17C,1.7*%
%ADD18R,1.19009X1.72799*%
%ADD19R,1.40668X3.49921*%
%ADD20R,1.5X2.0*%
%ADD21O,1.5X2.0*%
%ADD22O,1.865X0.63*%
%ADD23R,0.8X0.9*%
%ADD24R,0.9X0.8*%
%ADD25R,1.5X1.5*%
%ADD26C,1.5*%
%ADD27C,1.53*%
%ADD28R,2.99999X2.0*%
%ADD29C,1.8*%
%ADD30O,2.99999X3.29999*%
%ADD31O,2.38801X0.57399*%
%ADD32R,1.37701X1.13254*%
%ADD33R,1.13254X1.37701*%
%ADD34R,0.8X0.8*%
%ADD35C,2.2*%
%ADD36R,1.0X1.5*%
%ADD37R,0.79009X0.54*%
%ADD38R,1.35001X1.41*%
%ADD39R,3.49999X1.2*%
%ADD40C,0.7112*%
%ADD41C,0.6096*%
%ADD42C,0.635*%
%ADD43C,0.254*%
%ADD44C,0.2032*%
G75*


G04 Pad Start*
G54D10*
G01X1612900Y-1816100D03*
G01X1739900Y-2908300D03*
G01X4216400Y-4737100D03*
G01X11252200Y-2451100D03*
G01X14300200Y-2895600D03*
G01X18901920Y-2460751D03*
G01X5308600Y-4965700D03*
G01X6299200Y-9194800D03*
G01X939800Y-5600700D03*
G01X1193800Y-5600700D03*
G01X7048500Y-3987800D03*
G01X2260600Y-3403600D03*
G01X3035300Y-3403600D03*
G01X3276600Y-3403600D03*
G01X3479800Y-3403600D03*
G01X3695700Y-3403600D03*
G01X1981200Y-3403600D03*
G01X2527300Y-3403600D03*
G01X2755900Y-3403600D03*
G54D11*
G01X1035088Y-1757782D03*
G01X1035114Y-1137818D03*
G54D12*
G01X565087Y-1457808D03*
G54D13*
G01X9668299Y-1710398D03*
G01X10118298Y-880400D03*
G01X10118298Y-1190399D03*
G01X10118298Y-1600398D03*
G54D14*
G01X2141499Y-1071905D03*
G01X2141499Y-1271905D03*
G01X2811501Y-1071905D03*
G01X2811501Y-1271905D03*
G01X2376500Y-1391895D03*
G01X2576500Y-1391895D03*
G54D15*
G01X7714299Y-5957759D03*
G01X7395783Y-5957759D03*
G54D17*
G01X3111500Y-1551000D03*
G01X3111500Y-481000D03*
G54D14*
G01X10248900Y-3506495D03*
G01X10248900Y-2716505D03*
G01X15481300Y-2716505D03*
G01X15481300Y-3506495D03*
G01X11252200Y-2716505D03*
G01X11252200Y-3506495D03*
G01X14503400Y-3481095D03*
G01X14503400Y-2691105D03*
G01X18630900Y-3481095D03*
G01X18630900Y-2691105D03*
G01X19596100Y-2691105D03*
G01X19596100Y-3481095D03*
G54D18*
G01X1811299Y-1752600D03*
G01X2100301Y-1752600D03*
G54D13*
G01X11166899Y-1710398D03*
G01X11616898Y-880400D03*
G01X11616898Y-1190399D03*
G01X11616898Y-1600398D03*
G01X13960899Y-1710398D03*
G01X14410898Y-880400D03*
G01X14410898Y-1190399D03*
G01X14410898Y-1600398D03*
G01X15497599Y-1710398D03*
G01X15947598Y-880400D03*
G01X15947598Y-1190399D03*
G01X15947598Y-1600398D03*
G01X18126499Y-1710398D03*
G01X18576498Y-880400D03*
G01X18576498Y-1190399D03*
G01X18576498Y-1600398D03*
G01X19637799Y-1710398D03*
G01X20087798Y-880400D03*
G01X20087798Y-1190399D03*
G01X20087798Y-1600398D03*
G54D19*
G01X2966644Y-1879600D03*
G01X2595956Y-1879600D03*
G54D20*
G01X6870700Y-3810000D03*
G54D21*
G01X7124700Y-3810000D03*
G01X7378700Y-3810000D03*
G01X7632700Y-3810000D03*
G01X7886700Y-3810000D03*
G01X8140700Y-3810000D03*
G01X8394700Y-3810000D03*
G01X6870700Y-3048000D03*
G01X7124700Y-3048000D03*
G01X7378700Y-3048000D03*
G01X7632700Y-3048000D03*
G01X7886700Y-3048000D03*
G01X8140700Y-3048000D03*
G01X8394700Y-3048000D03*
G54D22*
G01X10488651Y-2679700D03*
G01X10488651Y-2806700D03*
G01X10488651Y-2933700D03*
G01X10488651Y-3060700D03*
G01X11025149Y-2679700D03*
G01X11025149Y-2806700D03*
G01X11025149Y-2933700D03*
G01X11025149Y-3060700D03*
G01X14717751Y-2654300D03*
G01X14717751Y-2781300D03*
G01X14717751Y-2908300D03*
G01X14717751Y-3035300D03*
G01X15254249Y-2654300D03*
G01X15254249Y-2781300D03*
G01X15254249Y-2908300D03*
G01X15254249Y-3035300D03*
G01X18845251Y-2654300D03*
G01X18845251Y-2781300D03*
G01X18845251Y-2908300D03*
G01X18845251Y-3035300D03*
G01X19381749Y-2654300D03*
G01X19381749Y-2781300D03*
G01X19381749Y-2908300D03*
G01X19381749Y-3035300D03*
G54D10*
G01X5168900Y-7327900D03*
G01X736600Y-5588000D03*
G01X838200Y-2082800D03*
G01X11391900Y-2108200D03*
G01X6299200Y-3987800D03*
G54D23*
G01X6940398Y-7327900D03*
G01X7080402Y-7327900D03*
G01X9531502Y-5791200D03*
G01X9391498Y-5791200D03*
G01X13315798Y-5791200D03*
G01X13455802Y-5791200D03*
G01X15271598Y-5803900D03*
G01X15411602Y-5803900D03*
G01X17278198Y-5702300D03*
G01X17418202Y-5702300D03*
G01X19246698Y-5778500D03*
G01X19386702Y-5778500D03*
G01X9569602Y-7823200D03*
G01X9429598Y-7823200D03*
G01X11512702Y-7785100D03*
G01X11372698Y-7785100D03*
G54D10*
G01X18376900Y-2743200D03*
G54D23*
G01X7778902Y-5676900D03*
G01X7638898Y-5676900D03*
G01X13481202Y-7810500D03*
G01X13341198Y-7810500D03*
G01X15487802Y-7797800D03*
G01X15347798Y-7797800D03*
G01X17405502Y-7861300D03*
G01X17265498Y-7861300D03*
G01X19361302Y-7848600D03*
G01X19221298Y-7848600D03*
G01X7804302Y-9880600D03*
G01X7664298Y-9880600D03*
G01X9620402Y-9956800D03*
G01X9480398Y-9956800D03*
G01X11512702Y-9918700D03*
G01X11372698Y-9918700D03*
G01X13519302Y-9956800D03*
G01X13379298Y-9956800D03*
G01X15500502Y-9944100D03*
G01X15360498Y-9944100D03*
G01X17443602Y-9931400D03*
G01X17303598Y-9931400D03*
G01X19399402Y-9944100D03*
G01X19259398Y-9944100D03*
G01X7766202Y-11925300D03*
G01X7626198Y-11925300D03*
G01X9569602Y-11988800D03*
G01X9429598Y-11988800D03*
G01X11474602Y-11963400D03*
G01X11334598Y-11963400D03*
G01X13481202Y-11976100D03*
G01X13341198Y-11976100D03*
G01X15449702Y-12001500D03*
G01X15309698Y-12001500D03*
G01X17430902Y-12001500D03*
G01X17290898Y-12001500D03*
G01X19348602Y-11988800D03*
G01X19208598Y-11988800D03*
G01X7753502Y-14147800D03*
G01X7613498Y-14147800D03*
G01X9595002Y-14058900D03*
G01X9454998Y-14058900D03*
G01X11550802Y-14020800D03*
G01X11410798Y-14020800D03*
G01X13493902Y-14008100D03*
G01X13353898Y-14008100D03*
G01X15475102Y-14058900D03*
G01X15335098Y-14058900D03*
G54D24*
G01X18757900Y-1251102D03*
G01X18757900Y-1111098D03*
G01X15316200Y-1276502D03*
G01X15316200Y-1136498D03*
G54D23*
G01X1035412Y-14417135D03*
G01X895407Y-14417135D03*
G01X1022502Y-12611100D03*
G01X882498Y-12611100D03*
G01X2952902Y-10947400D03*
G01X2812898Y-10947400D03*
G54D24*
G01X10299700Y-1263802D03*
G01X10299700Y-1123798D03*
G01X10998200Y-1251102D03*
G01X10998200Y-1111098D03*
G01X14579600Y-1276502D03*
G01X14579600Y-1136498D03*
G54D25*
G01X5397500Y-3098800D03*
G54D26*
G01X5397500Y-3352800D03*
G01X5397500Y-3606800D03*
G01X5397500Y-3860800D03*
G01X6159500Y-3098800D03*
G01X6159500Y-3352800D03*
G01X6159500Y-3606800D03*
G01X6159500Y-3860800D03*
G54D27*
G01X939800Y-5283200D03*
G01X1193800Y-5283200D03*
G01X1447800Y-5283200D03*
G01X1701800Y-5283200D03*
G01X3987800Y-4775200D03*
G01X1193800Y-3759200D03*
G01X1955800Y-5283200D03*
G01X2209800Y-5283200D03*
G01X2463800Y-5283200D03*
G01X2717800Y-5283200D03*
G01X2971800Y-5283200D03*
G01X3225800Y-5283200D03*
G01X3479800Y-5283200D03*
G01X3733800Y-5283200D03*
G01X3987800Y-5283200D03*
G01X3987800Y-3759200D03*
G01X3733800Y-3759200D03*
G01X3479800Y-3759200D03*
G01X3225800Y-3759200D03*
G01X2971800Y-3759200D03*
G01X2717800Y-3759200D03*
G01X2463800Y-3759200D03*
G01X2209800Y-3759200D03*
G01X1955800Y-3759200D03*
G01X1701800Y-3759200D03*
G01X1447800Y-3759200D03*
G01X685800Y-5283200D03*
G01X3987800Y-4521200D03*
G01X939800Y-3759200D03*
G01X3987800Y-4013200D03*
G01X3987800Y-4267200D03*
G01X3987800Y-5029200D03*
G01X685800Y-3759200D03*
G54D28*
G01X5346002Y-10748200D03*
G01X6845999Y-10748200D03*
G01X5346002Y-11248199D03*
G01X6845999Y-11248199D03*
G01X4838002Y-12221400D03*
G01X6337999Y-12221400D03*
G01X4838002Y-12721399D03*
G01X6337999Y-12721399D03*
G01X5371402Y-13745400D03*
G01X6871399Y-13745400D03*
G01X5371402Y-14245399D03*
G01X6871399Y-14245399D03*
G01X3415602Y-13758100D03*
G01X4915599Y-13758100D03*
G01X3415602Y-14258099D03*
G01X4915599Y-14258099D03*
G01X2920302Y-12221400D03*
G01X4420299Y-12221400D03*
G01X2920302Y-12721399D03*
G01X4420299Y-12721399D03*
G01X3415602Y-10760900D03*
G01X4915599Y-10760900D03*
G01X3415602Y-11260899D03*
G01X4915599Y-11260899D03*
G54D29*
G01X2870200Y-6489700D03*
G01X3124200Y-6489700D03*
G01X3378200Y-6489700D03*
G01X3632200Y-6489700D03*
G54D30*
G01X1464991Y-10356101D03*
G01X2344999Y-10356101D03*
G54D26*
G01X2155007Y-11056099D03*
G01X1904995Y-11056099D03*
G01X1655008Y-11056099D03*
G54D30*
G01X1452291Y-12134101D03*
G01X2332299Y-12134101D03*
G54D26*
G01X2142307Y-12834099D03*
G01X1892295Y-12834099D03*
G01X1642308Y-12834099D03*
G54D30*
G01X1503091Y-13874001D03*
G01X2383099Y-13874001D03*
G54D26*
G01X2193107Y-14573999D03*
G01X1943095Y-14573999D03*
G01X1693108Y-14573999D03*
G54D31*
G01X6202096Y-9042400D03*
G01X6202096Y-8915400D03*
G01X6202096Y-8788400D03*
G01X6202096Y-8661400D03*
G01X6202096Y-8534400D03*
G01X6202096Y-8407400D03*
G01X6202096Y-8280400D03*
G01X6202096Y-8153400D03*
G01X6202096Y-8026400D03*
G01X6202096Y-7899400D03*
G01X6202096Y-7772400D03*
G01X6202096Y-7645400D03*
G01X5253304Y-9042400D03*
G01X5253304Y-8915400D03*
G01X5253304Y-8788400D03*
G01X5253304Y-8661400D03*
G01X5253304Y-8534400D03*
G01X5253304Y-8407400D03*
G01X5253304Y-8280400D03*
G01X5253304Y-8153400D03*
G01X5253304Y-8026400D03*
G01X5253304Y-7899400D03*
G01X5253304Y-7772400D03*
G01X5253304Y-7645400D03*
G54D32*
G01X2120900Y-3021000D03*
G01X2120900Y-2821000D03*
G01X2400300Y-3021000D03*
G01X2400300Y-2821000D03*
G01X3048000Y-3021000D03*
G01X3048000Y-2821000D03*
G01X3327400Y-3021000D03*
G01X3327400Y-2821000D03*
G01X3606800Y-3021000D03*
G01X3606800Y-2821000D03*
G01X3886200Y-3021000D03*
G01X3886200Y-2821000D03*
G54D33*
G01X4649800Y-5295900D03*
G01X4849800Y-5295900D03*
G54D32*
G01X8585200Y-2589200D03*
G01X8585200Y-2389200D03*
G01X8128000Y-2589200D03*
G01X8128000Y-2389200D03*
G54D33*
G01X3313100Y-5956300D03*
G01X3113100Y-5956300D03*
G01X4303700Y-5956300D03*
G01X4103700Y-5956300D03*
G01X4773600Y-4660900D03*
G01X4573600Y-4660900D03*
G01X4773600Y-3822700D03*
G01X4573600Y-3822700D03*
G54D32*
G01X4216400Y-2351100D03*
G01X4216400Y-2551100D03*
G01X6629400Y-2576500D03*
G01X6629400Y-2376500D03*
G01X7569200Y-2589200D03*
G01X7569200Y-2389200D03*
G54D33*
G01X4773600Y-3479800D03*
G01X4573600Y-3479800D03*
G54D34*
G01X854647Y-2933362D03*
G01X694754Y-2934048D03*
G54D13*
G01X8601499Y-1710398D03*
G01X9051498Y-880400D03*
G01X9051498Y-1190399D03*
G01X9051498Y-1600398D03*
G01X3483399Y-1710398D03*
G01X3933398Y-880400D03*
G01X3933398Y-1190399D03*
G01X3933398Y-1600398D03*
G54D35*
G01X8115999Y-1584211D03*
G01X7866012Y-1834197D03*
G01X7366013Y-1584211D03*
G01X6866014Y-1834197D03*
G01X6616002Y-1584211D03*
G01X7866012Y-604202D03*
G01X6866014Y-604202D03*
G01X5906199Y-1584211D03*
G01X5656212Y-1834197D03*
G01X5156213Y-1584211D03*
G01X4656214Y-1834197D03*
G01X4406202Y-1584211D03*
G01X5656212Y-604202D03*
G01X4656214Y-604202D03*
G54D36*
G01X815213Y-14131099D03*
G01X1115187Y-14131099D03*
G01X1115187Y-13631100D03*
G01X815213Y-13631100D03*
G01X815213Y-12378499D03*
G01X1115187Y-12378499D03*
G01X1115187Y-11878500D03*
G01X815213Y-11878500D03*
G01X2745613Y-10613199D03*
G01X3045587Y-10613199D03*
G01X3045587Y-10113200D03*
G01X2745613Y-10113200D03*
G01X6898513Y-12721399D03*
G01X7198487Y-12721399D03*
G01X7198487Y-12221400D03*
G01X6898513Y-12221400D03*
G01X10492613Y-1837499D03*
G01X10792587Y-1837499D03*
G01X10792587Y-1337500D03*
G01X10492613Y-1337500D03*
G01X10492613Y-1050099D03*
G01X10792587Y-1050099D03*
G01X10792587Y-550100D03*
G01X10492613Y-550100D03*
G01X14810613Y-1837499D03*
G01X15110587Y-1837499D03*
G01X15110587Y-1337500D03*
G01X14810613Y-1337500D03*
G01X14810613Y-1050099D03*
G01X15110587Y-1050099D03*
G01X15110587Y-550100D03*
G01X14810613Y-550100D03*
G01X18963513Y-1824799D03*
G01X19263487Y-1824799D03*
G01X19263487Y-1324800D03*
G01X18963513Y-1324800D03*
G01X18963513Y-1037399D03*
G01X19263487Y-1037399D03*
G01X19263487Y-537400D03*
G01X18963513Y-537400D03*
G54D14*
G01X5017795Y-2984500D03*
G01X4227805Y-2984500D03*
G54D36*
G01X20170013Y-16378999D03*
G01X20469987Y-16378999D03*
G01X20469987Y-15879000D03*
G01X20170013Y-15879000D03*
G01X18214213Y-16378999D03*
G01X18514187Y-16378999D03*
G01X18514187Y-15879000D03*
G01X18214213Y-15879000D03*
G01X16271113Y-16378999D03*
G01X16571087Y-16378999D03*
G01X16571087Y-15879000D03*
G01X16271113Y-15879000D03*
G01X14277213Y-16378999D03*
G01X14577187Y-16378999D03*
G01X14577187Y-15879000D03*
G01X14277213Y-15879000D03*
G01X12270613Y-16378999D03*
G01X12570587Y-16378999D03*
G01X12570587Y-15879000D03*
G01X12270613Y-15879000D03*
G01X10365613Y-16366299D03*
G01X10665587Y-16366299D03*
G01X10665587Y-15866300D03*
G01X10365613Y-15866300D03*
G01X8397113Y-16378999D03*
G01X8697087Y-16378999D03*
G01X8697087Y-15879000D03*
G01X8397113Y-15879000D03*
G01X20157313Y-14308899D03*
G01X20457287Y-14308899D03*
G01X20457287Y-13808900D03*
G01X20157313Y-13808900D03*
G01X18188813Y-14308899D03*
G01X18488787Y-14308899D03*
G01X18488787Y-13808900D03*
G01X18188813Y-13808900D03*
G01X16271113Y-14308899D03*
G01X16571087Y-14308899D03*
G01X16571087Y-13808900D03*
G01X16271113Y-13808900D03*
G01X14277213Y-14308899D03*
G01X14577187Y-14308899D03*
G01X14577187Y-13808900D03*
G01X14277213Y-13808900D03*
G01X12283313Y-14308899D03*
G01X12583287Y-14308899D03*
G01X12583287Y-13808900D03*
G01X12283313Y-13808900D03*
G01X10352913Y-14308899D03*
G01X10652887Y-14308899D03*
G01X10652887Y-13808900D03*
G01X10352913Y-13808900D03*
G01X8384413Y-14308899D03*
G01X8684387Y-14308899D03*
G01X8684387Y-13808900D03*
G01X8384413Y-13808900D03*
G01X20144613Y-12238799D03*
G01X20444587Y-12238799D03*
G01X20444587Y-11738800D03*
G01X20144613Y-11738800D03*
G01X18176113Y-12238799D03*
G01X18476087Y-12238799D03*
G01X18476087Y-11738800D03*
G01X18176113Y-11738800D03*
G01X16245713Y-12238799D03*
G01X16545687Y-12238799D03*
G01X16545687Y-11738800D03*
G01X16245713Y-11738800D03*
G01X14277213Y-12238799D03*
G01X14577187Y-12238799D03*
G01X14577187Y-11738800D03*
G01X14277213Y-11738800D03*
G01X12283313Y-12238799D03*
G01X12583287Y-12238799D03*
G01X12583287Y-11738800D03*
G01X12283313Y-11738800D03*
G01X10352913Y-12238799D03*
G01X10652887Y-12238799D03*
G01X10652887Y-11738800D03*
G01X10352913Y-11738800D03*
G01X8384413Y-12238799D03*
G01X8684387Y-12238799D03*
G01X8684387Y-11738800D03*
G01X8384413Y-11738800D03*
G01X20144613Y-10168699D03*
G01X20444587Y-10168699D03*
G01X20444587Y-9668700D03*
G01X20144613Y-9668700D03*
G01X18176113Y-10168699D03*
G01X18476087Y-10168699D03*
G01X18476087Y-9668700D03*
G01X18176113Y-9668700D03*
G01X16207613Y-10168699D03*
G01X16507587Y-10168699D03*
G01X16507587Y-9668700D03*
G01X16207613Y-9668700D03*
G01X14277213Y-10168699D03*
G01X14577187Y-10168699D03*
G01X14577187Y-9668700D03*
G01X14277213Y-9668700D03*
G01X12296013Y-10168699D03*
G01X12595987Y-10168699D03*
G01X12595987Y-9668700D03*
G01X12296013Y-9668700D03*
G01X10365613Y-10168699D03*
G01X10665587Y-10168699D03*
G01X10665587Y-9668700D03*
G01X10365613Y-9668700D03*
G01X8384413Y-10168699D03*
G01X8684387Y-10168699D03*
G01X8684387Y-9668700D03*
G01X8384413Y-9668700D03*
G01X20144613Y-8098599D03*
G01X20444587Y-8098599D03*
G01X20444587Y-7598600D03*
G01X20144613Y-7598600D03*
G01X18125313Y-8098599D03*
G01X18425287Y-8098599D03*
G01X18425287Y-7598600D03*
G01X18125313Y-7598600D03*
G01X16207613Y-8098599D03*
G01X16507587Y-8098599D03*
G01X16507587Y-7598600D03*
G01X16207613Y-7598600D03*
G01X14239113Y-8098599D03*
G01X14539087Y-8098599D03*
G01X14539087Y-7598600D03*
G01X14239113Y-7598600D03*
G01X12257913Y-8098599D03*
G01X12557887Y-8098599D03*
G01X12557887Y-7598600D03*
G01X12257913Y-7598600D03*
G01X10302113Y-8098599D03*
G01X10602087Y-8098599D03*
G01X10602087Y-7598600D03*
G01X10302113Y-7598600D03*
G01X8333613Y-8098599D03*
G01X8633587Y-8098599D03*
G01X8633587Y-7598600D03*
G01X8333613Y-7598600D03*
G01X20144613Y-6028499D03*
G01X20444587Y-6028499D03*
G01X20444587Y-5528500D03*
G01X20144613Y-5528500D03*
G01X18125313Y-6028499D03*
G01X18425287Y-6028499D03*
G01X18425287Y-5528500D03*
G01X18125313Y-5528500D03*
G01X16093313Y-6028499D03*
G01X16393287Y-6028499D03*
G01X16393287Y-5528500D03*
G01X16093313Y-5528500D03*
G01X14124813Y-6028499D03*
G01X14424787Y-6028499D03*
G01X14424787Y-5528500D03*
G01X14124813Y-5528500D03*
G01X12156313Y-6028499D03*
G01X12456287Y-6028499D03*
G01X12456287Y-5528500D03*
G01X12156313Y-5528500D03*
G01X10251313Y-6028499D03*
G01X10551287Y-6028499D03*
G01X10551287Y-5528500D03*
G01X10251313Y-5528500D03*
G01X8333613Y-6028499D03*
G01X8633587Y-6028499D03*
G01X8633587Y-5528500D03*
G01X8333613Y-5528500D03*
G54D31*
G01X5215204Y-5143500D03*
G01X5215204Y-5270500D03*
G01X5215204Y-5397500D03*
G01X5215204Y-5524500D03*
G01X5215204Y-5651500D03*
G01X5215204Y-5778500D03*
G01X5215204Y-5905500D03*
G01X5215204Y-6032500D03*
G01X5215204Y-6159500D03*
G01X5215204Y-6286500D03*
G01X5215204Y-6413500D03*
G01X5215204Y-6540500D03*
G01X6163996Y-5143500D03*
G01X6163996Y-5270500D03*
G01X6163996Y-5397500D03*
G01X6163996Y-5524500D03*
G01X6163996Y-5651500D03*
G01X6163996Y-5778500D03*
G01X6163996Y-5905500D03*
G01X6163996Y-6032500D03*
G01X6163996Y-6159500D03*
G01X6163996Y-6286500D03*
G01X6163996Y-6413500D03*
G01X6163996Y-6540500D03*
G54D37*
G01X4695292Y-5588000D03*
G01X4804308Y-5588000D03*
G54D23*
G01X1238402Y-6959600D03*
G01X1098398Y-6959600D03*
G54D38*
G01X4635500Y-4316400D03*
G01X4635500Y-4116400D03*
G54D24*
G01X5524500Y-4654702D03*
G01X5524500Y-4514698D03*
G54D23*
G01X7143902Y-2781300D03*
G01X7003898Y-2781300D03*
G01X6534302Y-4927600D03*
G01X6394298Y-4927600D03*
G01X6660998Y-6057900D03*
G01X6801002Y-6057900D03*
G54D28*
G01X9702102Y-4461700D03*
G01X11202099Y-4461700D03*
G01X9702102Y-4961699D03*
G01X11202099Y-4961699D03*
G01X7733602Y-4461700D03*
G01X9233599Y-4461700D03*
G01X7733602Y-4961699D03*
G01X9233599Y-4961699D03*
G01X19608102Y-12742100D03*
G01X21108099Y-12742100D03*
G01X19608102Y-13242099D03*
G01X21108099Y-13242099D03*
G01X17639602Y-12742100D03*
G01X19139599Y-12742100D03*
G01X17639602Y-13242099D03*
G01X19139599Y-13242099D03*
G01X15671102Y-12742100D03*
G01X17171099Y-12742100D03*
G01X15671102Y-13242099D03*
G01X17171099Y-13242099D03*
G01X13702602Y-12742100D03*
G01X15202599Y-12742100D03*
G01X13702602Y-13242099D03*
G01X15202599Y-13242099D03*
G01X11734102Y-12742100D03*
G01X13234099Y-12742100D03*
G01X11734102Y-13242099D03*
G01X13234099Y-13242099D03*
G01X9765602Y-12742100D03*
G01X11265599Y-12742100D03*
G01X9765602Y-13242099D03*
G01X11265599Y-13242099D03*
G01X7797102Y-12742100D03*
G01X9297099Y-12742100D03*
G01X7797102Y-13242099D03*
G01X9297099Y-13242099D03*
G01X19557302Y-10672000D03*
G01X21057299Y-10672000D03*
G01X19557302Y-11171999D03*
G01X21057299Y-11171999D03*
G01X17588802Y-10672000D03*
G01X19088799Y-10672000D03*
G01X17588802Y-11171999D03*
G01X19088799Y-11171999D03*
G01X15620302Y-10672000D03*
G01X17120299Y-10672000D03*
G01X15620302Y-11171999D03*
G01X17120299Y-11171999D03*
G01X13651802Y-10672000D03*
G01X15151799Y-10672000D03*
G01X13651802Y-11171999D03*
G01X15151799Y-11171999D03*
G01X11696002Y-10672000D03*
G01X13195999Y-10672000D03*
G01X11696002Y-11171999D03*
G01X13195999Y-11171999D03*
G01X9740202Y-10672000D03*
G01X11240199Y-10672000D03*
G01X9740202Y-11171999D03*
G01X11240199Y-11171999D03*
G01X7771702Y-10672000D03*
G01X9271699Y-10672000D03*
G01X7771702Y-11171999D03*
G01X9271699Y-11171999D03*
G01X19570002Y-8601900D03*
G01X21069999Y-8601900D03*
G01X19570002Y-9101899D03*
G01X21069999Y-9101899D03*
G01X17601502Y-8601900D03*
G01X19101499Y-8601900D03*
G01X17601502Y-9101899D03*
G01X19101499Y-9101899D03*
G01X15633002Y-8601900D03*
G01X17132999Y-8601900D03*
G01X15633002Y-9101899D03*
G01X17132999Y-9101899D03*
G01X13664502Y-8601900D03*
G01X15164499Y-8601900D03*
G01X13664502Y-9101899D03*
G01X15164499Y-9101899D03*
G01X11696002Y-8601900D03*
G01X13195999Y-8601900D03*
G01X11696002Y-9101899D03*
G01X13195999Y-9101899D03*
G01X9727502Y-8601900D03*
G01X11227499Y-8601900D03*
G01X9727502Y-9101899D03*
G01X11227499Y-9101899D03*
G01X7759002Y-8601900D03*
G01X9258999Y-8601900D03*
G01X7759002Y-9101899D03*
G01X9258999Y-9101899D03*
G01X7797102Y-14812200D03*
G01X9297099Y-14812200D03*
G01X7797102Y-15312199D03*
G01X9297099Y-15312199D03*
G01X9765602Y-14799500D03*
G01X11265599Y-14799500D03*
G01X9765602Y-15299499D03*
G01X11265599Y-15299499D03*
G01X11734102Y-14812200D03*
G01X13234099Y-14812200D03*
G01X11734102Y-15312199D03*
G01X13234099Y-15312199D03*
G01X13702602Y-14812200D03*
G01X15202599Y-14812200D03*
G01X13702602Y-15312199D03*
G01X15202599Y-15312199D03*
G01X15671102Y-14812200D03*
G01X17171099Y-14812200D03*
G01X15671102Y-15312199D03*
G01X17171099Y-15312199D03*
G01X17639602Y-14812200D03*
G01X19139599Y-14812200D03*
G01X17639602Y-15312199D03*
G01X19139599Y-15312199D03*
G01X19608102Y-14812200D03*
G01X21108099Y-14812200D03*
G01X19608102Y-15312199D03*
G01X21108099Y-15312199D03*
G01X19544602Y-6531800D03*
G01X21044599Y-6531800D03*
G01X19544602Y-7031799D03*
G01X21044599Y-7031799D03*
G01X17576102Y-6531800D03*
G01X19076099Y-6531800D03*
G01X17576102Y-7031799D03*
G01X19076099Y-7031799D03*
G01X15607602Y-6531800D03*
G01X17107599Y-6531800D03*
G01X15607602Y-7031799D03*
G01X17107599Y-7031799D03*
G01X13639102Y-6531800D03*
G01X15139099Y-6531800D03*
G01X13639102Y-7031799D03*
G01X15139099Y-7031799D03*
G01X11670602Y-6531800D03*
G01X13170599Y-6531800D03*
G01X11670602Y-7031799D03*
G01X13170599Y-7031799D03*
G01X9702102Y-6531800D03*
G01X11202099Y-6531800D03*
G01X9702102Y-7031799D03*
G01X11202099Y-7031799D03*
G01X7733602Y-6531800D03*
G01X9233599Y-6531800D03*
G01X7733602Y-7031799D03*
G01X9233599Y-7031799D03*
G01X19544602Y-4461700D03*
G01X21044599Y-4461700D03*
G01X19544602Y-4961699D03*
G01X21044599Y-4961699D03*
G01X17576102Y-4461700D03*
G01X19076099Y-4461700D03*
G01X17576102Y-4961699D03*
G01X19076099Y-4961699D03*
G01X15607602Y-4461700D03*
G01X17107599Y-4461700D03*
G01X15607602Y-4961699D03*
G01X17107599Y-4961699D03*
G01X11670602Y-4461700D03*
G01X13170599Y-4461700D03*
G01X11670602Y-4961699D03*
G01X13170599Y-4961699D03*
G01X13639102Y-4461700D03*
G01X15139099Y-4461700D03*
G01X13639102Y-4961699D03*
G01X15139099Y-4961699D03*
G54D33*
G01X7427900Y-15201900D03*
G01X7227900Y-15201900D03*
G01X7402500Y-13233400D03*
G01X7202500Y-13233400D03*
G01X7466000Y-10922000D03*
G01X7266000Y-10922000D03*
G01X7415200Y-8788400D03*
G01X7215200Y-8788400D03*
G54D32*
G01X7378700Y-6996100D03*
G01X7378700Y-6796100D03*
G54D33*
G01X8951900Y-3924300D03*
G01X8751900Y-3924300D03*
G01X7235941Y-5500559D03*
G01X7035941Y-5500559D03*
G54D32*
G01X20345400Y-3176600D03*
G01X20345400Y-3376600D03*
G01X20040600Y-3176600D03*
G01X20040600Y-3376600D03*
G01X20256500Y-2287600D03*
G01X20256500Y-2487600D03*
G01X20046950Y-2281250D03*
G01X20046950Y-2481250D03*
G01X18173700Y-3176600D03*
G01X18173700Y-3376600D03*
G01X17894300Y-3176600D03*
G01X17894300Y-3376600D03*
G01X18186400Y-2287600D03*
G01X18186400Y-2487600D03*
G01X17900650Y-2281250D03*
G01X17900650Y-2481250D03*
G01X14058900Y-3176600D03*
G01X14058900Y-3376600D03*
G01X13728700Y-3176600D03*
G01X13728700Y-3376600D03*
G01X14058900Y-2287600D03*
G01X14058900Y-2487600D03*
G01X13728700Y-2287600D03*
G01X13728700Y-2487600D03*
G01X11976100Y-3389300D03*
G01X11976100Y-3189300D03*
G01X11671300Y-3189300D03*
G01X11671300Y-3389300D03*
G01X11976100Y-2500300D03*
G01X11976100Y-2300300D03*
G01X11671300Y-2300300D03*
G01X11671300Y-2500300D03*
G01X16230600Y-3189300D03*
G01X16230600Y-3389300D03*
G01X15913100Y-3189300D03*
G01X15913100Y-3389300D03*
G01X16230600Y-2287600D03*
G01X16230600Y-2487600D03*
G01X15913100Y-2287600D03*
G01X15913100Y-2487600D03*
G01X9804400Y-3376600D03*
G01X9804400Y-3176600D03*
G01X9486900Y-3176600D03*
G01X9486900Y-3376600D03*
G01X9804400Y-2287600D03*
G01X9804400Y-2487600D03*
G01X9499600Y-2287600D03*
G01X9499600Y-2487600D03*
G54D39*
G01X1180808Y-2298700D03*
G01X1714792Y-2298700D03*
G54D23*
G01X6940398Y-6515100D03*
G01X7080402Y-6515100D03*
G01X1505102Y-2908300D03*
G01X1365098Y-2908300D03*
G01X19043498Y-2425700D03*
G01X19183502Y-2425700D03*
G01X14915998Y-2438400D03*
G01X15056002Y-2438400D03*
G01X10686898Y-2451100D03*
G01X10826902Y-2451100D03*
G01X20605598Y-2578100D03*
G01X20745602Y-2578100D03*
G01X20605598Y-3276600D03*
G01X20745602Y-3276600D03*
G01X17621402Y-3276600D03*
G01X17481398Y-3276600D03*
G01X17621402Y-2590800D03*
G01X17481398Y-2590800D03*
G01X13430402Y-3289300D03*
G01X13290398Y-3289300D03*
G01X13430402Y-2590800D03*
G01X13290398Y-2590800D03*
G01X12439802Y-3289300D03*
G01X12299798Y-3289300D03*
G01X12299798Y-2400300D03*
G01X12439802Y-2400300D03*
G01X16528898Y-2590749D03*
G01X16668902Y-2590749D03*
G01X16528898Y-3276549D03*
G01X16668902Y-3276549D03*
G01X9214002Y-3276600D03*
G01X9073998Y-3276600D03*
G01X9214002Y-2413000D03*
G01X9073998Y-2413000D03*
G01X1263802Y-7797800D03*
G01X1123798Y-7797800D03*
G01X5772302Y-4965700D03*
G01X5632298Y-4965700D03*
G01X5823102Y-9220200D03*
G01X5683098Y-9220200D03*
G01X11512702Y-5791200D03*
G01X11372698Y-5791200D03*
G01X17494402Y-14046200D03*
G01X17354398Y-14046200D03*
G01X19424802Y-13995400D03*
G01X19284798Y-13995400D03*
G01X7677302Y-16103600D03*
G01X7537298Y-16103600D03*
G01X9648075Y-16103604D03*
G01X9508071Y-16103604D03*
G01X11603875Y-16103604D03*
G01X11463871Y-16103604D03*
G01X13597775Y-16129004D03*
G01X13457771Y-16129004D03*
G01X15566275Y-16103604D03*
G01X15426271Y-16103604D03*
G01X17547475Y-16141704D03*
G01X17407471Y-16141704D03*
G01X19424797Y-16141704D03*
G01X19284793Y-16141704D03*
G54D24*
G01X19456396Y-1251097D03*
G01X19456396Y-1111093D03*
G54D23*
G01X6927997Y-13030200D03*
G01X6787993Y-13030200D03*
G04 Pad End*

G04 Via Start*
G54D40*
G01X9502013Y-9846500D03*
G01X9375013Y-9973500D03*
G01X19827113Y-13986700D03*
G01X19217513Y-14189900D03*
G01X19611213Y-8005000D03*
G01X19339814Y-8098599D03*
G01X17541113Y-9846500D03*
G01X17312513Y-10075100D03*
G01X8536813Y-11637200D03*
G01X8714613Y-11459400D03*
G01X17833213Y-11434000D03*
G01X18900013Y-11637200D03*
G01X10518013Y-9541700D03*
G01X15064613Y-8881300D03*
G01X20220813Y-8220900D03*
G01X20424013Y-8220900D03*
G01X8562213Y-13732700D03*
G01X8765413Y-13529500D03*
G01X17477613Y-13453300D03*
G01X20444587Y-12721526D03*
G01X15559913Y-12119800D03*
G01X15415514Y-12238799D03*
G01X15598013Y-9871900D03*
G01X15369413Y-10100500D03*
G01X11508613Y-9821100D03*
G01X11305413Y-10024300D03*
G01X4241800Y-2198700D03*
G01X4851400Y-4521200D03*
G01X10543413Y-1451673D03*
G01X10019084Y-1409700D03*
G01X10225913Y-707199D03*
G01X10683113Y-735948D03*
G01X6949313Y-12069000D03*
G01X7330313Y-9402000D03*
G01X7355713Y-7116000D03*
G01X9362313Y-3407600D03*
G01X18796000Y-1466698D03*
G01X19151600Y-1441298D03*
G01X6657213Y-12869100D03*
G01X7177786Y-12996100D03*
G01X4533900Y-2489200D03*
G01X4300614Y-1275397D03*
G01X18580100Y-2846095D03*
G01X18376900Y-2642895D03*
G01X18997651Y-2882900D03*
G01X19099251Y-2781300D03*
G01X20535900Y-2490800D03*
G01X20605598Y-2814498D03*
G01X13940998Y-2082998D03*
G01X13636198Y-2590998D03*
G01X16493698Y-3098998D03*
G01X17979598Y-2070298D03*
G01X10071100Y-2894305D03*
G01X16040100Y-2487905D03*
G01X11871604Y-2300300D03*
G01X14503400Y-2973095D03*
G01X14579600Y-2820695D03*
G01X14224000Y-2970505D03*
G01X10440949Y-3365500D03*
G01X9958349Y-3644900D03*
G01X7113600Y-4927600D03*
G01X6631000Y-4927600D03*
G01X6326200Y-4800600D03*
G01X7481900Y-6896100D03*
G01X7227900Y-7277100D03*
G01X7418400Y-9347200D03*
G01X6605600Y-9220200D03*
G01X7266000Y-9525000D03*
G01X5619902Y-10693400D03*
G01X5391302Y-10922000D03*
G01X5066602Y-12949999D03*
G01X5320602Y-13203999D03*
G01X1661401Y-12199099D03*
G01X4903800Y-5613400D03*
G01X6972300Y-2946400D03*
G01X6692900Y-3886200D03*
G01X7073900Y-5969000D03*
G01X7099300Y-6400800D03*
G01X20650196Y-9010493D03*
G01X20650196Y-9188293D03*
G01X20469987Y-1561274D03*
G01X20469987Y-1739074D03*
G01X5367604Y-6083300D03*
G01X7501204Y-4965700D03*
G01X5367604Y-5956300D03*
G01X7171004Y-6565900D03*
G01X6713804Y-8089900D03*
G01X7298004Y-8674100D03*
G01X8339404Y-8928100D03*
G01X5672404Y-7581900D03*
G01X5596204Y-7962900D03*
G01X6713804Y-8928100D03*
G01X6942404Y-9105900D03*
G01X6713804Y-12433300D03*
G01X7310704Y-13309600D03*
G01X5139004Y-12103100D03*
G01X5901004Y-14795500D03*
G01X5042599Y-5545899D03*
G01X5079009Y-5321300D03*
G01X4750499Y-6803199D03*
G01X5715699Y-6320599D03*
G01X5169599Y-13953299D03*
G01X5986196Y-5897702D03*
G01X6236399Y-13305599D03*
G01X6464999Y-5863399D03*
G01X6287199Y-11527599D03*
G01X6312599Y-5837999D03*
G01X6896799Y-8784399D03*
G01X6337999Y-5964999D03*
G01X4368800Y-2679700D03*
G01X8737600Y-3035300D03*
G01X5613400Y-3430600D03*
G01X6197600Y-3481400D03*
G01X3479800Y-2795600D03*
G01X13030200Y-3024200D03*
G01X3708400Y-2719400D03*
G01X15379700Y-3189300D03*
G01X2870200Y-3276600D03*
G01X6299200Y-3632200D03*
G01X3898900Y-2654300D03*
G01X19432600Y-3176600D03*
G01X6007095Y-6217399D03*
G01X6007095Y-6331699D03*
G01X11671300Y-2805100D03*
G01X11671300Y-2957500D03*
G01X6394298Y-4387698D03*
G01X6343498Y-4590898D03*
G01X14677598Y-695099D03*
G01X15617398Y-733199D03*
G01X6713804Y-6379108D03*
G01X6917004Y-6607708D03*
G01X7780604Y-5820308D03*
G01X5189804Y-6718300D03*
G01X5189804Y-7048500D03*
G01X5151704Y-7962900D03*
G01X18456699Y-1430998D03*
G01X18685299Y-1380198D03*
G01X20341798Y-1527099D03*
G01X9406204Y-5667908D03*
G01X11588902Y-5791200D03*
G01X11512702Y-7518400D03*
G01X17481702Y-7912100D03*
G01X17456302Y-9537700D03*
G01X19005702Y-9588500D03*
G01X13595502Y-10007600D03*
G01X13493902Y-11684000D03*
G01X17430902Y-11849100D03*
G01X19069202Y-11709400D03*
G01X11817502Y-11836400D03*
G01X9696602Y-10007600D03*
G01X9569602Y-11836400D03*
G01X8274202Y-11785600D03*
G01X7766202Y-13944600D03*
G01X9658502Y-14135100D03*
G01X9648075Y-15826473D03*
G01X11627002Y-14097000D03*
G01X11603875Y-15826473D03*
G01X7768475Y-16055073D03*
G01X13483475Y-16029673D03*
G01X15464675Y-16004273D03*
G01X17486244Y-16055073D03*
G01X19365844Y-16065504D03*
G01X19501002Y-14008104D03*
G01X2243907Y-12884899D03*
G01X1126307Y-14317993D03*
G01X6667500Y-4368800D03*
G01X5994395Y-6077699D03*
G01X8572500Y-3352800D03*
G01X1905000Y-4533900D03*
G01X3962400Y-3492500D03*
G01X5637200Y-3606800D03*
G01X1981200Y-4622800D03*
G01X3873500Y-4965700D03*
G01X4982896Y-7137400D03*
G01X5080000Y-6235700D03*
G01X5080000Y-6362700D03*
G01X5537200Y-6400800D03*
G01X5435600Y-6426200D03*
G01X5486400Y-7899400D03*
G01X5461000Y-7569200D03*
G01X4978400Y-7645400D03*
G01X5080000Y-7645400D03*
G01X6481496Y-7924800D03*
G01X8310296Y-7035800D03*
G01X9250096Y-8178800D03*
G01X9072296Y-11176000D03*
G01X9275496Y-12446000D03*
G01X9275496Y-14528800D03*
G01X6710096Y-8483600D03*
G01X11028096Y-9093200D03*
G01X11002696Y-7035800D03*
G01X11180496Y-5359400D03*
G01X10621696Y-9347200D03*
G01X11180496Y-10312400D03*
G01X11256696Y-12446000D03*
G01X11256696Y-14528800D03*
G01X6405296Y-8331200D03*
G01X11078896Y-8813800D03*
G01X11231296Y-8813800D03*
G01X11434496Y-9093200D03*
G01X7446696Y-8915400D03*
G01X7726096Y-9347200D03*
G01X11180496Y-10998200D03*
G01X12856896Y-7289800D03*
G01X13161696Y-5435600D03*
G01X12653696Y-11099800D03*
G01X12907696Y-12446000D03*
G01X13212496Y-14528800D03*
G01X6710096Y-8788400D03*
G01X9461995Y-9101899D03*
G01X15139099Y-8174596D03*
G01X15139099Y-7285596D03*
G01X15139099Y-5329796D03*
G01X15151799Y-10384396D03*
G01X15202599Y-12441796D03*
G01X15202599Y-14549996D03*
G01X6710096Y-9017000D03*
G01X13406996Y-9101899D03*
G01X17115396Y-9330499D03*
G01X17115396Y-10371899D03*
G01X17293196Y-7095299D03*
G01X17166196Y-12454699D03*
G01X17166196Y-14537499D03*
G01X6710096Y-9118600D03*
G01X14930996Y-9000299D03*
G01X19076099Y-8766797D03*
G01X19279299Y-7090397D03*
G01X19088799Y-9897097D03*
G01X19139599Y-12335497D03*
G01X19114199Y-13961097D03*
G01X6456096Y-9093200D03*
G01X15151595Y-8873299D03*
G01X20129995Y-8746299D03*
G01X20637995Y-9101899D03*
G01X15062200Y-2971800D03*
G01X17983200Y-2743200D03*
G01X11252200Y-3263900D03*
G01X4876800Y-3898900D03*
G54D41*
G01X15236012Y-1659459D03*
G01X14909800Y-1397000D03*
G01X18453100Y-2044700D03*
G01X18224500Y-2044700D03*
G01X15684500Y-1676400D03*
G01X14617700Y-1689100D03*
G01X6769100Y-13157200D03*
G04 Via End*

G04 Track Start*
G54D42*
G01X2966644Y-1879600D02*
G01X4051300Y-1879600D01*
G01X5676900Y-2768600D02*
G01X5721801Y-2813501D01*
G01X5721801Y-3842201D01*
G01X6845300Y-4965700D01*
G01X6845300Y-6013602D01*
G01X6801002Y-6057900D01*
G01X4051300Y-1879600D02*
G01X4940300Y-2768600D01*
G01X7257898Y-6057900D02*
G01X7274542Y-6041255D01*
G01X7274542Y-5851896D02*
G01X7302068Y-5824370D01*
G01X7491428Y-5824370D01*
G01X7638898Y-5676900D01*
G01X7714299Y-5957759D02*
G01X8262873Y-5957759D01*
G01X8333613Y-6028499D01*
G01X8633587Y-5528500D02*
G01X9128798Y-5528500D01*
G01X9391498Y-5791200D01*
G01X9628797Y-6028499D02*
G01X10251313Y-6028499D01*
G01X9391498Y-5791200D02*
G01X9444512Y-5844215D01*
G01X9444512Y-5855664D01*
G01X9472039Y-5883190D01*
G01X9483488Y-5883190D01*
G01X9628797Y-6028499D01*
G01X10551287Y-5528500D02*
G01X11109998Y-5528500D01*
G01X11372698Y-5791200D01*
G01X11609997Y-6028499D02*
G01X12156313Y-6028499D01*
G01X11372698Y-5791200D02*
G01X11425712Y-5844215D01*
G01X11425712Y-5855664D01*
G01X11453239Y-5883190D01*
G01X11464688Y-5883190D01*
G01X11609997Y-6028499D01*
G01X12456287Y-5528500D02*
G01X13053098Y-5528500D01*
G01X13315798Y-5791200D01*
G01X13553097Y-6028499D02*
G01X14124813Y-6028499D01*
G01X13315798Y-5791200D02*
G01X13368812Y-5844215D01*
G01X13368812Y-5855664D01*
G01X13396339Y-5883190D01*
G01X13407788Y-5883190D01*
G01X13553097Y-6028499D01*
G01X14424787Y-5528500D02*
G01X14996198Y-5528500D01*
G01X15271598Y-5803900D01*
G01X15496197Y-6028499D02*
G01X16093313Y-6028499D01*
G01X15271598Y-5803900D02*
G01X15324612Y-5856915D01*
G01X15324612Y-5868364D01*
G01X15352139Y-5895890D01*
G01X15363588Y-5895890D01*
G01X15496197Y-6028499D01*
G01X16393287Y-5528500D02*
G01X17104398Y-5528500D01*
G01X17278198Y-5702300D01*
G01X17604397Y-6028499D02*
G01X18125313Y-6028499D01*
G01X17278198Y-5702300D02*
G01X17331212Y-5755315D01*
G01X17331212Y-5766764D01*
G01X17358739Y-5794290D01*
G01X17370188Y-5794290D01*
G01X17604397Y-6028499D01*
G01X18425287Y-5528500D02*
G01X18996698Y-5528500D01*
G01X19246698Y-5778500D01*
G01X19496697Y-6028499D02*
G01X20144613Y-6028499D01*
G01X19246698Y-5778500D02*
G01X19299712Y-5831515D01*
G01X19299712Y-5842964D01*
G01X19327239Y-5870490D01*
G01X19338688Y-5870490D01*
G01X19496697Y-6028499D01*
G01X8633587Y-7598600D02*
G01X9204998Y-7598600D01*
G01X9429598Y-7823200D01*
G01X9704997Y-8098599D02*
G01X10302113Y-8098599D01*
G01X9429598Y-7823200D02*
G01X9482612Y-7876215D01*
G01X9482612Y-7887664D01*
G01X9510139Y-7915190D01*
G01X9521588Y-7915190D01*
G01X9704997Y-8098599D01*
G01X10602087Y-7598600D02*
G01X11186198Y-7598600D01*
G01X11372698Y-7785100D01*
G01X11686197Y-8098599D02*
G01X12257913Y-8098599D01*
G01X11372698Y-7785100D02*
G01X11425712Y-7838115D01*
G01X11425712Y-7849564D01*
G01X11453239Y-7877090D01*
G01X11464688Y-7877090D01*
G01X11686197Y-8098599D01*
G01X12557887Y-7598600D02*
G01X13129298Y-7598600D01*
G01X13341198Y-7810500D01*
G01X13629297Y-8098599D02*
G01X14239113Y-8098599D01*
G01X13341198Y-7810500D02*
G01X13394212Y-7863515D01*
G01X13394212Y-7874964D01*
G01X13421739Y-7902490D01*
G01X13433188Y-7902490D01*
G01X13629297Y-8098599D01*
G01X14539087Y-7598600D02*
G01X15148598Y-7598600D01*
G01X15347798Y-7797800D01*
G01X15648597Y-8098599D02*
G01X16207613Y-8098599D01*
G01X15347798Y-7797800D02*
G01X15400812Y-7850815D01*
G01X15400812Y-7862264D01*
G01X15428339Y-7889790D01*
G01X15439788Y-7889790D01*
G01X15648597Y-8098599D01*
G01X16507587Y-7598600D02*
G01X17002798Y-7598600D01*
G01X17265498Y-7861300D01*
G01X17502797Y-8098599D02*
G01X18125313Y-8098599D01*
G01X17265498Y-7861300D02*
G01X17318512Y-7914315D01*
G01X17318512Y-7925764D01*
G01X17346039Y-7953290D01*
G01X17357488Y-7953290D01*
G01X17502797Y-8098599D01*
G01X18425287Y-7598600D02*
G01X18971298Y-7598600D01*
G01X19221298Y-7848600D01*
G01X19471297Y-8098599D02*
G01X20144613Y-8098599D01*
G01X19221298Y-7848600D02*
G01X19274312Y-7901615D01*
G01X19274312Y-7913064D01*
G01X19301839Y-7940590D01*
G01X19313288Y-7940590D01*
G01X19471297Y-8098599D01*
G01X20332700Y-7340600D02*
G01X20287799Y-7385501D01*
G01X7924800Y-7385501D02*
G01X7879899Y-7430403D01*
G01X7879899Y-7670285D01*
G01X8308213Y-8098599D01*
G01X20444587Y-5528500D02*
G01X20444587Y-5604700D01*
G01X8308213Y-8098599D02*
G01X8333613Y-8098599D01*
G01X20444587Y-7660513D02*
G01X20444587Y-7598600D01*
G01X20320000Y-7785100D02*
G01X20444587Y-7660513D01*
G01X7664298Y-9880600D02*
G01X7717312Y-9827585D01*
G01X7717312Y-9816136D01*
G01X7744839Y-9788610D01*
G01X7756288Y-9788610D01*
G01X8108798Y-9436100D01*
G01X7952397Y-10168699D02*
G01X8384413Y-10168699D01*
G01X7664298Y-9880600D02*
G01X7717312Y-9933615D01*
G01X7717312Y-9945064D01*
G01X7744839Y-9972590D01*
G01X7756288Y-9972590D01*
G01X7952397Y-10168699D01*
G01X8684387Y-9668700D02*
G01X9192298Y-9668700D01*
G01X9480398Y-9956800D01*
G01X9692297Y-10168699D02*
G01X10365613Y-10168699D01*
G01X9480398Y-9956800D02*
G01X9533412Y-10009815D01*
G01X9533412Y-10021264D01*
G01X9560939Y-10048790D01*
G01X9572388Y-10048790D01*
G01X9692297Y-10168699D01*
G01X10665587Y-9668700D02*
G01X11122698Y-9668700D01*
G01X11372698Y-9918700D01*
G01X11622697Y-10168699D02*
G01X12296013Y-10168699D01*
G01X11372698Y-9918700D02*
G01X11425712Y-9971715D01*
G01X11425712Y-9983164D01*
G01X11453239Y-10010690D01*
G01X11464688Y-10010690D01*
G01X11622697Y-10168699D01*
G01X12595987Y-9668700D02*
G01X13091198Y-9668700D01*
G01X13379298Y-9956800D01*
G01X13591197Y-10168699D02*
G01X14277213Y-10168699D01*
G01X13379298Y-9956800D02*
G01X13432312Y-10009815D01*
G01X13432312Y-10021264D01*
G01X13459839Y-10048790D01*
G01X13471288Y-10048790D01*
G01X13591197Y-10168699D01*
G01X14577187Y-9668700D02*
G01X15085098Y-9668700D01*
G01X15360498Y-9944100D01*
G01X15585097Y-10168699D02*
G01X16207613Y-10168699D01*
G01X15360498Y-9944100D02*
G01X15413512Y-9997115D01*
G01X15413512Y-10008564D01*
G01X15441039Y-10036090D01*
G01X15452488Y-10036090D01*
G01X15585097Y-10168699D01*
G01X16507587Y-9668700D02*
G01X17040898Y-9668700D01*
G01X17303598Y-9931400D01*
G01X17540897Y-10168699D02*
G01X18176113Y-10168699D01*
G01X17303598Y-9931400D02*
G01X17356612Y-9984415D01*
G01X17356612Y-9995864D01*
G01X17384139Y-10023390D01*
G01X17395588Y-10023390D01*
G01X17540897Y-10168699D01*
G01X18476087Y-9668700D02*
G01X18983998Y-9668700D01*
G01X19259398Y-9944100D01*
G01X19483997Y-10168699D02*
G01X20144613Y-10168699D01*
G01X19259398Y-9944100D02*
G01X19312412Y-9997115D01*
G01X19312412Y-10008564D01*
G01X19339939Y-10036090D01*
G01X19351388Y-10036090D01*
G01X19483997Y-10168699D01*
G01X20236999Y-11551101D02*
G01X20281900Y-11506200D01*
G01X7785100Y-11766398D02*
G01X7785100Y-11551101D01*
G01X7626198Y-11925300D02*
G01X7679212Y-11872285D01*
G01X7679212Y-11860836D01*
G01X7706739Y-11833310D01*
G01X7718188Y-11833310D01*
G01X7785100Y-11766398D01*
G01X7939697Y-12238799D02*
G01X8384413Y-12238799D01*
G01X7626198Y-11925300D02*
G01X7679212Y-11978315D01*
G01X7679212Y-11989764D01*
G01X7706739Y-12017290D01*
G01X7718188Y-12017290D01*
G01X7939697Y-12238799D01*
G01X8684387Y-11738800D02*
G01X9179598Y-11738800D01*
G01X9429598Y-11988800D01*
G01X9679597Y-12238799D02*
G01X10352913Y-12238799D01*
G01X9429598Y-11988800D02*
G01X9482612Y-12041815D01*
G01X9482612Y-12053264D01*
G01X9510139Y-12080790D01*
G01X9521588Y-12080790D01*
G01X9679597Y-12238799D01*
G01X10652887Y-11738800D02*
G01X11109998Y-11738800D01*
G01X11334598Y-11963400D01*
G01X11609997Y-12238799D02*
G01X12283313Y-12238799D01*
G01X11334598Y-11963400D02*
G01X11387612Y-12016415D01*
G01X11387612Y-12027864D01*
G01X11415139Y-12055390D01*
G01X11426588Y-12055390D01*
G01X11609997Y-12238799D01*
G01X12583287Y-11738800D02*
G01X13103898Y-11738800D01*
G01X13341198Y-11976100D01*
G01X13603897Y-12238799D02*
G01X14277213Y-12238799D01*
G01X13341198Y-11976100D02*
G01X13394212Y-12029115D01*
G01X13394212Y-12040564D01*
G01X13421739Y-12068090D01*
G01X13433188Y-12068090D01*
G01X13603897Y-12238799D01*
G01X14577187Y-11738800D02*
G01X15046998Y-11738800D01*
G01X15309698Y-12001500D01*
G01X15546997Y-12238799D02*
G01X16245713Y-12238799D01*
G01X15309698Y-12001500D02*
G01X15362712Y-12054515D01*
G01X15362712Y-12065964D01*
G01X15390239Y-12093490D01*
G01X15401688Y-12093490D01*
G01X15546997Y-12238799D01*
G01X16545687Y-11738800D02*
G01X17028198Y-11738800D01*
G01X17290898Y-12001500D01*
G01X17528197Y-12238799D02*
G01X18176113Y-12238799D01*
G01X17290898Y-12001500D02*
G01X17343912Y-12054515D01*
G01X17343912Y-12065964D01*
G01X17371439Y-12093490D01*
G01X17382888Y-12093490D01*
G01X17528197Y-12238799D01*
G01X18476087Y-11738800D02*
G01X18958598Y-11738800D01*
G01X19208598Y-11988800D01*
G01X19458597Y-12238799D02*
G01X20144613Y-12238799D01*
G01X19208598Y-11988800D02*
G01X19261612Y-12041815D01*
G01X19261612Y-12053264D01*
G01X19289139Y-12080790D01*
G01X19300588Y-12080790D01*
G01X19458597Y-12238799D01*
G01X20417600Y-11738800D02*
G01X20444587Y-11738800D01*
G01X20307300Y-11849100D02*
G01X20417600Y-11738800D01*
G01X20262399Y-13633901D02*
G01X20307300Y-13589000D01*
G01X7774597Y-14308899D02*
G01X8384413Y-14308899D01*
G01X7613498Y-14147800D02*
G01X7666512Y-14200815D01*
G01X7666512Y-14212264D01*
G01X7694039Y-14239790D01*
G01X7705488Y-14239790D01*
G01X7774597Y-14308899D01*
G01X7613498Y-14147800D02*
G01X7613498Y-13957904D01*
G01X7937500Y-13633901D01*
G01X8684387Y-13808900D02*
G01X9204998Y-13808900D01*
G01X9454998Y-14058900D01*
G01X9704997Y-14308899D02*
G01X10352913Y-14308899D01*
G01X9454998Y-14058900D02*
G01X9508012Y-14111915D01*
G01X9508012Y-14123364D01*
G01X9535539Y-14150890D01*
G01X9546988Y-14150890D01*
G01X9704997Y-14308899D01*
G01X10652887Y-13808900D02*
G01X11198898Y-13808900D01*
G01X11410798Y-14020800D01*
G01X11698897Y-14308899D02*
G01X12283313Y-14308899D01*
G01X11410798Y-14020800D02*
G01X11463812Y-14073815D01*
G01X11463812Y-14085264D01*
G01X11491339Y-14112790D01*
G01X11502788Y-14112790D01*
G01X11698897Y-14308899D01*
G01X12583287Y-13808900D02*
G01X13154698Y-13808900D01*
G01X13353898Y-14008100D01*
G01X13654697Y-14308899D02*
G01X14277213Y-14308899D01*
G01X13353898Y-14008100D02*
G01X13406912Y-14061115D01*
G01X13406912Y-14072564D01*
G01X13434439Y-14100090D01*
G01X13445888Y-14100090D01*
G01X13654697Y-14308899D01*
G01X14577187Y-13808900D02*
G01X15085098Y-13808900D01*
G01X15335098Y-14058900D01*
G01X15585097Y-14308899D02*
G01X16271113Y-14308899D01*
G01X15335098Y-14058900D02*
G01X15388112Y-14111915D01*
G01X15388112Y-14123364D01*
G01X15415639Y-14150890D01*
G01X15427088Y-14150890D01*
G01X15585097Y-14308899D01*
G01X16571087Y-13808900D02*
G01X17117098Y-13808900D01*
G01X17354398Y-14046200D01*
G01X17617097Y-14308899D02*
G01X18188813Y-14308899D01*
G01X17354398Y-14046200D02*
G01X17407412Y-14099215D01*
G01X17407412Y-14110664D01*
G01X17434939Y-14138190D01*
G01X17446388Y-14138190D01*
G01X17617097Y-14308899D01*
G01X18488787Y-13808900D02*
G01X19098298Y-13808900D01*
G01X19284798Y-13995400D01*
G01X19337812Y-14048415D01*
G01X19337812Y-14059864D01*
G01X19365339Y-14087390D01*
G01X19376788Y-14087390D01*
G01X19598297Y-14308899D01*
G01X20275099Y-15678601D02*
G01X20320000Y-15633700D01*
G01X7835900Y-15804998D02*
G01X7835900Y-15678601D01*
G01X7537298Y-16103600D02*
G01X7590312Y-16050585D01*
G01X7590312Y-16039136D01*
G01X7617839Y-16011610D01*
G01X7629288Y-16011610D01*
G01X7835900Y-15804998D01*
G01X7812697Y-16378999D02*
G01X8397113Y-16378999D01*
G01X7537298Y-16103600D02*
G01X7590312Y-16156615D01*
G01X7590312Y-16168064D01*
G01X7617839Y-16195590D01*
G01X7629288Y-16195590D01*
G01X8697087Y-15879000D02*
G01X9283467Y-15879000D01*
G01X9508071Y-16103604D01*
G01X9770766Y-16366299D02*
G01X10365613Y-16366299D01*
G01X9508071Y-16103604D02*
G01X9561085Y-16156619D01*
G01X9561085Y-16168068D01*
G01X9588612Y-16195594D01*
G01X9600060Y-16195594D01*
G01X9770766Y-16366299D01*
G01X10665587Y-15866300D02*
G01X11226567Y-15866300D01*
G01X11463871Y-16103604D01*
G01X11739266Y-16378999D02*
G01X12270613Y-16378999D01*
G01X11463871Y-16103604D02*
G01X11516885Y-16156619D01*
G01X11516885Y-16168068D01*
G01X11544412Y-16195594D01*
G01X11555860Y-16195594D01*
G01X11739266Y-16378999D01*
G01X12570587Y-15879000D02*
G01X13207767Y-15879000D01*
G01X13457771Y-16129004D01*
G01X13707766Y-16378999D02*
G01X14277213Y-16378999D01*
G01X13457771Y-16129004D02*
G01X13510785Y-16182019D01*
G01X13510785Y-16193468D01*
G01X13538312Y-16220994D01*
G01X13549760Y-16220994D01*
G01X13707766Y-16378999D01*
G01X14577187Y-15879000D02*
G01X15201667Y-15879000D01*
G01X15426271Y-16103604D01*
G01X15701666Y-16378999D02*
G01X16271113Y-16378999D01*
G01X15426271Y-16103604D02*
G01X15479285Y-16156619D01*
G01X15479285Y-16168068D01*
G01X15506812Y-16195594D01*
G01X15518260Y-16195594D01*
G01X15701666Y-16378999D01*
G01X16571087Y-15879000D02*
G01X17144767Y-15879000D01*
G01X17407471Y-16141704D01*
G01X17644766Y-16378999D02*
G01X18214213Y-16378999D01*
G01X17407471Y-16141704D02*
G01X17460485Y-16194719D01*
G01X17460485Y-16206168D01*
G01X17488012Y-16233694D01*
G01X17499460Y-16233694D01*
G01X17644766Y-16378999D01*
G01X18514187Y-15879000D02*
G01X19022089Y-15879000D01*
G01X19284793Y-16141704D01*
G01X19522088Y-16378999D02*
G01X20170013Y-16378999D01*
G01X19284793Y-16141704D02*
G01X19337807Y-16194719D01*
G01X19337807Y-16206168D01*
G01X19365334Y-16233694D01*
G01X19376782Y-16233694D01*
G01X19522088Y-16378999D01*
G01X21636800Y-15879000D02*
G01X20469987Y-15879000D01*
G01X21755100Y-15760700D02*
G01X21636800Y-15879000D01*
G01X21755100Y-2857500D02*
G01X21755100Y-15760700D01*
G01X20548600Y-1651000D02*
G01X21755100Y-2857500D01*
G01X20345400Y-1651000D02*
G01X20548600Y-1651000D01*
G01X19805493Y-1111093D02*
G01X20345400Y-1651000D01*
G01X19037206Y-1111093D02*
G01X18963513Y-1037399D01*
G01X19456396Y-1111093D02*
G01X19381248Y-1111093D01*
G01X19332951Y-1159389D01*
G01X19194023Y-1159389D01*
G01X19145726Y-1111093D01*
G01X19037206Y-1111093D01*
G01X18757900Y-1111098D02*
G01X18810915Y-1164112D01*
G01X18822364Y-1164112D01*
G01X18866523Y-1419264D02*
G01X18963513Y-1516254D01*
G01X18963513Y-1824799D01*
G01X18822364Y-1164112D02*
G01X18866523Y-1208272D01*
G01X15316200Y-1136498D02*
G01X15814335Y-1136498D01*
G01X15907424Y-1043409D01*
G01X18866523Y-1919263D02*
G01X18894049Y-1946789D01*
G01X19032977Y-1946789D01*
G01X19060503Y-1919263D01*
G01X19060503Y-1730336D01*
G01X19042253Y-1712086D01*
G01X19042253Y-1437514D01*
G01X19154967Y-1324800D01*
G01X19263487Y-1324800D01*
G01X15907424Y-1043409D02*
G01X18216096Y-1043409D01*
G01X18866523Y-1693836D01*
G01X18866523Y-1919263D01*
G01X14897011Y-1136498D02*
G01X14810613Y-1050099D01*
G01X15316200Y-1136498D02*
G01X15215643Y-1136498D01*
G01X15180051Y-1172089D01*
G01X15041123Y-1172089D01*
G01X15005531Y-1136498D01*
G01X14897011Y-1136498D01*
G01X10492613Y-1837499D02*
G01X10492613Y-1528954D01*
G01X6801002Y-13017190D02*
G01X6787993Y-13030200D01*
G01X6801002Y-6057900D02*
G01X6801002Y-10476743D01*
G01X6649009Y-11367663D02*
G01X6801002Y-11519657D01*
G01X6801002Y-10476743D02*
G01X6649009Y-10628737D01*
G01X6898513Y-12919680D02*
G01X6898513Y-12721399D01*
G01X6841007Y-12977185D02*
G01X6841007Y-12965736D01*
G01X6868534Y-12938210D01*
G01X6879982Y-12938210D01*
G01X6898513Y-12919680D01*
G01X6801002Y-13017190D02*
G01X6841007Y-12977185D01*
G01X1115187Y-13631100D02*
G01X1115187Y-12843789D01*
G01X974488Y-12703090D01*
G01X963039Y-12703090D01*
G01X935512Y-12675564D01*
G01X935512Y-12664115D01*
G01X882498Y-12611100D01*
G01X882498Y-12445784D01*
G01X815213Y-12378499D01*
G01X1881797Y-11878500D02*
G01X2812898Y-10947400D01*
G01X2812898Y-10680484D01*
G01X2745613Y-10613199D01*
G01X11165484Y-1710398D02*
G01X11166899Y-1710398D01*
G01X914108Y-2032000D02*
G01X838200Y-2032000D01*
G01X565087Y-1758886D02*
G01X565087Y-1457808D01*
G01X1806118Y-1757782D02*
G01X1811299Y-1752600D01*
G01X1035088Y-1757782D02*
G01X1806118Y-1757782D01*
G54D43*
G01X8397113Y-15879000D02*
G01X8524113Y-15752000D01*
G01X20309713Y-15752000D01*
G01X20457287Y-15604426D01*
G01X20457287Y-14308899D01*
G01X10365613Y-9668700D02*
G01X9679813Y-9668700D01*
G01X9502013Y-9846500D01*
G01X9375013Y-9973500D02*
G01X8879586Y-9973500D01*
G01X8684387Y-10168699D01*
G01X17290898Y-12001500D02*
G01X16808387Y-12001500D01*
G01X16545687Y-11738800D01*
G01X9454998Y-14058900D02*
G01X8934387Y-14058900D01*
G01X8684387Y-13808900D01*
G01X15271598Y-5803900D02*
G01X14700187Y-5803900D01*
G01X14424787Y-5528500D01*
G01X11334598Y-11963400D02*
G01X10877487Y-11963400D01*
G01X10652887Y-11738800D01*
G01X13315798Y-5791200D02*
G01X12718987Y-5791200D01*
G01X12456287Y-5528500D01*
G01X10352913Y-11738800D02*
G01X10225913Y-11611800D01*
G01X8625713Y-11611800D01*
G01X8600313Y-11637200D01*
G01X8600313Y-12154725D01*
G01X8684387Y-12238799D01*
G01X9508071Y-16103604D02*
G01X8921690Y-16103604D01*
G01X8697087Y-15879000D01*
G01X15347798Y-7797800D02*
G01X14738287Y-7797800D01*
G01X14539087Y-7598600D01*
G01X13353898Y-14008100D02*
G01X12782487Y-14008100D01*
G01X12583287Y-13808900D01*
G01X15360498Y-9944100D02*
G01X14852587Y-9944100D01*
G01X14577187Y-9668700D01*
G01X20157313Y-13808900D02*
G01X20004913Y-13808900D01*
G01X19827113Y-13986700D01*
G01X19217513Y-14189900D02*
G01X18607786Y-14189900D01*
G01X18488787Y-14308899D01*
G01X13341198Y-7810500D02*
G01X12769787Y-7810500D01*
G01X12557887Y-7598600D01*
G01X13457771Y-16129004D02*
G01X12820590Y-16129004D01*
G01X12570587Y-15879000D01*
G01X13379298Y-9956800D02*
G01X12884087Y-9956800D01*
G01X12595987Y-9668700D01*
G01X8232013Y-7996999D02*
G01X8232013Y-7514399D01*
G01X8384413Y-7361999D02*
G01X19509613Y-7361999D01*
G01X20347813Y-5625275D02*
G01X20444587Y-5528500D01*
G01X11372698Y-7785100D02*
G01X10788587Y-7785100D01*
G01X10602087Y-7598600D01*
G01X20144613Y-7598600D02*
G01X20017613Y-7598600D01*
G01X19611213Y-8005000D01*
G01X19339814Y-8098599D02*
G01X18425287Y-8098599D01*
G01X15335098Y-14058900D02*
G01X14827187Y-14058900D01*
G01X14577187Y-13808900D01*
G01X17278198Y-5702300D02*
G01X16567087Y-5702300D01*
G01X16393287Y-5528500D01*
G01X18176113Y-9668700D02*
G01X17718913Y-9668700D01*
G01X17541113Y-9846500D01*
G01X17312513Y-10075100D02*
G01X16601186Y-10075100D01*
G01X16507587Y-10168699D01*
G01X20144613Y-9668700D02*
G01X19992213Y-9516300D01*
G01X18442813Y-9516300D01*
G01X18392013Y-9567100D01*
G01X18392013Y-10084625D01*
G01X18476087Y-10168699D01*
G01X8397113Y-16378999D02*
G01X8143113Y-16124999D01*
G01X8066913Y-16201199D01*
G01X7634897Y-16201199D01*
G01X8143113Y-16124999D02*
G01X8143113Y-15947199D01*
G01X8574913Y-15515399D02*
G01X19700113Y-15515399D01*
G01X20360513Y-14854999D02*
G01X20360513Y-13905675D01*
G01X13341198Y-11976100D02*
G01X12820587Y-11976100D01*
G01X12583287Y-11738800D01*
G01X8384413Y-11738800D02*
G01X8435213Y-11738800D01*
G01X8536813Y-11637200D01*
G01X8714613Y-11459400D02*
G01X17807813Y-11459400D01*
G01X17833213Y-11434000D01*
G01X18900013Y-11637200D02*
G01X18925413Y-11611800D01*
G01X20271613Y-11611800D01*
G01X20444587Y-11438826D01*
G01X20444587Y-10168699D01*
G01X16271113Y-13808900D02*
G01X16372713Y-13910500D01*
G01X16372713Y-14393100D01*
G01X16347313Y-14418500D01*
G01X14686788Y-14418500D01*
G01X14577187Y-14308899D01*
G01X18125313Y-7598600D02*
G01X18226913Y-7700200D01*
G01X18226913Y-8182800D01*
G01X18201513Y-8208200D01*
G01X16617188Y-8208200D01*
G01X16507587Y-8098599D01*
G01X19246698Y-5778500D02*
G01X18675287Y-5778500D01*
G01X18425287Y-5528500D01*
G01X8384413Y-9668700D02*
G01X8536813Y-9516300D01*
G01X10492613Y-9516300D01*
G01X10518013Y-9541700D01*
G01X15064613Y-8881300D02*
G01X15064613Y-8855900D01*
G01X15166213Y-8754300D01*
G01X18569813Y-8754300D01*
G01X19103213Y-8220900D01*
G01X20220813Y-8220900D01*
G01X20424013Y-8220900D02*
G01X20424013Y-8119174D01*
G01X20444587Y-8098599D01*
G01X10365613Y-15866300D02*
G01X10467213Y-15967900D01*
G01X10467213Y-16450500D01*
G01X10441813Y-16475900D01*
G01X8793988Y-16475900D01*
G01X8697087Y-16378999D01*
G01X9429598Y-7823200D02*
G01X8858187Y-7823200D01*
G01X8633587Y-7598600D01*
G01X17407471Y-16141704D02*
G01X16833790Y-16141704D01*
G01X16571087Y-15879000D01*
G01X19221298Y-7848600D02*
G01X18675287Y-7848600D01*
G01X18425287Y-7598600D01*
G01X8333613Y-7598600D02*
G01X8486013Y-7446200D01*
G01X20322413Y-7446200D01*
G01X20444587Y-7324026D01*
G01X20444587Y-6028499D01*
G01X17354398Y-14046200D02*
G01X16808387Y-14046200D01*
G01X16571087Y-13808900D01*
G01X19284793Y-16141704D02*
G01X18776890Y-16141704D01*
G01X18514187Y-15879000D01*
G01X15309698Y-12001500D02*
G01X14839887Y-12001500D01*
G01X14577187Y-11738800D01*
G01X11410798Y-14020800D02*
G01X10864787Y-14020800D01*
G01X10652887Y-13808900D01*
G01X18188813Y-13808900D02*
G01X18290413Y-13910500D01*
G01X18290413Y-14393100D01*
G01X18265013Y-14418500D01*
G01X16680688Y-14418500D01*
G01X16571087Y-14308899D01*
G01X11372698Y-9918700D02*
G01X10915587Y-9918700D01*
G01X10665587Y-9668700D01*
G01X8384413Y-12238799D02*
G01X8511413Y-12365799D01*
G01X18214213Y-12365799D01*
G01X18392013Y-12187999D01*
G01X18392013Y-11645075D01*
G01X18671413Y-11365675D02*
G01X19662013Y-11365675D01*
G01X20347813Y-10679875D02*
G01X20347813Y-9765475D01*
G01X11372698Y-5791200D02*
G01X10813987Y-5791200D01*
G01X10551287Y-5528500D01*
G01X9391498Y-5791200D02*
G01X8896287Y-5791200D01*
G01X8633587Y-5528500D01*
G01X14277213Y-13808900D02*
G01X14378813Y-13910500D01*
G01X14378813Y-14393100D01*
G01X14353413Y-14418500D01*
G01X12692888Y-14418500D01*
G01X12583287Y-14308899D01*
G01X12156313Y-5528500D02*
G01X12257913Y-5630100D01*
G01X12257913Y-6112700D01*
G01X12232513Y-6138100D01*
G01X10660888Y-6138100D01*
G01X10551287Y-6028499D01*
G01X19208598Y-11988800D02*
G01X18726087Y-11988800D01*
G01X18476087Y-11738800D01*
G01X19598513Y-14308899D02*
G01X19285014Y-13995400D01*
G01X8384413Y-13808900D02*
G01X8486013Y-13808900D01*
G01X8562213Y-13732700D01*
G01X8765413Y-13529500D02*
G01X17401413Y-13529500D01*
G01X17477613Y-13453300D01*
G01X20444587Y-12721526D02*
G01X20444587Y-12238799D01*
G01X17303598Y-9931400D02*
G01X16770287Y-9931400D01*
G01X16507587Y-9668700D01*
G01X14277213Y-9668700D02*
G01X14150213Y-9541700D01*
G01X12550013Y-9541700D01*
G01X12499213Y-9592500D01*
G01X12499213Y-10071925D01*
G01X12595987Y-10168699D01*
G01X16245713Y-11738800D02*
G01X15940913Y-11738800D01*
G01X15559913Y-12119800D01*
G01X15415514Y-12238799D02*
G01X14577187Y-12238799D01*
G01X11463871Y-16103604D02*
G01X10902890Y-16103604D01*
G01X10665587Y-15866300D01*
G01X9429598Y-11988800D02*
G01X8934387Y-11988800D01*
G01X8684387Y-11738800D01*
G01X15426271Y-16103604D02*
G01X14801790Y-16103604D01*
G01X14577187Y-15879000D01*
G01X14124813Y-5528500D02*
G01X13159613Y-5528500D01*
G01X13032613Y-5401500D01*
G01X12397613Y-5401500D01*
G01X12372213Y-5426900D01*
G01X12372213Y-5944425D01*
G01X12456287Y-6028499D01*
G01X18176113Y-11738800D02*
G01X18049113Y-11611800D01*
G01X16499713Y-11611800D01*
G01X16448913Y-11662600D01*
G01X16448913Y-12142025D01*
G01X16545687Y-12238799D01*
G01X17265498Y-7861300D02*
G01X16770287Y-7861300D01*
G01X16507587Y-7598600D01*
G01X16093313Y-5528500D02*
G01X15966313Y-5401500D01*
G01X14366113Y-5401500D01*
G01X14340713Y-5426900D01*
G01X14340713Y-5944425D01*
G01X14424787Y-6028499D01*
G01X10352913Y-13808900D02*
G01X10454513Y-13910500D01*
G01X10454513Y-14393100D01*
G01X10429113Y-14418500D01*
G01X8793988Y-14418500D01*
G01X8684387Y-14308899D01*
G01X16271113Y-15879000D02*
G01X16372713Y-15980600D01*
G01X16372713Y-16463200D01*
G01X16347313Y-16488600D01*
G01X14686788Y-16488600D01*
G01X14577187Y-16378999D01*
G01X16207613Y-9668700D02*
G01X15801213Y-9668700D01*
G01X15598013Y-9871900D01*
G01X15369413Y-10100500D02*
G01X14645386Y-10100500D01*
G01X14577187Y-10168699D01*
G01X18125313Y-5528500D02*
G01X17998313Y-5401500D01*
G01X16347313Y-5401500D01*
G01X16296513Y-5452300D01*
G01X16296513Y-5931725D01*
G01X16393287Y-6028499D01*
G01X16207613Y-7598600D02*
G01X16309213Y-7700200D01*
G01X16309213Y-8182800D01*
G01X16283813Y-8208200D01*
G01X15648813Y-8208200D01*
G01X15539212Y-8098599D01*
G01X14539087Y-8098599D01*
G01X8384413Y-10168699D02*
G01X8511413Y-10295699D01*
G01X11102213Y-10295699D01*
G01X11153013Y-10244899D01*
G01X12194413Y-10244899D01*
G01X12245213Y-10295699D01*
G01X18214213Y-10295699D01*
G01X18341213Y-10168699D01*
G01X18341213Y-9559099D01*
G01X18595213Y-9305099D02*
G01X19662013Y-9305099D01*
G01X20525613Y-8441499D02*
G01X20525613Y-7677494D01*
G01X20444587Y-7598600D01*
G01X12283313Y-11738800D02*
G01X12156313Y-11611800D01*
G01X10606913Y-11611800D01*
G01X10556113Y-11662600D01*
G01X10556113Y-12142025D01*
G01X10652887Y-12238799D01*
G01X12283313Y-13808900D02*
G01X12168886Y-13694473D01*
G01X10581513Y-13694473D01*
G01X10556113Y-13719873D01*
G01X10556113Y-14212125D01*
G01X10652887Y-14308899D01*
G01X20144613Y-11738800D02*
G01X20246213Y-11840400D01*
G01X20246213Y-12323000D01*
G01X20220813Y-12348400D01*
G01X19458813Y-12348400D01*
G01X19349212Y-12238799D01*
G01X18476087Y-12238799D01*
G01X8384413Y-14308899D02*
G01X8536813Y-14461299D01*
G01X18280888Y-14461299D01*
G01X18407888Y-14334299D01*
G01X18407888Y-13724699D01*
G01X18687288Y-13445299D02*
G01X19703288Y-13445299D01*
G01X20363688Y-12784899D02*
G01X20363688Y-11819699D01*
G01X20444587Y-11738800D01*
G01X10302113Y-7598600D02*
G01X10403713Y-7700200D01*
G01X10403713Y-8182800D01*
G01X10378313Y-8208200D01*
G01X9717913Y-8208200D01*
G01X9608312Y-8098599D01*
G01X8633587Y-8098599D01*
G01X20144613Y-5528500D02*
G01X20017613Y-5401500D01*
G01X18366613Y-5401500D01*
G01X18341213Y-5426900D01*
G01X18341213Y-5944425D01*
G01X18425287Y-6028499D01*
G01X12270613Y-15879000D02*
G01X12372213Y-15980600D01*
G01X12372213Y-16463200D01*
G01X12346813Y-16488600D01*
G01X10787888Y-16488600D01*
G01X10665587Y-16366299D01*
G01X20170013Y-15879000D02*
G01X20271613Y-15980600D01*
G01X20271613Y-16463200D01*
G01X20246213Y-16488600D01*
G01X18623788Y-16488600D01*
G01X18514187Y-16378999D01*
G01X18214213Y-15879000D02*
G01X18315813Y-15980600D01*
G01X18315813Y-16463200D01*
G01X18290413Y-16488600D01*
G01X16680688Y-16488600D01*
G01X16571087Y-16378999D01*
G01X12296013Y-9668700D02*
G01X11661013Y-9668700D01*
G01X11508613Y-9821100D01*
G01X11305413Y-10024300D02*
G01X10809986Y-10024300D01*
G01X10665587Y-10168699D01*
G01X10251313Y-5528500D02*
G01X10124313Y-5401500D01*
G01X8574913Y-5401500D01*
G01X8549513Y-5426900D01*
G01X8549513Y-5944425D01*
G01X8633587Y-6028499D01*
G01X12257913Y-7598600D02*
G01X12359513Y-7700200D01*
G01X12359513Y-8182800D01*
G01X12334113Y-8208200D01*
G01X10711688Y-8208200D01*
G01X10602087Y-8098599D01*
G01X14277213Y-15879000D02*
G01X14378813Y-15980600D01*
G01X14378813Y-16463200D01*
G01X14353413Y-16488600D01*
G01X12680188Y-16488600D01*
G01X12570587Y-16378999D01*
G01X14239113Y-7598600D02*
G01X14340713Y-7700200D01*
G01X14340713Y-8182800D01*
G01X14315313Y-8208200D01*
G01X12667488Y-8208200D01*
G01X12557887Y-8098599D01*
G01X14277213Y-11738800D02*
G01X14150213Y-11611800D01*
G01X12524613Y-11611800D01*
G01X12499213Y-11637200D01*
G01X12499213Y-12154725D01*
G01X12583287Y-12238799D01*
G01X6629400Y-2376500D02*
G01X6629400Y-1597609D01*
G01X6616002Y-1584211D01*
G01X7569200Y-2389200D02*
G01X7421016Y-2389200D01*
G01X6866014Y-1834197D01*
G01X5397500Y-3606800D02*
G01X4341800Y-2551100D01*
G01X4216400Y-2551100D01*
G01X4216400Y-2351100D02*
G01X4216400Y-2224100D01*
G01X4241800Y-2198700D01*
G01X4216400Y-4737100D02*
G01X4025900Y-4737100D01*
G01X3987800Y-4775200D01*
G01X4216400Y-4737100D02*
G01X4497400Y-4737100D01*
G01X4573600Y-4660900D01*
G01X4635500Y-4599000D02*
G01X4635500Y-4316400D01*
G01X4599000Y-4635500D02*
G01X4599000Y-4660900D01*
G01X4700600Y-4762500D01*
G01X5416702Y-4762500D01*
G01X5524500Y-4654702D01*
G01X3987800Y-4521200D02*
G01X4114800Y-4521200D01*
G01X4521200Y-4114800D01*
G01X4633900Y-4114800D02*
G01X4635500Y-4116400D01*
G01X4572000Y-4114800D02*
G01X4572000Y-3824300D01*
G01X4573600Y-3822700D01*
G01X4851400Y-4521200D02*
G01X5517998Y-4521200D01*
G01X5524500Y-4514698D01*
G01X1447800Y-3759200D02*
G01X1447800Y-3687094D01*
G01X694754Y-2934048D01*
G01X18963513Y-1324800D02*
G01X18963513Y-1210373D01*
G01X18861913Y-1108773D01*
G01X19136487Y-910399D02*
G01X19263487Y-1037399D01*
G01X10492613Y-1337500D02*
G01X10492613Y-1400873D01*
G01X10543413Y-1451673D01*
G01X6898513Y-12221400D02*
G01X6898513Y-12119800D01*
G01X6949313Y-12069000D01*
G01X7330313Y-9402000D02*
G01X7127113Y-9198800D01*
G01X7127113Y-8614600D01*
G01X7152513Y-8589200D01*
G01X7152513Y-7243000D01*
G01X7279513Y-7116000D01*
G01X7355713Y-7116000D01*
G01X9362313Y-3407600D02*
G01X9362313Y-3331400D01*
G01X9413113Y-3280600D01*
G01X9565513Y-3280600D01*
G01X9692513Y-3153600D01*
G01X9692513Y-2429573D01*
G01X9743313Y-2378773D01*
G01X10251313Y-2378773D01*
G01X10792587Y-1837499D01*
G01X15316200Y-1136498D02*
G01X15189200Y-1009498D01*
G01X15189200Y-958698D01*
G01X15519400Y-628498D01*
G01X17830800Y-628498D01*
G01X18669000Y-1466698D01*
G01X18796000Y-1466698D01*
G01X19151600Y-1441298D02*
G01X19151600Y-1436687D01*
G01X19263487Y-1324800D01*
G01X815213Y-13631100D02*
G01X942213Y-13758100D01*
G01X1170813Y-13758100D01*
G01X1907413Y-13021500D01*
G01X6504813Y-13021500D01*
G01X6657213Y-12869100D01*
G01X7177786Y-12996100D02*
G01X7177786Y-12742100D01*
G01X7198487Y-12721399D01*
G01X895407Y-14290135D02*
G01X819207Y-14213935D01*
G01X819207Y-14163135D02*
G01X895407Y-14239335D01*
G01X7118407Y-12969335D02*
G01X7118407Y-12301480D01*
G01X882498Y-12611100D02*
G01X882498Y-13398411D01*
G01X1115187Y-13631100D01*
G01X2812898Y-10947400D02*
G01X2745613Y-10880115D01*
G01X2745613Y-10613199D01*
G01X2745613Y-10880115D02*
G01X1747228Y-11878500D01*
G01X1115187Y-14131099D02*
G01X734187Y-13750099D01*
G01X734187Y-11959526D01*
G01X815213Y-11878500D01*
G01X1115187Y-12378499D02*
G01X1013587Y-12276899D01*
G01X1013587Y-11794299D01*
G01X1648587Y-11159299D01*
G01X2207387Y-11159299D01*
G01X2664587Y-10702099D01*
G01X2664587Y-10192094D01*
G01X2745613Y-10113200D01*
G01X5397500Y-3352800D02*
G01X4533900Y-2489200D01*
G01X4300614Y-1275397D02*
G01X4300614Y-1247615D01*
G01X3933398Y-880400D01*
G01X8128000Y-2389200D02*
G01X7721600Y-1982800D01*
G01X7721600Y-1779600D01*
G01X8620801Y-880400D01*
G01X9051498Y-880400D01*
G01X8585200Y-2389200D02*
G01X8585200Y-2066696D01*
G01X9051498Y-1600398D01*
G01X5308600Y-4965700D02*
G01X5308600Y-5050104D01*
G01X5215204Y-5143500D01*
G01X5002200Y-5143500D01*
G01X4849800Y-5295900D01*
G01X4849800Y-5433492D01*
G01X4695292Y-5588000D01*
G01X3733800Y-3759200D02*
G01X3886200Y-3606800D01*
G01X3886200Y-3021000D01*
G01X3479800Y-3759200D02*
G01X3606800Y-3632200D01*
G01X3606800Y-3021000D01*
G01X3225800Y-3759200D02*
G01X3352800Y-3632200D01*
G01X3352800Y-3046400D01*
G01X3327400Y-3021000D01*
G01X2971800Y-3759200D02*
G01X3098800Y-3632200D01*
G01X3098800Y-3071800D01*
G01X3048000Y-3021000D01*
G01X2209800Y-3759200D02*
G01X2400300Y-3568700D01*
G01X2400300Y-3021000D01*
G01X1955800Y-3759200D02*
G01X2120900Y-3594100D01*
G01X2120900Y-3021000D01*
G01X18186400Y-2287600D02*
G01X17907000Y-2287600D01*
G01X17900650Y-2281250D01*
G01X17900650Y-2311552D01*
G01X17621402Y-2590800D01*
G01X18630900Y-3481095D02*
G01X18630900Y-3023895D01*
G01X18707100Y-2947695D01*
G01X18707100Y-2896895D01*
G01X18822695Y-2781300D01*
G01X18845251Y-2781300D01*
G01X18707100Y-2896895D02*
G01X18630900Y-2896895D01*
G01X18580100Y-2846095D01*
G01X18376900Y-2642895D02*
G01X18341696Y-2642895D01*
G01X18186400Y-2487600D01*
G01X18630900Y-2691105D02*
G01X18808446Y-2691105D01*
G01X18845251Y-2654300D01*
G01X18630900Y-2691105D02*
G01X18275300Y-3046705D01*
G01X18275300Y-3275000D01*
G01X18173700Y-3376600D01*
G01X17894300Y-3376600D01*
G01X18845251Y-3035300D02*
G01X18870651Y-3035300D01*
G01X18997651Y-2908300D01*
G01X18997651Y-2882900D01*
G01X19099251Y-2781300D02*
G01X19099251Y-2509952D01*
G01X19183502Y-2425700D01*
G01X18901920Y-2460751D02*
G01X19008447Y-2460751D01*
G01X19043498Y-2425700D01*
G01X19119698Y-2349500D01*
G01X19246698Y-2349500D01*
G01X19381749Y-2484552D01*
G01X19381749Y-2654300D01*
G01X20256500Y-2287600D02*
G01X20053300Y-2287600D01*
G01X20046950Y-2281250D01*
G01X20256500Y-2287600D02*
G01X20332700Y-2287600D01*
G01X20535900Y-2490800D01*
G01X20605598Y-2814498D02*
G01X20605598Y-3276600D01*
G01X19596100Y-2691105D02*
G01X19596100Y-2716505D01*
G01X19404305Y-2908300D01*
G01X19381749Y-2908300D01*
G01X19596100Y-2691105D02*
G01X20052995Y-2691105D01*
G01X20256500Y-2487600D01*
G01X19700596Y-3376600D02*
G01X20040600Y-3376600D01*
G01X20345400Y-3376600D01*
G01X19672300Y-3404895D02*
G01X19570700Y-3404895D01*
G01X19367500Y-3201695D01*
G01X19367500Y-3150895D01*
G01X19418300Y-3100095D01*
G01X19469100Y-3100095D01*
G01X19519900Y-3049295D01*
G01X19519900Y-3023895D01*
G01X19469100Y-2973095D01*
G01X19280149Y-2973095D01*
G01X19254749Y-2947695D01*
G01X19254749Y-2882900D01*
G01X19356349Y-2781300D01*
G01X19381749Y-2781300D01*
G01X13940998Y-2082998D02*
G01X12757104Y-2082998D01*
G01X12439802Y-2400300D01*
G01X10118298Y-1600398D02*
G01X9534098Y-2184598D01*
G01X9302399Y-2184598D01*
G01X9073998Y-2413000D01*
G01X13636198Y-2590998D02*
G01X13559998Y-2667198D01*
G01X13366796Y-2667198D01*
G01X13290398Y-2590800D01*
G01X16493698Y-3098998D02*
G01X16493698Y-3101345D01*
G01X16668902Y-3276549D01*
G01X17481398Y-2517699D02*
G01X17481398Y-2590800D01*
G01X20087798Y-1600398D02*
G01X20824398Y-2336998D01*
G01X20824398Y-3197804D01*
G01X20745602Y-3276600D01*
G01X9804400Y-2287600D02*
G01X9499600Y-2287600D01*
G01X9339402Y-2287600D01*
G01X9214002Y-2413000D01*
G01X10248900Y-3506495D02*
G01X10248900Y-3100095D01*
G01X10350500Y-2998495D01*
G01X10350500Y-2922295D01*
G01X10466095Y-2806700D01*
G01X10488651Y-2806700D01*
G01X10350500Y-2922295D02*
G01X10239096Y-2922295D01*
G01X9804400Y-2487600D01*
G01X10248900Y-2716505D02*
G01X10451846Y-2716505D01*
G01X10488651Y-2679700D01*
G01X10071100Y-2894305D02*
G01X10071100Y-2909900D01*
G01X9804400Y-3176600D01*
G01X9604400Y-3376600D01*
G01X9486900Y-3376600D01*
G01X10488651Y-3060700D02*
G01X10514051Y-3060700D01*
G01X10818851Y-2755900D01*
G01X10818851Y-2459152D01*
G01X10826902Y-2451100D01*
G01X16230600Y-2287600D02*
G01X15913100Y-2287600D01*
G01X16230600Y-2287600D02*
G01X16408400Y-2465400D01*
G01X16408400Y-3156052D01*
G01X16528898Y-3276549D01*
G01X15481300Y-2716505D02*
G01X15289505Y-2908300D01*
G01X15254249Y-2908300D01*
G01X16040100Y-2487905D02*
G01X16230295Y-2487905D01*
G01X15598496Y-3389300D02*
G01X15913100Y-3389300D01*
G01X16230600Y-3389300D01*
G01X15557500Y-3430295D02*
G01X15506700Y-3430295D01*
G01X15303500Y-3227095D01*
G01X15303500Y-3150895D01*
G01X15379700Y-3074695D01*
G01X15379700Y-2998495D01*
G01X15354300Y-2973095D01*
G01X15151100Y-2973095D01*
G01X15125700Y-2947695D01*
G01X15125700Y-2884449D01*
G01X15215503Y-2794647D01*
G01X15240903Y-2794647D01*
G01X15254249Y-2781300D01*
G01X11976100Y-2500300D02*
G01X12199798Y-2500300D01*
G01X12299798Y-2400300D01*
G01X11976100Y-2500300D02*
G01X11871300Y-2500300D01*
G01X11671300Y-2300300D01*
G01X11252200Y-2716505D02*
G01X11252200Y-2741905D01*
G01X11060405Y-2933700D01*
G01X11025149Y-2933700D01*
G01X11871604Y-2300300D02*
G01X11976100Y-2300300D01*
G01X11369396Y-3389300D02*
G01X11671300Y-3389300D01*
G01X11776100Y-3389300D01*
G01X11976100Y-3189300D01*
G01X11328400Y-3430295D02*
G01X11226800Y-3430295D01*
G01X10896600Y-3100095D01*
G01X10896600Y-2909849D01*
G01X10986403Y-2820047D01*
G01X11011803Y-2820047D01*
G01X11025149Y-2806700D01*
G01X14058900Y-2287600D02*
G01X13728700Y-2287600D01*
G01X13728700Y-2292502D01*
G01X13430402Y-2590800D01*
G01X14503400Y-3481095D02*
G01X14503400Y-2973095D01*
G01X14579600Y-2820695D02*
G01X14678355Y-2820695D01*
G01X14717751Y-2781300D01*
G01X14579600Y-2820695D02*
G01X14391996Y-2820695D01*
G01X14058900Y-2487600D01*
G01X14503400Y-2691105D02*
G01X14680946Y-2691105D01*
G01X14717751Y-2654300D01*
G01X14224000Y-2970505D02*
G01X14224000Y-3211500D01*
G01X14058900Y-3376600D01*
G01X13728700Y-3376600D01*
G01X14717751Y-3035300D02*
G01X14844751Y-3035300D01*
G01X14885030Y-2995021D01*
G01X14885030Y-2959100D01*
G01X14844751Y-2918821D01*
G01X14844751Y-2374900D01*
G01X14870151Y-2349500D01*
G01X14967102Y-2349500D01*
G01X15056002Y-2438400D01*
G01X15254249Y-2654300D02*
G01X15131898Y-2654300D01*
G01X14915998Y-2438400D01*
G01X7378700Y-3810000D02*
G01X7035941Y-4152759D01*
G01X7035941Y-5500559D01*
G01X10898149Y-2552700D02*
G01X10898149Y-2389524D01*
G01X10883526Y-2374900D01*
G01X10763098Y-2374900D01*
G01X10686898Y-2451100D01*
G01X10974349Y-2628900D02*
G01X10872749Y-2730500D01*
G01X10872749Y-2832100D01*
G01X10440949Y-3263900D01*
G01X10440949Y-3365500D01*
G01X9958349Y-3644900D02*
G01X9031300Y-3644900D01*
G01X8751900Y-3924300D01*
G01X7862900Y-4813300D01*
G01X7558100Y-4813300D01*
G01X7456500Y-4914900D01*
G01X7126300Y-4914900D02*
G01X7113600Y-4927600D01*
G01X6631000Y-4927600D02*
G01X6534302Y-4927600D01*
G01X6318402Y-5143500D01*
G01X6163996Y-5143500D01*
G01X5950102Y-5143500D01*
G01X5772302Y-4965700D01*
G01X7405700Y-4914900D02*
G01X7405700Y-4965700D01*
G01X7862900Y-5422900D01*
G01X8396300Y-5422900D01*
G01X8421700Y-5448300D01*
G01X8421700Y-6134100D01*
G01X7761300Y-6794500D01*
G01X7380300Y-6794500D02*
G01X7378700Y-6796100D01*
G01X6326200Y-4800600D02*
G01X5513400Y-3987800D01*
G01X5107000Y-3987800D01*
G01X4599000Y-3479800D01*
G01X4573600Y-3479800D01*
G01X7456500Y-6794500D02*
G01X7456500Y-6870700D01*
G01X7481900Y-6896100D01*
G01X7227900Y-7277100D02*
G01X7227900Y-8775700D01*
G01X7215200Y-8788400D01*
G01X7215200Y-9144000D01*
G01X7418400Y-9347200D01*
G01X6605600Y-9220200D02*
G01X6554800Y-9271000D01*
G01X5873902Y-9271000D01*
G01X5823102Y-9220200D01*
G01X5746902Y-9296400D01*
G01X5507304Y-9296400D02*
G01X5253304Y-9042400D01*
G01X7266000Y-9525000D02*
G01X7266000Y-10922000D01*
G01X5619902Y-9296400D02*
G01X5619902Y-10693400D01*
G01X5391302Y-10922000D02*
G01X5391302Y-11202899D01*
G01X5346002Y-11248199D01*
G01X5346002Y-12213399D01*
G01X4838002Y-12721399D01*
G01X4838002Y-12721399D02*
G01X5066602Y-12949999D01*
G01X5320602Y-13203999D02*
G01X5168202Y-13356399D01*
G01X5168202Y-13838999D01*
G01X5371402Y-14042199D01*
G01X5371402Y-14245399D01*
G01X5168202Y-13838999D02*
G01X4888802Y-14118399D01*
G01X3555302Y-14118399D01*
G01X3415602Y-14258099D01*
G01X4838002Y-12721399D02*
G01X4685602Y-12873799D01*
G01X3644202Y-12873799D01*
G01X3491802Y-12721399D01*
G01X2920302Y-12721399D02*
G01X2691702Y-12949999D01*
G01X1853502Y-12949999D01*
G01X1737601Y-12834099D01*
G01X3415602Y-12721399D02*
G01X3415602Y-11260899D01*
G01X3415602Y-14258099D02*
G01X2009008Y-14258099D01*
G01X1693108Y-14573999D01*
G01X1661401Y-12834099D02*
G01X1661401Y-12199099D01*
G01X7266000Y-10922000D02*
G01X7291400Y-10947400D01*
G01X7291400Y-13144500D01*
G01X7202500Y-13233400D01*
G01X7202500Y-15176500D01*
G01X7227900Y-15201900D01*
G01X4903800Y-5613400D02*
G01X3900500Y-6616700D01*
G01X3316300Y-6616700D01*
G01X3113100Y-6413500D02*
G01X3113100Y-5956300D01*
G01X3163900Y-6464300D02*
G01X3149600Y-6464300D01*
G01X3124200Y-6489700D01*
G01X2578100Y-7035800D01*
G01X1168400Y-7035800D01*
G01X1168400Y-7029602D01*
G01X1098398Y-6959600D01*
G01X1168400Y-7035800D02*
G01X1168400Y-7753198D01*
G01X1123798Y-7797800D01*
G01X3113100Y-5956300D02*
G01X2579700Y-5422900D01*
G01X2579700Y-5118100D01*
G01X1220800Y-3759200D01*
G01X1193800Y-3759200D01*
G01X6972300Y-2946400D02*
G01X6978802Y-2946400D01*
G01X7143902Y-2781300D01*
G01X7377100Y-2781300D01*
G01X7569200Y-2589200D01*
G01X8128000Y-2589200D01*
G01X6692900Y-3886200D02*
G01X6591300Y-3987800D01*
G01X6591300Y-4394200D01*
G01X6946900Y-4749800D01*
G01X6946900Y-5842000D01*
G01X7073900Y-5969000D01*
G01X7099300Y-6400800D02*
G01X7099300Y-6496202D01*
G01X7080402Y-6515100D01*
G01X7080402Y-7327900D01*
G01X19088006Y-1161893D02*
G01X19405596Y-1161893D01*
G01X19456396Y-1111093D01*
G01X19761196Y-1111093D02*
G01X20319996Y-1669893D01*
G01X20497796Y-1669893D01*
G01X20929596Y-2101693D01*
G01X20929596Y-4184493D01*
G01X20624796Y-4489293D01*
G01X20624796Y-8985093D01*
G01X20650196Y-9010493D01*
G01X20650196Y-9188293D02*
G01X20650196Y-15698791D01*
G01X20469987Y-15879000D01*
G01X18963513Y-537400D02*
G01X19090513Y-410400D01*
G01X19801713Y-410400D01*
G01X20469987Y-1078674D01*
G01X20469987Y-1561274D01*
G01X20469987Y-1739074D02*
G01X20876387Y-2145474D01*
G01X20876387Y-3288474D01*
G01X20571587Y-3593274D01*
G01X20571587Y-15607474D01*
G01X20368387Y-15810674D01*
G01X20368387Y-16277399D01*
G01X20469987Y-16378999D01*
G01X5215204Y-6159500D02*
G01X5291404Y-6159500D01*
G01X5367604Y-6083300D01*
G01X7501204Y-4965700D02*
G01X7729601Y-4965700D01*
G01X7733602Y-4961699D01*
G01X7886002Y-4961699D01*
G01X8902002Y-3945699D01*
G01X8927402Y-3945699D01*
G01X8951900Y-3924300D01*
G01X8927402Y-3945699D02*
G01X9029002Y-3945699D01*
G01X9511602Y-4428299D01*
G01X9511602Y-4771199D01*
G01X9702102Y-4961699D01*
G01X9854502Y-4809299D01*
G01X11518202Y-4809299D01*
G01X11670602Y-4961699D01*
G01X11823002Y-4809299D01*
G01X13486702Y-4809299D01*
G01X13639102Y-4961699D01*
G01X13791502Y-4809299D01*
G01X15455202Y-4809299D01*
G01X15607602Y-4961699D01*
G01X15760002Y-4809299D01*
G01X17423702Y-4809299D01*
G01X17576102Y-4961699D01*
G01X17728502Y-4809299D01*
G01X19392202Y-4809299D01*
G01X19544602Y-4961699D01*
G01X5215204Y-6032500D02*
G01X5291404Y-6032500D01*
G01X5367604Y-5956300D01*
G01X7171004Y-6565900D02*
G01X7171004Y-6788404D01*
G01X7378700Y-6996100D01*
G01X7697902Y-6996100D01*
G01X7733602Y-7031799D01*
G01X7886002Y-7184199D01*
G01X9549702Y-7184199D01*
G01X9702102Y-7031799D01*
G01X9854502Y-7184199D01*
G01X11518202Y-7184199D01*
G01X11670602Y-7031799D01*
G01X11823002Y-6879399D01*
G01X13486702Y-6879399D01*
G01X13639102Y-7031799D01*
G01X13791502Y-6879399D01*
G01X15455202Y-6879399D01*
G01X15607602Y-7031799D01*
G01X15760002Y-7184199D01*
G01X17423702Y-7184199D01*
G01X17576102Y-7031799D01*
G01X17728502Y-7184199D01*
G01X19392202Y-7184199D01*
G01X19544602Y-7031799D01*
G01X5215204Y-5905500D02*
G01X5164404Y-5905500D01*
G01X5012004Y-6057900D01*
G01X5012004Y-6642100D01*
G01X6078804Y-7708900D01*
G01X6358204Y-7708900D01*
G01X6713804Y-8064500D01*
G01X6713804Y-8089900D01*
G01X7298004Y-8674100D02*
G01X7300900Y-8674100D01*
G01X7415200Y-8788400D01*
G01X7445502Y-8788400D01*
G01X7759002Y-9101899D01*
G01X8339404Y-8928100D02*
G01X8644204Y-9232900D01*
G01X9596501Y-9232900D01*
G01X9727502Y-9101899D01*
G01X9879902Y-8949499D01*
G01X11543602Y-8949499D01*
G01X11696002Y-9101899D01*
G01X11848402Y-8949499D01*
G01X13512102Y-8949499D01*
G01X13664502Y-9101899D01*
G01X13816902Y-9254299D01*
G01X15480602Y-9254299D01*
G01X15633002Y-9101899D01*
G01X16826802Y-9101899D01*
G01X16979202Y-8949499D01*
G01X17449102Y-8949499D01*
G01X17601502Y-9101899D01*
G01X17753902Y-9254299D01*
G01X19417602Y-9254299D01*
G01X19570002Y-9101899D01*
G01X5215204Y-5778500D02*
G01X5164404Y-5778500D01*
G01X4961204Y-5981700D01*
G01X4961204Y-6718300D01*
G01X5672404Y-7429500D01*
G01X5672404Y-7581900D01*
G01X5596204Y-7962900D02*
G01X5596204Y-7988300D01*
G01X6078804Y-8470900D01*
G01X6332804Y-8470900D01*
G01X6637604Y-8775700D01*
G01X6637604Y-8851900D01*
G01X6713804Y-8928100D01*
G01X6942404Y-9105900D02*
G01X7466000Y-9629496D01*
G01X7466000Y-10922000D01*
G01X7521702Y-10922000D01*
G01X7771702Y-11171999D01*
G01X7924102Y-11324399D01*
G01X9587802Y-11324399D01*
G01X9740202Y-11171999D01*
G01X9892602Y-11324399D01*
G01X11543602Y-11324399D01*
G01X11696002Y-11171999D01*
G01X11848402Y-11324399D01*
G01X13499402Y-11324399D01*
G01X13651802Y-11171999D01*
G01X13804202Y-11324399D01*
G01X15467902Y-11324399D01*
G01X15620302Y-11171999D01*
G01X15772702Y-11324399D01*
G01X17436402Y-11324399D01*
G01X17588802Y-11171999D01*
G01X17741202Y-11324399D01*
G01X19404902Y-11324399D01*
G01X19557302Y-11171999D01*
G01X5215204Y-5651500D02*
G01X5164404Y-5651500D01*
G01X4910404Y-5905500D01*
G01X4910404Y-8877300D01*
G01X5545404Y-9512300D01*
G01X5545404Y-10731500D01*
G01X6256604Y-11442700D01*
G01X6307404Y-11442700D01*
G01X6713804Y-11849100D01*
G01X6713804Y-12433300D01*
G01X7310704Y-13309600D02*
G01X7326300Y-13309600D01*
G01X7402500Y-13233400D01*
G01X7788402Y-13233400D01*
G01X7797102Y-13242099D01*
G01X7949502Y-13394499D01*
G01X9613202Y-13394499D01*
G01X9765602Y-13242099D01*
G01X9918002Y-13394499D01*
G01X11581702Y-13394499D01*
G01X11734102Y-13242099D01*
G01X11886502Y-13394499D01*
G01X13550202Y-13394499D01*
G01X13702602Y-13242099D01*
G01X13855002Y-13394499D01*
G01X15518702Y-13394499D01*
G01X15671102Y-13242099D01*
G01X15823502Y-13394499D01*
G01X17322102Y-13394499D01*
G01X17474502Y-13242099D01*
G01X17639602Y-13242099D01*
G01X17792002Y-13394499D01*
G01X19455702Y-13394499D01*
G01X19608102Y-13242099D01*
G01X5215204Y-5524500D02*
G01X5164404Y-5524500D01*
G01X4859604Y-5829300D01*
G01X4859604Y-8902700D01*
G01X5164404Y-9207500D01*
G01X5164404Y-12077700D01*
G01X5139004Y-12103100D01*
G01X5901004Y-14795500D02*
G01X6409004Y-15303500D01*
G01X7326300Y-15303500D01*
G01X7427900Y-15201900D01*
G01X7686802Y-15201900D01*
G01X7797102Y-15312199D01*
G01X7949502Y-15464599D01*
G01X9600502Y-15464599D01*
G01X9765602Y-15299499D01*
G01X9905302Y-15439199D01*
G01X11607102Y-15439199D01*
G01X11734102Y-15312199D01*
G01X11886502Y-15464599D01*
G01X13550202Y-15464599D01*
G01X13702602Y-15312199D01*
G01X13855002Y-15464599D01*
G01X15518702Y-15464599D01*
G01X15671102Y-15312199D01*
G01X15823502Y-15464599D01*
G01X17487202Y-15464599D01*
G01X17639602Y-15312199D01*
G01X17792002Y-15464599D01*
G01X19455702Y-15464599D01*
G01X19608102Y-15312199D01*
G01X4915599Y-11260899D02*
G01X5118799Y-11057699D01*
G01X5118799Y-9228899D01*
G01X4813999Y-8924099D01*
G01X4813999Y-5799899D01*
G01X5042599Y-5571299D01*
G01X5042599Y-5545899D01*
G01X5079009Y-5321300D02*
G01X5164404Y-5321300D01*
G01X5215204Y-5270500D01*
G01X4420299Y-12721399D02*
G01X4648899Y-12492799D01*
G01X4648899Y-6904799D01*
G01X4750499Y-6803199D01*
G01X5715699Y-6320599D02*
G01X5715699Y-5667997D01*
G01X6104496Y-5279199D01*
G01X6155296Y-5279199D01*
G01X6163996Y-5270500D01*
G01X4915599Y-14258099D02*
G01X4915599Y-14207299D01*
G01X5169599Y-13953299D01*
G01X5986196Y-5897702D02*
G01X5960796Y-5872302D01*
G01X5960796Y-5549900D01*
G01X6113196Y-5397500D01*
G01X6163996Y-5397500D01*
G01X6871399Y-14245399D02*
G01X6236399Y-13610399D01*
G01X6236399Y-13305599D01*
G01X6464999Y-5863399D02*
G01X6464999Y-5774703D01*
G01X6236399Y-5546103D01*
G01X6185599Y-5546103D01*
G01X6163996Y-5524500D01*
G01X6337999Y-12721399D02*
G01X6134799Y-12518199D01*
G01X6134799Y-11679999D01*
G01X6287199Y-11527599D01*
G01X6312599Y-5837999D02*
G01X6033199Y-5837999D01*
G01X6007799Y-5812599D01*
G01X6007799Y-5761799D01*
G01X6118098Y-5651500D01*
G01X6163996Y-5651500D01*
G01X6845999Y-11248199D02*
G01X7049199Y-11044999D01*
G01X7049199Y-10638599D01*
G01X6871399Y-10460799D01*
G01X6871399Y-8809799D01*
G01X6896799Y-8784399D01*
G01X6337999Y-5964999D02*
G01X6388799Y-5914199D01*
G01X6388799Y-5812599D01*
G01X6337999Y-5761799D01*
G01X6180696Y-5761799D01*
G01X6163996Y-5778500D01*
G01X3695700Y-3403600D02*
G01X3771900Y-3327400D01*
G01X3771900Y-2946400D01*
G01X3886200Y-2832100D01*
G01X3886200Y-2821000D01*
G01X3886200Y-2832100D02*
G01X4216400Y-2832100D01*
G01X4368800Y-2679700D01*
G01X8737600Y-3035300D02*
G01X8832698Y-3035300D01*
G01X9073998Y-3276600D01*
G01X9275597Y-3478200D01*
G01X9702800Y-3478200D01*
G01X9804400Y-3376600D01*
G01X3479800Y-3403600D02*
G01X3479800Y-2948000D01*
G01X3606800Y-2821000D01*
G01X3708400Y-2821000D01*
G01X3810000Y-2719400D01*
G01X3937000Y-2719400D01*
G01X4114800Y-2541600D01*
G01X4114800Y-2480024D01*
G01X4129424Y-2465400D01*
G01X4318000Y-2465400D01*
G01X5308600Y-3456000D01*
G01X5588000Y-3456000D01*
G01X5613400Y-3430600D01*
G01X6197600Y-3481400D02*
G01X6248400Y-3532200D01*
G01X10109200Y-3532200D01*
G01X10210800Y-3633800D01*
G01X11731600Y-3633800D01*
G01X11976100Y-3389300D01*
G01X12199798Y-3389300D01*
G01X12299798Y-3289300D01*
G01X3276600Y-3403600D02*
G01X3225800Y-3352800D01*
G01X3225800Y-2922600D01*
G01X3327400Y-2821000D01*
G01X3454400Y-2821000D01*
G01X3479800Y-2795600D01*
G01X13030200Y-3024200D02*
G01X13030200Y-3029102D01*
G01X13290398Y-3289300D01*
G01X13493598Y-3086100D01*
G01X13968400Y-3086100D01*
G01X14058900Y-3176600D01*
G01X3035300Y-3403600D02*
G01X2933700Y-3302000D01*
G01X2933700Y-2935300D01*
G01X3048000Y-2821000D01*
G01X3149600Y-2719400D01*
G01X3708400Y-2719400D01*
G01X15379700Y-3189300D02*
G01X15481300Y-3290900D01*
G01X16129000Y-3290900D01*
G01X16230600Y-3189300D01*
G01X16408400Y-3367100D01*
G01X16713200Y-3367100D01*
G01X16738600Y-3341700D01*
G01X16738600Y-2660447D01*
G01X16668902Y-2590749D01*
G01X2260600Y-3403600D02*
G01X2260600Y-2971800D01*
G01X2400300Y-2832100D01*
G01X2400300Y-2821000D01*
G01X2400300Y-2832100D02*
G01X2425700Y-2832100D01*
G01X2870200Y-3276600D01*
G01X6299200Y-3632200D02*
G01X6350000Y-3581400D01*
G01X10083800Y-3581400D01*
G01X10210800Y-3708400D01*
G01X17049598Y-3708400D01*
G01X17481398Y-3276600D01*
G01X17557598Y-3352800D01*
G01X17684598Y-3352800D01*
G01X17760798Y-3276600D01*
G01X18073700Y-3276600D01*
G01X18173700Y-3176600D01*
G01X1981200Y-3403600D02*
G01X1981200Y-2971800D01*
G01X2120900Y-2832100D01*
G01X2120900Y-2821000D01*
G01X2120900Y-2832100D02*
G01X2298700Y-2654300D01*
G01X3898900Y-2654300D01*
G01X19432600Y-3176600D02*
G01X19534200Y-3278200D01*
G01X20243800Y-3278200D01*
G01X20345400Y-3176600D01*
G01X20345400Y-2978302D01*
G01X20745602Y-2578100D01*
G01X6007095Y-6217399D02*
G01X6286495Y-6217399D01*
G01X6311895Y-6191999D01*
G01X6311895Y-6129599D01*
G01X6235695Y-6053399D01*
G01X6184895Y-6053399D01*
G01X6163996Y-6032500D01*
G01X6007095Y-6331699D02*
G01X5930895Y-6255499D01*
G01X5930895Y-6179299D01*
G01X5956295Y-6153899D01*
G01X6158395Y-6153899D01*
G01X6163996Y-6159500D01*
G01X1035114Y-1137818D02*
G01X715124Y-1457808D01*
G01X565087Y-1457808D01*
G01X715124Y-1959724D02*
G01X838200Y-2082800D01*
G01X964908Y-2082800D01*
G01X1180808Y-2298700D02*
G01X1180808Y-2724010D01*
G01X1365098Y-2908300D01*
G01X879709Y-2908300D01*
G01X854647Y-2933362D01*
G01X778447Y-2857162D01*
G01X651447Y-2857162D01*
G01X626047Y-2882562D01*
G01X626047Y-3445446D01*
G01X939800Y-3759200D01*
G01X1035114Y-1137818D02*
G01X2075586Y-1137818D01*
G01X2141499Y-1071905D01*
G01X2811501Y-1071905D01*
G01X2811501Y-1071905D02*
G01X3111500Y-771906D01*
G01X3111500Y-481000D01*
G01X3111500Y-771906D02*
G01X3517900Y-1178306D01*
G01X3921305Y-1178306D01*
G01X3933398Y-1190399D01*
G01X3517900Y-1178306D02*
G01X3517900Y-1675897D01*
G01X3483399Y-1710398D01*
G01X939800Y-3759200D02*
G01X939800Y-5029200D01*
G01X685800Y-5283200D01*
G01X685800Y-5537200D01*
G01X736600Y-5588000D01*
G01X736600Y-5969000D01*
G01X1219200Y-6451600D01*
G01X1219200Y-6940398D02*
G01X1238402Y-6959600D01*
G01X1219200Y-6883400D02*
G01X1041400Y-6883400D01*
G01X1016000Y-6908800D01*
G01X1016000Y-7823200D01*
G01X1066800Y-7874000D01*
G01X1193800Y-7874000D01*
G01X1193800Y-7867802D01*
G01X1263802Y-7797800D01*
G01X3933398Y-1190399D02*
G01X4187398Y-1444399D01*
G01X5266413Y-1444399D01*
G01X5656212Y-1834197D01*
G01X5656212Y-2595512D01*
G01X6159500Y-3098800D01*
G01X6032500Y-3225800D01*
G01X6032500Y-3733800D01*
G01X6159500Y-3860800D01*
G01X6172200Y-3860800D01*
G01X6299200Y-3987800D01*
G01X6477000Y-3810000D01*
G01X6870700Y-3810000D01*
G01X7023100Y-3657600D01*
G01X7480300Y-3657600D01*
G01X7632700Y-3810000D01*
G01X6159500Y-3098800D02*
G01X6565900Y-3098800D01*
G01X6616700Y-3149600D01*
G01X6718300Y-3149600D01*
G01X6769100Y-3200400D01*
G01X6972300Y-3200400D01*
G01X7124700Y-3048000D01*
G01X7378700Y-3048000D01*
G01X7632700Y-3048000D01*
G01X7886700Y-3048000D01*
G01X8140700Y-3048000D01*
G01X8394700Y-3048000D01*
G01X6718300Y-3149600D02*
G01X6718300Y-3022600D01*
G01X6946900Y-2794000D01*
G01X6991198Y-2794000D01*
G01X7003898Y-2781300D01*
G01X7632700Y-3810000D02*
G01X7785100Y-3962400D01*
G01X8242300Y-3962400D01*
G01X8394700Y-3810000D01*
G01X8394700Y-3048000D02*
G01X8394700Y-3276600D01*
G01X8547100Y-3429000D01*
G01X8597900Y-3429000D01*
G01X8648700Y-3378200D01*
G01X8648700Y-3022600D01*
G01X8724900Y-2946400D01*
G01X8883802Y-2946400D01*
G01X9214002Y-3276600D01*
G01X9314002Y-3176600D01*
G01X9486900Y-3176600D01*
G01X9486900Y-2500300D01*
G01X9499600Y-2487600D01*
G01X9486900Y-2500300D02*
G01X9029700Y-2500300D01*
G01X9004300Y-2474900D01*
G01X9004300Y-2347900D01*
G01X9641802Y-1710398D02*
G01X9668299Y-1710398D01*
G01X10100099Y-1380198D02*
G01X10100099Y-1227798D01*
G01X10125499Y-1202398D01*
G01X10118298Y-1190399D01*
G01X10125499Y-1202398D02*
G01X10238296Y-1202398D01*
G01X10299700Y-1263802D01*
G01X10118298Y-1190399D02*
G01X10118298Y-880400D01*
G01X10100099Y-1380198D02*
G01X10381304Y-1661403D01*
G01X10381304Y-1915403D01*
G01X10430299Y-1964398D01*
G01X10531899Y-1964398D01*
G01X10709699Y-1786598D01*
G01X10709699Y-1735798D01*
G01X10785899Y-1659598D01*
G01X10785899Y-1344188D01*
G01X10792587Y-1337500D01*
G01X10911802Y-1337500D01*
G01X10998200Y-1251102D01*
G01X11166899Y-1710398D02*
G01X11166899Y-1883199D01*
G01X11391900Y-2108200D01*
G01X11391900Y-2220900D01*
G01X11671300Y-2500300D01*
G01X11459299Y-1032800D02*
G01X11464498Y-1032800D01*
G01X11616898Y-880400D01*
G01X9461500Y-1890700D02*
G01X9461500Y-1839900D01*
G01X9080500Y-1458900D01*
G01X8902700Y-1458900D02*
G01X8674100Y-1687500D01*
G01X8624397Y-1687500D01*
G01X8601499Y-1710398D01*
G01X9055100Y-1458900D02*
G01X9055100Y-1194001D01*
G01X9051498Y-1190399D01*
G01X8601499Y-1710398D02*
G01X8477700Y-1834197D01*
G01X7866012Y-1834197D01*
G01X11671300Y-3135300D02*
G01X11722100Y-3084500D01*
G01X12235002Y-3084500D01*
G01X12439802Y-3289300D01*
G01X6299200Y-3987800D02*
G01X6299200Y-4292600D01*
G01X6394298Y-4387698D01*
G01X6343498Y-4590898D02*
G01X6394298Y-4641698D01*
G01X6394298Y-4927600D01*
G01X6343498Y-4876800D01*
G01X5721198Y-4876800D01*
G01X5632298Y-4965700D01*
G01X5632298Y-5031207D01*
G01X5276698Y-5386807D01*
G01X5225898Y-5386807D01*
G01X5215204Y-5397500D01*
G01X4994808Y-5397500D01*
G01X4804308Y-5588000D01*
G01X12439802Y-3289300D02*
G01X12516002Y-3365500D01*
G01X13354202Y-3365500D01*
G01X13430402Y-3289300D01*
G01X13616000Y-3289300D01*
G01X13728700Y-3176600D01*
G01X11671300Y-2525700D02*
G01X11874500Y-2728900D01*
G01X13589000Y-2728900D01*
G01X13728700Y-2589200D01*
G01X13728700Y-2487600D01*
G01X13830300Y-2386000D01*
G01X14135100Y-2386000D01*
G01X14160500Y-2360600D01*
G01X14160500Y-1897299D02*
G01X13973599Y-1710398D01*
G01X14160500Y-2208200D02*
G01X14719300Y-2208200D01*
G01X15024100Y-1903400D01*
G01X15024100Y-1751000D01*
G01X15316200Y-1458900D02*
G01X15316200Y-1276502D01*
G01X15278100Y-1497000D02*
G01X15284201Y-1497000D01*
G01X15497599Y-1710398D01*
G01X15316200Y-1276502D02*
G01X15861495Y-1276502D01*
G01X15947598Y-1190399D01*
G01X15617398Y-733199D02*
G01X15764599Y-880400D01*
G01X15947598Y-880400D01*
G01X15497599Y-1710398D02*
G01X15827799Y-2040598D01*
G01X15827799Y-2167598D01*
G01X15802399Y-2192998D01*
G01X15802399Y-2376899D01*
G01X15913100Y-2487600D01*
G01X15827799Y-2167598D02*
G01X16284999Y-2167598D01*
G01X16528898Y-2411496D01*
G01X15913100Y-2487600D02*
G01X15913100Y-3189300D01*
G01X5215204Y-5397500D02*
G01X5266004Y-5397500D01*
G01X5443804Y-5575300D01*
G01X5443804Y-6235700D01*
G01X5367604Y-6311900D01*
G01X5367604Y-6438900D01*
G01X5266004Y-6540500D01*
G01X5215204Y-6540500D01*
G01X5367604Y-6438900D02*
G01X5367604Y-6464300D01*
G01X5520004Y-6616700D01*
G01X6282004Y-6616700D02*
G01X6332804Y-6565900D01*
G01X6332804Y-6404508D01*
G01X6214796Y-6286500D01*
G01X6163996Y-6286500D01*
G01X6660998Y-6076315D02*
G01X6660998Y-6057900D01*
G01X6561404Y-6175908D02*
G01X6561404Y-6226708D01*
G01X6713804Y-6379108D01*
G01X6917004Y-6607708D02*
G01X6917004Y-6538493D01*
G01X6940398Y-6515100D01*
G01X6940398Y-6464300D01*
G01X7397598Y-6007100D01*
G01X7397598Y-5959574D01*
G01X7395783Y-5957759D01*
G01X7780604Y-5820308D02*
G01X7780604Y-5678602D01*
G01X7778902Y-5676900D01*
G01X6917004Y-6607708D02*
G01X6917004Y-7304507D01*
G01X6940398Y-7327900D01*
G01X5215204Y-6540500D02*
G01X5215204Y-6692900D01*
G01X5189804Y-6718300D01*
G01X5189804Y-7048500D02*
G01X5189804Y-7306996D01*
G01X5168900Y-7327900D01*
G01X5151704Y-7962900D02*
G01X5202504Y-7912100D01*
G01X5240604Y-7912100D01*
G01X5253304Y-7899400D01*
G01X5240604Y-7912100D02*
G01X5240604Y-8013700D01*
G01X5253304Y-8026400D01*
G01X5253304Y-8153400D01*
G01X5253304Y-8280400D01*
G01X5253304Y-8407400D01*
G01X5253304Y-8534400D01*
G01X5253304Y-8661400D01*
G01X5253304Y-8788400D01*
G01X5253304Y-8915400D01*
G01X5378298Y-8915400D01*
G01X5683098Y-9220200D01*
G01X6205804Y-6616700D02*
G01X6205804Y-7641692D01*
G01X6202096Y-7645400D01*
G01X16528898Y-2538496D02*
G01X16554298Y-2513096D01*
G01X16857899Y-2513096D01*
G01X17621402Y-3276600D01*
G01X17721402Y-3176600D01*
G01X17894300Y-3176600D01*
G01X17894300Y-2490800D01*
G01X17900650Y-2484450D01*
G01X17900650Y-2481250D01*
G01X18177299Y-1710398D02*
G01X18456699Y-1430998D01*
G01X18576498Y-1271397D02*
G01X18576498Y-1190399D01*
G01X18659899Y-1354798D02*
G01X18659899Y-1349103D01*
G01X18757900Y-1251102D01*
G01X18576498Y-1190399D02*
G01X18576498Y-880400D01*
G01X19456396Y-1251097D02*
G01X19456396Y-1462104D01*
G01X19424650Y-1493850D02*
G01X19424650Y-1497249D01*
G01X19637799Y-1710398D01*
G01X20341798Y-1527099D02*
G01X20341798Y-1444399D01*
G01X20087798Y-1190399D01*
G01X20087798Y-880400D01*
G01X19637799Y-1710398D02*
G01X19637799Y-2040598D01*
G01X20044199Y-2446998D01*
G01X20044199Y-2478499D01*
G01X20046950Y-2481250D01*
G01X20044199Y-2446998D02*
G01X20094999Y-2396198D01*
G01X20348999Y-2396198D01*
G01X20526799Y-2573998D01*
G01X20601496Y-2573998D01*
G01X20605598Y-2578100D01*
G01X20526799Y-2573998D02*
G01X20526799Y-2690401D01*
G01X20040600Y-3176600D01*
G01X9406204Y-5667908D02*
G01X9408211Y-5667908D01*
G01X9531502Y-5791200D01*
G01X10166502Y-5791200D01*
G01X10471302Y-5486400D01*
G01X10471302Y-5435600D01*
G01X10496702Y-5410200D01*
G01X11131702Y-5410200D01*
G01X11512702Y-5791200D01*
G01X11588902Y-5791200D01*
G01X11512702Y-7543800D02*
G01X11461902Y-7493000D01*
G01X9899802Y-7493000D01*
G01X9569602Y-7823200D01*
G01X11512702Y-7721600D02*
G01X11741302Y-7493000D01*
G01X13163702Y-7493000D01*
G01X13481202Y-7810500D01*
G01X13798702Y-7493000D01*
G01X15183002Y-7493000D01*
G01X15487802Y-7797800D01*
G01X15792602Y-7493000D01*
G01X17037202Y-7493000D01*
G01X17405502Y-7861300D01*
G01X17684902Y-7861300D02*
G01X18053202Y-7493000D01*
G01X19005702Y-7493000D01*
G01X19361302Y-7848600D01*
G01X17481702Y-7861300D02*
G01X17481702Y-7912100D01*
G01X17456302Y-9918700D02*
G01X17443602Y-9931400D01*
G01X17456302Y-9664700D02*
G01X17354702Y-9563100D01*
G01X16440302Y-9563100D01*
G01X16287902Y-9715500D01*
G01X16287902Y-9766300D01*
G01X16110102Y-9944100D01*
G01X15500502Y-9944100D01*
G01X19005702Y-9588500D02*
G01X19043802Y-9588500D01*
G01X19399402Y-9944100D01*
G01X15500502Y-9944100D02*
G01X15119502Y-9563100D01*
G01X14509902Y-9563100D01*
G01X14357502Y-9715500D01*
G01X14357502Y-9766300D02*
G01X14167002Y-9956800D01*
G01X14154302Y-9956800D02*
G01X14357502Y-9753600D01*
G01X14357502Y-9575800D02*
G01X14281302Y-9499600D01*
G01X12528702Y-9499600D01*
G01X12376302Y-9652000D01*
G01X12376302Y-9753600D01*
G01X12223902Y-9906000D01*
G01X11525402Y-9906000D01*
G01X11512702Y-9918700D01*
G01X11525402Y-9906000D02*
G01X11500002Y-9906000D01*
G01X11144402Y-9550400D02*
G01X10611002Y-9550400D01*
G01X10458602Y-9702800D02*
G01X10458602Y-9753600D01*
G01X10255402Y-9956800D01*
G01X11157102Y-9563100D02*
G01X10598302Y-9563100D01*
G01X10547502Y-9613900D02*
G01X10496702Y-9613900D01*
G01X10445902Y-9563100D01*
G01X8617102Y-9563100D01*
G01X8464702Y-9715500D01*
G01X8464702Y-9766300D01*
G01X8350402Y-9880600D01*
G01X7804302Y-9880600D01*
G01X13595502Y-9956800D02*
G01X13595502Y-10007600D01*
G01X13493902Y-11684000D02*
G01X13493902Y-11963400D01*
G01X13481202Y-11976100D01*
G01X13493902Y-11963400D02*
G01X14230502Y-11963400D01*
G01X14484502Y-11709400D01*
G01X14484502Y-11658600D01*
G01X14509902Y-11633200D01*
G01X15081402Y-11633200D01*
G01X15449702Y-12001500D01*
G01X17430902Y-11849100D02*
G01X17430902Y-12001500D01*
G01X19069202Y-11709400D02*
G01X19348602Y-11988800D01*
G01X11817502Y-11836400D02*
G01X11601602Y-11836400D01*
G01X11474602Y-11963400D01*
G01X9696602Y-9956800D02*
G01X9696602Y-10007600D01*
G01X9569602Y-11836400D02*
G01X9569602Y-11988800D01*
G01X8274202Y-11785600D02*
G01X7905902Y-11785600D01*
G01X7766202Y-11925300D01*
G01X7766202Y-13944600D02*
G01X7766202Y-14135100D01*
G01X7753502Y-14147800D01*
G01X9658502Y-14135100D02*
G01X9658502Y-14122400D01*
G01X9595002Y-14058900D01*
G01X9648075Y-15826473D02*
G01X9648075Y-16103604D01*
G01X11627002Y-14097000D02*
G01X11550802Y-14020800D01*
G01X11603875Y-15826473D02*
G01X11603875Y-16103604D01*
G01X11627002Y-14097000D02*
G01X12160402Y-14097000D01*
G01X12503302Y-13754100D01*
G01X12503302Y-13717924D01*
G01X12517926Y-13703300D01*
G01X13189102Y-13703300D01*
G01X13493902Y-14008100D01*
G01X7768475Y-16055073D02*
G01X7725829Y-16055073D01*
G01X7677302Y-16103600D01*
G01X13493902Y-14008100D02*
G01X13798702Y-13703300D01*
G01X15119502Y-13703300D01*
G01X15475102Y-14058900D01*
G01X13483475Y-16029673D02*
G01X13498444Y-16029673D01*
G01X13597775Y-16129004D01*
G01X15464675Y-16004273D02*
G01X15466944Y-16004273D01*
G01X15566275Y-16103604D01*
G01X17486244Y-16055073D02*
G01X17486244Y-16080473D01*
G01X17547475Y-16141704D01*
G01X19365844Y-16065504D02*
G01X19365844Y-16082751D01*
G01X19424797Y-16141704D01*
G01X19501002Y-14008104D02*
G01X19437506Y-14008104D01*
G01X19424802Y-13995400D01*
G01X15475102Y-14058900D02*
G01X15830702Y-13703300D01*
G01X17151502Y-13703300D01*
G01X17494402Y-14046200D01*
G01X1193800Y-7874000D02*
G01X1193800Y-10084910D01*
G01X1464991Y-10356101D01*
G01X2150791Y-10356101D02*
G01X2150791Y-11051883D01*
G01X2155007Y-11056099D01*
G01X2344999Y-10356101D02*
G01X2344999Y-10330701D01*
G01X2675199Y-10000501D01*
G01X2932887Y-10000501D01*
G01X3045587Y-10113200D01*
G01X3045587Y-10613199D01*
G01X3045587Y-10854715D01*
G01X2952902Y-10947400D01*
G01X2952902Y-11513497D01*
G01X2332299Y-12134101D01*
G01X2154499Y-12311901D01*
G01X2154499Y-12821907D01*
G01X2142307Y-12834099D01*
G01X2154499Y-12311901D02*
G01X1976699Y-12134101D01*
G01X1452291Y-12134101D01*
G01X1452291Y-12210301D01*
G01X1051491Y-12611100D01*
G01X1022502Y-12611100D01*
G01X2142307Y-12834099D02*
G01X2193107Y-12834099D01*
G01X2243907Y-12884899D01*
G01X1126307Y-14317993D02*
G01X1126307Y-14326240D01*
G01X1035412Y-14417135D01*
G01X7048500Y-3987800D02*
G01X7048500Y-3886200D01*
G01X7124700Y-3810000D01*
G01X7048500Y-3987800D02*
G01X6667500Y-4368800D01*
G01X8333613Y-5528500D02*
G01X7263882Y-5528500D01*
G01X7235941Y-5500559D01*
G01X5994395Y-6077699D02*
G01X5994395Y-6026899D01*
G01X6095995Y-5925299D01*
G01X6144197Y-5925299D01*
G01X6163996Y-5905500D01*
G01X8572500Y-3352800D02*
G01X8572500Y-2601900D01*
G01X8585200Y-2589200D01*
G01X8496300Y-2500300D01*
G01X6705600Y-2500300D01*
G01X6629400Y-2576500D01*
G01X939800Y-5295900D02*
G01X1701800Y-4533900D01*
G01X1905000Y-4533900D01*
G01X3962400Y-3492500D02*
G01X4076700Y-3378200D01*
G01X4672000Y-3378200D01*
G01X4773600Y-3479800D01*
G01X5027600Y-3733800D01*
G01X5510200Y-3733800D01*
G01X5637200Y-3606800D01*
G01X1193800Y-5600700D02*
G01X1193800Y-5283200D01*
G01X1854200Y-4622800D01*
G01X1981200Y-4622800D01*
G01X3873500Y-4965700D02*
G01X3924300Y-4914900D01*
G01X4268800Y-4914900D01*
G01X4649800Y-5295900D01*
G01X6299200Y-9194800D02*
G01X6299200Y-9139504D01*
G01X6202096Y-9042400D01*
G01X6151296Y-9042400D01*
G01X5414696Y-8305800D01*
G01X5414696Y-7620000D01*
G01X5186096Y-7391400D01*
G01X5109896Y-7391400D01*
G01X4982896Y-7264400D01*
G01X4982896Y-7137400D01*
G01X5080000Y-6235700D02*
G01X5164404Y-6235700D01*
G01X5215204Y-6286500D01*
G01X5080000Y-6362700D02*
G01X5164404Y-6362700D01*
G01X5215204Y-6413500D01*
G01X5537200Y-6400800D02*
G01X6151296Y-6400800D01*
G01X6163996Y-6413500D01*
G01X5435600Y-6426200D02*
G01X5549900Y-6540500D01*
G01X6163996Y-6540500D01*
G01X5486400Y-7899400D02*
G01X6202096Y-7899400D01*
G01X5461000Y-7569200D02*
G01X5664200Y-7772400D01*
G01X6202096Y-7772400D01*
G01X4978400Y-7645400D02*
G01X5105400Y-7772400D01*
G01X5253304Y-7772400D01*
G01X5080000Y-7645400D02*
G01X5253304Y-7645400D01*
G01X6202096Y-8026400D02*
G01X6379896Y-8026400D01*
G01X6481496Y-7924800D01*
G01X9229598Y-7035800D02*
G01X9233599Y-7031799D01*
G01X9250096Y-8178800D02*
G01X9072296Y-8356600D01*
G01X9072296Y-8915197D02*
G01X9258999Y-9101899D01*
G01X8843696Y-7035800D02*
G01X8488096Y-6680200D01*
G01X8488096Y-5427802D01*
G01X8954199Y-4961699D01*
G01X9233599Y-4961699D01*
G01X9072296Y-8712200D02*
G01X8462696Y-8712200D01*
G01X7573696Y-9601200D01*
G01X7573696Y-9931400D01*
G01X8767496Y-11125200D01*
G01X8996096Y-11125200D01*
G01X9021496Y-11150600D01*
G01X9250299Y-11150600D02*
G01X9271699Y-11171999D01*
G01X9072296Y-11150600D02*
G01X9072296Y-11176000D01*
G01X9275496Y-12446000D02*
G01X9097696Y-12623800D01*
G01X9097696Y-13042697D01*
G01X9297099Y-13242099D01*
G01X9275496Y-14528800D02*
G01X9097696Y-14706600D01*
G01X9097696Y-15112797D01*
G01X9297099Y-15312199D01*
G01X6202096Y-8153400D02*
G01X6379896Y-8153400D01*
G01X6710096Y-8483600D01*
G01X11028096Y-9093200D02*
G01X11218799Y-9093200D01*
G01X11227499Y-9101899D01*
G01X11002696Y-7035800D02*
G01X11198098Y-7035800D01*
G01X11202099Y-7031799D01*
G01X11180496Y-5359400D02*
G01X11180496Y-4983302D01*
G01X11202099Y-4961699D01*
G01X11028096Y-9093200D02*
G01X10875696Y-9093200D01*
G01X10621696Y-9347200D01*
G01X11180496Y-10312400D02*
G01X11053496Y-10439400D01*
G01X11053496Y-10985297D01*
G01X11240199Y-11171999D01*
G01X11256696Y-12446000D02*
G01X11078896Y-12623800D01*
G01X11078896Y-13055397D01*
G01X11265599Y-13242099D01*
G01X11256696Y-14528800D02*
G01X11231296Y-14528800D01*
G01X11078896Y-14681200D01*
G01X11078896Y-15112797D01*
G01X11265599Y-15299499D01*
G01X6202096Y-8280400D02*
G01X6354496Y-8280400D01*
G01X6405296Y-8331200D01*
G01X11078896Y-8813800D02*
G01X11231296Y-8813800D01*
G01X11434496Y-9093200D02*
G01X11434496Y-9144000D01*
G01X11536096Y-9245600D01*
G01X13052298Y-9245600D01*
G01X13195999Y-9101899D01*
G01X7446696Y-8915400D02*
G01X7446696Y-9093200D01*
G01X7700696Y-9347200D01*
G01X7726096Y-9347200D01*
G01X11180496Y-10998200D02*
G01X12450496Y-10998200D01*
G01X12577496Y-11125200D01*
G01X13149199Y-11125200D02*
G01X13195999Y-11171999D01*
G01X12856896Y-7289800D02*
G01X12912598Y-7289800D01*
G01X13170599Y-7031799D01*
G01X13161696Y-5435600D02*
G01X13161696Y-4970602D01*
G01X13170599Y-4961699D01*
G01X12653696Y-11125200D02*
G01X12653696Y-11099800D01*
G01X12907696Y-12446000D02*
G01X12907696Y-12915697D01*
G01X13234099Y-13242099D01*
G01X13212496Y-14528800D02*
G01X13034696Y-14706600D01*
G01X13034696Y-15112797D01*
G01X13234099Y-15312199D01*
G01X6202096Y-8407400D02*
G01X6329096Y-8407400D01*
G01X6710096Y-8788400D01*
G01X9461995Y-9101899D02*
G01X9461995Y-9076499D01*
G01X9639795Y-8898699D01*
G01X14643595Y-8898699D01*
G01X14795995Y-9051099D01*
G01X14872195Y-9051099D02*
G01X14922995Y-9101899D01*
G01X15164499Y-9101899D01*
G01X14846795Y-9051099D02*
G01X14846795Y-8466899D01*
G01X15139099Y-8174596D01*
G01X15139099Y-7285596D02*
G01X15139099Y-7031799D01*
G01X15139099Y-5329796D02*
G01X15139099Y-4961699D01*
G01X15151799Y-10384396D02*
G01X15126399Y-10384396D01*
G01X14948599Y-10562196D01*
G01X14948599Y-10968799D01*
G01X15151799Y-11171999D01*
G01X15202599Y-12441796D02*
G01X15405799Y-12644996D01*
G01X15405799Y-13038899D01*
G01X15202599Y-13242099D01*
G01X15202599Y-14549996D02*
G01X15151799Y-14549996D01*
G01X14999399Y-14702396D01*
G01X14999399Y-15108999D01*
G01X15202599Y-15312199D01*
G01X6202096Y-8661400D02*
G01X6202096Y-8534400D01*
G01X6202096Y-8661400D02*
G01X6354496Y-8661400D01*
G01X6710096Y-9017000D01*
G01X13406996Y-9101899D02*
G01X13406996Y-9152699D01*
G01X13559396Y-9305099D01*
G01X16810596Y-9305099D01*
G01X17013796Y-9101899D01*
G01X17115396Y-9101899D02*
G01X17115396Y-9330499D01*
G01X17115396Y-10371899D02*
G01X16937596Y-10549699D01*
G01X16937596Y-10989297D01*
G01X17120299Y-11171999D01*
G01X17293196Y-7095299D02*
G01X17171099Y-7095299D01*
G01X17107599Y-7031799D01*
G01X16243999Y-6168199D01*
G01X16243999Y-5444299D01*
G01X16726599Y-4961699D01*
G01X17107599Y-4961699D01*
G01X17166196Y-12454699D02*
G01X16988396Y-12632499D01*
G01X16988396Y-13059397D01*
G01X17171099Y-13242099D01*
G01X17166196Y-14537499D02*
G01X17140796Y-14537499D01*
G01X16988396Y-14689899D01*
G01X16988396Y-15129497D01*
G01X17171099Y-15312199D01*
G01X6202096Y-8788400D02*
G01X6379896Y-8788400D01*
G01X6710096Y-9118600D01*
G01X14930996Y-9000299D02*
G01X14981796Y-8949499D01*
G01X16912196Y-8949499D01*
G01X16962996Y-8898699D01*
G01X18766396Y-8898699D01*
G01X18969596Y-9101899D01*
G01X19071196Y-9101899D02*
G01X19071196Y-8771699D01*
G01X19076099Y-8766797D01*
G01X19279299Y-7090397D02*
G01X19134696Y-7090397D01*
G01X19076099Y-7031799D01*
G01X18288699Y-6244399D01*
G01X18288699Y-5418899D01*
G01X18745899Y-4961699D01*
G01X19076099Y-4961699D01*
G01X19088799Y-9897097D02*
G01X18885599Y-10100297D01*
G01X18885599Y-10968799D01*
G01X19088799Y-11171999D01*
G01X19139599Y-12335497D02*
G01X19342799Y-12538697D01*
G01X19342799Y-13038899D01*
G01X19139599Y-13242099D01*
G01X19114199Y-13961097D02*
G01X19342799Y-14189697D01*
G01X19342799Y-15108999D01*
G01X19139599Y-15312199D01*
G01X6202096Y-8915400D02*
G01X6278296Y-8915400D01*
G01X6456096Y-9093200D01*
G01X15151595Y-8873299D02*
G01X15176995Y-8847899D01*
G01X18555195Y-8847899D01*
G01X18936195Y-8466899D01*
G01X19850595Y-8466899D01*
G01X20129995Y-8746299D01*
G01X21018995Y-9101899D02*
G01X20891995Y-8974899D01*
G01X20891995Y-7323899D01*
G01X21044395Y-7171499D01*
G01X21044395Y-7044499D01*
G01X21044599Y-7031799D01*
G01X21044395Y-7044499D02*
G01X20866595Y-6866699D01*
G01X20866595Y-5139703D01*
G01X21044599Y-4961699D01*
G01X21069999Y-9101899D02*
G01X21247799Y-9279699D01*
G01X21247799Y-10981499D01*
G01X21057299Y-11171999D01*
G01X20904899Y-11324399D01*
G01X20904899Y-13038899D01*
G01X21108099Y-13242099D01*
G01X21311299Y-13445299D01*
G01X21311299Y-15108999D01*
G01X21108099Y-15312199D01*
G01X2527300Y-3403600D02*
G01X2527300Y-3695700D01*
G01X2463800Y-3759200D01*
G01X3338500Y-4633900D01*
G01X3338500Y-5930900D01*
G01X3313100Y-5956300D01*
G01X3378200Y-6021400D01*
G01X3378200Y-6489700D01*
G01X3378200Y-6021400D02*
G01X4038600Y-6021400D01*
G01X4103700Y-5956300D01*
G01X2755900Y-3403600D02*
G01X2755900Y-3721100D01*
G01X2717800Y-3759200D01*
G01X2717800Y-3911600D01*
G01X3860800Y-5054600D01*
G01X3860800Y-5461000D01*
G01X4292600Y-5892800D01*
G01X4292600Y-5943600D01*
G01X4303700Y-5956300D01*
G01X4292600Y-5943600D02*
G01X3746500Y-6489700D01*
G01X3632200Y-6489700D01*
G01X1714500Y-2908300D02*
G01X1714500Y-2298992D01*
G01X1714792Y-2298700D02*
G01X2095792Y-1917700D01*
G01X2095792Y-1757108D02*
G01X2100301Y-1752600D01*
G01X2095792Y-1866900D02*
G01X2578392Y-1866900D01*
G01X2595956Y-1879600D01*
G01X2578392Y-1866900D02*
G01X2578392Y-1393787D01*
G01X2576500Y-1391895D01*
G01X2691511Y-1391895D01*
G01X2811501Y-1271905D01*
G01X2832405Y-1271905D01*
G01X3111500Y-1551000D01*
G01X1612900Y-1816100D02*
G01X1747799Y-1816100D01*
G01X1612900Y-1816100D02*
G01X1093407Y-1816100D01*
G01X1035088Y-1757782D01*
G01X7714299Y-5957759D02*
G01X7663499Y-5906959D01*
G01X7663499Y-5701501D01*
G01X7638898Y-5676900D01*
G01X7663499Y-5906959D02*
G01X7587299Y-5830759D01*
G01X7307899Y-5830759D01*
G01X6801002Y-6057900D02*
G01X6801002Y-4951959D01*
G01X5708802Y-3859759D01*
G01X5708802Y-3427959D02*
G01X5505602Y-3224759D01*
G01X5327802Y-3224759D01*
G01X5124602Y-3021559D01*
G01X5124602Y-2919959D01*
G01X4083202Y-1878559D02*
G01X2967685Y-1878559D01*
G01X2966644Y-1879600D01*
G01X6902958Y-6057900D02*
G01X6822313Y-6138545D01*
G01X6822313Y-10481945D01*
G01X6644513Y-10659745D02*
G01X6644513Y-11650345D01*
G01X7025513Y-12031345D02*
G01X7025513Y-12259945D01*
G01X6898513Y-12386945D01*
G01X6898513Y-12721399D01*
G01X11252200Y-2451100D02*
G01X11252200Y-2527300D01*
G01X11379200Y-2654300D01*
G01X11379200Y-2755900D02*
G01X11074400Y-3060700D01*
G01X11025149Y-3060700D01*
G01X11252200Y-2451100D02*
G01X11125200Y-2324100D01*
G01X10668000Y-2324100D01*
G01X10617200Y-2374900D01*
G01X10617200Y-2857500D01*
G01X10541000Y-2933700D01*
G01X10488651Y-2933700D01*
G01X11379200Y-2730500D02*
G01X11518900Y-2870200D01*
G01X14274800Y-2870200D01*
G01X14300200Y-2895600D01*
G01X14705051Y-2895600D02*
G01X14717751Y-2908300D01*
G01X14528800Y-2895600D02*
G01X14579600Y-2946400D01*
G01X14579600Y-3048000D01*
G01X14630400Y-3098800D01*
G01X14935200Y-3098800D01*
G01X14986000Y-3048000D01*
G01X15241549Y-3048000D02*
G01X15254249Y-3035300D01*
G01X15062200Y-3048000D02*
G01X15062200Y-2971800D01*
G01X17983200Y-2743200D02*
G01X18376900Y-2743200D01*
G01X18376900Y-2743200D02*
G01X18554700Y-2565400D01*
G01X18921451Y-2565400D01*
G01X18972251Y-2616200D01*
G01X18972251Y-2806700D02*
G01X18870651Y-2908300D01*
G01X18845251Y-2908300D01*
G01X18972251Y-2752801D02*
G01X19242049Y-3022600D01*
G01X19369049Y-3022600D01*
G01X19381749Y-3035300D01*
G01X11074400Y-3060700D02*
G01X11074400Y-3086100D01*
G01X11252200Y-3263900D01*
G01X4876800Y-3898900D02*
G01X4849800Y-3898900D01*
G01X4773600Y-3822700D01*
G01X4876800Y-3898900D02*
G01X4773600Y-4002100D01*
G01X4773600Y-4660900D01*
G54D42*
G01X20287799Y-7385501D02*
G01X8360911Y-7385501D01*
G01X7924800Y-7385501D01*
G54D43*
G01X8232013Y-7514399D02*
G01X8360911Y-7385501D01*
G01X8384413Y-7361999D01*
G54D42*
G01X20332700Y-5716587D02*
G01X20332700Y-6538912D01*
G01X20332700Y-7340600D01*
G54D43*
G01X19509613Y-7361999D02*
G01X20332700Y-6538912D01*
G01X20347813Y-6523799D01*
G54D42*
G01X20444587Y-5604700D02*
G01X20347813Y-5701475D01*
G01X20332700Y-5716587D01*
G54D43*
G01X20347813Y-5701475D02*
G01X20347813Y-5625275D01*
G54D42*
G01X7629288Y-16195590D02*
G01X7634897Y-16201199D01*
G01X7812697Y-16378999D01*
G01X7835900Y-15678601D02*
G01X8411711Y-15678601D01*
G01X20275099Y-15678601D01*
G54D43*
G01X8143113Y-15947199D02*
G01X8411711Y-15678601D01*
G01X8574913Y-15515399D01*
G54D42*
G01X20320000Y-15633700D02*
G01X20320000Y-14895512D01*
G01X20320000Y-13946187D01*
G54D43*
G01X19700113Y-15515399D02*
G01X20320000Y-14895512D01*
G01X20360513Y-14854999D01*
G54D42*
G01X20320000Y-13946187D02*
G01X20360513Y-13905675D01*
G01X20457287Y-13808900D01*
G01X7785100Y-11551101D02*
G01X18485986Y-11551101D01*
G01X20236999Y-11551101D01*
G54D43*
G01X18392013Y-11645075D02*
G01X18485986Y-11551101D01*
G01X18671413Y-11365675D01*
G54D42*
G01X20281900Y-11506200D02*
G01X20281900Y-10745787D01*
G01X20281900Y-9831387D01*
G54D43*
G01X19662013Y-11365675D02*
G01X20281900Y-10745787D01*
G01X20347813Y-10679875D01*
G54D42*
G01X20281900Y-9831387D02*
G01X20347813Y-9765475D01*
G01X20444587Y-9668700D01*
G01X19598297Y-14308899D02*
G01X19598513Y-14308899D01*
G01X20157313Y-14308899D01*
G01X8108798Y-9436100D02*
G01X18464212Y-9436100D01*
G01X20320000Y-9436100D01*
G54D43*
G01X18341213Y-9559099D02*
G01X18464212Y-9436100D01*
G01X18595213Y-9305099D01*
G54D42*
G01X20320000Y-9436100D02*
G01X20320000Y-8647112D01*
G01X20320000Y-7785100D01*
G54D43*
G01X19662013Y-9305099D02*
G01X20320000Y-8647112D01*
G01X20525613Y-8441499D01*
G54D42*
G01X7937500Y-13633901D02*
G01X18498686Y-13633901D01*
G01X20262399Y-13633901D01*
G54D43*
G01X18407888Y-13724699D02*
G01X18498686Y-13633901D01*
G01X18687288Y-13445299D01*
G54D42*
G01X20307300Y-13589000D02*
G01X20307300Y-12841287D01*
G01X20307300Y-11849100D01*
G54D43*
G01X19703288Y-13445299D02*
G01X20307300Y-12841287D01*
G01X20363688Y-12784899D01*
G01X18866523Y-1219721D02*
G01X18884900Y-1238098D01*
G54D42*
G01X18866523Y-1208272D02*
G01X18866523Y-1219721D01*
G01X18866523Y-1419264D01*
G54D43*
G01X18963513Y-1494511D02*
G01X18963513Y-1516254D01*
G54D42*
G01X895407Y-14417135D02*
G01X895407Y-14290135D01*
G01X895407Y-14239335D01*
G01X895407Y-14211294D01*
G01X819207Y-14135094D01*
G01X815213Y-14131099D01*
G54D43*
G01X819207Y-14213935D02*
G01X819207Y-14163135D01*
G01X819207Y-14135094D01*
G54D42*
G01X7198487Y-12221400D02*
G01X7118407Y-12301480D01*
G01X7014987Y-12404900D01*
G01X7014987Y-13072755D01*
G01X1115187Y-11878500D02*
G01X1747228Y-11878500D01*
G01X1881797Y-11878500D01*
G54D43*
G01X19037206Y-1111093D02*
G01X19088006Y-1161893D01*
G54D42*
G01X19456396Y-1111093D02*
G01X19761196Y-1111093D01*
G01X19805493Y-1111093D01*
G01X838200Y-2032000D02*
G01X715124Y-1908924D01*
G01X565087Y-1758886D01*
G01X1180808Y-2298700D02*
G01X964908Y-2082800D01*
G01X914108Y-2032000D01*
G54D43*
G01X715124Y-1457808D02*
G01X715124Y-1908924D01*
G01X715124Y-1959724D01*
G54D42*
G01X10792587Y-1337500D02*
G01X11114684Y-1659598D01*
G01X11165484Y-1710398D01*
G54D43*
G01X10785899Y-1659598D02*
G01X11114684Y-1659598D01*
G01X11116099Y-1659598D01*
G01X1747799Y-1816100D02*
G01X1806118Y-1757782D01*
G54D42*
G01X7274542Y-6041255D02*
G01X7274542Y-5864116D01*
G01X7274542Y-5851896D01*
G54D43*
G01X7274542Y-5864116D02*
G01X7080758Y-6057900D01*
G54D42*
G01X6801002Y-6057900D02*
G01X6902958Y-6057900D01*
G01X7080758Y-6057900D01*
G01X7257898Y-6057900D01*
G01X6801002Y-11519657D02*
G01X6801002Y-11806834D01*
G01X6801002Y-13017190D01*
G54D43*
G01X6644513Y-11650345D02*
G01X6801002Y-11806834D01*
G01X7025513Y-12031345D01*
G54D42*
G01X6649009Y-10628737D02*
G01X6649009Y-10655249D01*
G01X6649009Y-11367663D01*
G54D43*
G01X6649009Y-10655249D02*
G01X6644513Y-10659745D01*
G54D42*
G01X4940300Y-2768600D02*
G01X4973244Y-2768600D01*
G01X5676900Y-2768600D01*
G54D43*
G01X5124602Y-2919959D02*
G01X4973244Y-2768600D01*
G01X4083202Y-1878559D01*
G01X7014987Y-13072755D02*
G01X7118407Y-12969335D01*
G01X4573600Y-4660900D02*
G01X4599000Y-4635500D01*
G01X4635500Y-4599000D01*
G01X4521200Y-4114800D02*
G01X4572000Y-4114800D01*
G01X4633900Y-4114800D01*
G01X19596100Y-3481095D02*
G01X19672300Y-3404895D01*
G01X19700596Y-3376600D01*
G01X15481300Y-3506495D02*
G01X15557500Y-3430295D01*
G01X15598496Y-3389300D01*
G01X11252200Y-3506495D02*
G01X11328400Y-3430295D01*
G01X11369396Y-3389300D01*
G01X11025149Y-2679700D02*
G01X10974349Y-2628900D01*
G01X10898149Y-2552700D01*
G01X7456500Y-4914900D02*
G01X7405700Y-4914900D01*
G01X7126300Y-4914900D01*
G01X7761300Y-6794500D02*
G01X7456500Y-6794500D01*
G01X7380300Y-6794500D01*
G01X5746902Y-9296400D02*
G01X5619902Y-9296400D01*
G01X5507304Y-9296400D01*
G01X3491802Y-12721399D02*
G01X3415602Y-12721399D01*
G01X2920302Y-12721399D01*
G01X1737601Y-12834099D02*
G01X1661401Y-12834099D01*
G01X1642308Y-12834099D01*
G01X3316300Y-6616700D02*
G01X3163900Y-6464300D01*
G01X3113100Y-6413500D01*
G01X1219200Y-6451600D02*
G01X1219200Y-6477000D01*
G01X1219200Y-6883400D01*
G01X1219200Y-6940398D01*
G01X9004300Y-2347900D02*
G01X9461500Y-1890700D01*
G01X9641802Y-1710398D01*
G01X11671300Y-2500300D02*
G01X11671300Y-2525700D01*
G01X11671300Y-2805100D01*
G01X11616898Y-1190399D02*
G01X11459299Y-1032800D01*
G01X11671300Y-2957500D02*
G01X11671300Y-3135300D01*
G01X11671300Y-3189300D01*
G01X9080500Y-1458900D02*
G01X9055100Y-1458900D01*
G01X8902700Y-1458900D01*
G01X14160500Y-2360600D02*
G01X14160500Y-2208200D01*
G01X14160500Y-1897299D01*
G01X14423598Y-1190399D02*
G01X14423598Y-885599D01*
G01X14423598Y-880400D01*
G01X15024100Y-1751000D02*
G01X15278100Y-1497000D01*
G01X15316200Y-1458900D01*
G01X16528898Y-2411496D02*
G01X16528898Y-2538496D01*
G01X16528898Y-2590749D01*
G01X5520004Y-6616700D02*
G01X6205804Y-6616700D01*
G01X6282004Y-6616700D01*
G01X6332804Y-6404508D02*
G01X6561404Y-6175908D01*
G01X6660998Y-6076315D01*
G01X18685299Y-1380198D02*
G01X18659899Y-1354798D01*
G01X18576498Y-1271397D01*
G01X19456396Y-1462104D02*
G01X19424650Y-1493850D01*
G01X11512702Y-7518400D02*
G01X11512702Y-7543800D01*
G01X11512702Y-7721600D01*
G01X11512702Y-7785100D01*
G01X17405502Y-7861300D02*
G01X17481702Y-7861300D01*
G01X17684902Y-7861300D01*
G01X17456302Y-9537700D02*
G01X17456302Y-9664700D01*
G01X17456302Y-9918700D01*
G01X14357502Y-9753600D02*
G01X14357502Y-9715500D01*
G01X14357502Y-9575800D01*
G01X14357502Y-9753600D02*
G01X14357502Y-9766300D01*
G01X14167002Y-9956800D02*
G01X14154302Y-9956800D01*
G01X13595502Y-9956800D01*
G01X13519302Y-9956800D01*
G01X11512702Y-9918700D02*
G01X11500002Y-9906000D01*
G01X11157102Y-9563100D01*
G01X11144402Y-9550400D01*
G01X10611002Y-9550400D02*
G01X10598302Y-9563100D01*
G01X10547502Y-9613900D01*
G01X10458602Y-9702800D01*
G01X10255402Y-9956800D02*
G01X9696602Y-9956800D01*
G01X9620402Y-9956800D01*
G01X1464991Y-10356101D02*
G01X2150791Y-10356101D01*
G01X2344999Y-10356101D01*
G01X939800Y-5600700D02*
G01X939800Y-5295900D01*
G01X939800Y-5283200D01*
G01X8310296Y-7035800D02*
G01X8843696Y-7035800D01*
G01X9229598Y-7035800D01*
G01X9072296Y-8356600D02*
G01X9072296Y-8712200D01*
G01X9072296Y-8915197D01*
G01X9021496Y-11150600D02*
G01X9072296Y-11150600D01*
G01X9250299Y-11150600D01*
G01X12577496Y-11125200D02*
G01X12653696Y-11125200D01*
G01X13149199Y-11125200D01*
G01X14795995Y-9051099D02*
G01X14846795Y-9051099D01*
G01X14872195Y-9051099D01*
G01X17013796Y-9101899D02*
G01X17115396Y-9101899D01*
G01X17132999Y-9101899D01*
G01X18969596Y-9101899D02*
G01X19071196Y-9101899D01*
G01X19101499Y-9101899D01*
G01X20637995Y-9101899D02*
G01X21018995Y-9101899D01*
G01X21069999Y-9101899D01*
G01X1739900Y-2908300D02*
G01X1714500Y-2908300D01*
G01X1505102Y-2908300D01*
G01X2095792Y-1917700D02*
G01X2095792Y-1866900D01*
G01X2095792Y-1757108D01*
G01X11379200Y-2654300D02*
G01X11379200Y-2730500D01*
G01X11379200Y-2755900D01*
G01X14300200Y-2895600D02*
G01X14528800Y-2895600D01*
G01X14705051Y-2895600D01*
G01X14986000Y-3048000D02*
G01X15062200Y-3048000D01*
G01X15241549Y-3048000D01*
G01X18972251Y-2616200D02*
G01X18972251Y-2752801D01*
G01X18972251Y-2806700D01*
G01X9693699Y-1735798D02*
G01X9795299Y-1735798D01*
G01X10100099Y-1430998D01*
G01X9668299Y-1710398D02*
G01X9693699Y-1735798D01*
G01X10100099Y-1430998D02*
G01X10100099Y-1380198D01*
G01X10019084Y-1409700D02*
G01X10019084Y-812429D01*
G01X14423598Y-885599D02*
G01X14487098Y-885599D01*
G01X14677598Y-695099D01*
G54D42*
G01X19263487Y-537400D02*
G01X19154967Y-537400D01*
G01X18757900Y-934467D01*
G01X18757900Y-1111098D01*
G54D43*
G01X18901601Y-910399D02*
G01X19136487Y-910399D01*
G01X18861913Y-950087D02*
G01X18901601Y-910399D01*
G01X18861913Y-950087D02*
G01X18861913Y-1108773D01*
G54D42*
G01X10492613Y-1528954D02*
G01X10391690Y-1428031D01*
G01X10391690Y-1204339D01*
G01X10364164Y-1176812D01*
G01X10352715Y-1176812D01*
G01X10299700Y-1123798D01*
G54D43*
G01X10019084Y-812429D02*
G01X10124313Y-707199D01*
G01X10225913Y-707199D01*
G54D42*
G01X10675898Y-586461D02*
G01X10707732Y-586461D01*
G01X10744093Y-550100D01*
G01X10299700Y-1123798D02*
G01X10255250Y-1079348D01*
G01X10744093Y-550100D02*
G01X10792587Y-550100D01*
G01X10630243Y-661398D02*
G01X10630243Y-632116D01*
G01X10675898Y-586461D01*
G01X10255250Y-1079348D02*
G01X10255250Y-1036391D01*
G01X10630243Y-661398D01*
G01X10492613Y-1050099D02*
G01X10492613Y-1088199D01*
G01X10614603Y-1210189D01*
G01X10862051Y-1210189D01*
G01X10946354Y-1125886D01*
G54D43*
G01X10683113Y-735948D02*
G01X10683113Y-940625D01*
G01X10792587Y-1050099D01*
G01X14732673Y-1136672D02*
G01X14732673Y-963527D01*
G01X14807200Y-889000D01*
G01X14820900Y-889000D01*
G01X14969300Y-1037399D01*
G01X15097887Y-1037399D01*
G01X15110587Y-1050099D01*
G54D44*
G01X15110587Y-1837499D02*
G01X15236012Y-1712074D01*
G01X15236012Y-1659459D01*
G54D42*
G01X10998200Y-1138712D02*
G01X10998200Y-1111098D01*
G01X11285478Y-1138712D02*
G01X10998200Y-1138712D01*
G01X11458866Y-1312100D02*
G01X11285478Y-1138712D01*
G01X11526036Y-1312100D02*
G01X11458866Y-1312100D01*
G01X11576724Y-1362789D02*
G01X11526036Y-1312100D01*
G01X11657073Y-1362789D02*
G01X11576724Y-1362789D01*
G01X11707761Y-1312100D02*
G01X11657073Y-1362789D01*
G01X14272603Y-1312100D02*
G01X11707761Y-1312100D01*
G01X14994090Y-1441298D02*
G01X14889353Y-1546034D01*
G01X15032190Y-1441298D02*
G01X14994090Y-1441298D01*
G01X15097887Y-1375600D02*
G01X15032190Y-1441298D01*
G01X15097887Y-1350200D02*
G01X15097887Y-1375600D01*
G01X15110587Y-1337500D02*
G01X15097887Y-1350200D01*
G01X14907603Y-1743036D02*
G01X14907603Y-1931963D01*
G01X14889353Y-1724786D02*
G01X14907603Y-1743036D01*
G01X14889353Y-1546034D02*
G01X14889353Y-1724786D01*
G01X14841977Y-1997589D02*
G01X14690349Y-1997589D01*
G01X14907603Y-1931963D02*
G01X14841977Y-1997589D01*
G54D43*
G01X14810613Y-1337500D02*
G01X14810613Y-1214612D01*
G01X14732673Y-1136672D01*
G01X14518897Y-1203099D02*
G01X14436298Y-1203099D01*
G01X14592300Y-1276502D02*
G01X14518897Y-1203099D01*
G01X14436298Y-1203099D02*
G01X14423598Y-1190399D01*
G01X14605000Y-1276502D02*
G01X14592300Y-1276502D01*
G54D42*
G01X15072487Y-550100D02*
G01X15047087Y-524700D01*
G01X14983587Y-524700D01*
G01X14509750Y-1004317D02*
G01X14509750Y-1072816D01*
G01X14509750Y-1072816D02*
G01X14548459Y-1124948D01*
G01X14741575Y-1824800D02*
G01X14759814Y-1824800D01*
G01X14772513Y-1837499D01*
G01X15110587Y-550100D02*
G01X15072487Y-550100D01*
G01X14772513Y-1837499D02*
G01X14810613Y-1837499D01*
G01X14983587Y-524700D02*
G01X14907603Y-600685D01*
G01X14907603Y-644564D01*
G01X14880077Y-672090D01*
G01X14841977Y-672090D01*
G01X14509750Y-1004317D01*
G01X14671590Y-1217039D02*
G01X14671590Y-1335966D01*
G01X14644064Y-1363492D01*
G01X14644064Y-1451305D01*
G01X14759813Y-1567054D01*
G01X14759813Y-1795501D01*
G01X14741563Y-1813751D01*
G01X14741563Y-1824788D01*
G01X14548459Y-1124948D02*
G01X14579499Y-1124948D01*
G01X14671590Y-1217039D01*
G54D44*
G01X15235660Y-497961D02*
G01X15252027Y-514328D01*
G01X15252027Y-687473D01*
G01X15037800Y-901700D01*
G01X14903774Y-901700D01*
G01X14901234Y-899160D01*
G01X10492613Y-550100D02*
G01X10543413Y-600900D01*
G01X10543413Y-600900D02*
G01X10580636Y-600900D01*
G01X15171108Y-449701D02*
G01X15219368Y-497961D01*
G01X15235660Y-497961D01*
G01X14901234Y-899160D02*
G01X14884942Y-899160D01*
G01X14836682Y-850900D01*
G01X14791418Y-850900D01*
G01X14694573Y-947745D01*
G01X14694573Y-1152454D01*
G01X14755533Y-1213414D01*
G01X14755533Y-1231660D01*
G01X14735213Y-1251980D01*
G01X14735213Y-1423021D01*
G01X14795107Y-1482915D01*
G01X14795107Y-1505827D01*
G01X10580636Y-600900D02*
G01X10731836Y-449701D01*
G01X15171108Y-449701D01*
G01X14795107Y-1505827D02*
G01X14806053Y-1505827D01*
G01X14909800Y-1402080D01*
G01X14909800Y-1397000D01*
G54D43*
G01X17979598Y-2070298D02*
G01X17928798Y-2070298D01*
G01X17481398Y-2517699D01*
G01X18240799Y-1710398D02*
G01X18357850Y-1827449D01*
G01X18040350Y-2484450D02*
G01X17900650Y-2484450D01*
G01X18129250Y-2395550D02*
G01X18121767Y-2403033D01*
G01X18105976Y-2403033D01*
G01X18089609Y-2419400D01*
G01X18089609Y-2435191D01*
G01X18040350Y-2484450D01*
G01X18126499Y-1710398D02*
G01X18177299Y-1710398D01*
G01X18240799Y-1710398D01*
G01X18357850Y-1827449D02*
G01X18357850Y-2395550D01*
G01X18129250Y-2395550D01*
G54D44*
G01X19263487Y-1824799D02*
G01X19043587Y-2044700D01*
G01X18453100Y-2044700D01*
G54D42*
G01X14690349Y-1997589D02*
G01X14518853Y-1826093D01*
G01X14518853Y-1558350D01*
G01X14507888Y-1547386D01*
G01X14507888Y-1510224D01*
G01X14451073Y-1453408D01*
G01X14413911Y-1453408D01*
G01X14272603Y-1312100D01*
G54D44*
G01X16065500Y-2044700D02*
G01X15709900Y-1689100D01*
G01X18224500Y-2044700D02*
G01X18040211Y-2044700D01*
G01X18004849Y-2009338D01*
G01X17900515Y-2044700D02*
G01X16065500Y-2044700D01*
G01X18004849Y-2009338D02*
G01X17935877Y-2009338D01*
G01X17900515Y-2044700D01*
G01X14617700Y-1689100D02*
G01X14617700Y-1505763D01*
G01X14335498Y-799168D02*
G01X14379667Y-755000D01*
G01X14442130Y-755000D01*
G01X14486298Y-799168D01*
G01X14487319Y-799168D01*
G01X14652348Y-634139D01*
G01X14726575Y-634139D01*
G01X14810613Y-550100D01*
G01X14617700Y-1505763D02*
G01X14427735Y-1315799D01*
G01X14379667Y-1315799D01*
G01X14335498Y-1271631D01*
G01X14335498Y-799168D01*
G54D42*
G01X7027687Y-13085455D02*
G01X7027687Y-13221664D01*
G01X7000161Y-13249190D01*
G01X6166549Y-13393039D02*
G01X6146800Y-13412787D01*
G01X6146800Y-14719300D01*
G01X6043111Y-14822989D01*
G01X6032537Y-14822989D01*
G01X5794872Y-14822989D02*
G01X1655278Y-14822989D01*
G01X1653189Y-14820900D01*
G01X1130300Y-14820900D01*
G01X908107Y-14598707D01*
G01X908107Y-14429835D01*
G01X7014987Y-13072755D02*
G01X7027687Y-13085455D01*
G01X908107Y-14429835D02*
G01X895407Y-14417135D01*
G01X7000161Y-13249190D02*
G01X6296732Y-13249190D01*
G01X6270592Y-13223049D01*
G01X6202205Y-13223049D01*
G01X6153849Y-13271406D01*
G01X6153849Y-13339793D01*
G01X6166549Y-13352493D01*
G01X6166549Y-13393039D01*
G01X6032537Y-14822989D02*
G01X5983554Y-14774007D01*
G01X5983554Y-14761307D01*
G01X5935198Y-14712950D01*
G01X5866811Y-14712950D01*
G01X5818454Y-14761307D01*
G01X5818454Y-14799407D01*
G01X5794872Y-14822989D01*
G54D44*
G01X6769100Y-13157200D02*
G01X6800997Y-13157200D01*
G01X6927997Y-13030200D01*
G54D43*
G01X1219200Y-6477000D02*
G01X1231900Y-6489700D01*
G01X1511300Y-6489700D01*
G01X1693186Y-6671586D01*
G01X2688314Y-6671586D02*
G01X2870200Y-6489700D01*
G01X2688314Y-6671586D02*
G01X1693186Y-6671586D01*
G04 Track End*

M02*

