G04 Layer: DrillDrawingLayer*
G04 EasyEDA Pro v2.2.40.8, 2025-08-28 14:02:13*
G04 Gerber Generator version 0.3*
G04 Scale: 100 percent, Rotated: No, Reflected: No*
G04 Dimensions in millimeters*
G04 Leading zeros omitted, absolute positions, 4 integers and 5 decimals*
G04 Generated by one-click*
%FSLAX45Y45*%
%MOMM*%
%AMIconRect*4,1,4,0.2,-0.2,-0.2,-0.2,-0.2,0.2,0.2,0.2,0.2,-0.2,0*4,0,4,0.166667,-0.166667,0.166667,0.166667,-0.166667,0.166667,-0.166667,-0.166667,0.166667,-0.166667,0*%
%AMIconTriangle*4,1,3,-0.242567,0.171767,0.242567,0.171767,0,-0.2706,-0.242567,0.171767,0*4,0,3,-0.189767,0.1386,0,-0.1953,0.190167,0.1386,-0.189767,0.1386,0*%
%AMIconStar6*4,1,12,0.0862,0.1492,0.213233,0.123367,0.172367,0,0.213233,-0.1229,0.0862,-0.148733,0,-0.245767,-0.085767,-0.148733,-0.213267,-0.1229,-0.171933,0,-0.213267,0.1229,-0.085767,0.1492,0,0.245767,0.0862,0.1492,0*4,0,12,-0.000333,0.195333,-0.064333,0.122667,-0.169667,0.097667,-0.138333,-0.005333,-0.169667,-0.098,-0.064333,-0.122667,-0.000333,-0.195667,0.064333,-0.122667,0.169667,-0.098,0.138667,0.005,0.169667,0.098,0.064333,0.122333,-0.000333,0.195333,0*%
%AMIconStar4*4,1,8,-0.222667,0.222667,0,0.144667,0.222667,0.222667,0.144667,0,0.222667,-0.222667,0,-0.144667,-0.217433,-0.222667,-0.144667,0,-0.222667,0.222667,0*4,0,8,0.166667,-0.166667,0.108,0,0.166667,0.166667,0,0.108,-0.166667,0.166667,-0.108,0,-0.166667,-0.166667,0,-0.108,0.166667,-0.166667,0*%
%AMIconPlus*4,1,12,0.124,-0.2,-0.124,-0.2,-0.124,-0.124,-0.2,-0.124,-0.2,0.124,-0.124,0.124,-0.124,0.2,0.124,0.2,0.124,0.124,0.2,0.124,0.2,-0.124,0.124,-0.124,0.124,-0.2,0*4,0,12,0.090667,-0.166667,0.090667,-0.090667,0.166667,-0.090667,0.166667,0.090667,0.090667,0.090667,0.090667,0.166667,-0.090667,0.166667,-0.090667,0.090667,-0.166667,0.090667,-0.166667,-0.090667,-0.090667,-0.090667,-0.090667,-0.166667,0.090667,-0.166667,0*%
%AMIconX*4,1,16,0.2,-0.2,0.054533,-0.2,0,-0.145467,-0.054533,-0.2,-0.2,-0.2,-0.2,-0.054533,-0.145467,0,-0.2,0.054533,-0.2,0.2,-0.054533,0.2,0,0.145467,0.054533,0.2,0.2,0.2,0.2,0.054533,0.145467,0,0.2,-0.054533,0.2,-0.2,0*4,0,16,0.1668,-0.1664,0.1668,-0.068467,0.097933,0.000067,0.1668,0.068467,0.1668,0.1665,0.068467,0.1665,0,0.097933,-0.068467,0.1665,-0.1668,0.1665,-0.1668,0.068467,-0.097933,0.000067,-0.1668,-0.068467,-0.1668,-0.1664,-0.068467,-0.1664,0,-0.097933,0.068467,-0.1664,0.1668,-0.1664,0*%
%AMIconDiamond*4,1,4,0,-0.26,-0.26,0,0,0.26,0.26,0,0,-0.26,0*4,0,4,0,-0.203433,0.203433,0,0,0.2036,-0.203433,0,0,-0.203433,0*%
%AMIconRect2*4,1,6,0.2,-0.2,-0.2,-0.2,-0.2,0.2,-0.1668,0.1665,-0.166667,-0.166667,0.1668,-0.166667,0.2,-0.2,0*4,1,6,0.2,-0.2,0.1668,-0.166667,0.1668,0.1665,-0.1668,0.1665,-0.2,0.2,0.2,0.2,0.2,-0.2,0*4,1,6,0.133467,-0.133333,-0.133333,-0.133333,-0.133333,0.133467,-0.1,0.100133,-0.1,-0.1,0.100133,-0.1,0.133467,-0.133333,0*4,1,6,0.133467,-0.133333,0.100133,-0.1,0.100133,0.100133,-0.1,0.100133,-0.133333,0.133467,0.133467,0.133467,0.133467,-0.133333,0*%
%AMCharA*4,1,8,-0.122067,-0.1864,-0.1532,-0.174533,-0.015133,0.1864,0.016,0.1864,0.1532,-0.174533,0.122067,-0.1864,0.0764,-0.0662,-0.076133,-0.0662,-0.122067,-0.1864,0*4,0,3,-0.063333,-0.032867,0.063667,-0.032867,0.000333,0.1338,-0.063333,-0.032867,0*%
%AMCharB*4,1,17,-0.131133,-0.1894,-0.131133,0.1894,0.033533,0.1894,0.088067,0.172467,0.1114,0.151733,0.131133,0.114133,0.131,0.066467,0.114333,0.0338,0.094733,0.0128,0.086467,0.0084,0.094733,0.003867,0.114333,-0.017133,0.131,-0.0498,0.131133,-0.114133,0.1114,-0.151733,0.088067,-0.1726,0.033533,-0.1894,-0.131133,-0.1894,0*4,0,10,-0.0978,-0.156067,0.030867,-0.156067,0.073867,-0.142,0.085867,-0.130133,0.099533,-0.1028,0.099533,-0.0614,0.085867,-0.034533,0.073867,-0.0226,0.030867,-0.008667,-0.0978,-0.008667,-0.0978,-0.156067,0*4,0,10,-0.0978,0.024667,0.0308,0.024667,0.073867,0.039267,0.085867,0.051267,0.099533,0.078067,0.099533,0.102667,0.085867,0.130133,0.073867,0.142,0.030867,0.156067,-0.0978,0.156067,-0.0978,0.024667,0*%
%AMCharC*4,1,36,-0.027533,-0.1894,-0.071933,-0.1684,-0.1084,-0.130667,-0.125333,-0.096,-0.1428,-0.041333,-0.1428,0.041333,-0.1244,0.098,-0.105267,0.135067,-0.067533,0.171667,-0.027533,0.1894,0.038533,0.1894,0.083067,0.1684,0.119467,0.130667,0.1428,0.083,0.112867,0.0684,0.090867,0.113467,0.0614,0.142933,0.034733,0.156067,-0.0236,0.156067,-0.050333,0.142933,-0.079733,0.113467,-0.094067,0.084333,-0.109467,0.0386,-0.109467,-0.0386,-0.094067,-0.084333,-0.079733,-0.113467,-0.050333,-0.142867,-0.0236,-0.156067,0.034733,-0.156067,0.0614,-0.142867,0.090867,-0.113467,0.112867,-0.0684,0.1428,-0.083,0.119467,-0.130667,0.083067,-0.1684,0.038533,-0.1894,-0.027533,-0.1894,0*%
%AMCharD*4,1,12,-0.132,-0.1894,-0.132,0.1894,-0.000067,0.1894,0.054533,0.172467,0.0968,0.130933,0.1144,0.096067,0.132,0.041333,0.132,-0.041333,0.113467,-0.098267,0.093933,-0.134933,0.054533,-0.1726,-0.000067,-0.1894,-0.132,-0.1894,0*4,0,12,-0.098667,-0.156067,-0.002667,-0.156067,0.040333,-0.142133,0.068333,-0.113467,0.083267,-0.0842,0.098667,-0.0386,0.098667,0.0386,0.083267,0.0842,0.068333,0.113467,0.040333,0.142133,-0.002667,0.156067,-0.098667,0.156067,-0.098667,-0.156067,0*%
%AMCharE*4,1,12,-0.123667,-0.1894,-0.123667,0.1894,0.123667,0.1894,0.123667,0.156067,-0.090333,0.156067,-0.090333,0.024667,0.0416,0.024667,0.0416,-0.008667,-0.090333,-0.008667,-0.090333,-0.156067,0.123667,-0.156067,0.123667,-0.1894,-0.123667,-0.1894,0*%
%AMCharF*4,1,11,-0.123667,-0.1894,-0.123667,0.1894,-0.090333,0.1894,0.123667,0.1894,0.123667,0.156067,-0.090333,0.156067,-0.090333,0.024667,0.0416,0.024667,0.0416,-0.008667,-0.090333,-0.008667,-0.090333,-0.1894,-0.123667,-0.1894,0*%
%ADD10C,0.254*%
%ADD11IconRect*%
%ADD12C,0.44X0.373333*%
%ADD13IconTriangle*%
%ADD14IconStar6*%
%ADD15IconStar4*%
%ADD16IconPlus*%
%ADD17IconX*%
%ADD18IconDiamond*%
%ADD19IconRect2*%
%ADD20CharA*%
%ADD21CharB*%
%ADD22CharC*%
%ADD23CharD*%
%ADD24CharE*%
%ADD25CharF*%
G75*


G04 Circle Start*
G54D10*
G01X1946833Y-8849690D02*
G03X2205559Y-8849690I129363J0D01*
G03X1946833Y-8849690I-129363J0D01*
G01X4290237Y-8851900D02*
G03X4548963Y-8851900I129363J0D01*
G03X4290237Y-8851900I-129363J0D01*
G01X1946833Y-6469710D02*
G03X2205559Y-6469710I129363J0D01*
G03X1946833Y-6469710I-129363J0D01*
G01X4296841Y-6469710D02*
G03X4555567Y-6469710I129363J0D01*
G03X4296841Y-6469710I-129363J0D01*
G04 Circle End*

G04 Drill Drawing Start*
G54D11*
G01X2076196Y-8849690D03*
G54D12*
G01X3111500Y-1550993D03*
G01X3111500Y-481007D03*
G54D13*
G01X565087Y-1457808D03*
G01X1035088Y-1757782D03*
G01X1035114Y-1137818D03*
G54D14*
G01X939800Y-16484600D03*
G01X21551900Y-16484600D03*
G01X21551900Y-1955800D03*
G54D15*
G01X2076196Y-6469710D03*
G01X4419600Y-8851900D03*
G01X4426204Y-6469710D03*
G54D16*
G01X2870200Y-6489700D03*
G01X3124200Y-6489700D03*
G01X3378200Y-6489700D03*
G01X3632200Y-6489700D03*
G54D17*
G01X1452301Y-12134088D03*
G01X1465001Y-10356088D03*
G01X1503101Y-13873988D03*
G01X2332299Y-12134088D03*
G01X2344999Y-10356088D03*
G01X2383099Y-13873988D03*
G54D18*
G01X5397500Y-3860800D03*
G01X5397500Y-3606800D03*
G01X5397500Y-3352800D03*
G01X5397500Y-3098800D03*
G01X6159500Y-3860800D03*
G01X6159500Y-3606800D03*
G01X6159500Y-3352800D03*
G01X6159500Y-3098800D03*
G54D19*
G01X4406214Y-1584211D03*
G01X4656214Y-1834210D03*
G01X4656214Y-604213D03*
G01X5156213Y-1584211D03*
G01X5656212Y-1834210D03*
G01X5656212Y-604213D03*
G01X5906211Y-1584211D03*
G01X6616014Y-1584211D03*
G01X6866014Y-1834210D03*
G01X6866014Y-604213D03*
G01X7366013Y-1584211D03*
G01X7866012Y-1834210D03*
G01X7866012Y-604213D03*
G01X8116011Y-1584211D03*
G54D20*
G01X3708400Y-1420398D03*
G01X3708400Y-720400D03*
G01X8826500Y-1420398D03*
G01X8826500Y-720400D03*
G01X9893300Y-1420398D03*
G01X9893300Y-720400D03*
G01X11391900Y-1420398D03*
G01X11391900Y-720400D03*
G01X14185900Y-1420398D03*
G01X14185900Y-720400D03*
G01X15722600Y-1420398D03*
G01X15722600Y-720400D03*
G01X18351500Y-1420398D03*
G01X18351500Y-720400D03*
G01X19862800Y-1420398D03*
G01X19862800Y-720400D03*
G54D21*
G01X2141499Y-1271905D03*
G01X2141499Y-1071905D03*
G01X2376500Y-1391905D03*
G01X2576500Y-1391905D03*
G01X2811501Y-1271905D03*
G01X2811501Y-1071905D03*
G01X4227800Y-2984500D03*
G01X5017800Y-2984500D03*
G01X10248900Y-3506500D03*
G01X10248900Y-2716500D03*
G01X11252200Y-3506500D03*
G01X11252200Y-2716500D03*
G01X14503400Y-3481100D03*
G01X14503400Y-2691100D03*
G01X15481300Y-3506500D03*
G01X15481300Y-2716500D03*
G01X18630900Y-3481100D03*
G01X18630900Y-2691100D03*
G01X19596100Y-3481100D03*
G01X19596100Y-2691100D03*
G54D22*
G01X1642301Y-12834087D03*
G01X1655001Y-11056087D03*
G01X1693101Y-14573987D03*
G01X1892300Y-12834087D03*
G01X1905000Y-11056087D03*
G01X1943100Y-14573987D03*
G01X2142300Y-12834087D03*
G01X2155000Y-11056087D03*
G01X2193100Y-14573987D03*
G01X6870700Y-3810000D03*
G01X6870700Y-3048000D03*
G01X7124700Y-3810000D03*
G01X7124700Y-3048000D03*
G01X7378700Y-3810000D03*
G01X7378700Y-3048000D03*
G01X7632700Y-3810000D03*
G01X7632700Y-3048000D03*
G01X7886700Y-3810000D03*
G01X7886700Y-3048000D03*
G01X8140700Y-3810000D03*
G01X8140700Y-3048000D03*
G01X8394700Y-3810000D03*
G01X8394700Y-3048000D03*
G54D23*
G01X3483399Y-1710398D03*
G01X3933401Y-1600398D03*
G01X3933401Y-1190399D03*
G01X3933401Y-880400D03*
G01X8601499Y-1710398D03*
G01X9051501Y-1600398D03*
G01X9051501Y-1190399D03*
G01X9051501Y-880400D03*
G01X9668299Y-1710398D03*
G01X10118301Y-1600398D03*
G01X10118301Y-1190399D03*
G01X10118301Y-880400D03*
G01X11166899Y-1710398D03*
G01X11616901Y-1600398D03*
G01X11616901Y-1190399D03*
G01X11616901Y-880400D03*
G01X13960899Y-1710398D03*
G01X14410901Y-1600398D03*
G01X14410901Y-1190399D03*
G01X14410901Y-880400D03*
G01X15497599Y-1710398D03*
G01X15947601Y-1600398D03*
G01X15947601Y-1190399D03*
G01X15947601Y-880400D03*
G01X18126499Y-1710398D03*
G01X18576501Y-1600398D03*
G01X18576501Y-1190399D03*
G01X18576501Y-880400D03*
G01X19637799Y-1710398D03*
G01X20087801Y-1600398D03*
G01X20087801Y-1190399D03*
G01X20087801Y-880400D03*
G54D24*
G01X685800Y-5283200D03*
G01X685800Y-3759200D03*
G01X939800Y-3759200D03*
G01X939800Y-5283200D03*
G01X1193800Y-3759200D03*
G01X1193800Y-5283200D03*
G01X1447800Y-3759200D03*
G01X1447800Y-5283200D03*
G01X1701800Y-5283200D03*
G01X1701800Y-3759200D03*
G01X1955800Y-5283200D03*
G01X1955800Y-3759200D03*
G01X2209800Y-5283200D03*
G01X2209800Y-3759200D03*
G01X2463800Y-5283200D03*
G01X2463800Y-3759200D03*
G01X2717800Y-5283200D03*
G01X2717800Y-3759200D03*
G01X2971800Y-5283200D03*
G01X2971800Y-3759200D03*
G01X3225800Y-5283200D03*
G01X3225800Y-3759200D03*
G01X3479800Y-5283200D03*
G01X3479800Y-3759200D03*
G01X3733800Y-5283200D03*
G01X3733800Y-3759200D03*
G01X3987800Y-5283200D03*
G01X3987800Y-5029200D03*
G01X3987800Y-4775200D03*
G01X3987800Y-4521200D03*
G01X3987800Y-4267200D03*
G01X3987800Y-4013200D03*
G01X3987800Y-3759200D03*
G54D25*
G01X1126307Y-14317993D03*
G01X1661401Y-12199099D03*
G01X1905000Y-4533900D03*
G01X1981200Y-4622800D03*
G01X2243907Y-12884899D03*
G01X2870200Y-3276600D03*
G01X3479800Y-2795600D03*
G01X3708400Y-2719400D03*
G01X3873500Y-4965700D03*
G01X3898900Y-2654300D03*
G01X3962400Y-3492500D03*
G01X4241800Y-2198700D03*
G01X4300614Y-1275397D03*
G01X4368800Y-2679700D03*
G01X4533900Y-2489200D03*
G01X4750499Y-6803199D03*
G01X4851400Y-4521200D03*
G01X4876800Y-3898900D03*
G01X4903800Y-5613400D03*
G01X4978400Y-7645400D03*
G01X4982896Y-7137400D03*
G01X5042599Y-5545899D03*
G01X5066602Y-12949999D03*
G01X5079009Y-5321300D03*
G01X5080000Y-6362700D03*
G01X5080000Y-6235700D03*
G01X5080000Y-7645400D03*
G01X5139004Y-12103100D03*
G01X5151704Y-7962900D03*
G01X5169599Y-13953299D03*
G01X5189804Y-7048500D03*
G01X5189804Y-6718300D03*
G01X5320602Y-13203999D03*
G01X5367604Y-6083300D03*
G01X5367604Y-5956300D03*
G01X5391302Y-10922000D03*
G01X5435600Y-6426200D03*
G01X5461000Y-7569200D03*
G01X5486400Y-7899400D03*
G01X5537200Y-6400800D03*
G01X5596204Y-7962900D03*
G01X5613400Y-3430600D03*
G01X5619902Y-10693400D03*
G01X5637200Y-3606800D03*
G01X5672404Y-7581900D03*
G01X5715699Y-6320599D03*
G01X5901004Y-14795500D03*
G01X5986196Y-5897702D03*
G01X5994395Y-6077699D03*
G01X6007095Y-6331699D03*
G01X6007095Y-6217399D03*
G01X6197600Y-3481400D03*
G01X6236399Y-13305599D03*
G01X6287199Y-11527599D03*
G01X6299200Y-3632200D03*
G01X6312599Y-5837999D03*
G01X6326200Y-4800600D03*
G01X6337999Y-5964999D03*
G01X6343498Y-4590898D03*
G01X6394298Y-4387698D03*
G01X6405296Y-8331200D03*
G01X6456096Y-9093200D03*
G01X6464999Y-5863399D03*
G01X6481496Y-7924800D03*
G01X6605600Y-9220200D03*
G01X6631000Y-4927600D03*
G01X6657213Y-12869100D03*
G01X6667500Y-4368800D03*
G01X6692900Y-3886200D03*
G01X6710096Y-9118600D03*
G01X6710096Y-9017000D03*
G01X6710096Y-8788400D03*
G01X6710096Y-8483600D03*
G01X6713804Y-12433300D03*
G01X6713804Y-8928100D03*
G01X6713804Y-8089900D03*
G01X6713804Y-6379108D03*
G01X6769100Y-13157200D03*
G01X6896799Y-8784399D03*
G01X6917004Y-6607708D03*
G01X6942404Y-9105900D03*
G01X6949313Y-12069000D03*
G01X6972300Y-2946400D03*
G01X7073900Y-5969000D03*
G01X7099300Y-6400800D03*
G01X7113600Y-4927600D03*
G01X7171004Y-6565900D03*
G01X7177786Y-12996100D03*
G01X7227900Y-7277100D03*
G01X7266000Y-9525000D03*
G01X7298004Y-8674100D03*
G01X7310704Y-13309600D03*
G01X7330313Y-9402000D03*
G01X7355713Y-7116000D03*
G01X7418400Y-9347200D03*
G01X7446696Y-8915400D03*
G01X7481900Y-6896100D03*
G01X7501204Y-4965700D03*
G01X7726096Y-9347200D03*
G01X7766202Y-13944600D03*
G01X7768475Y-16055073D03*
G01X7780604Y-5820308D03*
G01X8274202Y-11785600D03*
G01X8310296Y-7035800D03*
G01X8339404Y-8928100D03*
G01X8536813Y-11637200D03*
G01X8562213Y-13732700D03*
G01X8572500Y-3352800D03*
G01X8714613Y-11459400D03*
G01X8737600Y-3035300D03*
G01X8765413Y-13529500D03*
G01X9072296Y-11176000D03*
G01X9250096Y-8178800D03*
G01X9275496Y-14528800D03*
G01X9275496Y-12446000D03*
G01X9362313Y-3407600D03*
G01X9375013Y-9973500D03*
G01X9406204Y-5667908D03*
G01X9461995Y-9101899D03*
G01X9502013Y-9846500D03*
G01X9569602Y-11836400D03*
G01X9648075Y-15826473D03*
G01X9658502Y-14135100D03*
G01X9696602Y-10007600D03*
G01X9958349Y-3644900D03*
G01X10019084Y-1409700D03*
G01X10071100Y-2894305D03*
G01X10225913Y-707199D03*
G01X10440949Y-3365500D03*
G01X10518013Y-9541700D03*
G01X10543413Y-1451673D03*
G01X10621696Y-9347200D03*
G01X10683113Y-735948D03*
G01X11002696Y-7035800D03*
G01X11028096Y-9093200D03*
G01X11078896Y-8813800D03*
G01X11180496Y-10998200D03*
G01X11180496Y-10312400D03*
G01X11180496Y-5359400D03*
G01X11231296Y-8813800D03*
G01X11252200Y-3263900D03*
G01X11256696Y-14528800D03*
G01X11256696Y-12446000D03*
G01X11305413Y-10024300D03*
G01X11434496Y-9093200D03*
G01X11508613Y-9821100D03*
G01X11512702Y-7518400D03*
G01X11588902Y-5791200D03*
G01X11603875Y-15826473D03*
G01X11627002Y-14097000D03*
G01X11671300Y-2957500D03*
G01X11671300Y-2805100D03*
G01X11817502Y-11836400D03*
G01X11871604Y-2300300D03*
G01X12653696Y-11099800D03*
G01X12856896Y-7289800D03*
G01X12907696Y-12446000D03*
G01X13030200Y-3024200D03*
G01X13161696Y-5435600D03*
G01X13212496Y-14528800D03*
G01X13406996Y-9101899D03*
G01X13483475Y-16029673D03*
G01X13493902Y-11684000D03*
G01X13595502Y-10007600D03*
G01X13636198Y-2590998D03*
G01X13940998Y-2082998D03*
G01X14224000Y-2970505D03*
G01X14503400Y-2973095D03*
G01X14579600Y-2820695D03*
G01X14617700Y-1689100D03*
G01X14677598Y-695099D03*
G01X14909800Y-1397000D03*
G01X14930996Y-9000299D03*
G01X15062200Y-2971800D03*
G01X15064613Y-8881300D03*
G01X15139099Y-8174596D03*
G01X15139099Y-7285596D03*
G01X15139099Y-5329796D03*
G01X15151595Y-8873299D03*
G01X15151799Y-10384396D03*
G01X15202599Y-14549996D03*
G01X15202599Y-12441796D03*
G01X15236012Y-1659459D03*
G01X15369413Y-10100500D03*
G01X15379700Y-3189300D03*
G01X15415514Y-12238799D03*
G01X15464675Y-16004273D03*
G01X15559913Y-12119800D03*
G01X15598013Y-9871900D03*
G01X15617398Y-733199D03*
G01X15684500Y-1676400D03*
G01X16040100Y-2487905D03*
G01X16493698Y-3098998D03*
G01X17115396Y-10371899D03*
G01X17115396Y-9330499D03*
G01X17166196Y-14537499D03*
G01X17166196Y-12454699D03*
G01X17293196Y-7095299D03*
G01X17312513Y-10075100D03*
G01X17430902Y-11849100D03*
G01X17456302Y-9537700D03*
G01X17477613Y-13453300D03*
G01X17481702Y-7912100D03*
G01X17486244Y-16055073D03*
G01X17541113Y-9846500D03*
G01X17833213Y-11434000D03*
G01X17979598Y-2070298D03*
G01X17983200Y-2743200D03*
G01X18224500Y-2044700D03*
G01X18376900Y-2642895D03*
G01X18453100Y-2044700D03*
G01X18456699Y-1430998D03*
G01X18580100Y-2846095D03*
G01X18685299Y-1380198D03*
G01X18796000Y-1466698D03*
G01X18900013Y-11637200D03*
G01X18997651Y-2882900D03*
G01X19005702Y-9588500D03*
G01X19069202Y-11709400D03*
G01X19076099Y-8766797D03*
G01X19088799Y-9897097D03*
G01X19099251Y-2781300D03*
G01X19114199Y-13961097D03*
G01X19139599Y-12335497D03*
G01X19151600Y-1441298D03*
G01X19217513Y-14189900D03*
G01X19279299Y-7090397D03*
G01X19339814Y-8098599D03*
G01X19365844Y-16065504D03*
G01X19432600Y-3176600D03*
G01X19501002Y-14008104D03*
G01X19611213Y-8005000D03*
G01X19827113Y-13986700D03*
G01X20129995Y-8746299D03*
G01X20220813Y-8220900D03*
G01X20341798Y-1527099D03*
G01X20424013Y-8220900D03*
G01X20444587Y-12721526D03*
G01X20469987Y-1739074D03*
G01X20469987Y-1561274D03*
G01X20535900Y-2490800D03*
G01X20605598Y-2814498D03*
G01X20637995Y-9101899D03*
G01X20650196Y-9188293D03*
G01X20650196Y-9010493D03*
G04 Drill Drawing End*

M02*

