;TYPE=PLATED
;Layer: PTH_Through
;EasyEDA Pro Client v2.2.40.8, 2025-08-31 08:04:05
;Gerber Generator version 0.3
M48
METRIC,LZ,0000.00000
;Hole size 1 = 0.30480 METRIC
T01C0.30480
;Hole size 2 = 0.30500 METRIC
T02C0.30500
;Hole size 3 = 0.50002 METRIC
T03C0.50002
;Hole size 4 = 0.90002 METRIC
T04C0.90002
;Hole size 5 = 0.91440 METRIC
T05C0.91440
;Hole size 6 = 1.00000 METRIC
T06C1.00000
;Hole size 7 = 1.02000 METRIC
T07C1.02000
;Hole size 8 = 1.04999 METRIC
T08C1.04999
;Hole size 9 = 1.05999 METRIC
T09C1.05999
;Hole size 10 = 1.20000 METRIC
T10C1.20000
;Hole size 11 = 1.50002 METRIC
T11C1.50002
;Hole size 12 = 2.00000 METRIC
T12C2.00000
%
G05
G90
T01
X95.02013Y-98.465
X93.75013Y-99.735
X198.27113Y-139.867
X192.17513Y-141.89901
X196.11213Y-80.05
X193.39814Y-80.98599
X175.41113Y-98.465
X173.12513Y-100.751
X85.36813Y-116.372
X87.14613Y-114.594
X178.33213Y-114.34
X189.00013Y-116.372
X105.30713Y-95.29
X150.64613Y-88.813
X202.20813Y-82.209
X204.24013Y-82.209
X85.62213Y-137.32701
X87.65413Y-135.295
X174.77613Y-134.533
X204.44587Y-127.21526
X155.59913Y-121.198
X154.15514Y-122.38799
X155.98013Y-98.719
X153.69413Y-101.005
X115.08613Y-98.211
X113.05413Y-100.243
X42.418Y-21.987
X48.514Y-45.212
X105.43413Y-14.51673
X100.19084Y-14.097
X102.25913Y-7.07199
X106.83113Y-7.35948
X69.49313Y-120.69
X73.30313Y-94.02
X73.55713Y-71.16
X93.62313Y-34.076
X187.96Y-14.66698
X191.516Y-14.41298
X66.57213Y-128.691
X71.77786Y-129.961
X45.339Y-24.892
X43.00614Y-12.75397
X185.801Y-28.46095
X183.769Y-26.42895
X189.97651Y-28.829
X190.99251Y-27.813
X205.359Y-24.908
X206.05598Y-28.14498
X139.40998Y-20.82998
X136.36198Y-25.90998
X164.93698Y-30.98998
X179.79598Y-20.70298
X100.711Y-28.94305
X160.401Y-24.87905
X118.71604Y-23.003
X145.034Y-29.73095
X145.796Y-28.20695
X142.24Y-29.70505
X104.40949Y-33.655
X99.58349Y-36.449
X71.136Y-49.276
X65.294Y-48.26
X63.262Y-48.006
X74.819Y-68.961
X72.279Y-72.771
X74.184Y-93.472
X66.056Y-92.202
X72.66Y-95.25
X56.19902Y-106.934
X53.91302Y-109.22
X50.66602Y-129.5
X53.20602Y-132.03999
X16.61401Y-121.99099
X49.292Y-55.88
X69.723Y-29.464
X66.929Y-38.862
X70.739Y-59.69
X70.993Y-64.008
X206.50196Y-90.10493
X206.50196Y-91.88293
X204.69987Y-15.61274
X204.69987Y-17.39074
X53.67604Y-60.833
X75.01204Y-49.657
X53.67604Y-59.563
X71.71004Y-65.659
X67.13804Y-80.899
X72.98004Y-86.741
X83.39404Y-89.281
X56.72404Y-75.819
X55.96204Y-79.629
X67.13804Y-89.281
X69.42404Y-91.059
X67.13804Y-124.333
X73.10704Y-133.096
X51.39004Y-121.031
X59.01004Y-147.955
X50.17199Y-55.332
X50.28209Y-52.832
X47.50499Y-68.032
X57.15699Y-63.206
X51.69599Y-139.53299
X59.86196Y-58.97702
X62.36399Y-133.05599
X64.64999Y-58.634
X62.87199Y-115.27599
X63.12599Y-58.38
X68.96799Y-87.84399
X63.37999Y-59.65
X43.688Y-26.797
X87.376Y-30.353
X56.134Y-34.306
X61.976Y-34.814
X34.671Y-27.702
X130.302Y-30.242
X37.084Y-27.194
X153.797Y-31.893
X28.702Y-32.766
X62.992Y-36.322
X38.989Y-26.543
X194.326Y-31.766
X60.07095Y-62.17399
X60.07095Y-63.31699
X116.713Y-28.051
X116.713Y-29.575
X63.94298Y-43.87698
X62.41898Y-45.27398
X146.77598Y-6.95099
X156.17398Y-7.33199
X67.13804Y-63.79108
X69.17004Y-66.07708
X77.80604Y-57.94908
X51.89804Y-67.183
X51.89804Y-70.485
X51.51704Y-79.629
X184.56699Y-14.30998
X186.85299Y-13.80198
X203.41798Y-15.27099
X94.06204Y-56.67908
X116.90502Y-57.531
X115.12702Y-75.184
X175.57902Y-78.359
X174.56302Y-95.377
X190.05702Y-95.885
X135.95502Y-100.076
X134.93902Y-116.84
X174.30902Y-118.491
X190.69202Y-117.094
X118.17502Y-118.364
X96.96602Y-100.076
X95.69602Y-118.364
X82.74202Y-117.856
X77.66202Y-139.446
X96.58502Y-141.351
X96.48075Y-158.26473
X118.93702Y-141.097
X116.03875Y-158.26473
X77.68475Y-160.55073
X134.83475Y-160.29673
X154.64675Y-160.04273
X174.86244Y-160.55073
X194.03944Y-158.75004
X195.01002Y-140.08104
X22.43907Y-128.84899
X66.675Y-43.688
X59.94395Y-60.77699
X85.725Y-33.528
X19.05Y-45.339
X39.624Y-34.925
X56.372Y-36.068
X19.812Y-46.228
X38.735Y-49.657
X49.82896Y-71.374
X50.8Y-62.357
X50.8Y-63.627
X54.864Y-63.246
X54.356Y-64.262
X54.864Y-78.994
X54.61Y-75.692
X49.784Y-76.454
X50.8Y-76.454
X64.81496Y-79.248
X83.10296Y-70.358
X92.50096Y-81.788
X90.72296Y-111.76
X92.75496Y-124.46
X92.75496Y-145.288
X67.10096Y-84.836
X110.28096Y-90.932
X110.02696Y-70.358
X111.80496Y-53.594
X106.21696Y-93.472
X111.16996Y-103.759
X112.56696Y-124.46
X112.56696Y-145.288
X64.05296Y-83.312
X110.78896Y-88.138
X112.31296Y-88.138
X114.34496Y-90.932
X74.46696Y-89.154
X77.26096Y-93.472
X111.80496Y-109.982
X128.56896Y-72.898
X131.61696Y-54.356
X126.53696Y-110.998
X129.07696Y-124.46
X132.12496Y-145.288
X67.10096Y-87.884
X94.61995Y-91.01899
X151.39098Y-81.74596
X151.39098Y-72.85596
X151.39098Y-53.29796
X151.51798Y-103.84396
X152.02599Y-124.41796
X152.02599Y-145.49996
X67.10096Y-90.17
X134.06996Y-91.01899
X171.15396Y-93.30499
X171.15396Y-103.71899
X172.93196Y-70.953
X171.66196Y-124.547
X171.66196Y-145.37499
X67.10096Y-91.186
X149.30996Y-90.003
X190.76098Y-87.66797
X192.79299Y-70.90397
X190.88799Y-98.97097
X191.39599Y-123.35497
X191.14198Y-139.61097
X64.56096Y-90.932
X151.51595Y-88.73299
X201.29995Y-87.46299
X206.37995Y-91.01899
X150.622Y-29.718
X179.832Y-27.432
X112.522Y-32.639
X48.895Y-39.243
T02
X152.36012Y-16.59459
X149.098Y-13.97
X184.531Y-20.447
X182.245Y-20.447
X156.845Y-16.764
X146.177Y-16.891
X67.691Y-131.572
X66.983Y-11.811
X59.90196Y-11.811
X156.90841Y-138.43162
X136.72579Y-76.19124
X135.89Y-57.531
X155.448Y-58.039
X175.641Y-57.023
X192.97134Y-76.32032
X195.199Y-57.531
T03
X96.68299Y-16.60401G85X96.68299Y-17.60395
X101.18301Y-8.30401G85X101.18301Y-9.30398
X101.18301Y-11.404G85X101.18301Y-12.40398
X101.18301Y-15.50399G85X101.18301Y-16.50397
X111.66899Y-16.60401G85X111.66899Y-17.60395
X116.16901Y-8.30401G85X116.16901Y-9.30398
X116.16901Y-11.404G85X116.16901Y-12.40398
X116.16901Y-15.50399G85X116.16901Y-16.50397
X139.60899Y-16.60401G85X139.60899Y-17.60395
X144.10901Y-8.30401G85X144.10901Y-9.30398
X144.10901Y-11.404G85X144.10901Y-12.40398
X144.10901Y-15.50399G85X144.10901Y-16.50397
X154.97599Y-16.60401G85X154.97599Y-17.60395
X159.47601Y-8.30401G85X159.47601Y-9.30398
X159.47601Y-11.404G85X159.47601Y-12.40398
X159.47601Y-15.50399G85X159.47601Y-16.50397
X181.26499Y-16.60401G85X181.26499Y-17.60395
X185.76501Y-8.30401G85X185.76501Y-9.30398
X185.76501Y-11.404G85X185.76501Y-12.40398
X185.76501Y-15.50399G85X185.76501Y-16.50397
X196.37799Y-16.60401G85X196.37799Y-17.60395
X200.87801Y-8.30401G85X200.87801Y-9.30398
X200.87801Y-11.404G85X200.87801Y-12.40398
X200.87801Y-15.50399G85X200.87801Y-16.50397
X86.01499Y-16.60401G85X86.01499Y-17.60395
X90.51501Y-8.30401G85X90.51501Y-9.30398
X90.51501Y-11.404G85X90.51501Y-12.40398
X90.51501Y-15.50399G85X90.51501Y-16.50397
X34.83399Y-16.60401G85X34.83399Y-17.60395
X39.33401Y-8.30401G85X39.33401Y-9.30398
X39.33401Y-11.404G85X39.33401Y-12.40398
X39.33401Y-15.50399G85X39.33401Y-16.50397
T04
X53.975Y-30.988
X53.975Y-33.528
X53.975Y-36.068
X53.975Y-38.608
X61.595Y-30.988
X61.595Y-33.528
X61.595Y-36.068
X61.595Y-38.608
T05
X21.41499Y-10.71905
X21.41499Y-12.71905
X28.11501Y-10.71905
X28.11501Y-12.71905
X23.765Y-13.91905
X25.765Y-13.91905
X102.489Y-35.065
X102.489Y-27.165
X154.813Y-27.165
X154.813Y-35.065
X112.522Y-27.165
X112.522Y-35.065
X145.034Y-34.811
X145.034Y-26.911
X186.309Y-34.811
X186.309Y-26.911
X195.961Y-26.911
X195.961Y-34.811
X50.178Y-29.845
X42.278Y-29.845
T06
X68.707Y-38.1
X71.247Y-38.1
X73.787Y-38.1
X76.327Y-38.1
X78.867Y-38.1
X81.407Y-38.1
X83.947Y-38.1
X68.707Y-30.48
X71.247Y-30.48
X73.787Y-30.48
X76.327Y-30.48
X78.867Y-30.48
X81.407Y-30.48
X83.947Y-30.48
X21.55Y-110.56087
X19.05Y-110.56087
X16.55Y-110.56087
X21.423Y-128.34087
X18.923Y-128.34087
X16.42301Y-128.34087
X21.931Y-145.73987
X19.431Y-145.73987
X16.93101Y-145.73987
T07
X9.398Y-52.832
X11.938Y-52.832
X14.478Y-52.832
X17.018Y-52.832
X39.878Y-47.752
X11.938Y-37.592
X19.558Y-52.832
X22.098Y-52.832
X24.638Y-52.832
X27.178Y-52.832
X29.718Y-52.832
X32.258Y-52.832
X34.798Y-52.832
X37.338Y-52.832
X39.878Y-52.832
X39.878Y-37.592
X37.338Y-37.592
X34.798Y-37.592
X32.258Y-37.592
X29.718Y-37.592
X27.178Y-37.592
X24.638Y-37.592
X22.098Y-37.592
X19.558Y-37.592
X17.018Y-37.592
X14.478Y-37.592
X6.858Y-52.832
X39.878Y-45.212
X9.398Y-37.592
X39.878Y-40.132
X39.878Y-42.672
X39.878Y-50.292
X6.858Y-37.592
T08
X28.702Y-64.897
X31.242Y-64.897
X33.782Y-64.897
X36.322Y-64.897
T09
X31.115Y-15.50993
X31.115Y-4.81007
T10
X11.60089Y-17.57782G85X9.10087Y-17.57782
X9.10112Y-11.37818G85X11.60115Y-11.37818
X5.65087Y-15.82809G85X5.65087Y-13.32807
T11
X81.16011Y-15.84211
X78.66012Y-18.3421
X73.66013Y-15.84211
X68.66014Y-18.3421
X66.16014Y-15.84211
X78.66012Y-6.04213
X68.66014Y-6.04213
X59.06211Y-15.84211
X56.56212Y-18.3421
X51.56213Y-15.84211
X46.56214Y-18.3421
X44.06214Y-15.84211
X56.56212Y-6.04213
X46.56214Y-6.04213
T12
X14.65001Y-103.41088G85X14.65001Y-103.71088
X23.44999Y-103.41088G85X23.44999Y-103.71088
X14.52301Y-121.19088G85X14.52301Y-121.49088
X23.32299Y-121.19088G85X23.32299Y-121.49088
X15.03101Y-138.58988G85X15.03101Y-138.88988
X23.83099Y-138.58988G85X23.83099Y-138.88988
M30