G04 Layer: TopPasteMaskLayer*
G04 EasyEDA Pro v2.2.40.8, 2025-08-31 08:04:05*
G04 Gerber Generator version 0.3*
G04 Scale: 100 percent, Rotated: No, Reflected: No*
G04 Dimensions in millimeters*
G04 Leading zeros omitted, absolute positions, 4 integers and 5 decimals*
G04 Generated by one-click*
%FSLAX45Y45*%
%MOMM*%
%ADD10R,1.19009X1.72799*%
%ADD11O,1.865X0.63*%
%ADD12R,0.8X0.9*%
%ADD13R,0.9X0.8*%
%ADD14R,2.99999X2.0*%
%ADD15O,2.38801X0.57399*%
%ADD16R,0.8X0.8*%
%ADD17R,1.0X1.5*%
%ADD18R,3.5088X1.2*%
%ADD19R,3.49999X1.2*%
G75*


G04 PolygonModel Start*
G36*
G01X7640042Y-6034160D02*
G01X7640042Y-5997134D01*
G01X7650042Y-5987134D01*
G01X7680532Y-5987134D01*
G01X7690532Y-5977134D01*
G01X7690532Y-5938384D01*
G01X7680532Y-5928384D01*
G01X7650042Y-5928384D01*
G01X7640042Y-5918384D01*
G01X7640042Y-5881359D01*
G01X7650042Y-5871359D01*
G01X7778540Y-5871359D01*
G01X7788540Y-5881359D01*
G01X7788540Y-6034160D01*
G01X7778540Y-6044160D01*
G01X7650042Y-6044160D01*
G01X7640042Y-6034160D01*
G37*
G36*
G01X7470040Y-6034160D02*
G01X7470040Y-5997134D01*
G01X7460040Y-5987134D01*
G01X7429550Y-5987134D01*
G01X7419550Y-5977134D01*
G01X7419550Y-5938384D01*
G01X7429550Y-5928384D01*
G01X7460040Y-5928384D01*
G01X7470040Y-5918384D01*
G01X7470040Y-5881359D01*
G01X7460040Y-5871359D01*
G01X7331541Y-5871359D01*
G01X7321541Y-5881359D01*
G01X7321541Y-6034160D01*
G01X7331541Y-6044160D01*
G01X7460040Y-6044160D01*
G01X7470040Y-6034160D01*
G37*
G36*
G01X2896301Y-2044560D02*
G01X2896301Y-1949087D01*
G01X2906301Y-1939087D01*
G01X2934127Y-1939087D01*
G01X2944127Y-1929087D01*
G01X2944127Y-1830113D01*
G01X2934127Y-1820113D01*
G01X2906301Y-1820113D01*
G01X2896301Y-1810113D01*
G01X2896301Y-1714640D01*
G01X2906301Y-1704640D01*
G01X3026966Y-1704640D01*
G01X3036966Y-1714640D01*
G01X3036966Y-2044560D01*
G01X3026966Y-2054560D01*
G01X2906301Y-2054560D01*
G01X2896301Y-2044560D01*
G37*
G36*
G01X2666299Y-2044560D02*
G01X2666299Y-1949087D01*
G01X2656299Y-1939087D01*
G01X2628473Y-1939087D01*
G01X2618473Y-1929087D01*
G01X2618473Y-1830113D01*
G01X2628473Y-1820113D01*
G01X2656299Y-1820113D01*
G01X2666299Y-1810113D01*
G01X2666299Y-1714640D01*
G01X2656299Y-1704640D01*
G01X2535634Y-1704640D01*
G01X2525634Y-1714640D01*
G01X2525634Y-2044560D01*
G01X2535634Y-2054560D01*
G01X2656299Y-2054560D01*
G01X2666299Y-2044560D01*
G37*
G36*
G01X2056900Y-2750998D02*
G01X2184898Y-2750998D01*
G01X2189899Y-2755999D01*
G01X2189899Y-2871000D01*
G01X2184898Y-2875999D01*
G01X2143895Y-2876502D01*
G01X2143895Y-2831501D01*
G01X2098896Y-2831501D01*
G01X2098896Y-2875501D01*
G01X2056900Y-2875999D01*
G01X2051898Y-2871000D01*
G01X2051898Y-2755999D01*
G01X2056900Y-2750998D01*
G37*
G36*
G01X2056900Y-2965999D02*
G01X2098896Y-2966001D01*
G01X2098896Y-3010499D01*
G01X2143895Y-3010499D01*
G01X2143895Y-2966502D01*
G01X2184898Y-2965999D01*
G01X2189899Y-2971000D01*
G01X2189899Y-3085998D01*
G01X2184898Y-3091000D01*
G01X2056900Y-3091000D01*
G01X2051898Y-3085998D01*
G01X2051898Y-2971000D01*
G01X2056900Y-2965999D01*
G37*
G36*
G01X2336300Y-2750998D02*
G01X2464298Y-2750998D01*
G01X2469299Y-2755999D01*
G01X2469299Y-2871000D01*
G01X2464298Y-2875999D01*
G01X2423295Y-2876502D01*
G01X2423295Y-2831501D01*
G01X2378296Y-2831501D01*
G01X2378296Y-2875501D01*
G01X2336300Y-2875999D01*
G01X2331298Y-2871000D01*
G01X2331298Y-2755999D01*
G01X2336300Y-2750998D01*
G37*
G36*
G01X2336300Y-2965999D02*
G01X2378296Y-2966001D01*
G01X2378296Y-3010499D01*
G01X2423295Y-3010499D01*
G01X2423295Y-2966502D01*
G01X2464298Y-2965999D01*
G01X2469299Y-2971000D01*
G01X2469299Y-3085998D01*
G01X2464298Y-3091000D01*
G01X2336300Y-3091000D01*
G01X2331298Y-3085998D01*
G01X2331298Y-2971000D01*
G01X2336300Y-2965999D01*
G37*
G36*
G01X2984000Y-2750998D02*
G01X3111998Y-2750998D01*
G01X3116999Y-2755999D01*
G01X3116999Y-2871000D01*
G01X3111998Y-2875999D01*
G01X3070995Y-2876502D01*
G01X3070995Y-2831501D01*
G01X3025996Y-2831501D01*
G01X3025996Y-2875501D01*
G01X2984000Y-2875999D01*
G01X2978998Y-2871000D01*
G01X2978998Y-2755999D01*
G01X2984000Y-2750998D01*
G37*
G36*
G01X2984000Y-2965999D02*
G01X3025996Y-2966001D01*
G01X3025996Y-3010499D01*
G01X3070995Y-3010499D01*
G01X3070995Y-2966502D01*
G01X3111998Y-2965999D01*
G01X3116999Y-2971000D01*
G01X3116999Y-3085998D01*
G01X3111998Y-3091000D01*
G01X2984000Y-3091000D01*
G01X2978998Y-3085998D01*
G01X2978998Y-2971000D01*
G01X2984000Y-2965999D01*
G37*
G36*
G01X3263400Y-2750998D02*
G01X3391398Y-2750998D01*
G01X3396399Y-2755999D01*
G01X3396399Y-2871000D01*
G01X3391398Y-2875999D01*
G01X3350395Y-2876502D01*
G01X3350395Y-2831501D01*
G01X3305396Y-2831501D01*
G01X3305396Y-2875501D01*
G01X3263400Y-2875999D01*
G01X3258398Y-2871000D01*
G01X3258398Y-2755999D01*
G01X3263400Y-2750998D01*
G37*
G36*
G01X3263400Y-2965999D02*
G01X3305396Y-2966001D01*
G01X3305396Y-3010499D01*
G01X3350395Y-3010499D01*
G01X3350395Y-2966502D01*
G01X3391398Y-2965999D01*
G01X3396399Y-2971000D01*
G01X3396399Y-3085998D01*
G01X3391398Y-3091000D01*
G01X3263400Y-3091000D01*
G01X3258398Y-3085998D01*
G01X3258398Y-2971000D01*
G01X3263400Y-2965999D01*
G37*
G36*
G01X3542800Y-2750998D02*
G01X3670798Y-2750998D01*
G01X3675799Y-2755999D01*
G01X3675799Y-2871000D01*
G01X3670798Y-2875999D01*
G01X3629795Y-2876502D01*
G01X3629795Y-2831501D01*
G01X3584796Y-2831501D01*
G01X3584796Y-2875501D01*
G01X3542800Y-2875999D01*
G01X3537798Y-2871000D01*
G01X3537798Y-2755999D01*
G01X3542800Y-2750998D01*
G37*
G36*
G01X3542800Y-2965999D02*
G01X3584796Y-2966001D01*
G01X3584796Y-3010499D01*
G01X3629795Y-3010499D01*
G01X3629795Y-2966502D01*
G01X3670798Y-2965999D01*
G01X3675799Y-2971000D01*
G01X3675799Y-3085998D01*
G01X3670798Y-3091000D01*
G01X3542800Y-3091000D01*
G01X3537798Y-3085998D01*
G01X3537798Y-2971000D01*
G01X3542800Y-2965999D01*
G37*
G36*
G01X3822200Y-2750998D02*
G01X3950198Y-2750998D01*
G01X3955199Y-2755999D01*
G01X3955199Y-2871000D01*
G01X3950198Y-2875999D01*
G01X3909195Y-2876502D01*
G01X3909195Y-2831501D01*
G01X3864196Y-2831501D01*
G01X3864196Y-2875501D01*
G01X3822200Y-2875999D01*
G01X3817198Y-2871000D01*
G01X3817198Y-2755999D01*
G01X3822200Y-2750998D01*
G37*
G36*
G01X3822200Y-2965999D02*
G01X3864196Y-2966001D01*
G01X3864196Y-3010499D01*
G01X3909195Y-3010499D01*
G01X3909195Y-2966502D01*
G01X3950198Y-2965999D01*
G01X3955199Y-2971000D01*
G01X3955199Y-3085998D01*
G01X3950198Y-3091000D01*
G01X3822200Y-3091000D01*
G01X3817198Y-3085998D01*
G01X3817198Y-2971000D01*
G01X3822200Y-2965999D01*
G37*
G36*
G01X4919802Y-5231900D02*
G01X4919802Y-5359898D01*
G01X4914801Y-5364899D01*
G01X4799800Y-5364899D01*
G01X4794801Y-5359898D01*
G01X4794298Y-5318895D01*
G01X4839299Y-5318895D01*
G01X4839299Y-5273896D01*
G01X4795299Y-5273896D01*
G01X4794801Y-5231900D01*
G01X4799800Y-5226898D01*
G01X4914801Y-5226898D01*
G01X4919802Y-5231900D01*
G37*
G36*
G01X4704801Y-5231900D02*
G01X4704799Y-5273896D01*
G01X4660301Y-5273896D01*
G01X4660301Y-5318895D01*
G01X4704298Y-5318895D01*
G01X4704801Y-5359898D01*
G01X4699800Y-5364899D01*
G01X4584802Y-5364899D01*
G01X4579800Y-5359898D01*
G01X4579800Y-5231900D01*
G01X4584802Y-5226898D01*
G01X4699800Y-5226898D01*
G01X4704801Y-5231900D01*
G37*
G36*
G01X8521200Y-2319198D02*
G01X8649198Y-2319198D01*
G01X8654199Y-2324199D01*
G01X8654199Y-2439200D01*
G01X8649198Y-2444199D01*
G01X8608195Y-2444702D01*
G01X8608195Y-2399701D01*
G01X8563196Y-2399701D01*
G01X8563196Y-2443701D01*
G01X8521200Y-2444199D01*
G01X8516198Y-2439200D01*
G01X8516198Y-2324199D01*
G01X8521200Y-2319198D01*
G37*
G36*
G01X8521200Y-2534199D02*
G01X8563196Y-2534201D01*
G01X8563196Y-2578699D01*
G01X8608195Y-2578699D01*
G01X8608195Y-2534702D01*
G01X8649198Y-2534199D01*
G01X8654199Y-2539200D01*
G01X8654199Y-2654198D01*
G01X8649198Y-2659200D01*
G01X8521200Y-2659200D01*
G01X8516198Y-2654198D01*
G01X8516198Y-2539200D01*
G01X8521200Y-2534199D01*
G37*
G36*
G01X8064000Y-2319198D02*
G01X8191998Y-2319198D01*
G01X8196999Y-2324199D01*
G01X8196999Y-2439200D01*
G01X8191998Y-2444199D01*
G01X8150995Y-2444702D01*
G01X8150995Y-2399701D01*
G01X8105996Y-2399701D01*
G01X8105996Y-2443701D01*
G01X8064000Y-2444199D01*
G01X8058998Y-2439200D01*
G01X8058998Y-2324199D01*
G01X8064000Y-2319198D01*
G37*
G36*
G01X8064000Y-2534199D02*
G01X8105996Y-2534201D01*
G01X8105996Y-2578699D01*
G01X8150995Y-2578699D01*
G01X8150995Y-2534702D01*
G01X8191998Y-2534199D01*
G01X8196999Y-2539200D01*
G01X8196999Y-2654198D01*
G01X8191998Y-2659200D01*
G01X8064000Y-2659200D01*
G01X8058998Y-2654198D01*
G01X8058998Y-2539200D01*
G01X8064000Y-2534199D01*
G37*
G36*
G01X3043098Y-6020300D02*
G01X3043098Y-5892302D01*
G01X3048099Y-5887301D01*
G01X3163100Y-5887301D01*
G01X3168099Y-5892302D01*
G01X3168602Y-5933305D01*
G01X3123601Y-5933305D01*
G01X3123601Y-5978304D01*
G01X3167601Y-5978304D01*
G01X3168099Y-6020300D01*
G01X3163100Y-6025302D01*
G01X3048099Y-6025302D01*
G01X3043098Y-6020300D01*
G37*
G36*
G01X3258099Y-6020300D02*
G01X3258101Y-5978304D01*
G01X3302599Y-5978304D01*
G01X3302599Y-5933305D01*
G01X3258602Y-5933305D01*
G01X3258099Y-5892302D01*
G01X3263100Y-5887301D01*
G01X3378098Y-5887301D01*
G01X3383100Y-5892302D01*
G01X3383100Y-6020300D01*
G01X3378098Y-6025302D01*
G01X3263100Y-6025302D01*
G01X3258099Y-6020300D01*
G37*
G36*
G01X4033698Y-6020300D02*
G01X4033698Y-5892302D01*
G01X4038699Y-5887301D01*
G01X4153700Y-5887301D01*
G01X4158699Y-5892302D01*
G01X4159202Y-5933305D01*
G01X4114201Y-5933305D01*
G01X4114201Y-5978304D01*
G01X4158201Y-5978304D01*
G01X4158699Y-6020300D01*
G01X4153700Y-6025302D01*
G01X4038699Y-6025302D01*
G01X4033698Y-6020300D01*
G37*
G36*
G01X4248699Y-6020300D02*
G01X4248701Y-5978304D01*
G01X4293199Y-5978304D01*
G01X4293199Y-5933305D01*
G01X4249202Y-5933305D01*
G01X4248699Y-5892302D01*
G01X4253700Y-5887301D01*
G01X4368698Y-5887301D01*
G01X4373700Y-5892302D01*
G01X4373700Y-6020300D01*
G01X4368698Y-6025302D01*
G01X4253700Y-6025302D01*
G01X4248699Y-6020300D01*
G37*
G36*
G01X4503598Y-4724900D02*
G01X4503598Y-4596902D01*
G01X4508599Y-4591901D01*
G01X4623600Y-4591901D01*
G01X4628599Y-4596902D01*
G01X4629102Y-4637905D01*
G01X4584101Y-4637905D01*
G01X4584101Y-4682904D01*
G01X4628101Y-4682904D01*
G01X4628599Y-4724900D01*
G01X4623600Y-4729902D01*
G01X4508599Y-4729902D01*
G01X4503598Y-4724900D01*
G37*
G36*
G01X4718599Y-4724900D02*
G01X4718601Y-4682904D01*
G01X4763099Y-4682904D01*
G01X4763099Y-4637905D01*
G01X4719102Y-4637905D01*
G01X4718599Y-4596902D01*
G01X4723600Y-4591901D01*
G01X4838598Y-4591901D01*
G01X4843600Y-4596902D01*
G01X4843600Y-4724900D01*
G01X4838598Y-4729902D01*
G01X4723600Y-4729902D01*
G01X4718599Y-4724900D01*
G37*
G36*
G01X4503598Y-3886700D02*
G01X4503598Y-3758702D01*
G01X4508599Y-3753701D01*
G01X4623600Y-3753701D01*
G01X4628599Y-3758702D01*
G01X4629102Y-3799705D01*
G01X4584101Y-3799705D01*
G01X4584101Y-3844704D01*
G01X4628101Y-3844704D01*
G01X4628599Y-3886700D01*
G01X4623600Y-3891702D01*
G01X4508599Y-3891702D01*
G01X4503598Y-3886700D01*
G37*
G36*
G01X4718599Y-3886700D02*
G01X4718601Y-3844704D01*
G01X4763099Y-3844704D01*
G01X4763099Y-3799705D01*
G01X4719102Y-3799705D01*
G01X4718599Y-3758702D01*
G01X4723600Y-3753701D01*
G01X4838598Y-3753701D01*
G01X4843600Y-3758702D01*
G01X4843600Y-3886700D01*
G01X4838598Y-3891702D01*
G01X4723600Y-3891702D01*
G01X4718599Y-3886700D01*
G37*
G36*
G01X4280400Y-2621102D02*
G01X4152402Y-2621102D01*
G01X4147401Y-2616101D01*
G01X4147401Y-2501100D01*
G01X4152402Y-2496101D01*
G01X4193405Y-2495598D01*
G01X4193405Y-2540599D01*
G01X4238404Y-2540599D01*
G01X4238404Y-2496599D01*
G01X4280400Y-2496101D01*
G01X4285402Y-2501100D01*
G01X4285402Y-2616101D01*
G01X4280400Y-2621102D01*
G37*
G36*
G01X4280400Y-2406101D02*
G01X4238404Y-2406099D01*
G01X4238404Y-2361601D01*
G01X4193405Y-2361601D01*
G01X4193405Y-2405598D01*
G01X4152402Y-2406101D01*
G01X4147401Y-2401100D01*
G01X4147401Y-2286102D01*
G01X4152402Y-2281100D01*
G01X4280400Y-2281100D01*
G01X4285402Y-2286102D01*
G01X4285402Y-2401100D01*
G01X4280400Y-2406101D01*
G37*
G36*
G01X6565400Y-2306498D02*
G01X6693398Y-2306498D01*
G01X6698399Y-2311499D01*
G01X6698399Y-2426500D01*
G01X6693398Y-2431499D01*
G01X6652395Y-2432002D01*
G01X6652395Y-2387001D01*
G01X6607396Y-2387001D01*
G01X6607396Y-2431001D01*
G01X6565400Y-2431499D01*
G01X6560398Y-2426500D01*
G01X6560398Y-2311499D01*
G01X6565400Y-2306498D01*
G37*
G36*
G01X6565400Y-2521499D02*
G01X6607396Y-2521501D01*
G01X6607396Y-2565999D01*
G01X6652395Y-2565999D01*
G01X6652395Y-2522002D01*
G01X6693398Y-2521499D01*
G01X6698399Y-2526500D01*
G01X6698399Y-2641498D01*
G01X6693398Y-2646500D01*
G01X6565400Y-2646500D01*
G01X6560398Y-2641498D01*
G01X6560398Y-2526500D01*
G01X6565400Y-2521499D01*
G37*
G36*
G01X7505200Y-2319198D02*
G01X7633198Y-2319198D01*
G01X7638199Y-2324199D01*
G01X7638199Y-2439200D01*
G01X7633198Y-2444199D01*
G01X7592195Y-2444702D01*
G01X7592195Y-2399701D01*
G01X7547196Y-2399701D01*
G01X7547196Y-2443701D01*
G01X7505200Y-2444199D01*
G01X7500198Y-2439200D01*
G01X7500198Y-2324199D01*
G01X7505200Y-2319198D01*
G37*
G36*
G01X7505200Y-2534199D02*
G01X7547196Y-2534201D01*
G01X7547196Y-2578699D01*
G01X7592195Y-2578699D01*
G01X7592195Y-2534702D01*
G01X7633198Y-2534199D01*
G01X7638199Y-2539200D01*
G01X7638199Y-2654198D01*
G01X7633198Y-2659200D01*
G01X7505200Y-2659200D01*
G01X7500198Y-2654198D01*
G01X7500198Y-2539200D01*
G01X7505200Y-2534199D01*
G37*
G36*
G01X4503598Y-3543800D02*
G01X4503598Y-3415802D01*
G01X4508599Y-3410801D01*
G01X4623600Y-3410801D01*
G01X4628599Y-3415802D01*
G01X4629102Y-3456805D01*
G01X4584101Y-3456805D01*
G01X4584101Y-3501804D01*
G01X4628101Y-3501804D01*
G01X4628599Y-3543800D01*
G01X4623600Y-3548802D01*
G01X4508599Y-3548802D01*
G01X4503598Y-3543800D01*
G37*
G36*
G01X4718599Y-3543800D02*
G01X4718601Y-3501804D01*
G01X4763099Y-3501804D01*
G01X4763099Y-3456805D01*
G01X4719102Y-3456805D01*
G01X4718599Y-3415802D01*
G01X4723600Y-3410801D01*
G01X4838598Y-3410801D01*
G01X4843600Y-3415802D01*
G01X4843600Y-3543800D01*
G01X4838598Y-3548802D01*
G01X4723600Y-3548802D01*
G01X4718599Y-3543800D01*
G37*
G36*
G01X4767804Y-5610502D02*
G01X4767804Y-5565501D01*
G01X4774801Y-5560502D01*
G01X4822802Y-5560502D01*
G01X4827803Y-5565501D01*
G01X4827803Y-5610502D01*
G01X4822802Y-5615501D01*
G01X4774801Y-5615501D01*
G01X4767804Y-5610502D01*
G37*
G36*
G01X4671802Y-5610502D02*
G01X4671802Y-5565501D01*
G01X4676803Y-5560502D01*
G01X4724801Y-5560502D01*
G01X4731802Y-5565501D01*
G01X4731802Y-5610502D01*
G01X4724801Y-5615501D01*
G01X4676803Y-5615501D01*
G01X4671802Y-5610502D01*
G37*
G36*
G01X4571500Y-4045902D02*
G01X4699498Y-4045902D01*
G01X4704499Y-4050904D01*
G01X4704499Y-4165905D01*
G01X4699498Y-4170904D01*
G01X4658495Y-4171406D01*
G01X4658495Y-4126405D01*
G01X4613496Y-4126405D01*
G01X4613496Y-4170406D01*
G01X4571500Y-4170904D01*
G01X4566498Y-4165905D01*
G01X4566498Y-4050904D01*
G01X4571500Y-4045902D01*
G37*
G36*
G01X4699500Y-4386897D02*
G01X4571502Y-4386897D01*
G01X4566501Y-4381896D01*
G01X4566501Y-4266895D01*
G01X4571502Y-4261896D01*
G01X4612505Y-4261394D01*
G01X4612505Y-4306395D01*
G01X4657504Y-4306395D01*
G01X4657504Y-4262394D01*
G01X4699500Y-4261896D01*
G01X4704502Y-4266895D01*
G01X4704502Y-4381896D01*
G01X4699500Y-4386897D01*
G37*
G36*
G01X7157898Y-15265900D02*
G01X7157898Y-15137902D01*
G01X7162899Y-15132901D01*
G01X7277900Y-15132901D01*
G01X7282899Y-15137902D01*
G01X7283402Y-15178905D01*
G01X7238401Y-15178905D01*
G01X7238401Y-15223904D01*
G01X7282401Y-15223904D01*
G01X7282899Y-15265900D01*
G01X7277900Y-15270902D01*
G01X7162899Y-15270902D01*
G01X7157898Y-15265900D01*
G37*
G36*
G01X7372899Y-15265900D02*
G01X7372901Y-15223904D01*
G01X7417399Y-15223904D01*
G01X7417399Y-15178905D01*
G01X7373402Y-15178905D01*
G01X7372899Y-15137902D01*
G01X7377900Y-15132901D01*
G01X7492898Y-15132901D01*
G01X7497900Y-15137902D01*
G01X7497900Y-15265900D01*
G01X7492898Y-15270902D01*
G01X7377900Y-15270902D01*
G01X7372899Y-15265900D01*
G37*
G36*
G01X7132498Y-13297400D02*
G01X7132498Y-13169402D01*
G01X7137499Y-13164401D01*
G01X7252500Y-13164401D01*
G01X7257499Y-13169402D01*
G01X7258002Y-13210405D01*
G01X7213001Y-13210405D01*
G01X7213001Y-13255404D01*
G01X7257001Y-13255404D01*
G01X7257499Y-13297400D01*
G01X7252500Y-13302402D01*
G01X7137499Y-13302402D01*
G01X7132498Y-13297400D01*
G37*
G36*
G01X7347499Y-13297400D02*
G01X7347501Y-13255404D01*
G01X7391999Y-13255404D01*
G01X7391999Y-13210405D01*
G01X7348002Y-13210405D01*
G01X7347499Y-13169402D01*
G01X7352500Y-13164401D01*
G01X7467498Y-13164401D01*
G01X7472500Y-13169402D01*
G01X7472500Y-13297400D01*
G01X7467498Y-13302402D01*
G01X7352500Y-13302402D01*
G01X7347499Y-13297400D01*
G37*
G36*
G01X7195998Y-10986000D02*
G01X7195998Y-10858002D01*
G01X7200999Y-10853001D01*
G01X7316000Y-10853001D01*
G01X7320999Y-10858002D01*
G01X7321502Y-10899005D01*
G01X7276501Y-10899005D01*
G01X7276501Y-10944004D01*
G01X7320501Y-10944004D01*
G01X7320999Y-10986000D01*
G01X7316000Y-10991002D01*
G01X7200999Y-10991002D01*
G01X7195998Y-10986000D01*
G37*
G36*
G01X7410999Y-10986000D02*
G01X7411001Y-10944004D01*
G01X7455499Y-10944004D01*
G01X7455499Y-10899005D01*
G01X7411502Y-10899005D01*
G01X7410999Y-10858002D01*
G01X7416000Y-10853001D01*
G01X7530998Y-10853001D01*
G01X7536000Y-10858002D01*
G01X7536000Y-10986000D01*
G01X7530998Y-10991002D01*
G01X7416000Y-10991002D01*
G01X7410999Y-10986000D01*
G37*
G36*
G01X7145198Y-8852400D02*
G01X7145198Y-8724402D01*
G01X7150199Y-8719401D01*
G01X7265200Y-8719401D01*
G01X7270199Y-8724402D01*
G01X7270702Y-8765405D01*
G01X7225701Y-8765405D01*
G01X7225701Y-8810404D01*
G01X7269701Y-8810404D01*
G01X7270199Y-8852400D01*
G01X7265200Y-8857402D01*
G01X7150199Y-8857402D01*
G01X7145198Y-8852400D01*
G37*
G36*
G01X7360199Y-8852400D02*
G01X7360201Y-8810404D01*
G01X7404699Y-8810404D01*
G01X7404699Y-8765405D01*
G01X7360702Y-8765405D01*
G01X7360199Y-8724402D01*
G01X7365200Y-8719401D01*
G01X7480198Y-8719401D01*
G01X7485200Y-8724402D01*
G01X7485200Y-8852400D01*
G01X7480198Y-8857402D01*
G01X7365200Y-8857402D01*
G01X7360199Y-8852400D01*
G37*
G36*
G01X7314700Y-6726098D02*
G01X7442698Y-6726098D01*
G01X7447699Y-6731099D01*
G01X7447699Y-6846100D01*
G01X7442698Y-6851099D01*
G01X7401695Y-6851602D01*
G01X7401695Y-6806601D01*
G01X7356696Y-6806601D01*
G01X7356696Y-6850601D01*
G01X7314700Y-6851099D01*
G01X7309698Y-6846100D01*
G01X7309698Y-6731099D01*
G01X7314700Y-6726098D01*
G37*
G36*
G01X7314700Y-6941099D02*
G01X7356696Y-6941101D01*
G01X7356696Y-6985599D01*
G01X7401695Y-6985599D01*
G01X7401695Y-6941602D01*
G01X7442698Y-6941099D01*
G01X7447699Y-6946100D01*
G01X7447699Y-7061098D01*
G01X7442698Y-7066100D01*
G01X7314700Y-7066100D01*
G01X7309698Y-7061098D01*
G01X7309698Y-6946100D01*
G01X7314700Y-6941099D01*
G37*
G36*
G01X8681898Y-3988300D02*
G01X8681898Y-3860302D01*
G01X8686899Y-3855301D01*
G01X8801900Y-3855301D01*
G01X8806899Y-3860302D01*
G01X8807402Y-3901305D01*
G01X8762401Y-3901305D01*
G01X8762401Y-3946304D01*
G01X8806401Y-3946304D01*
G01X8806899Y-3988300D01*
G01X8801900Y-3993302D01*
G01X8686899Y-3993302D01*
G01X8681898Y-3988300D01*
G37*
G36*
G01X8896899Y-3988300D02*
G01X8896901Y-3946304D01*
G01X8941399Y-3946304D01*
G01X8941399Y-3901305D01*
G01X8897402Y-3901305D01*
G01X8896899Y-3860302D01*
G01X8901900Y-3855301D01*
G01X9016898Y-3855301D01*
G01X9021900Y-3860302D01*
G01X9021900Y-3988300D01*
G01X9016898Y-3993302D01*
G01X8901900Y-3993302D01*
G01X8896899Y-3988300D01*
G37*
G36*
G01X6965939Y-5564560D02*
G01X6965939Y-5436561D01*
G01X6970940Y-5431560D01*
G01X7085941Y-5431560D01*
G01X7090940Y-5436561D01*
G01X7091443Y-5477565D01*
G01X7046441Y-5477565D01*
G01X7046441Y-5522563D01*
G01X7090442Y-5522563D01*
G01X7090940Y-5564560D01*
G01X7085941Y-5569561D01*
G01X6970940Y-5569561D01*
G01X6965939Y-5564560D01*
G37*
G36*
G01X7180939Y-5564560D02*
G01X7180942Y-5522563D01*
G01X7225440Y-5522563D01*
G01X7225440Y-5477565D01*
G01X7181442Y-5477565D01*
G01X7180939Y-5436561D01*
G01X7185941Y-5431560D01*
G01X7300939Y-5431560D01*
G01X7305940Y-5436561D01*
G01X7305940Y-5564560D01*
G01X7300939Y-5569561D01*
G01X7185941Y-5569561D01*
G01X7180939Y-5564560D01*
G37*
G36*
G01X20409400Y-3446602D02*
G01X20281402Y-3446602D01*
G01X20276401Y-3441601D01*
G01X20276401Y-3326600D01*
G01X20281402Y-3321601D01*
G01X20322405Y-3321098D01*
G01X20322405Y-3366099D01*
G01X20367404Y-3366099D01*
G01X20367404Y-3322099D01*
G01X20409400Y-3321601D01*
G01X20414402Y-3326600D01*
G01X20414402Y-3441601D01*
G01X20409400Y-3446602D01*
G37*
G36*
G01X20409400Y-3231601D02*
G01X20367404Y-3231599D01*
G01X20367404Y-3187101D01*
G01X20322405Y-3187101D01*
G01X20322405Y-3231098D01*
G01X20281402Y-3231601D01*
G01X20276401Y-3226600D01*
G01X20276401Y-3111602D01*
G01X20281402Y-3106600D01*
G01X20409400Y-3106600D01*
G01X20414402Y-3111602D01*
G01X20414402Y-3226600D01*
G01X20409400Y-3231601D01*
G37*
G36*
G01X20104600Y-3446602D02*
G01X19976602Y-3446602D01*
G01X19971601Y-3441601D01*
G01X19971601Y-3326600D01*
G01X19976602Y-3321601D01*
G01X20017605Y-3321098D01*
G01X20017605Y-3366099D01*
G01X20062604Y-3366099D01*
G01X20062604Y-3322099D01*
G01X20104600Y-3321601D01*
G01X20109602Y-3326600D01*
G01X20109602Y-3441601D01*
G01X20104600Y-3446602D01*
G37*
G36*
G01X20104600Y-3231601D02*
G01X20062604Y-3231599D01*
G01X20062604Y-3187101D01*
G01X20017605Y-3187101D01*
G01X20017605Y-3231098D01*
G01X19976602Y-3231601D01*
G01X19971601Y-3226600D01*
G01X19971601Y-3111602D01*
G01X19976602Y-3106600D01*
G01X20104600Y-3106600D01*
G01X20109602Y-3111602D01*
G01X20109602Y-3226600D01*
G01X20104600Y-3231601D01*
G37*
G36*
G01X20320500Y-2557602D02*
G01X20192502Y-2557602D01*
G01X20187501Y-2552601D01*
G01X20187501Y-2437600D01*
G01X20192502Y-2432601D01*
G01X20233505Y-2432098D01*
G01X20233505Y-2477099D01*
G01X20278504Y-2477099D01*
G01X20278504Y-2433099D01*
G01X20320500Y-2432601D01*
G01X20325502Y-2437600D01*
G01X20325502Y-2552601D01*
G01X20320500Y-2557602D01*
G37*
G36*
G01X20320500Y-2342601D02*
G01X20278504Y-2342599D01*
G01X20278504Y-2298101D01*
G01X20233505Y-2298101D01*
G01X20233505Y-2342098D01*
G01X20192502Y-2342601D01*
G01X20187501Y-2337600D01*
G01X20187501Y-2222602D01*
G01X20192502Y-2217600D01*
G01X20320500Y-2217600D01*
G01X20325502Y-2222602D01*
G01X20325502Y-2337600D01*
G01X20320500Y-2342601D01*
G37*
G36*
G01X20110950Y-2551252D02*
G01X19982952Y-2551252D01*
G01X19977951Y-2546251D01*
G01X19977951Y-2431250D01*
G01X19982952Y-2426251D01*
G01X20023955Y-2425748D01*
G01X20023955Y-2470749D01*
G01X20068954Y-2470749D01*
G01X20068954Y-2426749D01*
G01X20110950Y-2426251D01*
G01X20115952Y-2431250D01*
G01X20115952Y-2546251D01*
G01X20110950Y-2551252D01*
G37*
G36*
G01X20110950Y-2336251D02*
G01X20068954Y-2336249D01*
G01X20068954Y-2291751D01*
G01X20023955Y-2291751D01*
G01X20023955Y-2335748D01*
G01X19982952Y-2336251D01*
G01X19977951Y-2331250D01*
G01X19977951Y-2216252D01*
G01X19982952Y-2211250D01*
G01X20110950Y-2211250D01*
G01X20115952Y-2216252D01*
G01X20115952Y-2331250D01*
G01X20110950Y-2336251D01*
G37*
G36*
G01X18237700Y-3446602D02*
G01X18109702Y-3446602D01*
G01X18104701Y-3441601D01*
G01X18104701Y-3326600D01*
G01X18109702Y-3321601D01*
G01X18150705Y-3321098D01*
G01X18150705Y-3366099D01*
G01X18195704Y-3366099D01*
G01X18195704Y-3322099D01*
G01X18237700Y-3321601D01*
G01X18242702Y-3326600D01*
G01X18242702Y-3441601D01*
G01X18237700Y-3446602D01*
G37*
G36*
G01X18237700Y-3231601D02*
G01X18195704Y-3231599D01*
G01X18195704Y-3187101D01*
G01X18150705Y-3187101D01*
G01X18150705Y-3231098D01*
G01X18109702Y-3231601D01*
G01X18104701Y-3226600D01*
G01X18104701Y-3111602D01*
G01X18109702Y-3106600D01*
G01X18237700Y-3106600D01*
G01X18242702Y-3111602D01*
G01X18242702Y-3226600D01*
G01X18237700Y-3231601D01*
G37*
G36*
G01X17958300Y-3446602D02*
G01X17830302Y-3446602D01*
G01X17825301Y-3441601D01*
G01X17825301Y-3326600D01*
G01X17830302Y-3321601D01*
G01X17871305Y-3321098D01*
G01X17871305Y-3366099D01*
G01X17916304Y-3366099D01*
G01X17916304Y-3322099D01*
G01X17958300Y-3321601D01*
G01X17963302Y-3326600D01*
G01X17963302Y-3441601D01*
G01X17958300Y-3446602D01*
G37*
G36*
G01X17958300Y-3231601D02*
G01X17916304Y-3231599D01*
G01X17916304Y-3187101D01*
G01X17871305Y-3187101D01*
G01X17871305Y-3231098D01*
G01X17830302Y-3231601D01*
G01X17825301Y-3226600D01*
G01X17825301Y-3111602D01*
G01X17830302Y-3106600D01*
G01X17958300Y-3106600D01*
G01X17963302Y-3111602D01*
G01X17963302Y-3226600D01*
G01X17958300Y-3231601D01*
G37*
G36*
G01X18250400Y-2557602D02*
G01X18122402Y-2557602D01*
G01X18117401Y-2552601D01*
G01X18117401Y-2437600D01*
G01X18122402Y-2432601D01*
G01X18163405Y-2432098D01*
G01X18163405Y-2477099D01*
G01X18208404Y-2477099D01*
G01X18208404Y-2433099D01*
G01X18250400Y-2432601D01*
G01X18255402Y-2437600D01*
G01X18255402Y-2552601D01*
G01X18250400Y-2557602D01*
G37*
G36*
G01X18250400Y-2342601D02*
G01X18208404Y-2342599D01*
G01X18208404Y-2298101D01*
G01X18163405Y-2298101D01*
G01X18163405Y-2342098D01*
G01X18122402Y-2342601D01*
G01X18117401Y-2337600D01*
G01X18117401Y-2222602D01*
G01X18122402Y-2217600D01*
G01X18250400Y-2217600D01*
G01X18255402Y-2222602D01*
G01X18255402Y-2337600D01*
G01X18250400Y-2342601D01*
G37*
G36*
G01X17964650Y-2551252D02*
G01X17836652Y-2551252D01*
G01X17831651Y-2546251D01*
G01X17831651Y-2431250D01*
G01X17836652Y-2426251D01*
G01X17877655Y-2425748D01*
G01X17877655Y-2470749D01*
G01X17922654Y-2470749D01*
G01X17922654Y-2426749D01*
G01X17964650Y-2426251D01*
G01X17969652Y-2431250D01*
G01X17969652Y-2546251D01*
G01X17964650Y-2551252D01*
G37*
G36*
G01X17964650Y-2336251D02*
G01X17922654Y-2336249D01*
G01X17922654Y-2291751D01*
G01X17877655Y-2291751D01*
G01X17877655Y-2335748D01*
G01X17836652Y-2336251D01*
G01X17831651Y-2331250D01*
G01X17831651Y-2216252D01*
G01X17836652Y-2211250D01*
G01X17964650Y-2211250D01*
G01X17969652Y-2216252D01*
G01X17969652Y-2331250D01*
G01X17964650Y-2336251D01*
G37*
G36*
G01X14122900Y-3446602D02*
G01X13994902Y-3446602D01*
G01X13989901Y-3441601D01*
G01X13989901Y-3326600D01*
G01X13994902Y-3321601D01*
G01X14035905Y-3321098D01*
G01X14035905Y-3366099D01*
G01X14080904Y-3366099D01*
G01X14080904Y-3322099D01*
G01X14122900Y-3321601D01*
G01X14127902Y-3326600D01*
G01X14127902Y-3441601D01*
G01X14122900Y-3446602D01*
G37*
G36*
G01X14122900Y-3231601D02*
G01X14080904Y-3231599D01*
G01X14080904Y-3187101D01*
G01X14035905Y-3187101D01*
G01X14035905Y-3231098D01*
G01X13994902Y-3231601D01*
G01X13989901Y-3226600D01*
G01X13989901Y-3111602D01*
G01X13994902Y-3106600D01*
G01X14122900Y-3106600D01*
G01X14127902Y-3111602D01*
G01X14127902Y-3226600D01*
G01X14122900Y-3231601D01*
G37*
G36*
G01X13792700Y-3446602D02*
G01X13664702Y-3446602D01*
G01X13659701Y-3441601D01*
G01X13659701Y-3326600D01*
G01X13664702Y-3321601D01*
G01X13705705Y-3321098D01*
G01X13705705Y-3366099D01*
G01X13750704Y-3366099D01*
G01X13750704Y-3322099D01*
G01X13792700Y-3321601D01*
G01X13797702Y-3326600D01*
G01X13797702Y-3441601D01*
G01X13792700Y-3446602D01*
G37*
G36*
G01X13792700Y-3231601D02*
G01X13750704Y-3231599D01*
G01X13750704Y-3187101D01*
G01X13705705Y-3187101D01*
G01X13705705Y-3231098D01*
G01X13664702Y-3231601D01*
G01X13659701Y-3226600D01*
G01X13659701Y-3111602D01*
G01X13664702Y-3106600D01*
G01X13792700Y-3106600D01*
G01X13797702Y-3111602D01*
G01X13797702Y-3226600D01*
G01X13792700Y-3231601D01*
G37*
G36*
G01X14122900Y-2557602D02*
G01X13994902Y-2557602D01*
G01X13989901Y-2552601D01*
G01X13989901Y-2437600D01*
G01X13994902Y-2432601D01*
G01X14035905Y-2432098D01*
G01X14035905Y-2477099D01*
G01X14080904Y-2477099D01*
G01X14080904Y-2433099D01*
G01X14122900Y-2432601D01*
G01X14127902Y-2437600D01*
G01X14127902Y-2552601D01*
G01X14122900Y-2557602D01*
G37*
G36*
G01X14122900Y-2342601D02*
G01X14080904Y-2342599D01*
G01X14080904Y-2298101D01*
G01X14035905Y-2298101D01*
G01X14035905Y-2342098D01*
G01X13994902Y-2342601D01*
G01X13989901Y-2337600D01*
G01X13989901Y-2222602D01*
G01X13994902Y-2217600D01*
G01X14122900Y-2217600D01*
G01X14127902Y-2222602D01*
G01X14127902Y-2337600D01*
G01X14122900Y-2342601D01*
G37*
G36*
G01X13792700Y-2557602D02*
G01X13664702Y-2557602D01*
G01X13659701Y-2552601D01*
G01X13659701Y-2437600D01*
G01X13664702Y-2432601D01*
G01X13705705Y-2432098D01*
G01X13705705Y-2477099D01*
G01X13750704Y-2477099D01*
G01X13750704Y-2433099D01*
G01X13792700Y-2432601D01*
G01X13797702Y-2437600D01*
G01X13797702Y-2552601D01*
G01X13792700Y-2557602D01*
G37*
G36*
G01X13792700Y-2342601D02*
G01X13750704Y-2342599D01*
G01X13750704Y-2298101D01*
G01X13705705Y-2298101D01*
G01X13705705Y-2342098D01*
G01X13664702Y-2342601D01*
G01X13659701Y-2337600D01*
G01X13659701Y-2222602D01*
G01X13664702Y-2217600D01*
G01X13792700Y-2217600D01*
G01X13797702Y-2222602D01*
G01X13797702Y-2337600D01*
G01X13792700Y-2342601D01*
G37*
G36*
G01X11912100Y-3119298D02*
G01X12040098Y-3119298D01*
G01X12045099Y-3124299D01*
G01X12045099Y-3239300D01*
G01X12040098Y-3244299D01*
G01X11999095Y-3244802D01*
G01X11999095Y-3199801D01*
G01X11954096Y-3199801D01*
G01X11954096Y-3243801D01*
G01X11912100Y-3244299D01*
G01X11907098Y-3239300D01*
G01X11907098Y-3124299D01*
G01X11912100Y-3119298D01*
G37*
G36*
G01X11912100Y-3334299D02*
G01X11954096Y-3334301D01*
G01X11954096Y-3378799D01*
G01X11999095Y-3378799D01*
G01X11999095Y-3334802D01*
G01X12040098Y-3334299D01*
G01X12045099Y-3339300D01*
G01X12045099Y-3454298D01*
G01X12040098Y-3459300D01*
G01X11912100Y-3459300D01*
G01X11907098Y-3454298D01*
G01X11907098Y-3339300D01*
G01X11912100Y-3334299D01*
G37*
G36*
G01X11735300Y-3459302D02*
G01X11607302Y-3459302D01*
G01X11602301Y-3454301D01*
G01X11602301Y-3339300D01*
G01X11607302Y-3334301D01*
G01X11648305Y-3333798D01*
G01X11648305Y-3378799D01*
G01X11693304Y-3378799D01*
G01X11693304Y-3334799D01*
G01X11735300Y-3334301D01*
G01X11740302Y-3339300D01*
G01X11740302Y-3454301D01*
G01X11735300Y-3459302D01*
G37*
G36*
G01X11735300Y-3244301D02*
G01X11693304Y-3244299D01*
G01X11693304Y-3199801D01*
G01X11648305Y-3199801D01*
G01X11648305Y-3243798D01*
G01X11607302Y-3244301D01*
G01X11602301Y-3239300D01*
G01X11602301Y-3124302D01*
G01X11607302Y-3119300D01*
G01X11735300Y-3119300D01*
G01X11740302Y-3124302D01*
G01X11740302Y-3239300D01*
G01X11735300Y-3244301D01*
G37*
G36*
G01X11912100Y-2230298D02*
G01X12040098Y-2230298D01*
G01X12045099Y-2235299D01*
G01X12045099Y-2350300D01*
G01X12040098Y-2355299D01*
G01X11999095Y-2355802D01*
G01X11999095Y-2310801D01*
G01X11954096Y-2310801D01*
G01X11954096Y-2354801D01*
G01X11912100Y-2355299D01*
G01X11907098Y-2350300D01*
G01X11907098Y-2235299D01*
G01X11912100Y-2230298D01*
G37*
G36*
G01X11912100Y-2445299D02*
G01X11954096Y-2445301D01*
G01X11954096Y-2489799D01*
G01X11999095Y-2489799D01*
G01X11999095Y-2445802D01*
G01X12040098Y-2445299D01*
G01X12045099Y-2450300D01*
G01X12045099Y-2565298D01*
G01X12040098Y-2570300D01*
G01X11912100Y-2570300D01*
G01X11907098Y-2565298D01*
G01X11907098Y-2450300D01*
G01X11912100Y-2445299D01*
G37*
G36*
G01X11735300Y-2570302D02*
G01X11607302Y-2570302D01*
G01X11602301Y-2565301D01*
G01X11602301Y-2450300D01*
G01X11607302Y-2445301D01*
G01X11648305Y-2444798D01*
G01X11648305Y-2489799D01*
G01X11693304Y-2489799D01*
G01X11693304Y-2445799D01*
G01X11735300Y-2445301D01*
G01X11740302Y-2450300D01*
G01X11740302Y-2565301D01*
G01X11735300Y-2570302D01*
G37*
G36*
G01X11735300Y-2355301D02*
G01X11693304Y-2355299D01*
G01X11693304Y-2310801D01*
G01X11648305Y-2310801D01*
G01X11648305Y-2354798D01*
G01X11607302Y-2355301D01*
G01X11602301Y-2350300D01*
G01X11602301Y-2235302D01*
G01X11607302Y-2230300D01*
G01X11735300Y-2230300D01*
G01X11740302Y-2235302D01*
G01X11740302Y-2350300D01*
G01X11735300Y-2355301D01*
G37*
G36*
G01X16294600Y-3459302D02*
G01X16166602Y-3459302D01*
G01X16161601Y-3454301D01*
G01X16161601Y-3339300D01*
G01X16166602Y-3334301D01*
G01X16207605Y-3333798D01*
G01X16207605Y-3378799D01*
G01X16252604Y-3378799D01*
G01X16252604Y-3334799D01*
G01X16294600Y-3334301D01*
G01X16299602Y-3339300D01*
G01X16299602Y-3454301D01*
G01X16294600Y-3459302D01*
G37*
G36*
G01X16294600Y-3244301D02*
G01X16252604Y-3244299D01*
G01X16252604Y-3199801D01*
G01X16207605Y-3199801D01*
G01X16207605Y-3243798D01*
G01X16166602Y-3244301D01*
G01X16161601Y-3239300D01*
G01X16161601Y-3124302D01*
G01X16166602Y-3119300D01*
G01X16294600Y-3119300D01*
G01X16299602Y-3124302D01*
G01X16299602Y-3239300D01*
G01X16294600Y-3244301D01*
G37*
G36*
G01X15977100Y-3459302D02*
G01X15849102Y-3459302D01*
G01X15844101Y-3454301D01*
G01X15844101Y-3339300D01*
G01X15849102Y-3334301D01*
G01X15890105Y-3333798D01*
G01X15890105Y-3378799D01*
G01X15935104Y-3378799D01*
G01X15935104Y-3334799D01*
G01X15977100Y-3334301D01*
G01X15982102Y-3339300D01*
G01X15982102Y-3454301D01*
G01X15977100Y-3459302D01*
G37*
G36*
G01X15977100Y-3244301D02*
G01X15935104Y-3244299D01*
G01X15935104Y-3199801D01*
G01X15890105Y-3199801D01*
G01X15890105Y-3243798D01*
G01X15849102Y-3244301D01*
G01X15844101Y-3239300D01*
G01X15844101Y-3124302D01*
G01X15849102Y-3119300D01*
G01X15977100Y-3119300D01*
G01X15982102Y-3124302D01*
G01X15982102Y-3239300D01*
G01X15977100Y-3244301D01*
G37*
G36*
G01X16294600Y-2557602D02*
G01X16166602Y-2557602D01*
G01X16161601Y-2552601D01*
G01X16161601Y-2437600D01*
G01X16166602Y-2432601D01*
G01X16207605Y-2432098D01*
G01X16207605Y-2477099D01*
G01X16252604Y-2477099D01*
G01X16252604Y-2433099D01*
G01X16294600Y-2432601D01*
G01X16299602Y-2437600D01*
G01X16299602Y-2552601D01*
G01X16294600Y-2557602D01*
G37*
G36*
G01X16294600Y-2342601D02*
G01X16252604Y-2342599D01*
G01X16252604Y-2298101D01*
G01X16207605Y-2298101D01*
G01X16207605Y-2342098D01*
G01X16166602Y-2342601D01*
G01X16161601Y-2337600D01*
G01X16161601Y-2222602D01*
G01X16166602Y-2217600D01*
G01X16294600Y-2217600D01*
G01X16299602Y-2222602D01*
G01X16299602Y-2337600D01*
G01X16294600Y-2342601D01*
G37*
G36*
G01X15977100Y-2557602D02*
G01X15849102Y-2557602D01*
G01X15844101Y-2552601D01*
G01X15844101Y-2437600D01*
G01X15849102Y-2432601D01*
G01X15890105Y-2432098D01*
G01X15890105Y-2477099D01*
G01X15935104Y-2477099D01*
G01X15935104Y-2433099D01*
G01X15977100Y-2432601D01*
G01X15982102Y-2437600D01*
G01X15982102Y-2552601D01*
G01X15977100Y-2557602D01*
G37*
G36*
G01X15977100Y-2342601D02*
G01X15935104Y-2342599D01*
G01X15935104Y-2298101D01*
G01X15890105Y-2298101D01*
G01X15890105Y-2342098D01*
G01X15849102Y-2342601D01*
G01X15844101Y-2337600D01*
G01X15844101Y-2222602D01*
G01X15849102Y-2217600D01*
G01X15977100Y-2217600D01*
G01X15982102Y-2222602D01*
G01X15982102Y-2337600D01*
G01X15977100Y-2342601D01*
G37*
G36*
G01X9740400Y-3106598D02*
G01X9868398Y-3106598D01*
G01X9873399Y-3111599D01*
G01X9873399Y-3226600D01*
G01X9868398Y-3231599D01*
G01X9827395Y-3232102D01*
G01X9827395Y-3187101D01*
G01X9782396Y-3187101D01*
G01X9782396Y-3231101D01*
G01X9740400Y-3231599D01*
G01X9735398Y-3226600D01*
G01X9735398Y-3111599D01*
G01X9740400Y-3106598D01*
G37*
G36*
G01X9740400Y-3321599D02*
G01X9782396Y-3321601D01*
G01X9782396Y-3366099D01*
G01X9827395Y-3366099D01*
G01X9827395Y-3322102D01*
G01X9868398Y-3321599D01*
G01X9873399Y-3326600D01*
G01X9873399Y-3441598D01*
G01X9868398Y-3446600D01*
G01X9740400Y-3446600D01*
G01X9735398Y-3441598D01*
G01X9735398Y-3326600D01*
G01X9740400Y-3321599D01*
G37*
G36*
G01X9550900Y-3446602D02*
G01X9422902Y-3446602D01*
G01X9417901Y-3441601D01*
G01X9417901Y-3326600D01*
G01X9422902Y-3321601D01*
G01X9463905Y-3321098D01*
G01X9463905Y-3366099D01*
G01X9508904Y-3366099D01*
G01X9508904Y-3322099D01*
G01X9550900Y-3321601D01*
G01X9555902Y-3326600D01*
G01X9555902Y-3441601D01*
G01X9550900Y-3446602D01*
G37*
G36*
G01X9550900Y-3231601D02*
G01X9508904Y-3231599D01*
G01X9508904Y-3187101D01*
G01X9463905Y-3187101D01*
G01X9463905Y-3231098D01*
G01X9422902Y-3231601D01*
G01X9417901Y-3226600D01*
G01X9417901Y-3111602D01*
G01X9422902Y-3106600D01*
G01X9550900Y-3106600D01*
G01X9555902Y-3111602D01*
G01X9555902Y-3226600D01*
G01X9550900Y-3231601D01*
G37*
G36*
G01X9868400Y-2557602D02*
G01X9740402Y-2557602D01*
G01X9735401Y-2552601D01*
G01X9735401Y-2437600D01*
G01X9740402Y-2432601D01*
G01X9781405Y-2432098D01*
G01X9781405Y-2477099D01*
G01X9826404Y-2477099D01*
G01X9826404Y-2433099D01*
G01X9868400Y-2432601D01*
G01X9873402Y-2437600D01*
G01X9873402Y-2552601D01*
G01X9868400Y-2557602D01*
G37*
G36*
G01X9868400Y-2342601D02*
G01X9826404Y-2342599D01*
G01X9826404Y-2298101D01*
G01X9781405Y-2298101D01*
G01X9781405Y-2342098D01*
G01X9740402Y-2342601D01*
G01X9735401Y-2337600D01*
G01X9735401Y-2222602D01*
G01X9740402Y-2217600D01*
G01X9868400Y-2217600D01*
G01X9873402Y-2222602D01*
G01X9873402Y-2337600D01*
G01X9868400Y-2342601D01*
G37*
G36*
G01X9563600Y-2557602D02*
G01X9435602Y-2557602D01*
G01X9430601Y-2552601D01*
G01X9430601Y-2437600D01*
G01X9435602Y-2432601D01*
G01X9476605Y-2432098D01*
G01X9476605Y-2477099D01*
G01X9521604Y-2477099D01*
G01X9521604Y-2433099D01*
G01X9563600Y-2432601D01*
G01X9568602Y-2437600D01*
G01X9568602Y-2552601D01*
G01X9563600Y-2557602D01*
G37*
G36*
G01X9563600Y-2342601D02*
G01X9521604Y-2342599D01*
G01X9521604Y-2298101D01*
G01X9476605Y-2298101D01*
G01X9476605Y-2342098D01*
G01X9435602Y-2342601D01*
G01X9430601Y-2337600D01*
G01X9430601Y-2222602D01*
G01X9435602Y-2217600D01*
G01X9563600Y-2217600D01*
G01X9568602Y-2222602D01*
G01X9568602Y-2337600D01*
G01X9563600Y-2342601D01*
G37*

G04 Pad Start*
G54D10*
G01X1811299Y-1752600D03*
G01X2100301Y-1752600D03*
G54D11*
G01X10488651Y-2679700D03*
G01X10488651Y-2806700D03*
G01X10488651Y-2933700D03*
G01X10488651Y-3060700D03*
G01X11025149Y-2679700D03*
G01X11025149Y-2806700D03*
G01X11025149Y-2933700D03*
G01X11025149Y-3060700D03*
G01X14717751Y-2654300D03*
G01X14717751Y-2781300D03*
G01X14717751Y-2908300D03*
G01X14717751Y-3035300D03*
G01X15254249Y-2654300D03*
G01X15254249Y-2781300D03*
G01X15254249Y-2908300D03*
G01X15254249Y-3035300D03*
G01X18845251Y-2654300D03*
G01X18845251Y-2781300D03*
G01X18845251Y-2908300D03*
G01X18845251Y-3035300D03*
G01X19381749Y-2654300D03*
G01X19381749Y-2781300D03*
G01X19381749Y-2908300D03*
G01X19381749Y-3035300D03*
G54D12*
G01X6940398Y-7327900D03*
G01X7080402Y-7327900D03*
G01X9531502Y-5791200D03*
G01X9391498Y-5791200D03*
G01X13315798Y-5791200D03*
G01X13455802Y-5791200D03*
G01X15271598Y-5803900D03*
G01X15411602Y-5803900D03*
G01X17278198Y-5702300D03*
G01X17418202Y-5702300D03*
G01X19246698Y-5778500D03*
G01X19386702Y-5778500D03*
G01X9569602Y-7823200D03*
G01X9429598Y-7823200D03*
G01X11512702Y-7785100D03*
G01X11372698Y-7785100D03*
G01X7778902Y-5676900D03*
G01X7638898Y-5676900D03*
G01X13481202Y-7810500D03*
G01X13341198Y-7810500D03*
G01X15487802Y-7797800D03*
G01X15347798Y-7797800D03*
G01X17405502Y-7861300D03*
G01X17265498Y-7861300D03*
G01X19361302Y-7848600D03*
G01X19221298Y-7848600D03*
G01X7804302Y-9880600D03*
G01X7664298Y-9880600D03*
G01X9620402Y-9956800D03*
G01X9480398Y-9956800D03*
G01X11512702Y-9918700D03*
G01X11372698Y-9918700D03*
G01X13519302Y-9956800D03*
G01X13379298Y-9956800D03*
G01X15500502Y-9944100D03*
G01X15360498Y-9944100D03*
G01X17443602Y-9931400D03*
G01X17303598Y-9931400D03*
G01X19399402Y-9944100D03*
G01X19259398Y-9944100D03*
G01X7766202Y-11925300D03*
G01X7626198Y-11925300D03*
G01X9569602Y-11988800D03*
G01X9429598Y-11988800D03*
G01X11474602Y-11963400D03*
G01X11334598Y-11963400D03*
G01X13481202Y-11976100D03*
G01X13341198Y-11976100D03*
G01X15449702Y-12001500D03*
G01X15309698Y-12001500D03*
G01X17430902Y-12001500D03*
G01X17290898Y-12001500D03*
G01X19348602Y-11988800D03*
G01X19208598Y-11988800D03*
G01X7753502Y-14147800D03*
G01X7613498Y-14147800D03*
G01X9595002Y-14058900D03*
G01X9454998Y-14058900D03*
G01X11550802Y-14020800D03*
G01X11410798Y-14020800D03*
G01X13493902Y-14008100D03*
G01X13353898Y-14008100D03*
G01X15475102Y-14058900D03*
G01X15335098Y-14058900D03*
G54D13*
G01X18757900Y-1251102D03*
G01X18757900Y-1111098D03*
G01X15316200Y-1276502D03*
G01X15316200Y-1136498D03*
G54D12*
G01X1035412Y-14417135D03*
G01X895407Y-14417135D03*
G01X1022502Y-12611100D03*
G01X882498Y-12611100D03*
G01X2952902Y-10947400D03*
G01X2812898Y-10947400D03*
G54D13*
G01X10299700Y-1263802D03*
G01X10299700Y-1123798D03*
G01X10998200Y-1251102D03*
G01X10998200Y-1111098D03*
G01X14579600Y-1276502D03*
G01X14579600Y-1136498D03*
G54D14*
G01X5346002Y-10748200D03*
G01X6845999Y-10748200D03*
G01X5346002Y-11248199D03*
G01X6845999Y-11248199D03*
G01X4838002Y-12221400D03*
G01X6337999Y-12221400D03*
G01X4838002Y-12721399D03*
G01X6337999Y-12721399D03*
G01X5371402Y-13745400D03*
G01X6871399Y-13745400D03*
G01X5371402Y-14245399D03*
G01X6871399Y-14245399D03*
G01X3415602Y-13758100D03*
G01X4915599Y-13758100D03*
G01X3415602Y-14258099D03*
G01X4915599Y-14258099D03*
G01X2920302Y-12221400D03*
G01X4420299Y-12221400D03*
G01X2920302Y-12721399D03*
G01X4420299Y-12721399D03*
G01X3415602Y-10760900D03*
G01X4915599Y-10760900D03*
G01X3415602Y-11260899D03*
G01X4915599Y-11260899D03*
G54D15*
G01X6202096Y-9042400D03*
G01X6202096Y-8915400D03*
G01X6202096Y-8788400D03*
G01X6202096Y-8661400D03*
G01X6202096Y-8534400D03*
G01X6202096Y-8407400D03*
G01X6202096Y-8280400D03*
G01X6202096Y-8153400D03*
G01X6202096Y-8026400D03*
G01X6202096Y-7899400D03*
G01X6202096Y-7772400D03*
G01X6202096Y-7645400D03*
G01X5253304Y-9042400D03*
G01X5253304Y-8915400D03*
G01X5253304Y-8788400D03*
G01X5253304Y-8661400D03*
G01X5253304Y-8534400D03*
G01X5253304Y-8407400D03*
G01X5253304Y-8280400D03*
G01X5253304Y-8153400D03*
G01X5253304Y-8026400D03*
G01X5253304Y-7899400D03*
G01X5253304Y-7772400D03*
G01X5253304Y-7645400D03*
G54D16*
G01X854647Y-2933362D03*
G01X694754Y-2934048D03*
G54D17*
G01X815213Y-14131099D03*
G01X1115187Y-14131099D03*
G01X1115187Y-13631100D03*
G01X815213Y-13631100D03*
G01X815213Y-12378499D03*
G01X1115187Y-12378499D03*
G01X1115187Y-11878500D03*
G01X815213Y-11878500D03*
G01X2745613Y-10613199D03*
G01X3045587Y-10613199D03*
G01X3045587Y-10113200D03*
G01X2745613Y-10113200D03*
G01X6898513Y-12721399D03*
G01X7198487Y-12721399D03*
G01X7198487Y-12221400D03*
G01X6898513Y-12221400D03*
G01X10492613Y-1837499D03*
G01X10792587Y-1837499D03*
G01X10792587Y-1337500D03*
G01X10492613Y-1337500D03*
G01X10492613Y-1050099D03*
G01X10792587Y-1050099D03*
G01X10792587Y-550100D03*
G01X10492613Y-550100D03*
G01X14810613Y-1837499D03*
G01X15110587Y-1837499D03*
G01X15110587Y-1337500D03*
G01X14810613Y-1337500D03*
G01X14810613Y-1050099D03*
G01X15110587Y-1050099D03*
G01X15110587Y-550100D03*
G01X14810613Y-550100D03*
G01X18963513Y-1824799D03*
G01X19263487Y-1824799D03*
G01X19263487Y-1324800D03*
G01X18963513Y-1324800D03*
G01X18963513Y-1037399D03*
G01X19263487Y-1037399D03*
G01X19263487Y-537400D03*
G01X18963513Y-537400D03*
G01X20170013Y-16378999D03*
G01X20469987Y-16378999D03*
G01X20469987Y-15879000D03*
G01X20170013Y-15879000D03*
G01X18214213Y-16378999D03*
G01X18514187Y-16378999D03*
G01X18514187Y-15879000D03*
G01X18214213Y-15879000D03*
G01X16271113Y-16378999D03*
G01X16571087Y-16378999D03*
G01X16571087Y-15879000D03*
G01X16271113Y-15879000D03*
G01X14277213Y-16378999D03*
G01X14577187Y-16378999D03*
G01X14577187Y-15879000D03*
G01X14277213Y-15879000D03*
G01X12270613Y-16378999D03*
G01X12570587Y-16378999D03*
G01X12570587Y-15879000D03*
G01X12270613Y-15879000D03*
G01X10365613Y-16366299D03*
G01X10665587Y-16366299D03*
G01X10665587Y-15866300D03*
G01X10365613Y-15866300D03*
G01X8397113Y-16378999D03*
G01X8697087Y-16378999D03*
G01X8697087Y-15879000D03*
G01X8397113Y-15879000D03*
G01X20157313Y-14308899D03*
G01X20457287Y-14308899D03*
G01X20457287Y-13808900D03*
G01X20157313Y-13808900D03*
G01X18188813Y-14308899D03*
G01X18488787Y-14308899D03*
G01X18488787Y-13808900D03*
G01X18188813Y-13808900D03*
G01X16271113Y-14308899D03*
G01X16571087Y-14308899D03*
G01X16571087Y-13808900D03*
G01X16271113Y-13808900D03*
G01X14277213Y-14308899D03*
G01X14577187Y-14308899D03*
G01X14577187Y-13808900D03*
G01X14277213Y-13808900D03*
G01X12283313Y-14308899D03*
G01X12583287Y-14308899D03*
G01X12583287Y-13808900D03*
G01X12283313Y-13808900D03*
G01X10352913Y-14308899D03*
G01X10652887Y-14308899D03*
G01X10652887Y-13808900D03*
G01X10352913Y-13808900D03*
G01X8384413Y-14308899D03*
G01X8684387Y-14308899D03*
G01X8684387Y-13808900D03*
G01X8384413Y-13808900D03*
G01X20144613Y-12238799D03*
G01X20444587Y-12238799D03*
G01X20444587Y-11738800D03*
G01X20144613Y-11738800D03*
G01X18176113Y-12238799D03*
G01X18476087Y-12238799D03*
G01X18476087Y-11738800D03*
G01X18176113Y-11738800D03*
G01X16245713Y-12238799D03*
G01X16545687Y-12238799D03*
G01X16545687Y-11738800D03*
G01X16245713Y-11738800D03*
G01X14277213Y-12238799D03*
G01X14577187Y-12238799D03*
G01X14577187Y-11738800D03*
G01X14277213Y-11738800D03*
G01X12283313Y-12238799D03*
G01X12583287Y-12238799D03*
G01X12583287Y-11738800D03*
G01X12283313Y-11738800D03*
G01X10352913Y-12238799D03*
G01X10652887Y-12238799D03*
G01X10652887Y-11738800D03*
G01X10352913Y-11738800D03*
G01X8384413Y-12238799D03*
G01X8684387Y-12238799D03*
G01X8684387Y-11738800D03*
G01X8384413Y-11738800D03*
G01X20144613Y-10168699D03*
G01X20444587Y-10168699D03*
G01X20444587Y-9668700D03*
G01X20144613Y-9668700D03*
G01X18176113Y-10168699D03*
G01X18476087Y-10168699D03*
G01X18476087Y-9668700D03*
G01X18176113Y-9668700D03*
G01X16207613Y-10168699D03*
G01X16507587Y-10168699D03*
G01X16507587Y-9668700D03*
G01X16207613Y-9668700D03*
G01X14277213Y-10168699D03*
G01X14577187Y-10168699D03*
G01X14577187Y-9668700D03*
G01X14277213Y-9668700D03*
G01X12296013Y-10168699D03*
G01X12595987Y-10168699D03*
G01X12595987Y-9668700D03*
G01X12296013Y-9668700D03*
G01X10365613Y-10168699D03*
G01X10665587Y-10168699D03*
G01X10665587Y-9668700D03*
G01X10365613Y-9668700D03*
G01X8384413Y-10168699D03*
G01X8684387Y-10168699D03*
G01X8684387Y-9668700D03*
G01X8384413Y-9668700D03*
G01X20144613Y-8098599D03*
G01X20444587Y-8098599D03*
G01X20444587Y-7598600D03*
G01X20144613Y-7598600D03*
G01X18125313Y-8098599D03*
G01X18425287Y-8098599D03*
G01X18425287Y-7598600D03*
G01X18125313Y-7598600D03*
G01X16207613Y-8098599D03*
G01X16507587Y-8098599D03*
G01X16507587Y-7598600D03*
G01X16207613Y-7598600D03*
G01X14239113Y-8098599D03*
G01X14539087Y-8098599D03*
G01X14539087Y-7598600D03*
G01X14239113Y-7598600D03*
G01X12257913Y-8098599D03*
G01X12557887Y-8098599D03*
G01X12557887Y-7598600D03*
G01X12257913Y-7598600D03*
G01X10302113Y-8098599D03*
G01X10602087Y-8098599D03*
G01X10602087Y-7598600D03*
G01X10302113Y-7598600D03*
G01X8333613Y-8098599D03*
G01X8633587Y-8098599D03*
G01X8633587Y-7598600D03*
G01X8333613Y-7598600D03*
G01X20144613Y-6028499D03*
G01X20444587Y-6028499D03*
G01X20444587Y-5528500D03*
G01X20144613Y-5528500D03*
G01X18125313Y-6028499D03*
G01X18425287Y-6028499D03*
G01X18425287Y-5528500D03*
G01X18125313Y-5528500D03*
G01X16093313Y-6028499D03*
G01X16393287Y-6028499D03*
G01X16393287Y-5528500D03*
G01X16093313Y-5528500D03*
G01X14124813Y-6028499D03*
G01X14424787Y-6028499D03*
G01X14424787Y-5528500D03*
G01X14124813Y-5528500D03*
G01X12156313Y-6028499D03*
G01X12456287Y-6028499D03*
G01X12456287Y-5528500D03*
G01X12156313Y-5528500D03*
G01X10251313Y-6028499D03*
G01X10551287Y-6028499D03*
G01X10551287Y-5528500D03*
G01X10251313Y-5528500D03*
G01X8333613Y-6028499D03*
G01X8633587Y-6028499D03*
G01X8633587Y-5528500D03*
G01X8333613Y-5528500D03*
G54D15*
G01X5215204Y-5143500D03*
G01X5215204Y-5270500D03*
G01X5215204Y-5397500D03*
G01X5215204Y-5524500D03*
G01X5215204Y-5651500D03*
G01X5215204Y-5778500D03*
G01X5215204Y-5905500D03*
G01X5215204Y-6032500D03*
G01X5215204Y-6159500D03*
G01X5215204Y-6286500D03*
G01X5215204Y-6413500D03*
G01X5215204Y-6540500D03*
G01X6163996Y-5143500D03*
G01X6163996Y-5270500D03*
G01X6163996Y-5397500D03*
G01X6163996Y-5524500D03*
G01X6163996Y-5651500D03*
G01X6163996Y-5778500D03*
G01X6163996Y-5905500D03*
G01X6163996Y-6032500D03*
G01X6163996Y-6159500D03*
G01X6163996Y-6286500D03*
G01X6163996Y-6413500D03*
G01X6163996Y-6540500D03*
G54D12*
G01X1238402Y-6959600D03*
G01X1098398Y-6959600D03*
G54D13*
G01X5524500Y-4654702D03*
G01X5524500Y-4514698D03*
G54D12*
G01X7143902Y-2781300D03*
G01X7003898Y-2781300D03*
G01X6534302Y-4927600D03*
G01X6394298Y-4927600D03*
G01X6660998Y-6057900D03*
G01X6801002Y-6057900D03*
G54D14*
G01X9702102Y-4461700D03*
G01X11202099Y-4461700D03*
G01X9702102Y-4961699D03*
G01X11202099Y-4961699D03*
G01X7733602Y-4461700D03*
G01X9233599Y-4461700D03*
G01X7733602Y-4961699D03*
G01X9233599Y-4961699D03*
G01X19608102Y-12742100D03*
G01X21108099Y-12742100D03*
G01X19608102Y-13242099D03*
G01X21108099Y-13242099D03*
G01X17639602Y-12742100D03*
G01X19139599Y-12742100D03*
G01X17639602Y-13242099D03*
G01X19139599Y-13242099D03*
G01X15671102Y-12742100D03*
G01X17171099Y-12742100D03*
G01X15671102Y-13242099D03*
G01X17171099Y-13242099D03*
G01X13702602Y-12742100D03*
G01X15202599Y-12742100D03*
G01X13702602Y-13242099D03*
G01X15202599Y-13242099D03*
G01X11734102Y-12742100D03*
G01X13234099Y-12742100D03*
G01X11734102Y-13242099D03*
G01X13234099Y-13242099D03*
G01X9765602Y-12742100D03*
G01X11265599Y-12742100D03*
G01X9765602Y-13242099D03*
G01X11265599Y-13242099D03*
G01X7797102Y-12742100D03*
G01X9297099Y-12742100D03*
G01X7797102Y-13242099D03*
G01X9297099Y-13242099D03*
G01X19557302Y-10672000D03*
G01X21057299Y-10672000D03*
G01X19557302Y-11171999D03*
G01X21057299Y-11171999D03*
G01X17588802Y-10672000D03*
G01X19088799Y-10672000D03*
G01X17588802Y-11171999D03*
G01X19088799Y-11171999D03*
G01X15620302Y-10672000D03*
G01X17120299Y-10672000D03*
G01X15620302Y-11171999D03*
G01X17120299Y-11171999D03*
G01X13651802Y-10672000D03*
G01X15151799Y-10672000D03*
G01X13651802Y-11171999D03*
G01X15151799Y-11171999D03*
G01X11696002Y-10672000D03*
G01X13195999Y-10672000D03*
G01X11696002Y-11171999D03*
G01X13195999Y-11171999D03*
G01X9740202Y-10672000D03*
G01X11240199Y-10672000D03*
G01X9740202Y-11171999D03*
G01X11240199Y-11171999D03*
G01X7771702Y-10672000D03*
G01X9271699Y-10672000D03*
G01X7771702Y-11171999D03*
G01X9271699Y-11171999D03*
G01X19570002Y-8601900D03*
G01X21069999Y-8601900D03*
G01X19570002Y-9101899D03*
G01X21069999Y-9101899D03*
G01X17601502Y-8601900D03*
G01X19101499Y-8601900D03*
G01X17601502Y-9101899D03*
G01X19101499Y-9101899D03*
G01X15633002Y-8601900D03*
G01X17132999Y-8601900D03*
G01X15633002Y-9101899D03*
G01X17132999Y-9101899D03*
G01X13664502Y-8601900D03*
G01X15164499Y-8601900D03*
G01X13664502Y-9101899D03*
G01X15164499Y-9101899D03*
G01X11696002Y-8601900D03*
G01X13195999Y-8601900D03*
G01X11696002Y-9101899D03*
G01X13195999Y-9101899D03*
G01X9727502Y-8601900D03*
G01X11227499Y-8601900D03*
G01X9727502Y-9101899D03*
G01X11227499Y-9101899D03*
G01X7759002Y-8601900D03*
G01X9258999Y-8601900D03*
G01X7759002Y-9101899D03*
G01X9258999Y-9101899D03*
G01X7797102Y-14812200D03*
G01X9297099Y-14812200D03*
G01X7797102Y-15312199D03*
G01X9297099Y-15312199D03*
G01X9765602Y-14799500D03*
G01X11265599Y-14799500D03*
G01X9765602Y-15299499D03*
G01X11265599Y-15299499D03*
G01X11734102Y-14812200D03*
G01X13234099Y-14812200D03*
G01X11734102Y-15312199D03*
G01X13234099Y-15312199D03*
G01X13702602Y-14812200D03*
G01X15202599Y-14812200D03*
G01X13702602Y-15312199D03*
G01X15202599Y-15312199D03*
G01X15671102Y-14812200D03*
G01X17171099Y-14812200D03*
G01X15671102Y-15312199D03*
G01X17171099Y-15312199D03*
G01X17639602Y-14812200D03*
G01X19139599Y-14812200D03*
G01X17639602Y-15312199D03*
G01X19139599Y-15312199D03*
G01X19608102Y-14812200D03*
G01X21108099Y-14812200D03*
G01X19608102Y-15312199D03*
G01X21108099Y-15312199D03*
G01X19544602Y-6531800D03*
G01X21044599Y-6531800D03*
G01X19544602Y-7031799D03*
G01X21044599Y-7031799D03*
G01X17576102Y-6531800D03*
G01X19076099Y-6531800D03*
G01X17576102Y-7031799D03*
G01X19076099Y-7031799D03*
G01X15607602Y-6531800D03*
G01X17107599Y-6531800D03*
G01X15607602Y-7031799D03*
G01X17107599Y-7031799D03*
G01X13639102Y-6531800D03*
G01X15139099Y-6531800D03*
G01X13639102Y-7031799D03*
G01X15139099Y-7031799D03*
G01X11670602Y-6531800D03*
G01X13170599Y-6531800D03*
G01X11670602Y-7031799D03*
G01X13170599Y-7031799D03*
G01X9702102Y-6531800D03*
G01X11202099Y-6531800D03*
G01X9702102Y-7031799D03*
G01X11202099Y-7031799D03*
G01X7733602Y-6531800D03*
G01X9233599Y-6531800D03*
G01X7733602Y-7031799D03*
G01X9233599Y-7031799D03*
G01X19544602Y-4461700D03*
G01X21044599Y-4461700D03*
G01X19544602Y-4961699D03*
G01X21044599Y-4961699D03*
G01X17576102Y-4461700D03*
G01X19076099Y-4461700D03*
G01X17576102Y-4961699D03*
G01X19076099Y-4961699D03*
G01X15607602Y-4461700D03*
G01X17107599Y-4461700D03*
G01X15607602Y-4961699D03*
G01X17107599Y-4961699D03*
G01X11670602Y-4461700D03*
G01X13170599Y-4461700D03*
G01X11670602Y-4961699D03*
G01X13170599Y-4961699D03*
G01X13639102Y-4461700D03*
G01X15139099Y-4461700D03*
G01X13639102Y-4961699D03*
G01X15139099Y-4961699D03*
G54D19*
G01X1180808Y-2298700D03*
G01X1714792Y-2298700D03*
G54D12*
G01X6940398Y-6515100D03*
G01X7080402Y-6515100D03*
G01X1505102Y-2908300D03*
G01X1365098Y-2908300D03*
G01X19043498Y-2425700D03*
G01X19183502Y-2425700D03*
G01X14915998Y-2438400D03*
G01X15056002Y-2438400D03*
G01X10686898Y-2451100D03*
G01X10826902Y-2451100D03*
G01X20605598Y-2578100D03*
G01X20745602Y-2578100D03*
G01X20605598Y-3276600D03*
G01X20745602Y-3276600D03*
G01X17621402Y-3276600D03*
G01X17481398Y-3276600D03*
G01X17621402Y-2590800D03*
G01X17481398Y-2590800D03*
G01X13430402Y-3289300D03*
G01X13290398Y-3289300D03*
G01X13430402Y-2590800D03*
G01X13290398Y-2590800D03*
G01X12439802Y-3289300D03*
G01X12299798Y-3289300D03*
G01X12299798Y-2400300D03*
G01X12439802Y-2400300D03*
G01X16528898Y-2590749D03*
G01X16668902Y-2590749D03*
G01X16528898Y-3276549D03*
G01X16668902Y-3276549D03*
G01X9214002Y-3276600D03*
G01X9073998Y-3276600D03*
G01X9214002Y-2413000D03*
G01X9073998Y-2413000D03*
G01X1263802Y-7797800D03*
G01X1123798Y-7797800D03*
G01X5772302Y-4965700D03*
G01X5632298Y-4965700D03*
G01X5823102Y-9220200D03*
G01X5683098Y-9220200D03*
G01X11512702Y-5791200D03*
G01X11372698Y-5791200D03*
G01X17494402Y-14046200D03*
G01X17354398Y-14046200D03*
G01X19424802Y-13995400D03*
G01X19284798Y-13995400D03*
G01X7677302Y-16103600D03*
G01X7537298Y-16103600D03*
G01X9648075Y-16103604D03*
G01X9508071Y-16103604D03*
G01X11603875Y-16103604D03*
G01X11463871Y-16103604D03*
G01X13597775Y-16129004D03*
G01X13457771Y-16129004D03*
G01X15566275Y-16103604D03*
G01X15426271Y-16103604D03*
G01X17547475Y-16141704D03*
G01X17407471Y-16141704D03*
G01X19424797Y-16141704D03*
G01X19284793Y-16141704D03*
G54D13*
G01X19456396Y-1251097D03*
G01X19456396Y-1111093D03*
G54D12*
G01X6927997Y-13030200D03*
G01X6787993Y-13030200D03*
G04 Pad End*

M02*

