G04 Layer: BottomLayer*
G04 EasyEDA Pro v2.2.40.8, 2025-08-31 08:04:05*
G04 Gerber Generator version 0.3*
G04 Scale: 100 percent, Rotated: No, Reflected: No*
G04 Dimensions in millimeters*
G04 Leading zeros omitted, absolute positions, 4 integers and 5 decimals*
G04 Generated by one-click*
%FSLAX45Y45*%
%MOMM*%
%ADD10C,0.2032*%
%ADD11C,0.254*%
%ADD12O,4.59999X2.0*%
%ADD13O,2.0X4.59999*%
%ADD14O,1.0X2.0*%
%ADD15C,1.5244*%
%ADD16C,1.524*%
%ADD17C,1.7*%
%ADD18R,1.5X2.0*%
%ADD19O,1.5X2.0*%
%ADD20R,1.5X1.5*%
%ADD21C,1.5*%
%ADD22C,1.53*%
%ADD23C,1.8*%
%ADD24O,2.99999X3.29999*%
%ADD25C,2.2*%
%ADD26C,0.7112*%
%ADD27C,0.6096*%
%ADD28C,0.635*%
G75*


G04 Copper Start*
G36*
G01X20647660Y-2567944D02*
G01X20647660Y-1955800D01*
G01X21196046Y-1955800D01*
G01X21197995Y-1992997D01*
G01X21203822Y-2029786D01*
G01X21213463Y-2065765D01*
G01X21226811Y-2100539D01*
G01X21243721Y-2133727D01*
G01X21264008Y-2164966D01*
G01X21287449Y-2193913D01*
G01X21313787Y-2220251D01*
G01X21342734Y-2243692D01*
G01X21373973Y-2263979D01*
G01X21407161Y-2280889D01*
G01X21441935Y-2294237D01*
G01X21477914Y-2303878D01*
G01X21514703Y-2309705D01*
G01X21551900Y-2311654D01*
G01X21589097Y-2309705D01*
G01X21625886Y-2303878D01*
G01X21661865Y-2294237D01*
G01X21696639Y-2280889D01*
G01X21729827Y-2263979D01*
G01X21761066Y-2243692D01*
G01X21790013Y-2220251D01*
G01X21816351Y-2193913D01*
G01X21839792Y-2164966D01*
G01X21860079Y-2133727D01*
G01X21876989Y-2100539D01*
G01X21890337Y-2065765D01*
G01X21899978Y-2029786D01*
G01X21905805Y-1992997D01*
G01X21907754Y-1955800D01*
G01X21905805Y-1918603D01*
G01X21899978Y-1881814D01*
G01X21890337Y-1845835D01*
G01X21876989Y-1811061D01*
G01X21860079Y-1777873D01*
G01X21839792Y-1746634D01*
G01X21816351Y-1717687D01*
G01X21790013Y-1691349D01*
G01X21761066Y-1667908D01*
G01X21729827Y-1647621D01*
G01X21696639Y-1630711D01*
G01X21661865Y-1617363D01*
G01X21625886Y-1607722D01*
G01X21589097Y-1601895D01*
G01X21551900Y-1599946D01*
G01X21514703Y-1601895D01*
G01X21477914Y-1607722D01*
G01X21441935Y-1617363D01*
G01X21407161Y-1630711D01*
G01X21373973Y-1647621D01*
G01X21342734Y-1667908D01*
G01X21313787Y-1691349D01*
G01X21287449Y-1717687D01*
G01X21264008Y-1746634D01*
G01X21243721Y-1777873D01*
G01X21226811Y-1811061D01*
G01X21213463Y-1845835D01*
G01X21203822Y-1881814D01*
G01X21197995Y-1918603D01*
G01X21196046Y-1955800D01*
G01X21196046Y-1955800D01*
G01X20647660Y-1955800D01*
G01X20647660Y-1356360D01*
G01X22010704Y-1356360D01*
G01X22010704Y-2567944D01*
G01X20647660Y-2567944D01*
G37*
G36*
G01X7388860Y-4942586D02*
G01X7388860Y-4099814D01*
G01X8331200Y-4099814D01*
G01X8343756Y-4098161D01*
G01X8355457Y-4093314D01*
G01X8365505Y-4085605D01*
G01X9138695Y-3312414D01*
G01X10393241Y-3312414D01*
G01X10388598Y-3316986D01*
G01X10237749Y-3316986D01*
G01X10225193Y-3318639D01*
G01X10213492Y-3323486D01*
G01X10203445Y-3331195D01*
G01X9961063Y-3573578D01*
G01X9945597Y-3574674D01*
G01X9930733Y-3579085D01*
G01X9917173Y-3586601D01*
G01X9905555Y-3596869D01*
G01X9896429Y-3609402D01*
G01X9890224Y-3623611D01*
G01X9887234Y-3638824D01*
G01X9887600Y-3654324D01*
G01X9891305Y-3669380D01*
G01X9898173Y-3683280D01*
G01X9907880Y-3695369D01*
G01X9919969Y-3705077D01*
G01X9933870Y-3711945D01*
G01X9948925Y-3715649D01*
G01X9964425Y-3716015D01*
G01X9979638Y-3713025D01*
G01X9993847Y-3706821D01*
G01X10006381Y-3697694D01*
G01X10016648Y-3686077D01*
G01X10024164Y-3672516D01*
G01X10028575Y-3657652D01*
G01X10029672Y-3642187D01*
G01X10139834Y-3532025D01*
G01X10146011Y-3550778D01*
G01X10155385Y-3568156D01*
G01X10167664Y-3583618D01*
G01X10182467Y-3596683D01*
G01X10199335Y-3606947D01*
G01X10217743Y-3614089D01*
G01X10237118Y-3617888D01*
G01X10256860Y-3618226D01*
G01X10276355Y-3615093D01*
G01X10294996Y-3608585D01*
G01X10312205Y-3598905D01*
G01X10327447Y-3586354D01*
G01X10340249Y-3571322D01*
G01X10350212Y-3554276D01*
G01X10357028Y-3535745D01*
G01X10360484Y-3516305D01*
G01X10360473Y-3496560D01*
G01X10360401Y-3496160D01*
G01X11140664Y-3496160D01*
G01X11140664Y-3516831D01*
G01X11144462Y-3537149D01*
G01X11151929Y-3556424D01*
G01X11162811Y-3573999D01*
G01X11176737Y-3589275D01*
G01X11193232Y-3601732D01*
G01X11211736Y-3610945D01*
G01X11231617Y-3616602D01*
G01X11252200Y-3618509D01*
G01X11272783Y-3616602D01*
G01X11292664Y-3610945D01*
G01X11311168Y-3601732D01*
G01X11327663Y-3589275D01*
G01X11341589Y-3573999D01*
G01X11352471Y-3556424D01*
G01X11359938Y-3537149D01*
G01X11363736Y-3516831D01*
G01X11363736Y-3496160D01*
G01X11359938Y-3475841D01*
G01X11357969Y-3470760D01*
G01X14391864Y-3470760D01*
G01X14391864Y-3491431D01*
G01X14395662Y-3511749D01*
G01X14403129Y-3531024D01*
G01X14414011Y-3548599D01*
G01X14427937Y-3563875D01*
G01X14444432Y-3576332D01*
G01X14462936Y-3585545D01*
G01X14482817Y-3591202D01*
G01X14503400Y-3593109D01*
G01X14503400Y-3593109D01*
G01X14523983Y-3591202D01*
G01X14543864Y-3585545D01*
G01X14562368Y-3576332D01*
G01X14578863Y-3563875D01*
G01X14592789Y-3548599D01*
G01X14603671Y-3531024D01*
G01X14611138Y-3511749D01*
G01X14614052Y-3496160D01*
G01X15369764Y-3496160D01*
G01X15369764Y-3516831D01*
G01X15373562Y-3537149D01*
G01X15381029Y-3556424D01*
G01X15391911Y-3573999D01*
G01X15405837Y-3589275D01*
G01X15422332Y-3601732D01*
G01X15440836Y-3610945D01*
G01X15460717Y-3616602D01*
G01X15481300Y-3618509D01*
G01X15501883Y-3616602D01*
G01X15521764Y-3610945D01*
G01X15540268Y-3601732D01*
G01X15556763Y-3589275D01*
G01X15570689Y-3573999D01*
G01X15581571Y-3556424D01*
G01X15589038Y-3537149D01*
G01X15592836Y-3516831D01*
G01X15592836Y-3496160D01*
G01X15589038Y-3475841D01*
G01X15587069Y-3470760D01*
G01X18519364Y-3470760D01*
G01X18519364Y-3491431D01*
G01X18523162Y-3511749D01*
G01X18530629Y-3531024D01*
G01X18541511Y-3548599D01*
G01X18555437Y-3563875D01*
G01X18571932Y-3576332D01*
G01X18590436Y-3585545D01*
G01X18610317Y-3591202D01*
G01X18630900Y-3593109D01*
G01X18630900Y-3593109D01*
G01X18651483Y-3591202D01*
G01X18671364Y-3585545D01*
G01X18689868Y-3576332D01*
G01X18706363Y-3563875D01*
G01X18720289Y-3548599D01*
G01X18731171Y-3531024D01*
G01X18738638Y-3511749D01*
G01X18742436Y-3491431D01*
G01X18742436Y-3470760D01*
G01X18742436Y-3470760D01*
G01X19484564Y-3470760D01*
G01X19484564Y-3491431D01*
G01X19488362Y-3511749D01*
G01X19495829Y-3531024D01*
G01X19506711Y-3548599D01*
G01X19520637Y-3563875D01*
G01X19537132Y-3576332D01*
G01X19555636Y-3585545D01*
G01X19575517Y-3591202D01*
G01X19596100Y-3593109D01*
G01X19616683Y-3591202D01*
G01X19636564Y-3585545D01*
G01X19655068Y-3576332D01*
G01X19671563Y-3563875D01*
G01X19685489Y-3548599D01*
G01X19696371Y-3531024D01*
G01X19703838Y-3511749D01*
G01X19707636Y-3491431D01*
G01X19707636Y-3470760D01*
G01X19703838Y-3450441D01*
G01X19696371Y-3431166D01*
G01X19685489Y-3413592D01*
G01X19671563Y-3398316D01*
G01X19655068Y-3385859D01*
G01X19636564Y-3376645D01*
G01X19616683Y-3370989D01*
G01X19596100Y-3369081D01*
G01X19596100Y-3369081D01*
G01X19575517Y-3370989D01*
G01X19555636Y-3376645D01*
G01X19537132Y-3385859D01*
G01X19520637Y-3398316D01*
G01X19506711Y-3413592D01*
G01X19495829Y-3431166D01*
G01X19488362Y-3450441D01*
G01X19484564Y-3470760D01*
G01X18742436Y-3470760D01*
G01X18738638Y-3450441D01*
G01X18731171Y-3431166D01*
G01X18720289Y-3413592D01*
G01X18706363Y-3398316D01*
G01X18689868Y-3385859D01*
G01X18671364Y-3376645D01*
G01X18651483Y-3370989D01*
G01X18630900Y-3369081D01*
G01X18610317Y-3370989D01*
G01X18590436Y-3376645D01*
G01X18571932Y-3385859D01*
G01X18555437Y-3398316D01*
G01X18541511Y-3413592D01*
G01X18530629Y-3431166D01*
G01X18523162Y-3450441D01*
G01X18519364Y-3470760D01*
G01X15587069Y-3470760D01*
G01X15581571Y-3456566D01*
G01X15570689Y-3438992D01*
G01X15556763Y-3423716D01*
G01X15540268Y-3411259D01*
G01X15521764Y-3402045D01*
G01X15501883Y-3396389D01*
G01X15481300Y-3394481D01*
G01X15481300Y-3394481D01*
G01X15460717Y-3396389D01*
G01X15440836Y-3402045D01*
G01X15422332Y-3411259D01*
G01X15405837Y-3423716D01*
G01X15391911Y-3438992D01*
G01X15381029Y-3456566D01*
G01X15373562Y-3475841D01*
G01X15369764Y-3496160D01*
G01X14614052Y-3496160D01*
G01X14614936Y-3491431D01*
G01X14614936Y-3470760D01*
G01X14611138Y-3450441D01*
G01X14603671Y-3431166D01*
G01X14592789Y-3413592D01*
G01X14578863Y-3398316D01*
G01X14562368Y-3385859D01*
G01X14543864Y-3376645D01*
G01X14523983Y-3370989D01*
G01X14503400Y-3369081D01*
G01X14482817Y-3370989D01*
G01X14462936Y-3376645D01*
G01X14444432Y-3385859D01*
G01X14427937Y-3398316D01*
G01X14414011Y-3413592D01*
G01X14403129Y-3431166D01*
G01X14395662Y-3450441D01*
G01X14391864Y-3470760D01*
G01X11357969Y-3470760D01*
G01X11352471Y-3456566D01*
G01X11341589Y-3438992D01*
G01X11327663Y-3423716D01*
G01X11311168Y-3411259D01*
G01X11292664Y-3402045D01*
G01X11272783Y-3396389D01*
G01X11252200Y-3394481D01*
G01X11252200Y-3394481D01*
G01X11231617Y-3396389D01*
G01X11211736Y-3402045D01*
G01X11193232Y-3411259D01*
G01X11176737Y-3423716D01*
G01X11162811Y-3438992D01*
G01X11151929Y-3456566D01*
G01X11144462Y-3475841D01*
G01X11140664Y-3496160D01*
G01X10360401Y-3496160D01*
G01X10356995Y-3477124D01*
G01X10350158Y-3458601D01*
G01X10340176Y-3441566D01*
G01X10327357Y-3426548D01*
G01X10312101Y-3414014D01*
G01X10388598Y-3414014D01*
G01X10401092Y-3424708D01*
G01X10415701Y-3432259D01*
G01X10431651Y-3436266D01*
G01X10448094Y-3436516D01*
G01X10464158Y-3432995D01*
G01X10478990Y-3425892D01*
G01X10491802Y-3415582D01*
G01X10501915Y-3402614D01*
G01X10508791Y-3387675D01*
G01X10512066Y-3371559D01*
G01X10511565Y-3355121D01*
G01X10507315Y-3339235D01*
G01X10499542Y-3324742D01*
G01X10488658Y-3312414D01*
G01X11199849Y-3312414D01*
G01X11212329Y-3323099D01*
G01X11226921Y-3330648D01*
G01X11242853Y-3334659D01*
G01X11259281Y-3334922D01*
G01X11275333Y-3331421D01*
G01X11290159Y-3324343D01*
G01X11302974Y-3314062D01*
G01X11313099Y-3301123D01*
G01X11319997Y-3286212D01*
G01X11323303Y-3270119D01*
G01X11322841Y-3253696D01*
G01X11318636Y-3237814D01*
G01X15327349Y-3237814D01*
G01X15339194Y-3248067D01*
G01X15352990Y-3255488D01*
G01X15368073Y-3259721D01*
G01X15383716Y-3260561D01*
G01X15399166Y-3257969D01*
G01X15413678Y-3252068D01*
G01X15426553Y-3243143D01*
G01X15437170Y-3231625D01*
G01X15445020Y-3218068D01*
G01X15457126Y-3223319D01*
G01X15470200Y-3225114D01*
G01X19380249Y-3225114D01*
G01X19391960Y-3235274D01*
G01X19405589Y-3242666D01*
G01X19420493Y-3246940D01*
G01X19435968Y-3247895D01*
G01X19451284Y-3245485D01*
G01X19465718Y-3239825D01*
G01X19478590Y-3231182D01*
G01X19489291Y-3219963D01*
G01X19497318Y-3206698D01*
G01X19502290Y-3192013D01*
G01X19503974Y-3176600D01*
G01X19502290Y-3161188D01*
G01X19497318Y-3146502D01*
G01X19489291Y-3133237D01*
G01X19478590Y-3122018D01*
G01X19465718Y-3113375D01*
G01X19451284Y-3107715D01*
G01X19435968Y-3105306D01*
G01X19420493Y-3106261D01*
G01X19405589Y-3110535D01*
G01X19391960Y-3117926D01*
G01X19380249Y-3128086D01*
G01X16558876Y-3128086D01*
G01X16563728Y-3112784D01*
G01X16565038Y-3096784D01*
G01X16562738Y-3080896D01*
G01X16556946Y-3065923D01*
G01X16547954Y-3052624D01*
G01X16536218Y-3041671D01*
G01X16522330Y-3033619D01*
G01X16506994Y-3028873D01*
G01X16490985Y-3027676D01*
G01X16483623Y-3020314D01*
G01X17754600Y-3020314D01*
G01X17767156Y-3018661D01*
G01X17778857Y-3013814D01*
G01X17788905Y-3006105D01*
G01X17980487Y-2814522D01*
G01X17995952Y-2813426D01*
G01X18010816Y-2809015D01*
G01X18024377Y-2801499D01*
G01X18035994Y-2791231D01*
G01X18045121Y-2778698D01*
G01X18051325Y-2764489D01*
G01X18054315Y-2749276D01*
G01X18053949Y-2733776D01*
G01X18050245Y-2718720D01*
G01X18043377Y-2704820D01*
G01X18033669Y-2692731D01*
G01X18021580Y-2683023D01*
G01X18007680Y-2676155D01*
G01X17992624Y-2672451D01*
G01X17977124Y-2672085D01*
G01X17961911Y-2675075D01*
G01X17947702Y-2681279D01*
G01X17935169Y-2690406D01*
G01X17924901Y-2702023D01*
G01X17917385Y-2715584D01*
G01X17912974Y-2730448D01*
G01X17911878Y-2745913D01*
G01X17734505Y-2923286D01*
G01X15114551Y-2923286D01*
G01X15101937Y-2912511D01*
G01X15087176Y-2904938D01*
G01X15071065Y-2900979D01*
G01X15054475Y-2900845D01*
G01X15038303Y-2904545D01*
G01X15023422Y-2911879D01*
G01X15010636Y-2922450D01*
G01X15000636Y-2935688D01*
G01X14993962Y-2950876D01*
G01X14990975Y-2967195D01*
G01X14991836Y-2983763D01*
G01X14996498Y-2999684D01*
G01X14569637Y-2999684D01*
G01X14573723Y-2985301D01*
G01X14574722Y-2970382D01*
G01X14613905Y-2931200D01*
G01X14621614Y-2921152D01*
G01X14626461Y-2909452D01*
G01X14628114Y-2896895D01*
G01X14628114Y-2873047D01*
G01X14639074Y-2860156D01*
G01X14646691Y-2845047D01*
G01X14650538Y-2828570D01*
G01X14650399Y-2811651D01*
G01X14646280Y-2795240D01*
G01X14638414Y-2780259D01*
G01X14627243Y-2767551D01*
G01X14613395Y-2757829D01*
G01X14597647Y-2751641D01*
G01X14607377Y-2732770D01*
G01X14612163Y-2716505D01*
G01X15369286Y-2716505D01*
G01X15371087Y-2736512D01*
G01X15376433Y-2755876D01*
G01X15385152Y-2773973D01*
G01X15396962Y-2790222D01*
G01X15411486Y-2804101D01*
G01X15428254Y-2815162D01*
G01X15446729Y-2823050D01*
G01X15466315Y-2827512D01*
G01X15486383Y-2828403D01*
G01X15506288Y-2825696D01*
G01X15525389Y-2819477D01*
G01X15543073Y-2809946D01*
G01X15558769Y-2797410D01*
G01X15571974Y-2782272D01*
G01X15582263Y-2765019D01*
G01X15811500Y-2765019D01*
G01X15824056Y-2763366D01*
G01X15835757Y-2758519D01*
G01X15845805Y-2750809D01*
G01X15947643Y-2648971D01*
G01X18305785Y-2648971D01*
G01X18308775Y-2664184D01*
G01X18314979Y-2678393D01*
G01X18324106Y-2690927D01*
G01X18335723Y-2701194D01*
G01X18349284Y-2708710D01*
G01X18364148Y-2713121D01*
G01X18379613Y-2714218D01*
G01X18508778Y-2843382D01*
G01X18509812Y-2858500D01*
G01X18514015Y-2873058D01*
G01X18521196Y-2886401D01*
G01X18531032Y-2897928D01*
G01X18543080Y-2907118D01*
G01X18556797Y-2913558D01*
G01X18571563Y-2916957D01*
G01X18586715Y-2917162D01*
G01X18601568Y-2914164D01*
G01X18601568Y-2914164D01*
G01X18615454Y-2908098D01*
G01X18627746Y-2899237D01*
G01X18637891Y-2887982D01*
G01X18644291Y-2876824D01*
G01X18926536Y-2876824D01*
G01X18926902Y-2892324D01*
G01X18930606Y-2907380D01*
G01X18937474Y-2921280D01*
G01X18947182Y-2933369D01*
G01X18959271Y-2943077D01*
G01X18973171Y-2949945D01*
G01X18988226Y-2953649D01*
G01X19003726Y-2954015D01*
G01X19018940Y-2951025D01*
G01X19033148Y-2944821D01*
G01X19045682Y-2935694D01*
G01X19055949Y-2924077D01*
G01X19063466Y-2910516D01*
G01X19067876Y-2895652D01*
G01X19068973Y-2880187D01*
G01X19096537Y-2852622D01*
G01X19112003Y-2851526D01*
G01X19126867Y-2847115D01*
G01X19140427Y-2839599D01*
G01X19152045Y-2829331D01*
G01X19161171Y-2816798D01*
G01X19167376Y-2802589D01*
G01X19170366Y-2787376D01*
G01X19170000Y-2771876D01*
G01X19166295Y-2756820D01*
G01X19159427Y-2742920D01*
G01X19149720Y-2730831D01*
G01X19149720Y-2730831D01*
G01X19137631Y-2721123D01*
G01X19123730Y-2714255D01*
G01X19108675Y-2710551D01*
G01X19093175Y-2710185D01*
G01X19077962Y-2713175D01*
G01X19063753Y-2719379D01*
G01X19051219Y-2728506D01*
G01X19040952Y-2740123D01*
G01X19033436Y-2753684D01*
G01X19029025Y-2768548D01*
G01X19027928Y-2784013D01*
G01X19000364Y-2811578D01*
G01X18984898Y-2812674D01*
G01X18970035Y-2817085D01*
G01X18956474Y-2824601D01*
G01X18944856Y-2834869D01*
G01X18935730Y-2847402D01*
G01X18929526Y-2861611D01*
G01X18926536Y-2876824D01*
G01X18644291Y-2876824D01*
G01X18645431Y-2874838D01*
G01X18650026Y-2860398D01*
G01X18651470Y-2845314D01*
G01X18649696Y-2830266D01*
G01X18644786Y-2815930D01*
G01X18636960Y-2802955D01*
G01X18657892Y-2799818D01*
G01X18677859Y-2792800D01*
G01X18696150Y-2782152D01*
G01X18712111Y-2768253D01*
G01X18725173Y-2751600D01*
G01X18734870Y-2732787D01*
G01X18740854Y-2712486D01*
G01X18742914Y-2691421D01*
G01X18741933Y-2680769D01*
G01X19484564Y-2680769D01*
G01X19484564Y-2701440D01*
G01X19488362Y-2721759D01*
G01X19495829Y-2741034D01*
G01X19506711Y-2758608D01*
G01X19520637Y-2773884D01*
G01X19537132Y-2786341D01*
G01X19555636Y-2795555D01*
G01X19575517Y-2801211D01*
G01X19596100Y-2803119D01*
G01X19616683Y-2801211D01*
G01X19636564Y-2795555D01*
G01X19655068Y-2786341D01*
G01X19671563Y-2773884D01*
G01X19685489Y-2758608D01*
G01X19696371Y-2741034D01*
G01X19703838Y-2721759D01*
G01X19707636Y-2701440D01*
G01X19707636Y-2680769D01*
G01X19703838Y-2660451D01*
G01X19696371Y-2641176D01*
G01X19685489Y-2623601D01*
G01X19671563Y-2608325D01*
G01X19655068Y-2595868D01*
G01X19636564Y-2586655D01*
G01X19616683Y-2580998D01*
G01X19596100Y-2579091D01*
G01X19596100Y-2579091D01*
G01X19575517Y-2580998D01*
G01X19555636Y-2586655D01*
G01X19537132Y-2595868D01*
G01X19520637Y-2608325D01*
G01X19506711Y-2623601D01*
G01X19495829Y-2641176D01*
G01X19488362Y-2660451D01*
G01X19484564Y-2680769D01*
G01X18741933Y-2680769D01*
G01X18740974Y-2670346D01*
G01X18735104Y-2650011D01*
G01X18725514Y-2631144D01*
G01X18712546Y-2614417D01*
G01X18696664Y-2600428D01*
G01X18678433Y-2589676D01*
G01X18658506Y-2582546D01*
G01X18637593Y-2579291D01*
G01X18616441Y-2580028D01*
G01X18595805Y-2584730D01*
G01X18576423Y-2593230D01*
G01X18558985Y-2605225D01*
G01X18544114Y-2620285D01*
G01X18532342Y-2637874D01*
G01X18524089Y-2657363D01*
G01X18519649Y-2678057D01*
G01X18519180Y-2699217D01*
G01X18522700Y-2720086D01*
G01X18448222Y-2645609D01*
G01X18447126Y-2630143D01*
G01X18442715Y-2615279D01*
G01X18435199Y-2601719D01*
G01X18424931Y-2590101D01*
G01X18412398Y-2580975D01*
G01X18398189Y-2574770D01*
G01X18382976Y-2571780D01*
G01X18367476Y-2572146D01*
G01X18352420Y-2575851D01*
G01X18338520Y-2582719D01*
G01X18326431Y-2592426D01*
G01X18316723Y-2604515D01*
G01X18309855Y-2618416D01*
G01X18306151Y-2633471D01*
G01X18305785Y-2648971D01*
G01X15947643Y-2648971D01*
G01X16037387Y-2559227D01*
G01X16052852Y-2558130D01*
G01X16067716Y-2553720D01*
G01X16081277Y-2546203D01*
G01X16092894Y-2535936D01*
G01X16102021Y-2523402D01*
G01X16108225Y-2509194D01*
G01X16111215Y-2493980D01*
G01X16111060Y-2487432D01*
G01X20464605Y-2487432D01*
G01X20465560Y-2502907D01*
G01X20469834Y-2517811D01*
G01X20477226Y-2531440D01*
G01X20487386Y-2543151D01*
G01X20487386Y-2744800D01*
G01X20489039Y-2757357D01*
G01X20493886Y-2769057D01*
G01X20501595Y-2779105D01*
G01X20534275Y-2811785D01*
G01X20535372Y-2827250D01*
G01X20539783Y-2842114D01*
G01X20547299Y-2855674D01*
G01X20557566Y-2867292D01*
G01X20570100Y-2876418D01*
G01X20584309Y-2882623D01*
G01X20599522Y-2885613D01*
G01X20615022Y-2885247D01*
G01X20630077Y-2881542D01*
G01X20643978Y-2874674D01*
G01X20656067Y-2864967D01*
G01X20656067Y-2864967D01*
G01X20665774Y-2852878D01*
G01X20672642Y-2838978D01*
G01X20676347Y-2823922D01*
G01X20676713Y-2808422D01*
G01X20673723Y-2793209D01*
G01X20667518Y-2779000D01*
G01X20658392Y-2766466D01*
G01X20646774Y-2756199D01*
G01X20633214Y-2748683D01*
G01X20618350Y-2744272D01*
G01X20602884Y-2743175D01*
G01X20584414Y-2724705D01*
G01X20584414Y-2543151D01*
G01X20594574Y-2531440D01*
G01X20601966Y-2517811D01*
G01X20606240Y-2502907D01*
G01X20607195Y-2487432D01*
G01X20604785Y-2472116D01*
G01X20599125Y-2457682D01*
G01X20590482Y-2444810D01*
G01X20579263Y-2434109D01*
G01X20565998Y-2426083D01*
G01X20551313Y-2421110D01*
G01X20535900Y-2419426D01*
G01X20520487Y-2421110D01*
G01X20505802Y-2426083D01*
G01X20492537Y-2434109D01*
G01X20481318Y-2444810D01*
G01X20472675Y-2457682D01*
G01X20467015Y-2472116D01*
G01X20464605Y-2487432D01*
G01X16111060Y-2487432D01*
G01X16110849Y-2478480D01*
G01X16107145Y-2463425D01*
G01X16100277Y-2449525D01*
G01X16090569Y-2437436D01*
G01X16090569Y-2437436D01*
G01X16078480Y-2427728D01*
G01X16064580Y-2420860D01*
G01X16049524Y-2417156D01*
G01X16034024Y-2416790D01*
G01X16018811Y-2419780D01*
G01X16004602Y-2425984D01*
G01X15992069Y-2435110D01*
G01X15981801Y-2446728D01*
G01X15974285Y-2460289D01*
G01X15969874Y-2475152D01*
G01X15968778Y-2490618D01*
G01X15791405Y-2667991D01*
G01X15582263Y-2667991D01*
G01X15571974Y-2650737D01*
G01X15558769Y-2635599D01*
G01X15543073Y-2623063D01*
G01X15525389Y-2613532D01*
G01X15506288Y-2607313D01*
G01X15486383Y-2604606D01*
G01X15466315Y-2605497D01*
G01X15446729Y-2609959D01*
G01X15428254Y-2617847D01*
G01X15411486Y-2628908D01*
G01X15396962Y-2642787D01*
G01X15385152Y-2659036D01*
G01X15376433Y-2677134D01*
G01X15371087Y-2696497D01*
G01X15369286Y-2716505D01*
G01X14612163Y-2716505D01*
G01X14613371Y-2712402D01*
G01X14615414Y-2691270D01*
G01X14613433Y-2670131D01*
G01X14607499Y-2649746D01*
G01X14597825Y-2630847D01*
G01X14584759Y-2614112D01*
G01X14982398Y-2614112D01*
G01X14994955Y-2612459D01*
G01X15006655Y-2607612D01*
G01X15016703Y-2599903D01*
G01X15552383Y-2064223D01*
G01X17908483Y-2064223D01*
G01X17908849Y-2079723D01*
G01X17912554Y-2094778D01*
G01X17919422Y-2108678D01*
G01X17929129Y-2120767D01*
G01X17941218Y-2130475D01*
G01X17955119Y-2137343D01*
G01X17970174Y-2141047D01*
G01X17985674Y-2141413D01*
G01X18000887Y-2138423D01*
G01X18015096Y-2132219D01*
G01X18027630Y-2123092D01*
G01X18037897Y-2111475D01*
G01X18045413Y-2097914D01*
G01X18049824Y-2083050D01*
G01X18050921Y-2067585D01*
G01X18073806Y-2044700D01*
G01X18158206Y-2044700D01*
G01X18160067Y-2060299D01*
G01X18165547Y-2075022D01*
G01X18174337Y-2088042D01*
G01X18185944Y-2098629D01*
G01X18199716Y-2106187D01*
G01X18214880Y-2110292D01*
G01X18230584Y-2110714D01*
G01X18245946Y-2107429D01*
G01X18260104Y-2100622D01*
G01X18272263Y-2090674D01*
G01X18405337Y-2090674D01*
G01X18417496Y-2100622D01*
G01X18431654Y-2107429D01*
G01X18447016Y-2110714D01*
G01X18462720Y-2110292D01*
G01X18477884Y-2106187D01*
G01X18491656Y-2098629D01*
G01X18503263Y-2088042D01*
G01X18512053Y-2075022D01*
G01X18517533Y-2060299D01*
G01X18519394Y-2044700D01*
G01X18519394Y-2044700D01*
G01X18517533Y-2029101D01*
G01X18512053Y-2014378D01*
G01X18503263Y-2001358D01*
G01X18491656Y-1990771D01*
G01X18477884Y-1983213D01*
G01X18462720Y-1979108D01*
G01X18447016Y-1978686D01*
G01X18431654Y-1981971D01*
G01X18417496Y-1988778D01*
G01X18405337Y-1998726D01*
G01X18272263Y-1998726D01*
G01X18260104Y-1988778D01*
G01X18245946Y-1981971D01*
G01X18230584Y-1978686D01*
G01X18214880Y-1979108D01*
G01X18199716Y-1983213D01*
G01X18185944Y-1990771D01*
G01X18174337Y-2001358D01*
G01X18165547Y-2014378D01*
G01X18160067Y-2029101D01*
G01X18158206Y-2044700D01*
G01X18073806Y-2044700D01*
G01X18469593Y-1648912D01*
G01X18490684Y-1648912D01*
G01X18490684Y-1650398D01*
G01X18492560Y-1668240D01*
G01X18498103Y-1685302D01*
G01X18507073Y-1700838D01*
G01X18519078Y-1714170D01*
G01X18533591Y-1724715D01*
G01X18549980Y-1732012D01*
G01X18567528Y-1735742D01*
G01X18585468Y-1735742D01*
G01X18603016Y-1732012D01*
G01X18619405Y-1724715D01*
G01X18633919Y-1714170D01*
G01X18645923Y-1700838D01*
G01X18654893Y-1685302D01*
G01X18660437Y-1668240D01*
G01X18661261Y-1660398D01*
G01X19551985Y-1660398D01*
G01X19551985Y-1760398D01*
G01X19553861Y-1778240D01*
G01X19559404Y-1795301D01*
G01X19568374Y-1810838D01*
G01X19580378Y-1824170D01*
G01X19594892Y-1834715D01*
G01X19611281Y-1842012D01*
G01X19628829Y-1845742D01*
G01X19646769Y-1845742D01*
G01X19664317Y-1842012D01*
G01X19680706Y-1834715D01*
G01X19695220Y-1824170D01*
G01X19707224Y-1810838D01*
G01X19716194Y-1795301D01*
G01X19721738Y-1778240D01*
G01X19723613Y-1760398D01*
G01X19723613Y-1660398D01*
G01X19721738Y-1642556D01*
G01X19716194Y-1625494D01*
G01X19707224Y-1609958D01*
G01X19695220Y-1596626D01*
G01X19680706Y-1586081D01*
G01X19664317Y-1578784D01*
G01X19646769Y-1575054D01*
G01X19628829Y-1575054D01*
G01X19611281Y-1578784D01*
G01X19594892Y-1586081D01*
G01X19580378Y-1596626D01*
G01X19568374Y-1609958D01*
G01X19559404Y-1625494D01*
G01X19553861Y-1642556D01*
G01X19551985Y-1660398D01*
G01X19551985Y-1660398D01*
G01X18661261Y-1660398D01*
G01X18662312Y-1650398D01*
G01X18662312Y-1550398D01*
G01X20001984Y-1550398D01*
G01X20001984Y-1650398D01*
G01X20003860Y-1668240D01*
G01X20009403Y-1685302D01*
G01X20018373Y-1700838D01*
G01X20030378Y-1714170D01*
G01X20044891Y-1724715D01*
G01X20061280Y-1732012D01*
G01X20078828Y-1735742D01*
G01X20096768Y-1735742D01*
G01X20114316Y-1732012D01*
G01X20130705Y-1724715D01*
G01X20145219Y-1714170D01*
G01X20157223Y-1700838D01*
G01X20166193Y-1685302D01*
G01X20171737Y-1668240D01*
G01X20173612Y-1650398D01*
G01X20173612Y-1557907D01*
G01X20398692Y-1557907D01*
G01X20399647Y-1573382D01*
G01X20403921Y-1588285D01*
G01X20411313Y-1601914D01*
G01X20421473Y-1613626D01*
G01X20421473Y-1686723D01*
G01X20411313Y-1698435D01*
G01X20403921Y-1712064D01*
G01X20399647Y-1726967D01*
G01X20398692Y-1742442D01*
G01X20401102Y-1757758D01*
G01X20406762Y-1772193D01*
G01X20415405Y-1785064D01*
G01X20426624Y-1795766D01*
G01X20439889Y-1803792D01*
G01X20454574Y-1808765D01*
G01X20469987Y-1810448D01*
G01X20469987Y-1810448D01*
G01X20485400Y-1808765D01*
G01X20500085Y-1803792D01*
G01X20513350Y-1795766D01*
G01X20524569Y-1785064D01*
G01X20533212Y-1772193D01*
G01X20538872Y-1757758D01*
G01X20541282Y-1742442D01*
G01X20540327Y-1726967D01*
G01X20536053Y-1712064D01*
G01X20528661Y-1698435D01*
G01X20518501Y-1686723D01*
G01X20518501Y-1613626D01*
G01X20528661Y-1601914D01*
G01X20536053Y-1588285D01*
G01X20540327Y-1573382D01*
G01X20541282Y-1557907D01*
G01X20538872Y-1542591D01*
G01X20533212Y-1528156D01*
G01X20524569Y-1515285D01*
G01X20513350Y-1504583D01*
G01X20500085Y-1496557D01*
G01X20485400Y-1491584D01*
G01X20469987Y-1489900D01*
G01X20454574Y-1491584D01*
G01X20439889Y-1496557D01*
G01X20426624Y-1504583D01*
G01X20415405Y-1515285D01*
G01X20406762Y-1528156D01*
G01X20401102Y-1542591D01*
G01X20398692Y-1557907D01*
G01X20173612Y-1557907D01*
G01X20173612Y-1550398D01*
G01X20171737Y-1532557D01*
G01X20166193Y-1515495D01*
G01X20157223Y-1499958D01*
G01X20145219Y-1486626D01*
G01X20130705Y-1476081D01*
G01X20114316Y-1468784D01*
G01X20096768Y-1465054D01*
G01X20078828Y-1465054D01*
G01X20061280Y-1468784D01*
G01X20044891Y-1476081D01*
G01X20030378Y-1486626D01*
G01X20018373Y-1499958D01*
G01X20009403Y-1515495D01*
G01X20003860Y-1532557D01*
G01X20001984Y-1550398D01*
G01X20001984Y-1550398D01*
G01X18662312Y-1550398D01*
G01X18660437Y-1532557D01*
G01X18654893Y-1515495D01*
G01X18645923Y-1499958D01*
G01X18633919Y-1486626D01*
G01X18619405Y-1476081D01*
G01X18603016Y-1468784D01*
G01X18593199Y-1466698D01*
G01X18724626Y-1466698D01*
G01X18726310Y-1482110D01*
G01X18731282Y-1496796D01*
G01X18739309Y-1510061D01*
G01X18750010Y-1521280D01*
G01X18762882Y-1529923D01*
G01X18777316Y-1535583D01*
G01X18792632Y-1537992D01*
G01X18808107Y-1537037D01*
G01X18823011Y-1532763D01*
G01X18836640Y-1525372D01*
G01X18848351Y-1515212D01*
G01X19126200Y-1515212D01*
G01X19134795Y-1514444D01*
G01X19143119Y-1512166D01*
G01X19159150Y-1512271D01*
G01X19174800Y-1508796D01*
G01X19189280Y-1501915D01*
G01X19201858Y-1491976D01*
G01X19211902Y-1479481D01*
G01X19218903Y-1465059D01*
G01X19222508Y-1449438D01*
G01X19222537Y-1433407D01*
G01X19218986Y-1417774D01*
G01X19212036Y-1403327D01*
G01X19202037Y-1390796D01*
G01X19189493Y-1380813D01*
G01X19175038Y-1373882D01*
G01X19159400Y-1370351D01*
G01X19143369Y-1370400D01*
G01X19127753Y-1374025D01*
G01X19113340Y-1381045D01*
G01X19100857Y-1391104D01*
G01X19090934Y-1403695D01*
G01X19084072Y-1418184D01*
G01X18848351Y-1418184D01*
G01X18836640Y-1408023D01*
G01X18823011Y-1400632D01*
G01X18808107Y-1396358D01*
G01X18792632Y-1395403D01*
G01X18777316Y-1397812D01*
G01X18762882Y-1403472D01*
G01X18750010Y-1412116D01*
G01X18739309Y-1423335D01*
G01X18731282Y-1436600D01*
G01X18726310Y-1451285D01*
G01X18724626Y-1466698D01*
G01X18724626Y-1466698D01*
G01X18593199Y-1466698D01*
G01X18585468Y-1465054D01*
G01X18567528Y-1465054D01*
G01X18549980Y-1468784D01*
G01X18533591Y-1476081D01*
G01X18519078Y-1486626D01*
G01X18507073Y-1499958D01*
G01X18498103Y-1515495D01*
G01X18492560Y-1532557D01*
G01X18490684Y-1550398D01*
G01X18490684Y-1551884D01*
G01X18449498Y-1551884D01*
G01X18436942Y-1553537D01*
G01X18425241Y-1558384D01*
G01X18415194Y-1566094D01*
G01X18211834Y-1769453D01*
G01X18212313Y-1760398D01*
G01X18212313Y-1660398D01*
G01X18210438Y-1642556D01*
G01X18204894Y-1625494D01*
G01X18195924Y-1609958D01*
G01X18183920Y-1596626D01*
G01X18169406Y-1586081D01*
G01X18153017Y-1578784D01*
G01X18135469Y-1575054D01*
G01X18117529Y-1575054D01*
G01X18099981Y-1578784D01*
G01X18083592Y-1586081D01*
G01X18069078Y-1596626D01*
G01X18057074Y-1609958D01*
G01X18048104Y-1625494D01*
G01X18042561Y-1642556D01*
G01X18040685Y-1660398D01*
G01X18040685Y-1760398D01*
G01X18042563Y-1778250D01*
G01X18048113Y-1795321D01*
G01X18057093Y-1810864D01*
G01X18069110Y-1824199D01*
G01X18083639Y-1834742D01*
G01X18100043Y-1842032D01*
G01X18117604Y-1845749D01*
G01X18135555Y-1845733D01*
G01X17982312Y-1998976D01*
G01X17982312Y-1998976D01*
G01X17966846Y-2000073D01*
G01X17951982Y-2004483D01*
G01X17938422Y-2011999D01*
G01X17926804Y-2022267D01*
G01X17917678Y-2034800D01*
G01X17911473Y-2049009D01*
G01X17908483Y-2064223D01*
G01X15552383Y-2064223D01*
G01X15896941Y-1719665D01*
G01X15911728Y-1728355D01*
G01X15927948Y-1733932D01*
G01X15944952Y-1736171D01*
G01X15962063Y-1734984D01*
G01X15978596Y-1730418D01*
G01X15993890Y-1722655D01*
G01X16007335Y-1712006D01*
G01X16018394Y-1698896D01*
G01X16026624Y-1683848D01*
G01X16031698Y-1667464D01*
G01X16033412Y-1650398D01*
G01X16033412Y-1550398D01*
G01X16031537Y-1532557D01*
G01X16025993Y-1515495D01*
G01X16017023Y-1499958D01*
G01X16005019Y-1486626D01*
G01X15990505Y-1476081D01*
G01X15974116Y-1468784D01*
G01X15956568Y-1465054D01*
G01X15938628Y-1465054D01*
G01X15921080Y-1468784D01*
G01X15904691Y-1476081D01*
G01X15890178Y-1486626D01*
G01X15878173Y-1499958D01*
G01X15869203Y-1515495D01*
G01X15863660Y-1532557D01*
G01X15861784Y-1550398D01*
G01X15861784Y-1617603D01*
G01X14962303Y-2517084D01*
G01X13661598Y-2517084D01*
G01X13653003Y-2517852D01*
G01X13644680Y-2520130D01*
G01X13629170Y-2519971D01*
G01X13613993Y-2523166D01*
G01X13599864Y-2529564D01*
G01X13587451Y-2538864D01*
G01X13577340Y-2550625D01*
G01X13570009Y-2564293D01*
G01X13565803Y-2579221D01*
G01X13564921Y-2594706D01*
G01X13567405Y-2610016D01*
G01X13573137Y-2624428D01*
G01X13025632Y-2076923D01*
G01X13869883Y-2076923D01*
G01X13870249Y-2092423D01*
G01X13873954Y-2107478D01*
G01X13880822Y-2121378D01*
G01X13890529Y-2133467D01*
G01X13902618Y-2143175D01*
G01X13916519Y-2150043D01*
G01X13931574Y-2153747D01*
G01X13947074Y-2154113D01*
G01X13962287Y-2151123D01*
G01X13976496Y-2144919D01*
G01X13989030Y-2135792D01*
G01X13999297Y-2124175D01*
G01X14006813Y-2110614D01*
G01X14011224Y-2095750D01*
G01X14012321Y-2080285D01*
G01X14367927Y-1724678D01*
G01X14384317Y-1731991D01*
G01X14401870Y-1735736D01*
G01X14419817Y-1735747D01*
G01X14437374Y-1732026D01*
G01X14453773Y-1724733D01*
G01X14468297Y-1714190D01*
G01X14480310Y-1700856D01*
G01X14489287Y-1685315D01*
G01X14494835Y-1668247D01*
G01X14496712Y-1650398D01*
G01X14496712Y-1650398D01*
G01X14496712Y-1550398D01*
G01X14494837Y-1532557D01*
G01X14489293Y-1515495D01*
G01X14480323Y-1499958D01*
G01X14468319Y-1486626D01*
G01X14453805Y-1476081D01*
G01X14437416Y-1468784D01*
G01X14419868Y-1465054D01*
G01X14401928Y-1465054D01*
G01X14384380Y-1468784D01*
G01X14367991Y-1476081D01*
G01X14353478Y-1486626D01*
G01X14341473Y-1499958D01*
G01X14332503Y-1515495D01*
G01X14326960Y-1532557D01*
G01X14325084Y-1550398D01*
G01X14325084Y-1630303D01*
G01X13943712Y-2011676D01*
G01X13928246Y-2012773D01*
G01X13913382Y-2017183D01*
G01X13899822Y-2024699D01*
G01X13888204Y-2034967D01*
G01X13879078Y-2047500D01*
G01X13872873Y-2061709D01*
G01X13869883Y-2076923D01*
G01X13025632Y-2076923D01*
G01X12609107Y-1660398D01*
G01X13875085Y-1660398D01*
G01X13875085Y-1760398D01*
G01X13876961Y-1778240D01*
G01X13882504Y-1795301D01*
G01X13891474Y-1810838D01*
G01X13903478Y-1824170D01*
G01X13917992Y-1834715D01*
G01X13934381Y-1842012D01*
G01X13951929Y-1845742D01*
G01X13969869Y-1845742D01*
G01X13987417Y-1842012D01*
G01X14003806Y-1834715D01*
G01X14018320Y-1824170D01*
G01X14030324Y-1810838D01*
G01X14039294Y-1795301D01*
G01X14044838Y-1778240D01*
G01X14046713Y-1760398D01*
G01X14046713Y-1660398D01*
G01X14044838Y-1642556D01*
G01X14039294Y-1625494D01*
G01X14030324Y-1609958D01*
G01X14018320Y-1596626D01*
G01X14003806Y-1586081D01*
G01X13987417Y-1578784D01*
G01X13969869Y-1575054D01*
G01X13951929Y-1575054D01*
G01X13934381Y-1578784D01*
G01X13917992Y-1586081D01*
G01X13903478Y-1596626D01*
G01X13891474Y-1609958D01*
G01X13882504Y-1625494D01*
G01X13876961Y-1642556D01*
G01X13875085Y-1660398D01*
G01X13875085Y-1660398D01*
G01X12609107Y-1660398D01*
G01X12514803Y-1566094D01*
G01X12504755Y-1558384D01*
G01X12493055Y-1553537D01*
G01X12480498Y-1551884D01*
G01X11702712Y-1551884D01*
G01X11702712Y-1550398D01*
G01X11700837Y-1532557D01*
G01X11695293Y-1515495D01*
G01X11686323Y-1499958D01*
G01X11674319Y-1486626D01*
G01X11659805Y-1476081D01*
G01X11643416Y-1468784D01*
G01X11625868Y-1465054D01*
G01X11607928Y-1465054D01*
G01X11590380Y-1468784D01*
G01X11573991Y-1476081D01*
G01X11559478Y-1486626D01*
G01X11547473Y-1499958D01*
G01X11538503Y-1515495D01*
G01X11532960Y-1532557D01*
G01X11531084Y-1550398D01*
G01X11531084Y-1650398D01*
G01X11532960Y-1668240D01*
G01X11538503Y-1685302D01*
G01X11547473Y-1700838D01*
G01X11559478Y-1714170D01*
G01X11573991Y-1724715D01*
G01X11590380Y-1732012D01*
G01X11607928Y-1735742D01*
G01X11625868Y-1735742D01*
G01X11643416Y-1732012D01*
G01X11659805Y-1724715D01*
G01X11674319Y-1714170D01*
G01X11686323Y-1700838D01*
G01X11695293Y-1685302D01*
G01X11700837Y-1668240D01*
G01X11702712Y-1650398D01*
G01X11702712Y-1648912D01*
G01X12460403Y-1648912D01*
G01X13874477Y-3062986D01*
G01X13090116Y-3062986D01*
G01X13096937Y-3049507D01*
G01X13100768Y-3034894D01*
G01X13101438Y-3019803D01*
G01X13098917Y-3004908D01*
G01X13093318Y-2990877D01*
G01X13084891Y-2978340D01*
G01X13074013Y-2967856D01*
G01X13061174Y-2959897D01*
G01X13046946Y-2954819D01*
G01X13031969Y-2952848D01*
G01X13016912Y-2954074D01*
G01X13002450Y-2958441D01*
G01X12989232Y-2965755D01*
G01X12977849Y-2975686D01*
G01X8859295Y-2975686D01*
G01X8771838Y-2888229D01*
G01X9999985Y-2888229D01*
G01X10000351Y-2903729D01*
G01X10004055Y-2918784D01*
G01X10010923Y-2932685D01*
G01X10020631Y-2944774D01*
G01X10032720Y-2954481D01*
G01X10046620Y-2961349D01*
G01X10061676Y-2965054D01*
G01X10077176Y-2965420D01*
G01X10092389Y-2962430D01*
G01X10106598Y-2956225D01*
G01X10119131Y-2947099D01*
G01X10129399Y-2935481D01*
G01X10136915Y-2921921D01*
G01X10141326Y-2907057D01*
G01X10142422Y-2891591D01*
G01X10211813Y-2822201D01*
G01X10211813Y-2822201D01*
G01X10231288Y-2827125D01*
G01X10251330Y-2828492D01*
G01X10271293Y-2826257D01*
G01X10290536Y-2820493D01*
G01X10308441Y-2811384D01*
G01X10324430Y-2799223D01*
G01X10337990Y-2784403D01*
G01X10348685Y-2767398D01*
G01X10356170Y-2748757D01*
G01X10360206Y-2729078D01*
G01X10360492Y-2716505D01*
G01X11140186Y-2716505D01*
G01X11141987Y-2736512D01*
G01X11147333Y-2755876D01*
G01X11156052Y-2773973D01*
G01X11167862Y-2790222D01*
G01X11182386Y-2804101D01*
G01X11199154Y-2815162D01*
G01X11217629Y-2823050D01*
G01X11237215Y-2827512D01*
G01X11257283Y-2828403D01*
G01X11277188Y-2825696D01*
G01X11296289Y-2819477D01*
G01X11313973Y-2809946D01*
G01X11329669Y-2797410D01*
G01X11342874Y-2782272D01*
G01X11353163Y-2765019D01*
G01X11455400Y-2765019D01*
G01X11467956Y-2763366D01*
G01X11479657Y-2758519D01*
G01X11489705Y-2750809D01*
G01X11868891Y-2371623D01*
G01X11884357Y-2370526D01*
G01X11899220Y-2366115D01*
G01X11912781Y-2358599D01*
G01X11924399Y-2348332D01*
G01X11933525Y-2335798D01*
G01X11939729Y-2321589D01*
G01X11942719Y-2306376D01*
G01X11942353Y-2290876D01*
G01X11938649Y-2275820D01*
G01X11931781Y-2261920D01*
G01X11922073Y-2249831D01*
G01X11922073Y-2249831D01*
G01X11909984Y-2240124D01*
G01X11896084Y-2233256D01*
G01X11881029Y-2229551D01*
G01X11865529Y-2229185D01*
G01X11850315Y-2232175D01*
G01X11836107Y-2238380D01*
G01X11823573Y-2247506D01*
G01X11813306Y-2259124D01*
G01X11805789Y-2272684D01*
G01X11801379Y-2287548D01*
G01X11800282Y-2303013D01*
G01X11435305Y-2667991D01*
G01X11353163Y-2667991D01*
G01X11342874Y-2650737D01*
G01X11329669Y-2635599D01*
G01X11313973Y-2623063D01*
G01X11296289Y-2613532D01*
G01X11277188Y-2607313D01*
G01X11257283Y-2604606D01*
G01X11237215Y-2605497D01*
G01X11217629Y-2609959D01*
G01X11199154Y-2617847D01*
G01X11182386Y-2628908D01*
G01X11167862Y-2642787D01*
G01X11156052Y-2659036D01*
G01X11147333Y-2677134D01*
G01X11141987Y-2696497D01*
G01X11140186Y-2716505D01*
G01X10360492Y-2716505D01*
G01X10360662Y-2708995D01*
G01X10357524Y-2689154D01*
G01X10350892Y-2670192D01*
G01X10340979Y-2652720D01*
G01X10328106Y-2637299D01*
G01X10312685Y-2624425D01*
G01X10295213Y-2614513D01*
G01X10276251Y-2607881D01*
G01X10256409Y-2604743D01*
G01X10236326Y-2605199D01*
G01X10216648Y-2609234D01*
G01X10198007Y-2616720D01*
G01X10181002Y-2627415D01*
G01X10166181Y-2640975D01*
G01X10154021Y-2656964D01*
G01X10144912Y-2674868D01*
G01X10139147Y-2694111D01*
G01X10136912Y-2714075D01*
G01X10138279Y-2734116D01*
G01X10143204Y-2753592D01*
G01X10073813Y-2822982D01*
G01X10058348Y-2824079D01*
G01X10043484Y-2828490D01*
G01X10029923Y-2836006D01*
G01X10018306Y-2846273D01*
G01X10009179Y-2858807D01*
G01X10002975Y-2873016D01*
G01X9999985Y-2888229D01*
G01X8771838Y-2888229D01*
G01X8416305Y-2532696D01*
G01X8406257Y-2524986D01*
G01X8394556Y-2520139D01*
G01X8382000Y-2518486D01*
G01X7388860Y-2518486D01*
G01X7388860Y-1834197D01*
G01X7720198Y-1834197D01*
G01X7722187Y-1858198D01*
G01X7728099Y-1881543D01*
G01X7737772Y-1903597D01*
G01X7750944Y-1923758D01*
G01X7767255Y-1941476D01*
G01X7786259Y-1956268D01*
G01X7807439Y-1967730D01*
G01X7830217Y-1975549D01*
G01X7853970Y-1979513D01*
G01X7878053Y-1979513D01*
G01X7901807Y-1975549D01*
G01X7924584Y-1967730D01*
G01X7945764Y-1956268D01*
G01X7964769Y-1941476D01*
G01X7981079Y-1923758D01*
G01X7994251Y-1903597D01*
G01X8003925Y-1881543D01*
G01X8009837Y-1858198D01*
G01X8011825Y-1834197D01*
G01X8011825Y-1834197D01*
G01X8009837Y-1810197D01*
G01X8003925Y-1786852D01*
G01X7994251Y-1764798D01*
G01X7981079Y-1744637D01*
G01X7964769Y-1726919D01*
G01X7945764Y-1712127D01*
G01X7924584Y-1700665D01*
G01X7901807Y-1692846D01*
G01X7878053Y-1688882D01*
G01X7853970Y-1688882D01*
G01X7830217Y-1692846D01*
G01X7807439Y-1700665D01*
G01X7786259Y-1712127D01*
G01X7767255Y-1726919D01*
G01X7750944Y-1744637D01*
G01X7737772Y-1764798D01*
G01X7728099Y-1786852D01*
G01X7722187Y-1810197D01*
G01X7720198Y-1834197D01*
G01X7388860Y-1834197D01*
G01X7388860Y-1728223D01*
G01X7411103Y-1722878D01*
G01X7432237Y-1714118D01*
G01X7451740Y-1702162D01*
G01X7469133Y-1687302D01*
G01X7483988Y-1669904D01*
G01X7495939Y-1650398D01*
G01X7504692Y-1629262D01*
G01X7510032Y-1607017D01*
G01X7511826Y-1584211D01*
G01X7511826Y-1584211D01*
G01X7970185Y-1584211D01*
G01X7972173Y-1608211D01*
G01X7978085Y-1631556D01*
G01X7987759Y-1653610D01*
G01X8000931Y-1673771D01*
G01X8017242Y-1691489D01*
G01X8036246Y-1706281D01*
G01X8057426Y-1717743D01*
G01X8080203Y-1725563D01*
G01X8103957Y-1729526D01*
G01X8128040Y-1729526D01*
G01X8151794Y-1725563D01*
G01X8174571Y-1717743D01*
G01X8195751Y-1706281D01*
G01X8214755Y-1691489D01*
G01X8231066Y-1673771D01*
G01X8239803Y-1660398D01*
G01X8515685Y-1660398D01*
G01X8515685Y-1760398D01*
G01X8517561Y-1778240D01*
G01X8523104Y-1795301D01*
G01X8532074Y-1810838D01*
G01X8544078Y-1824170D01*
G01X8558592Y-1834715D01*
G01X8574981Y-1842012D01*
G01X8592529Y-1845742D01*
G01X8610469Y-1845742D01*
G01X8628017Y-1842012D01*
G01X8644406Y-1834715D01*
G01X8658920Y-1824170D01*
G01X8670924Y-1810838D01*
G01X8679894Y-1795301D01*
G01X8685438Y-1778240D01*
G01X8687313Y-1760398D01*
G01X8687313Y-1660398D01*
G01X8685438Y-1642556D01*
G01X8679894Y-1625494D01*
G01X8670924Y-1609958D01*
G01X8658920Y-1596626D01*
G01X8644406Y-1586081D01*
G01X8628017Y-1578784D01*
G01X8610469Y-1575054D01*
G01X8592529Y-1575054D01*
G01X8574981Y-1578784D01*
G01X8558592Y-1586081D01*
G01X8544078Y-1596626D01*
G01X8532074Y-1609958D01*
G01X8523104Y-1625494D01*
G01X8517561Y-1642556D01*
G01X8515685Y-1660398D01*
G01X8515685Y-1660398D01*
G01X8239803Y-1660398D01*
G01X8244238Y-1653610D01*
G01X8253912Y-1631556D01*
G01X8259824Y-1608211D01*
G01X8261812Y-1584211D01*
G01X8261812Y-1584211D01*
G01X8259824Y-1560211D01*
G01X8257339Y-1550398D01*
G01X8965684Y-1550398D01*
G01X8965684Y-1650398D01*
G01X8967560Y-1668240D01*
G01X8973103Y-1685302D01*
G01X8982073Y-1700838D01*
G01X8994078Y-1714170D01*
G01X9008591Y-1724715D01*
G01X9024980Y-1732012D01*
G01X9042528Y-1735742D01*
G01X9060468Y-1735742D01*
G01X9078016Y-1732012D01*
G01X9094405Y-1724715D01*
G01X9108919Y-1714170D01*
G01X9120923Y-1700838D01*
G01X9129893Y-1685302D01*
G01X9135437Y-1668240D01*
G01X9136261Y-1660398D01*
G01X9582485Y-1660398D01*
G01X9582485Y-1760398D01*
G01X9584361Y-1778240D01*
G01X9589904Y-1795301D01*
G01X9598874Y-1810838D01*
G01X9610878Y-1824170D01*
G01X9625392Y-1834715D01*
G01X9641781Y-1842012D01*
G01X9659329Y-1845742D01*
G01X9677269Y-1845742D01*
G01X9694817Y-1842012D01*
G01X9711206Y-1834715D01*
G01X9725720Y-1824170D01*
G01X9737724Y-1810838D01*
G01X9746694Y-1795301D01*
G01X9752238Y-1778240D01*
G01X9754113Y-1760398D01*
G01X9754113Y-1660398D01*
G01X9752238Y-1642556D01*
G01X9746694Y-1625494D01*
G01X9737724Y-1609958D01*
G01X9725720Y-1596626D01*
G01X9711206Y-1586081D01*
G01X9694817Y-1578784D01*
G01X9677269Y-1575054D01*
G01X9659329Y-1575054D01*
G01X9641781Y-1578784D01*
G01X9625392Y-1586081D01*
G01X9610878Y-1596626D01*
G01X9598874Y-1609958D01*
G01X9589904Y-1625494D01*
G01X9584361Y-1642556D01*
G01X9582485Y-1660398D01*
G01X9582485Y-1660398D01*
G01X9136261Y-1660398D01*
G01X9137312Y-1650398D01*
G01X9137312Y-1550398D01*
G01X9135437Y-1532557D01*
G01X9129893Y-1515495D01*
G01X9120923Y-1499958D01*
G01X9108919Y-1486626D01*
G01X9094405Y-1476081D01*
G01X9078016Y-1468784D01*
G01X9060468Y-1465054D01*
G01X9042528Y-1465054D01*
G01X9024980Y-1468784D01*
G01X9008591Y-1476081D01*
G01X8994078Y-1486626D01*
G01X8982073Y-1499958D01*
G01X8973103Y-1515495D01*
G01X8967560Y-1532557D01*
G01X8965684Y-1550398D01*
G01X8965684Y-1550398D01*
G01X8257339Y-1550398D01*
G01X8253912Y-1536865D01*
G01X8244238Y-1514811D01*
G01X8231066Y-1494650D01*
G01X8214755Y-1476932D01*
G01X8195751Y-1462140D01*
G01X8174571Y-1450678D01*
G01X8151794Y-1442859D01*
G01X8128040Y-1438895D01*
G01X8103957Y-1438895D01*
G01X8080203Y-1442859D01*
G01X8057426Y-1450678D01*
G01X8036246Y-1462140D01*
G01X8017242Y-1476932D01*
G01X8000931Y-1494650D01*
G01X7987759Y-1514811D01*
G01X7978085Y-1536865D01*
G01X7972173Y-1560211D01*
G01X7970185Y-1584211D01*
G01X7511826Y-1584211D01*
G01X7510032Y-1561405D01*
G01X7504692Y-1539160D01*
G01X7495939Y-1518024D01*
G01X7483988Y-1498517D01*
G01X7469133Y-1481120D01*
G01X7451740Y-1466260D01*
G01X7432237Y-1454303D01*
G01X7411103Y-1445544D01*
G01X7388860Y-1440198D01*
G01X7388860Y-1369060D01*
G01X8757737Y-1369060D01*
G01X8748868Y-1383830D01*
G01X8743128Y-1400074D01*
G01X8740748Y-1417137D01*
G01X8741825Y-1434332D01*
G01X8746314Y-1450965D01*
G01X8754036Y-1466366D01*
G01X8764678Y-1479914D01*
G01X8777812Y-1491063D01*
G01X8792908Y-1499365D01*
G01X8809359Y-1504483D01*
G01X8826500Y-1506212D01*
G01X8843641Y-1504483D01*
G01X8860092Y-1499365D01*
G01X8875188Y-1491063D01*
G01X8888322Y-1479914D01*
G01X8898964Y-1466366D01*
G01X8906686Y-1450965D01*
G01X8911175Y-1434332D01*
G01X8912252Y-1417137D01*
G01X8909872Y-1400074D01*
G01X8904132Y-1383830D01*
G01X8895263Y-1369060D01*
G01X9824537Y-1369060D01*
G01X9815492Y-1384205D01*
G01X9809736Y-1400879D01*
G01X9807510Y-1418378D01*
G01X9808909Y-1435962D01*
G01X9813875Y-1452889D01*
G01X9822196Y-1468443D01*
G01X9833522Y-1481967D01*
G01X9847374Y-1492889D01*
G01X9863167Y-1500748D01*
G01X9880233Y-1505212D01*
G01X9897851Y-1506092D01*
G01X9915276Y-1503351D01*
G01X9931773Y-1497105D01*
G01X9946645Y-1487617D01*
G01X9959262Y-1475289D01*
G01X9969092Y-1460642D01*
G01X9980419Y-1469694D01*
G01X9993342Y-1476270D01*
G01X10007327Y-1480099D01*
G01X10021797Y-1481022D01*
G01X10026753Y-1485978D01*
G01X10037338Y-1493994D01*
G01X10049700Y-1498839D01*
G01X10040285Y-1514649D01*
G01X10034457Y-1532103D01*
G01X10032484Y-1550398D01*
G01X10032484Y-1650398D01*
G01X10034360Y-1668240D01*
G01X10039903Y-1685302D01*
G01X10048873Y-1700838D01*
G01X10060878Y-1714170D01*
G01X10075391Y-1724715D01*
G01X10091780Y-1732012D01*
G01X10109328Y-1735742D01*
G01X10127268Y-1735742D01*
G01X10144816Y-1732012D01*
G01X10161205Y-1724715D01*
G01X10175719Y-1714170D01*
G01X10187723Y-1700838D01*
G01X10196693Y-1685302D01*
G01X10202237Y-1668240D01*
G01X10203061Y-1660398D01*
G01X11081085Y-1660398D01*
G01X11081085Y-1760398D01*
G01X11082961Y-1778240D01*
G01X11088504Y-1795301D01*
G01X11097474Y-1810838D01*
G01X11109478Y-1824170D01*
G01X11123992Y-1834715D01*
G01X11140381Y-1842012D01*
G01X11157929Y-1845742D01*
G01X11175869Y-1845742D01*
G01X11193417Y-1842012D01*
G01X11209806Y-1834715D01*
G01X11224320Y-1824170D01*
G01X11236324Y-1810838D01*
G01X11245294Y-1795301D01*
G01X11250838Y-1778240D01*
G01X11252713Y-1760398D01*
G01X11252713Y-1660398D01*
G01X11250838Y-1642556D01*
G01X11245294Y-1625494D01*
G01X11236324Y-1609958D01*
G01X11224320Y-1596626D01*
G01X11209806Y-1586081D01*
G01X11193417Y-1578784D01*
G01X11175869Y-1575054D01*
G01X11157929Y-1575054D01*
G01X11140381Y-1578784D01*
G01X11123992Y-1586081D01*
G01X11109478Y-1596626D01*
G01X11097474Y-1609958D01*
G01X11088504Y-1625494D01*
G01X11082961Y-1642556D01*
G01X11081085Y-1660398D01*
G01X11081085Y-1660398D01*
G01X10203061Y-1660398D01*
G01X10204112Y-1650398D01*
G01X10204112Y-1550398D01*
G01X10202257Y-1532649D01*
G01X10196770Y-1515667D01*
G01X10187889Y-1500187D01*
G01X10491062Y-1500187D01*
G01X10502773Y-1510348D01*
G01X10516402Y-1517739D01*
G01X10531306Y-1522013D01*
G01X10546781Y-1522968D01*
G01X10562097Y-1520559D01*
G01X10576531Y-1514899D01*
G01X10589403Y-1506255D01*
G01X10600104Y-1495037D01*
G01X10608131Y-1481771D01*
G01X10613103Y-1467086D01*
G01X10614787Y-1451673D01*
G01X10613103Y-1436261D01*
G01X10608131Y-1421576D01*
G01X10600104Y-1408310D01*
G01X10589403Y-1397092D01*
G01X10576531Y-1388448D01*
G01X10562097Y-1382788D01*
G01X10546781Y-1380379D01*
G01X10531306Y-1381334D01*
G01X10516402Y-1385608D01*
G01X10502773Y-1392999D01*
G01X10491062Y-1403159D01*
G01X10090157Y-1403159D01*
G01X10088001Y-1391137D01*
G01X10083828Y-1379659D01*
G01X10077758Y-1369060D01*
G01X11323137Y-1369060D01*
G01X11314268Y-1383830D01*
G01X11308528Y-1400074D01*
G01X11306148Y-1417137D01*
G01X11307225Y-1434332D01*
G01X11311714Y-1450965D01*
G01X11319436Y-1466366D01*
G01X11330078Y-1479914D01*
G01X11343212Y-1491063D01*
G01X11358308Y-1499365D01*
G01X11374759Y-1504483D01*
G01X11391900Y-1506212D01*
G01X11409041Y-1504483D01*
G01X11425492Y-1499365D01*
G01X11440588Y-1491063D01*
G01X11453722Y-1479914D01*
G01X11464364Y-1466366D01*
G01X11472086Y-1450965D01*
G01X11476575Y-1434332D01*
G01X11477652Y-1417137D01*
G01X11475272Y-1400074D01*
G01X11469532Y-1383830D01*
G01X11460663Y-1369060D01*
G01X14117137Y-1369060D01*
G01X14108268Y-1383830D01*
G01X14102528Y-1400074D01*
G01X14100148Y-1417137D01*
G01X14101225Y-1434332D01*
G01X14105714Y-1450965D01*
G01X14113436Y-1466366D01*
G01X14124078Y-1479914D01*
G01X14137212Y-1491063D01*
G01X14152308Y-1499365D01*
G01X14168759Y-1504483D01*
G01X14185900Y-1506212D01*
G01X14203041Y-1504483D01*
G01X14219492Y-1499365D01*
G01X14234588Y-1491063D01*
G01X14247722Y-1479914D01*
G01X14258364Y-1466366D01*
G01X14266086Y-1450965D01*
G01X14270575Y-1434332D01*
G01X14271652Y-1417137D01*
G01X14269272Y-1400074D01*
G01X14263532Y-1383830D01*
G01X14254663Y-1369060D01*
G01X14849681Y-1369060D01*
G01X14844875Y-1383598D01*
G01X14843532Y-1398850D01*
G01X14845724Y-1414004D01*
G01X14851334Y-1428251D01*
G01X14860063Y-1440830D01*
G01X14871445Y-1451072D01*
G01X14884873Y-1458429D01*
G01X14899631Y-1462509D01*
G01X14914931Y-1463095D01*
G01X14929958Y-1460155D01*
G01X14943909Y-1453846D01*
G01X14956041Y-1444505D01*
G01X15154662Y-1643126D01*
G01X14665463Y-1643126D01*
G01X14653304Y-1633178D01*
G01X14639146Y-1626371D01*
G01X14623784Y-1623086D01*
G01X14608080Y-1623508D01*
G01X14592916Y-1627613D01*
G01X14579144Y-1635171D01*
G01X14567537Y-1645758D01*
G01X14558747Y-1658778D01*
G01X14553267Y-1673501D01*
G01X14551406Y-1689100D01*
G01X14553267Y-1704699D01*
G01X14558747Y-1719422D01*
G01X14567537Y-1732442D01*
G01X14579144Y-1743029D01*
G01X14592916Y-1750587D01*
G01X14608080Y-1754692D01*
G01X14623784Y-1755114D01*
G01X14639146Y-1751829D01*
G01X14653304Y-1745022D01*
G01X14665463Y-1735074D01*
G01X15167584Y-1735074D01*
G01X15180357Y-1747847D01*
G01X15189879Y-1755154D01*
G01X15200967Y-1759746D01*
G01X15212866Y-1761313D01*
G01X15326866Y-1761313D01*
G01X15433859Y-1868306D01*
G01X15443381Y-1875612D01*
G01X15454469Y-1880205D01*
G01X15466368Y-1881772D01*
G01X15528831Y-1881772D01*
G01X15540730Y-1880205D01*
G01X15551818Y-1875612D01*
G01X15561339Y-1868306D01*
G01X15605508Y-1824138D01*
G01X15610543Y-1818164D01*
G01X15614494Y-1811423D01*
G01X15683235Y-1742682D01*
G01X15698867Y-1741119D01*
G01X15713692Y-1735921D01*
G01X15726877Y-1727381D01*
G01X15737683Y-1715978D01*
G01X15745503Y-1702353D01*
G01X15749897Y-1687270D01*
G01X15750618Y-1671577D01*
G01X15747627Y-1656155D01*
G01X15741091Y-1641869D01*
G01X15731377Y-1629523D01*
G01X15719031Y-1619809D01*
G01X15704745Y-1613273D01*
G01X15689323Y-1610282D01*
G01X15673630Y-1611003D01*
G01X15658547Y-1615397D01*
G01X15644922Y-1623217D01*
G01X15633519Y-1634023D01*
G01X15624979Y-1647208D01*
G01X15619781Y-1662033D01*
G01X15618218Y-1677665D01*
G01X15583413Y-1712470D01*
G01X15583413Y-1660398D01*
G01X15581538Y-1642556D01*
G01X15575994Y-1625494D01*
G01X15567024Y-1609958D01*
G01X15555020Y-1596626D01*
G01X15540506Y-1586081D01*
G01X15524117Y-1578784D01*
G01X15506569Y-1575054D01*
G01X15488629Y-1575054D01*
G01X15471081Y-1578784D01*
G01X15454692Y-1586081D01*
G01X15440178Y-1596626D01*
G01X15428174Y-1609958D01*
G01X15419204Y-1625494D01*
G01X15413661Y-1642556D01*
G01X15411785Y-1660398D01*
G01X15411785Y-1716198D01*
G01X15378417Y-1682830D01*
G01X15368896Y-1675524D01*
G01X15357808Y-1670931D01*
G01X15345909Y-1669365D01*
G01X15301562Y-1669365D01*
G01X15302155Y-1654988D01*
G01X15299632Y-1640821D01*
G01X15294112Y-1627533D01*
G01X15285855Y-1615748D01*
G01X15275249Y-1606023D01*
G01X15262795Y-1598816D01*
G01X15249079Y-1594465D01*
G01X15234747Y-1593177D01*
G01X15010630Y-1369060D01*
G01X15653837Y-1369060D01*
G01X15644968Y-1383830D01*
G01X15639228Y-1400074D01*
G01X15636848Y-1417137D01*
G01X15637925Y-1434332D01*
G01X15642414Y-1450965D01*
G01X15650136Y-1466366D01*
G01X15660778Y-1479914D01*
G01X15673912Y-1491063D01*
G01X15689008Y-1499365D01*
G01X15705459Y-1504483D01*
G01X15722600Y-1506212D01*
G01X15739741Y-1504483D01*
G01X15756192Y-1499365D01*
G01X15771288Y-1491063D01*
G01X15784422Y-1479914D01*
G01X15795064Y-1466366D01*
G01X15802786Y-1450965D01*
G01X15807275Y-1434332D01*
G01X15808352Y-1417137D01*
G01X15805972Y-1400074D01*
G01X15800232Y-1383830D01*
G01X15791363Y-1369060D01*
G01X18282737Y-1369060D01*
G01X18273868Y-1383830D01*
G01X18268128Y-1400074D01*
G01X18265748Y-1417137D01*
G01X18266825Y-1434332D01*
G01X18271314Y-1450965D01*
G01X18279036Y-1466366D01*
G01X18289678Y-1479914D01*
G01X18302812Y-1491063D01*
G01X18317908Y-1499365D01*
G01X18334359Y-1504483D01*
G01X18351500Y-1506212D01*
G01X18368641Y-1504483D01*
G01X18385092Y-1499365D01*
G01X18400188Y-1491063D01*
G01X18413322Y-1479914D01*
G01X18423964Y-1466366D01*
G01X18431686Y-1450965D01*
G01X18436175Y-1434332D01*
G01X18437252Y-1417137D01*
G01X18434872Y-1400074D01*
G01X18429132Y-1383830D01*
G01X18420263Y-1369060D01*
G01X19794037Y-1369060D01*
G01X19785168Y-1383830D01*
G01X19779428Y-1400074D01*
G01X19777048Y-1417137D01*
G01X19778125Y-1434332D01*
G01X19782614Y-1450965D01*
G01X19790336Y-1466366D01*
G01X19800978Y-1479914D01*
G01X19814112Y-1491063D01*
G01X19829208Y-1499365D01*
G01X19845659Y-1504483D01*
G01X19862800Y-1506212D01*
G01X19879941Y-1504483D01*
G01X19896392Y-1499365D01*
G01X19911488Y-1491063D01*
G01X19924622Y-1479914D01*
G01X19935264Y-1466366D01*
G01X19942986Y-1450965D01*
G01X19947475Y-1434332D01*
G01X19948552Y-1417137D01*
G01X19946172Y-1400074D01*
G01X19940432Y-1383830D01*
G01X19931563Y-1369060D01*
G01X20944840Y-1369060D01*
G01X20944840Y-16550640D01*
G01X7388860Y-16550640D01*
G01X7388860Y-13726625D01*
G01X8491098Y-13726625D01*
G01X8491464Y-13742125D01*
G01X8495168Y-13757180D01*
G01X8502036Y-13771080D01*
G01X8511744Y-13783170D01*
G01X8523833Y-13792877D01*
G01X8537733Y-13799745D01*
G01X8552789Y-13803450D01*
G01X8568289Y-13803815D01*
G01X8583502Y-13800826D01*
G01X8597711Y-13794621D01*
G01X8610244Y-13785495D01*
G01X8620512Y-13773877D01*
G01X8628028Y-13760316D01*
G01X8632439Y-13745453D01*
G01X8633535Y-13729987D01*
G01X8762700Y-13600823D01*
G01X8762700Y-13600823D01*
G01X8778165Y-13599726D01*
G01X8793029Y-13595315D01*
G01X8806590Y-13587799D01*
G01X8818207Y-13577532D01*
G01X8827334Y-13564998D01*
G01X8833538Y-13550789D01*
G01X8836528Y-13535576D01*
G01X8836162Y-13520076D01*
G01X8832458Y-13505021D01*
G01X8825590Y-13491121D01*
G01X8815882Y-13479031D01*
G01X8803793Y-13469324D01*
G01X8789893Y-13462456D01*
G01X8774837Y-13458751D01*
G01X8759337Y-13458386D01*
G01X8744124Y-13461375D01*
G01X8729915Y-13467580D01*
G01X8717382Y-13476706D01*
G01X8707114Y-13488324D01*
G01X8699598Y-13501885D01*
G01X8695187Y-13516748D01*
G01X8694091Y-13532214D01*
G01X8564926Y-13661378D01*
G01X8549461Y-13662475D01*
G01X8534597Y-13666886D01*
G01X8521036Y-13674402D01*
G01X8509419Y-13684669D01*
G01X8500292Y-13697203D01*
G01X8494088Y-13711412D01*
G01X8491098Y-13726625D01*
G01X7388860Y-13726625D01*
G01X7388860Y-11631125D01*
G01X8465698Y-11631125D01*
G01X8466064Y-11646625D01*
G01X8469768Y-11661680D01*
G01X8476636Y-11675580D01*
G01X8486344Y-11687670D01*
G01X8498433Y-11697377D01*
G01X8512333Y-11704245D01*
G01X8527389Y-11707950D01*
G01X8542889Y-11708315D01*
G01X8558102Y-11705326D01*
G01X8572311Y-11699121D01*
G01X8584844Y-11689995D01*
G01X8595112Y-11678377D01*
G01X8602628Y-11664816D01*
G01X8607039Y-11649953D01*
G01X8608135Y-11634487D01*
G01X8711900Y-11530723D01*
G01X8711900Y-11530723D01*
G01X8727365Y-11529626D01*
G01X8742229Y-11525215D01*
G01X8755790Y-11517699D01*
G01X8767407Y-11507432D01*
G01X8776534Y-11494898D01*
G01X8782738Y-11480689D01*
G01X8785728Y-11465476D01*
G01X8785362Y-11449976D01*
G01X8781658Y-11434921D01*
G01X8774790Y-11421021D01*
G01X8765082Y-11408931D01*
G01X8752993Y-11399224D01*
G01X8739093Y-11392356D01*
G01X8724037Y-11388651D01*
G01X8708537Y-11388286D01*
G01X8693324Y-11391275D01*
G01X8679115Y-11397480D01*
G01X8666582Y-11406606D01*
G01X8656314Y-11418224D01*
G01X8648798Y-11431785D01*
G01X8644387Y-11446648D01*
G01X8643291Y-11462114D01*
G01X8539526Y-11565878D01*
G01X8524061Y-11566975D01*
G01X8509197Y-11571386D01*
G01X8495636Y-11578902D01*
G01X8484019Y-11589169D01*
G01X8474892Y-11601703D01*
G01X8468688Y-11615912D01*
G01X8465698Y-11631125D01*
G01X7388860Y-11631125D01*
G01X7388860Y-11172632D01*
G01X9001001Y-11172632D01*
G01X9001956Y-11188107D01*
G01X9006230Y-11203011D01*
G01X9013622Y-11216640D01*
G01X9023782Y-11228351D01*
G01X9023782Y-12192000D01*
G01X9023782Y-12192000D01*
G01X9025435Y-12204556D01*
G01X9030281Y-12216257D01*
G01X9037991Y-12226305D01*
G01X9216914Y-12405227D01*
G01X9208938Y-12420226D01*
G01X9204732Y-12436685D01*
G01X9204535Y-12453672D01*
G01X9208358Y-12470224D01*
G01X9215984Y-12485404D01*
G01X9226982Y-12498351D01*
G01X9226982Y-14476449D01*
G01X9216822Y-14488160D01*
G01X9209430Y-14501789D01*
G01X9205156Y-14516693D01*
G01X9204201Y-14532168D01*
G01X9206611Y-14547484D01*
G01X9212271Y-14561918D01*
G01X9220914Y-14574790D01*
G01X9232133Y-14585491D01*
G01X9245398Y-14593518D01*
G01X9260083Y-14598490D01*
G01X9275496Y-14600174D01*
G01X9290908Y-14598490D01*
G01X9305594Y-14593518D01*
G01X9318859Y-14585491D01*
G01X9330078Y-14574790D01*
G01X9338721Y-14561918D01*
G01X9344381Y-14547484D01*
G01X9346790Y-14532168D01*
G01X9345835Y-14516693D01*
G01X9341561Y-14501789D01*
G01X9334170Y-14488160D01*
G01X9324010Y-14476449D01*
G01X9324010Y-12498351D01*
G01X9334879Y-12485596D01*
G01X9342475Y-12470659D01*
G01X9346378Y-12454362D01*
G01X9346374Y-12437604D01*
G01X9342463Y-12421309D01*
G01X9334860Y-12406375D01*
G01X9323984Y-12393625D01*
G01X9322074Y-12381632D01*
G01X9317245Y-12370490D01*
G01X9309800Y-12360895D01*
G01X9120810Y-12171905D01*
G01X9120810Y-11228351D01*
G01X9130970Y-11216640D01*
G01X9138361Y-11203011D01*
G01X9142635Y-11188107D01*
G01X9143590Y-11172632D01*
G01X9141181Y-11157316D01*
G01X9135521Y-11142882D01*
G01X9126878Y-11130010D01*
G01X9115659Y-11119309D01*
G01X9102394Y-11111282D01*
G01X9087708Y-11106310D01*
G01X9072296Y-11104626D01*
G01X9056883Y-11106310D01*
G01X9042198Y-11111282D01*
G01X9028933Y-11119309D01*
G01X9017714Y-11130010D01*
G01X9009071Y-11142882D01*
G01X9003411Y-11157316D01*
G01X9001001Y-11172632D01*
G01X7388860Y-11172632D01*
G01X7388860Y-9967425D01*
G01X9303898Y-9967425D01*
G01X9304264Y-9982925D01*
G01X9307968Y-9997980D01*
G01X9314836Y-10011880D01*
G01X9324544Y-10023970D01*
G01X9336633Y-10033677D01*
G01X9350533Y-10040545D01*
G01X9365589Y-10044250D01*
G01X9381089Y-10044615D01*
G01X9396302Y-10041626D01*
G01X9410511Y-10035421D01*
G01X9423044Y-10026295D01*
G01X9433312Y-10014677D01*
G01X9440828Y-10001116D01*
G01X9445239Y-9986253D01*
G01X9446335Y-9970787D01*
G01X9499300Y-9917823D01*
G01X9499300Y-9917823D01*
G01X9514765Y-9916726D01*
G01X9529629Y-9912315D01*
G01X9543190Y-9904799D01*
G01X9554807Y-9894532D01*
G01X9563934Y-9881998D01*
G01X9570138Y-9867789D01*
G01X9573128Y-9852576D01*
G01X9572762Y-9837076D01*
G01X9569058Y-9822021D01*
G01X9562190Y-9808121D01*
G01X9552482Y-9796031D01*
G01X9540393Y-9786324D01*
G01X9526493Y-9779456D01*
G01X9511437Y-9775751D01*
G01X9495937Y-9775386D01*
G01X9480724Y-9778375D01*
G01X9466515Y-9784580D01*
G01X9453982Y-9793706D01*
G01X9443714Y-9805324D01*
G01X9436198Y-9818885D01*
G01X9431787Y-9833748D01*
G01X9430691Y-9849214D01*
G01X9377726Y-9902178D01*
G01X9362261Y-9903275D01*
G01X9347397Y-9907686D01*
G01X9333836Y-9915202D01*
G01X9322219Y-9925469D01*
G01X9313092Y-9938003D01*
G01X9306888Y-9952212D01*
G01X9303898Y-9967425D01*
G01X7388860Y-9967425D01*
G01X7388860Y-9442823D01*
G01X7395919Y-9430109D01*
G01X7400254Y-9416229D01*
G01X7415943Y-9418532D01*
G01X7431753Y-9417314D01*
G01X7446903Y-9412636D01*
G01X7460647Y-9404728D01*
G01X7472306Y-9393981D01*
G01X7481304Y-9380924D01*
G01X7487198Y-9366204D01*
G01X7489696Y-9350545D01*
G01X7488675Y-9334722D01*
G01X7484186Y-9319514D01*
G01X7660310Y-9319514D01*
G01X7655699Y-9335432D01*
G01X7654882Y-9351984D01*
G01X7657905Y-9368278D01*
G01X7664604Y-9383436D01*
G01X7674619Y-9396640D01*
G01X7687408Y-9407179D01*
G01X7702283Y-9414485D01*
G01X7718442Y-9418162D01*
G01X7735014Y-9418015D01*
G01X7751105Y-9414049D01*
G01X7765847Y-9406479D01*
G01X7778447Y-9395714D01*
G01X9509401Y-9395714D01*
G01X11109173Y-10995487D01*
G01X11110340Y-11011329D01*
G01X11114981Y-11026520D01*
G01X11122867Y-11040309D01*
G01X11133608Y-11052012D01*
G01X11146671Y-11061050D01*
G01X11161410Y-11066975D01*
G01X11177094Y-11069493D01*
G01X11192946Y-11068480D01*
G01X11208182Y-11063986D01*
G01X11208182Y-12393649D01*
G01X11197315Y-12406400D01*
G01X11189720Y-12421332D01*
G01X11185815Y-12437624D01*
G01X11185815Y-12454376D01*
G01X11189720Y-12470668D01*
G01X11197315Y-12485600D01*
G01X11208182Y-12498351D01*
G01X11208182Y-14476449D01*
G01X11198022Y-14488160D01*
G01X11190630Y-14501789D01*
G01X11186356Y-14516693D01*
G01X11185401Y-14532168D01*
G01X11187811Y-14547484D01*
G01X11193471Y-14561918D01*
G01X11202114Y-14574790D01*
G01X11213333Y-14585491D01*
G01X11226598Y-14593518D01*
G01X11241283Y-14598490D01*
G01X11256696Y-14600174D01*
G01X11272108Y-14598490D01*
G01X11286794Y-14593518D01*
G01X11300059Y-14585491D01*
G01X11311278Y-14574790D01*
G01X11319921Y-14561918D01*
G01X11325581Y-14547484D01*
G01X11327990Y-14532168D01*
G01X11327035Y-14516693D01*
G01X11322761Y-14501789D01*
G01X11315370Y-14488160D01*
G01X11305210Y-14476449D01*
G01X11305210Y-12498351D01*
G01X11316076Y-12485600D01*
G01X11323671Y-12470668D01*
G01X11327577Y-12454376D01*
G01X11327577Y-12437624D01*
G01X11323671Y-12421332D01*
G01X11316076Y-12406400D01*
G01X11305210Y-12393649D01*
G01X11305210Y-11096432D01*
G01X12582401Y-11096432D01*
G01X12583356Y-11111907D01*
G01X12587630Y-11126811D01*
G01X12595022Y-11140440D01*
G01X12605182Y-11152151D01*
G01X12605182Y-12192000D01*
G01X12605182Y-12192000D01*
G01X12606835Y-12204556D01*
G01X12611681Y-12216257D01*
G01X12619391Y-12226305D01*
G01X12836373Y-12443287D01*
G01X12837441Y-12458591D01*
G01X12841755Y-12473314D01*
G01X12849115Y-12486774D01*
G01X12859182Y-12498351D01*
G01X12859182Y-14224000D01*
G01X12860835Y-14236556D01*
G01X12865681Y-14248257D01*
G01X12873391Y-14258305D01*
G01X13141173Y-14526087D01*
G01X13142270Y-14541552D01*
G01X13146681Y-14556416D01*
G01X13154197Y-14569977D01*
G01X13164464Y-14581594D01*
G01X13176998Y-14590721D01*
G01X13191207Y-14596925D01*
G01X13206420Y-14599915D01*
G01X13221920Y-14599549D01*
G01X13236976Y-14595845D01*
G01X13250876Y-14588977D01*
G01X13262965Y-14579269D01*
G01X13272672Y-14567180D01*
G01X13279540Y-14553280D01*
G01X13283245Y-14538224D01*
G01X13283611Y-14522724D01*
G01X13280621Y-14507511D01*
G01X13274416Y-14493302D01*
G01X13265290Y-14480769D01*
G01X13253672Y-14470501D01*
G01X13240112Y-14462985D01*
G01X13225248Y-14458574D01*
G01X13209783Y-14457478D01*
G01X12956210Y-14203905D01*
G01X12956210Y-12498351D01*
G01X12965755Y-12487513D01*
G01X12972923Y-12474976D01*
G01X12977421Y-12461253D01*
G01X12979064Y-12446905D01*
G01X12977785Y-12432520D01*
G01X12973637Y-12418686D01*
G01X12966789Y-12405971D01*
G01X12957521Y-12394895D01*
G01X12946214Y-12385912D01*
G01X12933329Y-12379388D01*
G01X12919395Y-12375591D01*
G01X12904983Y-12374678D01*
G01X12702210Y-12171905D01*
G01X12702210Y-11152151D01*
G01X12712370Y-11140440D01*
G01X12719761Y-11126811D01*
G01X12724035Y-11111907D01*
G01X12724990Y-11096432D01*
G01X12722581Y-11081116D01*
G01X12716921Y-11066682D01*
G01X12708278Y-11053810D01*
G01X12697059Y-11043109D01*
G01X12683794Y-11035082D01*
G01X12669108Y-11030110D01*
G01X12653696Y-11028426D01*
G01X12638283Y-11030110D01*
G01X12623598Y-11035082D01*
G01X12610333Y-11043109D01*
G01X12599114Y-11053810D01*
G01X12590471Y-11066682D01*
G01X12584811Y-11081116D01*
G01X12582401Y-11096432D01*
G01X11305210Y-11096432D01*
G01X11305210Y-10388600D01*
G01X11303557Y-10376044D01*
G01X11298710Y-10364343D01*
G01X11291000Y-10354295D01*
G01X11251818Y-10315113D01*
G01X11250486Y-10298413D01*
G01X11245298Y-10282484D01*
G01X11236539Y-10268203D01*
G01X11224693Y-10256357D01*
G01X11210412Y-10247598D01*
G01X11194482Y-10242410D01*
G01X11177783Y-10241078D01*
G01X10954930Y-10018225D01*
G01X11234298Y-10018225D01*
G01X11234664Y-10033725D01*
G01X11238368Y-10048780D01*
G01X11245236Y-10062680D01*
G01X11254944Y-10074770D01*
G01X11267033Y-10084477D01*
G01X11280933Y-10091345D01*
G01X11295989Y-10095050D01*
G01X11311489Y-10095415D01*
G01X11326702Y-10092426D01*
G01X11340911Y-10086221D01*
G01X11353444Y-10077095D01*
G01X11363712Y-10065477D01*
G01X11371228Y-10051916D01*
G01X11375639Y-10037053D01*
G01X11376735Y-10021587D01*
G01X11505900Y-9892423D01*
G01X11521365Y-9891326D01*
G01X11536229Y-9886915D01*
G01X11549790Y-9879399D01*
G01X11561407Y-9869132D01*
G01X11570534Y-9856598D01*
G01X11576738Y-9842389D01*
G01X11579728Y-9827176D01*
G01X11579362Y-9811676D01*
G01X11575658Y-9796621D01*
G01X11568790Y-9782721D01*
G01X11559082Y-9770631D01*
G01X11559082Y-9770631D01*
G01X11546993Y-9760924D01*
G01X11533093Y-9754056D01*
G01X11518037Y-9750351D01*
G01X11502537Y-9749986D01*
G01X11487324Y-9752975D01*
G01X11473115Y-9759180D01*
G01X11460582Y-9768306D01*
G01X11450314Y-9779924D01*
G01X11442798Y-9793485D01*
G01X11438387Y-9808348D01*
G01X11437291Y-9823814D01*
G01X11308126Y-9952978D01*
G01X11292661Y-9954075D01*
G01X11277797Y-9958486D01*
G01X11264236Y-9966002D01*
G01X11252619Y-9976269D01*
G01X11243492Y-9988803D01*
G01X11237288Y-10003012D01*
G01X11234298Y-10018225D01*
G01X10954930Y-10018225D01*
G01X10544631Y-9607926D01*
G01X10558478Y-9600495D01*
G01X10570364Y-9590214D01*
G01X14582013Y-9590214D01*
G01X14594569Y-9588561D01*
G01X14606270Y-9583715D01*
G01X14616318Y-9576005D01*
G01X15098918Y-9093405D01*
G01X15106627Y-9083357D01*
G01X15111474Y-9071657D01*
G01X15113127Y-9059100D01*
G01X15113127Y-8933652D01*
G01X15113313Y-8933479D01*
G01X15125717Y-8939769D01*
G01X15139106Y-8943532D01*
G01X15152971Y-8944627D01*
G01X15166785Y-8943011D01*
G01X15166785Y-10275401D01*
G01X15123170Y-10319015D01*
G01X15109583Y-10326846D01*
G01X15098033Y-10337454D01*
G01X15089079Y-10350330D01*
G01X15083153Y-10364849D01*
G01X15080541Y-10380313D01*
G01X15081370Y-10395973D01*
G01X15085598Y-10411075D01*
G01X15093022Y-10424889D01*
G01X15103285Y-10436747D01*
G01X15103285Y-12289396D01*
G01X15104938Y-12301953D01*
G01X15109784Y-12313653D01*
G01X15117494Y-12323701D01*
G01X15154085Y-12360291D01*
G01X15154085Y-12389445D01*
G01X15143218Y-12402196D01*
G01X15135623Y-12417128D01*
G01X15131718Y-12433420D01*
G01X15131718Y-12450173D01*
G01X15135623Y-12466464D01*
G01X15143218Y-12481397D01*
G01X15154085Y-12494147D01*
G01X15154085Y-14497645D01*
G01X15143924Y-14509357D01*
G01X15136533Y-14522986D01*
G01X15132259Y-14537889D01*
G01X15131304Y-14553364D01*
G01X15133713Y-14568680D01*
G01X15139373Y-14583114D01*
G01X15148017Y-14595986D01*
G01X15159235Y-14606688D01*
G01X15172501Y-14614714D01*
G01X15187186Y-14619686D01*
G01X15202599Y-14621370D01*
G01X15218011Y-14619686D01*
G01X15232696Y-14614714D01*
G01X15245962Y-14606688D01*
G01X15257180Y-14595986D01*
G01X15265824Y-14583114D01*
G01X15271484Y-14568680D01*
G01X15273893Y-14553364D01*
G01X15272938Y-14537889D01*
G01X15268664Y-14522986D01*
G01X15261273Y-14509357D01*
G01X15251113Y-14497645D01*
G01X15251113Y-12494147D01*
G01X15261979Y-12481397D01*
G01X15269574Y-12466464D01*
G01X15273479Y-12450173D01*
G01X15273479Y-12433420D01*
G01X15269574Y-12417128D01*
G01X15261979Y-12402196D01*
G01X15251113Y-12389445D01*
G01X15251113Y-12340196D01*
G01X15249459Y-12327640D01*
G01X15244613Y-12315939D01*
G01X15236903Y-12305892D01*
G01X15200313Y-12269301D01*
G01X15200313Y-12232724D01*
G01X15344399Y-12232724D01*
G01X15344765Y-12248224D01*
G01X15348469Y-12263279D01*
G01X15355337Y-12277179D01*
G01X15365045Y-12289269D01*
G01X15377134Y-12298976D01*
G01X15391034Y-12305844D01*
G01X15406090Y-12309549D01*
G01X15421590Y-12309914D01*
G01X15436803Y-12306925D01*
G01X15451012Y-12300720D01*
G01X15463545Y-12291594D01*
G01X15473813Y-12279976D01*
G01X15481329Y-12266415D01*
G01X15485740Y-12251552D01*
G01X15486836Y-12236086D01*
G01X15535907Y-12187016D01*
G01X15552014Y-12190736D01*
G01X15568545Y-12190651D01*
G01X15584613Y-12186764D01*
G01X15599356Y-12179286D01*
G01X15611983Y-12168616D01*
G01X15621817Y-12155328D01*
G01X15628329Y-12140134D01*
G01X15631172Y-12123849D01*
G01X15630192Y-12107347D01*
G01X15625442Y-12091512D01*
G01X15617176Y-12077196D01*
G01X15605839Y-12065165D01*
G01X15592038Y-12056065D01*
G01X15576513Y-12050384D01*
G01X15560098Y-12048427D01*
G01X15543673Y-12050299D01*
G01X15528120Y-12055899D01*
G01X15514272Y-12064927D01*
G01X15502872Y-12076899D01*
G01X15494532Y-12091172D01*
G01X15418227Y-12167477D01*
G01X15418227Y-12167477D01*
G01X15402762Y-12168574D01*
G01X15387898Y-12172985D01*
G01X15374337Y-12180501D01*
G01X15362720Y-12190768D01*
G01X15353593Y-12203302D01*
G01X15347389Y-12217511D01*
G01X15344399Y-12232724D01*
G01X15200313Y-12232724D01*
G01X15200313Y-10436747D01*
G01X15211101Y-10424114D01*
G01X15218676Y-10409328D01*
G01X15222628Y-10393192D01*
G01X15222743Y-10376579D01*
G01X15219014Y-10360390D01*
G01X15249603Y-10329801D01*
G01X15257313Y-10319753D01*
G01X15262159Y-10308053D01*
G01X15263813Y-10295496D01*
G01X15263813Y-10094425D01*
G01X15298298Y-10094425D01*
G01X15298664Y-10109925D01*
G01X15302368Y-10124980D01*
G01X15309236Y-10138880D01*
G01X15318944Y-10150970D01*
G01X15331033Y-10160677D01*
G01X15344933Y-10167545D01*
G01X15359989Y-10171250D01*
G01X15375489Y-10171615D01*
G01X15390702Y-10168626D01*
G01X15404911Y-10162421D01*
G01X15417444Y-10153295D01*
G01X15427712Y-10141677D01*
G01X15435228Y-10128116D01*
G01X15439639Y-10113253D01*
G01X15440735Y-10097787D01*
G01X15595300Y-9943223D01*
G01X15595300Y-9943223D01*
G01X15610765Y-9942126D01*
G01X15625629Y-9937715D01*
G01X15639190Y-9930199D01*
G01X15650807Y-9919932D01*
G01X15659934Y-9907398D01*
G01X15666138Y-9893189D01*
G01X15669128Y-9877976D01*
G01X15668762Y-9862476D01*
G01X15665058Y-9847421D01*
G01X15658190Y-9833521D01*
G01X15648482Y-9821431D01*
G01X15636393Y-9811724D01*
G01X15622493Y-9804856D01*
G01X15607437Y-9801151D01*
G01X15591937Y-9800786D01*
G01X15576724Y-9803775D01*
G01X15562515Y-9809980D01*
G01X15549982Y-9819106D01*
G01X15539714Y-9830724D01*
G01X15532198Y-9844285D01*
G01X15527787Y-9859148D01*
G01X15526691Y-9874614D01*
G01X15372126Y-10029178D01*
G01X15356661Y-10030275D01*
G01X15341797Y-10034686D01*
G01X15328236Y-10042202D01*
G01X15316619Y-10052469D01*
G01X15307492Y-10065003D01*
G01X15301288Y-10079212D01*
G01X15298298Y-10094425D01*
G01X15263813Y-10094425D01*
G01X15263813Y-9322123D01*
G01X17044516Y-9322123D01*
G01X17044516Y-9338876D01*
G01X17048421Y-9355167D01*
G01X17056016Y-9370100D01*
G01X17066882Y-9382851D01*
G01X17066882Y-10319548D01*
G01X17056016Y-10332299D01*
G01X17048421Y-10347232D01*
G01X17044516Y-10363523D01*
G01X17044516Y-10380276D01*
G01X17048421Y-10396567D01*
G01X17056016Y-10411500D01*
G01X17066882Y-10424251D01*
G01X17066882Y-12276899D01*
G01X17068535Y-12289456D01*
G01X17073382Y-12301156D01*
G01X17081092Y-12311204D01*
G01X17117682Y-12347795D01*
G01X17117682Y-12402348D01*
G01X17106816Y-12415099D01*
G01X17099221Y-12430032D01*
G01X17095316Y-12446323D01*
G01X17095316Y-12463076D01*
G01X17099221Y-12479367D01*
G01X17106816Y-12494300D01*
G01X17117682Y-12507051D01*
G01X17117682Y-14485148D01*
G01X17107522Y-14496860D01*
G01X17100131Y-14510489D01*
G01X17095857Y-14525392D01*
G01X17094902Y-14540867D01*
G01X17097311Y-14556183D01*
G01X17102971Y-14570618D01*
G01X17111614Y-14583489D01*
G01X17122833Y-14594191D01*
G01X17136098Y-14602217D01*
G01X17150784Y-14607190D01*
G01X17166196Y-14608873D01*
G01X17181609Y-14607190D01*
G01X17196294Y-14602217D01*
G01X17209559Y-14594191D01*
G01X17220778Y-14583489D01*
G01X17229422Y-14570618D01*
G01X17235081Y-14556183D01*
G01X17237491Y-14540867D01*
G01X17236536Y-14525392D01*
G01X17232262Y-14510489D01*
G01X17224870Y-14496860D01*
G01X17214710Y-14485148D01*
G01X17214710Y-14183825D01*
G01X19146398Y-14183825D01*
G01X19146764Y-14199325D01*
G01X19150468Y-14214380D01*
G01X19157336Y-14228280D01*
G01X19167044Y-14240370D01*
G01X19179133Y-14250077D01*
G01X19193033Y-14256945D01*
G01X19208089Y-14260650D01*
G01X19223589Y-14261015D01*
G01X19238802Y-14258026D01*
G01X19253011Y-14251821D01*
G01X19265544Y-14242695D01*
G01X19275812Y-14231077D01*
G01X19283328Y-14217516D01*
G01X19287739Y-14202653D01*
G01X19288835Y-14187187D01*
G01X19491608Y-13984414D01*
G01X19755776Y-13984414D01*
G01X19756962Y-13999854D01*
G01X19761449Y-14014674D01*
G01X19769028Y-14028178D01*
G01X19779341Y-14039729D01*
G01X19791902Y-14048785D01*
G01X19806121Y-14054918D01*
G01X19821328Y-14057840D01*
G01X19836807Y-14057413D01*
G01X19851830Y-14053658D01*
G01X19865689Y-14046751D01*
G01X19877733Y-14037018D01*
G01X19877733Y-14037018D01*
G01X19887394Y-14024916D01*
G01X19894217Y-14011016D01*
G01X19897882Y-13995971D01*
G01X19898216Y-13980489D01*
G01X19895203Y-13965300D01*
G01X19888985Y-13951119D01*
G01X19879855Y-13938612D01*
G01X19868242Y-13928368D01*
G01X19854693Y-13920871D01*
G01X19839846Y-13916471D01*
G01X19824400Y-13915378D01*
G01X19810618Y-13901596D01*
G01X19800570Y-13893886D01*
G01X19788869Y-13889040D01*
G01X19776313Y-13887386D01*
G01X19471513Y-13887386D01*
G01X19458957Y-13889040D01*
G01X19447256Y-13893886D01*
G01X19437208Y-13901596D01*
G01X19220226Y-14118578D01*
G01X19204761Y-14119675D01*
G01X19189897Y-14124086D01*
G01X19176336Y-14131602D01*
G01X19164719Y-14141869D01*
G01X19155592Y-14154403D01*
G01X19149388Y-14168612D01*
G01X19146398Y-14183825D01*
G01X17214710Y-14183825D01*
G01X17214710Y-13459376D01*
G01X17406498Y-13459376D01*
G01X17409488Y-13474589D01*
G01X17415692Y-13488798D01*
G01X17424819Y-13501332D01*
G01X17436436Y-13511599D01*
G01X17449997Y-13519115D01*
G01X17464861Y-13523526D01*
G01X17480326Y-13524623D01*
G01X18027508Y-14071805D01*
G01X18037556Y-14079515D01*
G01X18049257Y-14084361D01*
G01X18061813Y-14086014D01*
G01X19128613Y-14086014D01*
G01X19141169Y-14084361D01*
G01X19152870Y-14079515D01*
G01X19162918Y-14071805D01*
G01X20441874Y-12792849D01*
G01X20457339Y-12791752D01*
G01X20472203Y-12787341D01*
G01X20485764Y-12779825D01*
G01X20497381Y-12769558D01*
G01X20506508Y-12757024D01*
G01X20512712Y-12742815D01*
G01X20515702Y-12727602D01*
G01X20515336Y-12712102D01*
G01X20511632Y-12697047D01*
G01X20504764Y-12683147D01*
G01X20495056Y-12671057D01*
G01X20482967Y-12661350D01*
G01X20469067Y-12654482D01*
G01X20454011Y-12650777D01*
G01X20438511Y-12650412D01*
G01X20423298Y-12653401D01*
G01X20409089Y-12659606D01*
G01X20396556Y-12668732D01*
G01X20386288Y-12680350D01*
G01X20378772Y-12693911D01*
G01X20374361Y-12708774D01*
G01X20373265Y-12724240D01*
G01X19188113Y-13909392D01*
G01X19188113Y-12387848D01*
G01X19198979Y-12375098D01*
G01X19206574Y-12360165D01*
G01X19210479Y-12343874D01*
G01X19210479Y-12327121D01*
G01X19206574Y-12310829D01*
G01X19198979Y-12295897D01*
G01X19188113Y-12283146D01*
G01X19188113Y-9947897D01*
G01X19186459Y-9935341D01*
G01X19181613Y-9923640D01*
G01X19173903Y-9913593D01*
G01X19160121Y-9899811D01*
G01X19159037Y-9884417D01*
G01X19154670Y-9869616D01*
G01X19147223Y-9856100D01*
G01X19137046Y-9844500D01*
G01X19124613Y-9835359D01*
G01X19124613Y-8819148D01*
G01X19135479Y-8806398D01*
G01X19143074Y-8791465D01*
G01X19146979Y-8775174D01*
G01X19146979Y-8758421D01*
G01X19144074Y-8746299D01*
G01X20058621Y-8746299D01*
G01X20060305Y-8761712D01*
G01X20065278Y-8776397D01*
G01X20073304Y-8789663D01*
G01X20084006Y-8800881D01*
G01X20096877Y-8809525D01*
G01X20111311Y-8815185D01*
G01X20126627Y-8817594D01*
G01X20142102Y-8816639D01*
G01X20157006Y-8812365D01*
G01X20170635Y-8804974D01*
G01X20182346Y-8794813D01*
G01X20262300Y-8794813D01*
G01X20566673Y-9099186D01*
G01X20566673Y-9099186D01*
G01X20567662Y-9114042D01*
G01X20571711Y-9128369D01*
G01X20578645Y-9141545D01*
G01X20588161Y-9152995D01*
G01X20581726Y-9168140D01*
G01X20578931Y-9184356D01*
G01X20579923Y-9200780D01*
G01X20584650Y-9216542D01*
G01X20592862Y-9230801D01*
G01X20604120Y-9242802D01*
G01X20617828Y-9251905D01*
G01X20633255Y-9257627D01*
G01X20649584Y-9259664D01*
G01X20665944Y-9257907D01*
G01X20681468Y-9252451D01*
G01X20695330Y-9243584D01*
G01X20706793Y-9231779D01*
G01X20715247Y-9217662D01*
G01X20720245Y-9201985D01*
G01X20721519Y-9185579D01*
G01X20760701Y-9146397D01*
G01X20768411Y-9136350D01*
G01X20773257Y-9124649D01*
G01X20774910Y-9112093D01*
G01X20774910Y-9086693D01*
G01X20773257Y-9074136D01*
G01X20768411Y-9062436D01*
G01X20760701Y-9052388D01*
G01X20721519Y-9013206D01*
G01X20720272Y-8996943D01*
G01X20715366Y-8981387D01*
G01X20707057Y-8967352D01*
G01X20695778Y-8955569D01*
G01X20682118Y-8946655D01*
G01X20666792Y-8941075D01*
G01X20650599Y-8939120D01*
G01X20634385Y-8940892D01*
G01X20618996Y-8946299D01*
G01X20605237Y-8955058D01*
G01X20593826Y-8966713D01*
G01X20585359Y-8980654D01*
G01X20316700Y-8711995D01*
G01X20306652Y-8704285D01*
G01X20294952Y-8699439D01*
G01X20282395Y-8697785D01*
G01X20182346Y-8697785D01*
G01X20170635Y-8687625D01*
G01X20157006Y-8680234D01*
G01X20142102Y-8675960D01*
G01X20126627Y-8675005D01*
G01X20111311Y-8677414D01*
G01X20096877Y-8683074D01*
G01X20084006Y-8691718D01*
G01X20073304Y-8702936D01*
G01X20065278Y-8716202D01*
G01X20060305Y-8730887D01*
G01X20058621Y-8746299D01*
G01X19144074Y-8746299D01*
G01X19143074Y-8742129D01*
G01X19135479Y-8727197D01*
G01X19124613Y-8714446D01*
G01X19124613Y-8220900D01*
G01X20149439Y-8220900D01*
G01X20151123Y-8236313D01*
G01X20156095Y-8250998D01*
G01X20164122Y-8264264D01*
G01X20174823Y-8275482D01*
G01X20187695Y-8284126D01*
G01X20202129Y-8289786D01*
G01X20217445Y-8292195D01*
G01X20232920Y-8291240D01*
G01X20247824Y-8286966D01*
G01X20261453Y-8279575D01*
G01X20273164Y-8269414D01*
G01X20371662Y-8269414D01*
G01X20383373Y-8279575D01*
G01X20397002Y-8286966D01*
G01X20411906Y-8291240D01*
G01X20427381Y-8292195D01*
G01X20442697Y-8289786D01*
G01X20457131Y-8284126D01*
G01X20470003Y-8275482D01*
G01X20480704Y-8264264D01*
G01X20488731Y-8250998D01*
G01X20493703Y-8236313D01*
G01X20495387Y-8220900D01*
G01X20493703Y-8205488D01*
G01X20488731Y-8190803D01*
G01X20480704Y-8177537D01*
G01X20470003Y-8166319D01*
G01X20457131Y-8157675D01*
G01X20442697Y-8152015D01*
G01X20427381Y-8149606D01*
G01X20411906Y-8150561D01*
G01X20397002Y-8154835D01*
G01X20383373Y-8162226D01*
G01X20371662Y-8172386D01*
G01X20273164Y-8172386D01*
G01X20261453Y-8162226D01*
G01X20247824Y-8154835D01*
G01X20232920Y-8150561D01*
G01X20217445Y-8149606D01*
G01X20202129Y-8152015D01*
G01X20187695Y-8157675D01*
G01X20174823Y-8166319D01*
G01X20164122Y-8177537D01*
G01X20156095Y-8190803D01*
G01X20151123Y-8205488D01*
G01X20149439Y-8220900D01*
G01X20149439Y-8220900D01*
G01X19124613Y-8220900D01*
G01X19124613Y-8092524D01*
G01X19268699Y-8092524D01*
G01X19269065Y-8108024D01*
G01X19272769Y-8123079D01*
G01X19279637Y-8136979D01*
G01X19289345Y-8149069D01*
G01X19301434Y-8158776D01*
G01X19315334Y-8165644D01*
G01X19330390Y-8169349D01*
G01X19345890Y-8169714D01*
G01X19361103Y-8166725D01*
G01X19375312Y-8160520D01*
G01X19387845Y-8151394D01*
G01X19398113Y-8139776D01*
G01X19405629Y-8126215D01*
G01X19410040Y-8111352D01*
G01X19411136Y-8095886D01*
G01X19453508Y-8053514D01*
G01X19558862Y-8053514D01*
G01X19570573Y-8063675D01*
G01X19584202Y-8071066D01*
G01X19599106Y-8075340D01*
G01X19614581Y-8076295D01*
G01X19629897Y-8073886D01*
G01X19644331Y-8068226D01*
G01X19657203Y-8059582D01*
G01X19667904Y-8048364D01*
G01X19675931Y-8035098D01*
G01X19680903Y-8020413D01*
G01X19682587Y-8005000D01*
G01X19680903Y-7989588D01*
G01X19675931Y-7974903D01*
G01X19667904Y-7961637D01*
G01X19657203Y-7950419D01*
G01X19644331Y-7941775D01*
G01X19629897Y-7936115D01*
G01X19614581Y-7933706D01*
G01X19599106Y-7934661D01*
G01X19584202Y-7938935D01*
G01X19570573Y-7946326D01*
G01X19558862Y-7956486D01*
G01X19433413Y-7956486D01*
G01X19420857Y-7958140D01*
G01X19409156Y-7962986D01*
G01X19399108Y-7970696D01*
G01X19342527Y-8027277D01*
G01X19342527Y-8027277D01*
G01X19327062Y-8028374D01*
G01X19312198Y-8032785D01*
G01X19298637Y-8040301D01*
G01X19287020Y-8050568D01*
G01X19277893Y-8063102D01*
G01X19271689Y-8077311D01*
G01X19268699Y-8092524D01*
G01X19124613Y-8092524D01*
G01X19124613Y-7313692D01*
G01X19276585Y-7161720D01*
G01X19292051Y-7160623D01*
G01X19306914Y-7156212D01*
G01X19320475Y-7148696D01*
G01X19332093Y-7138429D01*
G01X19341219Y-7125895D01*
G01X19347424Y-7111686D01*
G01X19350413Y-7096473D01*
G01X19350048Y-7080973D01*
G01X19346343Y-7065918D01*
G01X19339475Y-7052017D01*
G01X19329768Y-7039928D01*
G01X19317678Y-7030221D01*
G01X19303778Y-7023353D01*
G01X19288723Y-7019648D01*
G01X19273223Y-7019282D01*
G01X19258010Y-7022272D01*
G01X19243801Y-7028477D01*
G01X19231267Y-7037603D01*
G01X19221000Y-7049221D01*
G01X19213484Y-7062781D01*
G01X19209073Y-7077645D01*
G01X19207976Y-7093111D01*
G01X19041794Y-7259293D01*
G01X19034084Y-7269340D01*
G01X19029238Y-7281041D01*
G01X19027585Y-7293597D01*
G01X19027585Y-8714446D01*
G01X19027585Y-8714446D01*
G01X19016718Y-8727197D01*
G01X19009123Y-8742129D01*
G01X19005218Y-8758421D01*
G01X19005218Y-8775174D01*
G01X19009123Y-8791465D01*
G01X19016718Y-8806398D01*
G01X19027585Y-8819148D01*
G01X19027585Y-9858997D01*
G01X19027604Y-9860362D01*
G01X19020665Y-9875836D01*
G01X19017572Y-9892510D01*
G01X19018500Y-9909444D01*
G01X19023397Y-9925680D01*
G01X19031987Y-9940302D01*
G01X19043783Y-9952485D01*
G01X19058121Y-9961542D01*
G01X19074190Y-9966960D01*
G01X19091085Y-9968435D01*
G01X19091085Y-12283146D01*
G01X19080218Y-12295897D01*
G01X19072623Y-12310829D01*
G01X19068718Y-12327121D01*
G01X19068718Y-12343874D01*
G01X19072623Y-12360165D01*
G01X19080218Y-12375098D01*
G01X19091085Y-12387848D01*
G01X19091085Y-13893570D01*
G01X19076018Y-13900794D01*
G01X19063045Y-13911322D01*
G01X19052874Y-13924579D01*
G01X19046064Y-13939837D01*
G01X19042989Y-13956260D01*
G01X19043815Y-13972948D01*
G01X19048499Y-13988986D01*
G01X18081908Y-13988986D01*
G01X17548935Y-13456014D01*
G01X17547839Y-13440548D01*
G01X17543428Y-13425685D01*
G01X17535912Y-13412124D01*
G01X17525644Y-13400506D01*
G01X17513111Y-13391380D01*
G01X17498902Y-13385175D01*
G01X17483689Y-13382186D01*
G01X17468189Y-13382551D01*
G01X17453133Y-13386256D01*
G01X17439233Y-13393124D01*
G01X17427144Y-13402831D01*
G01X17417436Y-13414921D01*
G01X17410568Y-13428821D01*
G01X17406864Y-13443876D01*
G01X17406498Y-13459376D01*
G01X17214710Y-13459376D01*
G01X17214710Y-12507051D01*
G01X17225577Y-12494300D01*
G01X17233172Y-12479367D01*
G01X17237077Y-12463076D01*
G01X17237077Y-12446323D01*
G01X17233172Y-12430032D01*
G01X17225577Y-12415099D01*
G01X17214710Y-12402348D01*
G01X17214710Y-12327699D01*
G01X17213057Y-12315143D01*
G01X17208211Y-12303442D01*
G01X17200501Y-12293395D01*
G01X17163910Y-12256804D01*
G01X17163910Y-11434000D01*
G01X17761839Y-11434000D01*
G01X17763523Y-11449413D01*
G01X17768495Y-11464098D01*
G01X17776522Y-11477364D01*
G01X17787223Y-11488582D01*
G01X17800095Y-11497226D01*
G01X17814529Y-11502886D01*
G01X17829845Y-11505295D01*
G01X17845320Y-11504340D01*
G01X17860224Y-11500066D01*
G01X17873853Y-11492675D01*
G01X17885564Y-11482514D01*
G01X18676718Y-11482514D01*
G01X18828691Y-11634487D01*
G01X18828691Y-11634487D01*
G01X18829787Y-11649953D01*
G01X18834198Y-11664816D01*
G01X18841714Y-11678377D01*
G01X18851982Y-11689995D01*
G01X18864515Y-11699121D01*
G01X18878724Y-11705326D01*
G01X18893937Y-11708315D01*
G01X18909437Y-11707950D01*
G01X18924493Y-11704245D01*
G01X18938393Y-11697377D01*
G01X18950482Y-11687670D01*
G01X18960190Y-11675580D01*
G01X18967058Y-11661680D01*
G01X18970762Y-11646625D01*
G01X18971128Y-11631125D01*
G01X18968138Y-11615912D01*
G01X18961934Y-11601703D01*
G01X18952807Y-11589169D01*
G01X18941190Y-11578902D01*
G01X18927629Y-11571386D01*
G01X18912765Y-11566975D01*
G01X18897300Y-11565878D01*
G01X18731118Y-11399696D01*
G01X18721070Y-11391986D01*
G01X18709369Y-11387140D01*
G01X18696813Y-11385486D01*
G01X17885564Y-11385486D01*
G01X17873853Y-11375326D01*
G01X17860224Y-11367935D01*
G01X17845320Y-11363661D01*
G01X17829845Y-11362706D01*
G01X17814529Y-11365115D01*
G01X17800095Y-11370775D01*
G01X17787223Y-11379419D01*
G01X17776522Y-11390637D01*
G01X17768495Y-11403903D01*
G01X17763523Y-11418588D01*
G01X17761839Y-11434000D01*
G01X17163910Y-11434000D01*
G01X17163910Y-10424251D01*
G01X17174777Y-10411500D01*
G01X17182372Y-10396567D01*
G01X17186277Y-10380276D01*
G01X17186277Y-10363523D01*
G01X17182372Y-10347232D01*
G01X17174777Y-10332299D01*
G01X17163910Y-10319548D01*
G01X17163910Y-10069025D01*
G01X17241398Y-10069025D01*
G01X17241764Y-10084525D01*
G01X17245468Y-10099580D01*
G01X17252336Y-10113480D01*
G01X17262044Y-10125570D01*
G01X17274133Y-10135277D01*
G01X17288033Y-10142145D01*
G01X17303089Y-10145850D01*
G01X17318589Y-10146215D01*
G01X17333802Y-10143226D01*
G01X17348011Y-10137021D01*
G01X17360544Y-10127895D01*
G01X17370812Y-10116277D01*
G01X17378328Y-10102716D01*
G01X17382739Y-10087853D01*
G01X17383835Y-10072387D01*
G01X17538400Y-9917823D01*
G01X17538400Y-9917823D01*
G01X17553865Y-9916726D01*
G01X17568729Y-9912315D01*
G01X17582290Y-9904799D01*
G01X17593907Y-9894532D01*
G01X17603034Y-9881998D01*
G01X17609238Y-9867789D01*
G01X17612228Y-9852576D01*
G01X17611862Y-9837076D01*
G01X17608158Y-9822021D01*
G01X17601290Y-9808121D01*
G01X17591582Y-9796031D01*
G01X17579493Y-9786324D01*
G01X17565593Y-9779456D01*
G01X17550537Y-9775751D01*
G01X17535037Y-9775386D01*
G01X17519824Y-9778375D01*
G01X17505615Y-9784580D01*
G01X17493082Y-9793706D01*
G01X17482814Y-9805324D01*
G01X17475298Y-9818885D01*
G01X17470887Y-9833748D01*
G01X17469791Y-9849214D01*
G01X17315226Y-10003778D01*
G01X17299761Y-10004875D01*
G01X17284897Y-10009286D01*
G01X17271336Y-10016802D01*
G01X17259719Y-10027069D01*
G01X17250592Y-10039603D01*
G01X17244388Y-10053812D01*
G01X17241398Y-10069025D01*
G01X17163910Y-10069025D01*
G01X17163910Y-9382851D01*
G01X17174777Y-9370100D01*
G01X17182372Y-9355167D01*
G01X17186277Y-9338876D01*
G01X17186277Y-9322123D01*
G01X17182372Y-9305832D01*
G01X17174777Y-9290899D01*
G01X17163910Y-9278148D01*
G01X17163910Y-7293195D01*
G01X17290483Y-7166622D01*
G01X17305949Y-7165525D01*
G01X17320812Y-7161114D01*
G01X17334373Y-7153598D01*
G01X17345991Y-7143331D01*
G01X17355117Y-7130797D01*
G01X17361321Y-7116588D01*
G01X17364311Y-7101375D01*
G01X17363945Y-7085875D01*
G01X17360241Y-7070820D01*
G01X17353373Y-7056920D01*
G01X17343665Y-7044830D01*
G01X17331576Y-7035123D01*
G01X17317676Y-7028255D01*
G01X17302621Y-7024550D01*
G01X17287121Y-7024185D01*
G01X17271907Y-7027174D01*
G01X17257699Y-7033379D01*
G01X17245165Y-7042505D01*
G01X17234898Y-7054123D01*
G01X17227381Y-7067684D01*
G01X17222971Y-7082547D01*
G01X17221874Y-7098013D01*
G01X17081092Y-7238795D01*
G01X17073382Y-7248842D01*
G01X17068535Y-7260543D01*
G01X17066882Y-7273099D01*
G01X17066882Y-9278148D01*
G01X17066882Y-9278148D01*
G01X17056016Y-9290899D01*
G01X17048421Y-9305832D01*
G01X17044516Y-9322123D01*
G01X15263813Y-9322123D01*
G01X15263813Y-8250796D01*
G01X15262159Y-8238240D01*
G01X15257313Y-8226539D01*
G01X15249603Y-8216492D01*
G01X15210421Y-8177310D01*
G01X15209353Y-8162005D01*
G01X15205039Y-8147283D01*
G01X15197679Y-8133822D01*
G01X15187613Y-8122245D01*
G01X15187613Y-7337947D01*
G01X15198479Y-7325197D01*
G01X15206074Y-7310264D01*
G01X15209979Y-7293973D01*
G01X15209979Y-7277220D01*
G01X15206074Y-7260928D01*
G01X15198479Y-7245996D01*
G01X15187613Y-7233245D01*
G01X15187613Y-5382147D01*
G01X15197773Y-5370436D01*
G01X15205164Y-5356807D01*
G01X15209438Y-5341903D01*
G01X15210393Y-5326428D01*
G01X15207984Y-5311112D01*
G01X15202324Y-5296678D01*
G01X15193680Y-5283807D01*
G01X15182462Y-5273105D01*
G01X15169196Y-5265079D01*
G01X15154511Y-5260106D01*
G01X15139099Y-5258422D01*
G01X15123686Y-5260106D01*
G01X15109001Y-5265079D01*
G01X15095735Y-5273105D01*
G01X15084517Y-5283807D01*
G01X15075873Y-5296678D01*
G01X15070213Y-5311112D01*
G01X15067804Y-5326428D01*
G01X15068759Y-5341903D01*
G01X15073033Y-5356807D01*
G01X15080424Y-5370436D01*
G01X15090585Y-5382147D01*
G01X15090585Y-7233245D01*
G01X15079718Y-7245996D01*
G01X15072123Y-7260928D01*
G01X15068218Y-7277220D01*
G01X15068218Y-7293973D01*
G01X15072123Y-7310264D01*
G01X15079718Y-7325197D01*
G01X15090585Y-7337947D01*
G01X15090585Y-8122245D01*
G01X15081039Y-8133083D01*
G01X15073871Y-8145620D01*
G01X15069373Y-8159344D01*
G01X15067730Y-8173692D01*
G01X15069009Y-8188077D01*
G01X15073158Y-8201910D01*
G01X15080006Y-8214625D01*
G01X15089273Y-8225701D01*
G01X15100581Y-8234685D01*
G01X15113465Y-8241208D01*
G01X15127399Y-8245005D01*
G01X15141812Y-8245919D01*
G01X15166785Y-8270891D01*
G01X15166785Y-8803560D01*
G01X15157883Y-8802203D01*
G01X15148882Y-8801977D01*
G01X15109700Y-8762795D01*
G01X15099652Y-8755085D01*
G01X15087952Y-8750239D01*
G01X15075395Y-8748585D01*
G01X15049995Y-8748585D01*
G01X15037439Y-8750239D01*
G01X15025738Y-8755085D01*
G01X15015691Y-8762795D01*
G01X14964891Y-8813595D01*
G01X14957181Y-8823642D01*
G01X14952334Y-8835343D01*
G01X14950681Y-8847899D01*
G01X14950681Y-8931694D01*
G01X14934092Y-8928993D01*
G01X14917332Y-8930246D01*
G01X14901329Y-8935383D01*
G01X14886971Y-8944121D01*
G01X14875055Y-8955973D01*
G01X14866240Y-8970284D01*
G01X14861017Y-8986259D01*
G01X14859674Y-9003013D01*
G01X14691001Y-9171686D01*
G01X13421966Y-9171686D01*
G01X13437285Y-9166528D01*
G01X13451050Y-9158055D01*
G01X13462556Y-9146703D01*
G01X13471213Y-9133052D01*
G01X13476576Y-9117804D01*
G01X13478370Y-9101740D01*
G01X13476504Y-9085684D01*
G01X13471073Y-9070459D01*
G01X13462355Y-9056848D01*
G01X13450798Y-9045547D01*
G01X13436995Y-9037136D01*
G01X13421653Y-9032047D01*
G01X13405559Y-9030540D01*
G01X13389540Y-9032693D01*
G01X13374415Y-9038396D01*
G01X13360961Y-9047356D01*
G01X13349869Y-9059113D01*
G01X13341706Y-9073064D01*
G01X13336892Y-9088495D01*
G01X13335674Y-9104613D01*
G01X13310701Y-9129585D01*
G01X11495899Y-9129585D01*
G01X11502750Y-9114070D01*
G01X11505748Y-9097376D01*
G01X11504721Y-9080447D01*
G01X11499729Y-9064237D01*
G01X11491054Y-9049663D01*
G01X11479184Y-9037548D01*
G01X11464791Y-9028575D01*
G01X11448688Y-9023251D01*
G01X11431783Y-9021878D01*
G01X11330610Y-8920705D01*
G01X11330610Y-8884695D01*
G01X12854183Y-7361122D01*
G01X12868595Y-7360209D01*
G01X12882529Y-7356412D01*
G01X12895414Y-7349888D01*
G01X12906721Y-7340905D01*
G01X12915989Y-7329829D01*
G01X12922837Y-7317114D01*
G01X12926985Y-7303280D01*
G01X12928264Y-7288895D01*
G01X12926621Y-7274547D01*
G01X12922123Y-7260824D01*
G01X12914955Y-7248287D01*
G01X12905410Y-7237449D01*
G01X12905410Y-5760495D01*
G01X13158983Y-5506922D01*
G01X13174448Y-5505826D01*
G01X13189312Y-5501415D01*
G01X13202872Y-5493899D01*
G01X13214490Y-5483631D01*
G01X13223616Y-5471098D01*
G01X13229821Y-5456889D01*
G01X13232811Y-5441676D01*
G01X13232445Y-5426176D01*
G01X13228740Y-5411120D01*
G01X13221872Y-5397220D01*
G01X13212165Y-5385131D01*
G01X13200076Y-5375423D01*
G01X13186176Y-5368555D01*
G01X13171120Y-5364851D01*
G01X13155620Y-5364485D01*
G01X13140407Y-5367475D01*
G01X13126198Y-5373679D01*
G01X13113664Y-5382806D01*
G01X13103397Y-5394423D01*
G01X13095881Y-5407984D01*
G01X13091470Y-5422848D01*
G01X13090373Y-5438313D01*
G01X12822591Y-5706095D01*
G01X12814881Y-5716143D01*
G01X12810035Y-5727844D01*
G01X12808382Y-5740400D01*
G01X12808382Y-7237449D01*
G01X12798315Y-7249026D01*
G01X12790955Y-7262486D01*
G01X12786641Y-7277209D01*
G01X12785573Y-7292513D01*
G01X11295488Y-8782598D01*
G01X11287280Y-8769528D01*
G01X11276453Y-8758527D01*
G01X11263514Y-8750112D01*
G01X11249069Y-8744674D01*
G01X11233793Y-8742470D01*
G01X11218400Y-8743601D01*
G01X11203610Y-8748014D01*
G01X11203610Y-7188200D01*
G01X11201957Y-7175644D01*
G01X11197110Y-7163943D01*
G01X11189400Y-7153895D01*
G01X11074018Y-7038513D01*
G01X11072950Y-7023209D01*
G01X11068637Y-7008486D01*
G01X11061277Y-6995026D01*
G01X11051210Y-6983449D01*
G01X11051210Y-5557295D01*
G01X11177783Y-5430722D01*
G01X11193248Y-5429626D01*
G01X11208112Y-5425215D01*
G01X11221672Y-5417699D01*
G01X11233290Y-5407431D01*
G01X11242416Y-5394898D01*
G01X11248621Y-5380689D01*
G01X11251611Y-5365476D01*
G01X11251245Y-5349976D01*
G01X11247540Y-5334920D01*
G01X11240672Y-5321020D01*
G01X11230965Y-5308931D01*
G01X11218876Y-5299223D01*
G01X11204976Y-5292355D01*
G01X11189920Y-5288651D01*
G01X11174420Y-5288285D01*
G01X11159207Y-5291275D01*
G01X11144998Y-5297479D01*
G01X11132464Y-5306606D01*
G01X11122197Y-5318223D01*
G01X11114681Y-5331784D01*
G01X11110270Y-5346648D01*
G01X11109173Y-5362113D01*
G01X10968391Y-5502895D01*
G01X10960681Y-5512943D01*
G01X10955835Y-5524644D01*
G01X10954182Y-5537200D01*
G01X10954182Y-6983449D01*
G01X10944637Y-6994287D01*
G01X10937468Y-7006824D01*
G01X10932971Y-7020547D01*
G01X10931328Y-7034895D01*
G01X10932606Y-7049280D01*
G01X10936755Y-7063114D01*
G01X10943603Y-7075829D01*
G01X10952870Y-7086905D01*
G01X10964178Y-7095888D01*
G01X10977062Y-7102412D01*
G01X10990996Y-7106209D01*
G01X11005409Y-7107122D01*
G01X11106582Y-7208295D01*
G01X11106582Y-8748014D01*
G01X11092706Y-8743775D01*
G01X11078260Y-8742429D01*
G01X11063840Y-8744032D01*
G01X11050043Y-8748518D01*
G01X11037437Y-8755702D01*
G01X11026545Y-8765286D01*
G01X9727391Y-8765286D01*
G01X8928800Y-7966695D01*
G01X8918753Y-7958986D01*
G01X8907052Y-7954139D01*
G01X8894496Y-7952486D01*
G01X7388860Y-7952486D01*
G01X7388860Y-7924245D01*
G01X8228791Y-7084314D01*
G01X8257945Y-7084314D01*
G01X8261782Y-7088151D01*
G01X8261782Y-7239000D01*
G01X8263435Y-7251556D01*
G01X8268281Y-7263257D01*
G01X8275991Y-7273305D01*
G01X9178773Y-8176087D01*
G01X9179870Y-8191552D01*
G01X9184281Y-8206416D01*
G01X9191797Y-8219977D01*
G01X9202064Y-8231594D01*
G01X9214598Y-8240721D01*
G01X9228807Y-8246925D01*
G01X9244020Y-8249915D01*
G01X9259520Y-8249549D01*
G01X9274576Y-8245845D01*
G01X9288476Y-8238977D01*
G01X9300565Y-8229269D01*
G01X9310272Y-8217180D01*
G01X9317140Y-8203280D01*
G01X9320845Y-8188224D01*
G01X9321211Y-8172724D01*
G01X9318221Y-8157511D01*
G01X9312016Y-8143302D01*
G01X9302890Y-8130769D01*
G01X9291272Y-8120501D01*
G01X9277712Y-8112985D01*
G01X9262848Y-8108574D01*
G01X9247383Y-8107478D01*
G01X8358810Y-7218905D01*
G01X8358810Y-7088151D01*
G01X8369675Y-7075403D01*
G01X8377269Y-7060474D01*
G01X8381175Y-7044187D01*
G01X8381178Y-7027437D01*
G01X8377277Y-7011148D01*
G01X8369688Y-6996216D01*
G01X8358827Y-6983465D01*
G01X8345294Y-6973596D01*
G01X8329833Y-6967152D01*
G01X8313297Y-6964489D01*
G01X8296595Y-6965753D01*
G01X8280647Y-6970875D01*
G01X9523618Y-5727905D01*
G01X9531327Y-5717857D01*
G01X9536174Y-5706157D01*
G01X9537827Y-5693600D01*
G01X9537827Y-3534600D01*
G01X9536174Y-3522044D01*
G01X9531327Y-3510343D01*
G01X9523618Y-3500296D01*
G01X9433635Y-3410314D01*
G01X9432539Y-3394848D01*
G01X9428128Y-3379985D01*
G01X9420612Y-3366424D01*
G01X9410344Y-3354806D01*
G01X9397811Y-3345680D01*
G01X9383602Y-3339475D01*
G01X9368389Y-3336486D01*
G01X9352889Y-3336851D01*
G01X9337833Y-3340556D01*
G01X9323933Y-3347424D01*
G01X9311844Y-3357131D01*
G01X9302136Y-3369221D01*
G01X9295268Y-3383121D01*
G01X9291564Y-3398176D01*
G01X9291198Y-3413676D01*
G01X9294188Y-3428889D01*
G01X9300392Y-3443098D01*
G01X9309519Y-3455632D01*
G01X9321136Y-3465899D01*
G01X9334697Y-3473415D01*
G01X9349561Y-3477826D01*
G01X9365026Y-3478923D01*
G01X9440799Y-3554696D01*
G01X9440799Y-5673505D01*
G01X8046818Y-7067486D01*
G01X7408064Y-7067486D01*
G01X7400522Y-7060445D01*
G01X7392044Y-7054565D01*
G01X7479187Y-6967422D01*
G01X7494652Y-6966326D01*
G01X7509516Y-6961915D01*
G01X7523077Y-6954399D01*
G01X7534694Y-6944131D01*
G01X7543821Y-6931598D01*
G01X7550025Y-6917389D01*
G01X7553015Y-6902176D01*
G01X7552649Y-6886676D01*
G01X7548945Y-6871620D01*
G01X7542077Y-6857720D01*
G01X7532369Y-6845631D01*
G01X7520280Y-6835923D01*
G01X7506380Y-6829055D01*
G01X7491325Y-6825351D01*
G01X7475825Y-6824985D01*
G01X7460611Y-6827975D01*
G01X7446402Y-6834179D01*
G01X7433869Y-6843306D01*
G01X7423602Y-6854923D01*
G01X7416085Y-6868484D01*
G01X7411675Y-6883348D01*
G01X7410578Y-6898813D01*
G01X7388860Y-6920531D01*
G01X7388860Y-5039614D01*
G01X7475804Y-5039614D01*
G01X7484400Y-5038847D01*
G01X7492723Y-5036568D01*
G01X7508754Y-5036674D01*
G01X7524404Y-5033198D01*
G01X7538884Y-5026318D01*
G01X7551463Y-5016379D01*
G01X7561506Y-5003883D01*
G01X7568507Y-4989462D01*
G01X7572112Y-4973841D01*
G01X7572141Y-4957810D01*
G01X7568590Y-4942176D01*
G01X7561640Y-4927730D01*
G01X7551641Y-4915199D01*
G01X7539098Y-4905216D01*
G01X7524642Y-4898284D01*
G01X7509004Y-4894754D01*
G01X7492973Y-4894802D01*
G01X7477357Y-4898428D01*
G01X7462944Y-4905447D01*
G01X7450461Y-4915506D01*
G01X7440539Y-4928098D01*
G01X7433676Y-4942586D01*
G01X7388860Y-4942586D01*
G37*
G36*
G01X7489514Y-3785000D02*
G01X7487626Y-3764630D01*
G01X7482025Y-3744954D01*
G01X7472903Y-3726643D01*
G01X7460571Y-3710321D01*
G01X7445448Y-3696544D01*
G01X7428050Y-3685782D01*
G01X7408971Y-3678401D01*
G01X7388860Y-3674653D01*
G01X7388860Y-3183347D01*
G01X7408971Y-3179599D01*
G01X7428050Y-3172218D01*
G01X7445448Y-3161456D01*
G01X7460571Y-3147679D01*
G01X7472903Y-3131357D01*
G01X7482025Y-3113046D01*
G01X7487626Y-3093370D01*
G01X7489514Y-3073000D01*
G01X7489514Y-3023000D01*
G01X7521886Y-3023000D01*
G01X7521886Y-3073000D01*
G01X7523773Y-3093362D01*
G01X7529369Y-3113031D01*
G01X7538484Y-3131336D01*
G01X7550808Y-3147655D01*
G01X7565920Y-3161431D01*
G01X7583306Y-3172196D01*
G01X7602374Y-3179584D01*
G01X7622475Y-3183341D01*
G01X7642925Y-3183341D01*
G01X7663026Y-3179584D01*
G01X7682094Y-3172196D01*
G01X7699480Y-3161431D01*
G01X7714592Y-3147655D01*
G01X7726916Y-3131336D01*
G01X7736031Y-3113031D01*
G01X7741627Y-3093362D01*
G01X7743514Y-3073000D01*
G01X7743514Y-3023000D01*
G01X7775886Y-3023000D01*
G01X7775886Y-3073000D01*
G01X7777773Y-3093362D01*
G01X7783369Y-3113031D01*
G01X7792484Y-3131336D01*
G01X7804808Y-3147655D01*
G01X7819920Y-3161431D01*
G01X7837306Y-3172196D01*
G01X7856374Y-3179584D01*
G01X7876475Y-3183341D01*
G01X7896925Y-3183341D01*
G01X7917026Y-3179584D01*
G01X7936094Y-3172196D01*
G01X7953480Y-3161431D01*
G01X7968592Y-3147655D01*
G01X7980916Y-3131336D01*
G01X7990031Y-3113031D01*
G01X7995627Y-3093362D01*
G01X7997514Y-3073000D01*
G01X7997514Y-3023000D01*
G01X7995627Y-3002638D01*
G01X7990031Y-2982969D01*
G01X7980916Y-2964664D01*
G01X7968592Y-2948345D01*
G01X7953480Y-2934569D01*
G01X7936094Y-2923804D01*
G01X7917026Y-2916416D01*
G01X7896925Y-2912659D01*
G01X7876475Y-2912659D01*
G01X7856374Y-2916416D01*
G01X7837306Y-2923804D01*
G01X7819920Y-2934569D01*
G01X7804808Y-2948345D01*
G01X7792484Y-2964664D01*
G01X7783369Y-2982969D01*
G01X7777773Y-3002638D01*
G01X7775886Y-3023000D01*
G01X7775886Y-3023000D01*
G01X7743514Y-3023000D01*
G01X7741627Y-3002638D01*
G01X7736031Y-2982969D01*
G01X7726916Y-2964664D01*
G01X7714592Y-2948345D01*
G01X7699480Y-2934569D01*
G01X7682094Y-2923804D01*
G01X7663026Y-2916416D01*
G01X7642925Y-2912659D01*
G01X7622475Y-2912659D01*
G01X7602374Y-2916416D01*
G01X7583306Y-2923804D01*
G01X7565920Y-2934569D01*
G01X7550808Y-2948345D01*
G01X7538484Y-2964664D01*
G01X7529369Y-2982969D01*
G01X7523773Y-3002638D01*
G01X7521886Y-3023000D01*
G01X7521886Y-3023000D01*
G01X7489514Y-3023000D01*
G01X7487626Y-3002630D01*
G01X7482025Y-2982954D01*
G01X7472903Y-2964643D01*
G01X7460571Y-2948321D01*
G01X7445448Y-2934544D01*
G01X7428050Y-2923782D01*
G01X7408971Y-2916401D01*
G01X7388860Y-2912653D01*
G01X7388860Y-2869514D01*
G01X8082505Y-2869514D01*
G01X8126138Y-2913147D01*
G01X8106719Y-2917525D01*
G01X8088397Y-2925306D01*
G01X8071763Y-2936239D01*
G01X8057353Y-2949973D01*
G01X8045633Y-2966062D01*
G01X8036980Y-2983989D01*
G01X8031674Y-3003175D01*
G01X8029886Y-3023000D01*
G01X8029886Y-3073000D01*
G01X8031720Y-3093077D01*
G01X8037161Y-3112490D01*
G01X8046029Y-3130595D01*
G01X8058031Y-3146794D01*
G01X8072769Y-3160551D01*
G01X8089756Y-3171409D01*
G01X8108429Y-3179011D01*
G01X8128170Y-3183103D01*
G01X8148325Y-3183551D01*
G01X8168229Y-3180340D01*
G01X8187221Y-3173576D01*
G01X8204673Y-3163483D01*
G01X8220008Y-3150395D01*
G01X8232718Y-3134745D01*
G01X8235445Y-3144039D01*
G01X8239964Y-3152606D01*
G01X8246095Y-3160105D01*
G01X8309595Y-3223605D01*
G01X8319643Y-3231315D01*
G01X8331344Y-3236161D01*
G01X8343900Y-3237814D01*
G01X9076077Y-3237814D01*
G01X8505514Y-3808377D01*
G01X8505514Y-3785000D01*
G01X8503627Y-3764638D01*
G01X8498031Y-3744969D01*
G01X8488916Y-3726664D01*
G01X8476592Y-3710345D01*
G01X8461480Y-3696569D01*
G01X8444094Y-3685804D01*
G01X8425026Y-3678416D01*
G01X8404925Y-3674659D01*
G01X8384475Y-3674659D01*
G01X8364374Y-3678416D01*
G01X8345306Y-3685804D01*
G01X8327920Y-3696569D01*
G01X8312808Y-3710345D01*
G01X8300484Y-3726664D01*
G01X8291369Y-3744969D01*
G01X8285773Y-3764638D01*
G01X8283886Y-3785000D01*
G01X8283886Y-3835000D01*
G01X8285466Y-3853646D01*
G01X8290161Y-3871760D01*
G01X8297837Y-3888826D01*
G01X8308275Y-3904357D01*
G01X8321177Y-3917910D01*
G01X8336177Y-3929099D01*
G01X8352844Y-3937605D01*
G01X8370706Y-3943185D01*
G01X8311105Y-4002786D01*
G01X7762523Y-4002786D01*
G01X7833242Y-3932067D01*
G01X7852385Y-3940367D01*
G01X7872744Y-3944931D01*
G01X7893598Y-3945599D01*
G01X7914207Y-3942346D01*
G01X7933841Y-3935287D01*
G01X7951804Y-3924672D01*
G01X7967459Y-3910879D01*
G01X7980251Y-3894396D01*
G01X7989727Y-3875807D01*
G01X7995550Y-3855772D01*
G01X7997514Y-3835000D01*
G01X7997514Y-3785000D01*
G01X8029886Y-3785000D01*
G01X8029886Y-3835000D01*
G01X8031773Y-3855362D01*
G01X8037369Y-3875031D01*
G01X8046484Y-3893336D01*
G01X8058808Y-3909655D01*
G01X8073920Y-3923431D01*
G01X8091306Y-3934196D01*
G01X8110374Y-3941584D01*
G01X8130475Y-3945341D01*
G01X8150925Y-3945341D01*
G01X8171026Y-3941584D01*
G01X8190094Y-3934196D01*
G01X8207480Y-3923431D01*
G01X8222592Y-3909655D01*
G01X8234916Y-3893336D01*
G01X8244031Y-3875031D01*
G01X8249627Y-3855362D01*
G01X8251514Y-3835000D01*
G01X8251514Y-3785000D01*
G01X8249962Y-3766521D01*
G01X8245351Y-3748559D01*
G01X8569787Y-3424122D01*
G01X8585252Y-3423026D01*
G01X8600116Y-3418615D01*
G01X8613677Y-3411099D01*
G01X8625294Y-3400831D01*
G01X8634421Y-3388298D01*
G01X8640625Y-3374089D01*
G01X8643615Y-3358876D01*
G01X8643249Y-3343376D01*
G01X8639545Y-3328320D01*
G01X8632677Y-3314420D01*
G01X8622969Y-3302331D01*
G01X8622969Y-3302331D01*
G01X8610880Y-3292623D01*
G01X8596980Y-3285755D01*
G01X8581924Y-3282051D01*
G01X8566424Y-3281685D01*
G01X8551211Y-3284675D01*
G01X8537002Y-3290879D01*
G01X8524469Y-3300006D01*
G01X8514201Y-3311623D01*
G01X8506685Y-3325184D01*
G01X8502274Y-3340048D01*
G01X8501178Y-3355513D01*
G01X8176547Y-3680144D01*
G01X8156096Y-3675261D01*
G01X8135092Y-3674328D01*
G01X8114289Y-3677380D01*
G01X8094437Y-3684305D01*
G01X8076251Y-3694856D01*
G01X8060384Y-3708651D01*
G01X8047409Y-3725196D01*
G01X8037793Y-3743893D01*
G01X8031881Y-3764070D01*
G01X8029886Y-3785000D01*
G01X7997514Y-3785000D01*
G01X7995627Y-3764638D01*
G01X7990031Y-3744969D01*
G01X7980916Y-3726664D01*
G01X7968592Y-3710345D01*
G01X7953480Y-3696569D01*
G01X7936094Y-3685804D01*
G01X7917026Y-3678416D01*
G01X7896925Y-3674659D01*
G01X7876475Y-3674659D01*
G01X7856374Y-3678416D01*
G01X7837306Y-3685804D01*
G01X7819920Y-3696569D01*
G01X7804808Y-3710345D01*
G01X7792484Y-3726664D01*
G01X7783369Y-3744969D01*
G01X7777773Y-3764638D01*
G01X7775886Y-3785000D01*
G01X7775886Y-3835000D01*
G01X7777053Y-3851038D01*
G01X7688805Y-3939286D01*
G01X7670172Y-3939286D01*
G01X7687768Y-3931162D01*
G01X7703680Y-3920097D01*
G01X7717421Y-3906429D01*
G01X7728570Y-3890576D01*
G01X7736786Y-3873023D01*
G01X7741819Y-3854307D01*
G01X7743514Y-3835000D01*
G01X7743514Y-3785000D01*
G01X7741627Y-3764638D01*
G01X7736031Y-3744969D01*
G01X7726916Y-3726664D01*
G01X7714592Y-3710345D01*
G01X7699480Y-3696569D01*
G01X7682094Y-3685804D01*
G01X7663026Y-3678416D01*
G01X7642925Y-3674659D01*
G01X7622475Y-3674659D01*
G01X7602374Y-3678416D01*
G01X7583306Y-3685804D01*
G01X7565920Y-3696569D01*
G01X7550808Y-3710345D01*
G01X7538484Y-3726664D01*
G01X7529369Y-3744969D01*
G01X7523773Y-3764638D01*
G01X7521886Y-3785000D01*
G01X7521886Y-3835000D01*
G01X7523581Y-3854307D01*
G01X7528614Y-3873023D01*
G01X7536830Y-3890576D01*
G01X7547979Y-3906429D01*
G01X7561720Y-3920097D01*
G01X7577632Y-3931162D01*
G01X7595228Y-3939286D01*
G01X7416172Y-3939286D01*
G01X7433768Y-3931162D01*
G01X7449680Y-3920097D01*
G01X7463421Y-3906429D01*
G01X7474570Y-3890576D01*
G01X7482786Y-3873023D01*
G01X7487819Y-3854307D01*
G01X7489514Y-3835000D01*
G01X7489514Y-3785000D01*
G37*
G36*
G01X8482363Y-3140786D02*
G01X8492283Y-3125510D01*
G01X8499566Y-3108815D01*
G01X8504017Y-3091153D01*
G01X8505514Y-3073000D01*
G01X8505514Y-3036923D01*
G01X8609377Y-3140786D01*
G01X8482363Y-3140786D01*
G37*
G54D10*
G01X20647660Y-2567944D02*
G01X20647660Y-1356360D01*
G01X22010704Y-1356360D01*
G01X22010704Y-2567944D01*
G01X20647660Y-2567944D01*
G01X21196046Y-1955800D02*
G03X21907754Y-1955800I355854J0D01*
G03X21196046Y-1955800I-355854J0D01*
G01X7388860Y-4942586D02*
G01X7388860Y-4099814D01*
G01X8331200Y-4099814D01*
G03X8365505Y-4085605I0J48514D01*
G01X9138695Y-3312414D01*
G01X10393241Y-3312414D01*
G03X10388598Y-3316986I47709J-53086D01*
G01X10237749Y-3316986D01*
G03X10203445Y-3331195I0J-48514D01*
G01X9961063Y-3573578D01*
G03X9907880Y-3695369I-2713J-71322D01*
G03X10029672Y-3642187I50469J50469D01*
G01X10139834Y-3532025D01*
G03X10312205Y-3598905I109066J25529D01*
G03X10312101Y-3414014I-63305J92410D01*
G01X10388598Y-3414014D01*
G03X10491802Y-3415582I52351J48514D01*
G03X10488658Y-3312414I-50853J50082D01*
G01X11199849Y-3312414D01*
G03X11290159Y-3324343I52351J48514D01*
G03X11318636Y-3237814I-37959J60443D01*
G01X15327349Y-3237814D01*
G03X15445020Y-3218068I52351J48514D01*
G03X15470200Y-3225114I25180J41468D01*
G01X19380249Y-3225114D01*
G03X19503974Y-3176600I52351J48514D01*
G03X19380249Y-3128086I-71374J0D01*
G01X16558876Y-3128086D01*
G03X16490985Y-3027676I-65178J29088D01*
G01X16483623Y-3020314D01*
G01X17754600Y-3020314D01*
G03X17788905Y-3006105I0J48514D01*
G01X17980487Y-2814522D01*
G03X18033669Y-2692731I2713J71322D01*
G03X17911878Y-2745913I-50469J-50469D01*
G01X17734505Y-2923286D01*
G01X15114551Y-2923286D01*
G03X15023422Y-2911879I-52351J-48514D01*
G03X14996498Y-2999684I38778J-59921D01*
G01X14569637Y-2999684D01*
G03X14574722Y-2970382I-66237J26589D01*
G01X14613905Y-2931200D01*
G03X14628114Y-2896895I-34305J34305D01*
G01X14628114Y-2873047D01*
G03X14597647Y-2751641I-48514J52351D01*
G03X14584759Y-2614112I-94247J60536D01*
G01X14982398Y-2614112D01*
G03X15016703Y-2599903I0J48514D01*
G01X15896941Y-1719665D01*
G03X16033412Y-1650398I50657J69267D01*
G01X16033412Y-1550398D01*
G03X15861784Y-1550398I-85814J0D01*
G01X15861784Y-1617603D01*
G01X14962303Y-2517084D01*
G01X13661598Y-2517084D01*
G03X13644680Y-2520130I0J-48514D01*
G03X13573137Y-2624428I-8481J-70868D01*
G01X12514803Y-1566094D01*
G03X12480498Y-1551884I-34305J-34305D01*
G01X11702712Y-1551884D01*
G01X11702712Y-1550398D01*
G03X11531084Y-1550398I-85814J0D01*
G01X11531084Y-1650398D01*
G03X11702712Y-1650398I85814J0D01*
G01X11702712Y-1648912D01*
G01X12460403Y-1648912D01*
G01X13874477Y-3062986D01*
G01X13090116Y-3062986D01*
G03X13074013Y-2967856I-59916J38786D01*
G03X12977849Y-2975686I-43813J-56344D01*
G01X8859295Y-2975686D01*
G01X8416305Y-2532696D01*
G03X8382000Y-2518486I-34305J-34305D01*
G01X7388860Y-2518486D01*
G01X7388860Y-1728223D01*
G03X7511826Y-1584211I-22847J144013D01*
G03X7388860Y-1440198I-145814J0D01*
G01X7388860Y-1369060D01*
G01X8757737Y-1369060D01*
G03X8826500Y-1506212I68763J-51338D01*
G03X8895263Y-1369060I0J85814D01*
G01X9824537Y-1369060D01*
G03X9847374Y-1492889I68763J-51338D01*
G03X9969092Y-1460642I45926J72490D01*
G03X10021797Y-1481022I49991J50942D01*
G01X10026753Y-1485978D01*
G03X10049700Y-1498839I34305J34305D01*
G03X10032484Y-1550398I68598J-51559D01*
G01X10032484Y-1650398D01*
G03X10204112Y-1650398I85814J0D01*
G01X10204112Y-1550398D01*
G03X10187889Y-1500187I-85814J0D01*
G01X10491062Y-1500187D01*
G03X10614787Y-1451673I52351J48514D01*
G03X10491062Y-1403159I-71374J0D01*
G01X10090157Y-1403159D01*
G03X10077758Y-1369060I-71074J-6540D01*
G01X11323137Y-1369060D01*
G03X11391900Y-1506212I68763J-51338D01*
G03X11460663Y-1369060I0J85814D01*
G01X14117137Y-1369060D01*
G03X14185900Y-1506212I68763J-51338D01*
G03X14254663Y-1369060I0J85814D01*
G01X14849681Y-1369060D01*
G03X14871445Y-1451072I60119J-27940D01*
G03X14956041Y-1444505I38355J54072D01*
G01X15154662Y-1643126D01*
G01X14665463Y-1643126D01*
G03X14551406Y-1689100I-47763J-45974D01*
G03X14665463Y-1735074I66294J0D01*
G01X15167584Y-1735074D01*
G01X15180357Y-1747847D01*
G03X15212866Y-1761313I32509J32509D01*
G01X15326866Y-1761313D01*
G01X15433859Y-1868306D01*
G03X15466368Y-1881772I32509J32509D01*
G01X15528831Y-1881772D01*
G03X15561339Y-1868306I0J45974D01*
G01X15605508Y-1824138D01*
G03X15614494Y-1811423I-32509J32509D01*
G01X15683235Y-1742682D01*
G03X15731377Y-1629523I1265J66282D01*
G03X15618218Y-1677665I-46877J-46877D01*
G01X15583413Y-1712470D01*
G01X15583413Y-1660398D01*
G03X15411785Y-1660398I-85814J0D01*
G01X15411785Y-1716198D01*
G01X15378417Y-1682830D01*
G03X15345909Y-1669365I-32509J-32509D01*
G01X15301562Y-1669365D01*
G03X15285855Y-1615748I-65550J9906D01*
G03X15234747Y-1593177I-49843J-43711D01*
G01X15010630Y-1369060D01*
G01X15653837Y-1369060D01*
G03X15722600Y-1506212I68763J-51338D01*
G03X15791363Y-1369060I0J85814D01*
G01X18282737Y-1369060D01*
G03X18351500Y-1506212I68763J-51338D01*
G03X18420263Y-1369060I0J85814D01*
G01X19794037Y-1369060D01*
G03X19862800Y-1506212I68763J-51338D01*
G03X19931563Y-1369060I0J85814D01*
G01X20944840Y-1369060D01*
G01X20944840Y-16550640D01*
G01X7388860Y-16550640D01*
G01X7388860Y-9442823D01*
G03X7400254Y-9416229I-58547J40823D01*
G03X7472306Y-9393981I18146J69029D01*
G03X7484186Y-9319514I-53906J46781D01*
G01X7660310Y-9319514D01*
G03X7687408Y-9407179I65786J-27686D01*
G03X7778447Y-9395714I38688J59979D01*
G01X9509401Y-9395714D01*
G01X11109173Y-10995487D01*
G03X11208182Y-11063986I71322J-2713D01*
G01X11208182Y-12393649D01*
G03X11208182Y-12498351I48514J-52351D01*
G01X11208182Y-14476449D01*
G03X11256696Y-14600174I48514J-52351D01*
G03X11305210Y-14476449I0J71374D01*
G01X11305210Y-12498351D01*
G03X11305210Y-12393649I-48514J52351D01*
G01X11305210Y-10388600D01*
G03X11291000Y-10354295I-48514J0D01*
G01X11251818Y-10315113D01*
G03X11177783Y-10241078I-71322J2713D01*
G01X10544631Y-9607926D01*
G03X10570364Y-9590214I-26618J66225D01*
G01X14582013Y-9590214D01*
G03X14616318Y-9576005I0J48514D01*
G01X15098918Y-9093405D01*
G03X15113127Y-9059100I-34305J34305D01*
G01X15113127Y-8933652D01*
G01X15113313Y-8933479D01*
G03X15166785Y-8943011I38314J60183D01*
G01X15166785Y-10275401D01*
G01X15123170Y-10319015D01*
G03X15103285Y-10436747I28628J-65381D01*
G01X15103285Y-12289396D01*
G03X15117494Y-12323701I48514J0D01*
G01X15154085Y-12360291D01*
G01X15154085Y-12389445D01*
G03X15154085Y-12494147I48514J-52351D01*
G01X15154085Y-14497645D01*
G03X15202599Y-14621370I48514J-52351D01*
G03X15251113Y-14497645I0J71374D01*
G01X15251113Y-12494147D01*
G03X15251113Y-12389445I-48514J52351D01*
G01X15251113Y-12340196D01*
G03X15236903Y-12305892I-48514J0D01*
G01X15200313Y-12269301D01*
G01X15200313Y-10436747D01*
G03X15219014Y-10360390I-48514J52351D01*
G01X15249603Y-10329801D01*
G03X15263813Y-10295496I-34305J34305D01*
G01X15263813Y-8250796D01*
G03X15249603Y-8216492I-48514J0D01*
G01X15210421Y-8177310D01*
G03X15187613Y-8122245I-71322J2713D01*
G01X15187613Y-7337947D01*
G03X15187613Y-7233245I-48514J52351D01*
G01X15187613Y-5382147D01*
G03X15139099Y-5258422I-48514J52351D01*
G03X15090585Y-5382147I0J-71374D01*
G01X15090585Y-7233245D01*
G03X15090585Y-7337947I48514J-52351D01*
G01X15090585Y-8122245D01*
G03X15073158Y-8201910I48514J-52351D01*
G03X15141812Y-8245919I65941J27314D01*
G01X15166785Y-8270891D01*
G01X15166785Y-8803560D01*
G03X15148882Y-8801977I-15189J-69739D01*
G01X15109700Y-8762795D01*
G03X15075395Y-8748585I-34305J-34305D01*
G01X15049995Y-8748585D01*
G03X15015691Y-8762795I0J-48514D01*
G01X14964891Y-8813595D01*
G03X14950681Y-8847899I34305J-34305D01*
G01X14950681Y-8931694D01*
G03X14859674Y-9003013I-19685J-68606D01*
G01X14691001Y-9171686D01*
G01X13421966Y-9171686D01*
G03X13450798Y-9045547I-14970J69787D01*
G03X13335674Y-9104613I-43802J-56353D01*
G01X13310701Y-9129585D01*
G01X11495899Y-9129585D01*
G03X11431783Y-9021878I-61403J36386D01*
G01X11330610Y-8920705D01*
G01X11330610Y-8884695D01*
G01X12854183Y-7361122D01*
G03X12922837Y-7317114I2713J71322D01*
G03X12905410Y-7237449I-65941J27314D01*
G01X12905410Y-5760495D01*
G01X13158983Y-5506922D01*
G03X13212165Y-5385131I2713J71322D01*
G03X13090373Y-5438313I-50469J-50469D01*
G01X12822591Y-5706095D01*
G03X12808382Y-5740400I34305J-34305D01*
G01X12808382Y-7237449D01*
G03X12785573Y-7292513I48514J-52351D01*
G01X11295488Y-8782598D01*
G03X11203610Y-8748014I-64193J-31202D01*
G01X11203610Y-7188200D01*
G03X11189400Y-7153895I-48514J0D01*
G01X11074018Y-7038513D01*
G03X11051210Y-6983449I-71322J2713D01*
G01X11051210Y-5557295D01*
G01X11177783Y-5430722D01*
G03X11230965Y-5308931I2713J71322D01*
G03X11109173Y-5362113I-50469J-50469D01*
G01X10968391Y-5502895D01*
G03X10954182Y-5537200I34305J-34305D01*
G01X10954182Y-6983449D01*
G03X10936755Y-7063114I48514J-52351D01*
G03X11005409Y-7107122I65941J27314D01*
G01X11106582Y-7208295D01*
G01X11106582Y-8748014D01*
G03X11026545Y-8765286I-27686J-65786D01*
G01X9727391Y-8765286D01*
G01X8928800Y-7966695D01*
G03X8894496Y-7952486I-34305J-34305D01*
G01X7388860Y-7952486D01*
G01X7388860Y-7924245D01*
G01X8228791Y-7084314D01*
G01X8257945Y-7084314D01*
G03X8261782Y-7088151I52351J48514D01*
G01X8261782Y-7239000D01*
G03X8275991Y-7273305I48514J0D01*
G01X9178773Y-8176087D01*
G03X9300565Y-8229269I71322J-2713D01*
G03X9247383Y-8107478I-50469J50469D01*
G01X8358810Y-7218905D01*
G01X8358810Y-7088151D01*
G03X8369688Y-6996216I-48514J52351D01*
G03X8280647Y-6970875I-59392J-39584D01*
G01X9523618Y-5727905D01*
G03X9537827Y-5693600I-34305J34305D01*
G01X9537827Y-3534600D01*
G03X9523618Y-3500296I-48514J0D01*
G01X9433635Y-3410314D01*
G03X9311844Y-3357131I-71322J2713D01*
G03X9365026Y-3478923I50469J-50469D01*
G01X9440799Y-3554696D01*
G01X9440799Y-5673505D01*
G01X8046818Y-7067486D01*
G01X7408064Y-7067486D01*
G03X7392044Y-7054565I-52351J-48514D01*
G01X7479187Y-6967422D01*
G03X7532369Y-6845631I2713J71322D01*
G03X7410578Y-6898813I-50469J-50469D01*
G01X7388860Y-6920531D01*
G01X7388860Y-5039614D01*
G01X7475804Y-5039614D01*
G03X7492723Y-5036568I0J48514D01*
G03X7561640Y-4927730I8481J70868D01*
G03X7433676Y-4942586I-60436J-37970D01*
G01X7388860Y-4942586D01*
G01X8011825Y-1834197D02*
G03X7720198Y-1834197I-145814J0D01*
G03X8011825Y-1834197I145814J0D01*
G01X8261812Y-1584211D02*
G03X7970185Y-1584211I-145814J0D01*
G03X8261812Y-1584211I145814J0D01*
G01X8711900Y-11530723D02*
G03X8765082Y-11408931I2713J71322D01*
G03X8643291Y-11462114I-50469J-50469D01*
G01X8539526Y-11565878D01*
G03X8486344Y-11687670I-2713J-71322D01*
G03X8608135Y-11634487I50469J50469D01*
G01X8711900Y-11530723D01*
G01X8762700Y-13600823D02*
G03X8815882Y-13479031I2713J71322D01*
G03X8694091Y-13532214I-50469J-50469D01*
G01X8564926Y-13661378D01*
G03X8511744Y-13783170I-2713J-71322D01*
G03X8633535Y-13729987I50469J50469D01*
G01X8762700Y-13600823D01*
G01X8515685Y-1660398D02*
G01X8515685Y-1760398D01*
G03X8687313Y-1760398I85814J0D01*
G01X8687313Y-1660398D01*
G03X8515685Y-1660398I-85814J0D01*
G01X8965684Y-1550398D02*
G01X8965684Y-1650398D01*
G03X9137312Y-1650398I85814J0D01*
G01X9137312Y-1550398D01*
G03X8965684Y-1550398I-85814J0D01*
G01X9023782Y-12192000D02*
G03X9037991Y-12226305I48514J0D01*
G01X9216914Y-12405227D01*
G03X9226982Y-12498351I58582J-40773D01*
G01X9226982Y-14476449D01*
G03X9275496Y-14600174I48514J-52351D01*
G03X9324010Y-14476449I0J71374D01*
G01X9324010Y-12498351D01*
G03X9323984Y-12393625I-48514J52351D01*
G03X9309800Y-12360895I-48488J-1575D01*
G01X9120810Y-12171905D01*
G01X9120810Y-11228351D01*
G03X9072296Y-11104626I-48514J52351D01*
G03X9023782Y-11228351I0J-71374D01*
G01X9023782Y-12192000D01*
G01X9499300Y-9917823D02*
G03X9552482Y-9796031I2713J71322D01*
G03X9430691Y-9849214I-50469J-50469D01*
G01X9377726Y-9902178D01*
G03X9324544Y-10023970I-2713J-71322D01*
G03X9446335Y-9970787I50469J50469D01*
G01X9499300Y-9917823D01*
G01X9582485Y-1660398D02*
G01X9582485Y-1760398D01*
G03X9754113Y-1760398I85814J0D01*
G01X9754113Y-1660398D01*
G03X9582485Y-1660398I-85814J0D01*
G01X10211813Y-2822201D02*
G03X10328106Y-2637299I37087J105696D01*
G03X10143204Y-2753592I-79206J-79206D01*
G01X10073813Y-2822982D01*
G03X10020631Y-2944774I-2713J-71322D01*
G03X10142422Y-2891591I50469J50469D01*
G01X10211813Y-2822201D01*
G01X11081085Y-1660398D02*
G01X11081085Y-1760398D01*
G03X11252713Y-1760398I85814J0D01*
G01X11252713Y-1660398D01*
G03X11081085Y-1660398I-85814J0D01*
G01X11252200Y-3394481D02*
G03X11252200Y-3618509I0J-112014D01*
G03X11252200Y-3394481I0J112014D01*
G01X11922073Y-2249831D02*
G03X11800282Y-2303013I-50469J-50469D01*
G01X11435305Y-2667991D01*
G01X11353163Y-2667991D01*
G03X11140186Y-2716505I-100963J-48514D01*
G03X11353163Y-2765019I112014J0D01*
G01X11455400Y-2765019D01*
G03X11489705Y-2750809I0J48514D01*
G01X11868891Y-2371623D01*
G03X11922073Y-2249831I2713J71322D01*
G01X11559082Y-9770631D02*
G03X11437291Y-9823814I-50469J-50469D01*
G01X11308126Y-9952978D01*
G03X11254944Y-10074770I-2713J-71322D01*
G03X11376735Y-10021587I50469J50469D01*
G01X11505900Y-9892423D01*
G03X11559082Y-9770631I2713J71322D01*
G01X12605182Y-12192000D02*
G03X12619391Y-12226305I48514J0D01*
G01X12836373Y-12443287D01*
G03X12859182Y-12498351I71322J-2713D01*
G01X12859182Y-14224000D01*
G03X12873391Y-14258305I48514J0D01*
G01X13141173Y-14526087D01*
G03X13262965Y-14579269I71322J-2713D01*
G03X13209783Y-14457478I-50469J50469D01*
G01X12956210Y-14203905D01*
G01X12956210Y-12498351D01*
G03X12973637Y-12418686I-48514J52351D01*
G03X12904983Y-12374678I-65941J-27314D01*
G01X12702210Y-12171905D01*
G01X12702210Y-11152151D01*
G03X12653696Y-11028426I-48514J52351D01*
G03X12605182Y-11152151I0J-71374D01*
G01X12605182Y-12192000D01*
G01X14496712Y-1650398D02*
G01X14496712Y-1550398D01*
G03X14325084Y-1550398I-85814J0D01*
G01X14325084Y-1630303D01*
G01X13943712Y-2011676D01*
G03X13890529Y-2133467I-2713J-71322D01*
G03X14012321Y-2080285I50469J50469D01*
G01X14367927Y-1724678D01*
G03X14496712Y-1650398I42971J74280D01*
G01X13875085Y-1660398D02*
G01X13875085Y-1760398D01*
G03X14046713Y-1760398I85814J0D01*
G01X14046713Y-1660398D01*
G03X13875085Y-1660398I-85814J0D01*
G01X14503400Y-3593109D02*
G03X14503400Y-3369081I0J112014D01*
G03X14503400Y-3593109I0J-112014D01*
G01X15595300Y-9943223D02*
G03X15648482Y-9821431I2713J71322D01*
G03X15526691Y-9874614I-50469J-50469D01*
G01X15372126Y-10029178D01*
G03X15318944Y-10150970I-2713J-71322D01*
G03X15440735Y-10097787I50469J50469D01*
G01X15595300Y-9943223D01*
G01X15418227Y-12167477D02*
G03X15365045Y-12289269I-2713J-71322D01*
G03X15486836Y-12236086I50469J50469D01*
G01X15535907Y-12187016D01*
G03X15625442Y-12091512I24006J67216D01*
G03X15494532Y-12091172I-65529J-28288D01*
G01X15418227Y-12167477D01*
G01X15481300Y-3394481D02*
G03X15481300Y-3618509I0J-112014D01*
G03X15481300Y-3394481I0J112014D01*
G01X16090569Y-2437436D02*
G03X15968778Y-2490618I-50469J-50469D01*
G01X15791405Y-2667991D01*
G01X15582263Y-2667991D01*
G03X15369286Y-2716505I-100963J-48514D01*
G03X15582263Y-2765019I112014J0D01*
G01X15811500Y-2765019D01*
G03X15845805Y-2750809I0J48514D01*
G01X16037387Y-2559227D01*
G03X16090569Y-2437436I2713J71322D01*
G01X17066882Y-9278148D02*
G03X17066882Y-9382851I48514J-52351D01*
G01X17066882Y-10319548D01*
G03X17066882Y-10424251I48514J-52351D01*
G01X17066882Y-12276899D01*
G03X17081092Y-12311204I48514J0D01*
G01X17117682Y-12347795D01*
G01X17117682Y-12402348D01*
G03X17117682Y-12507051I48514J-52351D01*
G01X17117682Y-14485148D01*
G03X17166196Y-14608873I48514J-52351D01*
G03X17214710Y-14485148I0J71374D01*
G01X17214710Y-12507051D01*
G03X17214710Y-12402348I-48514J52351D01*
G01X17214710Y-12327699D01*
G03X17200501Y-12293395I-48514J0D01*
G01X17163910Y-12256804D01*
G01X17163910Y-10424251D01*
G03X17163910Y-10319548I-48514J52351D01*
G01X17163910Y-9382851D01*
G03X17163910Y-9278148I-48514J52351D01*
G01X17163910Y-7293195D01*
G01X17290483Y-7166622D01*
G03X17343665Y-7044830I2713J71322D01*
G03X17221874Y-7098013I-50469J-50469D01*
G01X17081092Y-7238795D01*
G03X17066882Y-7273099I34305J-34305D01*
G01X17066882Y-9278148D01*
G01X17538400Y-9917823D02*
G03X17591582Y-9796031I2713J71322D01*
G03X17469791Y-9849214I-50469J-50469D01*
G01X17315226Y-10003778D01*
G03X17262044Y-10125570I-2713J-71322D01*
G03X17383835Y-10072387I50469J50469D01*
G01X17538400Y-9917823D01*
G01X19027585Y-8714446D02*
G03X19027585Y-8819148I48514J-52351D01*
G01X19027585Y-9858997D01*
G01X19027604Y-9860362D01*
G03X19091085Y-9968435I61195J-36735D01*
G01X19091085Y-12283146D01*
G03X19091085Y-12387848I48514J-52351D01*
G01X19091085Y-13893570D01*
G03X19048499Y-13988986I23114J-67528D01*
G01X18081908Y-13988986D01*
G01X17548935Y-13456014D01*
G03X17427144Y-13402831I-71322J2713D01*
G03X17480326Y-13524623I50469J-50469D01*
G01X18027508Y-14071805D01*
G03X18061813Y-14086014I34305J34305D01*
G01X19128613Y-14086014D01*
G03X19162918Y-14071805I0J48514D01*
G01X20441874Y-12792849D01*
G03X20495056Y-12671057I2713J71322D01*
G03X20373265Y-12724240I-50469J-50469D01*
G01X19188113Y-13909392D01*
G01X19188113Y-12387848D01*
G03X19188113Y-12283146I-48514J52351D01*
G01X19188113Y-9947897D01*
G03X19173903Y-9913593I-48514J0D01*
G01X19160121Y-9899811D01*
G03X19124613Y-9835359I-71322J2713D01*
G01X19124613Y-8819148D01*
G03X19124613Y-8714446I-48514J52351D01*
G01X19124613Y-7313692D01*
G01X19276585Y-7161720D01*
G03X19329768Y-7039928I2713J71322D01*
G03X19207976Y-7093111I-50469J-50469D01*
G01X19041794Y-7259293D01*
G03X19027585Y-7293597I34305J-34305D01*
G01X19027585Y-8714446D01*
G01X18828691Y-11634487D02*
G03X18950482Y-11687670I71322J-2713D01*
G03X18897300Y-11565878I-50469J50469D01*
G01X18731118Y-11399696D01*
G03X18696813Y-11385486I-34305J-34305D01*
G01X17885564Y-11385486D01*
G03X17761839Y-11434000I-52351J-48514D01*
G03X17885564Y-11482514I71374J0D01*
G01X18676718Y-11482514D01*
G01X18828691Y-11634487D01*
G01X17982312Y-1998976D02*
G03X17929129Y-2120767I-2713J-71322D01*
G03X18050921Y-2067585I50469J50469D01*
G01X18469593Y-1648912D01*
G01X18490684Y-1648912D01*
G01X18490684Y-1650398D01*
G03X18662312Y-1650398I85814J0D01*
G01X18662312Y-1550398D01*
G03X18490684Y-1550398I-85814J0D01*
G01X18490684Y-1551884D01*
G01X18449498Y-1551884D01*
G03X18415194Y-1566094I0J-48514D01*
G01X18211834Y-1769453D01*
G03X18212313Y-1760398I-85335J9055D01*
G01X18212313Y-1660398D01*
G03X18040685Y-1660398I-85814J0D01*
G01X18040685Y-1760398D01*
G03X18135555Y-1845733I85814J0D01*
G01X17982312Y-1998976D01*
G01X18519394Y-2044700D02*
G03X18405337Y-1998726I-66294J0D01*
G01X18272263Y-1998726D01*
G03X18158206Y-2044700I-47763J-45974D01*
G03X18272263Y-2090674I66294J0D01*
G01X18405337Y-2090674D01*
G03X18519394Y-2044700I47763J45974D01*
G01X18601568Y-2914164D02*
G03X18636960Y-2802955I-21468J68069D01*
G03X18696664Y-2600428I-6060J111850D01*
G03X18522700Y-2720086I-65764J-90677D01*
G01X18448222Y-2645609D01*
G03X18326431Y-2592426I-71322J2713D01*
G03X18379613Y-2714218I50469J-50469D01*
G01X18508778Y-2843382D01*
G03X18601568Y-2914164I71322J-2713D01*
G01X18630900Y-3593109D02*
G03X18630900Y-3369081I0J112014D01*
G03X18630900Y-3593109I0J-112014D01*
G01X18724626Y-1466698D02*
G03X18848351Y-1515212I71374J0D01*
G01X19126200Y-1515212D01*
G03X19143119Y-1512166I0J48514D01*
G03X19212036Y-1403327I8481J70868D01*
G03X19084072Y-1418184I-60436J-37970D01*
G01X18848351Y-1418184D01*
G03X18724626Y-1466698I-52351J-48514D01*
G01X19149720Y-2730831D02*
G03X19027928Y-2784013I-50469J-50469D01*
G01X19000364Y-2811578D01*
G03X18947182Y-2933369I-2713J-71322D01*
G03X19068973Y-2880187I50469J50469D01*
G01X19096537Y-2852622D01*
G03X19149720Y-2730831I2713J71322D01*
G01X19877733Y-14037018D02*
G03X19824400Y-13915378I-50620J50318D01*
G01X19810618Y-13901596D01*
G03X19776313Y-13887386I-34305J-34305D01*
G01X19471513Y-13887386D01*
G03X19437208Y-13901596I0J-48514D01*
G01X19220226Y-14118578D01*
G03X19167044Y-14240370I-2713J-71322D01*
G03X19288835Y-14187187I50469J50469D01*
G01X19491608Y-13984414D01*
G01X19755776Y-13984414D01*
G03X19877733Y-14037018I71337J-2286D01*
G01X19342527Y-8027277D02*
G03X19289345Y-8149069I-2713J-71322D01*
G03X19411136Y-8095886I50469J50469D01*
G01X19453508Y-8053514D01*
G01X19558862Y-8053514D01*
G03X19682587Y-8005000I52351J48514D01*
G03X19558862Y-7956486I-71374J0D01*
G01X19433413Y-7956486D01*
G03X19399108Y-7970696I0J-48514D01*
G01X19342527Y-8027277D01*
G01X19596100Y-3369081D02*
G03X19596100Y-3593109I0J-112014D01*
G03X19596100Y-3369081I0J112014D01*
G01X19596100Y-2579091D02*
G03X19596100Y-2803119I0J-112014D01*
G03X19596100Y-2579091I0J112014D01*
G01X19551985Y-1660398D02*
G01X19551985Y-1760398D01*
G03X19723613Y-1760398I85814J0D01*
G01X19723613Y-1660398D01*
G03X19551985Y-1660398I-85814J0D01*
G01X20001984Y-1550398D02*
G01X20001984Y-1650398D01*
G03X20173612Y-1650398I85814J0D01*
G01X20173612Y-1550398D01*
G03X20001984Y-1550398I-85814J0D01*
G01X20566673Y-9099186D02*
G03X20571711Y-9128369I71322J-2713D01*
G03X20588161Y-9152995I66284J26470D01*
G03X20633255Y-9257627I62035J-35297D01*
G03X20721519Y-9185579I16941J69334D01*
G01X20760701Y-9146397D01*
G03X20774910Y-9112093I-34305J34305D01*
G01X20774910Y-9086693D01*
G03X20760701Y-9052388I-48514J0D01*
G01X20721519Y-9013206D01*
G03X20666792Y-8941075I-71322J2713D01*
G03X20585359Y-8980654I-16596J-69418D01*
G01X20316700Y-8711995D01*
G03X20282395Y-8697785I-34305J-34305D01*
G01X20182346Y-8697785D01*
G03X20058621Y-8746299I-52351J-48514D01*
G03X20182346Y-8794813I71374J0D01*
G01X20262300Y-8794813D01*
G01X20566673Y-9099186D01*
G01X20149439Y-8220900D02*
G03X20273164Y-8269414I71374J0D01*
G01X20371662Y-8269414D01*
G03X20495387Y-8220900I52351J48514D01*
G03X20371662Y-8172386I-71374J0D01*
G01X20273164Y-8172386D01*
G03X20149439Y-8220900I-52351J-48514D01*
G01X20469987Y-1810448D02*
G03X20518501Y-1686723I0J71374D01*
G01X20518501Y-1613626D01*
G03X20469987Y-1489900I-48514J52351D01*
G03X20421473Y-1613626I0J-71374D01*
G01X20421473Y-1686723D01*
G03X20469987Y-1810448I48514J-52351D01*
G01X20656067Y-2864967D02*
G03X20602884Y-2743175I-50469J50469D01*
G01X20584414Y-2724705D01*
G01X20584414Y-2543151D01*
G03X20535900Y-2419426I-48514J52351D01*
G03X20487386Y-2543151I0J-71374D01*
G01X20487386Y-2744800D01*
G03X20501595Y-2779105I48514J0D01*
G01X20534275Y-2811785D01*
G03X20656067Y-2864967I71322J-2713D01*
G01X7489514Y-3785000D02*
G03X7388860Y-3674653I-110814J0D01*
G01X7388860Y-3183347D01*
G03X7489514Y-3073000I-10160J110347D01*
G01X7489514Y-3023000D01*
G03X7388860Y-2912653I-110814J0D01*
G01X7388860Y-2869514D01*
G01X8082505Y-2869514D01*
G01X8126138Y-2913147D01*
G03X8029886Y-3023000I14562J-109853D01*
G01X8029886Y-3073000D01*
G03X8232718Y-3134745I110814J0D01*
G03X8246095Y-3160105I47682J8945D01*
G01X8309595Y-3223605D01*
G03X8343900Y-3237814I34305J34305D01*
G01X9076077Y-3237814D01*
G01X8505514Y-3808377D01*
G01X8505514Y-3785000D01*
G03X8283886Y-3785000I-110814J0D01*
G01X8283886Y-3835000D01*
G03X8370706Y-3943185I110814J0D01*
G01X8311105Y-4002786D01*
G01X7762523Y-4002786D01*
G01X7833242Y-3932067D01*
G03X7997514Y-3835000I53458J97067D01*
G01X7997514Y-3785000D01*
G03X7775886Y-3785000I-110814J0D01*
G01X7775886Y-3835000D01*
G03X7777053Y-3851038I110814J0D01*
G01X7688805Y-3939286D01*
G01X7670172Y-3939286D01*
G03X7743514Y-3835000I-37472J104286D01*
G01X7743514Y-3785000D01*
G03X7521886Y-3785000I-110814J0D01*
G01X7521886Y-3835000D01*
G03X7595228Y-3939286I110814J0D01*
G01X7416172Y-3939286D01*
G03X7489514Y-3835000I-37472J104286D01*
G01X7489514Y-3785000D01*
G01X7521886Y-3023000D02*
G01X7521886Y-3073000D01*
G03X7743514Y-3073000I110814J0D01*
G01X7743514Y-3023000D01*
G03X7521886Y-3023000I-110814J0D01*
G01X7775886Y-3023000D02*
G01X7775886Y-3073000D01*
G03X7997514Y-3073000I110814J0D01*
G01X7997514Y-3023000D01*
G03X7775886Y-3023000I-110814J0D01*
G01X8622969Y-3302331D02*
G03X8501178Y-3355513I-50469J-50469D01*
G01X8176547Y-3680144D01*
G03X8029886Y-3785000I-35847J-104856D01*
G01X8029886Y-3835000D01*
G03X8251514Y-3835000I110814J0D01*
G01X8251514Y-3785000D01*
G03X8245351Y-3748559I-110814J0D01*
G01X8569787Y-3424122D01*
G03X8622969Y-3302331I2713J71322D01*
G01X8482363Y-3140786D02*
G03X8505514Y-3073000I-87663J67786D01*
G01X8505514Y-3036923D01*
G01X8609377Y-3140786D01*
G01X8482363Y-3140786D01*
G54D11*
G01X8319954Y-3810000D02*
G01X8294046Y-3810000D01*
G01X8394700Y-3710254D02*
G01X8394700Y-3684346D01*
G01X7557954Y-3810000D02*
G01X7532046Y-3810000D01*
G01X7707446Y-3810000D02*
G01X7733354Y-3810000D01*
G01X7632700Y-3710254D02*
G01X7632700Y-3684346D01*
G01X8065954Y-3048000D02*
G01X8040046Y-3048000D01*
G01X8140700Y-3147746D02*
G01X8140700Y-3173654D01*
G01X8469446Y-3048000D02*
G01X8495354Y-3048000D01*
G01X7811954Y-3048000D02*
G01X7786046Y-3048000D01*
G01X7961446Y-3048000D02*
G01X7987354Y-3048000D01*
G01X7886700Y-2948254D02*
G01X7886700Y-2922346D01*
G01X7886700Y-3147746D02*
G01X7886700Y-3173654D01*
G01X7975757Y-1834197D02*
G01X8001665Y-1834197D01*
G01X7756266Y-1834197D02*
G01X7730358Y-1834197D01*
G01X7866012Y-1943943D02*
G01X7866012Y-1969851D01*
G01X7866012Y-1724452D02*
G01X7866012Y-1698544D01*
G01X9618553Y-1710398D02*
G01X9592645Y-1710398D01*
G01X9718045Y-1710398D02*
G01X9743953Y-1710398D01*
G01X9668299Y-1610652D02*
G01X9668299Y-1584744D01*
G01X9668299Y-1810144D02*
G01X9668299Y-1836052D01*
G01X8551753Y-1710398D02*
G01X8525845Y-1710398D01*
G01X8651245Y-1710398D02*
G01X8677153Y-1710398D01*
G01X8601499Y-1610652D02*
G01X8601499Y-1584744D01*
G01X8601499Y-1810144D02*
G01X8601499Y-1836052D01*
G01X11117153Y-1710398D02*
G01X11091245Y-1710398D01*
G01X11216645Y-1710398D02*
G01X11242553Y-1710398D01*
G01X11166899Y-1610652D02*
G01X11166899Y-1584744D01*
G01X11166899Y-1810144D02*
G01X11166899Y-1836052D01*
G01X15447853Y-1710398D02*
G01X15421945Y-1710398D01*
G01X15547345Y-1710398D02*
G01X15573253Y-1710398D01*
G01X15497599Y-1610652D02*
G01X15497599Y-1584744D01*
G01X18076753Y-1710398D02*
G01X18050845Y-1710398D01*
G01X18176245Y-1710398D02*
G01X18202153Y-1710398D01*
G01X18126499Y-1610652D02*
G01X18126499Y-1584744D01*
G01X18126499Y-1810144D02*
G01X18126499Y-1836052D01*
G01X13911153Y-1710398D02*
G01X13885245Y-1710398D01*
G01X14010645Y-1710398D02*
G01X14036553Y-1710398D01*
G01X13960899Y-1610652D02*
G01X13960899Y-1584744D01*
G01X13960899Y-1810144D02*
G01X13960899Y-1836052D01*
G01X19588053Y-1710398D02*
G01X19562145Y-1710398D01*
G01X19687545Y-1710398D02*
G01X19713453Y-1710398D01*
G01X19637799Y-1610652D02*
G01X19637799Y-1584744D01*
G01X19637799Y-1810144D02*
G01X19637799Y-1836052D01*
G01X7557954Y-3048000D02*
G01X7532046Y-3048000D01*
G01X7707446Y-3048000D02*
G01X7733354Y-3048000D01*
G01X7632700Y-2948254D02*
G01X7632700Y-2922346D01*
G01X7632700Y-3147746D02*
G01X7632700Y-3173654D01*
G01X7453446Y-3048000D02*
G01X7479354Y-3048000D01*
G04 Copper End*

G04 Rect Start*
G36*
G01X11493500Y-1435100D02*
G01X11493500Y-393700D01*
G01X14033500Y-393700D01*
G01X14033500Y-1435100D01*
G01X11493500Y-1435100D01*
G37*
G36*
G01X15824200Y-1397000D02*
G01X15824200Y-393700D01*
G01X18224500Y-393700D01*
G01X18224500Y-1397000D01*
G01X15824200Y-1397000D01*
G37*
G36*
G01X19951700Y-1473200D02*
G01X19951700Y-393700D01*
G01X22021800Y-393700D01*
G01X22021800Y-1473200D01*
G01X19951700Y-1473200D01*
G37*
G36*
G01X18404374Y-1323409D02*
G01X18404374Y-800100D01*
G01X19951700Y-800100D01*
G01X19951700Y-1323409D01*
G01X18404374Y-1323409D01*
G37*
G36*
G01X14262100Y-1346200D02*
G01X14262100Y-1130300D01*
G01X15824200Y-1130300D01*
G01X15824200Y-1346200D01*
G01X14262100Y-1346200D01*
G37*
G36*
G01X9817100Y-1346200D02*
G01X9817100Y-786748D01*
G01X11498301Y-786748D01*
G01X11498301Y-1346200D01*
G01X9817100Y-1346200D01*
G37*
G36*
G01X18081245Y-1337500D02*
G01X18081245Y-812800D01*
G01X18491200Y-812800D01*
G01X18491200Y-1337500D01*
G01X18081245Y-1337500D01*
G37*
G36*
G01X13890245Y-1324800D02*
G01X13890245Y-787400D01*
G01X16040100Y-787400D01*
G01X16040100Y-1324800D01*
G01X13890245Y-1324800D01*
G37*
G36*
G01X9156700Y-1828800D02*
G01X9156700Y-393700D01*
G01X9817100Y-393700D01*
G01X9817100Y-1828800D01*
G01X9156700Y-1828800D01*
G37*
G36*
G01X4457700Y-1384300D02*
G01X4457700Y-736600D01*
G01X8331200Y-736600D01*
G01X8331200Y-1384300D01*
G01X4457700Y-1384300D01*
G37*
G36*
G01X419100Y-1612900D02*
G01X419100Y-393700D01*
G01X2037457Y-393700D01*
G01X2037457Y-1612900D01*
G01X419100Y-1612900D01*
G37*
G36*
G01X2017022Y-1168400D02*
G01X2017022Y-393700D01*
G01X3606800Y-393700D01*
G01X3606800Y-1168400D01*
G01X2017022Y-1168400D01*
G37*
G36*
G01X20916900Y-16078200D02*
G01X20916900Y-2438400D01*
G01X22009100Y-2438400D01*
G01X22009100Y-16078200D01*
G01X20916900Y-16078200D01*
G37*
G04 Rect End*

G04 Pad Start*
G54D12*
G01X1035088Y-1757782D03*
G01X1035114Y-1137818D03*
G54D13*
G01X565087Y-1457808D03*
G54D14*
G01X9668299Y-1710398D03*
G01X10118298Y-880400D03*
G01X10118298Y-1190399D03*
G01X10118298Y-1600398D03*
G54D16*
G01X2141499Y-1071905D03*
G01X2141499Y-1271905D03*
G01X2811501Y-1071905D03*
G01X2811501Y-1271905D03*
G01X2376500Y-1391895D03*
G01X2576500Y-1391895D03*
G54D17*
G01X3111500Y-1551000D03*
G01X3111500Y-481000D03*
G54D16*
G01X10248900Y-3506495D03*
G01X10248900Y-2716505D03*
G01X15481300Y-2716505D03*
G01X15481300Y-3506495D03*
G01X11252200Y-2716505D03*
G01X11252200Y-3506495D03*
G01X14503400Y-3481095D03*
G01X14503400Y-2691105D03*
G01X18630900Y-3481095D03*
G01X18630900Y-2691105D03*
G01X19596100Y-2691105D03*
G01X19596100Y-3481095D03*
G54D14*
G01X11166899Y-1710398D03*
G01X11616898Y-880400D03*
G01X11616898Y-1190399D03*
G01X11616898Y-1600398D03*
G01X13960899Y-1710398D03*
G01X14410898Y-880400D03*
G01X14410898Y-1190399D03*
G01X14410898Y-1600398D03*
G01X15497599Y-1710398D03*
G01X15947598Y-880400D03*
G01X15947598Y-1190399D03*
G01X15947598Y-1600398D03*
G01X18126499Y-1710398D03*
G01X18576498Y-880400D03*
G01X18576498Y-1190399D03*
G01X18576498Y-1600398D03*
G01X19637799Y-1710398D03*
G01X20087798Y-880400D03*
G01X20087798Y-1190399D03*
G01X20087798Y-1600398D03*
G54D18*
G01X6870700Y-3810000D03*
G54D19*
G01X7124700Y-3810000D03*
G01X7378700Y-3810000D03*
G01X7632700Y-3810000D03*
G01X7886700Y-3810000D03*
G01X8140700Y-3810000D03*
G01X8394700Y-3810000D03*
G01X6870700Y-3048000D03*
G01X7124700Y-3048000D03*
G01X7378700Y-3048000D03*
G01X7632700Y-3048000D03*
G01X7886700Y-3048000D03*
G01X8140700Y-3048000D03*
G01X8394700Y-3048000D03*
G54D20*
G01X5397500Y-3098800D03*
G54D21*
G01X5397500Y-3352800D03*
G01X5397500Y-3606800D03*
G01X5397500Y-3860800D03*
G01X6159500Y-3098800D03*
G01X6159500Y-3352800D03*
G01X6159500Y-3606800D03*
G01X6159500Y-3860800D03*
G54D22*
G01X939800Y-5283200D03*
G01X1193800Y-5283200D03*
G01X1447800Y-5283200D03*
G01X1701800Y-5283200D03*
G01X3987800Y-4775200D03*
G01X1193800Y-3759200D03*
G01X1955800Y-5283200D03*
G01X2209800Y-5283200D03*
G01X2463800Y-5283200D03*
G01X2717800Y-5283200D03*
G01X2971800Y-5283200D03*
G01X3225800Y-5283200D03*
G01X3479800Y-5283200D03*
G01X3733800Y-5283200D03*
G01X3987800Y-5283200D03*
G01X3987800Y-3759200D03*
G01X3733800Y-3759200D03*
G01X3479800Y-3759200D03*
G01X3225800Y-3759200D03*
G01X2971800Y-3759200D03*
G01X2717800Y-3759200D03*
G01X2463800Y-3759200D03*
G01X2209800Y-3759200D03*
G01X1955800Y-3759200D03*
G01X1701800Y-3759200D03*
G01X1447800Y-3759200D03*
G01X685800Y-5283200D03*
G01X3987800Y-4521200D03*
G01X939800Y-3759200D03*
G01X3987800Y-4013200D03*
G01X3987800Y-4267200D03*
G01X3987800Y-5029200D03*
G01X685800Y-3759200D03*
G54D23*
G01X2870200Y-6489700D03*
G01X3124200Y-6489700D03*
G01X3378200Y-6489700D03*
G01X3632200Y-6489700D03*
G54D24*
G01X1464991Y-10356101D03*
G01X2344999Y-10356101D03*
G54D21*
G01X2155007Y-11056099D03*
G01X1904995Y-11056099D03*
G01X1655008Y-11056099D03*
G54D24*
G01X1452291Y-12134101D03*
G01X2332299Y-12134101D03*
G54D21*
G01X2142307Y-12834099D03*
G01X1892295Y-12834099D03*
G01X1642308Y-12834099D03*
G54D24*
G01X1503091Y-13874001D03*
G01X2383099Y-13874001D03*
G54D21*
G01X2193107Y-14573999D03*
G01X1943095Y-14573999D03*
G01X1693108Y-14573999D03*
G54D14*
G01X8601499Y-1710398D03*
G01X9051498Y-880400D03*
G01X9051498Y-1190399D03*
G01X9051498Y-1600398D03*
G01X3483399Y-1710398D03*
G01X3933398Y-880400D03*
G01X3933398Y-1190399D03*
G01X3933398Y-1600398D03*
G54D25*
G01X8115999Y-1584211D03*
G01X7866012Y-1834197D03*
G01X7366013Y-1584211D03*
G01X6866014Y-1834197D03*
G01X6616002Y-1584211D03*
G01X7866012Y-604202D03*
G01X6866014Y-604202D03*
G01X5906199Y-1584211D03*
G01X5656212Y-1834197D03*
G01X5156213Y-1584211D03*
G01X4656214Y-1834197D03*
G01X4406202Y-1584211D03*
G01X5656212Y-604202D03*
G01X4656214Y-604202D03*
G54D16*
G01X5017795Y-2984500D03*
G01X4227805Y-2984500D03*
G04 Pad End*

G04 Via Start*
G54D26*
G01X9502013Y-9846500D03*
G01X9375013Y-9973500D03*
G01X19827113Y-13986700D03*
G01X19217513Y-14189900D03*
G01X19611213Y-8005000D03*
G01X19339814Y-8098599D03*
G01X17541113Y-9846500D03*
G01X17312513Y-10075100D03*
G01X8536813Y-11637200D03*
G01X8714613Y-11459400D03*
G01X17833213Y-11434000D03*
G01X18900013Y-11637200D03*
G01X10530713Y-9529000D03*
G01X15064613Y-8881300D03*
G01X20220813Y-8220900D03*
G01X20424013Y-8220900D03*
G01X8562213Y-13732700D03*
G01X8765413Y-13529500D03*
G01X17477613Y-13453300D03*
G01X20444587Y-12721526D03*
G01X15559913Y-12119800D03*
G01X15415514Y-12238799D03*
G01X15598013Y-9871900D03*
G01X15369413Y-10100500D03*
G01X11508613Y-9821100D03*
G01X11305413Y-10024300D03*
G01X4241800Y-2198700D03*
G01X4851400Y-4521200D03*
G01X10543413Y-1451673D03*
G01X10019084Y-1409700D03*
G01X10225913Y-707199D03*
G01X10683113Y-735948D03*
G01X6949313Y-12069000D03*
G01X7330313Y-9402000D03*
G01X7355713Y-7116000D03*
G01X9362313Y-3407600D03*
G01X18796000Y-1466698D03*
G01X19151600Y-1441298D03*
G01X6657213Y-12869100D03*
G01X7177786Y-12996100D03*
G01X4533900Y-2489200D03*
G01X4300614Y-1275397D03*
G01X18580100Y-2846095D03*
G01X18376900Y-2642895D03*
G01X18997651Y-2882900D03*
G01X19099251Y-2781300D03*
G01X20535900Y-2490800D03*
G01X20605598Y-2814498D03*
G01X13940998Y-2082998D03*
G01X13636198Y-2590998D03*
G01X16493698Y-3098998D03*
G01X17979598Y-2070298D03*
G01X10071100Y-2894305D03*
G01X16040100Y-2487905D03*
G01X11871604Y-2300300D03*
G01X14503400Y-2973095D03*
G01X14579600Y-2820695D03*
G01X14224000Y-2970505D03*
G01X10440949Y-3365500D03*
G01X9958349Y-3644900D03*
G01X7113600Y-4927600D03*
G01X6529400Y-4826000D03*
G01X6326200Y-4800600D03*
G01X7481900Y-6896100D03*
G01X7227900Y-7277100D03*
G01X7418400Y-9347200D03*
G01X6605600Y-9220200D03*
G01X7266000Y-9525000D03*
G01X5619902Y-10693400D03*
G01X5391302Y-10922000D03*
G01X5066602Y-12949999D03*
G01X5320602Y-13203999D03*
G01X1661401Y-12199099D03*
G01X4929200Y-5588000D03*
G01X6972300Y-2946400D03*
G01X6692900Y-3886200D03*
G01X7073900Y-5969000D03*
G01X7099300Y-6400800D03*
G01X20650196Y-9010493D03*
G01X20650196Y-9188293D03*
G01X20469987Y-1561274D03*
G01X20469987Y-1739074D03*
G01X5367604Y-6083300D03*
G01X7501204Y-4965700D03*
G01X5367604Y-5956300D03*
G01X7171004Y-6565900D03*
G01X6713804Y-8089900D03*
G01X7298004Y-8674100D03*
G01X8339404Y-8928100D03*
G01X5672404Y-7581900D03*
G01X5596204Y-7962900D03*
G01X6713804Y-8928100D03*
G01X6942404Y-9105900D03*
G01X6713804Y-12433300D03*
G01X7310704Y-13309600D03*
G01X5139004Y-12103100D03*
G01X5901004Y-14795500D03*
G01X5017199Y-5533199D03*
G01X5028209Y-5283200D03*
G01X4750499Y-6803199D03*
G01X5715699Y-6320599D03*
G01X5169599Y-13953299D03*
G01X5986196Y-5897702D03*
G01X6236399Y-13305599D03*
G01X6464999Y-5863399D03*
G01X6287199Y-11527599D03*
G01X6312599Y-5837999D03*
G01X6896799Y-8784399D03*
G01X6337999Y-5964999D03*
G01X4368800Y-2679700D03*
G01X8737600Y-3035300D03*
G01X5613400Y-3430600D03*
G01X6197600Y-3481400D03*
G01X3467100Y-2770200D03*
G01X13030200Y-3024200D03*
G01X3708400Y-2719400D03*
G01X15379700Y-3189300D03*
G01X2870200Y-3276600D03*
G01X6299200Y-3632200D03*
G01X3898900Y-2654300D03*
G01X19432600Y-3176600D03*
G01X6007095Y-6217399D03*
G01X6007095Y-6331699D03*
G01X11671300Y-2805100D03*
G01X11671300Y-2957500D03*
G01X6394298Y-4387698D03*
G01X6241898Y-4527398D03*
G01X14677598Y-695099D03*
G01X15617398Y-733199D03*
G01X6713804Y-6379108D03*
G01X6917004Y-6607708D03*
G01X7780604Y-5794908D03*
G01X5189804Y-6718300D03*
G01X5189804Y-7048500D03*
G01X5151704Y-7962900D03*
G01X18456699Y-1430998D03*
G01X18685299Y-1380198D03*
G01X20341798Y-1527099D03*
G01X9406204Y-5667908D03*
G01X11690502Y-5753100D03*
G01X11512702Y-7518400D03*
G01X17557902Y-7835900D03*
G01X17456302Y-9537700D03*
G01X19005702Y-9588500D03*
G01X13595502Y-10007600D03*
G01X13493902Y-11684000D03*
G01X17430902Y-11849100D03*
G01X19069202Y-11709400D03*
G01X11817502Y-11836400D03*
G01X9696602Y-10007600D03*
G01X9569602Y-11836400D03*
G01X8274202Y-11785600D03*
G01X7766202Y-13944600D03*
G01X9658502Y-14135100D03*
G01X9648075Y-15826473D03*
G01X11893702Y-14109700D03*
G01X11603875Y-15826473D03*
G01X7768475Y-16055073D03*
G01X13483475Y-16029673D03*
G01X15464675Y-16004273D03*
G01X17486244Y-16055073D03*
G01X19403944Y-15875004D03*
G01X19501002Y-14008104D03*
G01X2243907Y-12884899D03*
G01X6667500Y-4368800D03*
G01X5994395Y-6077699D03*
G01X8572500Y-3352800D03*
G01X1905000Y-4533900D03*
G01X3962400Y-3492500D03*
G01X5637200Y-3606800D03*
G01X1981200Y-4622800D03*
G01X3873500Y-4965700D03*
G01X4982896Y-7137400D03*
G01X5080000Y-6235700D03*
G01X5080000Y-6362700D03*
G01X5486400Y-6324600D03*
G01X5435600Y-6426200D03*
G01X5486400Y-7899400D03*
G01X5461000Y-7569200D03*
G01X4978400Y-7645400D03*
G01X5080000Y-7645400D03*
G01X6481496Y-7924800D03*
G01X8310296Y-7035800D03*
G01X9250096Y-8178800D03*
G01X9072296Y-11176000D03*
G01X9275496Y-12446000D03*
G01X9275496Y-14528800D03*
G01X6710096Y-8483600D03*
G01X11028096Y-9093200D03*
G01X11002696Y-7035800D03*
G01X11180496Y-5359400D03*
G01X10621696Y-9347200D03*
G01X11116996Y-10375900D03*
G01X11256696Y-12446000D03*
G01X11256696Y-14528800D03*
G01X6405296Y-8331200D03*
G01X11078896Y-8813800D03*
G01X11231296Y-8813800D03*
G01X11434496Y-9093200D03*
G01X7446696Y-8915400D03*
G01X7726096Y-9347200D03*
G01X11180496Y-10998200D03*
G01X12856896Y-7289800D03*
G01X13161696Y-5435600D03*
G01X12653696Y-11099800D03*
G01X12907696Y-12446000D03*
G01X13212496Y-14528800D03*
G01X6710096Y-8788400D03*
G01X9461995Y-9101899D03*
G01X15139099Y-8174596D03*
G01X15139099Y-7285596D03*
G01X15139099Y-5329796D03*
G01X15151799Y-10384396D03*
G01X15202599Y-12441796D03*
G01X15202599Y-14549996D03*
G01X6710096Y-9017000D03*
G01X13406996Y-9101899D03*
G01X17115396Y-9330499D03*
G01X17115396Y-10371899D03*
G01X17293196Y-7095299D03*
G01X17166196Y-12454699D03*
G01X17166196Y-14537499D03*
G01X6710096Y-9118600D03*
G01X14930996Y-9000299D03*
G01X19076099Y-8766797D03*
G01X19279299Y-7090397D03*
G01X19088799Y-9897097D03*
G01X19139599Y-12335497D03*
G01X19114199Y-13961097D03*
G01X6456096Y-9093200D03*
G01X15151595Y-8873299D03*
G01X20129995Y-8746299D03*
G01X20637995Y-9101899D03*
G01X15062200Y-2971800D03*
G01X17983200Y-2743200D03*
G01X11252200Y-3263900D03*
G01X4889500Y-3924300D03*
G54D27*
G01X15236012Y-1659459D03*
G01X14909800Y-1397000D03*
G01X18453100Y-2044700D03*
G01X18224500Y-2044700D03*
G01X15684500Y-1676400D03*
G01X14617700Y-1689100D03*
G01X6769100Y-13157200D03*
G01X6698300Y-1181100D03*
G01X5990196Y-1181100D03*
G01X15690841Y-13843162D03*
G01X13672579Y-7619124D03*
G01X13589000Y-5753100D03*
G01X15544800Y-5803900D03*
G01X17564100Y-5702300D03*
G01X19297134Y-7632032D03*
G01X19519900Y-5753100D03*
G04 Via End*

G04 Track Start*
G54D28*
G01X565087Y-1457808D02*
G01X885076Y-1137818D01*
G01X1035114Y-1137818D01*
G01X2075586Y-1137818D01*
G01X2141499Y-1071905D01*
G01X2811501Y-1071905D01*
G01X2811501Y-780999D01*
G01X3111500Y-481000D01*
G01X3820899Y-1190399D02*
G01X3933398Y-1190399D01*
G01X3483399Y-1710398D02*
G01X3483399Y-861609D01*
G01X3487754Y-857254D01*
G01X3111500Y-481000D02*
G01X3487754Y-857254D01*
G01X3820899Y-1190399D01*
G01X5502501Y-1190399D02*
G01X3933398Y-1190399D01*
G01X5511800Y-1181100D02*
G01X5502501Y-1190399D01*
G01X7239000Y-1168400D02*
G01X9029499Y-1168400D01*
G01X9051498Y-1190399D01*
G01X7212914Y-1181100D02*
G01X7866012Y-1834197D01*
G01X8601499Y-1640398D02*
G01X8601499Y-1710398D01*
G01X9051498Y-1190399D02*
G01X8923490Y-1318407D01*
G01X8923490Y-1460573D01*
G01X8866674Y-1517388D01*
G01X8724509Y-1517388D01*
G01X8601499Y-1640398D01*
G01X9051498Y-1190399D02*
G01X9571497Y-1710398D01*
G01X9668299Y-1710398D01*
G01X9051498Y-1190399D02*
G01X10118298Y-1190399D01*
G01X10118298Y-880400D01*
G01X10898943Y-1190399D02*
G01X11166899Y-1458355D01*
G01X11166899Y-1710398D01*
G01X10118298Y-1190399D02*
G01X10898943Y-1190399D01*
G01X11616898Y-1190399D01*
G01X11616898Y-880400D01*
G01X13848971Y-1190399D02*
G01X13848971Y-1585770D01*
G01X13973599Y-1710398D01*
G01X11616898Y-1190399D02*
G01X13848971Y-1190399D01*
G01X14423598Y-1190399D01*
G01X14423598Y-880400D01*
G01X15947598Y-1190399D02*
G01X15947598Y-880400D01*
G01X15296771Y-1190399D02*
G01X15497599Y-1391227D01*
G01X15497599Y-1710398D01*
G01X17974657Y-1190399D02*
G01X18126499Y-1342241D01*
G01X18126499Y-1710398D01*
G01X15947598Y-1190399D02*
G01X17974657Y-1190399D01*
G01X18576498Y-1190399D01*
G01X18576498Y-880400D01*
G01X20087798Y-1190399D02*
G01X20087798Y-880400D01*
G01X19637799Y-1456541D02*
G01X19637799Y-1710398D01*
G01X18576498Y-1190399D02*
G01X19371657Y-1190399D01*
G01X20087798Y-1190399D01*
G54D11*
G01X9502013Y-9846500D02*
G01X9375013Y-9973500D01*
G01X19827113Y-13986700D02*
G01X19776313Y-13935900D01*
G01X19471513Y-13935900D01*
G01X19217513Y-14189900D01*
G01X19611213Y-8005000D02*
G01X19433413Y-8005000D01*
G01X19339814Y-8098599D01*
G01X17541113Y-9846500D02*
G01X17312513Y-10075100D01*
G01X8536813Y-11637200D02*
G01X8714613Y-11459400D01*
G01X17833213Y-11434000D02*
G01X18696813Y-11434000D01*
G01X18900013Y-11637200D01*
G01X15064613Y-9059100D02*
G01X15064613Y-8881300D01*
G01X20220813Y-8220900D02*
G01X20424013Y-8220900D01*
G01X8562213Y-13732700D02*
G01X8765413Y-13529500D01*
G01X17477613Y-13453300D02*
G01X18061813Y-14037500D01*
G01X19128613Y-14037500D01*
G01X20444587Y-12721526D01*
G01X15559913Y-12119800D02*
G01X15534513Y-12119800D01*
G01X15415514Y-12238799D01*
G01X15598013Y-9871900D02*
G01X15369413Y-10100500D01*
G01X11508613Y-9821100D02*
G01X11305413Y-10024300D01*
G01X5397500Y-3606800D02*
G01X4775200Y-2984500D01*
G01X4227805Y-2984500D01*
G01X4241800Y-2198700D02*
G01X4241800Y-1817700D01*
G01X4394200Y-1665300D01*
G01X4394200Y-1596212D01*
G01X4406202Y-1584211D01*
G01X4394200Y-1596212D02*
G01X3937584Y-1596212D01*
G01X3933398Y-1600398D01*
G01X3987800Y-4521200D02*
G01X4851400Y-4521200D01*
G01X6949313Y-12069000D02*
G01X7330313Y-11688000D01*
G01X7330313Y-9402000D01*
G01X7355713Y-7116000D02*
G01X8066913Y-7116000D01*
G01X9489313Y-5693600D01*
G01X9489313Y-3534600D01*
G01X9362313Y-3407600D01*
G01X18796000Y-1466698D02*
G01X19126200Y-1466698D01*
G01X19151600Y-1441298D01*
G01X6657213Y-12869100D02*
G01X7050786Y-12869100D01*
G01X7177786Y-12996100D01*
G01X5397500Y-3352800D02*
G01X5386095Y-3352800D01*
G01X5017795Y-2984500D01*
G01X4533900Y-2489200D02*
G01X4533900Y-1956511D01*
G01X4656214Y-1834197D01*
G01X4656214Y-1630997D01*
G01X4300614Y-1275397D01*
G01X18580100Y-2846095D02*
G01X18376900Y-2642895D01*
G01X18997651Y-2882900D02*
G01X19099251Y-2781300D01*
G01X20535900Y-2490800D02*
G01X20535900Y-2744800D01*
G01X20605598Y-2814498D01*
G01X14423598Y-1600398D02*
G01X13940998Y-2082998D01*
G01X15947598Y-1600398D02*
G01X14982398Y-2565598D01*
G01X13661598Y-2565598D01*
G01X13636198Y-2590998D01*
G01X11616898Y-1600398D02*
G01X12480498Y-1600398D01*
G01X13928298Y-3048198D01*
G01X16442898Y-3048198D01*
G01X16493698Y-3098998D01*
G01X10248900Y-2716505D02*
G01X10071100Y-2894305D01*
G01X15481300Y-2716505D02*
G01X15811500Y-2716505D01*
G01X16040100Y-2487905D01*
G01X11252200Y-2716505D02*
G01X11455400Y-2716505D01*
G01X11871604Y-2300300D01*
G01X14503400Y-2973095D02*
G01X14579600Y-2896895D01*
G01X14579600Y-2820695D01*
G01X14503400Y-2691105D02*
G01X14224000Y-2970505D01*
G01X10440949Y-3365500D02*
G01X10237749Y-3365500D01*
G01X9958349Y-3644900D01*
G01X6351600Y-4775200D02*
G01X6326200Y-4800600D01*
G01X7481900Y-6896100D02*
G01X7227900Y-7150100D01*
G01X7227900Y-7277100D01*
G01X7418400Y-9347200D02*
G01X7393000Y-9321800D01*
G01X6707200Y-9321800D02*
G01X6605600Y-9220200D01*
G01X7266000Y-9321800D02*
G01X7266000Y-9525000D01*
G01X5619902Y-10693400D02*
G01X5391302Y-10922000D01*
G01X5066602Y-12949999D02*
G01X5320602Y-13203999D01*
G01X1661401Y-12199099D02*
G01X1661401Y-11062492D01*
G01X1655008Y-11056099D01*
G01X6159500Y-3352800D02*
G01X6565900Y-3352800D01*
G01X6870700Y-3048000D01*
G01X6972300Y-2946400D01*
G01X6159500Y-3352800D02*
G01X6692900Y-3886200D01*
G01X7073900Y-5969000D02*
G01X7073900Y-6375400D01*
G01X7099300Y-6400800D01*
G01X20650196Y-9010493D02*
G01X20726396Y-9086693D01*
G01X20726396Y-9112093D01*
G01X20650196Y-9188293D01*
G01X20469987Y-1561274D02*
G01X20469987Y-1739074D01*
G01X5367604Y-6083300D02*
G01X5291404Y-6007100D01*
G01X5291404Y-5930900D01*
G01X6231204Y-4991100D01*
G01X7475804Y-4991100D01*
G01X7501204Y-4965700D01*
G01X5367604Y-5956300D02*
G01X5621604Y-5702300D01*
G01X6409004Y-5702300D01*
G01X7018604Y-6311900D01*
G01X7018604Y-6413500D01*
G01X7171004Y-6565900D01*
G01X6713804Y-8089900D02*
G01X7298004Y-8674100D01*
G01X7552004Y-8928100D01*
G01X8339404Y-8928100D01*
G01X5672404Y-7581900D02*
G01X5672404Y-7886700D01*
G01X5596204Y-7962900D01*
G01X6713804Y-8928100D02*
G01X6764604Y-8928100D01*
G01X6942404Y-9105900D01*
G01X6713804Y-12433300D02*
G01X7310704Y-13030200D01*
G01X7310704Y-13309600D01*
G01X5139004Y-12103100D02*
G01X4986604Y-12255500D01*
G01X4986604Y-13881100D01*
G01X5901004Y-14795500D01*
G01X5169599Y-13953299D02*
G01X6160199Y-12962699D01*
G01X6160199Y-6071705D01*
G01X5986196Y-5897702D01*
G01X6236399Y-13305599D02*
G01X6210999Y-13280199D01*
G01X6210999Y-5837999D01*
G01X6287199Y-5761799D01*
G01X6363399Y-5761799D01*
G01X6464999Y-5863399D01*
G01X6287199Y-11527599D02*
G01X6261799Y-11502199D01*
G01X6261799Y-5888799D01*
G01X6312599Y-5837999D01*
G01X6896799Y-8784399D02*
G01X6515799Y-8403399D01*
G01X6363399Y-8403399D01*
G01X6337999Y-8377999D01*
G01X6337999Y-5964999D01*
G01X4368800Y-2679700D02*
G01X8382000Y-2679700D01*
G01X8737600Y-3035300D01*
G01X5613400Y-3430600D02*
G01X5664200Y-3481400D01*
G01X6197600Y-3481400D01*
G01X8382000Y-2567000D02*
G01X8839200Y-3024200D01*
G01X13030200Y-3024200D01*
G01X3708400Y-2719400D02*
G01X3810000Y-2821000D01*
G01X8102600Y-2821000D01*
G01X8280400Y-2998800D01*
G01X8280400Y-3125800D01*
G01X8343900Y-3189300D01*
G01X15379700Y-3189300D01*
G01X2870200Y-3276600D02*
G01X4902200Y-3276600D01*
G01X5359400Y-3733800D01*
G01X6197600Y-3733800D01*
G01X6299200Y-3632200D01*
G01X3898900Y-2654300D02*
G01X4000500Y-2755900D01*
G01X8293100Y-2755900D01*
G01X8648700Y-3111500D01*
G01X15405100Y-3111500D01*
G01X15470200Y-3176600D01*
G01X19432600Y-3176600D01*
G01X1943095Y-14573999D02*
G01X1968495Y-14573999D01*
G01X6108695Y-10433799D01*
G01X6108695Y-6318999D01*
G01X6007095Y-6217399D01*
G01X1892295Y-12834099D02*
G01X1892295Y-11843499D01*
G01X6057895Y-7677899D01*
G01X6057895Y-6382499D01*
G01X6007095Y-6331699D01*
G01X11671300Y-2805100D02*
G01X11671300Y-2957500D01*
G01X6713804Y-6379108D02*
G01X6713804Y-6404508D01*
G01X6917004Y-6607708D01*
G01X6942404Y-6633108D01*
G01X7196404Y-6633108D01*
G01X5189804Y-6718300D02*
G01X5189804Y-7048500D01*
G01X5532704Y-7391400D01*
G01X5532704Y-7607300D01*
G01X5177104Y-7962900D01*
G01X5151704Y-7962900D01*
G01X18456699Y-1430998D02*
G01X18583699Y-1430998D01*
G01X18634499Y-1380198D01*
G01X18685299Y-1380198D01*
G01X18710699Y-1354798D01*
G01X19675899Y-1354798D02*
G01X20051400Y-1730299D01*
G01X20138598Y-1730299D01*
G01X20341798Y-1527099D01*
G01X17456302Y-9461500D02*
G01X17456302Y-9537700D01*
G01X17735702Y-9817100D01*
G01X18777102Y-9817100D01*
G01X19005702Y-9588500D01*
G01X13595502Y-10007600D02*
G01X13595502Y-10896600D01*
G01X13493902Y-10998200D01*
G01X17735702Y-9817100D02*
G01X17735702Y-11468100D01*
G01X17430902Y-11772900D01*
G01X17430902Y-11849100D01*
G01X18929502Y-11849100D01*
G01X19069202Y-11709400D01*
G01X13493902Y-11099800D02*
G01X13417702Y-11023600D01*
G01X12630302Y-11023600D01*
G01X11817502Y-11836400D01*
G01X9696602Y-10007600D02*
G01X9696602Y-11023600D01*
G01X9569602Y-11150600D01*
G01X9569602Y-11252200D02*
G01X9417202Y-11099800D01*
G01X8960002Y-11099800D01*
G01X8274202Y-11785600D01*
G01X8274202Y-13309600D01*
G01X7766202Y-13817600D01*
G01X7766202Y-13944600D01*
G01X8579002Y-13944600D01*
G01X9226702Y-14592300D01*
G01X9302902Y-14592300D01*
G01X9582302Y-14312900D01*
G01X9582302Y-14211300D01*
G01X9658502Y-14135100D01*
G01X9302902Y-14592300D02*
G01X9302902Y-15354300D01*
G01X9648075Y-15699473D01*
G01X9648075Y-15826473D01*
G01X9658502Y-14135100D02*
G01X10750702Y-14135100D01*
G01X9648075Y-15826473D02*
G01X7997075Y-15826473D01*
G01X7768475Y-16055073D01*
G01X11603875Y-15826473D02*
G01X11883275Y-16105873D01*
G01X13407275Y-16105873D01*
G01X13483475Y-16029673D01*
G01X15439275Y-16029673D01*
G01X15464675Y-16004273D01*
G01X17395075Y-16004273D01*
G01X17445875Y-16055073D01*
G01X17486244Y-16055073D01*
G01X17572875Y-16141704D01*
G01X2243907Y-12884899D02*
G01X2243907Y-13734809D01*
G01X2383099Y-13874001D01*
G01X2383099Y-13975601D01*
G01X1837507Y-14521193D02*
G01X1837507Y-14622793D01*
G01X1913707Y-14698993D01*
G01X2068114Y-14698993D01*
G01X2193107Y-14573999D01*
G01X1503091Y-13874001D02*
G01X1503091Y-13881976D01*
G01X1904995Y-11056099D02*
G01X2438395Y-10522699D01*
G01X3149595Y-10522699D01*
G01X5918195Y-7754099D01*
G01X5918195Y-6153899D01*
G01X5994395Y-6077699D01*
G01X8140700Y-3810000D02*
G01X8140700Y-3784600D01*
G01X8572500Y-3352800D01*
G01X1905000Y-4533900D02*
G01X2590800Y-3848100D01*
G01X2590800Y-3721100D01*
G01X2819400Y-3492500D01*
G01X3962400Y-3492500D01*
G01X5637200Y-3606800D02*
G01X6159500Y-3606800D01*
G01X1981200Y-4622800D02*
G01X2717800Y-3886200D01*
G01X4013200Y-3886200D01*
G01X4089400Y-3810000D01*
G01X5181600Y-3810000D01*
G01X5359400Y-3987800D01*
G01X7708900Y-3987800D01*
G01X7886700Y-3810000D01*
G01X2717800Y-5283200D02*
G01X3035300Y-4965700D01*
G01X3873500Y-4965700D01*
G01X2971800Y-5283200D02*
G01X3098800Y-5156200D01*
G01X3251200Y-5156200D01*
G01X3352800Y-5257800D01*
G01X3352800Y-5334000D01*
G01X4254500Y-6235700D01*
G01X5080000Y-6235700D01*
G01X3479800Y-5283200D02*
G01X3606800Y-5156200D01*
G01X3733800Y-5283200D02*
G01X4622800Y-6172200D01*
G01X5181600Y-6172200D01*
G01X5435600Y-6426200D01*
G01X1447800Y-5283200D02*
G01X4216400Y-8051800D01*
G01X5334000Y-8051800D01*
G01X5486400Y-7899400D01*
G01X1701800Y-5283200D02*
G01X2768600Y-6350000D01*
G01X2921000Y-6350000D01*
G01X2997200Y-6426200D01*
G01X2997200Y-6553200D01*
G01X4216400Y-7772400D01*
G01X5257800Y-7772400D01*
G01X5461000Y-7569200D01*
G01X1955800Y-5283200D02*
G01X3022600Y-6350000D01*
G01X3683000Y-6350000D01*
G01X4978400Y-7645400D01*
G01X2209800Y-5283200D02*
G01X3225800Y-6299200D01*
G01X3733800Y-6299200D01*
G01X5080000Y-7645400D01*
G01X6481496Y-7924800D02*
G01X7319696Y-7924800D01*
G01X8208696Y-7035800D01*
G01X8310296Y-7035800D01*
G01X8310296Y-7239000D01*
G01X9250096Y-8178800D01*
G01X9072296Y-11176000D02*
G01X9072296Y-12192000D01*
G01X9275496Y-12395200D01*
G01X9275496Y-12446000D01*
G01X9275496Y-14528800D01*
G01X6710096Y-8483600D02*
G01X7218096Y-8991600D01*
G01X10850296Y-8991600D01*
G01X10951896Y-9093200D01*
G01X11028096Y-9093200D01*
G01X11155096Y-8966200D01*
G01X11155096Y-7188200D01*
G01X11002696Y-7035800D01*
G01X11002696Y-5537200D01*
G01X11180496Y-5359400D01*
G01X11256696Y-12446000D02*
G01X11256696Y-14528800D01*
G01X6405296Y-8331200D02*
G01X6633896Y-8102600D01*
G01X6633896Y-8077200D01*
G01X6710096Y-8001000D01*
G01X8894496Y-8001000D01*
G01X9707296Y-8813800D01*
G01X11078896Y-8813800D01*
G01X11231296Y-8813800D02*
G01X11282096Y-8864600D01*
G01X11282096Y-8940800D01*
G01X11434496Y-9093200D01*
G01X6633896Y-8102600D02*
G01X7446696Y-8915400D01*
G01X7726096Y-9347200D02*
G01X9529496Y-9347200D01*
G01X11180496Y-10998200D01*
G01X11282096Y-8864600D02*
G01X12856896Y-7289800D01*
G01X12856896Y-5740400D01*
G01X13161696Y-5435600D01*
G01X12653696Y-11099800D02*
G01X12653696Y-12192000D01*
G01X12907696Y-12446000D01*
G01X12907696Y-14224000D01*
G01X13212496Y-14528800D01*
G01X6710096Y-8788400D02*
G01X6964096Y-9042400D01*
G01X9402496Y-9042400D01*
G01X9461995Y-9101899D01*
G01X15139099Y-8174596D02*
G01X15139099Y-7285596D01*
G01X15139099Y-5329796D01*
G01X15139099Y-8174596D02*
G01X15215299Y-8250796D01*
G01X15215299Y-10295496D01*
G01X15151799Y-10358996D01*
G01X15151799Y-10384396D01*
G01X15151799Y-12289396D01*
G01X15202599Y-12340196D01*
G01X15202599Y-12441796D01*
G01X15202599Y-14549996D01*
G01X6710096Y-9017000D02*
G01X6871195Y-9178099D01*
G01X13330796Y-9178099D01*
G01X13406996Y-9101899D01*
G01X17115396Y-9330499D02*
G01X17115396Y-10371899D01*
G01X17115396Y-9330499D02*
G01X17115396Y-7273099D01*
G01X17293196Y-7095299D01*
G01X17115396Y-10371899D02*
G01X17115396Y-12276899D01*
G01X17166196Y-12327699D01*
G01X17166196Y-12454699D01*
G01X17166196Y-14537499D01*
G01X6710096Y-9118600D02*
G01X6811696Y-9220200D01*
G01X14711096Y-9220200D01*
G01X14930996Y-9000299D01*
G01X19076099Y-8766797D02*
G01X19076099Y-7293597D01*
G01X19279299Y-7090397D01*
G01X19076099Y-8766797D02*
G01X19076099Y-9858997D01*
G01X19088799Y-9871697D01*
G01X19088799Y-9897097D01*
G01X19139599Y-9947897D01*
G01X19139599Y-12335497D01*
G01X19139599Y-13935697D01*
G01X19114199Y-13961097D01*
G01X6456096Y-9093200D02*
G01X6583096Y-9093200D01*
G01X6760896Y-9271000D01*
G01X14753895Y-9271000D01*
G01X14999195Y-9025699D01*
G01X14999195Y-8847899D01*
G01X15049995Y-8797099D01*
G01X15075395Y-8797099D01*
G01X15151595Y-8873299D01*
G01X20129995Y-8746299D02*
G01X20282395Y-8746299D01*
G01X20637995Y-9101899D01*
G01X2141499Y-1271905D02*
G01X2141499Y-2303501D01*
G01X685800Y-3759200D01*
G01X15062200Y-2971800D02*
G01X17754600Y-2971800D01*
G01X17983200Y-2743200D01*
G01X11252200Y-3263900D02*
G01X9118600Y-3263900D01*
G01X8331200Y-4051300D01*
G01X5105400Y-4051300D01*
G01X4927600Y-3873500D01*
G54D28*
G01X19371657Y-1190399D02*
G01X19536056Y-1354798D01*
G01X19637799Y-1456541D01*
G54D11*
G01X18710699Y-1354798D02*
G01X19536056Y-1354798D01*
G01X19675899Y-1354798D01*
G01X7393000Y-9321800D02*
G01X7266000Y-9321800D01*
G01X6707200Y-9321800D01*
G01X13493902Y-10998200D02*
G01X13493902Y-11099800D01*
G01X13493902Y-11684000D01*
G01X9569602Y-11150600D02*
G01X9569602Y-11252200D01*
G01X9569602Y-11836400D01*
G01X2383099Y-13975601D02*
G01X1989907Y-14368793D01*
G01X1837507Y-14521193D01*
G01X10543413Y-1451673D02*
G01X10061057Y-1451673D01*
G01X10019084Y-1409700D01*
G01X14677598Y-695099D02*
G01X15579298Y-695099D01*
G01X15617398Y-733199D01*
G01X10225913Y-707199D02*
G01X10654364Y-707199D01*
G01X10683113Y-735948D01*
G54D10*
G01X15236012Y-1659459D02*
G01X14973553Y-1397000D01*
G01X14909800Y-1397000D01*
G54D11*
G01X18576498Y-1600398D02*
G01X18449498Y-1600398D01*
G01X17979598Y-2070298D01*
G54D10*
G01X18224500Y-2044700D02*
G01X18453100Y-2044700D01*
G01X15684500Y-1676400D02*
G01X15572999Y-1787901D01*
G01X15572999Y-1791629D01*
G01X15528831Y-1835798D01*
G01X15466368Y-1835798D01*
G01X15345909Y-1715339D01*
G01X15212866Y-1715339D01*
G01X15186627Y-1689100D01*
G01X14617700Y-1689100D01*
G01X7766202Y-13944600D02*
G01X7143902Y-13322300D01*
G01X6934200Y-13322300D01*
G01X6769100Y-13157200D01*
G54D11*
G01X4830496Y-7137400D02*
G01X3166796Y-5473700D01*
G01X4982896Y-7137400D02*
G01X4830496Y-7137400D01*
G01X1612900Y-3848100D02*
G01X1701800Y-3759200D01*
G01X3166796Y-5473700D02*
G01X2457774Y-5473700D01*
G01X2314240Y-5330166D01*
G01X2314240Y-5239939D01*
G01X1612900Y-4538600D01*
G01X1612900Y-3848100D01*
G01X3225800Y-5283200D02*
G01X3276600Y-5283200D01*
G01X5016500Y-6299200D02*
G01X5080000Y-6362700D01*
G01X3276600Y-5283200D02*
G01X3312160Y-5318760D01*
G01X3312160Y-5350834D01*
G01X4260526Y-6299200D02*
G01X3312160Y-5350834D01*
G01X4260526Y-6299200D02*
G01X5016500Y-6299200D01*
G54D28*
G01X6698300Y-1181100D02*
G01X7212914Y-1181100D01*
G01X5990196Y-1181100D02*
G01X6698300Y-1181100D01*
G54D11*
G01X17572875Y-16141704D02*
G01X19137244Y-16141704D01*
G01X19403944Y-15875004D01*
G01X19403944Y-14105162D01*
G01X19501002Y-14008104D01*
G01X10750702Y-14135100D02*
G01X11207902Y-14592300D01*
G01X11284102Y-14592300D01*
G01X11284102Y-15481300D01*
G01X11603875Y-15801073D01*
G01X11603875Y-15826473D01*
G01X11284102Y-14592300D02*
G01X11442700Y-14592300D01*
G01X11893702Y-14141298D01*
G01X11893702Y-14109700D01*
G01X11116996Y-10375900D02*
G01X11256696Y-10515600D01*
G01X11256696Y-12446000D01*
G01X10530713Y-9529000D02*
G01X14594713Y-9529000D01*
G01X15064613Y-9059100D01*
G01X10520096Y-9347200D02*
G01X10380396Y-9486900D01*
G01X10380396Y-9664700D01*
G01X11091596Y-10375900D01*
G01X10621696Y-9347200D02*
G01X10520096Y-9347200D01*
G01X11091596Y-10375900D02*
G01X11116996Y-10375900D01*
G01X7113600Y-4927600D02*
G01X7012000Y-4826000D01*
G01X6529400Y-4826000D01*
G01X6478600Y-4775200D01*
G01X6351600Y-4775200D01*
G01X6394298Y-4387698D02*
G01X6381598Y-4387698D01*
G01X6241898Y-4527398D01*
G01X6591300Y-4368800D02*
G01X6083300Y-4876800D01*
G01X2794000Y-4876800D02*
G01X2463800Y-5207000D01*
G01X6667500Y-4368800D02*
G01X6591300Y-4368800D01*
G01X2463800Y-5207000D02*
G01X2463800Y-5283200D01*
G01X6083300Y-4876800D02*
G01X4033900Y-4876800D01*
G01X4031060Y-4879640D01*
G01X3944540Y-4879640D01*
G01X3941700Y-4876800D01*
G01X2794000Y-4876800D01*
G01X4750499Y-6803199D02*
G01X4949698Y-6604000D01*
G01X5432298Y-6604000D01*
G01X5715699Y-6320599D01*
G01X3606800Y-5156200D02*
G01X4318000Y-5156200D01*
G01X5486400Y-6324600D01*
G01X11690502Y-5753100D02*
G01X11690502Y-7340600D01*
G01X11512702Y-7518400D01*
G01X17557902Y-7835900D02*
G01X17557902Y-9359900D01*
G01X17456302Y-9461500D01*
G54D28*
G01X5990196Y-1181100D02*
G01X5511800Y-1181100D01*
G54D11*
G01X5017199Y-5533199D02*
G01X5017199Y-5294211D01*
G01X5028209Y-5283200D01*
G01X6326200Y-4800600D02*
G01X5538800Y-5588000D01*
G01X5052201Y-5588000D01*
G01X5043501Y-5596699D01*
G01X4990896Y-5596699D01*
G01X4982196Y-5588000D01*
G01X4929200Y-5588000D01*
G01X4927600Y-3873500D02*
G01X4927600Y-3886200D01*
G01X4889500Y-3924300D01*
G01X2376500Y-1391895D02*
G01X2376500Y-1810995D01*
G01X3443300Y-2877795D01*
G01X5671795Y-2877795D01*
G01X6146800Y-3352800D01*
G01X6159500Y-3352800D01*
G01X3467100Y-2770200D02*
G01X3670300Y-2567000D01*
G01X8382000Y-2567000D01*
G01X7196404Y-6633108D02*
G01X7780604Y-6048908D01*
G01X7780604Y-5794908D01*
G01X9279204Y-5794908D01*
G01X9406204Y-5667908D01*
G01X1503091Y-13881976D02*
G01X1989907Y-14368793D01*
G04 Track End*

M02*

