;TYPE=PLATED
;Layer: PTH_Through
;EasyEDA Pro v2.2.35.2, 2025-01-29 23:55:30
;Gerber Generator version 0.3
M48
METRIC,LZ,0000.00000
;Hole size 1 = 0.30500 METRIC
T01C0.30500
;Hole size 2 = 0.50000 METRIC
T02C0.50000
;Hole size 3 = 0.80000 METRIC
T03C0.80000
;Hole size 4 = 1.00000 METRIC
T04C1.00000
;Hole size 5 = 1.80000 METRIC
T05C1.80000
%
G05
G90
T01
X189.992Y-21.209
X191.008Y-9.017
X170.075Y-51.181
X158.645Y-75.057
X158.137Y-81.661
X39.843Y-37.929
X32.66Y-37.887
X15.859Y-38.183
X64.53Y-81.093
X41.113Y-82.405
X30.12Y-81.601
X14.843Y-83.929
X70.722Y-90.999
X71.484Y-102.175
X160.525Y-110.006
X44.711Y-11.331
X200.58Y-27.813
X204.644Y-31.877
X2.54Y-72.571
X128.821Y-79.502
X126.027Y-79.756
X78.577Y-80.724
X70.449Y-81.994
X29.555Y-82.248
X19.395Y-81.486
X37.084Y-83.82
X24.908Y-76.184
X27.194Y-48.393
X24.4Y-79.724
X29.734Y-85.157
X36.322Y-103.076
X119.65Y-78.438
X169.942Y-89.614
X77.286Y-76.521
X74.184Y-78.74
X75.454Y-80.01
X74.892Y-73.561
X75.692Y-73.12
X75.581Y-52.292
X71.771Y-48.482
X84.09Y-83.772
X124.73Y-90.376
X171.72Y-88.852
X181.88Y-90.122
X102.286Y-72.825
X107.569Y-84.312
X106.823Y-84.566
X106.823Y-83.518
X124.857Y-94.186
X169.561Y-99.012
X126.016Y-73.841
X126.27Y-82.503
X128.625Y-80.264
X150.765Y-49.911
X159.131Y-83.661
X155.337Y-84.423
X157.623Y-83.137
X182.515Y-100.155
X67.891Y-33.413
X64.946Y-40.173
X69.923Y-53.111
X65.962Y-64.189
X63.676Y-79.683
X67.891Y-102.413
X64.946Y-109.173
X67.891Y-125.413
X44.939Y-75.873
X42.907Y-79.175
X45.28Y-54.029
X42.891Y-102.413
X44.669Y-122.873
X95.28Y-80.839
X95.939Y-77.029
X92.891Y-125.413
X94.923Y-52.857
X86.39Y-35.855
X98.987Y-30.873
X117.783Y-33.667
X119.815Y-52.209
X121.193Y-100.127
X113.865Y-126.088
X127.289Y-63.832
X134.401Y-65.102
X147.971Y-81.699
X162.957Y-83.477
X169.772Y-90.999
X144.669Y-122.873
X196.85Y-24.003
X198.908Y-18.388
X202.993Y-14.812
X149.975Y-79.921
X167.755Y-76.619
X23.197Y-31.749
X23.705Y-77.977
X21.673Y-82.037
X22.435Y-31.999
X21.673Y-78.003
X22.435Y-104.419
X199.235Y-28.321
T02
X26.924Y-76.2
X25.924Y-76.2
X26.924Y-77.2
X25.924Y-77.2
X26.924Y-78.2
X25.924Y-78.2
X26.924Y-79.2
X25.924Y-79.2
X102.235Y-74.93
X101.235Y-74.93
X102.235Y-75.93
X101.235Y-75.93
X102.235Y-76.93
X101.235Y-76.93
X102.235Y-77.93
X101.235Y-77.93
X75.946Y-75.184
X74.946Y-75.184
X75.946Y-76.184
X74.946Y-76.184
X75.946Y-77.184
X74.946Y-77.184
X75.946Y-78.184
X74.946Y-78.184
X151.511Y-75.565
X150.511Y-75.565
X151.511Y-76.565
X150.511Y-76.565
X151.511Y-77.565
X150.511Y-77.565
X151.511Y-78.565
X150.511Y-78.565
X152.28Y-114.247
X153.28Y-114.247
X154.28Y-114.247
X2.54Y-76.454
X1.54Y-76.454
X2.54Y-77.454
X1.54Y-77.454
X2.54Y-78.454
X1.54Y-78.454
X2.54Y-79.454
X1.54Y-79.454
X180.22Y-7.567
X181.22Y-7.567
X182.22Y-7.567
X127.0Y-75.311
X126.0Y-75.311
X127.0Y-76.311
X126.0Y-76.311
X127.0Y-77.311
X126.0Y-77.311
X127.0Y-78.311
X126.0Y-78.311
T03
X195.072Y-26.289
X200.072Y-26.289
X199.771Y-16.256
X199.771Y-11.176
X190.119Y-13.081
X195.199Y-13.081
X203.581Y-6.477
X208.661Y-6.477
X197.892Y-20.674
X192.892Y-20.674
X191.008Y-6.604
X196.008Y-6.604
X184.912Y-26.289
X189.912Y-26.289
X205.105Y-19.812
X205.105Y-14.812
T04
X108.93Y-62.157
X111.43Y-62.157
X113.93Y-62.157
X158.93Y-85.157
X161.43Y-85.157
X163.93Y-85.157
X58.93Y-16.157
X61.43Y-16.157
X63.93Y-16.157
X83.93Y-85.157
X86.43Y-85.157
X88.93Y-85.157
X33.93Y-16.157
X36.43Y-16.157
X38.93Y-16.157
X8.93Y-16.157
X11.43Y-16.157
X13.93Y-16.157
X83.93Y-62.157
X86.43Y-62.157
X88.93Y-62.157
X133.93Y-131.157
X136.43Y-131.157
X138.93Y-131.157
X133.93Y-108.157
X136.43Y-108.157
X138.93Y-108.157
X8.93Y-131.157
X11.43Y-131.157
X13.93Y-131.157
X8.93Y-62.157
X11.43Y-62.157
X13.93Y-62.157
X33.93Y-108.157
X36.43Y-108.157
X38.93Y-108.157
X133.93Y-16.157
X136.43Y-16.157
X138.93Y-16.157
X208.505Y-105.686
X208.505Y-99.186
X204.005Y-99.186
X204.005Y-105.686
X58.93Y-85.157
X61.43Y-85.157
X63.93Y-85.157
X8.93Y-39.157
X11.43Y-39.157
X13.93Y-39.157
X133.93Y-62.157
X136.43Y-62.157
X138.93Y-62.157
X158.93Y-16.157
X161.43Y-16.157
X163.93Y-16.157
X108.93Y-131.157
X111.43Y-131.157
X113.93Y-131.157
X83.93Y-131.157
X86.43Y-131.157
X88.93Y-131.157
X83.93Y-16.157
X86.43Y-16.157
X88.93Y-16.157
X198.12Y-105.686
X198.12Y-99.186
X193.62Y-99.186
X193.62Y-105.686
X133.93Y-85.157
X136.43Y-85.157
X138.93Y-85.157
X8.93Y-108.157
X11.43Y-108.157
X13.93Y-108.157
X58.93Y-62.157
X61.43Y-62.157
X63.93Y-62.157
X33.93Y-62.157
X36.43Y-62.157
X38.93Y-62.157
X158.93Y-39.157
X161.43Y-39.157
X163.93Y-39.157
X108.93Y-16.157
X111.43Y-16.157
X113.93Y-16.157
X187.735Y-105.686
X187.735Y-99.186
X183.235Y-99.186
X183.235Y-105.686
X208.505Y-96.924
X208.505Y-90.424
X204.005Y-90.424
X204.005Y-96.924
X158.93Y-131.157
X161.43Y-131.157
X163.93Y-131.157
X158.93Y-62.157
X161.43Y-62.157
X163.93Y-62.157
X33.93Y-39.157
X36.43Y-39.157
X38.93Y-39.157
X33.93Y-131.157
X36.43Y-131.157
X38.93Y-131.157
X198.12Y-96.924
X198.12Y-90.424
X193.62Y-90.424
X193.62Y-96.924
X158.93Y-108.157
X161.43Y-108.157
X163.93Y-108.157
X108.93Y-39.157
X111.43Y-39.157
X113.93Y-39.157
X58.93Y-39.157
X61.43Y-39.157
X63.93Y-39.157
X108.93Y-85.157
X111.43Y-85.157
X113.93Y-85.157
X58.93Y-131.157
X61.43Y-131.157
X63.93Y-131.157
X33.93Y-85.157
X36.43Y-85.157
X38.93Y-85.157
X83.93Y-108.157
X86.43Y-108.157
X88.93Y-108.157
X187.735Y-96.924
X187.735Y-90.424
X183.235Y-90.424
X183.235Y-96.924
X108.93Y-108.157
X111.43Y-108.157
X113.93Y-108.157
X83.93Y-39.157
X86.43Y-39.157
X88.93Y-39.157
X8.93Y-85.157
X11.43Y-85.157
X13.93Y-85.157
X133.93Y-39.157
X136.43Y-39.157
X138.93Y-39.157
X58.93Y-108.157
X61.43Y-108.157
X63.93Y-108.157
T05
X115.83Y-55.007G85X115.83Y-55.307
X107.03Y-55.007G85X107.03Y-55.307
X165.83Y-78.007G85X165.83Y-78.307
X157.03Y-78.007G85X157.03Y-78.307
X65.83Y-9.007G85X65.83Y-9.307
X57.03Y-9.007G85X57.03Y-9.307
X90.83Y-78.007G85X90.83Y-78.307
X82.03Y-78.007G85X82.03Y-78.307
X40.83Y-9.007G85X40.83Y-9.307
X32.03Y-9.007G85X32.03Y-9.307
X15.83Y-9.007G85X15.83Y-9.307
X7.03Y-9.007G85X7.03Y-9.307
X90.83Y-55.007G85X90.83Y-55.307
X82.03Y-55.007G85X82.03Y-55.307
X140.83Y-124.007G85X140.83Y-124.307
X132.03Y-124.007G85X132.03Y-124.307
X140.83Y-101.007G85X140.83Y-101.307
X132.03Y-101.007G85X132.03Y-101.307
X15.83Y-124.007G85X15.83Y-124.307
X7.03Y-124.007G85X7.03Y-124.307
X15.83Y-55.007G85X15.83Y-55.307
X7.03Y-55.007G85X7.03Y-55.307
X40.83Y-101.007G85X40.83Y-101.307
X32.03Y-101.007G85X32.03Y-101.307
X140.83Y-9.007G85X140.83Y-9.307
X132.03Y-9.007G85X132.03Y-9.307
X65.83Y-78.007G85X65.83Y-78.307
X57.03Y-78.007G85X57.03Y-78.307
X15.83Y-32.007G85X15.83Y-32.307
X7.03Y-32.007G85X7.03Y-32.307
X140.83Y-55.007G85X140.83Y-55.307
X132.03Y-55.007G85X132.03Y-55.307
X165.83Y-9.007G85X165.83Y-9.307
X157.03Y-9.007G85X157.03Y-9.307
X115.83Y-124.007G85X115.83Y-124.307
X107.03Y-124.007G85X107.03Y-124.307
X90.83Y-124.007G85X90.83Y-124.307
X82.03Y-124.007G85X82.03Y-124.307
X90.83Y-9.007G85X90.83Y-9.307
X82.03Y-9.007G85X82.03Y-9.307
X140.83Y-78.007G85X140.83Y-78.307
X132.03Y-78.007G85X132.03Y-78.307
X15.83Y-101.007G85X15.83Y-101.307
X7.03Y-101.007G85X7.03Y-101.307
X65.83Y-55.007G85X65.83Y-55.307
X57.03Y-55.007G85X57.03Y-55.307
X40.83Y-55.007G85X40.83Y-55.307
X32.03Y-55.007G85X32.03Y-55.307
X165.83Y-32.007G85X165.83Y-32.307
X157.03Y-32.007G85X157.03Y-32.307
X115.83Y-9.007G85X115.83Y-9.307
X107.03Y-9.007G85X107.03Y-9.307
X165.83Y-124.007G85X165.83Y-124.307
X157.03Y-124.007G85X157.03Y-124.307
X165.83Y-55.007G85X165.83Y-55.307
X157.03Y-55.007G85X157.03Y-55.307
X40.83Y-32.007G85X40.83Y-32.307
X32.03Y-32.007G85X32.03Y-32.307
X40.83Y-124.007G85X40.83Y-124.307
X32.03Y-124.007G85X32.03Y-124.307
X165.83Y-101.007G85X165.83Y-101.307
X157.03Y-101.007G85X157.03Y-101.307
X115.83Y-32.007G85X115.83Y-32.307
X107.03Y-32.007G85X107.03Y-32.307
X65.83Y-32.007G85X65.83Y-32.307
X57.03Y-32.007G85X57.03Y-32.307
X115.83Y-78.007G85X115.83Y-78.307
X107.03Y-78.007G85X107.03Y-78.307
X65.83Y-124.007G85X65.83Y-124.307
X57.03Y-124.007G85X57.03Y-124.307
X40.83Y-78.007G85X40.83Y-78.307
X32.03Y-78.007G85X32.03Y-78.307
X90.83Y-101.007G85X90.83Y-101.307
X82.03Y-101.007G85X82.03Y-101.307
X115.83Y-101.007G85X115.83Y-101.307
X107.03Y-101.007G85X107.03Y-101.307
X90.83Y-32.007G85X90.83Y-32.307
X82.03Y-32.007G85X82.03Y-32.307
X15.83Y-78.007G85X15.83Y-78.307
X7.03Y-78.007G85X7.03Y-78.307
X140.83Y-32.007G85X140.83Y-32.307
X132.03Y-32.007G85X132.03Y-32.307
X65.83Y-101.007G85X65.83Y-101.307
X57.03Y-101.007G85X57.03Y-101.307
M30