;TYPE=PLATED
;Layer: PTH_Through_Via
;EasyEDA Pro v2.2.35.2, 2025-01-29 23:55:30
;Gerber Generator version 0.3
M48
METRIC,LZ,0000.00000
;Hole size 1 = 0.30500 METRIC
T01C0.30500
%
G05
G90
T01
X189.992Y-21.209
X191.008Y-9.017
X170.075Y-51.181
X158.645Y-75.057
X158.137Y-81.661
X39.843Y-37.929
X32.66Y-37.887
X15.859Y-38.183
X64.53Y-81.093
X41.113Y-82.405
X30.12Y-81.601
X14.843Y-83.929
X70.722Y-90.999
X71.484Y-102.175
X160.525Y-110.006
X44.711Y-11.331
X200.58Y-27.813
X204.644Y-31.877
X2.54Y-72.571
X128.821Y-79.502
X126.027Y-79.756
X78.577Y-80.724
X70.449Y-81.994
X29.555Y-82.248
X19.395Y-81.486
X37.084Y-83.82
X24.908Y-76.184
X27.194Y-48.393
X24.4Y-79.724
X29.734Y-85.157
X36.322Y-103.076
X119.65Y-78.438
X169.942Y-89.614
X77.286Y-76.521
X74.184Y-78.74
X75.454Y-80.01
X74.892Y-73.561
X75.692Y-73.12
X75.581Y-52.292
X71.771Y-48.482
X84.09Y-83.772
X124.73Y-90.376
X171.72Y-88.852
X181.88Y-90.122
X102.286Y-72.825
X107.569Y-84.312
X106.823Y-84.566
X106.823Y-83.518
X124.857Y-94.186
X169.561Y-99.012
X126.016Y-73.841
X126.27Y-82.503
X128.625Y-80.264
X150.765Y-49.911
X159.131Y-83.661
X155.337Y-84.423
X157.623Y-83.137
X182.515Y-100.155
X67.891Y-33.413
X64.946Y-40.173
X69.923Y-53.111
X65.962Y-64.189
X63.676Y-79.683
X67.891Y-102.413
X64.946Y-109.173
X67.891Y-125.413
X44.939Y-75.873
X42.907Y-79.175
X45.28Y-54.029
X42.891Y-102.413
X44.669Y-122.873
X95.28Y-80.839
X95.939Y-77.029
X92.891Y-125.413
X94.923Y-52.857
X86.39Y-35.855
X98.987Y-30.873
X117.783Y-33.667
X119.815Y-52.209
X121.193Y-100.127
X113.865Y-126.088
X127.289Y-63.832
X134.401Y-65.102
X147.971Y-81.699
X162.957Y-83.477
X169.772Y-90.999
X144.669Y-122.873
X196.85Y-24.003
X198.908Y-18.388
X202.993Y-14.812
X149.975Y-79.921
X167.755Y-76.619
X23.197Y-31.749
X23.705Y-77.977
X21.673Y-82.037
X22.435Y-31.999
X21.673Y-78.003
X22.435Y-104.419
X199.235Y-28.321
M30