G04 Layer: DrillDrawingLayer*
G04 EasyEDA Pro v2.2.35.2, 2025-01-29 23:55:29*
G04 Gerber Generator version 0.3*
G04 Scale: 100 percent, Rotated: No, Reflected: No*
G04 Dimensions in millimeters*
G04 Leading zeros omitted, absolute positions, 4 integers and 5 decimals*
%FSLAX45Y45*%
%MOMM*%
%AMIconRect*4,1,4,0.2,-0.2,-0.2,-0.2,-0.2,0.2,0.2,0.2,0.2,-0.2,0*4,0,4,0.166667,-0.166667,0.166667,0.166667,-0.166667,0.166667,-0.166667,-0.166667,0.166667,-0.166667,0*%
%AMIconTriangle*4,1,3,-0.242567,0.171767,0.242567,0.171767,0,-0.2706,-0.242567,0.171767,0*4,0,3,-0.189767,0.1386,0,-0.1953,0.190167,0.1386,-0.189767,0.1386,0*%
%AMIconStar6*4,1,12,0.0862,0.1492,0.213233,0.123367,0.172367,0,0.213233,-0.1229,0.0862,-0.148733,0,-0.245767,-0.085767,-0.148733,-0.213267,-0.1229,-0.171933,0,-0.213267,0.1229,-0.085767,0.1492,0,0.245767,0.0862,0.1492,0*4,0,12,-0.000333,0.195333,-0.064333,0.122667,-0.169667,0.097667,-0.138333,-0.005333,-0.169667,-0.098,-0.064333,-0.122667,-0.000333,-0.195667,0.064333,-0.122667,0.169667,-0.098,0.138667,0.005,0.169667,0.098,0.064333,0.122333,-0.000333,0.195333,0*%
%AMIconStar4*4,1,8,-0.222667,0.222667,0,0.144667,0.222667,0.222667,0.144667,0,0.222667,-0.222667,0,-0.144667,-0.217433,-0.222667,-0.144667,0,-0.222667,0.222667,0*4,0,8,0.166667,-0.166667,0.108,0,0.166667,0.166667,0,0.108,-0.166667,0.166667,-0.108,0,-0.166667,-0.166667,0,-0.108,0.166667,-0.166667,0*%
%ADD10IconRect*%
%ADD11C,0.44X0.373333*%
%ADD12IconTriangle*%
%ADD13IconStar6*%
%ADD14IconStar4*%
G75*


G04 Drill Drawing Start*
G54D10*
G01X18491200Y-2628900D03*
G01X18991200Y-2628900D03*
G01X19011900Y-1308100D03*
G01X19100800Y-660400D03*
G01X19289200Y-2067400D03*
G01X19507200Y-2628900D03*
G01X19519900Y-1308100D03*
G01X19600800Y-660400D03*
G01X19789200Y-2067400D03*
G01X19977100Y-1625600D03*
G01X19977100Y-1117600D03*
G01X20007200Y-2628900D03*
G01X20358100Y-647700D03*
G01X20510500Y-1981200D03*
G01X20510500Y-1481200D03*
G01X20866100Y-647700D03*
G54D11*
G01X154000Y-7945400D03*
G01X154000Y-7845400D03*
G01X154000Y-7745400D03*
G01X154000Y-7645400D03*
G01X254000Y-7945400D03*
G01X254000Y-7845400D03*
G01X254000Y-7745400D03*
G01X254000Y-7645400D03*
G01X2592400Y-7920000D03*
G01X2592400Y-7820000D03*
G01X2592400Y-7720000D03*
G01X2592400Y-7620000D03*
G01X2692400Y-7920000D03*
G01X2692400Y-7820000D03*
G01X2692400Y-7720000D03*
G01X2692400Y-7620000D03*
G01X7494600Y-7818400D03*
G01X7494600Y-7718400D03*
G01X7494600Y-7618400D03*
G01X7494600Y-7518400D03*
G01X7594600Y-7818400D03*
G01X7594600Y-7718400D03*
G01X7594600Y-7618400D03*
G01X7594600Y-7518400D03*
G01X10123500Y-7793000D03*
G01X10123500Y-7693000D03*
G01X10123500Y-7593000D03*
G01X10123500Y-7493000D03*
G01X10223500Y-7793000D03*
G01X10223500Y-7693000D03*
G01X10223500Y-7593000D03*
G01X10223500Y-7493000D03*
G01X12600000Y-7831100D03*
G01X12600000Y-7731100D03*
G01X12600000Y-7631100D03*
G01X12600000Y-7531100D03*
G01X12700000Y-7831100D03*
G01X12700000Y-7731100D03*
G01X12700000Y-7631100D03*
G01X12700000Y-7531100D03*
G01X15051100Y-7856500D03*
G01X15051100Y-7756500D03*
G01X15051100Y-7656500D03*
G01X15051100Y-7556500D03*
G01X15151100Y-7856500D03*
G01X15151100Y-7756500D03*
G01X15151100Y-7656500D03*
G01X15151100Y-7556500D03*
G01X15228000Y-11424700D03*
G01X15328000Y-11424700D03*
G01X15428000Y-11424700D03*
G01X18022000Y-756700D03*
G01X18122000Y-756700D03*
G01X18222000Y-756700D03*
G54D12*
G01X703000Y-12415700D03*
G01X703000Y-10115700D03*
G01X703000Y-7815700D03*
G01X703000Y-5515700D03*
G01X703000Y-3215700D03*
G01X703000Y-915700D03*
G01X1583000Y-12415700D03*
G01X1583000Y-10115700D03*
G01X1583000Y-7815700D03*
G01X1583000Y-5515700D03*
G01X1583000Y-3215700D03*
G01X1583000Y-915700D03*
G01X3203000Y-12415700D03*
G01X3203000Y-10115700D03*
G01X3203000Y-7815700D03*
G01X3203000Y-5515700D03*
G01X3203000Y-3215700D03*
G01X3203000Y-915700D03*
G01X4083000Y-12415700D03*
G01X4083000Y-10115700D03*
G01X4083000Y-7815700D03*
G01X4083000Y-5515700D03*
G01X4083000Y-3215700D03*
G01X4083000Y-915700D03*
G01X5703000Y-12415700D03*
G01X5703000Y-10115700D03*
G01X5703000Y-7815700D03*
G01X5703000Y-5515700D03*
G01X5703000Y-3215700D03*
G01X5703000Y-915700D03*
G01X6583000Y-12415700D03*
G01X6583000Y-10115700D03*
G01X6583000Y-7815700D03*
G01X6583000Y-5515700D03*
G01X6583000Y-3215700D03*
G01X6583000Y-915700D03*
G01X8203000Y-12415700D03*
G01X8203000Y-10115700D03*
G01X8203000Y-7815700D03*
G01X8203000Y-5515700D03*
G01X8203000Y-3215700D03*
G01X8203000Y-915700D03*
G01X9083000Y-12415700D03*
G01X9083000Y-10115700D03*
G01X9083000Y-7815700D03*
G01X9083000Y-5515700D03*
G01X9083000Y-3215700D03*
G01X9083000Y-915700D03*
G01X10703000Y-12415700D03*
G01X10703000Y-10115700D03*
G01X10703000Y-7815700D03*
G01X10703000Y-5515700D03*
G01X10703000Y-3215700D03*
G01X10703000Y-915700D03*
G01X11583000Y-12415700D03*
G01X11583000Y-10115700D03*
G01X11583000Y-7815700D03*
G01X11583000Y-5515700D03*
G01X11583000Y-3215700D03*
G01X11583000Y-915700D03*
G01X13203000Y-12415700D03*
G01X13203000Y-10115700D03*
G01X13203000Y-7815700D03*
G01X13203000Y-5515700D03*
G01X13203000Y-3215700D03*
G01X13203000Y-915700D03*
G01X14083000Y-12415700D03*
G01X14083000Y-10115700D03*
G01X14083000Y-7815700D03*
G01X14083000Y-5515700D03*
G01X14083000Y-3215700D03*
G01X14083000Y-915700D03*
G01X15703000Y-12415700D03*
G01X15703000Y-10115700D03*
G01X15703000Y-7815700D03*
G01X15703000Y-5515700D03*
G01X15703000Y-3215700D03*
G01X15703000Y-915700D03*
G01X16583000Y-12415700D03*
G01X16583000Y-10115700D03*
G01X16583000Y-7815700D03*
G01X16583000Y-5515700D03*
G01X16583000Y-3215700D03*
G01X16583000Y-915700D03*
G54D13*
G01X254000Y-7257100D03*
G01X1484300Y-8392900D03*
G01X1585900Y-3818300D03*
G01X1939500Y-8148600D03*
G01X2167300Y-8203700D03*
G01X2167300Y-7800300D03*
G01X2243500Y-10441900D03*
G01X2243500Y-3199900D03*
G01X2319700Y-3174900D03*
G01X2370500Y-7797700D03*
G01X2440000Y-7972400D03*
G01X2490800Y-7618400D03*
G01X2719400Y-4839300D03*
G01X2955500Y-8224800D03*
G01X2973400Y-8515700D03*
G01X3012000Y-8160100D03*
G01X3266000Y-3788700D03*
G01X3632200Y-10307600D03*
G01X3708400Y-8382000D03*
G01X3984300Y-3792900D03*
G01X4111300Y-8240500D03*
G01X4289100Y-10241300D03*
G01X4290700Y-7917500D03*
G01X4466900Y-12287300D03*
G01X4471100Y-1133100D03*
G01X4493900Y-7587300D03*
G01X4528000Y-5402900D03*
G01X6367600Y-7968300D03*
G01X6453000Y-8109300D03*
G01X6494600Y-10917300D03*
G01X6494600Y-4017300D03*
G01X6596200Y-6418900D03*
G01X6789100Y-12541300D03*
G01X6789100Y-10241300D03*
G01X6789100Y-3341300D03*
G01X6992300Y-5311100D03*
G01X7044900Y-8199400D03*
G01X7072200Y-9099900D03*
G01X7148400Y-10217500D03*
G01X7177100Y-4848200D03*
G01X7418400Y-7874000D03*
G01X7489200Y-7356100D03*
G01X7545400Y-8001000D03*
G01X7558100Y-5229200D03*
G01X7569200Y-7312000D03*
G01X7728600Y-7652100D03*
G01X7857700Y-8072400D03*
G01X8409000Y-8377200D03*
G01X8639000Y-3585500D03*
G01X9289100Y-12541300D03*
G01X9492300Y-5285700D03*
G01X9528000Y-8083900D03*
G01X9593900Y-7702900D03*
G01X9898700Y-3087300D03*
G01X10228600Y-7282500D03*
G01X10682300Y-8456600D03*
G01X10682300Y-8351800D03*
G01X10756900Y-8431200D03*
G01X11386500Y-12608800D03*
G01X11778300Y-3366700D03*
G01X11965000Y-7843800D03*
G01X11981500Y-5220900D03*
G01X12119300Y-10012700D03*
G01X12473000Y-9037600D03*
G01X12485700Y-9418600D03*
G01X12601600Y-7384100D03*
G01X12602700Y-7975600D03*
G01X12627000Y-8250300D03*
G01X12728900Y-6383200D03*
G01X12862500Y-8026400D03*
G01X12882100Y-7950200D03*
G01X13440100Y-6510200D03*
G01X14466900Y-12287300D03*
G01X14797100Y-8169900D03*
G01X14997500Y-7992100D03*
G01X15076500Y-4991100D03*
G01X15533700Y-8442300D03*
G01X15762300Y-8313700D03*
G01X15813700Y-8166100D03*
G01X15864500Y-7505700D03*
G01X15913100Y-8366100D03*
G01X16052500Y-11000600D03*
G01X16295700Y-8347700D03*
G01X16775500Y-7661900D03*
G01X16956100Y-9901200D03*
G01X16977200Y-9099900D03*
G01X16994200Y-8961400D03*
G01X17007500Y-5118100D03*
G01X17172000Y-8885200D03*
G01X18188000Y-9012200D03*
G01X18251500Y-10015500D03*
G01X18999200Y-2120900D03*
G01X19100800Y-901700D03*
G01X19685000Y-2400300D03*
G01X19890800Y-1838800D03*
G01X19923500Y-2832100D03*
G01X20058000Y-2781300D03*
G01X20299300Y-1481200D03*
G01X20464400Y-3187700D03*
G54D14*
G01X893000Y-13115700D03*
G01X893000Y-10815700D03*
G01X893000Y-8515700D03*
G01X893000Y-6215700D03*
G01X893000Y-3915700D03*
G01X893000Y-1615700D03*
G01X1143000Y-13115700D03*
G01X1143000Y-10815700D03*
G01X1143000Y-8515700D03*
G01X1143000Y-6215700D03*
G01X1143000Y-3915700D03*
G01X1143000Y-1615700D03*
G01X1393000Y-13115700D03*
G01X1393000Y-10815700D03*
G01X1393000Y-8515700D03*
G01X1393000Y-6215700D03*
G01X1393000Y-3915700D03*
G01X1393000Y-1615700D03*
G01X3393000Y-13115700D03*
G01X3393000Y-10815700D03*
G01X3393000Y-8515700D03*
G01X3393000Y-6215700D03*
G01X3393000Y-3915700D03*
G01X3393000Y-1615700D03*
G01X3643000Y-13115700D03*
G01X3643000Y-10815700D03*
G01X3643000Y-8515700D03*
G01X3643000Y-6215700D03*
G01X3643000Y-3915700D03*
G01X3643000Y-1615700D03*
G01X3893000Y-13115700D03*
G01X3893000Y-10815700D03*
G01X3893000Y-8515700D03*
G01X3893000Y-6215700D03*
G01X3893000Y-3915700D03*
G01X3893000Y-1615700D03*
G01X5893000Y-13115700D03*
G01X5893000Y-10815700D03*
G01X5893000Y-8515700D03*
G01X5893000Y-6215700D03*
G01X5893000Y-3915700D03*
G01X5893000Y-1615700D03*
G01X6143000Y-13115700D03*
G01X6143000Y-10815700D03*
G01X6143000Y-8515700D03*
G01X6143000Y-6215700D03*
G01X6143000Y-3915700D03*
G01X6143000Y-1615700D03*
G01X6393000Y-13115700D03*
G01X6393000Y-10815700D03*
G01X6393000Y-8515700D03*
G01X6393000Y-6215700D03*
G01X6393000Y-3915700D03*
G01X6393000Y-1615700D03*
G01X8393000Y-13115700D03*
G01X8393000Y-10815700D03*
G01X8393000Y-8515700D03*
G01X8393000Y-6215700D03*
G01X8393000Y-3915700D03*
G01X8393000Y-1615700D03*
G01X8643000Y-13115700D03*
G01X8643000Y-10815700D03*
G01X8643000Y-8515700D03*
G01X8643000Y-6215700D03*
G01X8643000Y-3915700D03*
G01X8643000Y-1615700D03*
G01X8893000Y-13115700D03*
G01X8893000Y-10815700D03*
G01X8893000Y-8515700D03*
G01X8893000Y-6215700D03*
G01X8893000Y-3915700D03*
G01X8893000Y-1615700D03*
G01X10893000Y-13115700D03*
G01X10893000Y-10815700D03*
G01X10893000Y-8515700D03*
G01X10893000Y-6215700D03*
G01X10893000Y-3915700D03*
G01X10893000Y-1615700D03*
G01X11143000Y-13115700D03*
G01X11143000Y-10815700D03*
G01X11143000Y-8515700D03*
G01X11143000Y-6215700D03*
G01X11143000Y-3915700D03*
G01X11143000Y-1615700D03*
G01X11393000Y-13115700D03*
G01X11393000Y-10815700D03*
G01X11393000Y-8515700D03*
G01X11393000Y-6215700D03*
G01X11393000Y-3915700D03*
G01X11393000Y-1615700D03*
G01X13393000Y-13115700D03*
G01X13393000Y-10815700D03*
G01X13393000Y-8515700D03*
G01X13393000Y-6215700D03*
G01X13393000Y-3915700D03*
G01X13393000Y-1615700D03*
G01X13643000Y-13115700D03*
G01X13643000Y-10815700D03*
G01X13643000Y-8515700D03*
G01X13643000Y-6215700D03*
G01X13643000Y-3915700D03*
G01X13643000Y-1615700D03*
G01X13893000Y-13115700D03*
G01X13893000Y-10815700D03*
G01X13893000Y-8515700D03*
G01X13893000Y-6215700D03*
G01X13893000Y-3915700D03*
G01X13893000Y-1615700D03*
G01X15893000Y-13115700D03*
G01X15893000Y-10815700D03*
G01X15893000Y-8515700D03*
G01X15893000Y-6215700D03*
G01X15893000Y-3915700D03*
G01X15893000Y-1615700D03*
G01X16143000Y-13115700D03*
G01X16143000Y-10815700D03*
G01X16143000Y-8515700D03*
G01X16143000Y-6215700D03*
G01X16143000Y-3915700D03*
G01X16143000Y-1615700D03*
G01X16393000Y-13115700D03*
G01X16393000Y-10815700D03*
G01X16393000Y-8515700D03*
G01X16393000Y-6215700D03*
G01X16393000Y-3915700D03*
G01X16393000Y-1615700D03*
G01X18323500Y-10568600D03*
G01X18323500Y-9918600D03*
G01X18323500Y-9692400D03*
G01X18323500Y-9042400D03*
G01X18773500Y-10568600D03*
G01X18773500Y-9918600D03*
G01X18773500Y-9692400D03*
G01X18773500Y-9042400D03*
G01X19362000Y-10568600D03*
G01X19362000Y-9918600D03*
G01X19362000Y-9692400D03*
G01X19362000Y-9042400D03*
G01X19812000Y-10568600D03*
G01X19812000Y-9918600D03*
G01X19812000Y-9692400D03*
G01X19812000Y-9042400D03*
G01X20400500Y-10568600D03*
G01X20400500Y-9918600D03*
G01X20400500Y-9692400D03*
G01X20400500Y-9042400D03*
G01X20850500Y-10568600D03*
G01X20850500Y-9918600D03*
G01X20850500Y-9692400D03*
G01X20850500Y-9042400D03*
G04 Drill Drawing End*

M02*

