G04 Layer: BottomLayer*
G04 EasyEDA Pro v2.2.35.2, 2025-01-29 23:55:29*
G04 Gerber Generator version 0.3*
G04 Scale: 100 percent, Rotated: No, Reflected: No*
G04 Dimensions in millimeters*
G04 Leading zeros omitted, absolute positions, 4 integers and 5 decimals*
%FSLAX45Y45*%
%MOMM*%
%AMRoundRect*1,1,$1,$2,$3*1,1,$1,$4,$5*1,1,$1,0-$2,0-$3*1,1,$1,0-$4,0-$5*20,1,$1,$2,$3,$4,$5,0*20,1,$1,$4,$5,0-$2,0-$3,0*20,1,$1,0-$2,0-$3,0-$4,0-$5,0*20,1,$1,0-$4,0-$5,$2,$3,0*4,1,4,$2,$3,$4,$5,0-$2,0-$3,0-$4,0-$5,$2,$3,0*%
%ADD10R,1.8X1.8*%
%ADD11C,1.8*%
%ADD12RoundRect,1.5X-0.75X-1.25X-0.75X1.25*%
%ADD13R,0.85X0.85*%
%ADD14C,0.85*%
%ADD15C,1.6*%
%ADD16C,1.7*%
%ADD17R,1.7X1.7*%
%ADD18R,0.85X0.85*%
%ADD19C,0.6195*%
%ADD20C,0.61*%
%ADD21C,0.254*%
G75*


G04 Pad Start*
G54D10*
G01X10893000Y-6215700D03*
G54D11*
G01X11143000Y-6215700D03*
G01X11393000Y-6215700D03*
G54D12*
G01X11583000Y-5515700D03*
G01X10703000Y-5515700D03*
G54D10*
G01X15893000Y-8515700D03*
G54D11*
G01X16143000Y-8515700D03*
G01X16393000Y-8515700D03*
G54D12*
G01X16583000Y-7815700D03*
G01X15703000Y-7815700D03*
G54D10*
G01X5893000Y-1615700D03*
G54D11*
G01X6143000Y-1615700D03*
G01X6393000Y-1615700D03*
G54D12*
G01X6583000Y-915700D03*
G01X5703000Y-915700D03*
G54D10*
G01X8393000Y-8515700D03*
G54D11*
G01X8643000Y-8515700D03*
G01X8893000Y-8515700D03*
G54D12*
G01X9083000Y-7815700D03*
G01X8203000Y-7815700D03*
G54D10*
G01X3393000Y-1615700D03*
G54D11*
G01X3643000Y-1615700D03*
G01X3893000Y-1615700D03*
G54D12*
G01X4083000Y-915700D03*
G01X3203000Y-915700D03*
G54D10*
G01X893000Y-1615700D03*
G54D11*
G01X1143000Y-1615700D03*
G01X1393000Y-1615700D03*
G54D12*
G01X1583000Y-915700D03*
G01X703000Y-915700D03*
G54D13*
G01X2692400Y-7620000D03*
G54D14*
G01X2592400Y-7620000D03*
G01X2692400Y-7720000D03*
G01X2592400Y-7720000D03*
G01X2692400Y-7820000D03*
G01X2592400Y-7820000D03*
G01X2692400Y-7920000D03*
G01X2592400Y-7920000D03*
G54D10*
G01X8393000Y-6215700D03*
G54D11*
G01X8643000Y-6215700D03*
G01X8893000Y-6215700D03*
G54D12*
G01X9083000Y-5515700D03*
G01X8203000Y-5515700D03*
G54D10*
G01X13393000Y-13115700D03*
G54D11*
G01X13643000Y-13115700D03*
G01X13893000Y-13115700D03*
G54D12*
G01X14083000Y-12415700D03*
G01X13203000Y-12415700D03*
G54D10*
G01X13393000Y-10815700D03*
G54D11*
G01X13643000Y-10815700D03*
G01X13893000Y-10815700D03*
G54D12*
G01X14083000Y-10115700D03*
G01X13203000Y-10115700D03*
G54D10*
G01X893000Y-13115700D03*
G54D11*
G01X1143000Y-13115700D03*
G01X1393000Y-13115700D03*
G54D12*
G01X1583000Y-12415700D03*
G01X703000Y-12415700D03*
G54D15*
G01X19507200Y-2628900D03*
G01X20007200Y-2628900D03*
G54D10*
G01X893000Y-6215700D03*
G54D11*
G01X1143000Y-6215700D03*
G01X1393000Y-6215700D03*
G54D12*
G01X1583000Y-5515700D03*
G01X703000Y-5515700D03*
G54D15*
G01X19977100Y-1625600D03*
G01X19977100Y-1117600D03*
G54D10*
G01X3393000Y-10815700D03*
G54D11*
G01X3643000Y-10815700D03*
G01X3893000Y-10815700D03*
G54D12*
G01X4083000Y-10115700D03*
G01X3203000Y-10115700D03*
G54D10*
G01X13393000Y-1615700D03*
G54D11*
G01X13643000Y-1615700D03*
G01X13893000Y-1615700D03*
G54D12*
G01X14083000Y-915700D03*
G01X13203000Y-915700D03*
G54D16*
G01X20850500Y-10568600D03*
G54D17*
G01X20850500Y-9918600D03*
G54D16*
G01X20400500Y-9918600D03*
G01X20400500Y-10568600D03*
G54D13*
G01X10223500Y-7493000D03*
G54D14*
G01X10123500Y-7493000D03*
G01X10223500Y-7593000D03*
G01X10123500Y-7593000D03*
G01X10223500Y-7693000D03*
G01X10123500Y-7693000D03*
G01X10223500Y-7793000D03*
G01X10123500Y-7793000D03*
G54D10*
G01X5893000Y-8515700D03*
G54D11*
G01X6143000Y-8515700D03*
G01X6393000Y-8515700D03*
G54D12*
G01X6583000Y-7815700D03*
G01X5703000Y-7815700D03*
G54D10*
G01X893000Y-3915700D03*
G54D11*
G01X1143000Y-3915700D03*
G01X1393000Y-3915700D03*
G54D12*
G01X1583000Y-3215700D03*
G01X703000Y-3215700D03*
G54D15*
G01X19011900Y-1308100D03*
G01X19519900Y-1308100D03*
G54D10*
G01X13393000Y-6215700D03*
G54D11*
G01X13643000Y-6215700D03*
G01X13893000Y-6215700D03*
G54D12*
G01X14083000Y-5515700D03*
G01X13203000Y-5515700D03*
G54D10*
G01X15893000Y-1615700D03*
G54D11*
G01X16143000Y-1615700D03*
G01X16393000Y-1615700D03*
G54D12*
G01X16583000Y-915700D03*
G01X15703000Y-915700D03*
G54D10*
G01X10893000Y-13115700D03*
G54D11*
G01X11143000Y-13115700D03*
G01X11393000Y-13115700D03*
G54D12*
G01X11583000Y-12415700D03*
G01X10703000Y-12415700D03*
G54D10*
G01X8393000Y-13115700D03*
G54D11*
G01X8643000Y-13115700D03*
G01X8893000Y-13115700D03*
G54D12*
G01X9083000Y-12415700D03*
G01X8203000Y-12415700D03*
G54D10*
G01X8393000Y-1615700D03*
G54D11*
G01X8643000Y-1615700D03*
G01X8893000Y-1615700D03*
G54D12*
G01X9083000Y-915700D03*
G01X8203000Y-915700D03*
G54D16*
G01X19812000Y-10568600D03*
G54D17*
G01X19812000Y-9918600D03*
G54D16*
G01X19362000Y-9918600D03*
G01X19362000Y-10568600D03*
G54D13*
G01X7594600Y-7518400D03*
G54D14*
G01X7494600Y-7518400D03*
G01X7594600Y-7618400D03*
G01X7494600Y-7618400D03*
G01X7594600Y-7718400D03*
G01X7494600Y-7718400D03*
G01X7594600Y-7818400D03*
G01X7494600Y-7818400D03*
G54D10*
G01X13393000Y-8515700D03*
G54D11*
G01X13643000Y-8515700D03*
G01X13893000Y-8515700D03*
G54D12*
G01X14083000Y-7815700D03*
G01X13203000Y-7815700D03*
G54D10*
G01X893000Y-10815700D03*
G54D11*
G01X1143000Y-10815700D03*
G01X1393000Y-10815700D03*
G54D12*
G01X1583000Y-10115700D03*
G01X703000Y-10115700D03*
G54D13*
G01X15151100Y-7556500D03*
G54D14*
G01X15051100Y-7556500D03*
G01X15151100Y-7656500D03*
G01X15051100Y-7656500D03*
G01X15151100Y-7756500D03*
G01X15051100Y-7756500D03*
G01X15151100Y-7856500D03*
G01X15051100Y-7856500D03*
G54D10*
G01X5893000Y-6215700D03*
G54D11*
G01X6143000Y-6215700D03*
G01X6393000Y-6215700D03*
G54D12*
G01X6583000Y-5515700D03*
G01X5703000Y-5515700D03*
G54D10*
G01X3393000Y-6215700D03*
G54D11*
G01X3643000Y-6215700D03*
G01X3893000Y-6215700D03*
G54D12*
G01X4083000Y-5515700D03*
G01X3203000Y-5515700D03*
G54D18*
G01X15228000Y-11424700D03*
G54D14*
G01X15328000Y-11424700D03*
G01X15428000Y-11424700D03*
G54D10*
G01X15893000Y-3915700D03*
G54D11*
G01X16143000Y-3915700D03*
G01X16393000Y-3915700D03*
G54D12*
G01X16583000Y-3215700D03*
G01X15703000Y-3215700D03*
G54D10*
G01X10893000Y-1615700D03*
G54D11*
G01X11143000Y-1615700D03*
G01X11393000Y-1615700D03*
G54D12*
G01X11583000Y-915700D03*
G01X10703000Y-915700D03*
G54D16*
G01X18773500Y-10568600D03*
G54D17*
G01X18773500Y-9918600D03*
G54D16*
G01X18323500Y-9918600D03*
G01X18323500Y-10568600D03*
G01X20850500Y-9692400D03*
G54D17*
G01X20850500Y-9042400D03*
G54D16*
G01X20400500Y-9042400D03*
G01X20400500Y-9692400D03*
G54D10*
G01X15893000Y-13115700D03*
G54D11*
G01X16143000Y-13115700D03*
G01X16393000Y-13115700D03*
G54D12*
G01X16583000Y-12415700D03*
G01X15703000Y-12415700D03*
G54D10*
G01X15893000Y-6215700D03*
G54D11*
G01X16143000Y-6215700D03*
G01X16393000Y-6215700D03*
G54D12*
G01X16583000Y-5515700D03*
G01X15703000Y-5515700D03*
G54D10*
G01X3393000Y-3915700D03*
G54D11*
G01X3643000Y-3915700D03*
G01X3893000Y-3915700D03*
G54D12*
G01X4083000Y-3215700D03*
G01X3203000Y-3215700D03*
G54D10*
G01X3393000Y-13115700D03*
G54D11*
G01X3643000Y-13115700D03*
G01X3893000Y-13115700D03*
G54D12*
G01X4083000Y-12415700D03*
G01X3203000Y-12415700D03*
G54D16*
G01X19812000Y-9692400D03*
G54D17*
G01X19812000Y-9042400D03*
G54D16*
G01X19362000Y-9042400D03*
G01X19362000Y-9692400D03*
G54D10*
G01X15893000Y-10815700D03*
G54D11*
G01X16143000Y-10815700D03*
G01X16393000Y-10815700D03*
G54D12*
G01X16583000Y-10115700D03*
G01X15703000Y-10115700D03*
G54D15*
G01X20358100Y-647700D03*
G01X20866100Y-647700D03*
G54D13*
G01X254000Y-7645400D03*
G54D14*
G01X154000Y-7645400D03*
G01X254000Y-7745400D03*
G01X154000Y-7745400D03*
G01X254000Y-7845400D03*
G01X154000Y-7845400D03*
G01X254000Y-7945400D03*
G01X154000Y-7945400D03*
G54D10*
G01X10893000Y-3915700D03*
G54D11*
G01X11143000Y-3915700D03*
G01X11393000Y-3915700D03*
G54D12*
G01X11583000Y-3215700D03*
G01X10703000Y-3215700D03*
G54D15*
G01X19789200Y-2067400D03*
G01X19289200Y-2067400D03*
G01X19100800Y-660400D03*
G01X19600800Y-660400D03*
G01X18491200Y-2628900D03*
G01X18991200Y-2628900D03*
G54D10*
G01X5893000Y-3915700D03*
G54D11*
G01X6143000Y-3915700D03*
G01X6393000Y-3915700D03*
G54D12*
G01X6583000Y-3215700D03*
G01X5703000Y-3215700D03*
G54D10*
G01X10893000Y-8515700D03*
G54D11*
G01X11143000Y-8515700D03*
G01X11393000Y-8515700D03*
G54D12*
G01X11583000Y-7815700D03*
G01X10703000Y-7815700D03*
G54D18*
G01X18022000Y-756700D03*
G54D14*
G01X18122000Y-756700D03*
G01X18222000Y-756700D03*
G54D10*
G01X5893000Y-13115700D03*
G54D11*
G01X6143000Y-13115700D03*
G01X6393000Y-13115700D03*
G54D12*
G01X6583000Y-12415700D03*
G01X5703000Y-12415700D03*
G54D10*
G01X3393000Y-8515700D03*
G54D11*
G01X3643000Y-8515700D03*
G01X3893000Y-8515700D03*
G54D12*
G01X4083000Y-7815700D03*
G01X3203000Y-7815700D03*
G54D10*
G01X8393000Y-10815700D03*
G54D11*
G01X8643000Y-10815700D03*
G01X8893000Y-10815700D03*
G54D12*
G01X9083000Y-10115700D03*
G01X8203000Y-10115700D03*
G54D16*
G01X18773500Y-9692400D03*
G54D17*
G01X18773500Y-9042400D03*
G54D16*
G01X18323500Y-9042400D03*
G01X18323500Y-9692400D03*
G54D10*
G01X10893000Y-10815700D03*
G54D11*
G01X11143000Y-10815700D03*
G01X11393000Y-10815700D03*
G54D12*
G01X11583000Y-10115700D03*
G01X10703000Y-10115700D03*
G54D10*
G01X8393000Y-3915700D03*
G54D11*
G01X8643000Y-3915700D03*
G01X8893000Y-3915700D03*
G54D12*
G01X9083000Y-3215700D03*
G01X8203000Y-3215700D03*
G54D13*
G01X12700000Y-7531100D03*
G54D14*
G01X12600000Y-7531100D03*
G01X12700000Y-7631100D03*
G01X12600000Y-7631100D03*
G01X12700000Y-7731100D03*
G01X12600000Y-7731100D03*
G01X12700000Y-7831100D03*
G01X12600000Y-7831100D03*
G54D15*
G01X20510500Y-1981200D03*
G01X20510500Y-1481200D03*
G54D10*
G01X893000Y-8515700D03*
G54D11*
G01X1143000Y-8515700D03*
G01X1393000Y-8515700D03*
G54D12*
G01X1583000Y-7815700D03*
G01X703000Y-7815700D03*
G54D10*
G01X13393000Y-3915700D03*
G54D11*
G01X13643000Y-3915700D03*
G01X13893000Y-3915700D03*
G54D12*
G01X14083000Y-3215700D03*
G01X13203000Y-3215700D03*
G54D10*
G01X5893000Y-10815700D03*
G54D11*
G01X6143000Y-10815700D03*
G01X6393000Y-10815700D03*
G54D12*
G01X6583000Y-10115700D03*
G01X5703000Y-10115700D03*
G04 Pad End*

G04 Via Start*
G54D20*
G01X18999200Y-2120900D03*
G01X19100800Y-901700D03*
G01X17007500Y-5118100D03*
G01X15864500Y-7505700D03*
G01X15813700Y-8166100D03*
G01X3984300Y-3792900D03*
G01X3266000Y-3788700D03*
G01X1585900Y-3818300D03*
G01X6453000Y-8109300D03*
G01X4111300Y-8240500D03*
G01X3012000Y-8160100D03*
G01X1484300Y-8392900D03*
G01X7072200Y-9099900D03*
G01X7148400Y-10217500D03*
G01X16052500Y-11000600D03*
G01X4471100Y-1133100D03*
G01X20058000Y-2781300D03*
G01X20464400Y-3187700D03*
G01X254000Y-7257100D03*
G01X12882100Y-7950200D03*
G01X12602700Y-7975600D03*
G01X7857700Y-8072400D03*
G01X7044900Y-8199400D03*
G01X2955500Y-8224800D03*
G01X1939500Y-8148600D03*
G01X3708400Y-8382000D03*
G01X2490800Y-7618400D03*
G01X2719400Y-4839300D03*
G01X2440000Y-7972400D03*
G01X2973400Y-8515700D03*
G01X3632200Y-10307600D03*
G01X11965000Y-7843800D03*
G01X16994200Y-8961400D03*
G01X7728600Y-7652100D03*
G01X7418400Y-7874000D03*
G01X7545400Y-8001000D03*
G01X7489200Y-7356100D03*
G01X7569200Y-7312000D03*
G01X7558100Y-5229200D03*
G01X7177100Y-4848200D03*
G01X8409000Y-8377200D03*
G01X12473000Y-9037600D03*
G01X17172000Y-8885200D03*
G01X18188000Y-9012200D03*
G01X10228600Y-7282500D03*
G01X10756900Y-8431200D03*
G01X10682300Y-8456600D03*
G01X10682300Y-8351800D03*
G01X12485700Y-9418600D03*
G01X16956100Y-9901200D03*
G01X12601600Y-7384100D03*
G01X12627000Y-8250300D03*
G01X12862500Y-8026400D03*
G01X15076500Y-4991100D03*
G01X15913100Y-8366100D03*
G01X15533700Y-8442300D03*
G01X15762300Y-8313700D03*
G01X18251500Y-10015500D03*
G01X6789100Y-3341300D03*
G01X6494600Y-4017300D03*
G01X6992300Y-5311100D03*
G01X6596200Y-6418900D03*
G01X6367600Y-7968300D03*
G01X6789100Y-10241300D03*
G01X6494600Y-10917300D03*
G01X6789100Y-12541300D03*
G01X4493900Y-7587300D03*
G01X4290700Y-7917500D03*
G01X4528000Y-5402900D03*
G01X4289100Y-10241300D03*
G01X4466900Y-12287300D03*
G01X9528000Y-8083900D03*
G01X9593900Y-7702900D03*
G01X9289100Y-12541300D03*
G01X9492300Y-5285700D03*
G01X8639000Y-3585500D03*
G01X9898700Y-3087300D03*
G01X11778300Y-3366700D03*
G01X11981500Y-5220900D03*
G01X12119300Y-10012700D03*
G01X11386500Y-12608800D03*
G01X12728900Y-6383200D03*
G01X13440100Y-6510200D03*
G01X14797100Y-8169900D03*
G01X16295700Y-8347700D03*
G01X16977200Y-9099900D03*
G01X14466900Y-12287300D03*
G01X19685000Y-2400300D03*
G01X19890800Y-1838800D03*
G01X20299300Y-1481200D03*
G01X14997500Y-7992100D03*
G01X16775500Y-7661900D03*
G01X2319700Y-3174900D03*
G01X2370500Y-7797700D03*
G01X2167300Y-8203700D03*
G01X2243500Y-3199900D03*
G01X2167300Y-7800300D03*
G01X2243500Y-10441900D03*
G01X19923500Y-2832100D03*
G04 Via End*

G04 Track Start*
G54D21*
G01X18999200Y-2120900D02*
G01X19126200Y-1993900D01*
G01X19126200Y-927100D01*
G01X19100800Y-901700D01*
G01X17007500Y-5118100D02*
G01X17007500Y-6362700D01*
G01X15864500Y-7505700D01*
G01X15813700Y-8166100D02*
G01X15712100Y-8166100D01*
G01X15229500Y-8648700D01*
G01X15229500Y-11423200D01*
G01X15228000Y-11424700D01*
G01X3515800Y-3792900D02*
G01X3393000Y-3915700D01*
G01X3266000Y-3788700D01*
G01X1585900Y-3818300D02*
G01X1560500Y-3792900D01*
G01X1027100Y-3792900D01*
G01X900100Y-3919900D01*
G01X893000Y-3915700D01*
G01X900100Y-3919900D02*
G01X900100Y-6208600D01*
G01X893000Y-6215700D01*
G01X6453000Y-8109300D02*
G01X6299400Y-8109300D01*
G01X5893000Y-8515700D01*
G01X4111300Y-8240500D02*
G01X3668200Y-8240500D01*
G01X3393000Y-8515700D01*
G01X3367600Y-8515700D01*
G01X3012000Y-8160100D01*
G01X1484300Y-8392900D02*
G01X1027100Y-8392900D01*
G01X900100Y-8519900D01*
G01X893000Y-8515700D01*
G01X7072200Y-9099900D02*
G01X7072200Y-10141300D01*
G01X7148400Y-10217500D01*
G01X7794800Y-10217500D01*
G01X8393000Y-10815700D01*
G01X900100Y-8519900D02*
G01X900100Y-10808600D01*
G01X893000Y-10815700D01*
G01X15893000Y-10841100D02*
G01X15893000Y-10815700D01*
G01X15950900Y-10899000D02*
G01X15950900Y-10901800D01*
G01X15428000Y-11424700D01*
G01X3577900Y-3792900D02*
G01X3577900Y-1873600D01*
G01X3766800Y-1684700D01*
G01X3766800Y-1564900D01*
G01X3690600Y-1488700D01*
G01X3520000Y-1488700D01*
G01X3393000Y-1615700D01*
G01X3766800Y-1564900D02*
G01X4173200Y-1158500D01*
G01X4445700Y-1158500D01*
G01X4471100Y-1133100D01*
G01X20058000Y-2781300D02*
G01X20464400Y-3187700D01*
G01X3643000Y-13115700D02*
G01X3643000Y-11947300D01*
G01X2042800Y-10347100D01*
G01X2042800Y-7924800D01*
G01X1687200Y-7569200D01*
G01X330200Y-7569200D01*
G01X254000Y-7645400D01*
G01X1143000Y-1615700D02*
G01X154000Y-2604700D01*
G01X154000Y-7645400D01*
G01X1143000Y-6215700D02*
G01X1143000Y-6368100D01*
G01X254000Y-7257100D01*
G01X1143000Y-10815700D02*
G01X1016000Y-10942700D01*
G01X787400Y-10942700D01*
G01X76200Y-10231500D01*
G01X76200Y-7923200D01*
G01X154000Y-7845400D01*
G01X20400500Y-9042400D02*
G01X20400500Y-9692400D01*
G01X20400500Y-9042400D02*
G01X19409900Y-8051800D01*
G01X12983700Y-8051800D01*
G01X12882100Y-7950200D01*
G01X12602700Y-7975600D02*
G01X12348700Y-8229600D01*
G01X8014900Y-8229600D01*
G01X7857700Y-8072400D01*
G01X7044900Y-8199400D02*
G01X6587700Y-8656600D01*
G01X5800300Y-8656600D01*
G01X5241500Y-8097800D01*
G01X2980900Y-8097800D01*
G01X2930100Y-8148600D01*
G01X2930100Y-8199400D01*
G01X2955500Y-8224800D01*
G01X1939500Y-8148600D02*
G01X357200Y-8148600D01*
G01X154000Y-7945400D01*
G01X3708400Y-8382000D02*
G01X3937000Y-8382000D01*
G01X5511800Y-9956800D01*
G01X5511800Y-10287000D01*
G01X5918200Y-10693400D01*
G01X6020700Y-10693400D01*
G01X6143000Y-10815700D01*
G01X2592400Y-7620000D02*
G01X2516200Y-7696200D01*
G01X2516200Y-7975600D01*
G01X6143000Y-11602400D01*
G01X6143000Y-13115700D01*
G01X3643000Y-1615700D02*
G01X2779400Y-2479300D01*
G01X2779400Y-7658400D01*
G01X2717800Y-7720000D01*
G01X2692400Y-7720000D01*
G01X2490800Y-7618400D02*
G01X2490800Y-5067900D01*
G01X2719400Y-4839300D01*
G01X2692400Y-7820000D02*
G01X3643000Y-6869400D01*
G01X3643000Y-6215700D01*
G01X2440000Y-7972400D02*
G01X2440000Y-7982300D01*
G01X2973400Y-8515700D01*
G01X3632200Y-10307600D02*
G01X3632200Y-10804900D01*
G01X3643000Y-10815700D01*
G01X2592400Y-7920000D02*
G01X2719400Y-8047000D01*
G01X6859600Y-8047000D01*
G01X7469200Y-7437400D01*
G01X8180400Y-7437400D01*
G01X8917000Y-8174000D01*
G01X11634800Y-8174000D01*
G01X11965000Y-7843800D01*
G01X16994200Y-8961400D02*
G01X18111800Y-10079000D01*
G01X18823000Y-10079000D01*
G01X19244808Y-9657192D01*
G01X19244808Y-9649192D01*
G01X19331000Y-9563000D01*
G01X20044900Y-9563000D01*
G01X20400500Y-9918600D01*
G01X20400500Y-10568600D01*
G01X7728600Y-7652100D02*
G01X7594600Y-7518400D01*
G01X7494600Y-7518400D02*
G01X7418400Y-7594600D01*
G01X7418400Y-7874000D01*
G01X7545400Y-8001000D02*
G01X8643000Y-9098600D01*
G01X8643000Y-10815700D01*
G01X8643000Y-13115700D02*
G01X8770000Y-12988700D01*
G01X8770000Y-9153300D01*
G01X7677800Y-8061100D01*
G01X7677800Y-7701600D01*
G01X7594600Y-7618400D01*
G01X6143000Y-1615700D02*
G01X7489200Y-2961900D01*
G01X7489200Y-7356100D01*
G01X7569200Y-7312000D02*
G01X7569200Y-5240300D01*
G01X7558100Y-5229200D01*
G01X7177100Y-4848200D02*
G01X7075500Y-4848200D01*
G01X6143000Y-3915700D01*
G01X6143000Y-8515700D02*
G01X6549400Y-8109300D01*
G01X7303700Y-8109300D01*
G01X7594600Y-7818400D01*
G01X8409000Y-8377200D02*
G01X8510600Y-8275600D01*
G01X11711000Y-8275600D01*
G01X12473000Y-9037600D01*
G01X17172000Y-8885200D02*
G01X18061000Y-8885200D01*
G01X18188000Y-9012200D01*
G01X10228600Y-7282500D02*
G01X10228600Y-7487900D01*
G01X10223500Y-7493000D01*
G01X10756900Y-8431200D02*
G01X10756900Y-9625000D01*
G01X11137900Y-10006000D01*
G01X11137900Y-10810600D01*
G01X11143000Y-10815700D01*
G01X10682300Y-8456600D02*
G01X10682300Y-9625000D01*
G01X11012500Y-9955200D01*
G01X11012500Y-12985200D01*
G01X11143000Y-13115700D01*
G01X10223500Y-7693000D02*
G01X10299700Y-7616800D01*
G01X10299700Y-5153000D01*
G01X8643000Y-3496300D01*
G01X8643000Y-1615700D01*
G01X10123500Y-7693000D02*
G01X8761892Y-6331392D01*
G01X8761892Y-4034592D01*
G01X8643000Y-3915700D01*
G01X8643000Y-6215700D02*
G01X8643000Y-6415700D01*
G01X10094000Y-7866700D01*
G01X10149800Y-7866700D01*
G01X10223500Y-7793000D01*
G01X10682300Y-8351800D02*
G01X11418900Y-8351800D01*
G01X12485700Y-9418600D01*
G01X16956100Y-9901200D02*
G01X17176700Y-10121800D01*
G01X19158800Y-10121800D01*
G01X19362000Y-9918600D01*
G01X19362000Y-10568600D01*
G01X12700000Y-7531100D02*
G01X13524700Y-6706400D01*
G01X13524700Y-4034000D01*
G01X13643000Y-3915700D01*
G01X12601600Y-7384100D02*
G01X12601600Y-7529500D01*
G01X12600000Y-7531100D01*
G01X13643000Y-10815700D02*
G01X13643000Y-9266300D01*
G01X12627000Y-8250300D01*
G01X13643000Y-13115700D02*
G01X13643000Y-11363100D01*
G01X12550800Y-10270900D01*
G01X12550800Y-8111900D01*
G01X12779400Y-7883300D01*
G01X12779400Y-7810500D01*
G01X12700000Y-7731100D01*
G01X11143000Y-1615700D02*
G01X12514600Y-2987300D01*
G01X12514600Y-7645700D01*
G01X12600000Y-7731100D01*
G01X11143000Y-3915700D02*
G01X12467600Y-5240300D01*
G01X12467600Y-7801900D01*
G01X12569200Y-7903500D01*
G01X12627600Y-7903500D01*
G01X12700000Y-7831100D01*
G01X18323500Y-9042400D02*
G01X18323500Y-9692400D01*
G01X18323500Y-9042400D02*
G01X17383700Y-8102600D01*
G01X12938700Y-8102600D01*
G01X12862500Y-8026400D01*
G01X16143000Y-1615700D02*
G01X15151100Y-2607600D01*
G01X15151100Y-7556500D01*
G01X15051100Y-7556500D02*
G01X15051100Y-5016500D01*
G01X15076500Y-4991100D01*
G01X15151100Y-7656500D02*
G01X15176500Y-7656500D01*
G01X16141700Y-6691300D01*
G01X16141700Y-6217000D01*
G01X16143000Y-6215700D01*
G01X15913100Y-8366100D02*
G01X15963900Y-8366100D01*
G01X16014700Y-8416900D01*
G01X16014700Y-8823300D01*
G01X16141700Y-8950300D01*
G01X16141700Y-10814400D01*
G01X16143000Y-10815700D01*
G01X15533700Y-8442300D02*
G01X16016300Y-8924900D01*
G01X16016300Y-10880700D01*
G01X16143000Y-11007400D01*
G01X16143000Y-13115700D01*
G01X13643000Y-1615700D02*
G01X14963800Y-2936500D01*
G01X14963800Y-7881900D01*
G01X15014600Y-7932700D01*
G01X15074900Y-7932700D01*
G01X15151100Y-7856500D01*
G01X15762300Y-8313700D02*
G01X15787700Y-8288300D01*
G01X16473500Y-8288300D01*
G01X18099100Y-9913900D01*
G01X18318800Y-9913900D02*
G01X18323500Y-9918600D01*
G01X18276900Y-9913900D02*
G01X18276900Y-9990100D01*
G01X18251500Y-10015500D01*
G01X6789100Y-3341300D02*
G01X6789100Y-3519600D01*
G01X6393000Y-3915700D01*
G01X6494600Y-4017300D01*
G01X6992300Y-5311100D02*
G01X6992300Y-5616400D01*
G01X6393000Y-6215700D01*
G01X6596200Y-6418900D01*
G01X6596200Y-7307900D01*
G01X6393000Y-7511100D01*
G01X6393000Y-7942900D02*
G01X6367600Y-7968300D01*
G01X6789100Y-10241300D02*
G01X6789100Y-10419600D01*
G01X6393000Y-10815700D01*
G01X6494600Y-10917300D01*
G01X6789100Y-12541300D02*
G01X6789100Y-12719600D01*
G01X6393000Y-13115700D01*
G01X6393000Y-7587300D02*
G01X4493900Y-7587300D01*
G01X4493900Y-7714300D01*
G01X4290700Y-7917500D01*
G01X4493900Y-7587300D02*
G01X4493900Y-6816600D01*
G01X3893000Y-6215700D01*
G01X4528000Y-5580700D01*
G01X4528000Y-5402900D01*
G01X4289100Y-10241300D02*
G01X4289100Y-10419600D01*
G01X3893000Y-10815700D01*
G01X4466900Y-12287300D02*
G01X4466900Y-12541800D01*
G01X3893000Y-13115700D01*
G01X9528000Y-8083900D02*
G01X9528000Y-7768800D01*
G01X9593900Y-7702900D01*
G01X9289100Y-12541300D02*
G01X9289100Y-12719600D01*
G01X8893000Y-13115700D01*
G01X9492300Y-5285700D02*
G01X9492300Y-4515000D01*
G01X8893000Y-3915700D01*
G01X8893000Y-3839500D01*
G01X8639000Y-3585500D01*
G01X9898700Y-3087300D02*
G01X10584500Y-3773100D01*
G01X10965500Y-3773100D01*
G01X10990900Y-3798500D01*
G01X11117900Y-3798500D02*
G01X11143300Y-3773100D01*
G01X11168700Y-3773100D01*
G01X11311300Y-3915700D02*
G01X11393000Y-3915700D01*
G01X11219500Y-3823900D02*
G01X11321100Y-3823900D01*
G01X11778300Y-3366700D01*
G01X11016300Y-3798500D02*
G01X11016300Y-4255700D01*
G01X11981500Y-5220900D01*
G01X12119300Y-10012700D02*
G01X12119300Y-10089400D01*
G01X11393000Y-10815700D01*
G01X11386500Y-12608800D02*
G01X11386500Y-13109200D01*
G01X11393000Y-13115700D01*
G01X12728900Y-6383200D02*
G01X13313100Y-6383200D01*
G01X13440100Y-6510200D01*
G01X14797100Y-8169900D02*
G01X14238800Y-8169900D01*
G01X13893000Y-8515700D01*
G01X16295700Y-8347700D02*
G01X16295700Y-8418400D01*
G01X16393000Y-8515700D01*
G01X16977200Y-9099900D01*
G01X14466900Y-12287300D02*
G01X14466900Y-12541800D01*
G01X13893000Y-13115700D01*
G01X14466900Y-12287300D02*
G01X15422300Y-13242700D01*
G01X16266000Y-13242700D01*
G01X16393000Y-13115700D01*
G01X19685000Y-2400300D02*
G01X19685000Y-2171600D01*
G01X19789200Y-2067400D01*
G01X19789200Y-1940400D01*
G01X19890800Y-1838800D01*
G01X20299300Y-1481200D02*
G01X20510500Y-1481200D01*
G01X20510500Y-1003300D01*
G01X20866100Y-647700D01*
G01X14997500Y-7992100D02*
G01X15175300Y-7992100D01*
G01X15581700Y-7585700D01*
G01X16699300Y-7585700D01*
G01X16775500Y-7661900D01*
G01X2319700Y-3174900D02*
G01X2319700Y-7746900D01*
G01X2370500Y-7797700D01*
G01X2167300Y-8203700D02*
G01X2243500Y-8127500D01*
G01X2243500Y-3199900D01*
G01X2167300Y-7800300D02*
G01X2091100Y-7876500D01*
G01X2091100Y-10289500D01*
G01X2243500Y-10441900D01*
G01X19923500Y-2832100D02*
G01X19898100Y-2806700D01*
G01X19898100Y-2578100D01*
G01X19974300Y-2501900D01*
G01X19974300Y-1790700D01*
G01X19847300Y-1663700D01*
G01X19847300Y-1247400D01*
G01X19977100Y-1117600D01*
G01X19697700Y-838200D01*
G01X18103500Y-838200D01*
G01X18022000Y-756700D01*
G01X3984300Y-3792900D02*
G01X3577900Y-3792900D01*
G01X3515800Y-3792900D01*
G01X16052500Y-11000600D02*
G01X15950900Y-10899000D01*
G01X15893000Y-10841100D01*
G01X18099100Y-9913900D02*
G01X18276900Y-9913900D01*
G01X18318800Y-9913900D01*
G01X6393000Y-7511100D02*
G01X6393000Y-7587300D01*
G01X6393000Y-7942900D01*
G01X10990900Y-3798500D02*
G01X11016300Y-3798500D01*
G01X11117900Y-3798500D01*
G01X11168700Y-3773100D02*
G01X11219500Y-3823900D01*
G01X11311300Y-3915700D01*
G04 Track End*

M02*

