G04 Layer: BottomSilkscreenLayer*
G04 EasyEDA Pro v2.2.35.2, 2025-01-29 23:55:29*
G04 Gerber Generator version 0.3*
G04 Scale: 100 percent, Rotated: No, Reflected: No*
G04 Dimensions in millimeters*
G04 Leading zeros omitted, absolute positions, 4 integers and 5 decimals*
%FSLAX45Y45*%
%MOMM*%
%ADD10C,0.15*%
%ADD11C,0.12*%
G75*


G04 Text Start*
G54D10*
G01X2661644Y-7432212D02*
G01X2661644Y-7474630D01*
G01X2664184Y-7482504D01*
G01X2666978Y-7485298D01*
G01X2672312Y-7487838D01*
G01X2677646Y-7487838D01*
G01X2682980Y-7485298D01*
G01X2685520Y-7482504D01*
G01X2688060Y-7474630D01*
G01X2688060Y-7469296D01*
G01X2628624Y-7432212D02*
G01X2599414Y-7432212D01*
G01X2615416Y-7453294D01*
G01X2607288Y-7453294D01*
G01X2601954Y-7456088D01*
G01X2599414Y-7458628D01*
G01X2596620Y-7466756D01*
G01X2596620Y-7472090D01*
G01X2599414Y-7479964D01*
G01X2604748Y-7485298D01*
G01X2612622Y-7487838D01*
G01X2620496Y-7487838D01*
G01X2628624Y-7485298D01*
G01X2631164Y-7482504D01*
G01X2633958Y-7477170D01*
G01X10191347Y-7305212D02*
G01X10191347Y-7347630D01*
G01X10193887Y-7355504D01*
G01X10196681Y-7358298D01*
G01X10202015Y-7360838D01*
G01X10207349Y-7360838D01*
G01X10212683Y-7358298D01*
G01X10215223Y-7355504D01*
G01X10217763Y-7347630D01*
G01X10217763Y-7342296D01*
G01X10131657Y-7313086D02*
G01X10134451Y-7307752D01*
G01X10142325Y-7305212D01*
G01X10147659Y-7305212D01*
G01X10155533Y-7307752D01*
G01X10160867Y-7315626D01*
G01X10163661Y-7329088D01*
G01X10163661Y-7342296D01*
G01X10160867Y-7352964D01*
G01X10155533Y-7358298D01*
G01X10147659Y-7360838D01*
G01X10145119Y-7360838D01*
G01X10136991Y-7358298D01*
G01X10131657Y-7352964D01*
G01X10129117Y-7345090D01*
G01X10129117Y-7342296D01*
G01X10131657Y-7334422D01*
G01X10136991Y-7329088D01*
G01X10145119Y-7326294D01*
G01X10147659Y-7326294D01*
G01X10155533Y-7329088D01*
G01X10160867Y-7334422D01*
G01X10163661Y-7342296D01*
G01X7563844Y-7330612D02*
G01X7563844Y-7373030D01*
G01X7566384Y-7380904D01*
G01X7569178Y-7383698D01*
G01X7574512Y-7386238D01*
G01X7579846Y-7386238D01*
G01X7585180Y-7383698D01*
G01X7587720Y-7380904D01*
G01X7590260Y-7373030D01*
G01X7590260Y-7367696D01*
G01X7504154Y-7330612D02*
G01X7530824Y-7330612D01*
G01X7533364Y-7354488D01*
G01X7530824Y-7351694D01*
G01X7522696Y-7349154D01*
G01X7514822Y-7349154D01*
G01X7506948Y-7351694D01*
G01X7501614Y-7357028D01*
G01X7498820Y-7365156D01*
G01X7498820Y-7370490D01*
G01X7501614Y-7378364D01*
G01X7506948Y-7383698D01*
G01X7514822Y-7386238D01*
G01X7522696Y-7386238D01*
G01X7530824Y-7383698D01*
G01X7533364Y-7380904D01*
G01X7536158Y-7375570D01*
G01X15120344Y-7368712D02*
G01X15120344Y-7411130D01*
G01X15122884Y-7419004D01*
G01X15125678Y-7421798D01*
G01X15131012Y-7424338D01*
G01X15136346Y-7424338D01*
G01X15141680Y-7421798D01*
G01X15144220Y-7419004D01*
G01X15146760Y-7411130D01*
G01X15146760Y-7405796D01*
G01X15079196Y-7368712D02*
G01X15087324Y-7371252D01*
G01X15089864Y-7376586D01*
G01X15089864Y-7381920D01*
G01X15087324Y-7387254D01*
G01X15081990Y-7389794D01*
G01X15071322Y-7392588D01*
G01X15063448Y-7395128D01*
G01X15058114Y-7400462D01*
G01X15055320Y-7405796D01*
G01X15055320Y-7413670D01*
G01X15058114Y-7419004D01*
G01X15060654Y-7421798D01*
G01X15068782Y-7424338D01*
G01X15079196Y-7424338D01*
G01X15087324Y-7421798D01*
G01X15089864Y-7419004D01*
G01X15092658Y-7413670D01*
G01X15092658Y-7405796D01*
G01X15089864Y-7400462D01*
G01X15084530Y-7395128D01*
G01X15076656Y-7392588D01*
G01X15065988Y-7389794D01*
G01X15060654Y-7387254D01*
G01X15058114Y-7381920D01*
G01X15058114Y-7376586D01*
G01X15060654Y-7371252D01*
G01X15068782Y-7368712D01*
G01X15079196Y-7368712D01*
G01X15103788Y-11445214D02*
G01X15061370Y-11445214D01*
G01X15053496Y-11447754D01*
G01X15050702Y-11450548D01*
G01X15048162Y-11455882D01*
G01X15048162Y-11461216D01*
G01X15050702Y-11466550D01*
G01X15053496Y-11469090D01*
G01X15061370Y-11471630D01*
G01X15066704Y-11471630D01*
G01X15103788Y-11390858D02*
G01X15066704Y-11417528D01*
G01X15066704Y-11377650D01*
G01X15103788Y-11390858D02*
G01X15048162Y-11390858D01*
G01X211306Y-7457612D02*
G01X211306Y-7500030D01*
G01X213846Y-7507904D01*
G01X216640Y-7510698D01*
G01X221974Y-7513238D01*
G01X227308Y-7513238D01*
G01X232642Y-7510698D01*
G01X235182Y-7507904D01*
G01X237722Y-7500030D01*
G01X237722Y-7494696D01*
G01X183620Y-7468026D02*
G01X178286Y-7465486D01*
G01X170158Y-7457612D01*
G01X170158Y-7513238D01*
G01X17897788Y-775944D02*
G01X17855370Y-775944D01*
G01X17847496Y-778484D01*
G01X17844702Y-781278D01*
G01X17842162Y-786612D01*
G01X17842162Y-791946D01*
G01X17844702Y-797280D01*
G01X17847496Y-799820D01*
G01X17855370Y-802360D01*
G01X17860704Y-802360D01*
G01X17884580Y-745464D02*
G01X17887374Y-745464D01*
G01X17892454Y-742924D01*
G01X17895248Y-740130D01*
G01X17897788Y-734796D01*
G01X17897788Y-724382D01*
G01X17895248Y-719048D01*
G01X17892454Y-716254D01*
G01X17887374Y-713714D01*
G01X17882040Y-713714D01*
G01X17876706Y-716254D01*
G01X17868578Y-721588D01*
G01X17842162Y-748258D01*
G01X17842162Y-710920D01*
G01X12669244Y-7343312D02*
G01X12669244Y-7385730D01*
G01X12671784Y-7393604D01*
G01X12674578Y-7396398D01*
G01X12679912Y-7398938D01*
G01X12685246Y-7398938D01*
G01X12690580Y-7396398D01*
G01X12693120Y-7393604D01*
G01X12695660Y-7385730D01*
G01X12695660Y-7380396D01*
G01X12604220Y-7343312D02*
G01X12630890Y-7398938D01*
G01X12641558Y-7343312D02*
G01X12604220Y-7343312D01*
G04 Text End*

G04 PolygonModel Start*
G54D11*
G01X2763400Y-7976000D02*
G01X2731849Y-7976000D01*
G01X2552951Y-7976000D02*
G01X2521400Y-7976000D01*
G01X2763400Y-7620000D02*
G01X2763400Y-7551500D01*
G01X2763400Y-7688500D02*
G01X2753228Y-7688500D01*
G01X2552951Y-7564000D02*
G01X2521400Y-7564000D01*
G01X2652951Y-7976000D02*
G01X2631849Y-7976000D01*
G01X2763400Y-7551500D02*
G01X2692400Y-7551500D01*
G01X2521400Y-7564000D02*
G01X2521400Y-7976000D01*
G01X2763400Y-7688500D02*
G01X2763400Y-7976000D01*
G01X10294500Y-7849000D02*
G01X10262949Y-7849000D01*
G01X10052500Y-7437000D02*
G01X10052500Y-7849000D01*
G01X10184051Y-7849000D02*
G01X10162949Y-7849000D01*
G01X10084051Y-7849000D02*
G01X10052500Y-7849000D01*
G01X10294500Y-7561500D02*
G01X10284328Y-7561500D01*
G01X10294500Y-7493000D02*
G01X10294500Y-7424500D01*
G01X10294500Y-7424500D02*
G01X10223500Y-7424500D01*
G01X10084051Y-7437000D02*
G01X10052500Y-7437000D01*
G01X10294500Y-7561500D02*
G01X10294500Y-7849000D01*
G01X7665600Y-7874400D02*
G01X7634049Y-7874400D01*
G01X7423600Y-7462400D02*
G01X7423600Y-7874400D01*
G01X7555151Y-7874400D02*
G01X7534049Y-7874400D01*
G01X7455151Y-7874400D02*
G01X7423600Y-7874400D01*
G01X7665600Y-7586900D02*
G01X7655428Y-7586900D01*
G01X7665600Y-7518400D02*
G01X7665600Y-7449900D01*
G01X7665600Y-7449900D02*
G01X7594600Y-7449900D01*
G01X7455151Y-7462400D02*
G01X7423600Y-7462400D01*
G01X7665600Y-7586900D02*
G01X7665600Y-7874400D01*
G01X15222100Y-7625000D02*
G01X15222100Y-7912500D01*
G01X15222100Y-7556500D02*
G01X15222100Y-7488000D01*
G01X15011651Y-7500500D02*
G01X14980100Y-7500500D01*
G01X15222100Y-7488000D02*
G01X15151100Y-7488000D01*
G01X15011651Y-7912500D02*
G01X14980100Y-7912500D01*
G01X15111651Y-7912500D02*
G01X15090549Y-7912500D01*
G01X15222100Y-7912500D02*
G01X15190549Y-7912500D01*
G01X15222100Y-7625000D02*
G01X15211928Y-7625000D01*
G01X14980100Y-7500500D02*
G01X14980100Y-7912500D01*
G01X15296500Y-11494200D02*
G01X15484000Y-11494200D01*
G01X15296500Y-11355200D02*
G01X15296500Y-11363872D01*
G01X15296500Y-11485528D02*
G01X15296500Y-11494200D01*
G01X15296500Y-11355200D02*
G01X15484000Y-11355200D01*
G01X15484000Y-11355200D02*
G01X15484000Y-11385251D01*
G01X15159500Y-11355200D02*
G01X15159500Y-11424700D01*
G01X15484000Y-11464149D02*
G01X15484000Y-11494200D01*
G01X15228000Y-11355200D02*
G01X15159500Y-11355200D01*
G01X325000Y-8001400D02*
G01X293449Y-8001400D01*
G01X114551Y-8001400D02*
G01X83000Y-8001400D01*
G01X325000Y-7645400D02*
G01X325000Y-7576900D01*
G01X325000Y-7713900D02*
G01X314828Y-7713900D01*
G01X114551Y-7589400D02*
G01X83000Y-7589400D01*
G01X214551Y-8001400D02*
G01X193449Y-8001400D01*
G01X325000Y-7576900D02*
G01X254000Y-7576900D01*
G01X83000Y-7589400D02*
G01X83000Y-8001400D01*
G01X325000Y-7713900D02*
G01X325000Y-8001400D01*
G01X18090500Y-687200D02*
G01X18278000Y-687200D01*
G01X18022000Y-687200D02*
G01X17953500Y-687200D01*
G01X17953500Y-687200D02*
G01X17953500Y-756700D01*
G01X18278000Y-687200D02*
G01X18278000Y-717251D01*
G01X18090500Y-826200D02*
G01X18278000Y-826200D01*
G01X18090500Y-817528D02*
G01X18090500Y-826200D01*
G01X18278000Y-796149D02*
G01X18278000Y-826200D01*
G01X18090500Y-687200D02*
G01X18090500Y-695872D01*
G01X12771000Y-7599600D02*
G01X12771000Y-7887100D01*
G01X12771000Y-7531100D02*
G01X12771000Y-7462600D01*
G01X12560551Y-7475100D02*
G01X12529000Y-7475100D01*
G01X12771000Y-7462600D02*
G01X12700000Y-7462600D01*
G01X12560551Y-7887100D02*
G01X12529000Y-7887100D01*
G01X12660551Y-7887100D02*
G01X12639449Y-7887100D01*
G01X12771000Y-7887100D02*
G01X12739449Y-7887100D01*
G01X12771000Y-7599600D02*
G01X12760828Y-7599600D01*
G01X12529000Y-7475100D02*
G01X12529000Y-7887100D01*

M02*

