G04 Layer: TopSilkscreenLayer*
G04 EasyEDA Pro v2.2.35.2, 2025-01-29 23:55:29*
G04 Gerber Generator version 0.3*
G04 Scale: 100 percent, Rotated: No, Reflected: No*
G04 Dimensions in millimeters*
G04 Leading zeros omitted, absolute positions, 4 integers and 5 decimals*
%FSLAX45Y45*%
%MOMM*%
%ADD10C,0.15*%
%ADD11C,0.12*%
%ADD12C,0.1*%
G75*


G04 Text Start*
G54D10*
G01X7399212Y-3242809D02*
G01X7454838Y-3242809D01*
G01X7399212Y-3242809D02*
G01X7399212Y-3224267D01*
G01X7401752Y-3216393D01*
G01X7407086Y-3211059D01*
G01X7412420Y-3208519D01*
G01X7420294Y-3205725D01*
G01X7433756Y-3205725D01*
G01X7441630Y-3208519D01*
G01X7446964Y-3211059D01*
G01X7452298Y-3216393D01*
G01X7454838Y-3224267D01*
G01X7454838Y-3242809D01*
G01X7412420Y-3175245D02*
G01X7409626Y-3175245D01*
G01X7404546Y-3172705D01*
G01X7401752Y-3169911D01*
G01X7399212Y-3164577D01*
G01X7399212Y-3154163D01*
G01X7401752Y-3148829D01*
G01X7404546Y-3146035D01*
G01X7409626Y-3143495D01*
G01X7414960Y-3143495D01*
G01X7420294Y-3146035D01*
G01X7428422Y-3151369D01*
G01X7454838Y-3178039D01*
G01X7454838Y-3140701D01*
G01X7407086Y-3081011D02*
G01X7401752Y-3083805D01*
G01X7399212Y-3091679D01*
G01X7399212Y-3097013D01*
G01X7401752Y-3104887D01*
G01X7409626Y-3110221D01*
G01X7423088Y-3113015D01*
G01X7436296Y-3113015D01*
G01X7446964Y-3110221D01*
G01X7452298Y-3104887D01*
G01X7454838Y-3097013D01*
G01X7454838Y-3094473D01*
G01X7452298Y-3086345D01*
G01X7446964Y-3081011D01*
G01X7439090Y-3078471D01*
G01X7436296Y-3078471D01*
G01X7428422Y-3081011D01*
G01X7423088Y-3086345D01*
G01X7420294Y-3094473D01*
G01X7420294Y-3097013D01*
G01X7423088Y-3104887D01*
G01X7428422Y-3110221D01*
G01X7436296Y-3113015D01*
G01X10346212Y-5682268D02*
G01X10401838Y-5682268D01*
G01X10346212Y-5682268D02*
G01X10346212Y-5658392D01*
G01X10348752Y-5650518D01*
G01X10351546Y-5647978D01*
G01X10356626Y-5645184D01*
G01X10361960Y-5645184D01*
G01X10367294Y-5647978D01*
G01X10370088Y-5650518D01*
G01X10372628Y-5658392D01*
G01X10372628Y-5682268D01*
G01X10372628Y-5663726D02*
G01X10401838Y-5645184D01*
G01X10356626Y-5617498D02*
G01X10354086Y-5612164D01*
G01X10346212Y-5604036D01*
G01X10401838Y-5604036D01*
G01X10346212Y-5544346D02*
G01X10346212Y-5571016D01*
G01X10370088Y-5573556D01*
G01X10367294Y-5571016D01*
G01X10364754Y-5562888D01*
G01X10364754Y-5555014D01*
G01X10367294Y-5547140D01*
G01X10372628Y-5541806D01*
G01X10380756Y-5539012D01*
G01X10386090Y-5539012D01*
G01X10393964Y-5541806D01*
G01X10399298Y-5547140D01*
G01X10401838Y-5555014D01*
G01X10401838Y-5562888D01*
G01X10399298Y-5571016D01*
G01X10396504Y-5573556D01*
G01X10391170Y-5576350D01*
G01X15346212Y-7962964D02*
G01X15401838Y-7962964D01*
G01X15346212Y-7962964D02*
G01X15346212Y-7939088D01*
G01X15348752Y-7931214D01*
G01X15351546Y-7928674D01*
G01X15356626Y-7925880D01*
G01X15361960Y-7925880D01*
G01X15367294Y-7928674D01*
G01X15370088Y-7931214D01*
G01X15372628Y-7939088D01*
G01X15372628Y-7962964D01*
G01X15372628Y-7944422D02*
G01X15401838Y-7925880D01*
G01X15346212Y-7871524D02*
G01X15383296Y-7898194D01*
G01X15383296Y-7858316D01*
G01X15346212Y-7871524D02*
G01X15401838Y-7871524D01*
G01X19489532Y-3823112D02*
G01X19489532Y-3878738D01*
G01X19489532Y-3823112D02*
G01X19508074Y-3823112D01*
G01X19515948Y-3825652D01*
G01X19521282Y-3830986D01*
G01X19523822Y-3836320D01*
G01X19526616Y-3844194D01*
G01X19526616Y-3857656D01*
G01X19523822Y-3865530D01*
G01X19521282Y-3870864D01*
G01X19515948Y-3876198D01*
G01X19508074Y-3878738D01*
G01X19489532Y-3878738D01*
G01X19591640Y-3830986D02*
G01X19586306Y-3825652D01*
G01X19578178Y-3823112D01*
G01X19567764Y-3823112D01*
G01X19559636Y-3825652D01*
G01X19554302Y-3830986D01*
G01X19554302Y-3836320D01*
G01X19557096Y-3841654D01*
G01X19559636Y-3844194D01*
G01X19564970Y-3846988D01*
G01X19580972Y-3852322D01*
G01X19586306Y-3854862D01*
G01X19588846Y-3857656D01*
G01X19591640Y-3862990D01*
G01X19591640Y-3870864D01*
G01X19586306Y-3876198D01*
G01X19578178Y-3878738D01*
G01X19567764Y-3878738D01*
G01X19559636Y-3876198D01*
G01X19554302Y-3870864D01*
G01X19619326Y-3833526D02*
G01X19624660Y-3830986D01*
G01X19632788Y-3823112D01*
G01X19632788Y-3878738D01*
G01X12399212Y-932268D02*
G01X12454838Y-932268D01*
G01X12399212Y-932268D02*
G01X12399212Y-913726D01*
G01X12401752Y-905852D01*
G01X12407086Y-900518D01*
G01X12412420Y-897978D01*
G01X12420294Y-895184D01*
G01X12433756Y-895184D01*
G01X12441630Y-897978D01*
G01X12446964Y-900518D01*
G01X12452298Y-905852D01*
G01X12454838Y-913726D01*
G01X12454838Y-932268D01*
G01X12409626Y-867498D02*
G01X12407086Y-862164D01*
G01X12399212Y-854036D01*
G01X12454838Y-854036D01*
G01X12399212Y-821016D02*
G01X12399212Y-791806D01*
G01X12420294Y-807808D01*
G01X12420294Y-799680D01*
G01X12423088Y-794346D01*
G01X12425628Y-791806D01*
G01X12433756Y-789012D01*
G01X12439090Y-789012D01*
G01X12446964Y-791806D01*
G01X12452298Y-797140D01*
G01X12454838Y-805014D01*
G01X12454838Y-812888D01*
G01X12452298Y-821016D01*
G01X12449504Y-823556D01*
G01X12444170Y-826350D01*
G01X12222126Y-517244D02*
G01X12219586Y-512164D01*
G01X12211712Y-504036D01*
G01X12267338Y-504036D01*
G01X5346212Y-1094206D02*
G01X5401838Y-1094206D01*
G01X5346212Y-1094206D02*
G01X5346212Y-1070330D01*
G01X5348752Y-1062456D01*
G01X5351546Y-1059916D01*
G01X5356626Y-1057122D01*
G01X5361960Y-1057122D01*
G01X5367294Y-1059916D01*
G01X5370088Y-1062456D01*
G01X5372628Y-1070330D01*
G01X5372628Y-1094206D01*
G01X5372628Y-1075664D02*
G01X5401838Y-1057122D01*
G01X5359420Y-1026642D02*
G01X5356626Y-1026642D01*
G01X5351546Y-1024102D01*
G01X5348752Y-1021308D01*
G01X5346212Y-1015974D01*
G01X5346212Y-1005560D01*
G01X5348752Y-1000226D01*
G01X5351546Y-997432D01*
G01X5356626Y-994892D01*
G01X5361960Y-994892D01*
G01X5367294Y-997432D01*
G01X5375422Y-1002766D01*
G01X5401838Y-1029436D01*
G01X5401838Y-992098D01*
G01X5346212Y-932408D02*
G01X5346212Y-959078D01*
G01X5370088Y-961618D01*
G01X5367294Y-959078D01*
G01X5364754Y-950950D01*
G01X5364754Y-943076D01*
G01X5367294Y-935202D01*
G01X5372628Y-929868D01*
G01X5380756Y-927074D01*
G01X5386090Y-927074D01*
G01X5393964Y-929868D01*
G01X5399298Y-935202D01*
G01X5401838Y-943076D01*
G01X5401838Y-950950D01*
G01X5399298Y-959078D01*
G01X5396504Y-961618D01*
G01X5391170Y-964412D01*
G01X7846212Y-7994206D02*
G01X7901838Y-7994206D01*
G01X7846212Y-7994206D02*
G01X7846212Y-7970330D01*
G01X7848752Y-7962456D01*
G01X7851546Y-7959916D01*
G01X7856626Y-7957122D01*
G01X7861960Y-7957122D01*
G01X7867294Y-7959916D01*
G01X7870088Y-7962456D01*
G01X7872628Y-7970330D01*
G01X7872628Y-7994206D01*
G01X7872628Y-7975664D02*
G01X7901838Y-7957122D01*
G01X7859420Y-7926642D02*
G01X7856626Y-7926642D01*
G01X7851546Y-7924102D01*
G01X7848752Y-7921308D01*
G01X7846212Y-7915974D01*
G01X7846212Y-7905560D01*
G01X7848752Y-7900226D01*
G01X7851546Y-7897432D01*
G01X7856626Y-7894892D01*
G01X7861960Y-7894892D01*
G01X7867294Y-7897432D01*
G01X7875422Y-7902766D01*
G01X7901838Y-7929436D01*
G01X7901838Y-7892098D01*
G01X7859420Y-7861618D02*
G01X7856626Y-7861618D01*
G01X7851546Y-7859078D01*
G01X7848752Y-7856284D01*
G01X7846212Y-7850950D01*
G01X7846212Y-7840536D01*
G01X7848752Y-7835202D01*
G01X7851546Y-7832408D01*
G01X7856626Y-7829868D01*
G01X7861960Y-7829868D01*
G01X7867294Y-7832408D01*
G01X7875422Y-7837742D01*
G01X7901838Y-7864412D01*
G01X7901838Y-7827074D01*
G01X4899212Y-932268D02*
G01X4954838Y-932268D01*
G01X4899212Y-932268D02*
G01X4899212Y-913726D01*
G01X4901752Y-905852D01*
G01X4907086Y-900518D01*
G01X4912420Y-897978D01*
G01X4920294Y-895184D01*
G01X4933756Y-895184D01*
G01X4941630Y-897978D01*
G01X4946964Y-900518D01*
G01X4952298Y-905852D01*
G01X4954838Y-913726D01*
G01X4954838Y-932268D01*
G01X4899212Y-862164D02*
G01X4899212Y-832954D01*
G01X4920294Y-848956D01*
G01X4920294Y-840828D01*
G01X4923088Y-835494D01*
G01X4925628Y-832954D01*
G01X4933756Y-830160D01*
G01X4939090Y-830160D01*
G01X4946964Y-832954D01*
G01X4952298Y-838288D01*
G01X4954838Y-846162D01*
G01X4954838Y-854036D01*
G01X4952298Y-862164D01*
G01X4949504Y-864704D01*
G01X4944170Y-867498D01*
G01X4909626Y-802474D02*
G01X4907086Y-797140D01*
G01X4899212Y-789012D01*
G01X4954838Y-789012D01*
G01X4722126Y-517244D02*
G01X4719586Y-512164D01*
G01X4711712Y-504036D01*
G01X4767338Y-504036D01*
G01X2846212Y-1082268D02*
G01X2901838Y-1082268D01*
G01X2846212Y-1082268D02*
G01X2846212Y-1058392D01*
G01X2848752Y-1050518D01*
G01X2851546Y-1047978D01*
G01X2856626Y-1045184D01*
G01X2861960Y-1045184D01*
G01X2867294Y-1047978D01*
G01X2870088Y-1050518D01*
G01X2872628Y-1058392D01*
G01X2872628Y-1082268D01*
G01X2872628Y-1063726D02*
G01X2901838Y-1045184D01*
G01X2846212Y-1012164D02*
G01X2846212Y-982954D01*
G01X2867294Y-998956D01*
G01X2867294Y-990828D01*
G01X2870088Y-985494D01*
G01X2872628Y-982954D01*
G01X2880756Y-980160D01*
G01X2886090Y-980160D01*
G01X2893964Y-982954D01*
G01X2899298Y-988288D01*
G01X2901838Y-996162D01*
G01X2901838Y-1004036D01*
G01X2899298Y-1012164D01*
G01X2896504Y-1014704D01*
G01X2891170Y-1017498D01*
G01X2856626Y-952474D02*
G01X2854086Y-947140D01*
G01X2846212Y-939012D01*
G01X2901838Y-939012D01*
G01X4899212Y-5544206D02*
G01X4954838Y-5544206D01*
G01X4899212Y-5544206D02*
G01X4899212Y-5525664D01*
G01X4901752Y-5517790D01*
G01X4907086Y-5512456D01*
G01X4912420Y-5509916D01*
G01X4920294Y-5507122D01*
G01X4933756Y-5507122D01*
G01X4941630Y-5509916D01*
G01X4946964Y-5512456D01*
G01X4952298Y-5517790D01*
G01X4954838Y-5525664D01*
G01X4954838Y-5544206D01*
G01X4899212Y-5474102D02*
G01X4899212Y-5444892D01*
G01X4920294Y-5460894D01*
G01X4920294Y-5452766D01*
G01X4923088Y-5447432D01*
G01X4925628Y-5444892D01*
G01X4933756Y-5442098D01*
G01X4939090Y-5442098D01*
G01X4946964Y-5444892D01*
G01X4952298Y-5450226D01*
G01X4954838Y-5458100D01*
G01X4954838Y-5465974D01*
G01X4952298Y-5474102D01*
G01X4949504Y-5476642D01*
G01X4944170Y-5479436D01*
G01X4899212Y-5409078D02*
G01X4899212Y-5379868D01*
G01X4920294Y-5395870D01*
G01X4920294Y-5387742D01*
G01X4923088Y-5382408D01*
G01X4925628Y-5379868D01*
G01X4933756Y-5377074D01*
G01X4939090Y-5377074D01*
G01X4946964Y-5379868D01*
G01X4952298Y-5385202D01*
G01X4954838Y-5393076D01*
G01X4954838Y-5400950D01*
G01X4952298Y-5409078D01*
G01X4949504Y-5411618D01*
G01X4944170Y-5414412D01*
G01X4722126Y-5117244D02*
G01X4719586Y-5112164D01*
G01X4711712Y-5104036D01*
G01X4767338Y-5104036D01*
G01X17399212Y-899756D02*
G01X17454838Y-899756D01*
G01X17399212Y-899756D02*
G01X17399212Y-881214D01*
G01X17401752Y-873340D01*
G01X17407086Y-868006D01*
G01X17412420Y-865466D01*
G01X17420294Y-862672D01*
G01X17433756Y-862672D01*
G01X17441630Y-865466D01*
G01X17446964Y-868006D01*
G01X17452298Y-873340D01*
G01X17454838Y-881214D01*
G01X17454838Y-899756D01*
G01X17409626Y-834986D02*
G01X17407086Y-829652D01*
G01X17399212Y-821524D01*
G01X17454838Y-821524D01*
G01X17222126Y-517244D02*
G01X17219586Y-512164D01*
G01X17211712Y-504036D01*
G01X17267338Y-504036D01*
G01X346212Y-1094206D02*
G01X401838Y-1094206D01*
G01X346212Y-1094206D02*
G01X346212Y-1070330D01*
G01X348752Y-1062456D01*
G01X351546Y-1059916D01*
G01X356626Y-1057122D01*
G01X361960Y-1057122D01*
G01X367294Y-1059916D01*
G01X370088Y-1062456D01*
G01X372628Y-1070330D01*
G01X372628Y-1094206D01*
G01X372628Y-1075664D02*
G01X401838Y-1057122D01*
G01X346212Y-1024102D02*
G01X346212Y-994892D01*
G01X367294Y-1010894D01*
G01X367294Y-1002766D01*
G01X370088Y-997432D01*
G01X372628Y-994892D01*
G01X380756Y-992098D01*
G01X386090Y-992098D01*
G01X393964Y-994892D01*
G01X399298Y-1000226D01*
G01X401838Y-1008100D01*
G01X401838Y-1015974D01*
G01X399298Y-1024102D01*
G01X396504Y-1026642D01*
G01X391170Y-1029436D01*
G01X346212Y-927074D02*
G01X401838Y-953744D01*
G01X346212Y-964412D02*
G01X346212Y-927074D01*
G01X4899212Y-12442809D02*
G01X4954838Y-12442809D01*
G01X4899212Y-12442809D02*
G01X4899212Y-12424267D01*
G01X4901752Y-12416393D01*
G01X4907086Y-12411059D01*
G01X4912420Y-12408519D01*
G01X4920294Y-12405725D01*
G01X4933756Y-12405725D01*
G01X4941630Y-12408519D01*
G01X4946964Y-12411059D01*
G01X4952298Y-12416393D01*
G01X4954838Y-12424267D01*
G01X4954838Y-12442809D01*
G01X4899212Y-12372705D02*
G01X4899212Y-12343495D01*
G01X4920294Y-12359497D01*
G01X4920294Y-12351369D01*
G01X4923088Y-12346035D01*
G01X4925628Y-12343495D01*
G01X4933756Y-12340701D01*
G01X4939090Y-12340701D01*
G01X4946964Y-12343495D01*
G01X4952298Y-12348829D01*
G01X4954838Y-12356703D01*
G01X4954838Y-12364577D01*
G01X4952298Y-12372705D01*
G01X4949504Y-12375245D01*
G01X4944170Y-12378039D01*
G01X4907086Y-12281011D02*
G01X4901752Y-12283805D01*
G01X4899212Y-12291679D01*
G01X4899212Y-12297013D01*
G01X4901752Y-12304887D01*
G01X4909626Y-12310221D01*
G01X4923088Y-12313015D01*
G01X4936296Y-12313015D01*
G01X4946964Y-12310221D01*
G01X4952298Y-12304887D01*
G01X4954838Y-12297013D01*
G01X4954838Y-12294473D01*
G01X4952298Y-12286345D01*
G01X4946964Y-12281011D01*
G01X4939090Y-12278471D01*
G01X4936296Y-12278471D01*
G01X4928422Y-12281011D01*
G01X4923088Y-12286345D01*
G01X4920294Y-12294473D01*
G01X4920294Y-12297013D01*
G01X4923088Y-12304887D01*
G01X4928422Y-12310221D01*
G01X4936296Y-12313015D01*
G01X4722126Y-12017244D02*
G01X4719586Y-12012164D01*
G01X4711712Y-12004036D01*
G01X4767338Y-12004036D01*
G01X14899212Y-5510297D02*
G01X14954838Y-5510297D01*
G01X14899212Y-5510297D02*
G01X14899212Y-5491755D01*
G01X14901752Y-5483881D01*
G01X14907086Y-5478547D01*
G01X14912420Y-5476007D01*
G01X14920294Y-5473213D01*
G01X14933756Y-5473213D01*
G01X14941630Y-5476007D01*
G01X14946964Y-5478547D01*
G01X14952298Y-5483881D01*
G01X14954838Y-5491755D01*
G01X14954838Y-5510297D01*
G01X14917754Y-5410983D02*
G01X14925628Y-5413523D01*
G01X14930962Y-5418857D01*
G01X14933756Y-5426985D01*
G01X14933756Y-5429525D01*
G01X14930962Y-5437399D01*
G01X14925628Y-5442733D01*
G01X14917754Y-5445527D01*
G01X14914960Y-5445527D01*
G01X14907086Y-5442733D01*
G01X14901752Y-5437399D01*
G01X14899212Y-5429525D01*
G01X14899212Y-5426985D01*
G01X14901752Y-5418857D01*
G01X14907086Y-5413523D01*
G01X14917754Y-5410983D01*
G01X14930962Y-5410983D01*
G01X14944170Y-5413523D01*
G01X14952298Y-5418857D01*
G01X14954838Y-5426985D01*
G01X14954838Y-5432065D01*
G01X14952298Y-5440193D01*
G01X14946964Y-5442733D01*
G01X14711712Y-5245768D02*
G01X14767338Y-5245768D01*
G01X14711712Y-5245768D02*
G01X14711712Y-5221892D01*
G01X14714252Y-5214018D01*
G01X14717046Y-5211478D01*
G01X14722126Y-5208684D01*
G01X14727460Y-5208684D01*
G01X14732794Y-5211478D01*
G01X14735588Y-5214018D01*
G01X14738128Y-5221892D01*
G01X14738128Y-5245768D01*
G01X14738128Y-5227226D02*
G01X14767338Y-5208684D01*
G01X14711712Y-5180998D02*
G01X14767338Y-5180998D01*
G01X14711712Y-5180998D02*
G01X14711712Y-5146454D01*
G01X14738128Y-5180998D02*
G01X14738128Y-5159662D01*
G01X14767338Y-5180998D02*
G01X14767338Y-5146454D01*
G01X14711712Y-5118768D02*
G01X14767338Y-5118768D01*
G01X14711712Y-5118768D02*
G01X14711712Y-5084224D01*
G01X14738128Y-5118768D02*
G01X14738128Y-5097432D01*
G01X14727460Y-5043076D02*
G01X14759464Y-5043076D01*
G01X14735588Y-5056538D02*
G01X14751590Y-5029868D01*
G01X14735588Y-5029868D02*
G01X14751590Y-5056538D01*
G01X14727460Y-4988720D02*
G01X14759464Y-4988720D01*
G01X14735588Y-5002182D02*
G01X14751590Y-4975512D01*
G01X14735588Y-4975512D02*
G01X14751590Y-5002182D01*
G01X2399212Y-10133538D02*
G01X2454838Y-10133538D01*
G01X2399212Y-10133538D02*
G01X2399212Y-10114996D01*
G01X2401752Y-10107122D01*
G01X2407086Y-10101788D01*
G01X2412420Y-10099248D01*
G01X2420294Y-10096454D01*
G01X2433756Y-10096454D01*
G01X2441630Y-10099248D01*
G01X2446964Y-10101788D01*
G01X2452298Y-10107122D01*
G01X2454838Y-10114996D01*
G01X2454838Y-10133538D01*
G01X2399212Y-10042098D02*
G01X2436296Y-10068768D01*
G01X2436296Y-10028890D01*
G01X2399212Y-10042098D02*
G01X2454838Y-10042098D01*
G01X2409626Y-10001204D02*
G01X2407086Y-9995870D01*
G01X2399212Y-9987742D01*
G01X2454838Y-9987742D01*
G01X2222126Y-9717244D02*
G01X2219586Y-9712164D01*
G01X2211712Y-9704036D01*
G01X2267338Y-9704036D01*
G01X12399212Y-7830871D02*
G01X12454838Y-7830871D01*
G01X12399212Y-7830871D02*
G01X12399212Y-7812329D01*
G01X12401752Y-7804455D01*
G01X12407086Y-7799121D01*
G01X12412420Y-7796581D01*
G01X12420294Y-7793787D01*
G01X12433756Y-7793787D01*
G01X12441630Y-7796581D01*
G01X12446964Y-7799121D01*
G01X12452298Y-7804455D01*
G01X12454838Y-7812329D01*
G01X12454838Y-7830871D01*
G01X12409626Y-7766101D02*
G01X12407086Y-7760767D01*
G01X12399212Y-7752639D01*
G01X12454838Y-7752639D01*
G01X12407086Y-7692949D02*
G01X12401752Y-7695743D01*
G01X12399212Y-7703617D01*
G01X12399212Y-7708951D01*
G01X12401752Y-7716825D01*
G01X12409626Y-7722159D01*
G01X12423088Y-7724953D01*
G01X12436296Y-7724953D01*
G01X12446964Y-7722159D01*
G01X12452298Y-7716825D01*
G01X12454838Y-7708951D01*
G01X12454838Y-7706411D01*
G01X12452298Y-7698283D01*
G01X12446964Y-7692949D01*
G01X12439090Y-7690409D01*
G01X12436296Y-7690409D01*
G01X12428422Y-7692949D01*
G01X12423088Y-7698283D01*
G01X12420294Y-7706411D01*
G01X12420294Y-7708951D01*
G01X12423088Y-7716825D01*
G01X12428422Y-7722159D01*
G01X12436296Y-7724953D01*
G01X12222126Y-7417244D02*
G01X12219586Y-7412164D01*
G01X12211712Y-7404036D01*
G01X12267338Y-7404036D01*
G01X7846212Y-5682268D02*
G01X7901838Y-5682268D01*
G01X7846212Y-5682268D02*
G01X7846212Y-5658392D01*
G01X7848752Y-5650518D01*
G01X7851546Y-5647978D01*
G01X7856626Y-5645184D01*
G01X7861960Y-5645184D01*
G01X7867294Y-5647978D01*
G01X7870088Y-5650518D01*
G01X7872628Y-5658392D01*
G01X7872628Y-5682268D01*
G01X7872628Y-5663726D02*
G01X7901838Y-5645184D01*
G01X7859420Y-5614704D02*
G01X7856626Y-5614704D01*
G01X7851546Y-5612164D01*
G01X7848752Y-5609370D01*
G01X7846212Y-5604036D01*
G01X7846212Y-5593622D01*
G01X7848752Y-5588288D01*
G01X7851546Y-5585494D01*
G01X7856626Y-5582954D01*
G01X7861960Y-5582954D01*
G01X7867294Y-5585494D01*
G01X7875422Y-5590828D01*
G01X7901838Y-5617498D01*
G01X7901838Y-5580160D01*
G01X7856626Y-5552474D02*
G01X7854086Y-5547140D01*
G01X7846212Y-5539012D01*
G01X7901838Y-5539012D01*
G01X12846212Y-12582268D02*
G01X12901838Y-12582268D01*
G01X12846212Y-12582268D02*
G01X12846212Y-12558392D01*
G01X12848752Y-12550518D01*
G01X12851546Y-12547978D01*
G01X12856626Y-12545184D01*
G01X12861960Y-12545184D01*
G01X12867294Y-12547978D01*
G01X12870088Y-12550518D01*
G01X12872628Y-12558392D01*
G01X12872628Y-12582268D01*
G01X12872628Y-12563726D02*
G01X12901838Y-12545184D01*
G01X12856626Y-12517498D02*
G01X12854086Y-12512164D01*
G01X12846212Y-12504036D01*
G01X12901838Y-12504036D01*
G01X12859420Y-12473556D02*
G01X12856626Y-12473556D01*
G01X12851546Y-12471016D01*
G01X12848752Y-12468222D01*
G01X12846212Y-12462888D01*
G01X12846212Y-12452474D01*
G01X12848752Y-12447140D01*
G01X12851546Y-12444346D01*
G01X12856626Y-12441806D01*
G01X12861960Y-12441806D01*
G01X12867294Y-12444346D01*
G01X12875422Y-12449680D01*
G01X12901838Y-12476350D01*
G01X12901838Y-12439012D01*
G01X14899212Y-12432268D02*
G01X14954838Y-12432268D01*
G01X14899212Y-12432268D02*
G01X14899212Y-12413726D01*
G01X14901752Y-12405852D01*
G01X14907086Y-12400518D01*
G01X14912420Y-12397978D01*
G01X14920294Y-12395184D01*
G01X14933756Y-12395184D01*
G01X14941630Y-12397978D01*
G01X14946964Y-12400518D01*
G01X14952298Y-12405852D01*
G01X14954838Y-12413726D01*
G01X14954838Y-12432268D01*
G01X14909626Y-12367498D02*
G01X14907086Y-12362164D01*
G01X14899212Y-12354036D01*
G01X14954838Y-12354036D01*
G01X14912420Y-12323556D02*
G01X14909626Y-12323556D01*
G01X14904546Y-12321016D01*
G01X14901752Y-12318222D01*
G01X14899212Y-12312888D01*
G01X14899212Y-12302474D01*
G01X14901752Y-12297140D01*
G01X14904546Y-12294346D01*
G01X14909626Y-12291806D01*
G01X14914960Y-12291806D01*
G01X14920294Y-12294346D01*
G01X14928422Y-12299680D01*
G01X14954838Y-12326350D01*
G01X14954838Y-12289012D01*
G01X14722126Y-12017244D02*
G01X14719586Y-12012164D01*
G01X14711712Y-12004036D01*
G01X14767338Y-12004036D01*
G01X12846212Y-10270330D02*
G01X12901838Y-10270330D01*
G01X12846212Y-10270330D02*
G01X12846212Y-10246454D01*
G01X12848752Y-10238580D01*
G01X12851546Y-10236040D01*
G01X12856626Y-10233246D01*
G01X12861960Y-10233246D01*
G01X12867294Y-10236040D01*
G01X12870088Y-10238580D01*
G01X12872628Y-10246454D01*
G01X12872628Y-10270330D01*
G01X12872628Y-10251788D02*
G01X12901838Y-10233246D01*
G01X12856626Y-10205560D02*
G01X12854086Y-10200226D01*
G01X12846212Y-10192098D01*
G01X12901838Y-10192098D01*
G01X12856626Y-10164412D02*
G01X12854086Y-10159078D01*
G01X12846212Y-10150950D01*
G01X12901838Y-10150950D01*
G01X14899212Y-7832268D02*
G01X14954838Y-7832268D01*
G01X14899212Y-7832268D02*
G01X14899212Y-7813726D01*
G01X14901752Y-7805852D01*
G01X14907086Y-7800518D01*
G01X14912420Y-7797978D01*
G01X14920294Y-7795184D01*
G01X14933756Y-7795184D01*
G01X14941630Y-7797978D01*
G01X14946964Y-7800518D01*
G01X14952298Y-7805852D01*
G01X14954838Y-7813726D01*
G01X14954838Y-7832268D01*
G01X14909626Y-7767498D02*
G01X14907086Y-7762164D01*
G01X14899212Y-7754036D01*
G01X14954838Y-7754036D01*
G01X14899212Y-7710348D02*
G01X14901752Y-7718222D01*
G01X14909626Y-7723556D01*
G01X14923088Y-7726350D01*
G01X14930962Y-7726350D01*
G01X14944170Y-7723556D01*
G01X14952298Y-7718222D01*
G01X14954838Y-7710348D01*
G01X14954838Y-7705014D01*
G01X14952298Y-7697140D01*
G01X14944170Y-7691806D01*
G01X14930962Y-7689012D01*
G01X14923088Y-7689012D01*
G01X14909626Y-7691806D01*
G01X14901752Y-7697140D01*
G01X14899212Y-7705014D01*
G01X14899212Y-7710348D01*
G01X14722126Y-7417244D02*
G01X14719586Y-7412164D01*
G01X14711712Y-7404036D01*
G01X14767338Y-7404036D01*
G01X346212Y-12595476D02*
G01X401838Y-12595476D01*
G01X346212Y-12595476D02*
G01X346212Y-12571600D01*
G01X348752Y-12563726D01*
G01X351546Y-12561186D01*
G01X356626Y-12558392D01*
G01X361960Y-12558392D01*
G01X367294Y-12561186D01*
G01X370088Y-12563726D01*
G01X372628Y-12571600D01*
G01X372628Y-12595476D01*
G01X372628Y-12576934D02*
G01X401838Y-12558392D01*
G01X346212Y-12504036D02*
G01X383296Y-12530706D01*
G01X383296Y-12490828D01*
G01X346212Y-12504036D02*
G01X401838Y-12504036D01*
G01X359420Y-12460348D02*
G01X356626Y-12460348D01*
G01X351546Y-12457808D01*
G01X348752Y-12455014D01*
G01X346212Y-12449680D01*
G01X346212Y-12439266D01*
G01X348752Y-12433932D01*
G01X351546Y-12431138D01*
G01X356626Y-12428598D01*
G01X361960Y-12428598D01*
G01X367294Y-12431138D01*
G01X375422Y-12436472D01*
G01X401838Y-12463142D01*
G01X401838Y-12425804D01*
G01X19744560Y-2390320D02*
G01X19742020Y-2384986D01*
G01X19736686Y-2379652D01*
G01X19731352Y-2377112D01*
G01X19720684Y-2377112D01*
G01X19715350Y-2379652D01*
G01X19710016Y-2384986D01*
G01X19707476Y-2390320D01*
G01X19704936Y-2398194D01*
G01X19704936Y-2411656D01*
G01X19707476Y-2419530D01*
G01X19710016Y-2424864D01*
G01X19715350Y-2430198D01*
G01X19720684Y-2432738D01*
G01X19731352Y-2432738D01*
G01X19736686Y-2430198D01*
G01X19742020Y-2424864D01*
G01X19744560Y-2419530D01*
G01X19804250Y-2377112D02*
G01X19777580Y-2377112D01*
G01X19775040Y-2400988D01*
G01X19777580Y-2398194D01*
G01X19785708Y-2395654D01*
G01X19793582Y-2395654D01*
G01X19801456Y-2398194D01*
G01X19806790Y-2403528D01*
G01X19809584Y-2411656D01*
G01X19809584Y-2416990D01*
G01X19806790Y-2424864D01*
G01X19801456Y-2430198D01*
G01X19793582Y-2432738D01*
G01X19785708Y-2432738D01*
G01X19777580Y-2430198D01*
G01X19775040Y-2427404D01*
G01X19772246Y-2422070D01*
G01X346212Y-5692809D02*
G01X401838Y-5692809D01*
G01X346212Y-5692809D02*
G01X346212Y-5668933D01*
G01X348752Y-5661059D01*
G01X351546Y-5658519D01*
G01X356626Y-5655725D01*
G01X361960Y-5655725D01*
G01X367294Y-5658519D01*
G01X370088Y-5661059D01*
G01X372628Y-5668933D01*
G01X372628Y-5692809D01*
G01X372628Y-5674267D02*
G01X401838Y-5655725D01*
G01X346212Y-5622705D02*
G01X346212Y-5593495D01*
G01X367294Y-5609497D01*
G01X367294Y-5601369D01*
G01X370088Y-5596035D01*
G01X372628Y-5593495D01*
G01X380756Y-5590701D01*
G01X386090Y-5590701D01*
G01X393964Y-5593495D01*
G01X399298Y-5598829D01*
G01X401838Y-5606703D01*
G01X401838Y-5614577D01*
G01X399298Y-5622705D01*
G01X396504Y-5625245D01*
G01X391170Y-5628039D01*
G01X364754Y-5528471D02*
G01X372628Y-5531011D01*
G01X377962Y-5536345D01*
G01X380756Y-5544473D01*
G01X380756Y-5547013D01*
G01X377962Y-5554887D01*
G01X372628Y-5560221D01*
G01X364754Y-5563015D01*
G01X361960Y-5563015D01*
G01X354086Y-5560221D01*
G01X348752Y-5554887D01*
G01X346212Y-5547013D01*
G01X346212Y-5544473D01*
G01X348752Y-5536345D01*
G01X354086Y-5531011D01*
G01X364754Y-5528471D01*
G01X377962Y-5528471D01*
G01X391170Y-5531011D01*
G01X399298Y-5536345D01*
G01X401838Y-5544473D01*
G01X401838Y-5549553D01*
G01X399298Y-5557681D01*
G01X393964Y-5560221D01*
G01X2399212Y-5542809D02*
G01X2454838Y-5542809D01*
G01X2399212Y-5542809D02*
G01X2399212Y-5524267D01*
G01X2401752Y-5516393D01*
G01X2407086Y-5511059D01*
G01X2412420Y-5508519D01*
G01X2420294Y-5505725D01*
G01X2433756Y-5505725D01*
G01X2441630Y-5508519D01*
G01X2446964Y-5511059D01*
G01X2452298Y-5516393D01*
G01X2454838Y-5524267D01*
G01X2454838Y-5542809D01*
G01X2399212Y-5472705D02*
G01X2399212Y-5443495D01*
G01X2420294Y-5459497D01*
G01X2420294Y-5451369D01*
G01X2423088Y-5446035D01*
G01X2425628Y-5443495D01*
G01X2433756Y-5440701D01*
G01X2439090Y-5440701D01*
G01X2446964Y-5443495D01*
G01X2452298Y-5448829D01*
G01X2454838Y-5456703D01*
G01X2454838Y-5464577D01*
G01X2452298Y-5472705D01*
G01X2449504Y-5475245D01*
G01X2444170Y-5478039D01*
G01X2417754Y-5378471D02*
G01X2425628Y-5381011D01*
G01X2430962Y-5386345D01*
G01X2433756Y-5394473D01*
G01X2433756Y-5397013D01*
G01X2430962Y-5404887D01*
G01X2425628Y-5410221D01*
G01X2417754Y-5413015D01*
G01X2414960Y-5413015D01*
G01X2407086Y-5410221D01*
G01X2401752Y-5404887D01*
G01X2399212Y-5397013D01*
G01X2399212Y-5394473D01*
G01X2401752Y-5386345D01*
G01X2407086Y-5381011D01*
G01X2417754Y-5378471D01*
G01X2430962Y-5378471D01*
G01X2444170Y-5381011D01*
G01X2452298Y-5386345D01*
G01X2454838Y-5394473D01*
G01X2454838Y-5399553D01*
G01X2452298Y-5407681D01*
G01X2446964Y-5410221D01*
G01X2222126Y-5117244D02*
G01X2219586Y-5112164D01*
G01X2211712Y-5104036D01*
G01X2267338Y-5104036D01*
G01X12399212Y-10132268D02*
G01X12454838Y-10132268D01*
G01X12399212Y-10132268D02*
G01X12399212Y-10113726D01*
G01X12401752Y-10105852D01*
G01X12407086Y-10100518D01*
G01X12412420Y-10097978D01*
G01X12420294Y-10095184D01*
G01X12433756Y-10095184D01*
G01X12441630Y-10097978D01*
G01X12446964Y-10100518D01*
G01X12452298Y-10105852D01*
G01X12454838Y-10113726D01*
G01X12454838Y-10132268D01*
G01X12409626Y-10067498D02*
G01X12407086Y-10062164D01*
G01X12399212Y-10054036D01*
G01X12454838Y-10054036D01*
G01X12399212Y-9989012D02*
G01X12454838Y-10015682D01*
G01X12399212Y-10026350D02*
G01X12399212Y-9989012D01*
G01X12222126Y-9717244D02*
G01X12219586Y-9712164D01*
G01X12211712Y-9704036D01*
G01X12267338Y-9704036D01*
G01X9899212Y-930871D02*
G01X9954838Y-930871D01*
G01X9899212Y-930871D02*
G01X9899212Y-912329D01*
G01X9901752Y-904455D01*
G01X9907086Y-899121D01*
G01X9912420Y-896581D01*
G01X9920294Y-893787D01*
G01X9933756Y-893787D01*
G01X9941630Y-896581D01*
G01X9946964Y-899121D01*
G01X9952298Y-904455D01*
G01X9954838Y-912329D01*
G01X9954838Y-930871D01*
G01X9909626Y-866101D02*
G01X9907086Y-860767D01*
G01X9899212Y-852639D01*
G01X9954838Y-852639D01*
G01X9917754Y-790409D02*
G01X9925628Y-792949D01*
G01X9930962Y-798283D01*
G01X9933756Y-806411D01*
G01X9933756Y-808951D01*
G01X9930962Y-816825D01*
G01X9925628Y-822159D01*
G01X9917754Y-824953D01*
G01X9914960Y-824953D01*
G01X9907086Y-822159D01*
G01X9901752Y-816825D01*
G01X9899212Y-808951D01*
G01X9899212Y-806411D01*
G01X9901752Y-798283D01*
G01X9907086Y-792949D01*
G01X9917754Y-790409D01*
G01X9930962Y-790409D01*
G01X9944170Y-792949D01*
G01X9952298Y-798283D01*
G01X9954838Y-806411D01*
G01X9954838Y-811491D01*
G01X9952298Y-819619D01*
G01X9946964Y-822159D01*
G01X9722126Y-517244D02*
G01X9719586Y-512164D01*
G01X9711712Y-504036D01*
G01X9767338Y-504036D01*
G01X19693312Y-1456376D02*
G01X19748938Y-1456376D01*
G01X19693312Y-1456376D02*
G01X19693312Y-1432500D01*
G01X19695852Y-1424626D01*
G01X19698646Y-1422086D01*
G01X19703726Y-1419292D01*
G01X19709060Y-1419292D01*
G01X19714394Y-1422086D01*
G01X19717188Y-1424626D01*
G01X19719728Y-1432500D01*
G01X19719728Y-1456376D01*
G01X19719728Y-1437834D02*
G01X19748938Y-1419292D01*
G01X19693312Y-1364936D02*
G01X19730396Y-1391606D01*
G01X19730396Y-1351728D01*
G01X19693312Y-1364936D02*
G01X19748938Y-1364936D01*
G01X19693312Y-1318708D02*
G01X19693312Y-1289498D01*
G01X19714394Y-1305500D01*
G01X19714394Y-1297372D01*
G01X19717188Y-1292038D01*
G01X19719728Y-1289498D01*
G01X19727856Y-1286704D01*
G01X19733190Y-1286704D01*
G01X19741064Y-1289498D01*
G01X19746398Y-1294832D01*
G01X19748938Y-1302706D01*
G01X19748938Y-1310580D01*
G01X19746398Y-1318708D01*
G01X19743604Y-1321248D01*
G01X19738270Y-1324042D01*
G01X2846212Y-10294206D02*
G01X2901838Y-10294206D01*
G01X2846212Y-10294206D02*
G01X2846212Y-10270330D01*
G01X2848752Y-10262456D01*
G01X2851546Y-10259916D01*
G01X2856626Y-10257122D01*
G01X2861960Y-10257122D01*
G01X2867294Y-10259916D01*
G01X2870088Y-10262456D01*
G01X2872628Y-10270330D01*
G01X2872628Y-10294206D01*
G01X2872628Y-10275664D02*
G01X2901838Y-10257122D01*
G01X2846212Y-10224102D02*
G01X2846212Y-10194892D01*
G01X2867294Y-10210894D01*
G01X2867294Y-10202766D01*
G01X2870088Y-10197432D01*
G01X2872628Y-10194892D01*
G01X2880756Y-10192098D01*
G01X2886090Y-10192098D01*
G01X2893964Y-10194892D01*
G01X2899298Y-10200226D01*
G01X2901838Y-10208100D01*
G01X2901838Y-10215974D01*
G01X2899298Y-10224102D01*
G01X2896504Y-10226642D01*
G01X2891170Y-10229436D01*
G01X2846212Y-10132408D02*
G01X2846212Y-10159078D01*
G01X2870088Y-10161618D01*
G01X2867294Y-10159078D01*
G01X2864754Y-10150950D01*
G01X2864754Y-10143076D01*
G01X2867294Y-10135202D01*
G01X2872628Y-10129868D01*
G01X2880756Y-10127074D01*
G01X2886090Y-10127074D01*
G01X2893964Y-10129868D01*
G01X2899298Y-10135202D01*
G01X2901838Y-10143076D01*
G01X2901838Y-10150950D01*
G01X2899298Y-10159078D01*
G01X2896504Y-10161618D01*
G01X2891170Y-10164412D01*
G01X7399212Y-5544206D02*
G01X7454838Y-5544206D01*
G01X7399212Y-5544206D02*
G01X7399212Y-5525664D01*
G01X7401752Y-5517790D01*
G01X7407086Y-5512456D01*
G01X7412420Y-5509916D01*
G01X7420294Y-5507122D01*
G01X7433756Y-5507122D01*
G01X7441630Y-5509916D01*
G01X7446964Y-5512456D01*
G01X7452298Y-5517790D01*
G01X7454838Y-5525664D01*
G01X7454838Y-5544206D01*
G01X7412420Y-5476642D02*
G01X7409626Y-5476642D01*
G01X7404546Y-5474102D01*
G01X7401752Y-5471308D01*
G01X7399212Y-5465974D01*
G01X7399212Y-5455560D01*
G01X7401752Y-5450226D01*
G01X7404546Y-5447432D01*
G01X7409626Y-5444892D01*
G01X7414960Y-5444892D01*
G01X7420294Y-5447432D01*
G01X7428422Y-5452766D01*
G01X7454838Y-5479436D01*
G01X7454838Y-5442098D01*
G01X7399212Y-5377074D02*
G01X7454838Y-5403744D01*
G01X7399212Y-5414412D02*
G01X7399212Y-5377074D01*
G01X7222126Y-5117244D02*
G01X7219586Y-5112164D01*
G01X7211712Y-5104036D01*
G01X7267338Y-5104036D01*
G01X12846212Y-1061694D02*
G01X12901838Y-1061694D01*
G01X12846212Y-1061694D02*
G01X12846212Y-1037818D01*
G01X12848752Y-1029944D01*
G01X12851546Y-1027404D01*
G01X12856626Y-1024610D01*
G01X12861960Y-1024610D01*
G01X12867294Y-1027404D01*
G01X12870088Y-1029944D01*
G01X12872628Y-1037818D01*
G01X12872628Y-1061694D01*
G01X12872628Y-1043152D02*
G01X12901838Y-1024610D01*
G01X12846212Y-959586D02*
G01X12901838Y-986256D01*
G01X12846212Y-996924D02*
G01X12846212Y-959586D01*
G01X17399212Y-12410297D02*
G01X17454838Y-12410297D01*
G01X17399212Y-12410297D02*
G01X17399212Y-12391755D01*
G01X17401752Y-12383881D01*
G01X17407086Y-12378547D01*
G01X17412420Y-12376007D01*
G01X17420294Y-12373213D01*
G01X17433756Y-12373213D01*
G01X17441630Y-12376007D01*
G01X17446964Y-12378547D01*
G01X17452298Y-12383881D01*
G01X17454838Y-12391755D01*
G01X17454838Y-12410297D01*
G01X17407086Y-12313523D02*
G01X17401752Y-12316317D01*
G01X17399212Y-12324191D01*
G01X17399212Y-12329525D01*
G01X17401752Y-12337399D01*
G01X17409626Y-12342733D01*
G01X17423088Y-12345527D01*
G01X17436296Y-12345527D01*
G01X17446964Y-12342733D01*
G01X17452298Y-12337399D01*
G01X17454838Y-12329525D01*
G01X17454838Y-12326985D01*
G01X17452298Y-12318857D01*
G01X17446964Y-12313523D01*
G01X17439090Y-12310983D01*
G01X17436296Y-12310983D01*
G01X17428422Y-12313523D01*
G01X17423088Y-12318857D01*
G01X17420294Y-12326985D01*
G01X17420294Y-12329525D01*
G01X17423088Y-12337399D01*
G01X17428422Y-12342733D01*
G01X17436296Y-12345527D01*
G01X17211712Y-12145768D02*
G01X17267338Y-12145768D01*
G01X17211712Y-12145768D02*
G01X17211712Y-12121892D01*
G01X17214252Y-12114018D01*
G01X17217046Y-12111478D01*
G01X17222126Y-12108684D01*
G01X17227460Y-12108684D01*
G01X17232794Y-12111478D01*
G01X17235588Y-12114018D01*
G01X17238128Y-12121892D01*
G01X17238128Y-12145768D01*
G01X17238128Y-12127226D02*
G01X17267338Y-12108684D01*
G01X17211712Y-12080998D02*
G01X17267338Y-12080998D01*
G01X17211712Y-12080998D02*
G01X17211712Y-12046454D01*
G01X17238128Y-12080998D02*
G01X17238128Y-12059662D01*
G01X17267338Y-12080998D02*
G01X17267338Y-12046454D01*
G01X17211712Y-12018768D02*
G01X17267338Y-12018768D01*
G01X17211712Y-12018768D02*
G01X17211712Y-11984224D01*
G01X17238128Y-12018768D02*
G01X17238128Y-11997432D01*
G01X17227460Y-11943076D02*
G01X17259464Y-11943076D01*
G01X17235588Y-11956538D02*
G01X17251590Y-11929868D01*
G01X17235588Y-11929868D02*
G01X17251590Y-11956538D01*
G01X17227460Y-11888720D02*
G01X17259464Y-11888720D01*
G01X17235588Y-11902182D02*
G01X17251590Y-11875512D01*
G01X17235588Y-11875512D02*
G01X17251590Y-11902182D01*
G01X21031586Y-10297896D02*
G01X21026252Y-10303230D01*
G01X21023712Y-10311104D01*
G01X21023712Y-10321772D01*
G01X21026252Y-10329900D01*
G01X21031586Y-10334980D01*
G01X21036920Y-10334980D01*
G01X21042254Y-10332440D01*
G01X21044794Y-10329900D01*
G01X21047588Y-10324566D01*
G01X21052922Y-10308564D01*
G01X21055462Y-10303230D01*
G01X21058256Y-10300690D01*
G01X21063590Y-10297896D01*
G01X21071464Y-10297896D01*
G01X21076798Y-10303230D01*
G01X21079338Y-10311104D01*
G01X21079338Y-10321772D01*
G01X21076798Y-10329900D01*
G01X21071464Y-10334980D01*
G01X21023712Y-10270210D02*
G01X21079338Y-10256748D01*
G01X21023712Y-10243540D02*
G01X21079338Y-10256748D01*
G01X21023712Y-10243540D02*
G01X21079338Y-10230332D01*
G01X21023712Y-10217124D02*
G01X21079338Y-10230332D01*
G01X21036920Y-10186644D02*
G01X21034126Y-10186644D01*
G01X21029046Y-10184104D01*
G01X21026252Y-10181310D01*
G01X21023712Y-10175976D01*
G01X21023712Y-10165562D01*
G01X21026252Y-10160228D01*
G01X21029046Y-10157434D01*
G01X21034126Y-10154894D01*
G01X21039460Y-10154894D01*
G01X21044794Y-10157434D01*
G01X21052922Y-10162768D01*
G01X21079338Y-10189438D01*
G01X21079338Y-10152100D01*
G01X17399212Y-5511694D02*
G01X17454838Y-5511694D01*
G01X17399212Y-5511694D02*
G01X17399212Y-5493152D01*
G01X17401752Y-5485278D01*
G01X17407086Y-5479944D01*
G01X17412420Y-5477404D01*
G01X17420294Y-5474610D01*
G01X17433756Y-5474610D01*
G01X17441630Y-5477404D01*
G01X17446964Y-5479944D01*
G01X17452298Y-5485278D01*
G01X17454838Y-5493152D01*
G01X17454838Y-5511694D01*
G01X17399212Y-5441590D02*
G01X17399212Y-5412380D01*
G01X17420294Y-5428382D01*
G01X17420294Y-5420254D01*
G01X17423088Y-5414920D01*
G01X17425628Y-5412380D01*
G01X17433756Y-5409586D01*
G01X17439090Y-5409586D01*
G01X17446964Y-5412380D01*
G01X17452298Y-5417714D01*
G01X17454838Y-5425588D01*
G01X17454838Y-5433462D01*
G01X17452298Y-5441590D01*
G01X17449504Y-5444130D01*
G01X17444170Y-5446924D01*
G01X17222126Y-5117244D02*
G01X17219586Y-5112164D01*
G01X17211712Y-5104036D01*
G01X17267338Y-5104036D01*
G01X5346212Y-7994206D02*
G01X5401838Y-7994206D01*
G01X5346212Y-7994206D02*
G01X5346212Y-7970330D01*
G01X5348752Y-7962456D01*
G01X5351546Y-7959916D01*
G01X5356626Y-7957122D01*
G01X5361960Y-7957122D01*
G01X5367294Y-7959916D01*
G01X5370088Y-7962456D01*
G01X5372628Y-7970330D01*
G01X5372628Y-7994206D01*
G01X5372628Y-7975664D02*
G01X5401838Y-7957122D01*
G01X5359420Y-7926642D02*
G01X5356626Y-7926642D01*
G01X5351546Y-7924102D01*
G01X5348752Y-7921308D01*
G01X5346212Y-7915974D01*
G01X5346212Y-7905560D01*
G01X5348752Y-7900226D01*
G01X5351546Y-7897432D01*
G01X5356626Y-7894892D01*
G01X5361960Y-7894892D01*
G01X5367294Y-7897432D01*
G01X5375422Y-7902766D01*
G01X5401838Y-7929436D01*
G01X5401838Y-7892098D01*
G01X5346212Y-7850950D02*
G01X5348752Y-7859078D01*
G01X5354086Y-7861618D01*
G01X5359420Y-7861618D01*
G01X5364754Y-7859078D01*
G01X5367294Y-7853744D01*
G01X5370088Y-7843076D01*
G01X5372628Y-7835202D01*
G01X5377962Y-7829868D01*
G01X5383296Y-7827074D01*
G01X5391170Y-7827074D01*
G01X5396504Y-7829868D01*
G01X5399298Y-7832408D01*
G01X5401838Y-7840536D01*
G01X5401838Y-7850950D01*
G01X5399298Y-7859078D01*
G01X5396504Y-7861618D01*
G01X5391170Y-7864412D01*
G01X5383296Y-7864412D01*
G01X5377962Y-7861618D01*
G01X5372628Y-7856284D01*
G01X5370088Y-7848410D01*
G01X5367294Y-7837742D01*
G01X5364754Y-7832408D01*
G01X5359420Y-7829868D01*
G01X5354086Y-7829868D01*
G01X5348752Y-7832408D01*
G01X5346212Y-7840536D01*
G01X5346212Y-7850950D01*
G01X17399212Y-10111694D02*
G01X17454838Y-10111694D01*
G01X17399212Y-10111694D02*
G01X17399212Y-10093152D01*
G01X17401752Y-10085278D01*
G01X17407086Y-10079944D01*
G01X17412420Y-10077404D01*
G01X17420294Y-10074610D01*
G01X17433756Y-10074610D01*
G01X17441630Y-10077404D01*
G01X17446964Y-10079944D01*
G01X17452298Y-10085278D01*
G01X17454838Y-10093152D01*
G01X17454838Y-10111694D01*
G01X17399212Y-10014920D02*
G01X17399212Y-10041590D01*
G01X17423088Y-10044130D01*
G01X17420294Y-10041590D01*
G01X17417754Y-10033462D01*
G01X17417754Y-10025588D01*
G01X17420294Y-10017714D01*
G01X17425628Y-10012380D01*
G01X17433756Y-10009586D01*
G01X17439090Y-10009586D01*
G01X17446964Y-10012380D01*
G01X17452298Y-10017714D01*
G01X17454838Y-10025588D01*
G01X17454838Y-10033462D01*
G01X17452298Y-10041590D01*
G01X17449504Y-10044130D01*
G01X17444170Y-10046924D01*
G01X17222126Y-9717244D02*
G01X17219586Y-9712164D01*
G01X17211712Y-9704036D01*
G01X17267338Y-9704036D01*
G01X346212Y-3394206D02*
G01X401838Y-3394206D01*
G01X346212Y-3394206D02*
G01X346212Y-3370330D01*
G01X348752Y-3362456D01*
G01X351546Y-3359916D01*
G01X356626Y-3357122D01*
G01X361960Y-3357122D01*
G01X367294Y-3359916D01*
G01X370088Y-3362456D01*
G01X372628Y-3370330D01*
G01X372628Y-3394206D01*
G01X372628Y-3375664D02*
G01X401838Y-3357122D01*
G01X346212Y-3324102D02*
G01X346212Y-3294892D01*
G01X367294Y-3310894D01*
G01X367294Y-3302766D01*
G01X370088Y-3297432D01*
G01X372628Y-3294892D01*
G01X380756Y-3292098D01*
G01X386090Y-3292098D01*
G01X393964Y-3294892D01*
G01X399298Y-3300226D01*
G01X401838Y-3308100D01*
G01X401838Y-3315974D01*
G01X399298Y-3324102D01*
G01X396504Y-3326642D01*
G01X391170Y-3329436D01*
G01X346212Y-3250950D02*
G01X348752Y-3259078D01*
G01X354086Y-3261618D01*
G01X359420Y-3261618D01*
G01X364754Y-3259078D01*
G01X367294Y-3253744D01*
G01X370088Y-3243076D01*
G01X372628Y-3235202D01*
G01X377962Y-3229868D01*
G01X383296Y-3227074D01*
G01X391170Y-3227074D01*
G01X396504Y-3229868D01*
G01X399298Y-3232408D01*
G01X401838Y-3240536D01*
G01X401838Y-3250950D01*
G01X399298Y-3259078D01*
G01X396504Y-3261618D01*
G01X391170Y-3264412D01*
G01X383296Y-3264412D01*
G01X377962Y-3261618D01*
G01X372628Y-3256284D01*
G01X370088Y-3248410D01*
G01X367294Y-3237742D01*
G01X364754Y-3232408D01*
G01X359420Y-3229868D01*
G01X354086Y-3229868D01*
G01X348752Y-3232408D01*
G01X346212Y-3240536D01*
G01X346212Y-3250950D01*
G01X19179854Y-1024312D02*
G01X19179854Y-1079938D01*
G01X19179854Y-1024312D02*
G01X19203730Y-1024312D01*
G01X19211604Y-1026852D01*
G01X19214144Y-1029646D01*
G01X19216938Y-1034726D01*
G01X19216938Y-1040060D01*
G01X19214144Y-1045394D01*
G01X19211604Y-1048188D01*
G01X19203730Y-1050728D01*
G01X19179854Y-1050728D01*
G01X19198396Y-1050728D02*
G01X19216938Y-1079938D01*
G01X19271294Y-1024312D02*
G01X19244624Y-1061396D01*
G01X19284502Y-1061396D01*
G01X19271294Y-1024312D02*
G01X19271294Y-1079938D01*
G01X19338858Y-1024312D02*
G01X19312188Y-1061396D01*
G01X19352066Y-1061396D01*
G01X19338858Y-1024312D02*
G01X19338858Y-1079938D01*
G01X2399212Y-3244206D02*
G01X2454838Y-3244206D01*
G01X2399212Y-3244206D02*
G01X2399212Y-3225664D01*
G01X2401752Y-3217790D01*
G01X2407086Y-3212456D01*
G01X2412420Y-3209916D01*
G01X2420294Y-3207122D01*
G01X2433756Y-3207122D01*
G01X2441630Y-3209916D01*
G01X2446964Y-3212456D01*
G01X2452298Y-3217790D01*
G01X2454838Y-3225664D01*
G01X2454838Y-3244206D01*
G01X2399212Y-3174102D02*
G01X2399212Y-3144892D01*
G01X2420294Y-3160894D01*
G01X2420294Y-3152766D01*
G01X2423088Y-3147432D01*
G01X2425628Y-3144892D01*
G01X2433756Y-3142098D01*
G01X2439090Y-3142098D01*
G01X2446964Y-3144892D01*
G01X2452298Y-3150226D01*
G01X2454838Y-3158100D01*
G01X2454838Y-3165974D01*
G01X2452298Y-3174102D01*
G01X2449504Y-3176642D01*
G01X2444170Y-3179436D01*
G01X2399212Y-3100950D02*
G01X2401752Y-3109078D01*
G01X2407086Y-3111618D01*
G01X2412420Y-3111618D01*
G01X2417754Y-3109078D01*
G01X2420294Y-3103744D01*
G01X2423088Y-3093076D01*
G01X2425628Y-3085202D01*
G01X2430962Y-3079868D01*
G01X2436296Y-3077074D01*
G01X2444170Y-3077074D01*
G01X2449504Y-3079868D01*
G01X2452298Y-3082408D01*
G01X2454838Y-3090536D01*
G01X2454838Y-3100950D01*
G01X2452298Y-3109078D01*
G01X2449504Y-3111618D01*
G01X2444170Y-3114412D01*
G01X2436296Y-3114412D01*
G01X2430962Y-3111618D01*
G01X2425628Y-3106284D01*
G01X2423088Y-3098410D01*
G01X2420294Y-3087742D01*
G01X2417754Y-3082408D01*
G01X2412420Y-3079868D01*
G01X2407086Y-3079868D01*
G01X2401752Y-3082408D01*
G01X2399212Y-3090536D01*
G01X2399212Y-3100950D01*
G01X2222126Y-2817244D02*
G01X2219586Y-2812164D01*
G01X2211712Y-2804036D01*
G01X2267338Y-2804036D01*
G01X12846212Y-5660297D02*
G01X12901838Y-5660297D01*
G01X12846212Y-5660297D02*
G01X12846212Y-5636421D01*
G01X12848752Y-5628547D01*
G01X12851546Y-5626007D01*
G01X12856626Y-5623213D01*
G01X12861960Y-5623213D01*
G01X12867294Y-5626007D01*
G01X12870088Y-5628547D01*
G01X12872628Y-5636421D01*
G01X12872628Y-5660297D01*
G01X12872628Y-5641755D02*
G01X12901838Y-5623213D01*
G01X12864754Y-5560983D02*
G01X12872628Y-5563523D01*
G01X12877962Y-5568857D01*
G01X12880756Y-5576985D01*
G01X12880756Y-5579525D01*
G01X12877962Y-5587399D01*
G01X12872628Y-5592733D01*
G01X12864754Y-5595527D01*
G01X12861960Y-5595527D01*
G01X12854086Y-5592733D01*
G01X12848752Y-5587399D01*
G01X12846212Y-5579525D01*
G01X12846212Y-5576985D01*
G01X12848752Y-5568857D01*
G01X12854086Y-5563523D01*
G01X12864754Y-5560983D01*
G01X12877962Y-5560983D01*
G01X12891170Y-5563523D01*
G01X12899298Y-5568857D01*
G01X12901838Y-5576985D01*
G01X12901838Y-5582065D01*
G01X12899298Y-5590193D01*
G01X12893964Y-5592733D01*
G01X15346212Y-1049756D02*
G01X15401838Y-1049756D01*
G01X15346212Y-1049756D02*
G01X15346212Y-1025880D01*
G01X15348752Y-1018006D01*
G01X15351546Y-1015466D01*
G01X15356626Y-1012672D01*
G01X15361960Y-1012672D01*
G01X15367294Y-1015466D01*
G01X15370088Y-1018006D01*
G01X15372628Y-1025880D01*
G01X15372628Y-1049756D01*
G01X15372628Y-1031214D02*
G01X15401838Y-1012672D01*
G01X15356626Y-984986D02*
G01X15354086Y-979652D01*
G01X15346212Y-971524D01*
G01X15401838Y-971524D01*
G01X7399212Y-12444206D02*
G01X7454838Y-12444206D01*
G01X7399212Y-12444206D02*
G01X7399212Y-12425664D01*
G01X7401752Y-12417790D01*
G01X7407086Y-12412456D01*
G01X7412420Y-12409916D01*
G01X7420294Y-12407122D01*
G01X7433756Y-12407122D01*
G01X7441630Y-12409916D01*
G01X7446964Y-12412456D01*
G01X7452298Y-12417790D01*
G01X7454838Y-12425664D01*
G01X7454838Y-12444206D01*
G01X7399212Y-12374102D02*
G01X7399212Y-12344892D01*
G01X7420294Y-12360894D01*
G01X7420294Y-12352766D01*
G01X7423088Y-12347432D01*
G01X7425628Y-12344892D01*
G01X7433756Y-12342098D01*
G01X7439090Y-12342098D01*
G01X7446964Y-12344892D01*
G01X7452298Y-12350226D01*
G01X7454838Y-12358100D01*
G01X7454838Y-12365974D01*
G01X7452298Y-12374102D01*
G01X7449504Y-12376642D01*
G01X7444170Y-12379436D01*
G01X7399212Y-12298410D02*
G01X7401752Y-12306284D01*
G01X7409626Y-12311618D01*
G01X7423088Y-12314412D01*
G01X7430962Y-12314412D01*
G01X7444170Y-12311618D01*
G01X7452298Y-12306284D01*
G01X7454838Y-12298410D01*
G01X7454838Y-12293076D01*
G01X7452298Y-12285202D01*
G01X7444170Y-12279868D01*
G01X7430962Y-12277074D01*
G01X7423088Y-12277074D01*
G01X7409626Y-12279868D01*
G01X7401752Y-12285202D01*
G01X7399212Y-12293076D01*
G01X7399212Y-12298410D01*
G01X7222126Y-12017244D02*
G01X7219586Y-12012164D01*
G01X7211712Y-12004036D01*
G01X7267338Y-12004036D01*
G01X10346212Y-12582268D02*
G01X10401838Y-12582268D01*
G01X10346212Y-12582268D02*
G01X10346212Y-12558392D01*
G01X10348752Y-12550518D01*
G01X10351546Y-12547978D01*
G01X10356626Y-12545184D01*
G01X10361960Y-12545184D01*
G01X10367294Y-12547978D01*
G01X10370088Y-12550518D01*
G01X10372628Y-12558392D01*
G01X10372628Y-12582268D01*
G01X10372628Y-12563726D02*
G01X10401838Y-12545184D01*
G01X10356626Y-12517498D02*
G01X10354086Y-12512164D01*
G01X10346212Y-12504036D01*
G01X10401838Y-12504036D01*
G01X10346212Y-12462888D02*
G01X10348752Y-12471016D01*
G01X10354086Y-12473556D01*
G01X10359420Y-12473556D01*
G01X10364754Y-12471016D01*
G01X10367294Y-12465682D01*
G01X10370088Y-12455014D01*
G01X10372628Y-12447140D01*
G01X10377962Y-12441806D01*
G01X10383296Y-12439012D01*
G01X10391170Y-12439012D01*
G01X10396504Y-12441806D01*
G01X10399298Y-12444346D01*
G01X10401838Y-12452474D01*
G01X10401838Y-12462888D01*
G01X10399298Y-12471016D01*
G01X10396504Y-12473556D01*
G01X10391170Y-12476350D01*
G01X10383296Y-12476350D01*
G01X10377962Y-12473556D01*
G01X10372628Y-12468222D01*
G01X10370088Y-12460348D01*
G01X10367294Y-12449680D01*
G01X10364754Y-12444346D01*
G01X10359420Y-12441806D01*
G01X10354086Y-12441806D01*
G01X10348752Y-12444346D01*
G01X10346212Y-12452474D01*
G01X10346212Y-12462888D01*
G01X7846212Y-12595476D02*
G01X7901838Y-12595476D01*
G01X7846212Y-12595476D02*
G01X7846212Y-12571600D01*
G01X7848752Y-12563726D01*
G01X7851546Y-12561186D01*
G01X7856626Y-12558392D01*
G01X7861960Y-12558392D01*
G01X7867294Y-12561186D01*
G01X7870088Y-12563726D01*
G01X7872628Y-12571600D01*
G01X7872628Y-12595476D01*
G01X7872628Y-12576934D02*
G01X7901838Y-12558392D01*
G01X7859420Y-12527912D02*
G01X7856626Y-12527912D01*
G01X7851546Y-12525372D01*
G01X7848752Y-12522578D01*
G01X7846212Y-12517244D01*
G01X7846212Y-12506830D01*
G01X7848752Y-12501496D01*
G01X7851546Y-12498702D01*
G01X7856626Y-12496162D01*
G01X7861960Y-12496162D01*
G01X7867294Y-12498702D01*
G01X7875422Y-12504036D01*
G01X7901838Y-12530706D01*
G01X7901838Y-12493368D01*
G01X7846212Y-12439012D02*
G01X7883296Y-12465682D01*
G01X7883296Y-12425804D01*
G01X7846212Y-12439012D02*
G01X7901838Y-12439012D01*
G01X7846212Y-1080871D02*
G01X7901838Y-1080871D01*
G01X7846212Y-1080871D02*
G01X7846212Y-1056995D01*
G01X7848752Y-1049121D01*
G01X7851546Y-1046581D01*
G01X7856626Y-1043787D01*
G01X7861960Y-1043787D01*
G01X7867294Y-1046581D01*
G01X7870088Y-1049121D01*
G01X7872628Y-1056995D01*
G01X7872628Y-1080871D01*
G01X7872628Y-1062329D02*
G01X7901838Y-1043787D01*
G01X7856626Y-1016101D02*
G01X7854086Y-1010767D01*
G01X7846212Y-1002639D01*
G01X7901838Y-1002639D01*
G01X7864754Y-940409D02*
G01X7872628Y-942949D01*
G01X7877962Y-948283D01*
G01X7880756Y-956411D01*
G01X7880756Y-958951D01*
G01X7877962Y-966825D01*
G01X7872628Y-972159D01*
G01X7864754Y-974953D01*
G01X7861960Y-974953D01*
G01X7854086Y-972159D01*
G01X7848752Y-966825D01*
G01X7846212Y-958951D01*
G01X7846212Y-956411D01*
G01X7848752Y-948283D01*
G01X7854086Y-942949D01*
G01X7864754Y-940409D01*
G01X7877962Y-940409D01*
G01X7891170Y-942949D01*
G01X7899298Y-948283D01*
G01X7901838Y-956411D01*
G01X7901838Y-961491D01*
G01X7899298Y-969619D01*
G01X7893964Y-972159D01*
G01X17399212Y-3211694D02*
G01X17454838Y-3211694D01*
G01X17399212Y-3211694D02*
G01X17399212Y-3193152D01*
G01X17401752Y-3185278D01*
G01X17407086Y-3179944D01*
G01X17412420Y-3177404D01*
G01X17420294Y-3174610D01*
G01X17433756Y-3174610D01*
G01X17441630Y-3177404D01*
G01X17446964Y-3179944D01*
G01X17452298Y-3185278D01*
G01X17454838Y-3193152D01*
G01X17454838Y-3211694D01*
G01X17412420Y-3144130D02*
G01X17409626Y-3144130D01*
G01X17404546Y-3141590D01*
G01X17401752Y-3138796D01*
G01X17399212Y-3133462D01*
G01X17399212Y-3123048D01*
G01X17401752Y-3117714D01*
G01X17404546Y-3114920D01*
G01X17409626Y-3112380D01*
G01X17414960Y-3112380D01*
G01X17420294Y-3114920D01*
G01X17428422Y-3120254D01*
G01X17454838Y-3146924D01*
G01X17454838Y-3109586D01*
G01X17211712Y-2945768D02*
G01X17267338Y-2945768D01*
G01X17211712Y-2945768D02*
G01X17211712Y-2921892D01*
G01X17214252Y-2914018D01*
G01X17217046Y-2911478D01*
G01X17222126Y-2908684D01*
G01X17227460Y-2908684D01*
G01X17232794Y-2911478D01*
G01X17235588Y-2914018D01*
G01X17238128Y-2921892D01*
G01X17238128Y-2945768D01*
G01X17238128Y-2927226D02*
G01X17267338Y-2908684D01*
G01X17211712Y-2880998D02*
G01X17267338Y-2880998D01*
G01X17211712Y-2880998D02*
G01X17211712Y-2846454D01*
G01X17238128Y-2880998D02*
G01X17238128Y-2859662D01*
G01X17267338Y-2880998D02*
G01X17267338Y-2846454D01*
G01X17211712Y-2818768D02*
G01X17267338Y-2818768D01*
G01X17211712Y-2818768D02*
G01X17211712Y-2784224D01*
G01X17238128Y-2818768D02*
G01X17238128Y-2797432D01*
G01X17227460Y-2743076D02*
G01X17259464Y-2743076D01*
G01X17235588Y-2756538D02*
G01X17251590Y-2729868D01*
G01X17235588Y-2729868D02*
G01X17251590Y-2756538D01*
G01X17227460Y-2688720D02*
G01X17259464Y-2688720D01*
G01X17235588Y-2702182D02*
G01X17251590Y-2675512D01*
G01X17235588Y-2675512D02*
G01X17251590Y-2702182D01*
G01X17399212Y-7812964D02*
G01X17454838Y-7812964D01*
G01X17399212Y-7812964D02*
G01X17399212Y-7794422D01*
G01X17401752Y-7786548D01*
G01X17407086Y-7781214D01*
G01X17412420Y-7778674D01*
G01X17420294Y-7775880D01*
G01X17433756Y-7775880D01*
G01X17441630Y-7778674D01*
G01X17446964Y-7781214D01*
G01X17452298Y-7786548D01*
G01X17454838Y-7794422D01*
G01X17454838Y-7812964D01*
G01X17399212Y-7721524D02*
G01X17436296Y-7748194D01*
G01X17436296Y-7708316D01*
G01X17399212Y-7721524D02*
G01X17454838Y-7721524D01*
G01X17222126Y-7417244D02*
G01X17219586Y-7412164D01*
G01X17211712Y-7404036D01*
G01X17267338Y-7404036D01*
G01X19993086Y-10299166D02*
G01X19987752Y-10304500D01*
G01X19985212Y-10312374D01*
G01X19985212Y-10323042D01*
G01X19987752Y-10331170D01*
G01X19993086Y-10336250D01*
G01X19998420Y-10336250D01*
G01X20003754Y-10333710D01*
G01X20006294Y-10331170D01*
G01X20009088Y-10325836D01*
G01X20014422Y-10309834D01*
G01X20016962Y-10304500D01*
G01X20019756Y-10301960D01*
G01X20025090Y-10299166D01*
G01X20032964Y-10299166D01*
G01X20038298Y-10304500D01*
G01X20040838Y-10312374D01*
G01X20040838Y-10323042D01*
G01X20038298Y-10331170D01*
G01X20032964Y-10336250D01*
G01X19985212Y-10271480D02*
G01X20040838Y-10258018D01*
G01X19985212Y-10244810D02*
G01X20040838Y-10258018D01*
G01X19985212Y-10244810D02*
G01X20040838Y-10231602D01*
G01X19985212Y-10218394D02*
G01X20040838Y-10231602D01*
G01X19985212Y-10164038D02*
G01X20022296Y-10190708D01*
G01X20022296Y-10150830D01*
G01X19985212Y-10164038D02*
G01X20040838Y-10164038D01*
G01X12846212Y-7982268D02*
G01X12901838Y-7982268D01*
G01X12846212Y-7982268D02*
G01X12846212Y-7958392D01*
G01X12848752Y-7950518D01*
G01X12851546Y-7947978D01*
G01X12856626Y-7945184D01*
G01X12861960Y-7945184D01*
G01X12867294Y-7947978D01*
G01X12870088Y-7950518D01*
G01X12872628Y-7958392D01*
G01X12872628Y-7982268D01*
G01X12872628Y-7963726D02*
G01X12901838Y-7945184D01*
G01X12856626Y-7917498D02*
G01X12854086Y-7912164D01*
G01X12846212Y-7904036D01*
G01X12901838Y-7904036D01*
G01X12846212Y-7860348D02*
G01X12848752Y-7868222D01*
G01X12856626Y-7873556D01*
G01X12870088Y-7876350D01*
G01X12877962Y-7876350D01*
G01X12891170Y-7873556D01*
G01X12899298Y-7868222D01*
G01X12901838Y-7860348D01*
G01X12901838Y-7855014D01*
G01X12899298Y-7847140D01*
G01X12891170Y-7841806D01*
G01X12877962Y-7839012D01*
G01X12870088Y-7839012D01*
G01X12856626Y-7841806D01*
G01X12848752Y-7847140D01*
G01X12846212Y-7855014D01*
G01X12846212Y-7860348D01*
G01X9899212Y-5532268D02*
G01X9954838Y-5532268D01*
G01X9899212Y-5532268D02*
G01X9899212Y-5513726D01*
G01X9901752Y-5505852D01*
G01X9907086Y-5500518D01*
G01X9912420Y-5497978D01*
G01X9920294Y-5495184D01*
G01X9933756Y-5495184D01*
G01X9941630Y-5497978D01*
G01X9946964Y-5500518D01*
G01X9952298Y-5505852D01*
G01X9954838Y-5513726D01*
G01X9954838Y-5532268D01*
G01X9912420Y-5464704D02*
G01X9909626Y-5464704D01*
G01X9904546Y-5462164D01*
G01X9901752Y-5459370D01*
G01X9899212Y-5454036D01*
G01X9899212Y-5443622D01*
G01X9901752Y-5438288D01*
G01X9904546Y-5435494D01*
G01X9909626Y-5432954D01*
G01X9914960Y-5432954D01*
G01X9920294Y-5435494D01*
G01X9928422Y-5440828D01*
G01X9954838Y-5467498D01*
G01X9954838Y-5430160D01*
G01X9909626Y-5402474D02*
G01X9907086Y-5397140D01*
G01X9899212Y-5389012D01*
G01X9954838Y-5389012D01*
G01X9722126Y-5117244D02*
G01X9719586Y-5112164D01*
G01X9711712Y-5104036D01*
G01X9767338Y-5104036D01*
G01X346212Y-10283538D02*
G01X401838Y-10283538D01*
G01X346212Y-10283538D02*
G01X346212Y-10259662D01*
G01X348752Y-10251788D01*
G01X351546Y-10249248D01*
G01X356626Y-10246454D01*
G01X361960Y-10246454D01*
G01X367294Y-10249248D01*
G01X370088Y-10251788D01*
G01X372628Y-10259662D01*
G01X372628Y-10283538D01*
G01X372628Y-10264996D02*
G01X401838Y-10246454D01*
G01X346212Y-10192098D02*
G01X383296Y-10218768D01*
G01X383296Y-10178890D01*
G01X346212Y-10192098D02*
G01X401838Y-10192098D01*
G01X356626Y-10151204D02*
G01X354086Y-10145870D01*
G01X346212Y-10137742D01*
G01X401838Y-10137742D01*
G01X5346212Y-5694206D02*
G01X5401838Y-5694206D01*
G01X5346212Y-5694206D02*
G01X5346212Y-5670330D01*
G01X5348752Y-5662456D01*
G01X5351546Y-5659916D01*
G01X5356626Y-5657122D01*
G01X5361960Y-5657122D01*
G01X5367294Y-5659916D01*
G01X5370088Y-5662456D01*
G01X5372628Y-5670330D01*
G01X5372628Y-5694206D01*
G01X5372628Y-5675664D02*
G01X5401838Y-5657122D01*
G01X5359420Y-5626642D02*
G01X5356626Y-5626642D01*
G01X5351546Y-5624102D01*
G01X5348752Y-5621308D01*
G01X5346212Y-5615974D01*
G01X5346212Y-5605560D01*
G01X5348752Y-5600226D01*
G01X5351546Y-5597432D01*
G01X5356626Y-5594892D01*
G01X5361960Y-5594892D01*
G01X5367294Y-5597432D01*
G01X5375422Y-5602766D01*
G01X5401838Y-5629436D01*
G01X5401838Y-5592098D01*
G01X5346212Y-5527074D02*
G01X5401838Y-5553744D01*
G01X5346212Y-5564412D02*
G01X5346212Y-5527074D01*
G01X2846212Y-5694206D02*
G01X2901838Y-5694206D01*
G01X2846212Y-5694206D02*
G01X2846212Y-5670330D01*
G01X2848752Y-5662456D01*
G01X2851546Y-5659916D01*
G01X2856626Y-5657122D01*
G01X2861960Y-5657122D01*
G01X2867294Y-5659916D01*
G01X2870088Y-5662456D01*
G01X2872628Y-5670330D01*
G01X2872628Y-5694206D01*
G01X2872628Y-5675664D02*
G01X2901838Y-5657122D01*
G01X2846212Y-5624102D02*
G01X2846212Y-5594892D01*
G01X2867294Y-5610894D01*
G01X2867294Y-5602766D01*
G01X2870088Y-5597432D01*
G01X2872628Y-5594892D01*
G01X2880756Y-5592098D01*
G01X2886090Y-5592098D01*
G01X2893964Y-5594892D01*
G01X2899298Y-5600226D01*
G01X2901838Y-5608100D01*
G01X2901838Y-5615974D01*
G01X2899298Y-5624102D01*
G01X2896504Y-5626642D01*
G01X2891170Y-5629436D01*
G01X2846212Y-5559078D02*
G01X2846212Y-5529868D01*
G01X2867294Y-5545870D01*
G01X2867294Y-5537742D01*
G01X2870088Y-5532408D01*
G01X2872628Y-5529868D01*
G01X2880756Y-5527074D01*
G01X2886090Y-5527074D01*
G01X2893964Y-5529868D01*
G01X2899298Y-5535202D01*
G01X2901838Y-5543076D01*
G01X2901838Y-5550950D01*
G01X2899298Y-5559078D01*
G01X2896504Y-5561618D01*
G01X2891170Y-5564412D01*
G01X9899212Y-3244206D02*
G01X9954838Y-3244206D01*
G01X9899212Y-3244206D02*
G01X9899212Y-3225664D01*
G01X9901752Y-3217790D01*
G01X9907086Y-3212456D01*
G01X9912420Y-3209916D01*
G01X9920294Y-3207122D01*
G01X9933756Y-3207122D01*
G01X9941630Y-3209916D01*
G01X9946964Y-3212456D01*
G01X9952298Y-3217790D01*
G01X9954838Y-3225664D01*
G01X9954838Y-3244206D01*
G01X9912420Y-3176642D02*
G01X9909626Y-3176642D01*
G01X9904546Y-3174102D01*
G01X9901752Y-3171308D01*
G01X9899212Y-3165974D01*
G01X9899212Y-3155560D01*
G01X9901752Y-3150226D01*
G01X9904546Y-3147432D01*
G01X9909626Y-3144892D01*
G01X9914960Y-3144892D01*
G01X9920294Y-3147432D01*
G01X9928422Y-3152766D01*
G01X9954838Y-3179436D01*
G01X9954838Y-3142098D01*
G01X9899212Y-3098410D02*
G01X9901752Y-3106284D01*
G01X9909626Y-3111618D01*
G01X9923088Y-3114412D01*
G01X9930962Y-3114412D01*
G01X9944170Y-3111618D01*
G01X9952298Y-3106284D01*
G01X9954838Y-3098410D01*
G01X9954838Y-3093076D01*
G01X9952298Y-3085202D01*
G01X9944170Y-3079868D01*
G01X9930962Y-3077074D01*
G01X9923088Y-3077074D01*
G01X9909626Y-3079868D01*
G01X9901752Y-3085202D01*
G01X9899212Y-3093076D01*
G01X9899212Y-3098410D01*
G01X9722126Y-2817244D02*
G01X9719586Y-2812164D01*
G01X9711712Y-2804036D01*
G01X9767338Y-2804036D01*
G01X7399212Y-944206D02*
G01X7454838Y-944206D01*
G01X7399212Y-944206D02*
G01X7399212Y-925664D01*
G01X7401752Y-917790D01*
G01X7407086Y-912456D01*
G01X7412420Y-909916D01*
G01X7420294Y-907122D01*
G01X7433756Y-907122D01*
G01X7441630Y-909916D01*
G01X7446964Y-912456D01*
G01X7452298Y-917790D01*
G01X7454838Y-925664D01*
G01X7454838Y-944206D01*
G01X7412420Y-876642D02*
G01X7409626Y-876642D01*
G01X7404546Y-874102D01*
G01X7401752Y-871308D01*
G01X7399212Y-865974D01*
G01X7399212Y-855560D01*
G01X7401752Y-850226D01*
G01X7404546Y-847432D01*
G01X7409626Y-844892D01*
G01X7414960Y-844892D01*
G01X7420294Y-847432D01*
G01X7428422Y-852766D01*
G01X7454838Y-879436D01*
G01X7454838Y-842098D01*
G01X7399212Y-782408D02*
G01X7399212Y-809078D01*
G01X7423088Y-811618D01*
G01X7420294Y-809078D01*
G01X7417754Y-800950D01*
G01X7417754Y-793076D01*
G01X7420294Y-785202D01*
G01X7425628Y-779868D01*
G01X7433756Y-777074D01*
G01X7439090Y-777074D01*
G01X7446964Y-779868D01*
G01X7452298Y-785202D01*
G01X7454838Y-793076D01*
G01X7454838Y-800950D01*
G01X7452298Y-809078D01*
G01X7449504Y-811618D01*
G01X7444170Y-814412D01*
G01X7222126Y-517244D02*
G01X7219586Y-512164D01*
G01X7211712Y-504036D01*
G01X7267338Y-504036D01*
G01X2399212Y-944206D02*
G01X2454838Y-944206D01*
G01X2399212Y-944206D02*
G01X2399212Y-925664D01*
G01X2401752Y-917790D01*
G01X2407086Y-912456D01*
G01X2412420Y-909916D01*
G01X2420294Y-907122D01*
G01X2433756Y-907122D01*
G01X2441630Y-909916D01*
G01X2446964Y-912456D01*
G01X2452298Y-917790D01*
G01X2454838Y-925664D01*
G01X2454838Y-944206D01*
G01X2399212Y-874102D02*
G01X2399212Y-844892D01*
G01X2420294Y-860894D01*
G01X2420294Y-852766D01*
G01X2423088Y-847432D01*
G01X2425628Y-844892D01*
G01X2433756Y-842098D01*
G01X2439090Y-842098D01*
G01X2446964Y-844892D01*
G01X2452298Y-850226D01*
G01X2454838Y-858100D01*
G01X2454838Y-865974D01*
G01X2452298Y-874102D01*
G01X2449504Y-876642D01*
G01X2444170Y-879436D01*
G01X2399212Y-777074D02*
G01X2454838Y-803744D01*
G01X2399212Y-814412D02*
G01X2399212Y-777074D01*
G01X2222126Y-517244D02*
G01X2219586Y-512164D01*
G01X2211712Y-504036D01*
G01X2267338Y-504036D01*
G01X14899212Y-10120330D02*
G01X14954838Y-10120330D01*
G01X14899212Y-10120330D02*
G01X14899212Y-10101788D01*
G01X14901752Y-10093914D01*
G01X14907086Y-10088580D01*
G01X14912420Y-10086040D01*
G01X14920294Y-10083246D01*
G01X14933756Y-10083246D01*
G01X14941630Y-10086040D01*
G01X14946964Y-10088580D01*
G01X14952298Y-10093914D01*
G01X14954838Y-10101788D01*
G01X14954838Y-10120330D01*
G01X14909626Y-10055560D02*
G01X14907086Y-10050226D01*
G01X14899212Y-10042098D01*
G01X14954838Y-10042098D01*
G01X14909626Y-10014412D02*
G01X14907086Y-10009078D01*
G01X14899212Y-10000950D01*
G01X14954838Y-10000950D01*
G01X14711712Y-9845768D02*
G01X14767338Y-9845768D01*
G01X14711712Y-9845768D02*
G01X14711712Y-9821892D01*
G01X14714252Y-9814018D01*
G01X14717046Y-9811478D01*
G01X14722126Y-9808684D01*
G01X14727460Y-9808684D01*
G01X14732794Y-9811478D01*
G01X14735588Y-9814018D01*
G01X14738128Y-9821892D01*
G01X14738128Y-9845768D01*
G01X14738128Y-9827226D02*
G01X14767338Y-9808684D01*
G01X14711712Y-9780998D02*
G01X14767338Y-9780998D01*
G01X14711712Y-9780998D02*
G01X14711712Y-9746454D01*
G01X14738128Y-9780998D02*
G01X14738128Y-9759662D01*
G01X14767338Y-9780998D02*
G01X14767338Y-9746454D01*
G01X14711712Y-9718768D02*
G01X14767338Y-9718768D01*
G01X14711712Y-9718768D02*
G01X14711712Y-9684224D01*
G01X14738128Y-9718768D02*
G01X14738128Y-9697432D01*
G01X14727460Y-9643076D02*
G01X14759464Y-9643076D01*
G01X14735588Y-9656538D02*
G01X14751590Y-9629868D01*
G01X14735588Y-9629868D02*
G01X14751590Y-9656538D01*
G01X14727460Y-9588720D02*
G01X14759464Y-9588720D01*
G01X14735588Y-9602182D02*
G01X14751590Y-9575512D01*
G01X14735588Y-9575512D02*
G01X14751590Y-9602182D01*
G01X9899212Y-10144206D02*
G01X9954838Y-10144206D01*
G01X9899212Y-10144206D02*
G01X9899212Y-10125664D01*
G01X9901752Y-10117790D01*
G01X9907086Y-10112456D01*
G01X9912420Y-10109916D01*
G01X9920294Y-10107122D01*
G01X9933756Y-10107122D01*
G01X9941630Y-10109916D01*
G01X9946964Y-10112456D01*
G01X9952298Y-10117790D01*
G01X9954838Y-10125664D01*
G01X9954838Y-10144206D01*
G01X9912420Y-10076642D02*
G01X9909626Y-10076642D01*
G01X9904546Y-10074102D01*
G01X9901752Y-10071308D01*
G01X9899212Y-10065974D01*
G01X9899212Y-10055560D01*
G01X9901752Y-10050226D01*
G01X9904546Y-10047432D01*
G01X9909626Y-10044892D01*
G01X9914960Y-10044892D01*
G01X9920294Y-10047432D01*
G01X9928422Y-10052766D01*
G01X9954838Y-10079436D01*
G01X9954838Y-10042098D01*
G01X9899212Y-10009078D02*
G01X9899212Y-9979868D01*
G01X9920294Y-9995870D01*
G01X9920294Y-9987742D01*
G01X9923088Y-9982408D01*
G01X9925628Y-9979868D01*
G01X9933756Y-9977074D01*
G01X9939090Y-9977074D01*
G01X9946964Y-9979868D01*
G01X9952298Y-9985202D01*
G01X9954838Y-9993076D01*
G01X9954838Y-10000950D01*
G01X9952298Y-10009078D01*
G01X9949504Y-10011618D01*
G01X9944170Y-10014412D01*
G01X9722126Y-9717244D02*
G01X9719586Y-9712164D01*
G01X9711712Y-9704036D01*
G01X9767338Y-9704036D01*
G01X9899212Y-12445476D02*
G01X9954838Y-12445476D01*
G01X9899212Y-12445476D02*
G01X9899212Y-12426934D01*
G01X9901752Y-12419060D01*
G01X9907086Y-12413726D01*
G01X9912420Y-12411186D01*
G01X9920294Y-12408392D01*
G01X9933756Y-12408392D01*
G01X9941630Y-12411186D01*
G01X9946964Y-12413726D01*
G01X9952298Y-12419060D01*
G01X9954838Y-12426934D01*
G01X9954838Y-12445476D01*
G01X9912420Y-12377912D02*
G01X9909626Y-12377912D01*
G01X9904546Y-12375372D01*
G01X9901752Y-12372578D01*
G01X9899212Y-12367244D01*
G01X9899212Y-12356830D01*
G01X9901752Y-12351496D01*
G01X9904546Y-12348702D01*
G01X9909626Y-12346162D01*
G01X9914960Y-12346162D01*
G01X9920294Y-12348702D01*
G01X9928422Y-12354036D01*
G01X9954838Y-12380706D01*
G01X9954838Y-12343368D01*
G01X9899212Y-12289012D02*
G01X9936296Y-12315682D01*
G01X9936296Y-12275804D01*
G01X9899212Y-12289012D02*
G01X9954838Y-12289012D01*
G01X9722126Y-12017244D02*
G01X9719586Y-12012164D01*
G01X9711712Y-12004036D01*
G01X9767338Y-12004036D01*
G01X15346212Y-3361694D02*
G01X15401838Y-3361694D01*
G01X15346212Y-3361694D02*
G01X15346212Y-3337818D01*
G01X15348752Y-3329944D01*
G01X15351546Y-3327404D01*
G01X15356626Y-3324610D01*
G01X15361960Y-3324610D01*
G01X15367294Y-3327404D01*
G01X15370088Y-3329944D01*
G01X15372628Y-3337818D01*
G01X15372628Y-3361694D01*
G01X15372628Y-3343152D02*
G01X15401838Y-3324610D01*
G01X15359420Y-3294130D02*
G01X15356626Y-3294130D01*
G01X15351546Y-3291590D01*
G01X15348752Y-3288796D01*
G01X15346212Y-3283462D01*
G01X15346212Y-3273048D01*
G01X15348752Y-3267714D01*
G01X15351546Y-3264920D01*
G01X15356626Y-3262380D01*
G01X15361960Y-3262380D01*
G01X15367294Y-3264920D01*
G01X15375422Y-3270254D01*
G01X15401838Y-3296924D01*
G01X15401838Y-3259586D01*
G01X10346212Y-1082268D02*
G01X10401838Y-1082268D01*
G01X10346212Y-1082268D02*
G01X10346212Y-1058392D01*
G01X10348752Y-1050518D01*
G01X10351546Y-1047978D01*
G01X10356626Y-1045184D01*
G01X10361960Y-1045184D01*
G01X10367294Y-1047978D01*
G01X10370088Y-1050518D01*
G01X10372628Y-1058392D01*
G01X10372628Y-1082268D01*
G01X10372628Y-1063726D02*
G01X10401838Y-1045184D01*
G01X10356626Y-1017498D02*
G01X10354086Y-1012164D01*
G01X10346212Y-1004036D01*
G01X10401838Y-1004036D01*
G01X10346212Y-971016D02*
G01X10346212Y-941806D01*
G01X10367294Y-957808D01*
G01X10367294Y-949680D01*
G01X10370088Y-944346D01*
G01X10372628Y-941806D01*
G01X10380756Y-939012D01*
G01X10386090Y-939012D01*
G01X10393964Y-941806D01*
G01X10399298Y-947140D01*
G01X10401838Y-955014D01*
G01X10401838Y-962888D01*
G01X10399298Y-971016D01*
G01X10396504Y-973556D01*
G01X10391170Y-976350D01*
G01X14899212Y-3211694D02*
G01X14954838Y-3211694D01*
G01X14899212Y-3211694D02*
G01X14899212Y-3193152D01*
G01X14901752Y-3185278D01*
G01X14907086Y-3179944D01*
G01X14912420Y-3177404D01*
G01X14920294Y-3174610D01*
G01X14933756Y-3174610D01*
G01X14941630Y-3177404D01*
G01X14946964Y-3179944D01*
G01X14952298Y-3185278D01*
G01X14954838Y-3193152D01*
G01X14954838Y-3211694D01*
G01X14899212Y-3133462D02*
G01X14901752Y-3141590D01*
G01X14907086Y-3144130D01*
G01X14912420Y-3144130D01*
G01X14917754Y-3141590D01*
G01X14920294Y-3136256D01*
G01X14923088Y-3125588D01*
G01X14925628Y-3117714D01*
G01X14930962Y-3112380D01*
G01X14936296Y-3109586D01*
G01X14944170Y-3109586D01*
G01X14949504Y-3112380D01*
G01X14952298Y-3114920D01*
G01X14954838Y-3123048D01*
G01X14954838Y-3133462D01*
G01X14952298Y-3141590D01*
G01X14949504Y-3144130D01*
G01X14944170Y-3146924D01*
G01X14936296Y-3146924D01*
G01X14930962Y-3144130D01*
G01X14925628Y-3138796D01*
G01X14923088Y-3130922D01*
G01X14920294Y-3120254D01*
G01X14917754Y-3114920D01*
G01X14912420Y-3112380D01*
G01X14907086Y-3112380D01*
G01X14901752Y-3114920D01*
G01X14899212Y-3123048D01*
G01X14899212Y-3133462D01*
G01X14711712Y-2945768D02*
G01X14767338Y-2945768D01*
G01X14711712Y-2945768D02*
G01X14711712Y-2921892D01*
G01X14714252Y-2914018D01*
G01X14717046Y-2911478D01*
G01X14722126Y-2908684D01*
G01X14727460Y-2908684D01*
G01X14732794Y-2911478D01*
G01X14735588Y-2914018D01*
G01X14738128Y-2921892D01*
G01X14738128Y-2945768D01*
G01X14738128Y-2927226D02*
G01X14767338Y-2908684D01*
G01X14711712Y-2880998D02*
G01X14767338Y-2880998D01*
G01X14711712Y-2880998D02*
G01X14711712Y-2846454D01*
G01X14738128Y-2880998D02*
G01X14738128Y-2859662D01*
G01X14767338Y-2880998D02*
G01X14767338Y-2846454D01*
G01X14711712Y-2818768D02*
G01X14767338Y-2818768D01*
G01X14711712Y-2818768D02*
G01X14711712Y-2784224D01*
G01X14738128Y-2818768D02*
G01X14738128Y-2797432D01*
G01X14727460Y-2743076D02*
G01X14759464Y-2743076D01*
G01X14735588Y-2756538D02*
G01X14751590Y-2729868D01*
G01X14735588Y-2729868D02*
G01X14751590Y-2756538D01*
G01X14727460Y-2688720D02*
G01X14759464Y-2688720D01*
G01X14735588Y-2702182D02*
G01X14751590Y-2675512D01*
G01X14735588Y-2675512D02*
G01X14751590Y-2702182D01*
G01X4899212Y-3244206D02*
G01X4954838Y-3244206D01*
G01X4899212Y-3244206D02*
G01X4899212Y-3225664D01*
G01X4901752Y-3217790D01*
G01X4907086Y-3212456D01*
G01X4912420Y-3209916D01*
G01X4920294Y-3207122D01*
G01X4933756Y-3207122D01*
G01X4941630Y-3209916D01*
G01X4946964Y-3212456D01*
G01X4952298Y-3217790D01*
G01X4954838Y-3225664D01*
G01X4954838Y-3244206D01*
G01X4899212Y-3174102D02*
G01X4899212Y-3144892D01*
G01X4920294Y-3160894D01*
G01X4920294Y-3152766D01*
G01X4923088Y-3147432D01*
G01X4925628Y-3144892D01*
G01X4933756Y-3142098D01*
G01X4939090Y-3142098D01*
G01X4946964Y-3144892D01*
G01X4952298Y-3150226D01*
G01X4954838Y-3158100D01*
G01X4954838Y-3165974D01*
G01X4952298Y-3174102D01*
G01X4949504Y-3176642D01*
G01X4944170Y-3179436D01*
G01X4912420Y-3111618D02*
G01X4909626Y-3111618D01*
G01X4904546Y-3109078D01*
G01X4901752Y-3106284D01*
G01X4899212Y-3100950D01*
G01X4899212Y-3090536D01*
G01X4901752Y-3085202D01*
G01X4904546Y-3082408D01*
G01X4909626Y-3079868D01*
G01X4914960Y-3079868D01*
G01X4920294Y-3082408D01*
G01X4928422Y-3087742D01*
G01X4954838Y-3114412D01*
G01X4954838Y-3077074D01*
G01X4722126Y-2817244D02*
G01X4719586Y-2812164D01*
G01X4711712Y-2804036D01*
G01X4767338Y-2804036D01*
G01X18954586Y-10296499D02*
G01X18949252Y-10301833D01*
G01X18946712Y-10309707D01*
G01X18946712Y-10320375D01*
G01X18949252Y-10328503D01*
G01X18954586Y-10333583D01*
G01X18959920Y-10333583D01*
G01X18965254Y-10331043D01*
G01X18967794Y-10328503D01*
G01X18970588Y-10323169D01*
G01X18975922Y-10307167D01*
G01X18978462Y-10301833D01*
G01X18981256Y-10299293D01*
G01X18986590Y-10296499D01*
G01X18994464Y-10296499D01*
G01X18999798Y-10301833D01*
G01X19002338Y-10309707D01*
G01X19002338Y-10320375D01*
G01X18999798Y-10328503D01*
G01X18994464Y-10333583D01*
G01X18946712Y-10268813D02*
G01X19002338Y-10255351D01*
G01X18946712Y-10242143D02*
G01X19002338Y-10255351D01*
G01X18946712Y-10242143D02*
G01X19002338Y-10228935D01*
G01X18946712Y-10215727D02*
G01X19002338Y-10228935D01*
G01X18954586Y-10156037D02*
G01X18949252Y-10158831D01*
G01X18946712Y-10166705D01*
G01X18946712Y-10172039D01*
G01X18949252Y-10179913D01*
G01X18957126Y-10185247D01*
G01X18970588Y-10188041D01*
G01X18983796Y-10188041D01*
G01X18994464Y-10185247D01*
G01X18999798Y-10179913D01*
G01X19002338Y-10172039D01*
G01X19002338Y-10169499D01*
G01X18999798Y-10161371D01*
G01X18994464Y-10156037D01*
G01X18986590Y-10153497D01*
G01X18983796Y-10153497D01*
G01X18975922Y-10156037D01*
G01X18970588Y-10161371D01*
G01X18967794Y-10169499D01*
G01X18967794Y-10172039D01*
G01X18970588Y-10179913D01*
G01X18975922Y-10185247D01*
G01X18983796Y-10188041D01*
G01X9899212Y-7844206D02*
G01X9954838Y-7844206D01*
G01X9899212Y-7844206D02*
G01X9899212Y-7825664D01*
G01X9901752Y-7817790D01*
G01X9907086Y-7812456D01*
G01X9912420Y-7809916D01*
G01X9920294Y-7807122D01*
G01X9933756Y-7807122D01*
G01X9941630Y-7809916D01*
G01X9946964Y-7812456D01*
G01X9952298Y-7817790D01*
G01X9954838Y-7825664D01*
G01X9954838Y-7844206D01*
G01X9912420Y-7776642D02*
G01X9909626Y-7776642D01*
G01X9904546Y-7774102D01*
G01X9901752Y-7771308D01*
G01X9899212Y-7765974D01*
G01X9899212Y-7755560D01*
G01X9901752Y-7750226D01*
G01X9904546Y-7747432D01*
G01X9909626Y-7744892D01*
G01X9914960Y-7744892D01*
G01X9920294Y-7747432D01*
G01X9928422Y-7752766D01*
G01X9954838Y-7779436D01*
G01X9954838Y-7742098D01*
G01X9912420Y-7711618D02*
G01X9909626Y-7711618D01*
G01X9904546Y-7709078D01*
G01X9901752Y-7706284D01*
G01X9899212Y-7700950D01*
G01X9899212Y-7690536D01*
G01X9901752Y-7685202D01*
G01X9904546Y-7682408D01*
G01X9909626Y-7679868D01*
G01X9914960Y-7679868D01*
G01X9920294Y-7682408D01*
G01X9928422Y-7687742D01*
G01X9954838Y-7714412D01*
G01X9954838Y-7677074D01*
G01X9722126Y-7417244D02*
G01X9719586Y-7412164D01*
G01X9711712Y-7404036D01*
G01X9767338Y-7404036D01*
G01X21031586Y-9409758D02*
G01X21026252Y-9415092D01*
G01X21023712Y-9422966D01*
G01X21023712Y-9433634D01*
G01X21026252Y-9441762D01*
G01X21031586Y-9446842D01*
G01X21036920Y-9446842D01*
G01X21042254Y-9444302D01*
G01X21044794Y-9441762D01*
G01X21047588Y-9436428D01*
G01X21052922Y-9420426D01*
G01X21055462Y-9415092D01*
G01X21058256Y-9412552D01*
G01X21063590Y-9409758D01*
G01X21071464Y-9409758D01*
G01X21076798Y-9415092D01*
G01X21079338Y-9422966D01*
G01X21079338Y-9433634D01*
G01X21076798Y-9441762D01*
G01X21071464Y-9446842D01*
G01X21023712Y-9382072D02*
G01X21079338Y-9368610D01*
G01X21023712Y-9355402D02*
G01X21079338Y-9368610D01*
G01X21023712Y-9355402D02*
G01X21079338Y-9342194D01*
G01X21023712Y-9328986D02*
G01X21079338Y-9342194D01*
G01X21034126Y-9301300D02*
G01X21031586Y-9295966D01*
G01X21023712Y-9287838D01*
G01X21079338Y-9287838D01*
G01X15346212Y-12560297D02*
G01X15401838Y-12560297D01*
G01X15346212Y-12560297D02*
G01X15346212Y-12536421D01*
G01X15348752Y-12528547D01*
G01X15351546Y-12526007D01*
G01X15356626Y-12523213D01*
G01X15361960Y-12523213D01*
G01X15367294Y-12526007D01*
G01X15370088Y-12528547D01*
G01X15372628Y-12536421D01*
G01X15372628Y-12560297D01*
G01X15372628Y-12541755D02*
G01X15401838Y-12523213D01*
G01X15354086Y-12463523D02*
G01X15348752Y-12466317D01*
G01X15346212Y-12474191D01*
G01X15346212Y-12479525D01*
G01X15348752Y-12487399D01*
G01X15356626Y-12492733D01*
G01X15370088Y-12495527D01*
G01X15383296Y-12495527D01*
G01X15393964Y-12492733D01*
G01X15399298Y-12487399D01*
G01X15401838Y-12479525D01*
G01X15401838Y-12476985D01*
G01X15399298Y-12468857D01*
G01X15393964Y-12463523D01*
G01X15386090Y-12460983D01*
G01X15383296Y-12460983D01*
G01X15375422Y-12463523D01*
G01X15370088Y-12468857D01*
G01X15367294Y-12476985D01*
G01X15367294Y-12479525D01*
G01X15370088Y-12487399D01*
G01X15375422Y-12492733D01*
G01X15383296Y-12495527D01*
G01X15346212Y-5661694D02*
G01X15401838Y-5661694D01*
G01X15346212Y-5661694D02*
G01X15346212Y-5637818D01*
G01X15348752Y-5629944D01*
G01X15351546Y-5627404D01*
G01X15356626Y-5624610D01*
G01X15361960Y-5624610D01*
G01X15367294Y-5627404D01*
G01X15370088Y-5629944D01*
G01X15372628Y-5637818D01*
G01X15372628Y-5661694D01*
G01X15372628Y-5643152D02*
G01X15401838Y-5624610D01*
G01X15346212Y-5591590D02*
G01X15346212Y-5562380D01*
G01X15367294Y-5578382D01*
G01X15367294Y-5570254D01*
G01X15370088Y-5564920D01*
G01X15372628Y-5562380D01*
G01X15380756Y-5559586D01*
G01X15386090Y-5559586D01*
G01X15393964Y-5562380D01*
G01X15399298Y-5567714D01*
G01X15401838Y-5575588D01*
G01X15401838Y-5583462D01*
G01X15399298Y-5591590D01*
G01X15396504Y-5594130D01*
G01X15391170Y-5596924D01*
G01X2846212Y-3394206D02*
G01X2901838Y-3394206D01*
G01X2846212Y-3394206D02*
G01X2846212Y-3370330D01*
G01X2848752Y-3362456D01*
G01X2851546Y-3359916D01*
G01X2856626Y-3357122D01*
G01X2861960Y-3357122D01*
G01X2867294Y-3359916D01*
G01X2870088Y-3362456D01*
G01X2872628Y-3370330D01*
G01X2872628Y-3394206D01*
G01X2872628Y-3375664D02*
G01X2901838Y-3357122D01*
G01X2846212Y-3324102D02*
G01X2846212Y-3294892D01*
G01X2867294Y-3310894D01*
G01X2867294Y-3302766D01*
G01X2870088Y-3297432D01*
G01X2872628Y-3294892D01*
G01X2880756Y-3292098D01*
G01X2886090Y-3292098D01*
G01X2893964Y-3294892D01*
G01X2899298Y-3300226D01*
G01X2901838Y-3308100D01*
G01X2901838Y-3315974D01*
G01X2899298Y-3324102D01*
G01X2896504Y-3326642D01*
G01X2891170Y-3329436D01*
G01X2859420Y-3261618D02*
G01X2856626Y-3261618D01*
G01X2851546Y-3259078D01*
G01X2848752Y-3256284D01*
G01X2846212Y-3250950D01*
G01X2846212Y-3240536D01*
G01X2848752Y-3235202D01*
G01X2851546Y-3232408D01*
G01X2856626Y-3229868D01*
G01X2861960Y-3229868D01*
G01X2867294Y-3232408D01*
G01X2875422Y-3237742D01*
G01X2901838Y-3264412D01*
G01X2901838Y-3227074D01*
G01X2846212Y-12592809D02*
G01X2901838Y-12592809D01*
G01X2846212Y-12592809D02*
G01X2846212Y-12568933D01*
G01X2848752Y-12561059D01*
G01X2851546Y-12558519D01*
G01X2856626Y-12555725D01*
G01X2861960Y-12555725D01*
G01X2867294Y-12558519D01*
G01X2870088Y-12561059D01*
G01X2872628Y-12568933D01*
G01X2872628Y-12592809D01*
G01X2872628Y-12574267D02*
G01X2901838Y-12555725D01*
G01X2846212Y-12522705D02*
G01X2846212Y-12493495D01*
G01X2867294Y-12509497D01*
G01X2867294Y-12501369D01*
G01X2870088Y-12496035D01*
G01X2872628Y-12493495D01*
G01X2880756Y-12490701D01*
G01X2886090Y-12490701D01*
G01X2893964Y-12493495D01*
G01X2899298Y-12498829D01*
G01X2901838Y-12506703D01*
G01X2901838Y-12514577D01*
G01X2899298Y-12522705D01*
G01X2896504Y-12525245D01*
G01X2891170Y-12528039D01*
G01X2854086Y-12431011D02*
G01X2848752Y-12433805D01*
G01X2846212Y-12441679D01*
G01X2846212Y-12447013D01*
G01X2848752Y-12454887D01*
G01X2856626Y-12460221D01*
G01X2870088Y-12463015D01*
G01X2883296Y-12463015D01*
G01X2893964Y-12460221D01*
G01X2899298Y-12454887D01*
G01X2901838Y-12447013D01*
G01X2901838Y-12444473D01*
G01X2899298Y-12436345D01*
G01X2893964Y-12431011D01*
G01X2886090Y-12428471D01*
G01X2883296Y-12428471D01*
G01X2875422Y-12431011D01*
G01X2870088Y-12436345D01*
G01X2867294Y-12444473D01*
G01X2867294Y-12447013D01*
G01X2870088Y-12454887D01*
G01X2875422Y-12460221D01*
G01X2883296Y-12463015D01*
G01X19993086Y-9421696D02*
G01X19987752Y-9427030D01*
G01X19985212Y-9434904D01*
G01X19985212Y-9445572D01*
G01X19987752Y-9453700D01*
G01X19993086Y-9458780D01*
G01X19998420Y-9458780D01*
G01X20003754Y-9456240D01*
G01X20006294Y-9453700D01*
G01X20009088Y-9448366D01*
G01X20014422Y-9432364D01*
G01X20016962Y-9427030D01*
G01X20019756Y-9424490D01*
G01X20025090Y-9421696D01*
G01X20032964Y-9421696D01*
G01X20038298Y-9427030D01*
G01X20040838Y-9434904D01*
G01X20040838Y-9445572D01*
G01X20038298Y-9453700D01*
G01X20032964Y-9458780D01*
G01X19985212Y-9394010D02*
G01X20040838Y-9380548D01*
G01X19985212Y-9367340D02*
G01X20040838Y-9380548D01*
G01X19985212Y-9367340D02*
G01X20040838Y-9354132D01*
G01X19985212Y-9340924D02*
G01X20040838Y-9354132D01*
G01X19985212Y-9307904D02*
G01X19985212Y-9278694D01*
G01X20006294Y-9294696D01*
G01X20006294Y-9286568D01*
G01X20009088Y-9281234D01*
G01X20011628Y-9278694D01*
G01X20019756Y-9275900D01*
G01X20025090Y-9275900D01*
G01X20032964Y-9278694D01*
G01X20038298Y-9284028D01*
G01X20040838Y-9291902D01*
G01X20040838Y-9299776D01*
G01X20038298Y-9307904D01*
G01X20035504Y-9310444D01*
G01X20030170Y-9313238D01*
G01X2399212Y-12445476D02*
G01X2454838Y-12445476D01*
G01X2399212Y-12445476D02*
G01X2399212Y-12426934D01*
G01X2401752Y-12419060D01*
G01X2407086Y-12413726D01*
G01X2412420Y-12411186D01*
G01X2420294Y-12408392D01*
G01X2433756Y-12408392D01*
G01X2441630Y-12411186D01*
G01X2446964Y-12413726D01*
G01X2452298Y-12419060D01*
G01X2454838Y-12426934D01*
G01X2454838Y-12445476D01*
G01X2399212Y-12354036D02*
G01X2436296Y-12380706D01*
G01X2436296Y-12340828D01*
G01X2399212Y-12354036D02*
G01X2454838Y-12354036D01*
G01X2412420Y-12310348D02*
G01X2409626Y-12310348D01*
G01X2404546Y-12307808D01*
G01X2401752Y-12305014D01*
G01X2399212Y-12299680D01*
G01X2399212Y-12289266D01*
G01X2401752Y-12283932D01*
G01X2404546Y-12281138D01*
G01X2409626Y-12278598D01*
G01X2414960Y-12278598D01*
G01X2420294Y-12281138D01*
G01X2428422Y-12286472D01*
G01X2454838Y-12313142D01*
G01X2454838Y-12275804D01*
G01X2222126Y-12017244D02*
G01X2219586Y-12012164D01*
G01X2211712Y-12004036D01*
G01X2267338Y-12004036D01*
G01X15346212Y-10261694D02*
G01X15401838Y-10261694D01*
G01X15346212Y-10261694D02*
G01X15346212Y-10237818D01*
G01X15348752Y-10229944D01*
G01X15351546Y-10227404D01*
G01X15356626Y-10224610D01*
G01X15361960Y-10224610D01*
G01X15367294Y-10227404D01*
G01X15370088Y-10229944D01*
G01X15372628Y-10237818D01*
G01X15372628Y-10261694D01*
G01X15372628Y-10243152D02*
G01X15401838Y-10224610D01*
G01X15346212Y-10164920D02*
G01X15346212Y-10191590D01*
G01X15370088Y-10194130D01*
G01X15367294Y-10191590D01*
G01X15364754Y-10183462D01*
G01X15364754Y-10175588D01*
G01X15367294Y-10167714D01*
G01X15372628Y-10162380D01*
G01X15380756Y-10159586D01*
G01X15386090Y-10159586D01*
G01X15393964Y-10162380D01*
G01X15399298Y-10167714D01*
G01X15401838Y-10175588D01*
G01X15401838Y-10183462D01*
G01X15399298Y-10191590D01*
G01X15396504Y-10194130D01*
G01X15391170Y-10196924D01*
G01X20527324Y-363912D02*
G01X20527324Y-419538D01*
G01X20527324Y-363912D02*
G01X20551200Y-363912D01*
G01X20559074Y-366452D01*
G01X20561614Y-369246D01*
G01X20564408Y-374326D01*
G01X20564408Y-379660D01*
G01X20561614Y-384994D01*
G01X20559074Y-387788D01*
G01X20551200Y-390328D01*
G01X20527324Y-390328D01*
G01X20545866Y-390328D02*
G01X20564408Y-419538D01*
G01X20618764Y-363912D02*
G01X20592094Y-400996D01*
G01X20631972Y-400996D01*
G01X20618764Y-363912D02*
G01X20618764Y-419538D01*
G01X20691662Y-363912D02*
G01X20664992Y-363912D01*
G01X20662452Y-387788D01*
G01X20664992Y-384994D01*
G01X20673120Y-382454D01*
G01X20680994Y-382454D01*
G01X20688868Y-384994D01*
G01X20694202Y-390328D01*
G01X20696996Y-398456D01*
G01X20696996Y-403790D01*
G01X20694202Y-411664D01*
G01X20688868Y-416998D01*
G01X20680994Y-419538D01*
G01X20673120Y-419538D01*
G01X20664992Y-416998D01*
G01X20662452Y-414204D01*
G01X20659658Y-408870D01*
G01X12399212Y-5532268D02*
G01X12454838Y-5532268D01*
G01X12399212Y-5532268D02*
G01X12399212Y-5513726D01*
G01X12401752Y-5505852D01*
G01X12407086Y-5500518D01*
G01X12412420Y-5497978D01*
G01X12420294Y-5495184D01*
G01X12433756Y-5495184D01*
G01X12441630Y-5497978D01*
G01X12446964Y-5500518D01*
G01X12452298Y-5505852D01*
G01X12454838Y-5513726D01*
G01X12454838Y-5532268D01*
G01X12409626Y-5467498D02*
G01X12407086Y-5462164D01*
G01X12399212Y-5454036D01*
G01X12454838Y-5454036D01*
G01X12399212Y-5394346D02*
G01X12399212Y-5421016D01*
G01X12423088Y-5423556D01*
G01X12420294Y-5421016D01*
G01X12417754Y-5412888D01*
G01X12417754Y-5405014D01*
G01X12420294Y-5397140D01*
G01X12425628Y-5391806D01*
G01X12433756Y-5389012D01*
G01X12439090Y-5389012D01*
G01X12446964Y-5391806D01*
G01X12452298Y-5397140D01*
G01X12454838Y-5405014D01*
G01X12454838Y-5412888D01*
G01X12452298Y-5421016D01*
G01X12449504Y-5423556D01*
G01X12444170Y-5426350D01*
G01X12222126Y-5117244D02*
G01X12219586Y-5112164D01*
G01X12211712Y-5104036D01*
G01X12267338Y-5104036D01*
G01X12399212Y-3233538D02*
G01X12454838Y-3233538D01*
G01X12399212Y-3233538D02*
G01X12399212Y-3214996D01*
G01X12401752Y-3207122D01*
G01X12407086Y-3201788D01*
G01X12412420Y-3199248D01*
G01X12420294Y-3196454D01*
G01X12433756Y-3196454D01*
G01X12441630Y-3199248D01*
G01X12446964Y-3201788D01*
G01X12452298Y-3207122D01*
G01X12454838Y-3214996D01*
G01X12454838Y-3233538D01*
G01X12409626Y-3168768D02*
G01X12407086Y-3163434D01*
G01X12399212Y-3155306D01*
G01X12454838Y-3155306D01*
G01X12399212Y-3100950D02*
G01X12436296Y-3127620D01*
G01X12436296Y-3087742D01*
G01X12399212Y-3100950D02*
G01X12454838Y-3100950D01*
G01X12222126Y-2817244D02*
G01X12219586Y-2812164D01*
G01X12211712Y-2804036D01*
G01X12267338Y-2804036D01*
G01X14899212Y-911694D02*
G01X14954838Y-911694D01*
G01X14899212Y-911694D02*
G01X14899212Y-893152D01*
G01X14901752Y-885278D01*
G01X14907086Y-879944D01*
G01X14912420Y-877404D01*
G01X14920294Y-874610D01*
G01X14933756Y-874610D01*
G01X14941630Y-877404D01*
G01X14946964Y-879944D01*
G01X14952298Y-885278D01*
G01X14954838Y-893152D01*
G01X14954838Y-911694D01*
G01X14899212Y-809586D02*
G01X14954838Y-836256D01*
G01X14899212Y-846924D02*
G01X14899212Y-809586D01*
G01X14711712Y-645768D02*
G01X14767338Y-645768D01*
G01X14711712Y-645768D02*
G01X14711712Y-621892D01*
G01X14714252Y-614018D01*
G01X14717046Y-611478D01*
G01X14722126Y-608684D01*
G01X14727460Y-608684D01*
G01X14732794Y-611478D01*
G01X14735588Y-614018D01*
G01X14738128Y-621892D01*
G01X14738128Y-645768D01*
G01X14738128Y-627226D02*
G01X14767338Y-608684D01*
G01X14711712Y-580998D02*
G01X14767338Y-580998D01*
G01X14711712Y-580998D02*
G01X14711712Y-546454D01*
G01X14738128Y-580998D02*
G01X14738128Y-559662D01*
G01X14767338Y-580998D02*
G01X14767338Y-546454D01*
G01X14711712Y-518768D02*
G01X14767338Y-518768D01*
G01X14711712Y-518768D02*
G01X14711712Y-484224D01*
G01X14738128Y-518768D02*
G01X14738128Y-497432D01*
G01X14727460Y-443076D02*
G01X14759464Y-443076D01*
G01X14735588Y-456538D02*
G01X14751590Y-429868D01*
G01X14735588Y-429868D02*
G01X14751590Y-456538D01*
G01X14727460Y-388720D02*
G01X14759464Y-388720D01*
G01X14735588Y-402182D02*
G01X14751590Y-375512D01*
G01X14735588Y-375512D02*
G01X14751590Y-402182D01*
G01X10346212Y-3383538D02*
G01X10401838Y-3383538D01*
G01X10346212Y-3383538D02*
G01X10346212Y-3359662D01*
G01X10348752Y-3351788D01*
G01X10351546Y-3349248D01*
G01X10356626Y-3346454D01*
G01X10361960Y-3346454D01*
G01X10367294Y-3349248D01*
G01X10370088Y-3351788D01*
G01X10372628Y-3359662D01*
G01X10372628Y-3383538D01*
G01X10372628Y-3364996D02*
G01X10401838Y-3346454D01*
G01X10356626Y-3318768D02*
G01X10354086Y-3313434D01*
G01X10346212Y-3305306D01*
G01X10401838Y-3305306D01*
G01X10346212Y-3250950D02*
G01X10383296Y-3277620D01*
G01X10383296Y-3237742D01*
G01X10346212Y-3250950D02*
G01X10401838Y-3250950D01*
G01X19525290Y-2268820D02*
G01X19522750Y-2263486D01*
G01X19517416Y-2258152D01*
G01X19512082Y-2255612D01*
G01X19501414Y-2255612D01*
G01X19496080Y-2258152D01*
G01X19490746Y-2263486D01*
G01X19488206Y-2268820D01*
G01X19485666Y-2276694D01*
G01X19485666Y-2290156D01*
G01X19488206Y-2298030D01*
G01X19490746Y-2303364D01*
G01X19496080Y-2308698D01*
G01X19501414Y-2311238D01*
G01X19512082Y-2311238D01*
G01X19517416Y-2308698D01*
G01X19522750Y-2303364D01*
G01X19525290Y-2298030D01*
G01X19579646Y-2255612D02*
G01X19552976Y-2292696D01*
G01X19592854Y-2292696D01*
G01X19579646Y-2255612D02*
G01X19579646Y-2311238D01*
G01X19338160Y-421820D02*
G01X19335620Y-416486D01*
G01X19330286Y-411152D01*
G01X19324952Y-408612D01*
G01X19314284Y-408612D01*
G01X19308950Y-411152D01*
G01X19303616Y-416486D01*
G01X19301076Y-421820D01*
G01X19298536Y-429694D01*
G01X19298536Y-443156D01*
G01X19301076Y-451030D01*
G01X19303616Y-456364D01*
G01X19308950Y-461698D01*
G01X19314284Y-464238D01*
G01X19324952Y-464238D01*
G01X19330286Y-461698D01*
G01X19335620Y-456364D01*
G01X19338160Y-451030D01*
G01X19368640Y-421820D02*
G01X19368640Y-419026D01*
G01X19371180Y-413946D01*
G01X19373974Y-411152D01*
G01X19379308Y-408612D01*
G01X19389722Y-408612D01*
G01X19395056Y-411152D01*
G01X19397850Y-413946D01*
G01X19400390Y-419026D01*
G01X19400390Y-424360D01*
G01X19397850Y-429694D01*
G01X19392516Y-437822D01*
G01X19365846Y-464238D01*
G01X19403184Y-464238D01*
G01X18740498Y-2390320D02*
G01X18737958Y-2384986D01*
G01X18732624Y-2379652D01*
G01X18727290Y-2377112D01*
G01X18716622Y-2377112D01*
G01X18711288Y-2379652D01*
G01X18705954Y-2384986D01*
G01X18703414Y-2390320D01*
G01X18700874Y-2398194D01*
G01X18700874Y-2411656D01*
G01X18703414Y-2419530D01*
G01X18705954Y-2424864D01*
G01X18711288Y-2430198D01*
G01X18716622Y-2432738D01*
G01X18727290Y-2432738D01*
G01X18732624Y-2430198D01*
G01X18737958Y-2424864D01*
G01X18740498Y-2419530D01*
G01X18768184Y-2387526D02*
G01X18773518Y-2384986D01*
G01X18781646Y-2377112D01*
G01X18781646Y-2432738D01*
G01X5346212Y-3392809D02*
G01X5401838Y-3392809D01*
G01X5346212Y-3392809D02*
G01X5346212Y-3368933D01*
G01X5348752Y-3361059D01*
G01X5351546Y-3358519D01*
G01X5356626Y-3355725D01*
G01X5361960Y-3355725D01*
G01X5367294Y-3358519D01*
G01X5370088Y-3361059D01*
G01X5372628Y-3368933D01*
G01X5372628Y-3392809D01*
G01X5372628Y-3374267D02*
G01X5401838Y-3355725D01*
G01X5359420Y-3325245D02*
G01X5356626Y-3325245D01*
G01X5351546Y-3322705D01*
G01X5348752Y-3319911D01*
G01X5346212Y-3314577D01*
G01X5346212Y-3304163D01*
G01X5348752Y-3298829D01*
G01X5351546Y-3296035D01*
G01X5356626Y-3293495D01*
G01X5361960Y-3293495D01*
G01X5367294Y-3296035D01*
G01X5375422Y-3301369D01*
G01X5401838Y-3328039D01*
G01X5401838Y-3290701D01*
G01X5354086Y-3231011D02*
G01X5348752Y-3233805D01*
G01X5346212Y-3241679D01*
G01X5346212Y-3247013D01*
G01X5348752Y-3254887D01*
G01X5356626Y-3260221D01*
G01X5370088Y-3263015D01*
G01X5383296Y-3263015D01*
G01X5393964Y-3260221D01*
G01X5399298Y-3254887D01*
G01X5401838Y-3247013D01*
G01X5401838Y-3244473D01*
G01X5399298Y-3236345D01*
G01X5393964Y-3231011D01*
G01X5386090Y-3228471D01*
G01X5383296Y-3228471D01*
G01X5375422Y-3231011D01*
G01X5370088Y-3236345D01*
G01X5367294Y-3244473D01*
G01X5367294Y-3247013D01*
G01X5370088Y-3254887D01*
G01X5375422Y-3260221D01*
G01X5383296Y-3263015D01*
G01X7291712Y-7830506D02*
G01X7347338Y-7830506D01*
G01X7291712Y-7830506D02*
G01X7291712Y-7811964D01*
G01X7294252Y-7804090D01*
G01X7299586Y-7798756D01*
G01X7304920Y-7796216D01*
G01X7312794Y-7793422D01*
G01X7326256Y-7793422D01*
G01X7334130Y-7796216D01*
G01X7339464Y-7798756D01*
G01X7344798Y-7804090D01*
G01X7347338Y-7811964D01*
G01X7347338Y-7830506D01*
G01X7304920Y-7762942D02*
G01X7302126Y-7762942D01*
G01X7297046Y-7760402D01*
G01X7294252Y-7757608D01*
G01X7291712Y-7752274D01*
G01X7291712Y-7741860D01*
G01X7294252Y-7736526D01*
G01X7297046Y-7733732D01*
G01X7302126Y-7731192D01*
G01X7307460Y-7731192D01*
G01X7312794Y-7733732D01*
G01X7320922Y-7739066D01*
G01X7347338Y-7765736D01*
G01X7347338Y-7728398D01*
G01X7291712Y-7687250D02*
G01X7294252Y-7695378D01*
G01X7299586Y-7697918D01*
G01X7304920Y-7697918D01*
G01X7310254Y-7695378D01*
G01X7312794Y-7690044D01*
G01X7315588Y-7679376D01*
G01X7318128Y-7671502D01*
G01X7323462Y-7666168D01*
G01X7328796Y-7663374D01*
G01X7336670Y-7663374D01*
G01X7342004Y-7666168D01*
G01X7344798Y-7668708D01*
G01X7347338Y-7676836D01*
G01X7347338Y-7687250D01*
G01X7344798Y-7695378D01*
G01X7342004Y-7697918D01*
G01X7336670Y-7700712D01*
G01X7328796Y-7700712D01*
G01X7323462Y-7697918D01*
G01X7318128Y-7692584D01*
G01X7315588Y-7684710D01*
G01X7312794Y-7674042D01*
G01X7310254Y-7668708D01*
G01X7304920Y-7666168D01*
G01X7299586Y-7666168D01*
G01X7294252Y-7668708D01*
G01X7291712Y-7676836D01*
G01X7291712Y-7687250D01*
G01X7114626Y-7403544D02*
G01X7112086Y-7398464D01*
G01X7104212Y-7390336D01*
G01X7159838Y-7390336D01*
G01X10346212Y-7980871D02*
G01X10401838Y-7980871D01*
G01X10346212Y-7980871D02*
G01X10346212Y-7956995D01*
G01X10348752Y-7949121D01*
G01X10351546Y-7946581D01*
G01X10356626Y-7943787D01*
G01X10361960Y-7943787D01*
G01X10367294Y-7946581D01*
G01X10370088Y-7949121D01*
G01X10372628Y-7956995D01*
G01X10372628Y-7980871D01*
G01X10372628Y-7962329D02*
G01X10401838Y-7943787D01*
G01X10356626Y-7916101D02*
G01X10354086Y-7910767D01*
G01X10346212Y-7902639D01*
G01X10401838Y-7902639D01*
G01X10354086Y-7842949D02*
G01X10348752Y-7845743D01*
G01X10346212Y-7853617D01*
G01X10346212Y-7858951D01*
G01X10348752Y-7866825D01*
G01X10356626Y-7872159D01*
G01X10370088Y-7874953D01*
G01X10383296Y-7874953D01*
G01X10393964Y-7872159D01*
G01X10399298Y-7866825D01*
G01X10401838Y-7858951D01*
G01X10401838Y-7856411D01*
G01X10399298Y-7848283D01*
G01X10393964Y-7842949D01*
G01X10386090Y-7840409D01*
G01X10383296Y-7840409D01*
G01X10375422Y-7842949D01*
G01X10370088Y-7848283D01*
G01X10367294Y-7856411D01*
G01X10367294Y-7858951D01*
G01X10370088Y-7866825D01*
G01X10375422Y-7872159D01*
G01X10383296Y-7874953D01*
G01X5346212Y-12594206D02*
G01X5401838Y-12594206D01*
G01X5346212Y-12594206D02*
G01X5346212Y-12570330D01*
G01X5348752Y-12562456D01*
G01X5351546Y-12559916D01*
G01X5356626Y-12557122D01*
G01X5361960Y-12557122D01*
G01X5367294Y-12559916D01*
G01X5370088Y-12562456D01*
G01X5372628Y-12570330D01*
G01X5372628Y-12594206D01*
G01X5372628Y-12575664D02*
G01X5401838Y-12557122D01*
G01X5346212Y-12524102D02*
G01X5346212Y-12494892D01*
G01X5367294Y-12510894D01*
G01X5367294Y-12502766D01*
G01X5370088Y-12497432D01*
G01X5372628Y-12494892D01*
G01X5380756Y-12492098D01*
G01X5386090Y-12492098D01*
G01X5393964Y-12494892D01*
G01X5399298Y-12500226D01*
G01X5401838Y-12508100D01*
G01X5401838Y-12515974D01*
G01X5399298Y-12524102D01*
G01X5396504Y-12526642D01*
G01X5391170Y-12529436D01*
G01X5346212Y-12448410D02*
G01X5348752Y-12456284D01*
G01X5356626Y-12461618D01*
G01X5370088Y-12464412D01*
G01X5377962Y-12464412D01*
G01X5391170Y-12461618D01*
G01X5399298Y-12456284D01*
G01X5401838Y-12448410D01*
G01X5401838Y-12443076D01*
G01X5399298Y-12435202D01*
G01X5391170Y-12429868D01*
G01X5377962Y-12427074D01*
G01X5370088Y-12427074D01*
G01X5356626Y-12429868D01*
G01X5348752Y-12435202D01*
G01X5346212Y-12443076D01*
G01X5346212Y-12448410D01*
G01X2846212Y-7995476D02*
G01X2901838Y-7995476D01*
G01X2846212Y-7995476D02*
G01X2846212Y-7971600D01*
G01X2848752Y-7963726D01*
G01X2851546Y-7961186D01*
G01X2856626Y-7958392D01*
G01X2861960Y-7958392D01*
G01X2867294Y-7961186D01*
G01X2870088Y-7963726D01*
G01X2872628Y-7971600D01*
G01X2872628Y-7995476D01*
G01X2872628Y-7976934D02*
G01X2901838Y-7958392D01*
G01X2846212Y-7925372D02*
G01X2846212Y-7896162D01*
G01X2867294Y-7912164D01*
G01X2867294Y-7904036D01*
G01X2870088Y-7898702D01*
G01X2872628Y-7896162D01*
G01X2880756Y-7893368D01*
G01X2886090Y-7893368D01*
G01X2893964Y-7896162D01*
G01X2899298Y-7901496D01*
G01X2901838Y-7909370D01*
G01X2901838Y-7917244D01*
G01X2899298Y-7925372D01*
G01X2896504Y-7927912D01*
G01X2891170Y-7930706D01*
G01X2846212Y-7839012D02*
G01X2883296Y-7865682D01*
G01X2883296Y-7825804D01*
G01X2846212Y-7839012D02*
G01X2901838Y-7839012D01*
G01X7846212Y-10294206D02*
G01X7901838Y-10294206D01*
G01X7846212Y-10294206D02*
G01X7846212Y-10270330D01*
G01X7848752Y-10262456D01*
G01X7851546Y-10259916D01*
G01X7856626Y-10257122D01*
G01X7861960Y-10257122D01*
G01X7867294Y-10259916D01*
G01X7870088Y-10262456D01*
G01X7872628Y-10270330D01*
G01X7872628Y-10294206D01*
G01X7872628Y-10275664D02*
G01X7901838Y-10257122D01*
G01X7859420Y-10226642D02*
G01X7856626Y-10226642D01*
G01X7851546Y-10224102D01*
G01X7848752Y-10221308D01*
G01X7846212Y-10215974D01*
G01X7846212Y-10205560D01*
G01X7848752Y-10200226D01*
G01X7851546Y-10197432D01*
G01X7856626Y-10194892D01*
G01X7861960Y-10194892D01*
G01X7867294Y-10197432D01*
G01X7875422Y-10202766D01*
G01X7901838Y-10229436D01*
G01X7901838Y-10192098D01*
G01X7846212Y-10159078D02*
G01X7846212Y-10129868D01*
G01X7867294Y-10145870D01*
G01X7867294Y-10137742D01*
G01X7870088Y-10132408D01*
G01X7872628Y-10129868D01*
G01X7880756Y-10127074D01*
G01X7886090Y-10127074D01*
G01X7893964Y-10129868D01*
G01X7899298Y-10135202D01*
G01X7901838Y-10143076D01*
G01X7901838Y-10150950D01*
G01X7899298Y-10159078D01*
G01X7896504Y-10161618D01*
G01X7891170Y-10164412D01*
G01X18954586Y-9421696D02*
G01X18949252Y-9427030D01*
G01X18946712Y-9434904D01*
G01X18946712Y-9445572D01*
G01X18949252Y-9453700D01*
G01X18954586Y-9458780D01*
G01X18959920Y-9458780D01*
G01X18965254Y-9456240D01*
G01X18967794Y-9453700D01*
G01X18970588Y-9448366D01*
G01X18975922Y-9432364D01*
G01X18978462Y-9427030D01*
G01X18981256Y-9424490D01*
G01X18986590Y-9421696D01*
G01X18994464Y-9421696D01*
G01X18999798Y-9427030D01*
G01X19002338Y-9434904D01*
G01X19002338Y-9445572D01*
G01X18999798Y-9453700D01*
G01X18994464Y-9458780D01*
G01X18946712Y-9394010D02*
G01X19002338Y-9380548D01*
G01X18946712Y-9367340D02*
G01X19002338Y-9380548D01*
G01X18946712Y-9367340D02*
G01X19002338Y-9354132D01*
G01X18946712Y-9340924D02*
G01X19002338Y-9354132D01*
G01X18946712Y-9281234D02*
G01X18946712Y-9307904D01*
G01X18970588Y-9310444D01*
G01X18967794Y-9307904D01*
G01X18965254Y-9299776D01*
G01X18965254Y-9291902D01*
G01X18967794Y-9284028D01*
G01X18973128Y-9278694D01*
G01X18981256Y-9275900D01*
G01X18986590Y-9275900D01*
G01X18994464Y-9278694D01*
G01X18999798Y-9284028D01*
G01X19002338Y-9291902D01*
G01X19002338Y-9299776D01*
G01X18999798Y-9307904D01*
G01X18997004Y-9310444D01*
G01X18991670Y-9313238D01*
G01X12399212Y-12432268D02*
G01X12454838Y-12432268D01*
G01X12399212Y-12432268D02*
G01X12399212Y-12413726D01*
G01X12401752Y-12405852D01*
G01X12407086Y-12400518D01*
G01X12412420Y-12397978D01*
G01X12420294Y-12395184D01*
G01X12433756Y-12395184D01*
G01X12441630Y-12397978D01*
G01X12446964Y-12400518D01*
G01X12452298Y-12405852D01*
G01X12454838Y-12413726D01*
G01X12454838Y-12432268D01*
G01X12409626Y-12367498D02*
G01X12407086Y-12362164D01*
G01X12399212Y-12354036D01*
G01X12454838Y-12354036D01*
G01X12399212Y-12312888D02*
G01X12401752Y-12321016D01*
G01X12407086Y-12323556D01*
G01X12412420Y-12323556D01*
G01X12417754Y-12321016D01*
G01X12420294Y-12315682D01*
G01X12423088Y-12305014D01*
G01X12425628Y-12297140D01*
G01X12430962Y-12291806D01*
G01X12436296Y-12289012D01*
G01X12444170Y-12289012D01*
G01X12449504Y-12291806D01*
G01X12452298Y-12294346D01*
G01X12454838Y-12302474D01*
G01X12454838Y-12312888D01*
G01X12452298Y-12321016D01*
G01X12449504Y-12323556D01*
G01X12444170Y-12326350D01*
G01X12436296Y-12326350D01*
G01X12430962Y-12323556D01*
G01X12425628Y-12318222D01*
G01X12423088Y-12310348D01*
G01X12420294Y-12299680D01*
G01X12417754Y-12294346D01*
G01X12412420Y-12291806D01*
G01X12407086Y-12291806D01*
G01X12401752Y-12294346D01*
G01X12399212Y-12302474D01*
G01X12399212Y-12312888D01*
G01X12222126Y-12017244D02*
G01X12219586Y-12012164D01*
G01X12211712Y-12004036D01*
G01X12267338Y-12004036D01*
G01X10346212Y-10282268D02*
G01X10401838Y-10282268D01*
G01X10346212Y-10282268D02*
G01X10346212Y-10258392D01*
G01X10348752Y-10250518D01*
G01X10351546Y-10247978D01*
G01X10356626Y-10245184D01*
G01X10361960Y-10245184D01*
G01X10367294Y-10247978D01*
G01X10370088Y-10250518D01*
G01X10372628Y-10258392D01*
G01X10372628Y-10282268D01*
G01X10372628Y-10263726D02*
G01X10401838Y-10245184D01*
G01X10356626Y-10217498D02*
G01X10354086Y-10212164D01*
G01X10346212Y-10204036D01*
G01X10401838Y-10204036D01*
G01X10346212Y-10139012D02*
G01X10401838Y-10165682D01*
G01X10346212Y-10176350D02*
G01X10346212Y-10139012D01*
G01X7846212Y-3394206D02*
G01X7901838Y-3394206D01*
G01X7846212Y-3394206D02*
G01X7846212Y-3370330D01*
G01X7848752Y-3362456D01*
G01X7851546Y-3359916D01*
G01X7856626Y-3357122D01*
G01X7861960Y-3357122D01*
G01X7867294Y-3359916D01*
G01X7870088Y-3362456D01*
G01X7872628Y-3370330D01*
G01X7872628Y-3394206D01*
G01X7872628Y-3375664D02*
G01X7901838Y-3357122D01*
G01X7859420Y-3326642D02*
G01X7856626Y-3326642D01*
G01X7851546Y-3324102D01*
G01X7848752Y-3321308D01*
G01X7846212Y-3315974D01*
G01X7846212Y-3305560D01*
G01X7848752Y-3300226D01*
G01X7851546Y-3297432D01*
G01X7856626Y-3294892D01*
G01X7861960Y-3294892D01*
G01X7867294Y-3297432D01*
G01X7875422Y-3302766D01*
G01X7901838Y-3329436D01*
G01X7901838Y-3292098D01*
G01X7846212Y-3248410D02*
G01X7848752Y-3256284D01*
G01X7856626Y-3261618D01*
G01X7870088Y-3264412D01*
G01X7877962Y-3264412D01*
G01X7891170Y-3261618D01*
G01X7899298Y-3256284D01*
G01X7901838Y-3248410D01*
G01X7901838Y-3243076D01*
G01X7899298Y-3235202D01*
G01X7891170Y-3229868D01*
G01X7877962Y-3227074D01*
G01X7870088Y-3227074D01*
G01X7856626Y-3229868D01*
G01X7848752Y-3235202D01*
G01X7846212Y-3243076D01*
G01X7846212Y-3248410D01*
G01X4899212Y-10144206D02*
G01X4954838Y-10144206D01*
G01X4899212Y-10144206D02*
G01X4899212Y-10125664D01*
G01X4901752Y-10117790D01*
G01X4907086Y-10112456D01*
G01X4912420Y-10109916D01*
G01X4920294Y-10107122D01*
G01X4933756Y-10107122D01*
G01X4941630Y-10109916D01*
G01X4946964Y-10112456D01*
G01X4952298Y-10117790D01*
G01X4954838Y-10125664D01*
G01X4954838Y-10144206D01*
G01X4899212Y-10074102D02*
G01X4899212Y-10044892D01*
G01X4920294Y-10060894D01*
G01X4920294Y-10052766D01*
G01X4923088Y-10047432D01*
G01X4925628Y-10044892D01*
G01X4933756Y-10042098D01*
G01X4939090Y-10042098D01*
G01X4946964Y-10044892D01*
G01X4952298Y-10050226D01*
G01X4954838Y-10058100D01*
G01X4954838Y-10065974D01*
G01X4952298Y-10074102D01*
G01X4949504Y-10076642D01*
G01X4944170Y-10079436D01*
G01X4899212Y-9982408D02*
G01X4899212Y-10009078D01*
G01X4923088Y-10011618D01*
G01X4920294Y-10009078D01*
G01X4917754Y-10000950D01*
G01X4917754Y-9993076D01*
G01X4920294Y-9985202D01*
G01X4925628Y-9979868D01*
G01X4933756Y-9977074D01*
G01X4939090Y-9977074D01*
G01X4946964Y-9979868D01*
G01X4952298Y-9985202D01*
G01X4954838Y-9993076D01*
G01X4954838Y-10000950D01*
G01X4952298Y-10009078D01*
G01X4949504Y-10011618D01*
G01X4944170Y-10014412D01*
G01X4722126Y-9717244D02*
G01X4719586Y-9712164D01*
G01X4711712Y-9704036D01*
G01X4767338Y-9704036D01*
G01X2399212Y-7845476D02*
G01X2454838Y-7845476D01*
G01X2399212Y-7845476D02*
G01X2399212Y-7826934D01*
G01X2401752Y-7819060D01*
G01X2407086Y-7813726D01*
G01X2412420Y-7811186D01*
G01X2420294Y-7808392D01*
G01X2433756Y-7808392D01*
G01X2441630Y-7811186D01*
G01X2446964Y-7813726D01*
G01X2452298Y-7819060D01*
G01X2454838Y-7826934D01*
G01X2454838Y-7845476D01*
G01X2399212Y-7754036D02*
G01X2436296Y-7780706D01*
G01X2436296Y-7740828D01*
G01X2399212Y-7754036D02*
G01X2454838Y-7754036D01*
G01X2399212Y-7697140D02*
G01X2401752Y-7705014D01*
G01X2409626Y-7710348D01*
G01X2423088Y-7713142D01*
G01X2430962Y-7713142D01*
G01X2444170Y-7710348D01*
G01X2452298Y-7705014D01*
G01X2454838Y-7697140D01*
G01X2454838Y-7691806D01*
G01X2452298Y-7683932D01*
G01X2444170Y-7678598D01*
G01X2430962Y-7675804D01*
G01X2423088Y-7675804D01*
G01X2409626Y-7678598D01*
G01X2401752Y-7683932D01*
G01X2399212Y-7691806D01*
G01X2399212Y-7697140D01*
G01X2222126Y-7417244D02*
G01X2219586Y-7412164D01*
G01X2211712Y-7404036D01*
G01X2267338Y-7404036D01*
G01X7399212Y-10142809D02*
G01X7454838Y-10142809D01*
G01X7399212Y-10142809D02*
G01X7399212Y-10124267D01*
G01X7401752Y-10116393D01*
G01X7407086Y-10111059D01*
G01X7412420Y-10108519D01*
G01X7420294Y-10105725D01*
G01X7433756Y-10105725D01*
G01X7441630Y-10108519D01*
G01X7446964Y-10111059D01*
G01X7452298Y-10116393D01*
G01X7454838Y-10124267D01*
G01X7454838Y-10142809D01*
G01X7412420Y-10075245D02*
G01X7409626Y-10075245D01*
G01X7404546Y-10072705D01*
G01X7401752Y-10069911D01*
G01X7399212Y-10064577D01*
G01X7399212Y-10054163D01*
G01X7401752Y-10048829D01*
G01X7404546Y-10046035D01*
G01X7409626Y-10043495D01*
G01X7414960Y-10043495D01*
G01X7420294Y-10046035D01*
G01X7428422Y-10051369D01*
G01X7454838Y-10078039D01*
G01X7454838Y-10040701D01*
G01X7417754Y-9978471D02*
G01X7425628Y-9981011D01*
G01X7430962Y-9986345D01*
G01X7433756Y-9994473D01*
G01X7433756Y-9997013D01*
G01X7430962Y-10004887D01*
G01X7425628Y-10010221D01*
G01X7417754Y-10013015D01*
G01X7414960Y-10013015D01*
G01X7407086Y-10010221D01*
G01X7401752Y-10004887D01*
G01X7399212Y-9997013D01*
G01X7399212Y-9994473D01*
G01X7401752Y-9986345D01*
G01X7407086Y-9981011D01*
G01X7417754Y-9978471D01*
G01X7430962Y-9978471D01*
G01X7444170Y-9981011D01*
G01X7452298Y-9986345D01*
G01X7454838Y-9994473D01*
G01X7454838Y-9999553D01*
G01X7452298Y-10007681D01*
G01X7446964Y-10010221D01*
G01X7222126Y-9717244D02*
G01X7219586Y-9712164D01*
G01X7211712Y-9704036D01*
G01X7267338Y-9704036D01*
G01X4899212Y-7845476D02*
G01X4954838Y-7845476D01*
G01X4899212Y-7845476D02*
G01X4899212Y-7826934D01*
G01X4901752Y-7819060D01*
G01X4907086Y-7813726D01*
G01X4912420Y-7811186D01*
G01X4920294Y-7808392D01*
G01X4933756Y-7808392D01*
G01X4941630Y-7811186D01*
G01X4946964Y-7813726D01*
G01X4952298Y-7819060D01*
G01X4954838Y-7826934D01*
G01X4954838Y-7845476D01*
G01X4899212Y-7775372D02*
G01X4899212Y-7746162D01*
G01X4920294Y-7762164D01*
G01X4920294Y-7754036D01*
G01X4923088Y-7748702D01*
G01X4925628Y-7746162D01*
G01X4933756Y-7743368D01*
G01X4939090Y-7743368D01*
G01X4946964Y-7746162D01*
G01X4952298Y-7751496D01*
G01X4954838Y-7759370D01*
G01X4954838Y-7767244D01*
G01X4952298Y-7775372D01*
G01X4949504Y-7777912D01*
G01X4944170Y-7780706D01*
G01X4899212Y-7689012D02*
G01X4936296Y-7715682D01*
G01X4936296Y-7675804D01*
G01X4899212Y-7689012D02*
G01X4954838Y-7689012D01*
G01X4722126Y-7417244D02*
G01X4719586Y-7412164D01*
G01X4711712Y-7404036D01*
G01X4767338Y-7404036D01*
G01X20271920Y-1743840D02*
G01X20266586Y-1746380D01*
G01X20261252Y-1751714D01*
G01X20258712Y-1757048D01*
G01X20258712Y-1767716D01*
G01X20261252Y-1773050D01*
G01X20266586Y-1778384D01*
G01X20271920Y-1780924D01*
G01X20279794Y-1783464D01*
G01X20293256Y-1783464D01*
G01X20301130Y-1780924D01*
G01X20306464Y-1778384D01*
G01X20311798Y-1773050D01*
G01X20314338Y-1767716D01*
G01X20314338Y-1757048D01*
G01X20311798Y-1751714D01*
G01X20306464Y-1746380D01*
G01X20301130Y-1743840D01*
G01X20258712Y-1710820D02*
G01X20258712Y-1681610D01*
G01X20279794Y-1697612D01*
G01X20279794Y-1689484D01*
G01X20282588Y-1684150D01*
G01X20285128Y-1681610D01*
G01X20293256Y-1678816D01*
G01X20298590Y-1678816D01*
G01X20306464Y-1681610D01*
G01X20311798Y-1686944D01*
G01X20314338Y-1694818D01*
G01X20314338Y-1702692D01*
G01X20311798Y-1710820D01*
G01X20309004Y-1713360D01*
G01X20303670Y-1716154D01*
G01X346212Y-7995476D02*
G01X401838Y-7995476D01*
G01X346212Y-7995476D02*
G01X346212Y-7971600D01*
G01X348752Y-7963726D01*
G01X351546Y-7961186D01*
G01X356626Y-7958392D01*
G01X361960Y-7958392D01*
G01X367294Y-7961186D01*
G01X370088Y-7963726D01*
G01X372628Y-7971600D01*
G01X372628Y-7995476D01*
G01X372628Y-7976934D02*
G01X401838Y-7958392D01*
G01X346212Y-7904036D02*
G01X383296Y-7930706D01*
G01X383296Y-7890828D01*
G01X346212Y-7904036D02*
G01X401838Y-7904036D01*
G01X346212Y-7847140D02*
G01X348752Y-7855014D01*
G01X356626Y-7860348D01*
G01X370088Y-7863142D01*
G01X377962Y-7863142D01*
G01X391170Y-7860348D01*
G01X399298Y-7855014D01*
G01X401838Y-7847140D01*
G01X401838Y-7841806D01*
G01X399298Y-7833932D01*
G01X391170Y-7828598D01*
G01X377962Y-7825804D01*
G01X370088Y-7825804D01*
G01X356626Y-7828598D01*
G01X348752Y-7833932D01*
G01X346212Y-7841806D01*
G01X346212Y-7847140D01*
G01X12846212Y-3361694D02*
G01X12901838Y-3361694D01*
G01X12846212Y-3361694D02*
G01X12846212Y-3337818D01*
G01X12848752Y-3329944D01*
G01X12851546Y-3327404D01*
G01X12856626Y-3324610D01*
G01X12861960Y-3324610D01*
G01X12867294Y-3327404D01*
G01X12870088Y-3329944D01*
G01X12872628Y-3337818D01*
G01X12872628Y-3361694D01*
G01X12872628Y-3343152D02*
G01X12901838Y-3324610D01*
G01X12846212Y-3283462D02*
G01X12848752Y-3291590D01*
G01X12854086Y-3294130D01*
G01X12859420Y-3294130D01*
G01X12864754Y-3291590D01*
G01X12867294Y-3286256D01*
G01X12870088Y-3275588D01*
G01X12872628Y-3267714D01*
G01X12877962Y-3262380D01*
G01X12883296Y-3259586D01*
G01X12891170Y-3259586D01*
G01X12896504Y-3262380D01*
G01X12899298Y-3264920D01*
G01X12901838Y-3273048D01*
G01X12901838Y-3283462D01*
G01X12899298Y-3291590D01*
G01X12896504Y-3294130D01*
G01X12891170Y-3296924D01*
G01X12883296Y-3296924D01*
G01X12877962Y-3294130D01*
G01X12872628Y-3288796D01*
G01X12870088Y-3280922D01*
G01X12867294Y-3270254D01*
G01X12864754Y-3264920D01*
G01X12859420Y-3262380D01*
G01X12854086Y-3262380D01*
G01X12848752Y-3264920D01*
G01X12846212Y-3273048D01*
G01X12846212Y-3283462D01*
G01X5346212Y-10292809D02*
G01X5401838Y-10292809D01*
G01X5346212Y-10292809D02*
G01X5346212Y-10268933D01*
G01X5348752Y-10261059D01*
G01X5351546Y-10258519D01*
G01X5356626Y-10255725D01*
G01X5361960Y-10255725D01*
G01X5367294Y-10258519D01*
G01X5370088Y-10261059D01*
G01X5372628Y-10268933D01*
G01X5372628Y-10292809D01*
G01X5372628Y-10274267D02*
G01X5401838Y-10255725D01*
G01X5359420Y-10225245D02*
G01X5356626Y-10225245D01*
G01X5351546Y-10222705D01*
G01X5348752Y-10219911D01*
G01X5346212Y-10214577D01*
G01X5346212Y-10204163D01*
G01X5348752Y-10198829D01*
G01X5351546Y-10196035D01*
G01X5356626Y-10193495D01*
G01X5361960Y-10193495D01*
G01X5367294Y-10196035D01*
G01X5375422Y-10201369D01*
G01X5401838Y-10228039D01*
G01X5401838Y-10190701D01*
G01X5364754Y-10128471D02*
G01X5372628Y-10131011D01*
G01X5377962Y-10136345D01*
G01X5380756Y-10144473D01*
G01X5380756Y-10147013D01*
G01X5377962Y-10154887D01*
G01X5372628Y-10160221D01*
G01X5364754Y-10163015D01*
G01X5361960Y-10163015D01*
G01X5354086Y-10160221D01*
G01X5348752Y-10154887D01*
G01X5346212Y-10147013D01*
G01X5346212Y-10144473D01*
G01X5348752Y-10136345D01*
G01X5354086Y-10131011D01*
G01X5364754Y-10128471D01*
G01X5377962Y-10128471D01*
G01X5391170Y-10131011D01*
G01X5399298Y-10136345D01*
G01X5401838Y-10144473D01*
G01X5401838Y-10149553D01*
G01X5399298Y-10157681D01*
G01X5393964Y-10160221D01*
G04 Text End*

G04 PolygonModel Start*
G54D11*
G01X6961000Y-3455700D02*
G01X7068500Y-3455700D01*
G01X7351000Y-2865700D02*
G01X7351000Y-3455700D01*
G01X6961000Y-2865700D02*
G01X6961000Y-3455700D01*
G01X10640900Y-4903700D02*
G01X11645000Y-4903700D01*
G01X11645000Y-6127700D02*
G01X11645000Y-5734000D01*
G01X11645000Y-5297300D02*
G01X11645000Y-4903700D01*
G01X10640900Y-5297300D02*
G01X10640900Y-4903700D01*
G01X10640900Y-6127700D02*
G01X10773000Y-6127700D01*
G01X11480000Y-6127700D02*
G01X11645000Y-6127700D01*
G01X11230100Y-6127700D02*
G01X11306000Y-6127700D01*
G01X11018000Y-6127700D02*
G01X11056000Y-6127700D01*
G01X10640900Y-6127700D02*
G01X10640900Y-5734000D01*
G01X15640900Y-7203700D02*
G01X16645000Y-7203700D01*
G01X16645000Y-8427700D02*
G01X16645000Y-8034000D01*
G01X16645000Y-7597300D02*
G01X16645000Y-7203700D01*
G01X15640900Y-7597300D02*
G01X15640900Y-7203700D01*
G01X15640900Y-8427700D02*
G01X15773000Y-8427700D01*
G01X16480000Y-8427700D02*
G01X16645000Y-8427700D01*
G01X16230100Y-8427700D02*
G01X16306000Y-8427700D01*
G01X16018000Y-8427700D02*
G01X16056000Y-8427700D01*
G01X15640900Y-8427700D02*
G01X15640900Y-8034000D01*
G01X18481100Y-3759900D02*
G01X20711100Y-3759900D01*
G01X18481100Y-3544900D02*
G01X18481100Y-3759900D01*
G01X20711100Y-3759900D02*
G01X20711100Y-3544900D01*
G01X11961000Y-1155700D02*
G01X12068500Y-1155700D01*
G01X12351000Y-565700D02*
G01X12351000Y-1155700D01*
G01X11961000Y-565700D02*
G01X11961000Y-1155700D01*
G01X5640900Y-303700D02*
G01X6645000Y-303700D01*
G01X6645000Y-1527700D02*
G01X6645000Y-1134000D01*
G01X6645000Y-697300D02*
G01X6645000Y-303700D01*
G01X5640900Y-697300D02*
G01X5640900Y-303700D01*
G01X5640900Y-1527700D02*
G01X5773000Y-1527700D01*
G01X6480000Y-1527700D02*
G01X6645000Y-1527700D01*
G01X6230100Y-1527700D02*
G01X6306000Y-1527700D01*
G01X6018000Y-1527700D02*
G01X6056000Y-1527700D01*
G01X5640900Y-1527700D02*
G01X5640900Y-1134000D01*
G01X8140900Y-7203700D02*
G01X9145000Y-7203700D01*
G01X9145000Y-8427700D02*
G01X9145000Y-8034000D01*
G01X9145000Y-7597300D02*
G01X9145000Y-7203700D01*
G01X8140900Y-7597300D02*
G01X8140900Y-7203700D01*
G01X8140900Y-8427700D02*
G01X8273000Y-8427700D01*
G01X8980000Y-8427700D02*
G01X9145000Y-8427700D01*
G01X8730100Y-8427700D02*
G01X8806000Y-8427700D01*
G01X8518000Y-8427700D02*
G01X8556000Y-8427700D01*
G01X8140900Y-8427700D02*
G01X8140900Y-8034000D01*
G01X4461000Y-1155700D02*
G01X4568500Y-1155700D01*
G01X4851000Y-565700D02*
G01X4851000Y-1155700D01*
G01X4461000Y-565700D02*
G01X4461000Y-1155700D01*
G01X3140900Y-303700D02*
G01X4145000Y-303700D01*
G01X4145000Y-1527700D02*
G01X4145000Y-1134000D01*
G01X4145000Y-697300D02*
G01X4145000Y-303700D01*
G01X3140900Y-697300D02*
G01X3140900Y-303700D01*
G01X3140900Y-1527700D02*
G01X3273000Y-1527700D01*
G01X3980000Y-1527700D02*
G01X4145000Y-1527700D01*
G01X3730100Y-1527700D02*
G01X3806000Y-1527700D01*
G01X3518000Y-1527700D02*
G01X3556000Y-1527700D01*
G01X3140900Y-1527700D02*
G01X3140900Y-1134000D01*
G01X4461000Y-5755700D02*
G01X4568500Y-5755700D01*
G01X4851000Y-5165700D02*
G01X4851000Y-5755700D01*
G01X4461000Y-5165700D02*
G01X4461000Y-5755700D01*
G01X16961000Y-1155700D02*
G01X17068500Y-1155700D01*
G01X17351000Y-565700D02*
G01X17351000Y-1155700D01*
G01X16961000Y-565700D02*
G01X16961000Y-1155700D01*
G01X640900Y-303700D02*
G01X1645000Y-303700D01*
G01X1645000Y-1527700D02*
G01X1645000Y-1134000D01*
G01X1645000Y-697300D02*
G01X1645000Y-303700D01*
G01X640900Y-697300D02*
G01X640900Y-303700D01*
G01X640900Y-1527700D02*
G01X773000Y-1527700D01*
G01X1480000Y-1527700D02*
G01X1645000Y-1527700D01*
G01X1230100Y-1527700D02*
G01X1306000Y-1527700D01*
G01X1018000Y-1527700D02*
G01X1056000Y-1527700D01*
G01X640900Y-1527700D02*
G01X640900Y-1134000D01*
G01X4461000Y-12655700D02*
G01X4568500Y-12655700D01*
G01X4851000Y-12065700D02*
G01X4851000Y-12655700D01*
G01X4461000Y-12065700D02*
G01X4461000Y-12655700D01*
G01X14461000Y-5755700D02*
G01X14568500Y-5755700D01*
G01X14851000Y-5165700D02*
G01X14851000Y-5755700D01*
G01X14461000Y-5165700D02*
G01X14461000Y-5755700D01*
G01X1961000Y-10355700D02*
G01X2068500Y-10355700D01*
G01X2351000Y-9765700D02*
G01X2351000Y-10355700D01*
G01X1961000Y-9765700D02*
G01X1961000Y-10355700D01*
G01X11961000Y-8055700D02*
G01X12068500Y-8055700D01*
G01X12351000Y-7465700D02*
G01X12351000Y-8055700D01*
G01X11961000Y-7465700D02*
G01X11961000Y-8055700D01*
G01X8140900Y-4903700D02*
G01X9145000Y-4903700D01*
G01X9145000Y-6127700D02*
G01X9145000Y-5734000D01*
G01X9145000Y-5297300D02*
G01X9145000Y-4903700D01*
G01X8140900Y-5297300D02*
G01X8140900Y-4903700D01*
G01X8140900Y-6127700D02*
G01X8273000Y-6127700D01*
G01X8980000Y-6127700D02*
G01X9145000Y-6127700D01*
G01X8730100Y-6127700D02*
G01X8806000Y-6127700D01*
G01X8518000Y-6127700D02*
G01X8556000Y-6127700D01*
G01X8140900Y-6127700D02*
G01X8140900Y-5734000D01*
G01X13140900Y-11803700D02*
G01X14145000Y-11803700D01*
G01X14145000Y-13027700D02*
G01X14145000Y-12634000D01*
G01X14145000Y-12197300D02*
G01X14145000Y-11803700D01*
G01X13140900Y-12197300D02*
G01X13140900Y-11803700D01*
G01X13140900Y-13027700D02*
G01X13273000Y-13027700D01*
G01X13980000Y-13027700D02*
G01X14145000Y-13027700D01*
G01X13730100Y-13027700D02*
G01X13806000Y-13027700D01*
G01X13518000Y-13027700D02*
G01X13556000Y-13027700D01*
G01X13140900Y-13027700D02*
G01X13140900Y-12634000D01*
G01X14461000Y-12655700D02*
G01X14568500Y-12655700D01*
G01X14851000Y-12065700D02*
G01X14851000Y-12655700D01*
G01X14461000Y-12065700D02*
G01X14461000Y-12655700D01*
G01X13140900Y-9503700D02*
G01X14145000Y-9503700D01*
G01X14145000Y-10727700D02*
G01X14145000Y-10334000D01*
G01X14145000Y-9897300D02*
G01X14145000Y-9503700D01*
G01X13140900Y-9897300D02*
G01X13140900Y-9503700D01*
G01X13140900Y-10727700D02*
G01X13273000Y-10727700D01*
G01X13980000Y-10727700D02*
G01X14145000Y-10727700D01*
G01X13730100Y-10727700D02*
G01X13806000Y-10727700D01*
G01X13518000Y-10727700D02*
G01X13556000Y-10727700D01*
G01X13140900Y-10727700D02*
G01X13140900Y-10334000D01*
G01X14461000Y-8055700D02*
G01X14568500Y-8055700D01*
G01X14851000Y-7465700D02*
G01X14851000Y-8055700D01*
G01X14461000Y-7465700D02*
G01X14461000Y-8055700D01*
G01X640900Y-11803700D02*
G01X1645000Y-11803700D01*
G01X1645000Y-13027700D02*
G01X1645000Y-12634000D01*
G01X1645000Y-12197300D02*
G01X1645000Y-11803700D01*
G01X640900Y-12197300D02*
G01X640900Y-11803700D01*
G01X640900Y-13027700D02*
G01X773000Y-13027700D01*
G01X1480000Y-13027700D02*
G01X1645000Y-13027700D01*
G01X1230100Y-13027700D02*
G01X1306000Y-13027700D01*
G01X1018000Y-13027700D02*
G01X1056000Y-13027700D01*
G01X640900Y-13027700D02*
G01X640900Y-12634000D01*
G01X19530200Y-2735900D02*
G01X19984200Y-2735900D01*
G01X19984200Y-2734400D02*
G01X19984200Y-2735900D01*
G01X19984200Y-2521900D02*
G01X19984200Y-2523400D01*
G01X19530200Y-2521900D02*
G01X19530200Y-2523400D01*
G01X19530200Y-2521900D02*
G01X19984200Y-2521900D01*
G01X19530200Y-2734400D02*
G01X19530200Y-2735900D01*
G01X640900Y-4903700D02*
G01X1645000Y-4903700D01*
G01X1645000Y-6127700D02*
G01X1645000Y-5734000D01*
G01X1645000Y-5297300D02*
G01X1645000Y-4903700D01*
G01X640900Y-5297300D02*
G01X640900Y-4903700D01*
G01X640900Y-6127700D02*
G01X773000Y-6127700D01*
G01X1480000Y-6127700D02*
G01X1645000Y-6127700D01*
G01X1230100Y-6127700D02*
G01X1306000Y-6127700D01*
G01X1018000Y-6127700D02*
G01X1056000Y-6127700D01*
G01X640900Y-6127700D02*
G01X640900Y-5734000D01*
G01X1961000Y-5755700D02*
G01X2068500Y-5755700D01*
G01X2351000Y-5165700D02*
G01X2351000Y-5755700D01*
G01X1961000Y-5165700D02*
G01X1961000Y-5755700D01*
G01X11961000Y-10355700D02*
G01X12068500Y-10355700D01*
G01X12351000Y-9765700D02*
G01X12351000Y-10355700D01*
G01X11961000Y-9765700D02*
G01X11961000Y-10355700D01*
G01X9461000Y-1155700D02*
G01X9568500Y-1155700D01*
G01X9851000Y-565700D02*
G01X9851000Y-1155700D01*
G01X9461000Y-565700D02*
G01X9461000Y-1155700D01*
G01X19838100Y-940600D02*
G01X20116100Y-940600D01*
G01X19838100Y-1802600D02*
G01X20116100Y-1802600D01*
G01X19838100Y-1802600D02*
G01X19838100Y-940600D01*
G01X20116100Y-1802600D02*
G01X20116100Y-940600D01*
G01X3140900Y-9503700D02*
G01X4145000Y-9503700D01*
G01X4145000Y-10727700D02*
G01X4145000Y-10334000D01*
G01X4145000Y-9897300D02*
G01X4145000Y-9503700D01*
G01X3140900Y-9897300D02*
G01X3140900Y-9503700D01*
G01X3140900Y-10727700D02*
G01X3273000Y-10727700D01*
G01X3980000Y-10727700D02*
G01X4145000Y-10727700D01*
G01X3730100Y-10727700D02*
G01X3806000Y-10727700D01*
G01X3518000Y-10727700D02*
G01X3556000Y-10727700D01*
G01X3140900Y-10727700D02*
G01X3140900Y-10334000D01*
G01X6961000Y-5755700D02*
G01X7068500Y-5755700D01*
G01X7351000Y-5165700D02*
G01X7351000Y-5755700D01*
G01X6961000Y-5165700D02*
G01X6961000Y-5755700D01*
G01X13140900Y-303700D02*
G01X14145000Y-303700D01*
G01X14145000Y-1527700D02*
G01X14145000Y-1134000D01*
G01X14145000Y-697300D02*
G01X14145000Y-303700D01*
G01X13140900Y-697300D02*
G01X13140900Y-303700D01*
G01X13140900Y-1527700D02*
G01X13273000Y-1527700D01*
G01X13980000Y-1527700D02*
G01X14145000Y-1527700D01*
G01X13730100Y-1527700D02*
G01X13806000Y-1527700D01*
G01X13518000Y-1527700D02*
G01X13556000Y-1527700D01*
G01X13140900Y-1527700D02*
G01X13140900Y-1134000D01*
G01X16961000Y-12655700D02*
G01X17068500Y-12655700D01*
G01X17351000Y-12065700D02*
G01X17351000Y-12655700D01*
G01X16961000Y-12065700D02*
G01X16961000Y-12655700D01*
G01X20937500Y-10038600D02*
G01X20937500Y-10478600D01*
G01X20510500Y-9931600D02*
G01X20730500Y-9931600D01*
G01X20313500Y-9978600D02*
G01X20313500Y-10498600D01*
G01X20730500Y-10555600D02*
G01X20510500Y-10555600D01*
G01X16961000Y-5755700D02*
G01X17068500Y-5755700D01*
G01X17351000Y-5165700D02*
G01X17351000Y-5755700D01*
G01X16961000Y-5165700D02*
G01X16961000Y-5755700D01*
G01X5640900Y-7203700D02*
G01X6645000Y-7203700D01*
G01X6645000Y-8427700D02*
G01X6645000Y-8034000D01*
G01X6645000Y-7597300D02*
G01X6645000Y-7203700D01*
G01X5640900Y-7597300D02*
G01X5640900Y-7203700D01*
G01X5640900Y-8427700D02*
G01X5773000Y-8427700D01*
G01X6480000Y-8427700D02*
G01X6645000Y-8427700D01*
G01X6230100Y-8427700D02*
G01X6306000Y-8427700D01*
G01X6018000Y-8427700D02*
G01X6056000Y-8427700D01*
G01X5640900Y-8427700D02*
G01X5640900Y-8034000D01*
G01X16961000Y-10355700D02*
G01X17068500Y-10355700D01*
G01X17351000Y-9765700D02*
G01X17351000Y-10355700D01*
G01X16961000Y-9765700D02*
G01X16961000Y-10355700D01*
G01X640900Y-2603700D02*
G01X1645000Y-2603700D01*
G01X1645000Y-3827700D02*
G01X1645000Y-3434000D01*
G01X1645000Y-2997300D02*
G01X1645000Y-2603700D01*
G01X640900Y-2997300D02*
G01X640900Y-2603700D01*
G01X640900Y-3827700D02*
G01X773000Y-3827700D01*
G01X1480000Y-3827700D02*
G01X1645000Y-3827700D01*
G01X1230100Y-3827700D02*
G01X1306000Y-3827700D01*
G01X1018000Y-3827700D02*
G01X1056000Y-3827700D01*
G01X640900Y-3827700D02*
G01X640900Y-3434000D01*
G01X19696900Y-1169100D02*
G01X19696900Y-1447100D01*
G01X18834900Y-1169100D02*
G01X18834900Y-1447100D01*
G01X18834900Y-1169100D02*
G01X19696900Y-1169100D01*
G01X18834900Y-1447100D02*
G01X19696900Y-1447100D01*
G01X1961000Y-3455700D02*
G01X2068500Y-3455700D01*
G01X2351000Y-2865700D02*
G01X2351000Y-3455700D01*
G01X1961000Y-2865700D02*
G01X1961000Y-3455700D01*
G01X13140900Y-4903700D02*
G01X14145000Y-4903700D01*
G01X14145000Y-6127700D02*
G01X14145000Y-5734000D01*
G01X14145000Y-5297300D02*
G01X14145000Y-4903700D01*
G01X13140900Y-5297300D02*
G01X13140900Y-4903700D01*
G01X13140900Y-6127700D02*
G01X13273000Y-6127700D01*
G01X13980000Y-6127700D02*
G01X14145000Y-6127700D01*
G01X13730100Y-6127700D02*
G01X13806000Y-6127700D01*
G01X13518000Y-6127700D02*
G01X13556000Y-6127700D01*
G01X13140900Y-6127700D02*
G01X13140900Y-5734000D01*
G01X15640900Y-303700D02*
G01X16645000Y-303700D01*
G01X16645000Y-1527700D02*
G01X16645000Y-1134000D01*
G01X16645000Y-697300D02*
G01X16645000Y-303700D01*
G01X15640900Y-697300D02*
G01X15640900Y-303700D01*
G01X15640900Y-1527700D02*
G01X15773000Y-1527700D01*
G01X16480000Y-1527700D02*
G01X16645000Y-1527700D01*
G01X16230100Y-1527700D02*
G01X16306000Y-1527700D01*
G01X16018000Y-1527700D02*
G01X16056000Y-1527700D01*
G01X15640900Y-1527700D02*
G01X15640900Y-1134000D01*
G01X6961000Y-12655700D02*
G01X7068500Y-12655700D01*
G01X7351000Y-12065700D02*
G01X7351000Y-12655700D01*
G01X6961000Y-12065700D02*
G01X6961000Y-12655700D01*
G01X10640900Y-11803700D02*
G01X11645000Y-11803700D01*
G01X11645000Y-13027700D02*
G01X11645000Y-12634000D01*
G01X11645000Y-12197300D02*
G01X11645000Y-11803700D01*
G01X10640900Y-12197300D02*
G01X10640900Y-11803700D01*
G01X10640900Y-13027700D02*
G01X10773000Y-13027700D01*
G01X11480000Y-13027700D02*
G01X11645000Y-13027700D01*
G01X11230100Y-13027700D02*
G01X11306000Y-13027700D01*
G01X11018000Y-13027700D02*
G01X11056000Y-13027700D01*
G01X10640900Y-13027700D02*
G01X10640900Y-12634000D01*
G01X8140900Y-11803700D02*
G01X9145000Y-11803700D01*
G01X9145000Y-13027700D02*
G01X9145000Y-12634000D01*
G01X9145000Y-12197300D02*
G01X9145000Y-11803700D01*
G01X8140900Y-12197300D02*
G01X8140900Y-11803700D01*
G01X8140900Y-13027700D02*
G01X8273000Y-13027700D01*
G01X8980000Y-13027700D02*
G01X9145000Y-13027700D01*
G01X8730100Y-13027700D02*
G01X8806000Y-13027700D01*
G01X8518000Y-13027700D02*
G01X8556000Y-13027700D01*
G01X8140900Y-13027700D02*
G01X8140900Y-12634000D01*
G01X8140900Y-303700D02*
G01X9145000Y-303700D01*
G01X9145000Y-1527700D02*
G01X9145000Y-1134000D01*
G01X9145000Y-697300D02*
G01X9145000Y-303700D01*
G01X8140900Y-697300D02*
G01X8140900Y-303700D01*
G01X8140900Y-1527700D02*
G01X8273000Y-1527700D01*
G01X8980000Y-1527700D02*
G01X9145000Y-1527700D01*
G01X8730100Y-1527700D02*
G01X8806000Y-1527700D01*
G01X8518000Y-1527700D02*
G01X8556000Y-1527700D01*
G01X8140900Y-1527700D02*
G01X8140900Y-1134000D01*
G01X16961000Y-3455700D02*
G01X17068500Y-3455700D01*
G01X17351000Y-2865700D02*
G01X17351000Y-3455700D01*
G01X16961000Y-2865700D02*
G01X16961000Y-3455700D01*
G01X16961000Y-8055700D02*
G01X17068500Y-8055700D01*
G01X17351000Y-7465700D02*
G01X17351000Y-8055700D01*
G01X16961000Y-7465700D02*
G01X16961000Y-8055700D01*
G01X19899000Y-10038600D02*
G01X19899000Y-10478600D01*
G01X19472000Y-9931600D02*
G01X19692000Y-9931600D01*
G01X19275000Y-9978600D02*
G01X19275000Y-10498600D01*
G01X19692000Y-10555600D02*
G01X19472000Y-10555600D01*
G01X13140900Y-7203700D02*
G01X14145000Y-7203700D01*
G01X14145000Y-8427700D02*
G01X14145000Y-8034000D01*
G01X14145000Y-7597300D02*
G01X14145000Y-7203700D01*
G01X13140900Y-7597300D02*
G01X13140900Y-7203700D01*
G01X13140900Y-8427700D02*
G01X13273000Y-8427700D01*
G01X13980000Y-8427700D02*
G01X14145000Y-8427700D01*
G01X13730100Y-8427700D02*
G01X13806000Y-8427700D01*
G01X13518000Y-8427700D02*
G01X13556000Y-8427700D01*
G01X13140900Y-8427700D02*
G01X13140900Y-8034000D01*
G01X9461000Y-5755700D02*
G01X9568500Y-5755700D01*
G01X9851000Y-5165700D02*
G01X9851000Y-5755700D01*
G01X9461000Y-5165700D02*
G01X9461000Y-5755700D01*
G01X640900Y-9503700D02*
G01X1645000Y-9503700D01*
G01X1645000Y-10727700D02*
G01X1645000Y-10334000D01*
G01X1645000Y-9897300D02*
G01X1645000Y-9503700D01*
G01X640900Y-9897300D02*
G01X640900Y-9503700D01*
G01X640900Y-10727700D02*
G01X773000Y-10727700D01*
G01X1480000Y-10727700D02*
G01X1645000Y-10727700D01*
G01X1230100Y-10727700D02*
G01X1306000Y-10727700D01*
G01X1018000Y-10727700D02*
G01X1056000Y-10727700D01*
G01X640900Y-10727700D02*
G01X640900Y-10334000D01*
G01X5640900Y-4903700D02*
G01X6645000Y-4903700D01*
G01X6645000Y-6127700D02*
G01X6645000Y-5734000D01*
G01X6645000Y-5297300D02*
G01X6645000Y-4903700D01*
G01X5640900Y-5297300D02*
G01X5640900Y-4903700D01*
G01X5640900Y-6127700D02*
G01X5773000Y-6127700D01*
G01X6480000Y-6127700D02*
G01X6645000Y-6127700D01*
G01X6230100Y-6127700D02*
G01X6306000Y-6127700D01*
G01X6018000Y-6127700D02*
G01X6056000Y-6127700D01*
G01X5640900Y-6127700D02*
G01X5640900Y-5734000D01*
G01X3140900Y-4903700D02*
G01X4145000Y-4903700D01*
G01X4145000Y-6127700D02*
G01X4145000Y-5734000D01*
G01X4145000Y-5297300D02*
G01X4145000Y-4903700D01*
G01X3140900Y-5297300D02*
G01X3140900Y-4903700D01*
G01X3140900Y-6127700D02*
G01X3273000Y-6127700D01*
G01X3980000Y-6127700D02*
G01X4145000Y-6127700D01*
G01X3730100Y-6127700D02*
G01X3806000Y-6127700D01*
G01X3518000Y-6127700D02*
G01X3556000Y-6127700D01*
G01X3140900Y-6127700D02*
G01X3140900Y-5734000D01*
G01X9461000Y-3455700D02*
G01X9568500Y-3455700D01*
G01X9851000Y-2865700D02*
G01X9851000Y-3455700D01*
G01X9461000Y-2865700D02*
G01X9461000Y-3455700D01*
G01X6961000Y-1155700D02*
G01X7068500Y-1155700D01*
G01X7351000Y-565700D02*
G01X7351000Y-1155700D01*
G01X6961000Y-565700D02*
G01X6961000Y-1155700D01*
G01X1961000Y-1155700D02*
G01X2068500Y-1155700D01*
G01X2351000Y-565700D02*
G01X2351000Y-1155700D01*
G01X1961000Y-565700D02*
G01X1961000Y-1155700D01*
G01X14461000Y-10355700D02*
G01X14568500Y-10355700D01*
G01X14851000Y-9765700D02*
G01X14851000Y-10355700D01*
G01X14461000Y-9765700D02*
G01X14461000Y-10355700D01*
G01X9461000Y-10355700D02*
G01X9568500Y-10355700D01*
G01X9851000Y-9765700D02*
G01X9851000Y-10355700D01*
G01X9461000Y-9765700D02*
G01X9461000Y-10355700D01*
G01X9461000Y-12655700D02*
G01X9568500Y-12655700D01*
G01X9851000Y-12065700D02*
G01X9851000Y-12655700D01*
G01X9461000Y-12065700D02*
G01X9461000Y-12655700D01*
G01X15640900Y-2603700D02*
G01X16645000Y-2603700D01*
G01X16645000Y-3827700D02*
G01X16645000Y-3434000D01*
G01X16645000Y-2997300D02*
G01X16645000Y-2603700D01*
G01X15640900Y-2997300D02*
G01X15640900Y-2603700D01*
G01X15640900Y-3827700D02*
G01X15773000Y-3827700D01*
G01X16480000Y-3827700D02*
G01X16645000Y-3827700D01*
G01X16230100Y-3827700D02*
G01X16306000Y-3827700D01*
G01X16018000Y-3827700D02*
G01X16056000Y-3827700D01*
G01X15640900Y-3827700D02*
G01X15640900Y-3434000D01*
G01X10640900Y-303700D02*
G01X11645000Y-303700D01*
G01X11645000Y-1527700D02*
G01X11645000Y-1134000D01*
G01X11645000Y-697300D02*
G01X11645000Y-303700D01*
G01X10640900Y-697300D02*
G01X10640900Y-303700D01*
G01X10640900Y-1527700D02*
G01X10773000Y-1527700D01*
G01X11480000Y-1527700D02*
G01X11645000Y-1527700D01*
G01X11230100Y-1527700D02*
G01X11306000Y-1527700D01*
G01X11018000Y-1527700D02*
G01X11056000Y-1527700D01*
G01X10640900Y-1527700D02*
G01X10640900Y-1134000D01*
G01X14461000Y-3455700D02*
G01X14568500Y-3455700D01*
G01X14851000Y-2865700D02*
G01X14851000Y-3455700D01*
G01X14461000Y-2865700D02*
G01X14461000Y-3455700D01*
G01X4461000Y-3455700D02*
G01X4568500Y-3455700D01*
G01X4851000Y-2865700D02*
G01X4851000Y-3455700D01*
G01X4461000Y-2865700D02*
G01X4461000Y-3455700D01*
G01X18860500Y-10038600D02*
G01X18860500Y-10478600D01*
G01X18433500Y-9931600D02*
G01X18653500Y-9931600D01*
G01X18236500Y-9978600D02*
G01X18236500Y-10498600D01*
G01X18653500Y-10555600D02*
G01X18433500Y-10555600D01*
G01X9461000Y-8055700D02*
G01X9568500Y-8055700D01*
G01X9851000Y-7465700D02*
G01X9851000Y-8055700D01*
G01X9461000Y-7465700D02*
G01X9461000Y-8055700D01*
G01X20937500Y-9162400D02*
G01X20937500Y-9602400D01*
G01X20510500Y-9055400D02*
G01X20730500Y-9055400D01*
G01X20313500Y-9102400D02*
G01X20313500Y-9622400D01*
G01X20730500Y-9679400D02*
G01X20510500Y-9679400D01*
G01X15640900Y-11803700D02*
G01X16645000Y-11803700D01*
G01X16645000Y-13027700D02*
G01X16645000Y-12634000D01*
G01X16645000Y-12197300D02*
G01X16645000Y-11803700D01*
G01X15640900Y-12197300D02*
G01X15640900Y-11803700D01*
G01X15640900Y-13027700D02*
G01X15773000Y-13027700D01*
G01X16480000Y-13027700D02*
G01X16645000Y-13027700D01*
G01X16230100Y-13027700D02*
G01X16306000Y-13027700D01*
G01X16018000Y-13027700D02*
G01X16056000Y-13027700D01*
G01X15640900Y-13027700D02*
G01X15640900Y-12634000D01*
G01X15640900Y-4903700D02*
G01X16645000Y-4903700D01*
G01X16645000Y-6127700D02*
G01X16645000Y-5734000D01*
G01X16645000Y-5297300D02*
G01X16645000Y-4903700D01*
G01X15640900Y-5297300D02*
G01X15640900Y-4903700D01*
G01X15640900Y-6127700D02*
G01X15773000Y-6127700D01*
G01X16480000Y-6127700D02*
G01X16645000Y-6127700D01*
G01X16230100Y-6127700D02*
G01X16306000Y-6127700D01*
G01X16018000Y-6127700D02*
G01X16056000Y-6127700D01*
G01X15640900Y-6127700D02*
G01X15640900Y-5734000D01*
G01X3140900Y-2603700D02*
G01X4145000Y-2603700D01*
G01X4145000Y-3827700D02*
G01X4145000Y-3434000D01*
G01X4145000Y-2997300D02*
G01X4145000Y-2603700D01*
G01X3140900Y-2997300D02*
G01X3140900Y-2603700D01*
G01X3140900Y-3827700D02*
G01X3273000Y-3827700D01*
G01X3980000Y-3827700D02*
G01X4145000Y-3827700D01*
G01X3730100Y-3827700D02*
G01X3806000Y-3827700D01*
G01X3518000Y-3827700D02*
G01X3556000Y-3827700D01*
G01X3140900Y-3827700D02*
G01X3140900Y-3434000D01*
G01X3140900Y-11803700D02*
G01X4145000Y-11803700D01*
G01X4145000Y-13027700D02*
G01X4145000Y-12634000D01*
G01X4145000Y-12197300D02*
G01X4145000Y-11803700D01*
G01X3140900Y-12197300D02*
G01X3140900Y-11803700D01*
G01X3140900Y-13027700D02*
G01X3273000Y-13027700D01*
G01X3980000Y-13027700D02*
G01X4145000Y-13027700D01*
G01X3730100Y-13027700D02*
G01X3806000Y-13027700D01*
G01X3518000Y-13027700D02*
G01X3556000Y-13027700D01*
G01X3140900Y-13027700D02*
G01X3140900Y-12634000D01*
G01X19899000Y-9162400D02*
G01X19899000Y-9602400D01*
G01X19472000Y-9055400D02*
G01X19692000Y-9055400D01*
G01X19275000Y-9102400D02*
G01X19275000Y-9622400D01*
G01X19692000Y-9679400D02*
G01X19472000Y-9679400D01*
G01X1961000Y-12655700D02*
G01X2068500Y-12655700D01*
G01X2351000Y-12065700D02*
G01X2351000Y-12655700D01*
G01X1961000Y-12065700D02*
G01X1961000Y-12655700D01*
G01X15640900Y-9503700D02*
G01X16645000Y-9503700D01*
G01X16645000Y-10727700D02*
G01X16645000Y-10334000D01*
G01X16645000Y-9897300D02*
G01X16645000Y-9503700D01*
G01X15640900Y-9897300D02*
G01X15640900Y-9503700D01*
G01X15640900Y-10727700D02*
G01X15773000Y-10727700D01*
G01X16480000Y-10727700D02*
G01X16645000Y-10727700D01*
G01X16230100Y-10727700D02*
G01X16306000Y-10727700D01*
G01X16018000Y-10727700D02*
G01X16056000Y-10727700D01*
G01X15640900Y-10727700D02*
G01X15640900Y-10334000D01*
G01X21043100Y-508700D02*
G01X21043100Y-786700D01*
G01X20181100Y-508700D02*
G01X20181100Y-786700D01*
G01X20181100Y-508700D02*
G01X21043100Y-508700D01*
G01X20181100Y-786700D02*
G01X21043100Y-786700D01*
G01X11961000Y-5755700D02*
G01X12068500Y-5755700D01*
G01X12351000Y-5165700D02*
G01X12351000Y-5755700D01*
G01X11961000Y-5165700D02*
G01X11961000Y-5755700D01*
G01X11961000Y-3455700D02*
G01X12068500Y-3455700D01*
G01X12351000Y-2865700D02*
G01X12351000Y-3455700D01*
G01X11961000Y-2865700D02*
G01X11961000Y-3455700D01*
G01X14461000Y-1155700D02*
G01X14568500Y-1155700D01*
G01X14851000Y-565700D02*
G01X14851000Y-1155700D01*
G01X14461000Y-565700D02*
G01X14461000Y-1155700D01*
G01X10640900Y-2603700D02*
G01X11645000Y-2603700D01*
G01X11645000Y-3827700D02*
G01X11645000Y-3434000D01*
G01X11645000Y-2997300D02*
G01X11645000Y-2603700D01*
G01X10640900Y-2997300D02*
G01X10640900Y-2603700D01*
G01X10640900Y-3827700D02*
G01X10773000Y-3827700D01*
G01X11480000Y-3827700D02*
G01X11645000Y-3827700D01*
G01X11230100Y-3827700D02*
G01X11306000Y-3827700D01*
G01X11018000Y-3827700D02*
G01X11056000Y-3827700D01*
G01X10640900Y-3827700D02*
G01X10640900Y-3434000D01*
G01X19766200Y-1960400D02*
G01X19312200Y-1960400D01*
G01X19312200Y-1961900D02*
G01X19312200Y-1960400D01*
G01X19312200Y-2174400D02*
G01X19312200Y-2172900D01*
G01X19766200Y-2174400D02*
G01X19766200Y-2172900D01*
G01X19766200Y-2174400D02*
G01X19312200Y-2174400D01*
G01X19766200Y-1961900D02*
G01X19766200Y-1960400D01*
G01X19123800Y-767400D02*
G01X19577800Y-767400D01*
G01X19577800Y-765900D02*
G01X19577800Y-767400D01*
G01X19577800Y-553400D02*
G01X19577800Y-554900D01*
G01X19123800Y-553400D02*
G01X19123800Y-554900D01*
G01X19123800Y-553400D02*
G01X19577800Y-553400D01*
G01X19123800Y-765900D02*
G01X19123800Y-767400D01*
G01X18514200Y-2735900D02*
G01X18968200Y-2735900D01*
G01X18968200Y-2734400D02*
G01X18968200Y-2735900D01*
G01X18968200Y-2521900D02*
G01X18968200Y-2523400D01*
G01X18514200Y-2521900D02*
G01X18514200Y-2523400D01*
G01X18514200Y-2521900D02*
G01X18968200Y-2521900D01*
G01X18514200Y-2734400D02*
G01X18514200Y-2735900D01*
G01X5640900Y-2603700D02*
G01X6645000Y-2603700D01*
G01X6645000Y-3827700D02*
G01X6645000Y-3434000D01*
G01X6645000Y-2997300D02*
G01X6645000Y-2603700D01*
G01X5640900Y-2997300D02*
G01X5640900Y-2603700D01*
G01X5640900Y-3827700D02*
G01X5773000Y-3827700D01*
G01X6480000Y-3827700D02*
G01X6645000Y-3827700D01*
G01X6230100Y-3827700D02*
G01X6306000Y-3827700D01*
G01X6018000Y-3827700D02*
G01X6056000Y-3827700D01*
G01X5640900Y-3827700D02*
G01X5640900Y-3434000D01*
G01X6853500Y-8042000D02*
G01X6961000Y-8042000D01*
G01X7243500Y-7452000D02*
G01X7243500Y-8042000D01*
G01X6853500Y-7452000D02*
G01X6853500Y-8042000D01*
G01X10640900Y-7203700D02*
G01X11645000Y-7203700D01*
G01X11645000Y-8427700D02*
G01X11645000Y-8034000D01*
G01X11645000Y-7597300D02*
G01X11645000Y-7203700D01*
G01X10640900Y-7597300D02*
G01X10640900Y-7203700D01*
G01X10640900Y-8427700D02*
G01X10773000Y-8427700D01*
G01X11480000Y-8427700D02*
G01X11645000Y-8427700D01*
G01X11230100Y-8427700D02*
G01X11306000Y-8427700D01*
G01X11018000Y-8427700D02*
G01X11056000Y-8427700D01*
G01X10640900Y-8427700D02*
G01X10640900Y-8034000D01*
G01X5640900Y-11803700D02*
G01X6645000Y-11803700D01*
G01X6645000Y-13027700D02*
G01X6645000Y-12634000D01*
G01X6645000Y-12197300D02*
G01X6645000Y-11803700D01*
G01X5640900Y-12197300D02*
G01X5640900Y-11803700D01*
G01X5640900Y-13027700D02*
G01X5773000Y-13027700D01*
G01X6480000Y-13027700D02*
G01X6645000Y-13027700D01*
G01X6230100Y-13027700D02*
G01X6306000Y-13027700D01*
G01X6018000Y-13027700D02*
G01X6056000Y-13027700D01*
G01X5640900Y-13027700D02*
G01X5640900Y-12634000D01*
G01X3140900Y-7203700D02*
G01X4145000Y-7203700D01*
G01X4145000Y-8427700D02*
G01X4145000Y-8034000D01*
G01X4145000Y-7597300D02*
G01X4145000Y-7203700D01*
G01X3140900Y-7597300D02*
G01X3140900Y-7203700D01*
G01X3140900Y-8427700D02*
G01X3273000Y-8427700D01*
G01X3980000Y-8427700D02*
G01X4145000Y-8427700D01*
G01X3730100Y-8427700D02*
G01X3806000Y-8427700D01*
G01X3518000Y-8427700D02*
G01X3556000Y-8427700D01*
G01X3140900Y-8427700D02*
G01X3140900Y-8034000D01*
G01X8140900Y-9503700D02*
G01X9145000Y-9503700D01*
G01X9145000Y-10727700D02*
G01X9145000Y-10334000D01*
G01X9145000Y-9897300D02*
G01X9145000Y-9503700D01*
G01X8140900Y-9897300D02*
G01X8140900Y-9503700D01*
G01X8140900Y-10727700D02*
G01X8273000Y-10727700D01*
G01X8980000Y-10727700D02*
G01X9145000Y-10727700D01*
G01X8730100Y-10727700D02*
G01X8806000Y-10727700D01*
G01X8518000Y-10727700D02*
G01X8556000Y-10727700D01*
G01X8140900Y-10727700D02*
G01X8140900Y-10334000D01*
G01X18860500Y-9162400D02*
G01X18860500Y-9602400D01*
G01X18433500Y-9055400D02*
G01X18653500Y-9055400D01*
G01X18236500Y-9102400D02*
G01X18236500Y-9622400D01*
G01X18653500Y-9679400D02*
G01X18433500Y-9679400D01*
G01X11961000Y-12655700D02*
G01X12068500Y-12655700D01*
G01X12351000Y-12065700D02*
G01X12351000Y-12655700D01*
G01X11961000Y-12065700D02*
G01X11961000Y-12655700D01*
G01X10640900Y-9503700D02*
G01X11645000Y-9503700D01*
G01X11645000Y-10727700D02*
G01X11645000Y-10334000D01*
G01X11645000Y-9897300D02*
G01X11645000Y-9503700D01*
G01X10640900Y-9897300D02*
G01X10640900Y-9503700D01*
G01X10640900Y-10727700D02*
G01X10773000Y-10727700D01*
G01X11480000Y-10727700D02*
G01X11645000Y-10727700D01*
G01X11230100Y-10727700D02*
G01X11306000Y-10727700D01*
G01X11018000Y-10727700D02*
G01X11056000Y-10727700D01*
G01X10640900Y-10727700D02*
G01X10640900Y-10334000D01*
G01X8140900Y-2603700D02*
G01X9145000Y-2603700D01*
G01X9145000Y-3827700D02*
G01X9145000Y-3434000D01*
G01X9145000Y-2997300D02*
G01X9145000Y-2603700D01*
G01X8140900Y-2997300D02*
G01X8140900Y-2603700D01*
G01X8140900Y-3827700D02*
G01X8273000Y-3827700D01*
G01X8980000Y-3827700D02*
G01X9145000Y-3827700D01*
G01X8730100Y-3827700D02*
G01X8806000Y-3827700D01*
G01X8518000Y-3827700D02*
G01X8556000Y-3827700D01*
G01X8140900Y-3827700D02*
G01X8140900Y-3434000D01*
G01X4461000Y-10355700D02*
G01X4568500Y-10355700D01*
G01X4851000Y-9765700D02*
G01X4851000Y-10355700D01*
G01X4461000Y-9765700D02*
G01X4461000Y-10355700D01*
G01X1961000Y-8055700D02*
G01X2068500Y-8055700D01*
G01X2351000Y-7465700D02*
G01X2351000Y-8055700D01*
G01X1961000Y-7465700D02*
G01X1961000Y-8055700D01*
G01X6961000Y-10355700D02*
G01X7068500Y-10355700D01*
G01X7351000Y-9765700D02*
G01X7351000Y-10355700D01*
G01X6961000Y-9765700D02*
G01X6961000Y-10355700D01*
G01X4461000Y-8055700D02*
G01X4568500Y-8055700D01*
G01X4851000Y-7465700D02*
G01X4851000Y-8055700D01*
G01X4461000Y-7465700D02*
G01X4461000Y-8055700D01*
G01X20617500Y-1958200D02*
G01X20617500Y-1504200D01*
G01X20616000Y-1504200D02*
G01X20617500Y-1504200D01*
G01X20403500Y-1504200D02*
G01X20405000Y-1504200D01*
G01X20403500Y-1958200D02*
G01X20405000Y-1958200D01*
G01X20403500Y-1958200D02*
G01X20403500Y-1504200D01*
G01X20616000Y-1958200D02*
G01X20617500Y-1958200D01*
G01X640900Y-7203700D02*
G01X1645000Y-7203700D01*
G01X1645000Y-8427700D02*
G01X1645000Y-8034000D01*
G01X1645000Y-7597300D02*
G01X1645000Y-7203700D01*
G01X640900Y-7597300D02*
G01X640900Y-7203700D01*
G01X640900Y-8427700D02*
G01X773000Y-8427700D01*
G01X1480000Y-8427700D02*
G01X1645000Y-8427700D01*
G01X1230100Y-8427700D02*
G01X1306000Y-8427700D01*
G01X1018000Y-8427700D02*
G01X1056000Y-8427700D01*
G01X640900Y-8427700D02*
G01X640900Y-8034000D01*
G01X13140900Y-2603700D02*
G01X14145000Y-2603700D01*
G01X14145000Y-3827700D02*
G01X14145000Y-3434000D01*
G01X14145000Y-2997300D02*
G01X14145000Y-2603700D01*
G01X13140900Y-2997300D02*
G01X13140900Y-2603700D01*
G01X13140900Y-3827700D02*
G01X13273000Y-3827700D01*
G01X13980000Y-3827700D02*
G01X14145000Y-3827700D01*
G01X13730100Y-3827700D02*
G01X13806000Y-3827700D01*
G01X13518000Y-3827700D02*
G01X13556000Y-3827700D01*
G01X13140900Y-3827700D02*
G01X13140900Y-3434000D01*
G01X5640900Y-9503700D02*
G01X6645000Y-9503700D01*
G01X6645000Y-10727700D02*
G01X6645000Y-10334000D01*
G01X6645000Y-9897300D02*
G01X6645000Y-9503700D01*
G01X5640900Y-9897300D02*
G01X5640900Y-9503700D01*
G01X5640900Y-10727700D02*
G01X5773000Y-10727700D01*
G01X6480000Y-10727700D02*
G01X6645000Y-10727700D01*
G01X6230100Y-10727700D02*
G01X6306000Y-10727700D01*
G01X6018000Y-10727700D02*
G01X6056000Y-10727700D01*
G01X5640900Y-10727700D02*
G01X5640900Y-10334000D01*

G04 Circle Start*
G54D12*
G01X20361100Y-3269900D02*
G03X20431100Y-3269900I35000J0D01*
G03X20361100Y-3269900I-35000J0D01*
G01X18761100Y-3269900D02*
G03X18831100Y-3269900I35000J0D01*
G03X18761100Y-3269900I-35000J0D01*
G54D11*
G01X20484079Y-10243600D02*
G03X20766921Y-10243600I141421J0D01*
G03X20484079Y-10243600I-141421J0D01*
G01X19445579Y-10243600D02*
G03X19728421Y-10243600I141421J0D01*
G03X19445579Y-10243600I-141421J0D01*
G01X18407079Y-10243600D02*
G03X18689921Y-10243600I141421J0D01*
G03X18407079Y-10243600I-141421J0D01*
G01X20484079Y-9367400D02*
G03X20766921Y-9367400I141421J0D01*
G03X20484079Y-9367400I-141421J0D01*
G01X19445579Y-9367400D02*
G03X19728421Y-9367400I141421J0D01*
G03X19445579Y-9367400I-141421J0D01*
G01X18407079Y-9367400D02*
G03X18689921Y-9367400I141421J0D01*
G03X18407079Y-9367400I-141421J0D01*
G04 Circle End*

M02*

