%TF.GenerationSoftware,KiCad,Pcbnew,(6.0.11-0)*%
%TF.CreationDate,2025-03-26T21:45:13-05:00*%
%TF.ProjectId,btnBRD,62746e42-5244-42e6-9b69-6361645f7063,rev?*%
%TF.SameCoordinates,Original*%
%TF.FileFunction,Copper,L2,Bot*%
%TF.FilePolarity,Positive*%
%FSLAX46Y46*%
G04 Gerber Fmt 4.6, Leading zero omitted, Abs format (unit mm)*
G04 Created by KiCad (PCBNEW (6.0.11-0)) date 2025-03-26 21:45:13*
%MOMM*%
%LPD*%
G01*
G04 APERTURE LIST*
G04 Aperture macros list*
%AMRoundRect*
0 Rectangle with rounded corners*
0 $1 Rounding radius*
0 $2 $3 $4 $5 $6 $7 $8 $9 X,Y pos of 4 corners*
0 Add a 4 corners polygon primitive as box body*
4,1,4,$2,$3,$4,$5,$6,$7,$8,$9,$2,$3,0*
0 Add four circle primitives for the rounded corners*
1,1,$1+$1,$2,$3*
1,1,$1+$1,$4,$5*
1,1,$1+$1,$6,$7*
1,1,$1+$1,$8,$9*
0 Add four rect primitives between the rounded corners*
20,1,$1+$1,$2,$3,$4,$5,0*
20,1,$1+$1,$4,$5,$6,$7,0*
20,1,$1+$1,$6,$7,$8,$9,0*
20,1,$1+$1,$8,$9,$2,$3,0*%
G04 Aperture macros list end*
%TA.AperFunction,ComponentPad*%
%ADD10R,4.600000X2.000000*%
%TD*%
%TA.AperFunction,ComponentPad*%
%ADD11O,4.200000X2.000000*%
%TD*%
%TA.AperFunction,ComponentPad*%
%ADD12O,2.000000X4.200000*%
%TD*%
%TA.AperFunction,ComponentPad*%
%ADD13O,2.800000X1.800000*%
%TD*%
%TA.AperFunction,ComponentPad*%
%ADD14C,1.600000*%
%TD*%
%TA.AperFunction,ComponentPad*%
%ADD15C,1.530000*%
%TD*%
%TA.AperFunction,ComponentPad*%
%ADD16RoundRect,0.500000X1.000000X-0.500000X1.000000X0.500000X-1.000000X0.500000X-1.000000X-0.500000X0*%
%TD*%
%TA.AperFunction,ComponentPad*%
%ADD17C,1.800000*%
%TD*%
%TA.AperFunction,ComponentPad*%
%ADD18R,1.800000X1.800000*%
%TD*%
%TA.AperFunction,ComponentPad*%
%ADD19O,1.400000X1.400000*%
%TD*%
%TA.AperFunction,ComponentPad*%
%ADD20C,1.400000*%
%TD*%
%TA.AperFunction,ComponentPad*%
%ADD21O,1.600000X1.600000*%
%TD*%
%TA.AperFunction,ComponentPad*%
%ADD22R,1.600000X1.600000*%
%TD*%
%TA.AperFunction,ComponentPad*%
%ADD23C,2.100000*%
%TD*%
%TA.AperFunction,ComponentPad*%
%ADD24R,2.100000X2.100000*%
%TD*%
%TA.AperFunction,ComponentPad*%
%ADD25O,1.950000X1.700000*%
%TD*%
%TA.AperFunction,ComponentPad*%
%ADD26RoundRect,0.250000X0.725000X-0.600000X0.725000X0.600000X-0.725000X0.600000X-0.725000X-0.600000X0*%
%TD*%
%TA.AperFunction,Conductor*%
%ADD27C,0.250000*%
%TD*%
G04 APERTURE END LIST*
D10*
%TO.P,J1,1*%
%TO.N,5VDC*%
X35560000Y-31750000D03*
D11*
%TO.P,J1,2*%
%TO.N,GND*%
X35560000Y-25450000D03*
D12*
%TO.P,J1,3*%
%TO.N,N/C*%
X30760000Y-28850000D03*
%TD*%
D13*
%TO.P,J5,T*%
%TO.N,E2*%
X121280000Y-25260000D03*
%TO.P,J5,S*%
%TO.N,GND*%
X119280000Y-22860000D03*
%TO.P,J5,R*%
%TO.N,N/C*%
X121280000Y-30760000D03*
%TD*%
D14*
%TO.P,C2,2*%
%TO.N,5VDC*%
X86320000Y-38100000D03*
%TO.P,C2,1*%
%TO.N,GND*%
X83820000Y-38100000D03*
%TD*%
%TO.P,C3,2*%
%TO.N,3VDC*%
X50760000Y-55880000D03*
%TO.P,C3,1*%
%TO.N,GND*%
X48260000Y-55880000D03*
%TD*%
D13*
%TO.P,J9,T*%
%TO.N,E6*%
X172080000Y-25260000D03*
%TO.P,J9,S*%
%TO.N,GND*%
X170080000Y-22860000D03*
%TO.P,J9,R*%
%TO.N,N/C*%
X172080000Y-30760000D03*
%TD*%
%TO.P,J4,T*%
%TO.N,E1*%
X108680000Y-25260000D03*
%TO.P,J4,S*%
%TO.N,GND*%
X106680000Y-22860000D03*
%TO.P,J4,R*%
%TO.N,N/C*%
X108680000Y-30760000D03*
%TD*%
%TO.P,J6,T*%
%TO.N,E3*%
X133980000Y-25260000D03*
%TO.P,J6,S*%
%TO.N,GND*%
X131980000Y-22860000D03*
%TO.P,J6,R*%
%TO.N,N/C*%
X133980000Y-30760000D03*
%TD*%
D14*
%TO.P,C4,2*%
%TO.N,3VDC*%
X50760000Y-78740000D03*
%TO.P,C4,1*%
%TO.N,GND*%
X48260000Y-78740000D03*
%TD*%
D15*
%TO.P,U1,VIN,VIN*%
%TO.N,5VDC*%
X25400000Y-77470000D03*
%TO.P,U1,VBAT,VBAT*%
%TO.N,unconnected-(U1-PadVBAT)*%
X38100000Y-44450000D03*
%TO.P,U1,PGM,PROGRAM*%
%TO.N,unconnected-(U1-PadPGM)*%
X30480000Y-44450000D03*
%TO.P,U1,ON-OFF,ON/OFF*%
%TO.N,unconnected-(U1-PadON-OFF)*%
X27940000Y-44450000D03*
%TO.P,U1,G3,G3*%
%TO.N,GND*%
X25400000Y-74930000D03*
%TO.P,U1,G2,G2*%
X33020000Y-44450000D03*
%TO.P,U1,G1,G1*%
X40640000Y-77470000D03*
%TO.P,U1,23,23*%
%TO.N,MRC*%
X25400000Y-69850000D03*
%TO.P,U1,22,22*%
%TO.N,MRR*%
X25400000Y-67310000D03*
%TO.P,U1,21,21*%
%TO.N,E6*%
X25400000Y-64770000D03*
%TO.P,U1,20,20*%
%TO.N,E5*%
X25400000Y-62230000D03*
%TO.P,U1,19,19*%
%TO.N,SCL*%
X25400000Y-59690000D03*
%TO.P,U1,18,18*%
%TO.N,SDA*%
X25400000Y-57150000D03*
%TO.P,U1,17,17*%
%TO.N,E4*%
X25400000Y-54610000D03*
%TO.P,U1,16,16*%
%TO.N,E3*%
X25400000Y-52070000D03*
%TO.P,U1,15,15*%
%TO.N,E2*%
X25400000Y-49530000D03*
%TO.P,U1,14,14*%
%TO.N,E1*%
X25400000Y-46990000D03*
%TO.P,U1,13,13*%
%TO.N,unconnected-(U1-Pad13)*%
X25400000Y-44450000D03*
%TO.P,U1,12,12*%
%TO.N,unconnected-(U1-Pad12)*%
X40640000Y-44450000D03*
%TO.P,U1,11,11*%
%TO.N,MuxC4*%
X40640000Y-46990000D03*
%TO.P,U1,10,10*%
%TO.N,MuxC3*%
X40640000Y-49530000D03*
%TO.P,U1,9,9*%
%TO.N,MuxC2*%
X40640000Y-52070000D03*
%TO.P,U1,8,8*%
%TO.N,MuxC1*%
X40640000Y-54610000D03*
%TO.P,U1,7,7*%
%TO.N,unconnected-(U1-Pad7)*%
X40640000Y-57150000D03*
%TO.P,U1,6,6*%
%TO.N,LED*%
X40640000Y-59690000D03*
%TO.P,U1,5,5*%
%TO.N,MuxR4*%
X40640000Y-62230000D03*
%TO.P,U1,4,4*%
%TO.N,MuxR3*%
X40640000Y-64770000D03*
%TO.P,U1,3.3V_2,3.3V_2*%
%TO.N,3VDC*%
X25400000Y-72390000D03*
%TO.P,U1,3.3V_1,3.3V_1*%
X35560000Y-44450000D03*
%TO.P,U1,3,3*%
%TO.N,MuxR2*%
X40640000Y-67310000D03*
%TO.P,U1,2,2*%
%TO.N,MuxR1*%
X40640000Y-69850000D03*
%TO.P,U1,1,1*%
%TO.N,MIDIo3*%
X40640000Y-72390000D03*
%TO.P,U1,0,0*%
%TO.N,MIDIi3*%
X40640000Y-74930000D03*
%TD*%
D16*
%TO.P,RV1,MP*%
%TO.N,N/C*%
X86030000Y-83705000D03*
X76530000Y-83705000D03*
D17*
%TO.P,RV1,3,3*%
%TO.N,GND*%
X83780000Y-91205000D03*
%TO.P,RV1,2,2*%
%TO.N,fp1*%
X81280000Y-91205000D03*
D18*
%TO.P,RV1,1,1*%
%TO.N,3VDC*%
X78780000Y-91205000D03*
%TD*%
D16*
%TO.P,RV2,MP*%
%TO.N,N/C*%
X86030000Y-68905000D03*
X76530000Y-68905000D03*
D17*
%TO.P,RV2,3,3*%
%TO.N,GND*%
X83780000Y-76405000D03*
%TO.P,RV2,2,2*%
%TO.N,fp2*%
X81280000Y-76405000D03*
D18*
%TO.P,RV2,1,1*%
%TO.N,3VDC*%
X78780000Y-76405000D03*
%TD*%
D13*
%TO.P,J8,T*%
%TO.N,E5*%
X159380000Y-25260000D03*
%TO.P,J8,S*%
%TO.N,GND*%
X157380000Y-22860000D03*
%TO.P,J8,R*%
%TO.N,N/C*%
X159380000Y-30760000D03*
%TD*%
%TO.P,J7,T*%
%TO.N,E4*%
X146680000Y-25260000D03*
%TO.P,J7,S*%
%TO.N,GND*%
X144680000Y-22860000D03*
%TO.P,J7,R*%
%TO.N,N/C*%
X146680000Y-30760000D03*
%TD*%
D19*
%TO.P,R3,2*%
%TO.N,Net-(J2-Pad4)*%
X61760000Y-36900000D03*
D20*
%TO.P,R3,1*%
%TO.N,Net-(D43-Pad1)*%
X64300000Y-36900000D03*
%TD*%
D16*
%TO.P,RV3,MP*%
%TO.N,N/C*%
X86030000Y-54105000D03*
X76530000Y-54105000D03*
D17*
%TO.P,RV3,3,3*%
%TO.N,GND*%
X83780000Y-61605000D03*
%TO.P,RV3,2,2*%
%TO.N,main*%
X81280000Y-61605000D03*
D18*
%TO.P,RV3,1,1*%
%TO.N,3VDC*%
X78780000Y-61605000D03*
%TD*%
D19*
%TO.P,R1,2*%
%TO.N,5VDC*%
X84760000Y-43180000D03*
D20*
%TO.P,R1,1*%
%TO.N,MIDI_IN*%
X82220000Y-43180000D03*
%TD*%
D19*
%TO.P,R4,2*%
%TO.N,Net-(J3-Pad5)*%
X93980000Y-35560000D03*
D20*
%TO.P,R4,1*%
%TO.N,5VDC*%
X91440000Y-35560000D03*
%TD*%
D21*
%TO.P,D43,2,A*%
%TO.N,Net-(D43-Pad2)*%
X74930000Y-36750000D03*
D22*
%TO.P,D43,1,K*%
%TO.N,Net-(D43-Pad1)*%
X67310000Y-36750000D03*
%TD*%
D14*
%TO.P,C1,2*%
%TO.N,5VDC*%
X34167446Y-38100000D03*
%TO.P,C1,1*%
%TO.N,GND*%
X31667446Y-38100000D03*
%TD*%
D19*
%TO.P,R2,2*%
%TO.N,Net-(R2-Pad2)*%
X58420000Y-38100000D03*
D20*
%TO.P,R2,1*%
%TO.N,GND*%
X55880000Y-38100000D03*
%TD*%
D23*
%TO.P,J3,G2*%
%TO.N,N/C*%
X83900000Y-20650000D03*
%TO.P,J3,G1*%
X93900000Y-20650000D03*
%TO.P,J3,5*%
%TO.N,Net-(J3-Pad5)*%
X93900000Y-32650000D03*
%TO.P,J3,4*%
%TO.N,MIDI_OUT*%
X83900000Y-32650000D03*
%TO.P,J3,3*%
%TO.N,unconnected-(J3-Pad3)*%
X96400000Y-30150000D03*
%TO.P,J3,2*%
%TO.N,GND*%
X88900000Y-30150000D03*
D24*
%TO.P,J3,1*%
%TO.N,unconnected-(J3-Pad1)*%
X81400000Y-30150000D03*
%TD*%
D25*
%TO.P,J10,4,Pin_4*%
%TO.N,GND*%
X50800000Y-94100000D03*
%TO.P,J10,3,Pin_3*%
%TO.N,SDA*%
X50800000Y-96600000D03*
%TO.P,J10,2,Pin_2*%
%TO.N,SCL*%
X50800000Y-99100000D03*
D26*
%TO.P,J10,1,Pin_1*%
%TO.N,5VDC*%
X50800000Y-101600000D03*
%TD*%
D21*
%TO.P,U5,8,VCC*%
%TO.N,5VDC*%
X60960000Y-50800000D03*
%TO.P,U5,7,VO1*%
%TO.N,Net-(R2-Pad2)*%
X60960000Y-48260000D03*
%TO.P,U5,6,VO2*%
%TO.N,MIDI_IN*%
X60960000Y-45720000D03*
%TO.P,U5,5,GND*%
%TO.N,GND*%
X60960000Y-43180000D03*
%TO.P,U5,4,NC*%
%TO.N,unconnected-(U5-Pad4)*%
X68580000Y-43180000D03*
%TO.P,U5,3,C2*%
%TO.N,Net-(D43-Pad2)*%
X68580000Y-45720000D03*
%TO.P,U5,2,C1*%
%TO.N,Net-(D43-Pad1)*%
X68580000Y-48260000D03*
D22*
%TO.P,U5,1,NC*%
%TO.N,unconnected-(U5-Pad1)*%
X68580000Y-50800000D03*
%TD*%
D23*
%TO.P,J2,G2*%
%TO.N,N/C*%
X61040000Y-20650000D03*
%TO.P,J2,G1*%
X71040000Y-20650000D03*
%TO.P,J2,5*%
%TO.N,Net-(D43-Pad2)*%
X71040000Y-32650000D03*
%TO.P,J2,4*%
%TO.N,Net-(J2-Pad4)*%
X61040000Y-32650000D03*
%TO.P,J2,3*%
%TO.N,unconnected-(J2-Pad3)*%
X73540000Y-30150000D03*
%TO.P,J2,2*%
%TO.N,GND*%
X66040000Y-30150000D03*
D24*
%TO.P,J2,1*%
%TO.N,unconnected-(J2-Pad1)*%
X58540000Y-30150000D03*
%TD*%
D27*
%TO.N,3VDC*%
X50760000Y-78740000D02*
X45680000Y-73660000D01*
X45680000Y-73660000D02*
X26670000Y-73660000D01*
X26670000Y-73660000D02*
X25400000Y-72390000D01*
%TO.N,5VDC*%
X50800000Y-101600000D02*
X26670000Y-77470000D01*
X26670000Y-77470000D02*
X25400000Y-77470000D01*
%TO.N,3VDC*%
X78780000Y-76405000D02*
X78780000Y-91205000D01*
X78780000Y-76405000D02*
X78780000Y-61605000D01*
%TO.N,Net-(R2-Pad2)*%
X60960000Y-48260000D02*
X58420000Y-45720000D01*
X58420000Y-45720000D02*
X58420000Y-38100000D01*
%TO.N,Net-(D43-Pad2)*%
X68580000Y-45720000D02*
X74930000Y-39370000D01*
X74930000Y-39370000D02*
X74930000Y-36750000D01*
%TO.N,Net-(D43-Pad1)*%
X68580000Y-48260000D02*
X67310000Y-46990000D01*
X67310000Y-46990000D02*
X67310000Y-36750000D01*
%TO.N,Net-(D43-Pad2)*%
X74930000Y-36750000D02*
X71040000Y-32860000D01*
X71040000Y-32860000D02*
X71040000Y-32650000D01*
%TO.N,Net-(D43-Pad1)*%
X67310000Y-36750000D02*
X64450000Y-36750000D01*
X64450000Y-36750000D02*
X64300000Y-36900000D01*
%TO.N,Net-(J2-Pad4)*%
X61760000Y-36900000D02*
X61040000Y-36180000D01*
X61040000Y-36180000D02*
X61040000Y-32650000D01*
%TO.N,GND*%
X48260000Y-55880000D02*
X48260000Y-54748630D01*
X48260000Y-54748630D02*
X41771370Y-48260000D01*
X41771370Y-48260000D02*
X36830000Y-48260000D01*
X36830000Y-48260000D02*
X33020000Y-44450000D01*
X40640000Y-77470000D02*
X27940000Y-77470000D01*
X27940000Y-77470000D02*
X25400000Y-74930000D01*
%TD*%
M02*
