%TF.GenerationSoftware,KiCad,Pcbnew,(6.0.11-0)*%
%TF.CreationDate,2025-03-26T21:45:13-05:00*%
%TF.ProjectId,btnBRD,62746e42-5244-42e6-9b69-6361645f7063,rev?*%
%TF.SameCoordinates,Original*%
%TF.FileFunction,Copper,L1,Top*%
%TF.FilePolarity,Positive*%
%FSLAX46Y46*%
G04 Gerber Fmt 4.6, Leading zero omitted, Abs format (unit mm)*
G04 Created by KiCad (PCBNEW (6.0.11-0)) date 2025-03-26 21:45:13*
%MOMM*%
%LPD*%
G01*
G04 APERTURE LIST*
G04 Aperture macros list*
%AMRoundRect*
0 Rectangle with rounded corners*
0 $1 Rounding radius*
0 $2 $3 $4 $5 $6 $7 $8 $9 X,Y pos of 4 corners*
0 Add a 4 corners polygon primitive as box body*
4,1,4,$2,$3,$4,$5,$6,$7,$8,$9,$2,$3,0*
0 Add four circle primitives for the rounded corners*
1,1,$1+$1,$2,$3*
1,1,$1+$1,$4,$5*
1,1,$1+$1,$6,$7*
1,1,$1+$1,$8,$9*
0 Add four rect primitives between the rounded corners*
20,1,$1+$1,$2,$3,$4,$5,0*
20,1,$1+$1,$4,$5,$6,$7,0*
20,1,$1+$1,$6,$7,$8,$9,0*
20,1,$1+$1,$8,$9,$2,$3,0*%
G04 Aperture macros list end*
%ADD10C,0.300000*%
%TA.AperFunction,NonConductor*%
%ADD11C,0.300000*%
%TD*%
%TA.AperFunction,ComponentPad*%
%ADD12R,4.600000X2.000000*%
%TD*%
%TA.AperFunction,ComponentPad*%
%ADD13O,4.200000X2.000000*%
%TD*%
%TA.AperFunction,ComponentPad*%
%ADD14O,2.000000X4.200000*%
%TD*%
%TA.AperFunction,SMDPad,CuDef*%
%ADD15R,1.550000X1.300000*%
%TD*%
%TA.AperFunction,SMDPad,CuDef*%
%ADD16R,1.500000X0.900000*%
%TD*%
%TA.AperFunction,ComponentPad*%
%ADD17O,2.800000X1.800000*%
%TD*%
%TA.AperFunction,ComponentPad*%
%ADD18C,1.600000*%
%TD*%
%TA.AperFunction,ComponentPad*%
%ADD19C,1.530000*%
%TD*%
%TA.AperFunction,ComponentPad*%
%ADD20RoundRect,0.500000X1.000000X-0.500000X1.000000X0.500000X-1.000000X0.500000X-1.000000X-0.500000X0*%
%TD*%
%TA.AperFunction,ComponentPad*%
%ADD21C,1.800000*%
%TD*%
%TA.AperFunction,ComponentPad*%
%ADD22R,1.800000X1.800000*%
%TD*%
%TA.AperFunction,SMDPad,CuDef*%
%ADD23RoundRect,0.150000X-0.875000X-0.150000X0.875000X-0.150000X0.875000X0.150000X-0.875000X0.150000X0*%
%TD*%
%TA.AperFunction,ComponentPad*%
%ADD24O,1.400000X1.400000*%
%TD*%
%TA.AperFunction,ComponentPad*%
%ADD25C,1.400000*%
%TD*%
%TA.AperFunction,ComponentPad*%
%ADD26O,1.600000X1.600000*%
%TD*%
%TA.AperFunction,ComponentPad*%
%ADD27R,1.600000X1.600000*%
%TD*%
%TA.AperFunction,SMDPad,CuDef*%
%ADD28R,1.000000X0.200000*%
%TD*%
%TA.AperFunction,SMDPad,CuDef*%
%ADD29R,1.100000X0.200000*%
%TD*%
%TA.AperFunction,ComponentPad*%
%ADD30C,2.100000*%
%TD*%
%TA.AperFunction,ComponentPad*%
%ADD31R,2.100000X2.100000*%
%TD*%
%TA.AperFunction,ComponentPad*%
%ADD32O,1.950000X1.700000*%
%TD*%
%TA.AperFunction,ComponentPad*%
%ADD33RoundRect,0.250000X0.725000X-0.600000X0.725000X0.600000X-0.725000X0.600000X-0.725000X-0.600000X0*%
%TD*%
%TA.AperFunction,Conductor*%
%ADD34C,0.250000*%
%TD*%
G04 APERTURE END LIST*
D10*
D11*
X22055714Y-137838571D02*
X22055714Y-136338571D01*
X22555714Y-137410000D01*
X23055714Y-136338571D01*
X23055714Y-137838571D01*
X24055714Y-136338571D02*
X24341428Y-136338571D01*
X24484285Y-136410000D01*
X24627142Y-136552857D01*
X24698571Y-136838571D01*
X24698571Y-137338571D01*
X24627142Y-137624285D01*
X24484285Y-137767142D01*
X24341428Y-137838571D01*
X24055714Y-137838571D01*
X23912857Y-137767142D01*
X23770000Y-137624285D01*
X23698571Y-137338571D01*
X23698571Y-136838571D01*
X23770000Y-136552857D01*
X23912857Y-136410000D01*
X24055714Y-136338571D01*
X25270000Y-137410000D02*
X25984285Y-137410000D01*
X25127142Y-137838571D02*
X25627142Y-136338571D01*
X26127142Y-137838571D01*
X27484285Y-137838571D02*
X26984285Y-137124285D01*
X26627142Y-137838571D02*
X26627142Y-136338571D01*
X27198571Y-136338571D01*
X27341428Y-136410000D01*
X27412857Y-136481428D01*
X27484285Y-136624285D01*
X27484285Y-136838571D01*
X27412857Y-136981428D01*
X27341428Y-137052857D01*
X27198571Y-137124285D01*
X26627142Y-137124285D01*
X29270000Y-137838571D02*
X29270000Y-136338571D01*
X29412857Y-137267142D02*
X29841428Y-137838571D01*
X29841428Y-136838571D02*
X29270000Y-137410000D01*
X31627142Y-137838571D02*
X31627142Y-136338571D01*
X32484285Y-137838571D01*
X32484285Y-136338571D01*
X33484285Y-136338571D02*
X33770000Y-136338571D01*
X33912857Y-136410000D01*
X34055714Y-136552857D01*
X34127142Y-136838571D01*
X34127142Y-137338571D01*
X34055714Y-137624285D01*
X33912857Y-137767142D01*
X33770000Y-137838571D01*
X33484285Y-137838571D01*
X33341428Y-137767142D01*
X33198571Y-137624285D01*
X33127142Y-137338571D01*
X33127142Y-136838571D01*
X33198571Y-136552857D01*
X33341428Y-136410000D01*
X33484285Y-136338571D01*
X35270000Y-137052857D02*
X35484285Y-137124285D01*
X35555714Y-137195714D01*
X35627142Y-137338571D01*
X35627142Y-137552857D01*
X35555714Y-137695714D01*
X35484285Y-137767142D01*
X35341428Y-137838571D01*
X34770000Y-137838571D01*
X34770000Y-136338571D01*
X35270000Y-136338571D01*
X35412857Y-136410000D01*
X35484285Y-136481428D01*
X35555714Y-136624285D01*
X35555714Y-136767142D01*
X35484285Y-136910000D01*
X35412857Y-136981428D01*
X35270000Y-137052857D01*
X34770000Y-137052857D01*
X36198571Y-137767142D02*
X36412857Y-137838571D01*
X36770000Y-137838571D01*
X36912857Y-137767142D01*
X36984285Y-137695714D01*
X37055714Y-137552857D01*
X37055714Y-137410000D01*
X36984285Y-137267142D01*
X36912857Y-137195714D01*
X36770000Y-137124285D01*
X36484285Y-137052857D01*
X36341428Y-136981428D01*
X36270000Y-136910000D01*
X36198571Y-136767142D01*
X36198571Y-136624285D01*
X36270000Y-136481428D01*
X36341428Y-136410000D01*
X36484285Y-136338571D01*
X36841428Y-136338571D01*
X37055714Y-136410000D01*
X38841428Y-137267142D02*
X39984285Y-137267142D01*
X42484285Y-136838571D02*
X42484285Y-137838571D01*
X42127142Y-136267142D02*
X41770000Y-137338571D01*
X42698571Y-137338571D01*
X43198571Y-136481428D02*
X43270000Y-136410000D01*
X43412857Y-136338571D01*
X43770000Y-136338571D01*
X43912857Y-136410000D01*
X43984285Y-136481428D01*
X44055714Y-136624285D01*
X44055714Y-136767142D01*
X43984285Y-136981428D01*
X43127142Y-137838571D01*
X44055714Y-137838571D01*
D12*
%TO.P,J1,1*%
%TO.N,5VDC*%
X35560000Y-31750000D03*
D13*
%TO.P,J1,2*%
%TO.N,GND*%
X35560000Y-25450000D03*
D14*
%TO.P,J1,3*%
%TO.N,N/C*%
X30760000Y-28850000D03*
%TD*%
D15*
%TO.P,SW17,2,2*%
%TO.N,col3*%
X116500000Y-71000000D03*
X124460000Y-71000000D03*
%TO.P,SW17,1,1*%
%TO.N,row3*%
X124460000Y-75500000D03*
X116500000Y-75500000D03*
%TD*%
D16*
%TO.P,D8,4,DIN*%
%TO.N,Net-(D7-Pad2)*%
X96430000Y-64185000D03*
%TO.P,D8,3,VSS*%
%TO.N,Net-(D5-Pad1)*%
X96430000Y-67485000D03*
%TO.P,D8,2,DOUT*%
%TO.N,Net-(D8-Pad2)*%
X91530000Y-67485000D03*
%TO.P,D8,1,VDD*%
%TO.N,Net-(D17-Pad3)*%
X91530000Y-64185000D03*
%TD*%
D17*
%TO.P,J5,T*%
%TO.N,E2*%
X121280000Y-25260000D03*
%TO.P,J5,S*%
%TO.N,GND*%
X119280000Y-22860000D03*
%TO.P,J5,R*%
%TO.N,N/C*%
X121280000Y-30760000D03*
%TD*%
D15*
%TO.P,SW16,2,2*%
%TO.N,col3*%
X103250000Y-71000000D03*
X111210000Y-71000000D03*
%TO.P,SW16,1,1*%
%TO.N,row2*%
X103250000Y-75500000D03*
X111210000Y-75500000D03*
%TD*%
D16*
%TO.P,D10,4,DIN*%
%TO.N,Net-(D10-Pad4)*%
X122930000Y-64185000D03*
%TO.P,D10,3,VSS*%
%TO.N,Net-(D10-Pad3)*%
X122930000Y-67485000D03*
%TO.P,D10,2,DOUT*%
%TO.N,Net-(D10-Pad2)*%
X118030000Y-67485000D03*
%TO.P,D10,1,VDD*%
%TO.N,Net-(D10-Pad1)*%
X118030000Y-64185000D03*
%TD*%
D15*
%TO.P,SW22,2,2*%
%TO.N,col4*%
X90000000Y-86035000D03*
X97960000Y-86035000D03*
%TO.P,SW22,1,1*%
%TO.N,row1*%
X97960000Y-90535000D03*
X90000000Y-90535000D03*
%TD*%
D18*
%TO.P,C2,2*%
%TO.N,5VDC*%
X86320000Y-38100000D03*
%TO.P,C2,1*%
%TO.N,GND*%
X83820000Y-38100000D03*
%TD*%
%TO.P,C3,2*%
%TO.N,3VDC*%
X50760000Y-55880000D03*
%TO.P,C3,1*%
%TO.N,GND*%
X48260000Y-55880000D03*
%TD*%
D15*
%TO.P,SW24,2,2*%
%TO.N,col4*%
X116500000Y-86035000D03*
X124460000Y-86035000D03*
%TO.P,SW24,1,1*%
%TO.N,row3*%
X124460000Y-90535000D03*
X116500000Y-90535000D03*
%TD*%
D17*
%TO.P,J9,T*%
%TO.N,E6*%
X172080000Y-25260000D03*
%TO.P,J9,S*%
%TO.N,GND*%
X170080000Y-22860000D03*
%TO.P,J9,R*%
%TO.N,N/C*%
X172080000Y-30760000D03*
%TD*%
D16*
%TO.P,D11,4,DIN*%
%TO.N,Net-(D10-Pad2)*%
X136180000Y-64185000D03*
%TO.P,D11,3,VSS*%
%TO.N,Net-(D11-Pad3)*%
X136180000Y-67485000D03*
%TO.P,D11,2,DOUT*%
%TO.N,Net-(D11-Pad2)*%
X131280000Y-67485000D03*
%TO.P,D11,1,VDD*%
%TO.N,Net-(D11-Pad1)*%
X131280000Y-64185000D03*
%TD*%
D15*
%TO.P,SW42,2,2*%
%TO.N,col6*%
X177460000Y-116105000D03*
X169500000Y-116105000D03*
%TO.P,SW42,1,1*%
%TO.N,row7*%
X177460000Y-120605000D03*
X169500000Y-120605000D03*
%TD*%
D17*
%TO.P,J4,T*%
%TO.N,E1*%
X108680000Y-25260000D03*
%TO.P,J4,S*%
%TO.N,GND*%
X106680000Y-22860000D03*
%TO.P,J4,R*%
%TO.N,N/C*%
X108680000Y-30760000D03*
%TD*%
D15*
%TO.P,SW34,2,2*%
%TO.N,col5*%
X156250000Y-101070000D03*
X164210000Y-101070000D03*
%TO.P,SW34,1,1*%
%TO.N,row6*%
X164210000Y-105570000D03*
X156250000Y-105570000D03*
%TD*%
D16*
%TO.P,D37,4,DIN*%
%TO.N,Net-(D36-Pad2)*%
X109680000Y-124325000D03*
%TO.P,D37,3,VSS*%
%TO.N,Net-(D36-Pad1)*%
X109680000Y-127625000D03*
%TO.P,D37,2,DOUT*%
%TO.N,Net-(D37-Pad2)*%
X104780000Y-127625000D03*
%TO.P,D37,1,VDD*%
%TO.N,5VDC*%
X104780000Y-124325000D03*
%TD*%
D17*
%TO.P,J6,T*%
%TO.N,E3*%
X133980000Y-25260000D03*
%TO.P,J6,S*%
%TO.N,GND*%
X131980000Y-22860000D03*
%TO.P,J6,R*%
%TO.N,N/C*%
X133980000Y-30760000D03*
%TD*%
D15*
%TO.P,SW35,2,2*%
%TO.N,col5*%
X169500000Y-101070000D03*
X177460000Y-101070000D03*
%TO.P,SW35,1,1*%
%TO.N,row7*%
X169500000Y-105570000D03*
X177460000Y-105570000D03*
%TD*%
D18*
%TO.P,C4,2*%
%TO.N,3VDC*%
X50760000Y-78740000D03*
%TO.P,C4,1*%
%TO.N,GND*%
X48260000Y-78740000D03*
%TD*%
D16*
%TO.P,D40,4,DIN*%
%TO.N,Net-(D39-Pad2)*%
X149430000Y-124325000D03*
%TO.P,D40,3,VSS*%
%TO.N,Net-(D40-Pad3)*%
X149430000Y-127625000D03*
%TO.P,D40,2,DOUT*%
%TO.N,Net-(D40-Pad2)*%
X144530000Y-127625000D03*
%TO.P,D40,1,VDD*%
%TO.N,Net-(D33-Pad3)*%
X144530000Y-124325000D03*
%TD*%
D19*
%TO.P,U1,VIN,VIN*%
%TO.N,5VDC*%
X25400000Y-77470000D03*
%TO.P,U1,VBAT,VBAT*%
%TO.N,unconnected-(U1-PadVBAT)*%
X38100000Y-44450000D03*
%TO.P,U1,PGM,PROGRAM*%
%TO.N,unconnected-(U1-PadPGM)*%
X30480000Y-44450000D03*
%TO.P,U1,ON-OFF,ON/OFF*%
%TO.N,unconnected-(U1-PadON-OFF)*%
X27940000Y-44450000D03*
%TO.P,U1,G3,G3*%
%TO.N,GND*%
X25400000Y-74930000D03*
%TO.P,U1,G2,G2*%
X33020000Y-44450000D03*
%TO.P,U1,G1,G1*%
X40640000Y-77470000D03*
%TO.P,U1,23,23*%
%TO.N,MRC*%
X25400000Y-69850000D03*
%TO.P,U1,22,22*%
%TO.N,MRR*%
X25400000Y-67310000D03*
%TO.P,U1,21,21*%
%TO.N,E6*%
X25400000Y-64770000D03*
%TO.P,U1,20,20*%
%TO.N,E5*%
X25400000Y-62230000D03*
%TO.P,U1,19,19*%
%TO.N,SCL*%
X25400000Y-59690000D03*
%TO.P,U1,18,18*%
%TO.N,SDA*%
X25400000Y-57150000D03*
%TO.P,U1,17,17*%
%TO.N,E4*%
X25400000Y-54610000D03*
%TO.P,U1,16,16*%
%TO.N,E3*%
X25400000Y-52070000D03*
%TO.P,U1,15,15*%
%TO.N,E2*%
X25400000Y-49530000D03*
%TO.P,U1,14,14*%
%TO.N,E1*%
X25400000Y-46990000D03*
%TO.P,U1,13,13*%
%TO.N,unconnected-(U1-Pad13)*%
X25400000Y-44450000D03*
%TO.P,U1,12,12*%
%TO.N,unconnected-(U1-Pad12)*%
X40640000Y-44450000D03*
%TO.P,U1,11,11*%
%TO.N,MuxC4*%
X40640000Y-46990000D03*
%TO.P,U1,10,10*%
%TO.N,MuxC3*%
X40640000Y-49530000D03*
%TO.P,U1,9,9*%
%TO.N,MuxC2*%
X40640000Y-52070000D03*
%TO.P,U1,8,8*%
%TO.N,MuxC1*%
X40640000Y-54610000D03*
%TO.P,U1,7,7*%
%TO.N,unconnected-(U1-Pad7)*%
X40640000Y-57150000D03*
%TO.P,U1,6,6*%
%TO.N,LED*%
X40640000Y-59690000D03*
%TO.P,U1,5,5*%
%TO.N,MuxR4*%
X40640000Y-62230000D03*
%TO.P,U1,4,4*%
%TO.N,MuxR3*%
X40640000Y-64770000D03*
%TO.P,U1,3.3V_2,3.3V_2*%
%TO.N,3VDC*%
X25400000Y-72390000D03*
%TO.P,U1,3.3V_1,3.3V_1*%
X35560000Y-44450000D03*
%TO.P,U1,3,3*%
%TO.N,MuxR2*%
X40640000Y-67310000D03*
%TO.P,U1,2,2*%
%TO.N,MuxR1*%
X40640000Y-69850000D03*
%TO.P,U1,1,1*%
%TO.N,MIDIo3*%
X40640000Y-72390000D03*
%TO.P,U1,0,0*%
%TO.N,MIDIi3*%
X40640000Y-74930000D03*
%TD*%
D20*
%TO.P,RV1,MP*%
%TO.N,N/C*%
X86030000Y-83705000D03*
X76530000Y-83705000D03*
D21*
%TO.P,RV1,3,3*%
%TO.N,GND*%
X83780000Y-91205000D03*
%TO.P,RV1,2,2*%
%TO.N,fp1*%
X81280000Y-91205000D03*
D22*
%TO.P,RV1,1,1*%
%TO.N,3VDC*%
X78780000Y-91205000D03*
%TD*%
D20*
%TO.P,RV2,MP*%
%TO.N,N/C*%
X86030000Y-68905000D03*
X76530000Y-68905000D03*
D21*
%TO.P,RV2,3,3*%
%TO.N,GND*%
X83780000Y-76405000D03*
%TO.P,RV2,2,2*%
%TO.N,fp2*%
X81280000Y-76405000D03*
D22*
%TO.P,RV2,1,1*%
%TO.N,3VDC*%
X78780000Y-76405000D03*
%TD*%
D16*
%TO.P,D3,4,DIN*%
%TO.N,Net-(D2-Pad2)*%
X122930000Y-49150000D03*
%TO.P,D3,3,VSS*%
%TO.N,Net-(D3-Pad3)*%
X122930000Y-52450000D03*
%TO.P,D3,2,DOUT*%
%TO.N,Net-(D3-Pad2)*%
X118030000Y-52450000D03*
%TO.P,D3,1,VDD*%
%TO.N,Net-(D10-Pad3)*%
X118030000Y-49150000D03*
%TD*%
%TO.P,D28,4,DIN*%
%TO.N,Net-(D27-Pad2)*%
X175930000Y-94255000D03*
%TO.P,D28,3,VSS*%
%TO.N,Net-(D28-Pad3)*%
X175930000Y-97555000D03*
%TO.P,D28,2,DOUT*%
%TO.N,Net-(D28-Pad2)*%
X171030000Y-97555000D03*
%TO.P,D28,1,VDD*%
%TO.N,Net-(D21-Pad3)*%
X171030000Y-94255000D03*
%TD*%
D15*
%TO.P,SW21,2,2*%
%TO.N,col3*%
X177460000Y-71000000D03*
X169500000Y-71000000D03*
%TO.P,SW21,1,1*%
%TO.N,row7*%
X177460000Y-75500000D03*
X169500000Y-75500000D03*
%TD*%
%TO.P,SW10,2,2*%
%TO.N,col2*%
X116500000Y-55965000D03*
X124460000Y-55965000D03*
%TO.P,SW10,1,1*%
%TO.N,row3*%
X124460000Y-60465000D03*
X116500000Y-60465000D03*
%TD*%
%TO.P,SW47,2,2*%
%TO.N,3VDC*%
X85260000Y-114696129D03*
X77300000Y-114696129D03*
%TO.P,SW47,1,1*%
%TO.N,Ctrl5*%
X77300000Y-119196129D03*
X85260000Y-119196129D03*
%TD*%
%TO.P,SW33,2,2*%
%TO.N,col5*%
X150960000Y-101070000D03*
X143000000Y-101070000D03*
%TO.P,SW33,1,1*%
%TO.N,row5*%
X150960000Y-105570000D03*
X143000000Y-105570000D03*
%TD*%
D16*
%TO.P,D4,4,DIN*%
%TO.N,Net-(D3-Pad2)*%
X136180000Y-49150000D03*
%TO.P,D4,3,VSS*%
%TO.N,Net-(D4-Pad3)*%
X136180000Y-52450000D03*
%TO.P,D4,2,DOUT*%
%TO.N,Net-(D4-Pad2)*%
X131280000Y-52450000D03*
%TO.P,D4,1,VDD*%
%TO.N,Net-(D3-Pad3)*%
X131280000Y-49150000D03*
%TD*%
%TO.P,D19,4,DIN*%
%TO.N,Net-(D18-Pad2)*%
X149430000Y-79220000D03*
%TO.P,D19,3,VSS*%
%TO.N,Net-(D19-Pad3)*%
X149430000Y-82520000D03*
%TO.P,D19,2,DOUT*%
%TO.N,Net-(D19-Pad2)*%
X144530000Y-82520000D03*
%TO.P,D19,1,VDD*%
%TO.N,Net-(D18-Pad3)*%
X144530000Y-79220000D03*
%TD*%
D15*
%TO.P,SW40,2,2*%
%TO.N,col6*%
X143000000Y-116105000D03*
X150960000Y-116105000D03*
%TO.P,SW40,1,1*%
%TO.N,row5*%
X150960000Y-120605000D03*
X143000000Y-120605000D03*
%TD*%
D16*
%TO.P,D29,4,DIN*%
%TO.N,Net-(D28-Pad2)*%
X96430000Y-109290000D03*
%TO.P,D29,3,VSS*%
%TO.N,Net-(D20-Pad1)*%
X96430000Y-112590000D03*
%TO.P,D29,2,DOUT*%
%TO.N,Net-(D29-Pad2)*%
X91530000Y-112590000D03*
%TO.P,D29,1,VDD*%
%TO.N,Net-(D29-Pad1)*%
X91530000Y-109290000D03*
%TD*%
D17*
%TO.P,J8,T*%
%TO.N,E5*%
X159380000Y-25260000D03*
%TO.P,J8,S*%
%TO.N,GND*%
X157380000Y-22860000D03*
%TO.P,J8,R*%
%TO.N,N/C*%
X159380000Y-30760000D03*
%TD*%
D15*
%TO.P,SW4,2,2*%
%TO.N,col1*%
X137710000Y-40930000D03*
X129750000Y-40930000D03*
%TO.P,SW4,1,1*%
%TO.N,row4*%
X137710000Y-45430000D03*
X129750000Y-45430000D03*
%TD*%
D17*
%TO.P,J7,T*%
%TO.N,E4*%
X146680000Y-25260000D03*
%TO.P,J7,S*%
%TO.N,GND*%
X144680000Y-22860000D03*
%TO.P,J7,R*%
%TO.N,N/C*%
X146680000Y-30760000D03*
%TD*%
D15*
%TO.P,SW19,2,2*%
%TO.N,col3*%
X143000000Y-71000000D03*
X150960000Y-71000000D03*
%TO.P,SW19,1,1*%
%TO.N,row5*%
X143000000Y-75500000D03*
X150960000Y-75500000D03*
%TD*%
D23*
%TO.P,U2,24,VCC*%
%TO.N,3VDC*%
X65610000Y-56515000D03*
%TO.P,U2,23,I8*%
%TO.N,col2*%
X65610000Y-57785000D03*
%TO.P,U2,22,I9*%
%TO.N,col3*%
X65610000Y-59055000D03*
%TO.P,U2,21,I10*%
%TO.N,col4*%
X65610000Y-60325000D03*
%TO.P,U2,20,I11*%
%TO.N,col5*%
X65610000Y-61595000D03*
%TO.P,U2,19,I12*%
%TO.N,col6*%
X65610000Y-62865000D03*
%TO.P,U2,18,I13*%
%TO.N,unconnected-(U2-Pad18)*%
X65610000Y-64135000D03*
%TO.P,U2,17,I14*%
%TO.N,unconnected-(U2-Pad17)*%
X65610000Y-65405000D03*
%TO.P,U2,16,I15*%
%TO.N,unconnected-(U2-Pad16)*%
X65610000Y-66675000D03*
%TO.P,U2,15,~{E}*%
%TO.N,GND*%
X65610000Y-67945000D03*
%TO.P,U2,14,S2*%
%TO.N,MuxR3*%
X65610000Y-69215000D03*
%TO.P,U2,13,S3*%
%TO.N,MuxR4*%
X65610000Y-70485000D03*
%TO.P,U2,12,GND*%
%TO.N,GND*%
X56310000Y-70485000D03*
%TO.P,U2,11,S1*%
%TO.N,MuxR2*%
X56310000Y-69215000D03*
%TO.P,U2,10,S0*%
%TO.N,MuxR1*%
X56310000Y-67945000D03*
%TO.P,U2,9,I0*%
%TO.N,row1*%
X56310000Y-66675000D03*
%TO.P,U2,8,I1*%
%TO.N,row2*%
X56310000Y-65405000D03*
%TO.P,U2,7,I2*%
%TO.N,row3*%
X56310000Y-64135000D03*
%TO.P,U2,6,I3*%
%TO.N,row4*%
X56310000Y-62865000D03*
%TO.P,U2,5,I4*%
%TO.N,row5*%
X56310000Y-61595000D03*
%TO.P,U2,4,I5*%
%TO.N,row6*%
X56310000Y-60325000D03*
%TO.P,U2,3,I6*%
%TO.N,row7*%
X56310000Y-59055000D03*
%TO.P,U2,2,I7*%
%TO.N,col1*%
X56310000Y-57785000D03*
%TO.P,U2,1,COM*%
%TO.N,MRR*%
X56310000Y-56515000D03*
%TD*%
D16*
%TO.P,D17,4,DIN*%
%TO.N,Net-(D16-Pad2)*%
X122930000Y-79220000D03*
%TO.P,D17,3,VSS*%
%TO.N,Net-(D17-Pad3)*%
X122930000Y-82520000D03*
%TO.P,D17,2,DOUT*%
%TO.N,Net-(D17-Pad2)*%
X118030000Y-82520000D03*
%TO.P,D17,1,VDD*%
%TO.N,Net-(D17-Pad1)*%
X118030000Y-79220000D03*
%TD*%
D15*
%TO.P,SW2,2,2*%
%TO.N,col1*%
X111210000Y-40930000D03*
X103250000Y-40930000D03*
%TO.P,SW2,1,1*%
%TO.N,row2*%
X103250000Y-45430000D03*
X111210000Y-45430000D03*
%TD*%
%TO.P,SW28,2,2*%
%TO.N,col4*%
X169500000Y-86035000D03*
X177460000Y-86035000D03*
%TO.P,SW28,1,1*%
%TO.N,row7*%
X169500000Y-90535000D03*
X177460000Y-90535000D03*
%TD*%
%TO.P,SW1,2,2*%
%TO.N,col1*%
X97960000Y-40930000D03*
X90000000Y-40930000D03*
%TO.P,SW1,1,1*%
%TO.N,row1*%
X90000000Y-45430000D03*
X97960000Y-45430000D03*
%TD*%
%TO.P,SW38,2,2*%
%TO.N,col6*%
X124460000Y-116105000D03*
X116500000Y-116105000D03*
%TO.P,SW38,1,1*%
%TO.N,row3*%
X116500000Y-120605000D03*
X124460000Y-120605000D03*
%TD*%
%TO.P,SW27,2,2*%
%TO.N,col4*%
X156250000Y-86035000D03*
X164210000Y-86035000D03*
%TO.P,SW27,1,1*%
%TO.N,row6*%
X156250000Y-90535000D03*
X164210000Y-90535000D03*
%TD*%
D24*
%TO.P,R3,2*%
%TO.N,Net-(J2-Pad4)*%
X61760000Y-36900000D03*
D25*
%TO.P,R3,1*%
%TO.N,Net-(D43-Pad1)*%
X64300000Y-36900000D03*
%TD*%
D15*
%TO.P,SW41,2,2*%
%TO.N,col6*%
X156250000Y-116105000D03*
X164210000Y-116105000D03*
%TO.P,SW41,1,1*%
%TO.N,row6*%
X156250000Y-120605000D03*
X164210000Y-120605000D03*
%TD*%
%TO.P,SW9,2,2*%
%TO.N,col2*%
X103250000Y-55965000D03*
X111210000Y-55965000D03*
%TO.P,SW9,1,1*%
%TO.N,row2*%
X103250000Y-60465000D03*
X111210000Y-60465000D03*
%TD*%
D16*
%TO.P,D15,4,DIN*%
%TO.N,Net-(D14-Pad2)*%
X96430000Y-79220000D03*
%TO.P,D15,3,VSS*%
%TO.N,Net-(D10-Pad1)*%
X96430000Y-82520000D03*
%TO.P,D15,2,DOUT*%
%TO.N,Net-(D15-Pad2)*%
X91530000Y-82520000D03*
%TO.P,D15,1,VDD*%
%TO.N,Net-(D15-Pad1)*%
X91530000Y-79220000D03*
%TD*%
D15*
%TO.P,SW20,2,2*%
%TO.N,col3*%
X164210000Y-71000000D03*
X156250000Y-71000000D03*
%TO.P,SW20,1,1*%
%TO.N,row6*%
X164210000Y-75500000D03*
X156250000Y-75500000D03*
%TD*%
D16*
%TO.P,D42,4,DIN*%
%TO.N,Net-(D41-Pad2)*%
X175930000Y-124325000D03*
%TO.P,D42,3,VSS*%
%TO.N,GND*%
X175930000Y-127625000D03*
%TO.P,D42,2,DOUT*%
%TO.N,unconnected-(D42-Pad2)*%
X171030000Y-127625000D03*
%TO.P,D42,1,VDD*%
%TO.N,Net-(D31-Pad3)*%
X171030000Y-124325000D03*
%TD*%
%TO.P,D1,4,DIN*%
%TO.N,LEDcntrl*%
X96430000Y-49150000D03*
%TO.P,D1,3,VSS*%
%TO.N,Net-(D1-Pad3)*%
X96430000Y-52450000D03*
%TO.P,D1,2,DOUT*%
%TO.N,Net-(D1-Pad2)*%
X91530000Y-52450000D03*
%TO.P,D1,1,VDD*%
%TO.N,Net-(D1-Pad1)*%
X91530000Y-49150000D03*
%TD*%
%TO.P,D16,4,DIN*%
%TO.N,Net-(D15-Pad2)*%
X109680000Y-79220000D03*
%TO.P,D16,3,VSS*%
%TO.N,Net-(D16-Pad3)*%
X109680000Y-82520000D03*
%TO.P,D16,2,DOUT*%
%TO.N,Net-(D16-Pad2)*%
X104780000Y-82520000D03*
%TO.P,D16,1,VDD*%
%TO.N,Net-(D16-Pad1)*%
X104780000Y-79220000D03*
%TD*%
%TO.P,D20,4,DIN*%
%TO.N,Net-(D19-Pad2)*%
X162680000Y-79220000D03*
%TO.P,D20,3,VSS*%
%TO.N,Net-(D17-Pad1)*%
X162680000Y-82520000D03*
%TO.P,D20,2,DOUT*%
%TO.N,Net-(D20-Pad2)*%
X157780000Y-82520000D03*
%TO.P,D20,1,VDD*%
%TO.N,Net-(D20-Pad1)*%
X157780000Y-79220000D03*
%TD*%
D15*
%TO.P,SW30,2,2*%
%TO.N,col5*%
X103250000Y-101070000D03*
X111210000Y-101070000D03*
%TO.P,SW30,1,1*%
%TO.N,row2*%
X103250000Y-105570000D03*
X111210000Y-105570000D03*
%TD*%
%TO.P,SW29,2,2*%
%TO.N,col5*%
X90000000Y-101070000D03*
X97960000Y-101070000D03*
%TO.P,SW29,1,1*%
%TO.N,row1*%
X97960000Y-105570000D03*
X90000000Y-105570000D03*
%TD*%
%TO.P,SW6,2,2*%
%TO.N,col1*%
X156250000Y-40930000D03*
X164210000Y-40930000D03*
%TO.P,SW6,1,1*%
%TO.N,row6*%
X156250000Y-45430000D03*
X164210000Y-45430000D03*
%TD*%
%TO.P,SW26,2,2*%
%TO.N,col4*%
X143000000Y-86035000D03*
X150960000Y-86035000D03*
%TO.P,SW26,1,1*%
%TO.N,row5*%
X143000000Y-90535000D03*
X150960000Y-90535000D03*
%TD*%
D16*
%TO.P,D23,4,DIN*%
%TO.N,Net-(D22-Pad2)*%
X109680000Y-94255000D03*
%TO.P,D23,3,VSS*%
%TO.N,Net-(D23-Pad3)*%
X109680000Y-97555000D03*
%TO.P,D23,2,DOUT*%
%TO.N,Net-(D23-Pad2)*%
X104780000Y-97555000D03*
%TO.P,D23,1,VDD*%
%TO.N,Net-(D14-Pad3)*%
X104780000Y-94255000D03*
%TD*%
D15*
%TO.P,SW11,2,2*%
%TO.N,col2*%
X129750000Y-55965000D03*
X137710000Y-55965000D03*
%TO.P,SW11,1,1*%
%TO.N,row4*%
X129750000Y-60465000D03*
X137710000Y-60465000D03*
%TD*%
%TO.P,SW48,2,2*%
%TO.N,3VDC*%
X85260000Y-99350000D03*
X77300000Y-99350000D03*
%TO.P,SW48,1,1*%
%TO.N,Ctrl6*%
X85260000Y-103850000D03*
X77300000Y-103850000D03*
%TD*%
D16*
%TO.P,D2,4,DIN*%
%TO.N,Net-(D1-Pad2)*%
X109680000Y-49150000D03*
%TO.P,D2,3,VSS*%
%TO.N,Net-(D11-Pad1)*%
X109680000Y-52450000D03*
%TO.P,D2,2,DOUT*%
%TO.N,Net-(D2-Pad2)*%
X104780000Y-52450000D03*
%TO.P,D2,1,VDD*%
%TO.N,Net-(D1-Pad3)*%
X104780000Y-49150000D03*
%TD*%
D15*
%TO.P,SW43,2,2*%
%TO.N,3VDC*%
X64940000Y-99350000D03*
X56980000Y-99350000D03*
%TO.P,SW43,1,1*%
%TO.N,Ctrl1*%
X64940000Y-103850000D03*
X56980000Y-103850000D03*
%TD*%
D16*
%TO.P,D27,4,DIN*%
%TO.N,Net-(D26-Pad2)*%
X162680000Y-94255000D03*
%TO.P,D27,3,VSS*%
%TO.N,Net-(D22-Pad1)*%
X162680000Y-97555000D03*
%TO.P,D27,2,DOUT*%
%TO.N,Net-(D27-Pad2)*%
X157780000Y-97555000D03*
%TO.P,D27,1,VDD*%
%TO.N,Net-(D27-Pad1)*%
X157780000Y-94255000D03*
%TD*%
D20*
%TO.P,RV3,MP*%
%TO.N,N/C*%
X86030000Y-54105000D03*
X76530000Y-54105000D03*
D21*
%TO.P,RV3,3,3*%
%TO.N,GND*%
X83780000Y-61605000D03*
%TO.P,RV3,2,2*%
%TO.N,main*%
X81280000Y-61605000D03*
D22*
%TO.P,RV3,1,1*%
%TO.N,3VDC*%
X78780000Y-61605000D03*
%TD*%
D24*
%TO.P,R1,2*%
%TO.N,5VDC*%
X84760000Y-43180000D03*
D25*
%TO.P,R1,1*%
%TO.N,MIDI_IN*%
X82220000Y-43180000D03*
%TD*%
D24*
%TO.P,R4,2*%
%TO.N,Net-(J3-Pad5)*%
X93980000Y-35560000D03*
D25*
%TO.P,R4,1*%
%TO.N,5VDC*%
X91440000Y-35560000D03*
%TD*%
D15*
%TO.P,SW3,2,2*%
%TO.N,col1*%
X124460000Y-40930000D03*
X116500000Y-40930000D03*
%TO.P,SW3,1,1*%
%TO.N,row3*%
X116500000Y-45430000D03*
X124460000Y-45430000D03*
%TD*%
%TO.P,SW23,2,2*%
%TO.N,col4*%
X111210000Y-86035000D03*
X103250000Y-86035000D03*
%TO.P,SW23,1,1*%
%TO.N,row2*%
X111210000Y-90535000D03*
X103250000Y-90535000D03*
%TD*%
D16*
%TO.P,D39,4,DIN*%
%TO.N,Net-(D38-Pad2)*%
X136180000Y-124325000D03*
%TO.P,D39,3,VSS*%
%TO.N,Net-(D34-Pad1)*%
X136180000Y-127625000D03*
%TO.P,D39,2,DOUT*%
%TO.N,Net-(D39-Pad2)*%
X131280000Y-127625000D03*
%TO.P,D39,1,VDD*%
%TO.N,Net-(D38-Pad3)*%
X131280000Y-124325000D03*
%TD*%
%TO.P,D12,4,DIN*%
%TO.N,Net-(D11-Pad2)*%
X149430000Y-64185000D03*
%TO.P,D12,3,VSS*%
%TO.N,Net-(D1-Pad1)*%
X149430000Y-67485000D03*
%TO.P,D12,2,DOUT*%
%TO.N,Net-(D12-Pad2)*%
X144530000Y-67485000D03*
%TO.P,D12,1,VDD*%
%TO.N,Net-(D12-Pad1)*%
X144530000Y-64185000D03*
%TD*%
D15*
%TO.P,SW25,2,2*%
%TO.N,col4*%
X129750000Y-86035000D03*
X137710000Y-86035000D03*
%TO.P,SW25,1,1*%
%TO.N,row4*%
X137710000Y-90535000D03*
X129750000Y-90535000D03*
%TD*%
D16*
%TO.P,D36,4,DIN*%
%TO.N,Net-(D35-Pad2)*%
X96430000Y-124325000D03*
%TO.P,D36,3,VSS*%
%TO.N,Net-(D25-Pad1)*%
X96430000Y-127625000D03*
%TO.P,D36,2,DOUT*%
%TO.N,Net-(D36-Pad2)*%
X91530000Y-127625000D03*
%TO.P,D36,1,VDD*%
%TO.N,Net-(D36-Pad1)*%
X91530000Y-124325000D03*
%TD*%
%TO.P,D31,4,DIN*%
%TO.N,Net-(D30-Pad2)*%
X122930000Y-109290000D03*
%TO.P,D31,3,VSS*%
%TO.N,Net-(D31-Pad3)*%
X122930000Y-112590000D03*
%TO.P,D31,2,DOUT*%
%TO.N,Net-(D31-Pad2)*%
X118030000Y-112590000D03*
%TO.P,D31,1,VDD*%
%TO.N,Net-(D30-Pad3)*%
X118030000Y-109290000D03*
%TD*%
%TO.P,D26,4,DIN*%
%TO.N,Net-(D25-Pad2)*%
X149430000Y-94255000D03*
%TO.P,D26,3,VSS*%
%TO.N,Net-(D26-Pad3)*%
X149430000Y-97555000D03*
%TO.P,D26,2,DOUT*%
%TO.N,Net-(D26-Pad2)*%
X144530000Y-97555000D03*
%TO.P,D26,1,VDD*%
%TO.N,Net-(D23-Pad3)*%
X144530000Y-94255000D03*
%TD*%
D15*
%TO.P,SW44,2,2*%
%TO.N,3VDC*%
X56980000Y-109510000D03*
X64940000Y-109510000D03*
%TO.P,SW44,1,1*%
%TO.N,Ctrl2*%
X64940000Y-114010000D03*
X56980000Y-114010000D03*
%TD*%
D16*
%TO.P,D30,4,DIN*%
%TO.N,Net-(D29-Pad2)*%
X109680000Y-109290000D03*
%TO.P,D30,3,VSS*%
%TO.N,Net-(D30-Pad3)*%
X109680000Y-112590000D03*
%TO.P,D30,2,DOUT*%
%TO.N,Net-(D30-Pad2)*%
X104780000Y-112590000D03*
%TO.P,D30,1,VDD*%
%TO.N,Net-(D19-Pad3)*%
X104780000Y-109290000D03*
%TD*%
%TO.P,D24,4,DIN*%
%TO.N,Net-(D23-Pad2)*%
X122930000Y-94255000D03*
%TO.P,D24,3,VSS*%
%TO.N,Net-(D13-Pad1)*%
X122930000Y-97555000D03*
%TO.P,D24,2,DOUT*%
%TO.N,Net-(D24-Pad2)*%
X118030000Y-97555000D03*
%TO.P,D24,1,VDD*%
%TO.N,Net-(D24-Pad1)*%
X118030000Y-94255000D03*
%TD*%
D15*
%TO.P,SW37,2,2*%
%TO.N,col6*%
X111210000Y-116105000D03*
X103250000Y-116105000D03*
%TO.P,SW37,1,1*%
%TO.N,row2*%
X103250000Y-120605000D03*
X111210000Y-120605000D03*
%TD*%
D26*
%TO.P,D43,2,A*%
%TO.N,Net-(D43-Pad2)*%
X74930000Y-36750000D03*
D27*
%TO.P,D43,1,K*%
%TO.N,Net-(D43-Pad1)*%
X67310000Y-36750000D03*
%TD*%
D15*
%TO.P,SW36,2,2*%
%TO.N,col6*%
X97960000Y-116105000D03*
X90000000Y-116105000D03*
%TO.P,SW36,1,1*%
%TO.N,row1*%
X97960000Y-120605000D03*
X90000000Y-120605000D03*
%TD*%
D16*
%TO.P,D33,4,DIN*%
%TO.N,Net-(D32-Pad2)*%
X149430000Y-109290000D03*
%TO.P,D33,3,VSS*%
%TO.N,Net-(D33-Pad3)*%
X149430000Y-112590000D03*
%TO.P,D33,2,DOUT*%
%TO.N,Net-(D33-Pad2)*%
X144530000Y-112590000D03*
%TO.P,D33,1,VDD*%
%TO.N,Net-(D28-Pad3)*%
X144530000Y-109290000D03*
%TD*%
D15*
%TO.P,SW32,2,2*%
%TO.N,col5*%
X137710000Y-101070000D03*
X129750000Y-101070000D03*
%TO.P,SW32,1,1*%
%TO.N,row4*%
X137710000Y-105570000D03*
X129750000Y-105570000D03*
%TD*%
D16*
%TO.P,D6,4,DIN*%
%TO.N,Net-(D5-Pad2)*%
X162680000Y-49150000D03*
%TO.P,D6,3,VSS*%
%TO.N,Net-(D6-Pad3)*%
X162680000Y-52450000D03*
%TO.P,D6,2,DOUT*%
%TO.N,Net-(D6-Pad2)*%
X157780000Y-52450000D03*
%TO.P,D6,1,VDD*%
%TO.N,Net-(D5-Pad3)*%
X157780000Y-49150000D03*
%TD*%
D18*
%TO.P,C1,2*%
%TO.N,5VDC*%
X34167446Y-38100000D03*
%TO.P,C1,1*%
%TO.N,GND*%
X31667446Y-38100000D03*
%TD*%
D15*
%TO.P,SW45,2,2*%
%TO.N,3VDC*%
X56600000Y-124750000D03*
X64560000Y-124750000D03*
%TO.P,SW45,1,1*%
%TO.N,Ctrl3*%
X56600000Y-129250000D03*
X64560000Y-129250000D03*
%TD*%
%TO.P,SW15,2,2*%
%TO.N,col3*%
X90000000Y-71000000D03*
X97960000Y-71000000D03*
%TO.P,SW15,1,1*%
%TO.N,row1*%
X97960000Y-75500000D03*
X90000000Y-75500000D03*
%TD*%
%TO.P,SW7,2,2*%
%TO.N,col1*%
X177460000Y-40930000D03*
X169500000Y-40930000D03*
%TO.P,SW7,1,1*%
%TO.N,row7*%
X177460000Y-45430000D03*
X169500000Y-45430000D03*
%TD*%
D16*
%TO.P,D7,4,DIN*%
%TO.N,Net-(D6-Pad2)*%
X175930000Y-49150000D03*
%TO.P,D7,3,VSS*%
%TO.N,Net-(D18-Pad1)*%
X175930000Y-52450000D03*
%TO.P,D7,2,DOUT*%
%TO.N,Net-(D7-Pad2)*%
X171030000Y-52450000D03*
%TO.P,D7,1,VDD*%
%TO.N,Net-(D6-Pad3)*%
X171030000Y-49150000D03*
%TD*%
D24*
%TO.P,R2,2*%
%TO.N,Net-(R2-Pad2)*%
X58420000Y-38100000D03*
D25*
%TO.P,R2,1*%
%TO.N,GND*%
X55880000Y-38100000D03*
%TD*%
D28*
%TO.P,U4,20,B1*%
%TO.N,LEDcntrl*%
X51700000Y-43920000D03*
%TO.P,U4,19,B2*%
%TO.N,MIDI_IN*%
X51700000Y-44320000D03*
%TO.P,U4,18,B3*%
%TO.N,MIDI_OUT*%
X51700000Y-44720000D03*
%TO.P,U4,17,B4*%
%TO.N,unconnected-(U4-Pad17)*%
X51700000Y-45120000D03*
%TO.P,U4,16,VCCB*%
%TO.N,5VDC*%
X51700000Y-45520000D03*
%TO.P,U4,15,GND*%
%TO.N,GND*%
X51700000Y-45920000D03*
%TO.P,U4,14,B5*%
%TO.N,unconnected-(U4-Pad14)*%
X51700000Y-46320000D03*
%TO.P,U4,13,B6*%
%TO.N,unconnected-(U4-Pad13)*%
X51700000Y-46720000D03*
%TO.P,U4,12,B7*%
%TO.N,unconnected-(U4-Pad12)*%
X51700000Y-47120000D03*
%TO.P,U4,11,B8*%
%TO.N,unconnected-(U4-Pad11)*%
X51700000Y-47520000D03*
%TO.P,U4,10,A8*%
%TO.N,unconnected-(U4-Pad10)*%
X49900000Y-47520000D03*
%TO.P,U4,9,A7*%
%TO.N,unconnected-(U4-Pad9)*%
X49900000Y-47120000D03*
%TO.P,U4,8,A6*%
%TO.N,unconnected-(U4-Pad8)*%
X49900000Y-46720000D03*
%TO.P,U4,7,A5*%
%TO.N,unconnected-(U4-Pad7)*%
X49900000Y-46320000D03*
%TO.P,U4,6,OE*%
%TO.N,GND*%
X49900000Y-45920000D03*
%TO.P,U4,5,VCCA*%
%TO.N,3VDC*%
X49900000Y-45520000D03*
%TO.P,U4,4,A4*%
%TO.N,unconnected-(U4-Pad4)*%
X49900000Y-45120000D03*
%TO.P,U4,3,A3*%
%TO.N,MIDIo3*%
X49900000Y-44720000D03*
%TO.P,U4,2,A2*%
%TO.N,MIDIi3*%
X49900000Y-44320000D03*
D29*
%TO.P,U4,1,A1*%
%TO.N,LED*%
X49950000Y-43920000D03*
%TD*%
D30*
%TO.P,J3,G2*%
%TO.N,N/C*%
X83900000Y-20650000D03*
%TO.P,J3,G1*%
X93900000Y-20650000D03*
%TO.P,J3,5*%
%TO.N,Net-(J3-Pad5)*%
X93900000Y-32650000D03*
%TO.P,J3,4*%
%TO.N,MIDI_OUT*%
X83900000Y-32650000D03*
%TO.P,J3,3*%
%TO.N,unconnected-(J3-Pad3)*%
X96400000Y-30150000D03*
%TO.P,J3,2*%
%TO.N,GND*%
X88900000Y-30150000D03*
D31*
%TO.P,J3,1*%
%TO.N,unconnected-(J3-Pad1)*%
X81400000Y-30150000D03*
%TD*%
D15*
%TO.P,SW39,2,2*%
%TO.N,col6*%
X129750000Y-116105000D03*
X137710000Y-116105000D03*
%TO.P,SW39,1,1*%
%TO.N,row4*%
X129750000Y-120605000D03*
X137710000Y-120605000D03*
%TD*%
D32*
%TO.P,J10,4,Pin_4*%
%TO.N,GND*%
X50800000Y-94100000D03*
%TO.P,J10,3,Pin_3*%
%TO.N,SDA*%
X50800000Y-96600000D03*
%TO.P,J10,2,Pin_2*%
%TO.N,SCL*%
X50800000Y-99100000D03*
D33*
%TO.P,J10,1,Pin_1*%
%TO.N,5VDC*%
X50800000Y-101600000D03*
%TD*%
D15*
%TO.P,SW46,2,2*%
%TO.N,3VDC*%
X85260000Y-124750000D03*
X77300000Y-124750000D03*
%TO.P,SW46,1,1*%
%TO.N,Ctrl4*%
X85260000Y-129250000D03*
X77300000Y-129250000D03*
%TD*%
D16*
%TO.P,D18,4,DIN*%
%TO.N,Net-(D17-Pad2)*%
X136180000Y-79220000D03*
%TO.P,D18,3,VSS*%
%TO.N,Net-(D18-Pad3)*%
X136180000Y-82520000D03*
%TO.P,D18,2,DOUT*%
%TO.N,Net-(D18-Pad2)*%
X131280000Y-82520000D03*
%TO.P,D18,1,VDD*%
%TO.N,Net-(D18-Pad1)*%
X131280000Y-79220000D03*
%TD*%
D15*
%TO.P,SW14,2,2*%
%TO.N,col2*%
X177460000Y-55965000D03*
X169500000Y-55965000D03*
%TO.P,SW14,1,1*%
%TO.N,row7*%
X177460000Y-60465000D03*
X169500000Y-60465000D03*
%TD*%
D16*
%TO.P,D21,4,DIN*%
%TO.N,Net-(D20-Pad2)*%
X175930000Y-79220000D03*
%TO.P,D21,3,VSS*%
%TO.N,Net-(D21-Pad3)*%
X175930000Y-82520000D03*
%TO.P,D21,2,DOUT*%
%TO.N,Net-(D21-Pad2)*%
X171030000Y-82520000D03*
%TO.P,D21,1,VDD*%
%TO.N,Net-(D16-Pad3)*%
X171030000Y-79220000D03*
%TD*%
%TO.P,D34,4,DIN*%
%TO.N,Net-(D33-Pad2)*%
X162680000Y-109290000D03*
%TO.P,D34,3,VSS*%
%TO.N,Net-(D27-Pad1)*%
X162680000Y-112590000D03*
%TO.P,D34,2,DOUT*%
%TO.N,Net-(D34-Pad2)*%
X157780000Y-112590000D03*
%TO.P,D34,1,VDD*%
%TO.N,Net-(D34-Pad1)*%
X157780000Y-109290000D03*
%TD*%
D26*
%TO.P,U5,8,VCC*%
%TO.N,5VDC*%
X60960000Y-50800000D03*
%TO.P,U5,7,VO1*%
%TO.N,Net-(R2-Pad2)*%
X60960000Y-48260000D03*
%TO.P,U5,6,VO2*%
%TO.N,MIDI_IN*%
X60960000Y-45720000D03*
%TO.P,U5,5,GND*%
%TO.N,GND*%
X60960000Y-43180000D03*
%TO.P,U5,4,NC*%
%TO.N,unconnected-(U5-Pad4)*%
X68580000Y-43180000D03*
%TO.P,U5,3,C2*%
%TO.N,Net-(D43-Pad2)*%
X68580000Y-45720000D03*
%TO.P,U5,2,C1*%
%TO.N,Net-(D43-Pad1)*%
X68580000Y-48260000D03*
D27*
%TO.P,U5,1,NC*%
%TO.N,unconnected-(U5-Pad1)*%
X68580000Y-50800000D03*
%TD*%
D16*
%TO.P,D35,4,DIN*%
%TO.N,Net-(D34-Pad2)*%
X175930000Y-109290000D03*
%TO.P,D35,3,VSS*%
%TO.N,Net-(D35-Pad3)*%
X175930000Y-112590000D03*
%TO.P,D35,2,DOUT*%
%TO.N,Net-(D35-Pad2)*%
X171030000Y-112590000D03*
%TO.P,D35,1,VDD*%
%TO.N,Net-(D26-Pad3)*%
X171030000Y-109290000D03*
%TD*%
D15*
%TO.P,SW31,2,2*%
%TO.N,col5*%
X124460000Y-101070000D03*
X116500000Y-101070000D03*
%TO.P,SW31,1,1*%
%TO.N,row3*%
X116500000Y-105570000D03*
X124460000Y-105570000D03*
%TD*%
D16*
%TO.P,D5,4,DIN*%
%TO.N,Net-(D4-Pad2)*%
X149430000Y-49150000D03*
%TO.P,D5,3,VSS*%
%TO.N,Net-(D5-Pad3)*%
X149430000Y-52450000D03*
%TO.P,D5,2,DOUT*%
%TO.N,Net-(D5-Pad2)*%
X144530000Y-52450000D03*
%TO.P,D5,1,VDD*%
%TO.N,Net-(D5-Pad1)*%
X144530000Y-49150000D03*
%TD*%
%TO.P,D22,4,DIN*%
%TO.N,Net-(D21-Pad2)*%
X96430000Y-94255000D03*
%TO.P,D22,3,VSS*%
%TO.N,Net-(D15-Pad1)*%
X96430000Y-97555000D03*
%TO.P,D22,2,DOUT*%
%TO.N,Net-(D22-Pad2)*%
X91530000Y-97555000D03*
%TO.P,D22,1,VDD*%
%TO.N,Net-(D22-Pad1)*%
X91530000Y-94255000D03*
%TD*%
D15*
%TO.P,SW8,2,2*%
%TO.N,col2*%
X97960000Y-55965000D03*
X90000000Y-55965000D03*
%TO.P,SW8,1,1*%
%TO.N,row1*%
X97960000Y-60465000D03*
X90000000Y-60465000D03*
%TD*%
%TO.P,SW13,2,2*%
%TO.N,col2*%
X164210000Y-55965000D03*
X156250000Y-55965000D03*
%TO.P,SW13,1,1*%
%TO.N,row6*%
X164210000Y-60465000D03*
X156250000Y-60465000D03*
%TD*%
D30*
%TO.P,J2,G2*%
%TO.N,N/C*%
X61040000Y-20650000D03*
%TO.P,J2,G1*%
X71040000Y-20650000D03*
%TO.P,J2,5*%
%TO.N,Net-(D43-Pad2)*%
X71040000Y-32650000D03*
%TO.P,J2,4*%
%TO.N,Net-(J2-Pad4)*%
X61040000Y-32650000D03*
%TO.P,J2,3*%
%TO.N,unconnected-(J2-Pad3)*%
X73540000Y-30150000D03*
%TO.P,J2,2*%
%TO.N,GND*%
X66040000Y-30150000D03*
D31*
%TO.P,J2,1*%
%TO.N,unconnected-(J2-Pad1)*%
X58540000Y-30150000D03*
%TD*%
D16*
%TO.P,D9,4,DIN*%
%TO.N,Net-(D8-Pad2)*%
X109680000Y-64185000D03*
%TO.P,D9,3,VSS*%
%TO.N,Net-(D16-Pad1)*%
X109680000Y-67485000D03*
%TO.P,D9,2,DOUT*%
%TO.N,Net-(D10-Pad4)*%
X104780000Y-67485000D03*
%TO.P,D9,1,VDD*%
%TO.N,Net-(D4-Pad3)*%
X104780000Y-64185000D03*
%TD*%
%TO.P,D13,4,DIN*%
%TO.N,Net-(D12-Pad2)*%
X162680000Y-64185000D03*
%TO.P,D13,3,VSS*%
%TO.N,Net-(D12-Pad1)*%
X162680000Y-67485000D03*
%TO.P,D13,2,DOUT*%
%TO.N,Net-(D13-Pad2)*%
X157780000Y-67485000D03*
%TO.P,D13,1,VDD*%
%TO.N,Net-(D13-Pad1)*%
X157780000Y-64185000D03*
%TD*%
D15*
%TO.P,SW5,2,2*%
%TO.N,col1*%
X150960000Y-40930000D03*
X143000000Y-40930000D03*
%TO.P,SW5,1,1*%
%TO.N,row5*%
X143000000Y-45430000D03*
X150960000Y-45430000D03*
%TD*%
D16*
%TO.P,D32,4,DIN*%
%TO.N,Net-(D31-Pad2)*%
X136180000Y-109290000D03*
%TO.P,D32,3,VSS*%
%TO.N,Net-(D29-Pad1)*%
X136180000Y-112590000D03*
%TO.P,D32,2,DOUT*%
%TO.N,Net-(D32-Pad2)*%
X131280000Y-112590000D03*
%TO.P,D32,1,VDD*%
%TO.N,Net-(D32-Pad1)*%
X131280000Y-109290000D03*
%TD*%
D15*
%TO.P,SW18,2,2*%
%TO.N,col3*%
X137710000Y-71000000D03*
X129750000Y-71000000D03*
%TO.P,SW18,1,1*%
%TO.N,row4*%
X137710000Y-75500000D03*
X129750000Y-75500000D03*
%TD*%
D16*
%TO.P,D25,4,DIN*%
%TO.N,Net-(D24-Pad2)*%
X136180000Y-94255000D03*
%TO.P,D25,3,VSS*%
%TO.N,Net-(D24-Pad1)*%
X136180000Y-97555000D03*
%TO.P,D25,2,DOUT*%
%TO.N,Net-(D25-Pad2)*%
X131280000Y-97555000D03*
%TO.P,D25,1,VDD*%
%TO.N,Net-(D25-Pad1)*%
X131280000Y-94255000D03*
%TD*%
D23*
%TO.P,U3,24,VCC*%
%TO.N,3VDC*%
X65610000Y-79375000D03*
%TO.P,U3,23,I8*%
%TO.N,main*%
X65610000Y-80645000D03*
%TO.P,U3,22,I9*%
%TO.N,unconnected-(U3-Pad22)*%
X65610000Y-81915000D03*
%TO.P,U3,21,I10*%
%TO.N,unconnected-(U3-Pad21)*%
X65610000Y-83185000D03*
%TO.P,U3,20,I11*%
%TO.N,unconnected-(U3-Pad20)*%
X65610000Y-84455000D03*
%TO.P,U3,19,I12*%
%TO.N,unconnected-(U3-Pad19)*%
X65610000Y-85725000D03*
%TO.P,U3,18,I13*%
%TO.N,unconnected-(U3-Pad18)*%
X65610000Y-86995000D03*
%TO.P,U3,17,I14*%
%TO.N,unconnected-(U3-Pad17)*%
X65610000Y-88265000D03*
%TO.P,U3,16,I15*%
%TO.N,unconnected-(U3-Pad16)*%
X65610000Y-89535000D03*
%TO.P,U3,15,~{E}*%
%TO.N,GND*%
X65610000Y-90805000D03*
%TO.P,U3,14,S2*%
%TO.N,MuxC3*%
X65610000Y-92075000D03*
%TO.P,U3,13,S3*%
%TO.N,MuxC4*%
X65610000Y-93345000D03*
%TO.P,U3,12,GND*%
%TO.N,GND*%
X56310000Y-93345000D03*
%TO.P,U3,11,S1*%
%TO.N,MuxC2*%
X56310000Y-92075000D03*
%TO.P,U3,10,S0*%
%TO.N,MuxC1*%
X56310000Y-90805000D03*
%TO.P,U3,9,I0*%
%TO.N,fp1*%
X56310000Y-89535000D03*
%TO.P,U3,8,I1*%
%TO.N,Ctrl1*%
X56310000Y-88265000D03*
%TO.P,U3,7,I2*%
%TO.N,Ctrl2*%
X56310000Y-86995000D03*
%TO.P,U3,6,I3*%
%TO.N,Ctrl3*%
X56310000Y-85725000D03*
%TO.P,U3,5,I4*%
%TO.N,Ctrl4*%
X56310000Y-84455000D03*
%TO.P,U3,4,I5*%
%TO.N,Ctrl5*%
X56310000Y-83185000D03*
%TO.P,U3,3,I6*%
%TO.N,Ctrl6*%
X56310000Y-81915000D03*
%TO.P,U3,2,I7*%
%TO.N,fp2*%
X56310000Y-80645000D03*
%TO.P,U3,1,COM*%
%TO.N,MRC*%
X56310000Y-79375000D03*
%TD*%
D16*
%TO.P,D38,4,DIN*%
%TO.N,Net-(D37-Pad2)*%
X122930000Y-124325000D03*
%TO.P,D38,3,VSS*%
%TO.N,Net-(D38-Pad3)*%
X122930000Y-127625000D03*
%TO.P,D38,2,DOUT*%
%TO.N,Net-(D38-Pad2)*%
X118030000Y-127625000D03*
%TO.P,D38,1,VDD*%
%TO.N,Net-(D35-Pad3)*%
X118030000Y-124325000D03*
%TD*%
%TO.P,D41,4,DIN*%
%TO.N,Net-(D40-Pad2)*%
X162680000Y-124325000D03*
%TO.P,D41,3,VSS*%
%TO.N,Net-(D32-Pad1)*%
X162680000Y-127625000D03*
%TO.P,D41,2,DOUT*%
%TO.N,Net-(D41-Pad2)*%
X157780000Y-127625000D03*
%TO.P,D41,1,VDD*%
%TO.N,Net-(D40-Pad3)*%
X157780000Y-124325000D03*
%TD*%
D15*
%TO.P,SW12,2,2*%
%TO.N,col2*%
X150960000Y-55965000D03*
X143000000Y-55965000D03*
%TO.P,SW12,1,1*%
%TO.N,row5*%
X150960000Y-60465000D03*
X143000000Y-60465000D03*
%TD*%
D16*
%TO.P,D14,4,DIN*%
%TO.N,Net-(D13-Pad2)*%
X175930000Y-64185000D03*
%TO.P,D14,3,VSS*%
%TO.N,Net-(D14-Pad3)*%
X175930000Y-67485000D03*
%TO.P,D14,2,DOUT*%
%TO.N,Net-(D14-Pad2)*%
X171030000Y-67485000D03*
%TO.P,D14,1,VDD*%
%TO.N,Net-(D11-Pad3)*%
X171030000Y-64185000D03*
%TD*%
D34*
%TO.N,Net-(D1-Pad2)*%
X91530000Y-50890000D02*
X91440000Y-50800000D01*
X91530000Y-52450000D02*
X91530000Y-50890000D01*
X91440000Y-50800000D02*
X96520000Y-50800000D01*
X109680000Y-49150000D02*
X108905000Y-48375000D01*
X108905000Y-48375000D02*
X98945000Y-48375000D01*
X98945000Y-48375000D02*
X96520000Y-50800000D01*
%TO.N,Net-(D4-Pad2)*%
X131280000Y-52450000D02*
X132930000Y-50800000D01*
X132930000Y-50800000D02*
X144780000Y-50800000D01*
X144780000Y-50800000D02*
X146430000Y-49150000D01*
X146430000Y-49150000D02*
X149430000Y-49150000D01*
%TO.N,Net-(D3-Pad2)*%
X118030000Y-52450000D02*
X118805000Y-53225000D01*
X118805000Y-53225000D02*
X127841396Y-53225000D01*
X127841396Y-53225000D02*
X131141396Y-49925000D01*
X131141396Y-49925000D02*
X135405000Y-49925000D01*
X135405000Y-49925000D02*
X136180000Y-49150000D01*
%TO.N,Net-(D2-Pad2)*%
X104780000Y-52450000D02*
X107305000Y-49925000D01*
X122155000Y-49925000D02*
X122930000Y-49150000D01*
X107305000Y-49925000D02*
X122155000Y-49925000D01*
%TO.N,Net-(D1-Pad3)*%
X96430000Y-52450000D02*
X101480000Y-52450000D01*
X101480000Y-52450000D02*
X104780000Y-49150000D01*
%TO.N,Net-(D6-Pad2)*%
X159430000Y-50800000D02*
X165100000Y-50800000D01*
X157780000Y-52450000D02*
X159430000Y-50800000D01*
X167525000Y-48375000D02*
X175155000Y-48375000D01*
X165100000Y-50800000D02*
X167525000Y-48375000D01*
X175155000Y-48375000D02*
X175930000Y-49150000D01*
%TO.N,Net-(D5-Pad2)*%
X144530000Y-52450000D02*
X146180000Y-50800000D01*
X146180000Y-50800000D02*
X154280000Y-50800000D01*
X154280000Y-50800000D02*
X156820000Y-48260000D01*
X156820000Y-48260000D02*
X161790000Y-48260000D01*
X161790000Y-48260000D02*
X162680000Y-49150000D01*
%TO.N,Net-(D6-Pad3)*%
X162680000Y-52450000D02*
X167730000Y-52450000D01*
X167730000Y-52450000D02*
X171030000Y-49150000D01*
%TO.N,Net-(D5-Pad3)*%
X149430000Y-52450000D02*
X154480000Y-52450000D01*
X154480000Y-52450000D02*
X157780000Y-49150000D01*
%TO.N,Net-(D3-Pad3)*%
X122930000Y-52450000D02*
X127980000Y-52450000D01*
X127980000Y-52450000D02*
X131280000Y-49150000D01*
%TO.N,GND*%
X35560000Y-26720000D02*
X35560000Y-25450000D01*
%TO.N,5VDC*%
X34167446Y-38100000D02*
X34167446Y-36952554D01*
X34167446Y-36952554D02*
X35560000Y-35560000D01*
X35560000Y-35560000D02*
X35560000Y-31750000D01*
%TO.N,GND*%
X93980000Y-22860000D02*
X96520000Y-22860000D01*
X93650000Y-25400000D02*
X93650000Y-23190000D01*
X93650000Y-23190000D02*
X93980000Y-22860000D01*
X93650000Y-22860000D02*
X99060000Y-22860000D01*
X99060000Y-22860000D02*
X106680000Y-22860000D01*
%TO.N,SCL*%
X20320000Y-78740000D02*
X20320000Y-60960000D01*
X50800000Y-99100000D02*
X40680000Y-99100000D01*
X40680000Y-99100000D02*
X20320000Y-78740000D01*
X20320000Y-60960000D02*
X21590000Y-59690000D01*
X21590000Y-59690000D02*
X25400000Y-59690000D01*
%TO.N,GND*%
X31667446Y-38100000D02*
X32085000Y-37682446D01*
X32085000Y-37682446D02*
X32085000Y-30195000D01*
X32085000Y-30195000D02*
X35560000Y-26720000D01*
%TO.N,Ctrl2*%
X56980000Y-114010000D02*
X64940000Y-114010000D01*
%TO.N,3VDC*%
X53630000Y-109510000D02*
X53340000Y-109220000D01*
X56980000Y-109510000D02*
X53630000Y-109510000D01*
X53340000Y-109220000D02*
X53340000Y-121490000D01*
X53340000Y-121490000D02*
X56600000Y-124750000D01*
%TO.N,Ctrl3*%
X64560000Y-129250000D02*
X56600000Y-129250000D01*
%TO.N,Ctrl5*%
X77300000Y-119196129D02*
X85260000Y-119196129D01*
%TO.N,Ctrl4*%
X77300000Y-129250000D02*
X85260000Y-129250000D01*
%TO.N,row2*%
X111210000Y-45430000D02*
X103250000Y-45430000D01*
%TO.N,row3*%
X124460000Y-45430000D02*
X116500000Y-45430000D01*
%TO.N,row4*%
X137710000Y-45430000D02*
X129750000Y-45430000D01*
%TO.N,row5*%
X150960000Y-45430000D02*
X143000000Y-45430000D01*
%TO.N,row6*%
X164210000Y-45430000D02*
X156250000Y-45430000D01*
%TO.N,row7*%
X177460000Y-45430000D02*
X169500000Y-45430000D01*
X169500000Y-60465000D02*
X177460000Y-60465000D01*
%TO.N,row6*%
X156250000Y-60465000D02*
X164210000Y-60465000D01*
%TO.N,row5*%
X143000000Y-60465000D02*
X150960000Y-60465000D01*
%TO.N,row4*%
X129750000Y-60465000D02*
X137710000Y-60465000D01*
%TO.N,row3*%
X116500000Y-60465000D02*
X124460000Y-60465000D01*
%TO.N,row2*%
X111265000Y-60465000D02*
X111760000Y-60960000D01*
X103250000Y-60465000D02*
X111265000Y-60465000D01*
%TO.N,row1*%
X90000000Y-60465000D02*
X97960000Y-60465000D01*
X97960000Y-75500000D02*
X90000000Y-75500000D01*
%TO.N,row2*%
X111210000Y-75500000D02*
X103250000Y-75500000D01*
%TO.N,row3*%
X124460000Y-75500000D02*
X116500000Y-75500000D01*
%TO.N,row4*%
X137710000Y-75500000D02*
X129750000Y-75500000D01*
%TO.N,row5*%
X150960000Y-75500000D02*
X143000000Y-75500000D01*
%TO.N,row6*%
X164210000Y-75500000D02*
X156250000Y-75500000D01*
%TO.N,row7*%
X177460000Y-75500000D02*
X169500000Y-75500000D01*
X169500000Y-90535000D02*
X177460000Y-90535000D01*
%TO.N,row6*%
X156250000Y-90535000D02*
X164210000Y-90535000D01*
%TO.N,row5*%
X143000000Y-90535000D02*
X150960000Y-90535000D01*
%TO.N,row4*%
X129750000Y-90535000D02*
X137710000Y-90535000D01*
%TO.N,row3*%
X116500000Y-90535000D02*
X124460000Y-90535000D01*
%TO.N,row2*%
X103250000Y-90535000D02*
X111210000Y-90535000D01*
%TO.N,row1*%
X90000000Y-90535000D02*
X97960000Y-90535000D01*
X97960000Y-105570000D02*
X90000000Y-105570000D01*
%TO.N,row2*%
X111210000Y-105570000D02*
X103250000Y-105570000D01*
%TO.N,row3*%
X124460000Y-105570000D02*
X116500000Y-105570000D01*
%TO.N,row4*%
X137710000Y-105570000D02*
X129750000Y-105570000D01*
%TO.N,row5*%
X150960000Y-105570000D02*
X143000000Y-105570000D01*
%TO.N,row6*%
X164210000Y-105570000D02*
X156250000Y-105570000D01*
%TO.N,row7*%
X177460000Y-105570000D02*
X169500000Y-105570000D01*
X169500000Y-120605000D02*
X177460000Y-120605000D01*
%TO.N,row6*%
X156250000Y-120605000D02*
X164210000Y-120605000D01*
%TO.N,row5*%
X143000000Y-120605000D02*
X150960000Y-120605000D01*
%TO.N,row4*%
X129750000Y-120605000D02*
X137710000Y-120605000D01*
%TO.N,row3*%
X116500000Y-120605000D02*
X124460000Y-120605000D01*
%TO.N,row2*%
X103250000Y-120605000D02*
X111210000Y-120605000D01*
%TO.N,row1*%
X90000000Y-120605000D02*
X97960000Y-120605000D01*
%TO.N,3VDC*%
X65610000Y-79375000D02*
X62435000Y-76200000D01*
X62435000Y-76200000D02*
X53300000Y-76200000D01*
X53300000Y-76200000D02*
X50760000Y-78740000D01*
%TO.N,main*%
X81280000Y-61605000D02*
X81163274Y-61605000D01*
X81163274Y-61605000D02*
X66960000Y-75808274D01*
X66960000Y-79721751D02*
X66036751Y-80645000D01*
X66960000Y-75808274D02*
X66960000Y-79721751D01*
X66036751Y-80645000D02*
X65610000Y-80645000D01*
%TO.N,GND*%
X88900000Y-30150000D02*
X93650000Y-25400000D01*
%TO.N,5VDC*%
X60960000Y-50800000D02*
X62085000Y-51925000D01*
X62085000Y-51925000D02*
X76015000Y-51925000D01*
X76015000Y-51925000D02*
X84760000Y-43180000D01*
%TO.N,MIDI_IN*%
X82220000Y-43180000D02*
X81095000Y-44305000D01*
X81095000Y-44305000D02*
X62375000Y-44305000D01*
X62375000Y-44305000D02*
X60960000Y-45720000D01*
%TO.N,Net-(J3-Pad5)*%
X93980000Y-35560000D02*
X93980000Y-32730000D01*
X93980000Y-32730000D02*
X93900000Y-32650000D01*
%TO.N,5VDC*%
X86320000Y-38100000D02*
X88900000Y-38100000D01*
X88900000Y-38100000D02*
X91440000Y-35560000D01*
X84760000Y-43180000D02*
X84760000Y-39660000D01*
X84760000Y-39660000D02*
X86320000Y-38100000D01*
%TO.N,3VDC*%
X78780000Y-61605000D02*
X73690000Y-56515000D01*
X73690000Y-56515000D02*
X65610000Y-56515000D01*
%TO.N,row1*%
X97960000Y-45430000D02*
X90000000Y-45430000D01*
%TO.N,3VDC*%
X64560000Y-124750000D02*
X56600000Y-124750000D01*
X77300000Y-124750000D02*
X85260000Y-124750000D01*
%TO.N,col6*%
X177460000Y-116105000D02*
X90000000Y-116105000D01*
%TO.N,col5*%
X90000000Y-101070000D02*
X177460000Y-101070000D01*
%TO.N,col4*%
X177460000Y-86035000D02*
X90000000Y-86035000D01*
%TO.N,col3*%
X90000000Y-71000000D02*
X177460000Y-71000000D01*
%TO.N,col2*%
X177460000Y-55965000D02*
X90000000Y-55965000D01*
%TO.N,col1*%
X164210000Y-40930000D02*
X177460000Y-40930000D01*
%TO.N,col2*%
X90000000Y-55965000D02*
X97960000Y-55965000D01*
%TO.N,col1*%
X90000000Y-40930000D02*
X163710000Y-40930000D01*
%TO.N,GND*%
X56310000Y-70485000D02*
X56310000Y-70690000D01*
X56310000Y-70690000D02*
X48260000Y-78740000D01*
X65610000Y-67945000D02*
X59276751Y-67945000D01*
X59276751Y-67945000D02*
X56736751Y-70485000D01*
X56736751Y-70485000D02*
X56310000Y-70485000D01*
%TO.N,3VDC*%
X65610000Y-56515000D02*
X64975000Y-55880000D01*
X64975000Y-55880000D02*
X50760000Y-55880000D01*
X77300000Y-99350000D02*
X64940000Y-99350000D01*
X56980000Y-99350000D02*
X64940000Y-99350000D01*
X56980000Y-109510000D02*
X58080000Y-108410000D01*
X58080000Y-108410000D02*
X58080000Y-100450000D01*
X58080000Y-100450000D02*
X56980000Y-99350000D01*
X64940000Y-109510000D02*
X72113871Y-109510000D01*
X72113871Y-109510000D02*
X77300000Y-114696129D01*
X56600000Y-124750000D02*
X56725000Y-124750000D01*
X77300000Y-124750000D02*
X64560000Y-124750000D01*
X85260000Y-114696129D02*
X77300000Y-114696129D01*
X77300000Y-99350000D02*
X85260000Y-99350000D01*
X77300000Y-114696129D02*
X78400000Y-113596129D01*
X78400000Y-113596129D02*
X78400000Y-100450000D01*
X78400000Y-100450000D02*
X77300000Y-99350000D01*
X77300000Y-99350000D02*
X77300000Y-92685000D01*
X77300000Y-92685000D02*
X78780000Y-91205000D01*
%TO.N,GND*%
X83780000Y-88940000D02*
X83780000Y-76405000D01*
X83780000Y-91205000D02*
X83780000Y-88940000D01*
X76730000Y-90805000D02*
X65610000Y-90805000D01*
X83780000Y-88940000D02*
X78595000Y-88940000D01*
X78595000Y-88940000D02*
X76730000Y-90805000D01*
X56310000Y-93345000D02*
X56736751Y-93345000D01*
X59276751Y-90805000D02*
X65610000Y-90805000D01*
X56736751Y-93345000D02*
X59276751Y-90805000D01*
X50800000Y-94100000D02*
X55555000Y-94100000D01*
X55555000Y-94100000D02*
X56310000Y-93345000D01*
X50800000Y-94100000D02*
X50800000Y-81280000D01*
X50800000Y-81280000D02*
X48260000Y-78740000D01*
X40640000Y-77470000D02*
X41910000Y-78740000D01*
X41910000Y-78740000D02*
X48260000Y-78740000D01*
X83820000Y-38100000D02*
X83820000Y-35230000D01*
X83820000Y-35230000D02*
X88900000Y-30150000D01*
X55880000Y-38100000D02*
X55880000Y-30060000D01*
X63830000Y-27940000D02*
X66040000Y-30150000D01*
X55880000Y-30060000D02*
X58000000Y-27940000D01*
X58000000Y-27940000D02*
X63830000Y-27940000D01*
%TO.N,5VDC*%
X34167446Y-38100000D02*
X34167446Y-68702554D01*
X34167446Y-68702554D02*
X25400000Y-77470000D01*
%TO.N,GND*%
X33020000Y-44450000D02*
X33020000Y-39452554D01*
X33020000Y-39452554D02*
X31667446Y-38100000D01*
X55880000Y-38100000D02*
X60960000Y-43180000D01*
X83780000Y-76405000D02*
X83780000Y-61605000D01*
%TO.N,*%
X172080000Y-30760000D02*
X170080000Y-28760000D01*
X159380000Y-30760000D02*
X157380000Y-28760000D01*
X131980000Y-28760000D02*
X131980000Y-24085000D01*
X133980000Y-30760000D02*
X131980000Y-28760000D01*
X144680000Y-28760000D02*
X144680000Y-24085000D01*
X106680000Y-28760000D02*
X106680000Y-24085000D01*
X108680000Y-30760000D02*
X106680000Y-28760000D01*
X119280000Y-28760000D02*
X119280000Y-24085000D01*
X146680000Y-30760000D02*
X144680000Y-28760000D01*
X170080000Y-28760000D02*
X170080000Y-24085000D01*
X157380000Y-28760000D02*
X157380000Y-24085000D01*
X121280000Y-30760000D02*
X119280000Y-28760000D01*
%TO.N,GND*%
X144680000Y-22860000D02*
X131980000Y-22860000D01*
X88900000Y-30150000D02*
X87525000Y-28775000D01*
X131980000Y-22860000D02*
X119280000Y-22860000D01*
X170080000Y-22860000D02*
X157380000Y-22860000D01*
X67415000Y-28775000D02*
X66040000Y-30150000D01*
X106680000Y-22860000D02*
X119280000Y-22860000D01*
X87525000Y-28775000D02*
X67415000Y-28775000D01*
X157380000Y-22860000D02*
X144680000Y-22860000D01*
%TD*%
M02*
