%TF.GenerationSoftware,KiCad,Pcbnew,(6.0.11-0)*%
%TF.CreationDate,2025-03-26T21:45:14-05:00*%
%TF.ProjectId,btnBRD,62746e42-5244-42e6-9b69-6361645f7063,rev?*%
%TF.SameCoordinates,Original*%
%TF.FileFunction,Paste,Top*%
%TF.FilePolarity,Positive*%
%FSLAX46Y46*%
G04 Gerber Fmt 4.6, Leading zero omitted, Abs format (unit mm)*
G04 Created by KiCad (PCBNEW (6.0.11-0)) date 2025-03-26 21:45:14*
%MOMM*%
%LPD*%
G01*
G04 APERTURE LIST*
G04 Aperture macros list*
%AMRoundRect*
0 Rectangle with rounded corners*
0 $1 Rounding radius*
0 $2 $3 $4 $5 $6 $7 $8 $9 X,Y pos of 4 corners*
0 Add a 4 corners polygon primitive as box body*
4,1,4,$2,$3,$4,$5,$6,$7,$8,$9,$2,$3,0*
0 Add four circle primitives for the rounded corners*
1,1,$1+$1,$2,$3*
1,1,$1+$1,$4,$5*
1,1,$1+$1,$6,$7*
1,1,$1+$1,$8,$9*
0 Add four rect primitives between the rounded corners*
20,1,$1+$1,$2,$3,$4,$5,0*
20,1,$1+$1,$4,$5,$6,$7,0*
20,1,$1+$1,$6,$7,$8,$9,0*
20,1,$1+$1,$8,$9,$2,$3,0*%
G04 Aperture macros list end*
%ADD10R,1.550000X1.300000*%
%ADD11R,1.500000X0.900000*%
%ADD12RoundRect,0.150000X-0.875000X-0.150000X0.875000X-0.150000X0.875000X0.150000X-0.875000X0.150000X0*%
%ADD13R,1.000000X0.200000*%
%ADD14R,1.100000X0.200000*%
G04 APERTURE END LIST*
D10*
%TO.C,SW17*%
X116500000Y-71000000D03*
X124460000Y-71000000D03*
X124460000Y-75500000D03*
X116500000Y-75500000D03*
%TD*%
D11*
%TO.C,D8*%
X96430000Y-64185000D03*
X96430000Y-67485000D03*
X91530000Y-67485000D03*
X91530000Y-64185000D03*
%TD*%
D10*
%TO.C,SW16*%
X103250000Y-71000000D03*
X111210000Y-71000000D03*
X103250000Y-75500000D03*
X111210000Y-75500000D03*
%TD*%
D11*
%TO.C,D10*%
X122930000Y-64185000D03*
X122930000Y-67485000D03*
X118030000Y-67485000D03*
X118030000Y-64185000D03*
%TD*%
D10*
%TO.C,SW22*%
X90000000Y-86035000D03*
X97960000Y-86035000D03*
X97960000Y-90535000D03*
X90000000Y-90535000D03*
%TD*%
%TO.C,SW24*%
X116500000Y-86035000D03*
X124460000Y-86035000D03*
X124460000Y-90535000D03*
X116500000Y-90535000D03*
%TD*%
D11*
%TO.C,D11*%
X136180000Y-64185000D03*
X136180000Y-67485000D03*
X131280000Y-67485000D03*
X131280000Y-64185000D03*
%TD*%
D10*
%TO.C,SW42*%
X177460000Y-116105000D03*
X169500000Y-116105000D03*
X177460000Y-120605000D03*
X169500000Y-120605000D03*
%TD*%
%TO.C,SW34*%
X156250000Y-101070000D03*
X164210000Y-101070000D03*
X164210000Y-105570000D03*
X156250000Y-105570000D03*
%TD*%
D11*
%TO.C,D37*%
X109680000Y-124325000D03*
X109680000Y-127625000D03*
X104780000Y-127625000D03*
X104780000Y-124325000D03*
%TD*%
D10*
%TO.C,SW35*%
X169500000Y-101070000D03*
X177460000Y-101070000D03*
X169500000Y-105570000D03*
X177460000Y-105570000D03*
%TD*%
D11*
%TO.C,D40*%
X149430000Y-124325000D03*
X149430000Y-127625000D03*
X144530000Y-127625000D03*
X144530000Y-124325000D03*
%TD*%
%TO.C,D3*%
X122930000Y-49150000D03*
X122930000Y-52450000D03*
X118030000Y-52450000D03*
X118030000Y-49150000D03*
%TD*%
%TO.C,D28*%
X175930000Y-94255000D03*
X175930000Y-97555000D03*
X171030000Y-97555000D03*
X171030000Y-94255000D03*
%TD*%
D10*
%TO.C,SW21*%
X177460000Y-71000000D03*
X169500000Y-71000000D03*
X177460000Y-75500000D03*
X169500000Y-75500000D03*
%TD*%
%TO.C,SW10*%
X116500000Y-55965000D03*
X124460000Y-55965000D03*
X124460000Y-60465000D03*
X116500000Y-60465000D03*
%TD*%
%TO.C,SW47*%
X85260000Y-114696129D03*
X77300000Y-114696129D03*
X77300000Y-119196129D03*
X85260000Y-119196129D03*
%TD*%
%TO.C,SW33*%
X150960000Y-101070000D03*
X143000000Y-101070000D03*
X150960000Y-105570000D03*
X143000000Y-105570000D03*
%TD*%
D11*
%TO.C,D4*%
X136180000Y-49150000D03*
X136180000Y-52450000D03*
X131280000Y-52450000D03*
X131280000Y-49150000D03*
%TD*%
%TO.C,D19*%
X149430000Y-79220000D03*
X149430000Y-82520000D03*
X144530000Y-82520000D03*
X144530000Y-79220000D03*
%TD*%
D10*
%TO.C,SW40*%
X143000000Y-116105000D03*
X150960000Y-116105000D03*
X150960000Y-120605000D03*
X143000000Y-120605000D03*
%TD*%
D11*
%TO.C,D29*%
X96430000Y-109290000D03*
X96430000Y-112590000D03*
X91530000Y-112590000D03*
X91530000Y-109290000D03*
%TD*%
D10*
%TO.C,SW4*%
X137710000Y-40930000D03*
X129750000Y-40930000D03*
X137710000Y-45430000D03*
X129750000Y-45430000D03*
%TD*%
%TO.C,SW19*%
X143000000Y-71000000D03*
X150960000Y-71000000D03*
X143000000Y-75500000D03*
X150960000Y-75500000D03*
%TD*%
D12*
%TO.C,U2*%
X65610000Y-56515000D03*
X65610000Y-57785000D03*
X65610000Y-59055000D03*
X65610000Y-60325000D03*
X65610000Y-61595000D03*
X65610000Y-62865000D03*
X65610000Y-64135000D03*
X65610000Y-65405000D03*
X65610000Y-66675000D03*
X65610000Y-67945000D03*
X65610000Y-69215000D03*
X65610000Y-70485000D03*
X56310000Y-70485000D03*
X56310000Y-69215000D03*
X56310000Y-67945000D03*
X56310000Y-66675000D03*
X56310000Y-65405000D03*
X56310000Y-64135000D03*
X56310000Y-62865000D03*
X56310000Y-61595000D03*
X56310000Y-60325000D03*
X56310000Y-59055000D03*
X56310000Y-57785000D03*
X56310000Y-56515000D03*
%TD*%
D11*
%TO.C,D17*%
X122930000Y-79220000D03*
X122930000Y-82520000D03*
X118030000Y-82520000D03*
X118030000Y-79220000D03*
%TD*%
D10*
%TO.C,SW2*%
X111210000Y-40930000D03*
X103250000Y-40930000D03*
X103250000Y-45430000D03*
X111210000Y-45430000D03*
%TD*%
%TO.C,SW28*%
X169500000Y-86035000D03*
X177460000Y-86035000D03*
X169500000Y-90535000D03*
X177460000Y-90535000D03*
%TD*%
%TO.C,SW1*%
X97960000Y-40930000D03*
X90000000Y-40930000D03*
X90000000Y-45430000D03*
X97960000Y-45430000D03*
%TD*%
%TO.C,SW38*%
X124460000Y-116105000D03*
X116500000Y-116105000D03*
X116500000Y-120605000D03*
X124460000Y-120605000D03*
%TD*%
%TO.C,SW27*%
X156250000Y-86035000D03*
X164210000Y-86035000D03*
X156250000Y-90535000D03*
X164210000Y-90535000D03*
%TD*%
%TO.C,SW41*%
X156250000Y-116105000D03*
X164210000Y-116105000D03*
X156250000Y-120605000D03*
X164210000Y-120605000D03*
%TD*%
%TO.C,SW9*%
X103250000Y-55965000D03*
X111210000Y-55965000D03*
X103250000Y-60465000D03*
X111210000Y-60465000D03*
%TD*%
D11*
%TO.C,D15*%
X96430000Y-79220000D03*
X96430000Y-82520000D03*
X91530000Y-82520000D03*
X91530000Y-79220000D03*
%TD*%
D10*
%TO.C,SW20*%
X164210000Y-71000000D03*
X156250000Y-71000000D03*
X164210000Y-75500000D03*
X156250000Y-75500000D03*
%TD*%
D11*
%TO.C,D42*%
X175930000Y-124325000D03*
X175930000Y-127625000D03*
X171030000Y-127625000D03*
X171030000Y-124325000D03*
%TD*%
%TO.C,D1*%
X96430000Y-49150000D03*
X96430000Y-52450000D03*
X91530000Y-52450000D03*
X91530000Y-49150000D03*
%TD*%
%TO.C,D16*%
X109680000Y-79220000D03*
X109680000Y-82520000D03*
X104780000Y-82520000D03*
X104780000Y-79220000D03*
%TD*%
%TO.C,D20*%
X162680000Y-79220000D03*
X162680000Y-82520000D03*
X157780000Y-82520000D03*
X157780000Y-79220000D03*
%TD*%
D10*
%TO.C,SW30*%
X103250000Y-101070000D03*
X111210000Y-101070000D03*
X103250000Y-105570000D03*
X111210000Y-105570000D03*
%TD*%
%TO.C,SW29*%
X90000000Y-101070000D03*
X97960000Y-101070000D03*
X97960000Y-105570000D03*
X90000000Y-105570000D03*
%TD*%
%TO.C,SW6*%
X156250000Y-40930000D03*
X164210000Y-40930000D03*
X156250000Y-45430000D03*
X164210000Y-45430000D03*
%TD*%
%TO.C,SW26*%
X143000000Y-86035000D03*
X150960000Y-86035000D03*
X143000000Y-90535000D03*
X150960000Y-90535000D03*
%TD*%
D11*
%TO.C,D23*%
X109680000Y-94255000D03*
X109680000Y-97555000D03*
X104780000Y-97555000D03*
X104780000Y-94255000D03*
%TD*%
D10*
%TO.C,SW11*%
X129750000Y-55965000D03*
X137710000Y-55965000D03*
X129750000Y-60465000D03*
X137710000Y-60465000D03*
%TD*%
%TO.C,SW48*%
X85260000Y-99350000D03*
X77300000Y-99350000D03*
X85260000Y-103850000D03*
X77300000Y-103850000D03*
%TD*%
D11*
%TO.C,D2*%
X109680000Y-49150000D03*
X109680000Y-52450000D03*
X104780000Y-52450000D03*
X104780000Y-49150000D03*
%TD*%
D10*
%TO.C,SW43*%
X64940000Y-99350000D03*
X56980000Y-99350000D03*
X64940000Y-103850000D03*
X56980000Y-103850000D03*
%TD*%
D11*
%TO.C,D27*%
X162680000Y-94255000D03*
X162680000Y-97555000D03*
X157780000Y-97555000D03*
X157780000Y-94255000D03*
%TD*%
D10*
%TO.C,SW3*%
X124460000Y-40930000D03*
X116500000Y-40930000D03*
X116500000Y-45430000D03*
X124460000Y-45430000D03*
%TD*%
%TO.C,SW23*%
X111210000Y-86035000D03*
X103250000Y-86035000D03*
X111210000Y-90535000D03*
X103250000Y-90535000D03*
%TD*%
D11*
%TO.C,D39*%
X136180000Y-124325000D03*
X136180000Y-127625000D03*
X131280000Y-127625000D03*
X131280000Y-124325000D03*
%TD*%
%TO.C,D12*%
X149430000Y-64185000D03*
X149430000Y-67485000D03*
X144530000Y-67485000D03*
X144530000Y-64185000D03*
%TD*%
D10*
%TO.C,SW25*%
X129750000Y-86035000D03*
X137710000Y-86035000D03*
X137710000Y-90535000D03*
X129750000Y-90535000D03*
%TD*%
D11*
%TO.C,D36*%
X96430000Y-124325000D03*
X96430000Y-127625000D03*
X91530000Y-127625000D03*
X91530000Y-124325000D03*
%TD*%
%TO.C,D31*%
X122930000Y-109290000D03*
X122930000Y-112590000D03*
X118030000Y-112590000D03*
X118030000Y-109290000D03*
%TD*%
%TO.C,D26*%
X149430000Y-94255000D03*
X149430000Y-97555000D03*
X144530000Y-97555000D03*
X144530000Y-94255000D03*
%TD*%
D10*
%TO.C,SW44*%
X56980000Y-109510000D03*
X64940000Y-109510000D03*
X64940000Y-114010000D03*
X56980000Y-114010000D03*
%TD*%
D11*
%TO.C,D30*%
X109680000Y-109290000D03*
X109680000Y-112590000D03*
X104780000Y-112590000D03*
X104780000Y-109290000D03*
%TD*%
%TO.C,D24*%
X122930000Y-94255000D03*
X122930000Y-97555000D03*
X118030000Y-97555000D03*
X118030000Y-94255000D03*
%TD*%
D10*
%TO.C,SW37*%
X111210000Y-116105000D03*
X103250000Y-116105000D03*
X103250000Y-120605000D03*
X111210000Y-120605000D03*
%TD*%
%TO.C,SW36*%
X97960000Y-116105000D03*
X90000000Y-116105000D03*
X97960000Y-120605000D03*
X90000000Y-120605000D03*
%TD*%
D11*
%TO.C,D33*%
X149430000Y-109290000D03*
X149430000Y-112590000D03*
X144530000Y-112590000D03*
X144530000Y-109290000D03*
%TD*%
D10*
%TO.C,SW32*%
X137710000Y-101070000D03*
X129750000Y-101070000D03*
X137710000Y-105570000D03*
X129750000Y-105570000D03*
%TD*%
D11*
%TO.C,D6*%
X162680000Y-49150000D03*
X162680000Y-52450000D03*
X157780000Y-52450000D03*
X157780000Y-49150000D03*
%TD*%
D10*
%TO.C,SW45*%
X56600000Y-124750000D03*
X64560000Y-124750000D03*
X56600000Y-129250000D03*
X64560000Y-129250000D03*
%TD*%
%TO.C,SW15*%
X90000000Y-71000000D03*
X97960000Y-71000000D03*
X97960000Y-75500000D03*
X90000000Y-75500000D03*
%TD*%
%TO.C,SW7*%
X177460000Y-40930000D03*
X169500000Y-40930000D03*
X177460000Y-45430000D03*
X169500000Y-45430000D03*
%TD*%
D11*
%TO.C,D7*%
X175930000Y-49150000D03*
X175930000Y-52450000D03*
X171030000Y-52450000D03*
X171030000Y-49150000D03*
%TD*%
D13*
%TO.C,U4*%
X51700000Y-43920000D03*
X51700000Y-44320000D03*
X51700000Y-44720000D03*
X51700000Y-45120000D03*
X51700000Y-45520000D03*
X51700000Y-45920000D03*
X51700000Y-46320000D03*
X51700000Y-46720000D03*
X51700000Y-47120000D03*
X51700000Y-47520000D03*
X49900000Y-47520000D03*
X49900000Y-47120000D03*
X49900000Y-46720000D03*
X49900000Y-46320000D03*
X49900000Y-45920000D03*
X49900000Y-45520000D03*
X49900000Y-45120000D03*
X49900000Y-44720000D03*
X49900000Y-44320000D03*
D14*
X49950000Y-43920000D03*
%TD*%
D10*
%TO.C,SW39*%
X129750000Y-116105000D03*
X137710000Y-116105000D03*
X129750000Y-120605000D03*
X137710000Y-120605000D03*
%TD*%
%TO.C,SW46*%
X85260000Y-124750000D03*
X77300000Y-124750000D03*
X85260000Y-129250000D03*
X77300000Y-129250000D03*
%TD*%
D11*
%TO.C,D18*%
X136180000Y-79220000D03*
X136180000Y-82520000D03*
X131280000Y-82520000D03*
X131280000Y-79220000D03*
%TD*%
D10*
%TO.C,SW14*%
X177460000Y-55965000D03*
X169500000Y-55965000D03*
X177460000Y-60465000D03*
X169500000Y-60465000D03*
%TD*%
D11*
%TO.C,D21*%
X175930000Y-79220000D03*
X175930000Y-82520000D03*
X171030000Y-82520000D03*
X171030000Y-79220000D03*
%TD*%
%TO.C,D34*%
X162680000Y-109290000D03*
X162680000Y-112590000D03*
X157780000Y-112590000D03*
X157780000Y-109290000D03*
%TD*%
%TO.C,D35*%
X175930000Y-109290000D03*
X175930000Y-112590000D03*
X171030000Y-112590000D03*
X171030000Y-109290000D03*
%TD*%
D10*
%TO.C,SW31*%
X124460000Y-101070000D03*
X116500000Y-101070000D03*
X116500000Y-105570000D03*
X124460000Y-105570000D03*
%TD*%
D11*
%TO.C,D5*%
X149430000Y-49150000D03*
X149430000Y-52450000D03*
X144530000Y-52450000D03*
X144530000Y-49150000D03*
%TD*%
%TO.C,D22*%
X96430000Y-94255000D03*
X96430000Y-97555000D03*
X91530000Y-97555000D03*
X91530000Y-94255000D03*
%TD*%
D10*
%TO.C,SW8*%
X97960000Y-55965000D03*
X90000000Y-55965000D03*
X97960000Y-60465000D03*
X90000000Y-60465000D03*
%TD*%
%TO.C,SW13*%
X164210000Y-55965000D03*
X156250000Y-55965000D03*
X164210000Y-60465000D03*
X156250000Y-60465000D03*
%TD*%
D11*
%TO.C,D9*%
X109680000Y-64185000D03*
X109680000Y-67485000D03*
X104780000Y-67485000D03*
X104780000Y-64185000D03*
%TD*%
%TO.C,D13*%
X162680000Y-64185000D03*
X162680000Y-67485000D03*
X157780000Y-67485000D03*
X157780000Y-64185000D03*
%TD*%
D10*
%TO.C,SW5*%
X150960000Y-40930000D03*
X143000000Y-40930000D03*
X143000000Y-45430000D03*
X150960000Y-45430000D03*
%TD*%
D11*
%TO.C,D32*%
X136180000Y-109290000D03*
X136180000Y-112590000D03*
X131280000Y-112590000D03*
X131280000Y-109290000D03*
%TD*%
D10*
%TO.C,SW18*%
X137710000Y-71000000D03*
X129750000Y-71000000D03*
X137710000Y-75500000D03*
X129750000Y-75500000D03*
%TD*%
D11*
%TO.C,D25*%
X136180000Y-94255000D03*
X136180000Y-97555000D03*
X131280000Y-97555000D03*
X131280000Y-94255000D03*
%TD*%
D12*
%TO.C,U3*%
X65610000Y-79375000D03*
X65610000Y-80645000D03*
X65610000Y-81915000D03*
X65610000Y-83185000D03*
X65610000Y-84455000D03*
X65610000Y-85725000D03*
X65610000Y-86995000D03*
X65610000Y-88265000D03*
X65610000Y-89535000D03*
X65610000Y-90805000D03*
X65610000Y-92075000D03*
X65610000Y-93345000D03*
X56310000Y-93345000D03*
X56310000Y-92075000D03*
X56310000Y-90805000D03*
X56310000Y-89535000D03*
X56310000Y-88265000D03*
X56310000Y-86995000D03*
X56310000Y-85725000D03*
X56310000Y-84455000D03*
X56310000Y-83185000D03*
X56310000Y-81915000D03*
X56310000Y-80645000D03*
X56310000Y-79375000D03*
%TD*%
D11*
%TO.C,D38*%
X122930000Y-124325000D03*
X122930000Y-127625000D03*
X118030000Y-127625000D03*
X118030000Y-124325000D03*
%TD*%
%TO.C,D41*%
X162680000Y-124325000D03*
X162680000Y-127625000D03*
X157780000Y-127625000D03*
X157780000Y-124325000D03*
%TD*%
D10*
%TO.C,SW12*%
X150960000Y-55965000D03*
X143000000Y-55965000D03*
X150960000Y-60465000D03*
X143000000Y-60465000D03*
%TD*%
D11*
%TO.C,D14*%
X175930000Y-64185000D03*
X175930000Y-67485000D03*
X171030000Y-67485000D03*
X171030000Y-64185000D03*
%TD*%
M02*
