;TYPE=PLATED
;Layer: PTH_Through_Via
;EasyEDA Pro v2.2.35.2, 2025-01-22 11:24:47
;Gerber Generator version 0.3
M48
METRIC,LZ,0000.00000
;Hole size 1 = 0.30500 METRIC
T01C0.30500
%
G05
G90
T01
X227.86Y-36.195
X206.756Y-81.788
X98.498Y-60.154
X91.823Y-60.112
X73.498Y-60.154
X54.631Y-56.81
X105.102Y-69.552
X54.702Y-79.712
X155.61Y-102.852
X168.056Y-106.154
X229.028Y-61.214
X159.928Y-107.17
X54.269Y-145.368
X93.855Y-37.112
X54.631Y-33.81
X205.102Y-76.296
X53.975Y-108.678
X187.749Y-86.106
X126.281Y-89.662
X110.725Y-85.118
X113.519Y-97.564
X105.655Y-92.00433
X105.893Y-94.52833
X112.227Y-99.60833
X95.717Y-116.11833
X85.049Y-123.99233
X127.467Y-90.22633
X193.21867Y-91.97
X130.645Y-91.722
X130.899Y-95.024
X131.451Y-96.485
X112.147Y-85.817
X119.977Y-103.318
X122.771Y-103.572
X131.407Y-104.588
X132.677Y-99.762
X150.231Y-95.215
X164.709Y-85.309
X193.157Y-85.817
X145.241Y-102.96
X145.085Y-100.814
X128.269Y-61.382
X167.545Y-89.752
X193.707Y-91.276
X170.085Y-91.143
X170.6425Y-95.7625
X168.961Y-93.894
X175.869Y-97.282
X187.8225Y-93.9045
X192.1405Y-93.64488
X193.3625Y-92.992
X193.8705Y-96.294
X194.6325Y-96.18488
X214.6985Y-92.62888
X216.255Y-87.906
X103.578Y-75.59
X98.855Y-84.89
X103.324Y-99.098
X96.823Y-109.414
X101.546Y-124.638
X98.601Y-131.398
X101.546Y-147.638
X127.454Y-74.487
X126.546Y-147.638
X143.056Y-36.961
X153.578Y-51.487
X127.708Y-79.313
X153.324Y-122.098
X147.52Y-148.313
X175.379Y-104.588
X177.665Y-102.302
X79.594Y-99.606
X79.702Y-145.352
X55.372Y-126.686
X237.537Y-47.07
X59.246Y-76.098
X57.214Y-77.876
X56.09Y-103.5
X57.36Y-93.848
X56.09Y-57.018
X56.09Y-54.224
X56.852Y-96.926
X56.09Y-126.39
M30