G04 Layer: BottomLayer*
G04 EasyEDA Pro v2.2.35.2, 2025-01-22 11:24:46*
G04 Gerber Generator version 0.3*
G04 Scale: 100 percent, Rotated: No, Reflected: No*
G04 Dimensions in millimeters*
G04 Leading zeros omitted, absolute positions, 4 integers and 5 decimals*
%FSLAX45Y45*%
%MOMM*%
%AMRoundRect*1,1,$1,$2,$3*1,1,$1,$4,$5*1,1,$1,0-$2,0-$3*1,1,$1,0-$4,0-$5*20,1,$1,$2,$3,$4,$5,0*20,1,$1,$4,$5,0-$2,0-$3,0*20,1,$1,0-$2,0-$3,0-$4,0-$5,0*20,1,$1,0-$4,0-$5,$2,$3,0*4,1,4,$2,$3,$4,$5,0-$2,0-$3,0-$4,0-$5,$2,$3,0*%
%ADD10R,1.8X1.8*%
%ADD11C,1.8*%
%ADD12RoundRect,1.5X-0.75X-1.25X-0.75X1.25*%
%ADD13R,0.85X0.85*%
%ADD14C,0.85*%
%ADD15C,1.6*%
%ADD16C,1.7031*%
%ADD17C,1.7*%
%ADD18R,1.7X1.7*%
%ADD19R,0.85X0.85*%
%ADD20C,0.61*%
%ADD21C,0.254*%
G75*


G04 Pad Start*
G54D10*
G01X14258500Y-8438200D03*
G54D11*
G01X14508500Y-8438200D03*
G01X14758500Y-8438200D03*
G54D12*
G01X14948500Y-7738200D03*
G01X14068500Y-7738200D03*
G54D10*
G01X19258500Y-10738200D03*
G54D11*
G01X19508500Y-10738200D03*
G01X19758500Y-10738200D03*
G54D12*
G01X19948500Y-10038200D03*
G01X19068500Y-10038200D03*
G54D10*
G01X9258500Y-3838200D03*
G54D11*
G01X9508500Y-3838200D03*
G01X9758500Y-3838200D03*
G54D12*
G01X9948500Y-3138200D03*
G01X9068500Y-3138200D03*
G54D10*
G01X11758500Y-10738200D03*
G54D11*
G01X12008500Y-10738200D03*
G01X12258500Y-10738200D03*
G54D12*
G01X12448500Y-10038200D03*
G01X11568500Y-10038200D03*
G54D10*
G01X6758500Y-3838200D03*
G54D11*
G01X7008500Y-3838200D03*
G01X7258500Y-3838200D03*
G54D12*
G01X7448500Y-3138200D03*
G01X6568500Y-3138200D03*
G54D10*
G01X4258500Y-3838200D03*
G54D11*
G01X4508500Y-3838200D03*
G01X4758500Y-3838200D03*
G54D12*
G01X4948500Y-3138200D03*
G01X4068500Y-3138200D03*
G54D13*
G01X10973500Y-9808433D03*
G54D14*
G01X10973500Y-9708433D03*
G01X11073500Y-9808433D03*
G01X11073500Y-9708433D03*
G01X11173500Y-9808433D03*
G01X11173500Y-9708433D03*
G01X11273500Y-9808433D03*
G01X11273500Y-9708433D03*
G54D10*
G01X11758500Y-8438200D03*
G54D11*
G01X12008500Y-8438200D03*
G01X12258500Y-8438200D03*
G54D12*
G01X12448500Y-7738200D03*
G01X11568500Y-7738200D03*
G54D10*
G01X16758500Y-15338200D03*
G54D11*
G01X17008500Y-15338200D03*
G01X17258500Y-15338200D03*
G54D12*
G01X17448500Y-14638200D03*
G01X16568500Y-14638200D03*
G54D10*
G01X16758500Y-13038200D03*
G54D11*
G01X17008500Y-13038200D03*
G01X17258500Y-13038200D03*
G54D12*
G01X17448500Y-12338200D03*
G01X16568500Y-12338200D03*
G54D10*
G01X4258500Y-15338200D03*
G54D11*
G01X4508500Y-15338200D03*
G01X4758500Y-15338200D03*
G54D12*
G01X4948500Y-14638200D03*
G01X4068500Y-14638200D03*
G54D15*
G01X22682200Y-6400800D03*
G01X23182200Y-6400800D03*
G54D10*
G01X4258500Y-8438200D03*
G54D11*
G01X4508500Y-8438200D03*
G01X4758500Y-8438200D03*
G54D12*
G01X4948500Y-7738200D03*
G01X4068500Y-7738200D03*
G54D15*
G01X23152100Y-5397500D03*
G01X23152100Y-4889500D03*
G54D10*
G01X6758500Y-13038200D03*
G54D11*
G01X7008500Y-13038200D03*
G01X7258500Y-13038200D03*
G54D12*
G01X7448500Y-12338200D03*
G01X6568500Y-12338200D03*
G54D10*
G01X16758500Y-3838200D03*
G54D11*
G01X17008500Y-3838200D03*
G01X17258500Y-3838200D03*
G54D12*
G01X17448500Y-3138200D03*
G01X16568500Y-3138200D03*
G54D17*
G01X24152500Y-9146200D03*
G54D18*
G01X24152500Y-8496200D03*
G54D17*
G01X23702500Y-8496200D03*
G01X23702500Y-9146200D03*
G54D13*
G01X14930500Y-9837200D03*
G54D14*
G01X14930500Y-9737200D03*
G01X15030500Y-9837200D03*
G01X15030500Y-9737200D03*
G01X15130500Y-9837200D03*
G01X15130500Y-9737200D03*
G01X15230500Y-9837200D03*
G01X15230500Y-9737200D03*
G54D10*
G01X9258500Y-10738200D03*
G54D11*
G01X9508500Y-10738200D03*
G01X9758500Y-10738200D03*
G54D12*
G01X9948500Y-10038200D03*
G01X9068500Y-10038200D03*
G54D10*
G01X4258500Y-6138200D03*
G54D11*
G01X4508500Y-6138200D03*
G01X4758500Y-6138200D03*
G54D12*
G01X4948500Y-5438200D03*
G01X4068500Y-5438200D03*
G54D15*
G01X22186900Y-5080000D03*
G01X22694900Y-5080000D03*
G54D10*
G01X16758500Y-8438200D03*
G54D11*
G01X17008500Y-8438200D03*
G01X17258500Y-8438200D03*
G54D12*
G01X17448500Y-7738200D03*
G01X16568500Y-7738200D03*
G54D10*
G01X19258500Y-3838200D03*
G54D11*
G01X19508500Y-3838200D03*
G01X19758500Y-3838200D03*
G54D12*
G01X19948500Y-3138200D03*
G01X19068500Y-3138200D03*
G54D10*
G01X14258500Y-15338200D03*
G54D11*
G01X14508500Y-15338200D03*
G01X14758500Y-15338200D03*
G54D12*
G01X14948500Y-14638200D03*
G01X14068500Y-14638200D03*
G54D10*
G01X11758500Y-15338200D03*
G54D11*
G01X12008500Y-15338200D03*
G01X12258500Y-15338200D03*
G54D12*
G01X12448500Y-14638200D03*
G01X11568500Y-14638200D03*
G54D10*
G01X11758500Y-3838200D03*
G54D11*
G01X12008500Y-3838200D03*
G01X12258500Y-3838200D03*
G54D12*
G01X12448500Y-3138200D03*
G01X11568500Y-3138200D03*
G54D17*
G01X23114000Y-9146200D03*
G54D18*
G01X23114000Y-8496200D03*
G54D17*
G01X22664000Y-8496200D03*
G01X22664000Y-9146200D03*
G54D13*
G01X12970500Y-9824700D03*
G54D14*
G01X12970500Y-9724700D03*
G01X13070500Y-9824700D03*
G01X13070500Y-9724700D03*
G01X13170500Y-9824700D03*
G01X13170500Y-9724700D03*
G01X13270500Y-9824700D03*
G01X13270500Y-9724700D03*
G54D10*
G01X16758500Y-10738200D03*
G54D11*
G01X17008500Y-10738200D03*
G01X17258500Y-10738200D03*
G54D12*
G01X17448500Y-10038200D03*
G01X16568500Y-10038200D03*
G54D10*
G01X4258500Y-13038200D03*
G54D11*
G01X4508500Y-13038200D03*
G01X4758500Y-13038200D03*
G54D12*
G01X4948500Y-12338200D03*
G01X4068500Y-12338200D03*
G54D13*
G01X18909250Y-9820088D03*
G54D14*
G01X18909250Y-9720088D03*
G01X19009250Y-9820088D03*
G01X19009250Y-9720088D03*
G01X19109250Y-9820088D03*
G01X19109250Y-9720088D03*
G01X19209250Y-9820088D03*
G01X19209250Y-9720088D03*
G54D10*
G01X9258500Y-8438200D03*
G54D11*
G01X9508500Y-8438200D03*
G01X9758500Y-8438200D03*
G54D12*
G01X9948500Y-7738200D03*
G01X9068500Y-7738200D03*
G54D10*
G01X6758500Y-8438200D03*
G54D11*
G01X7008500Y-8438200D03*
G01X7258500Y-8438200D03*
G54D12*
G01X7448500Y-7738200D03*
G01X6568500Y-7738200D03*
G54D19*
G01X18593500Y-13647200D03*
G54D14*
G01X18493500Y-13647200D03*
G01X18393500Y-13647200D03*
G54D10*
G01X19258500Y-6138200D03*
G54D11*
G01X19508500Y-6138200D03*
G01X19758500Y-6138200D03*
G54D12*
G01X19948500Y-5438200D03*
G01X19068500Y-5438200D03*
G54D10*
G01X14258500Y-3838200D03*
G54D11*
G01X14508500Y-3838200D03*
G01X14758500Y-3838200D03*
G54D12*
G01X14948500Y-3138200D03*
G01X14068500Y-3138200D03*
G54D17*
G01X22075500Y-9146200D03*
G54D18*
G01X22075500Y-8496200D03*
G54D17*
G01X21625500Y-8496200D03*
G01X21625500Y-9146200D03*
G01X24152500Y-8270000D03*
G54D18*
G01X24152500Y-7620000D03*
G54D17*
G01X23702500Y-7620000D03*
G01X23702500Y-8270000D03*
G54D10*
G01X19258500Y-15338200D03*
G54D11*
G01X19508500Y-15338200D03*
G01X19758500Y-15338200D03*
G54D12*
G01X19948500Y-14638200D03*
G01X19068500Y-14638200D03*
G54D10*
G01X19258500Y-8438200D03*
G54D11*
G01X19508500Y-8438200D03*
G01X19758500Y-8438200D03*
G54D12*
G01X19948500Y-7738200D03*
G01X19068500Y-7738200D03*
G54D10*
G01X6758500Y-6138200D03*
G54D11*
G01X7008500Y-6138200D03*
G01X7258500Y-6138200D03*
G54D12*
G01X7448500Y-5438200D03*
G01X6568500Y-5438200D03*
G54D10*
G01X6758500Y-15338200D03*
G54D11*
G01X7008500Y-15338200D03*
G01X7258500Y-15338200D03*
G54D12*
G01X7448500Y-14638200D03*
G01X6568500Y-14638200D03*
G54D17*
G01X23114000Y-8270000D03*
G54D18*
G01X23114000Y-7620000D03*
G54D17*
G01X22664000Y-7620000D03*
G01X22664000Y-8270000D03*
G54D10*
G01X19258500Y-13038200D03*
G54D11*
G01X19508500Y-13038200D03*
G01X19758500Y-13038200D03*
G54D12*
G01X19948500Y-12338200D03*
G01X19068500Y-12338200D03*
G54D15*
G01X23533100Y-4419600D03*
G01X24041100Y-4419600D03*
G54D13*
G01X5173500Y-9413200D03*
G54D14*
G01X5173500Y-9313200D03*
G01X5273500Y-9413200D03*
G01X5273500Y-9313200D03*
G01X5373500Y-9413200D03*
G01X5373500Y-9313200D03*
G01X5473500Y-9413200D03*
G01X5473500Y-9313200D03*
G54D10*
G01X14258500Y-6138200D03*
G54D11*
G01X14508500Y-6138200D03*
G01X14758500Y-6138200D03*
G54D12*
G01X14948500Y-5438200D03*
G01X14068500Y-5438200D03*
G54D15*
G01X22964200Y-5839300D03*
G01X22464200Y-5839300D03*
G01X22275800Y-4432300D03*
G01X22775800Y-4432300D03*
G01X21666200Y-6400800D03*
G01X22166200Y-6400800D03*
G54D10*
G01X9258500Y-6138200D03*
G54D11*
G01X9508500Y-6138200D03*
G01X9758500Y-6138200D03*
G54D12*
G01X9948500Y-5438200D03*
G01X9068500Y-5438200D03*
G54D10*
G01X14258500Y-10738200D03*
G54D11*
G01X14508500Y-10738200D03*
G01X14758500Y-10738200D03*
G54D12*
G01X14948500Y-10038200D03*
G01X14068500Y-10038200D03*
G54D19*
G01X21387500Y-2979200D03*
G54D14*
G01X21287500Y-2979200D03*
G01X21187500Y-2979200D03*
G54D10*
G01X9258500Y-15338200D03*
G54D11*
G01X9508500Y-15338200D03*
G01X9758500Y-15338200D03*
G54D12*
G01X9948500Y-14638200D03*
G01X9068500Y-14638200D03*
G54D10*
G01X6758500Y-10738200D03*
G54D11*
G01X7008500Y-10738200D03*
G01X7258500Y-10738200D03*
G54D12*
G01X7448500Y-10038200D03*
G01X6568500Y-10038200D03*
G54D10*
G01X11758500Y-13038200D03*
G54D11*
G01X12008500Y-13038200D03*
G01X12258500Y-13038200D03*
G54D12*
G01X12448500Y-12338200D03*
G01X11568500Y-12338200D03*
G54D17*
G01X22075500Y-8270000D03*
G54D18*
G01X22075500Y-7620000D03*
G54D17*
G01X21625500Y-7620000D03*
G01X21625500Y-8270000D03*
G54D10*
G01X14258500Y-13038200D03*
G54D11*
G01X14508500Y-13038200D03*
G01X14758500Y-13038200D03*
G54D12*
G01X14948500Y-12338200D03*
G01X14068500Y-12338200D03*
G54D10*
G01X11758500Y-6138200D03*
G54D11*
G01X12008500Y-6138200D03*
G01X12258500Y-6138200D03*
G54D12*
G01X12448500Y-5438200D03*
G01X11568500Y-5438200D03*
G54D13*
G01X16937250Y-9845950D03*
G54D14*
G01X16937250Y-9745950D03*
G01X17037250Y-9845950D03*
G01X17037250Y-9745950D03*
G01X17137250Y-9845950D03*
G01X17137250Y-9745950D03*
G01X17237250Y-9845950D03*
G01X17237250Y-9745950D03*
G54D15*
G01X23685500Y-5753100D03*
G01X23685500Y-5253100D03*
G54D10*
G01X4258500Y-10738200D03*
G54D11*
G01X4508500Y-10738200D03*
G01X4758500Y-10738200D03*
G54D12*
G01X4948500Y-10038200D03*
G01X4068500Y-10038200D03*
G54D10*
G01X16758500Y-6138200D03*
G54D11*
G01X17008500Y-6138200D03*
G01X17258500Y-6138200D03*
G54D12*
G01X17448500Y-5438200D03*
G01X16568500Y-5438200D03*
G54D10*
G01X9258500Y-13038200D03*
G54D11*
G01X9508500Y-13038200D03*
G01X9758500Y-13038200D03*
G54D12*
G01X9948500Y-12338200D03*
G01X9068500Y-12338200D03*
G04 Pad End*

G04 Via Start*
G54D20*
G01X22786000Y-3619500D03*
G01X20675600Y-8178800D03*
G01X9849800Y-6015400D03*
G01X9182300Y-6011200D03*
G01X7349800Y-6015400D03*
G01X5463100Y-5681000D03*
G01X10510200Y-6955200D03*
G01X5470200Y-7971200D03*
G01X15561000Y-10285200D03*
G01X16805600Y-10615400D03*
G01X22902800Y-6121400D03*
G01X15992800Y-10717000D03*
G01X5426900Y-14536800D03*
G01X9385500Y-3711200D03*
G01X5463100Y-3381000D03*
G01X20510200Y-7629600D03*
G01X5397500Y-10867800D03*
G01X18774900Y-8610600D03*
G01X12628100Y-8966200D03*
G01X11072500Y-8511800D03*
G01X11351900Y-9756400D03*
G01X10565500Y-9200433D03*
G01X10589300Y-9452833D03*
G01X11222700Y-9960833D03*
G01X9571700Y-11611833D03*
G01X8504900Y-12399233D03*
G01X12746700Y-9022633D03*
G01X19321867Y-9197000D03*
G01X13064500Y-9172200D03*
G01X13089900Y-9502400D03*
G01X13145100Y-9648500D03*
G01X11214700Y-8581700D03*
G01X11997700Y-10331800D03*
G01X12277100Y-10357200D03*
G01X13140700Y-10458800D03*
G01X13267700Y-9976200D03*
G01X15023100Y-9521500D03*
G01X16470900Y-8530900D03*
G01X19315700Y-8581700D03*
G01X14524100Y-10296000D03*
G01X14508500Y-10081400D03*
G01X12826900Y-6138200D03*
G01X16754500Y-8975200D03*
G01X19370700Y-9127600D03*
G01X17008500Y-9114300D03*
G01X17064250Y-9576250D03*
G01X16896100Y-9389400D03*
G01X17586900Y-9728200D03*
G01X18782250Y-9390450D03*
G01X19214050Y-9364488D03*
G01X19336250Y-9299200D03*
G01X19387050Y-9629400D03*
G01X19463250Y-9618488D03*
G01X21469850Y-9262888D03*
G01X21625500Y-8790600D03*
G01X10357800Y-7559000D03*
G01X9885500Y-8489000D03*
G01X10332400Y-9909800D03*
G01X9682300Y-10941400D03*
G01X10154600Y-12463800D03*
G01X9860100Y-13139800D03*
G01X10154600Y-14763800D03*
G01X12745400Y-7448700D03*
G01X12654600Y-14763800D03*
G01X14305600Y-3696100D03*
G01X15357800Y-5148700D03*
G01X12770800Y-7931300D03*
G01X15332400Y-12209800D03*
G01X14752000Y-14831300D03*
G01X17537900Y-10458800D03*
G01X17766500Y-10230200D03*
G01X7959400Y-9960600D03*
G01X7970200Y-14535200D03*
G01X5537200Y-12668600D03*
G01X23753700Y-4707000D03*
G01X5924600Y-7609800D03*
G01X5721400Y-7787600D03*
G01X5609000Y-10350000D03*
G01X5736000Y-9384800D03*
G01X5609000Y-5701800D03*
G01X5609000Y-5422400D03*
G01X5685200Y-9692600D03*
G01X5609000Y-12639000D03*
G04 Via End*

G04 Track Start*
G54D21*
G01X22786000Y-3619500D02*
G01X22786000Y-3922100D01*
G01X22275800Y-4432300D01*
G01X21666200Y-5041900D01*
G01X21666200Y-6400800D01*
G01X21666200Y-7188200D01*
G01X20675600Y-8178800D01*
G01X9849800Y-6015400D02*
G01X9381300Y-6015400D01*
G01X9258500Y-6138200D01*
G01X9182300Y-6062000D01*
G01X9182300Y-6011200D01*
G01X7349800Y-6015400D02*
G01X6892600Y-6015400D01*
G01X6765600Y-6142400D01*
G01X6758500Y-6138200D01*
G01X6758500Y-6138200D02*
G01X6301300Y-5681000D01*
G01X6199700Y-5782600D01*
G01X5590100Y-5782600D01*
G01X5488500Y-5681000D01*
G01X5463100Y-5681000D01*
G01X4715700Y-5681000D01*
G01X4258500Y-6138200D01*
G01X9849800Y-6015400D02*
G01X10510200Y-6675800D01*
G01X10510200Y-6955200D01*
G01X6765600Y-8431100D02*
G01X6758500Y-8438200D01*
G01X6765600Y-7945800D02*
G01X6744377Y-7967023D01*
G01X5474377Y-7967023D01*
G01X5470200Y-7971200D01*
G01X4725500Y-7971200D01*
G01X4258500Y-8438200D01*
G01X4258500Y-10738200D01*
G01X15561000Y-10285200D02*
G01X15992800Y-10717000D01*
G01X16737300Y-10717000D02*
G01X16758500Y-10738200D01*
G01X16729400Y-10717000D02*
G01X16729400Y-10691600D01*
G01X16805600Y-10615400D01*
G01X22902800Y-6121400D02*
G01X22746300Y-6121400D01*
G01X22464200Y-5839300D01*
G01X4258500Y-10738200D02*
G01X4258500Y-13038200D01*
G01X4258500Y-13368400D01*
G01X5426900Y-14536800D01*
G01X9182300Y-6011200D02*
G01X9258500Y-5935000D01*
G01X9258500Y-3838200D01*
G01X9385500Y-3711200D01*
G01X6301300Y-5681000D02*
G01X6301300Y-4295400D01*
G01X6758500Y-3838200D01*
G01X6289503Y-3369203D01*
G01X5474897Y-3369203D01*
G01X5463100Y-3381000D01*
G01X4715700Y-3381000D01*
G01X4258500Y-3838200D01*
G01X9385500Y-3711200D02*
G01X11631500Y-3711200D01*
G01X11758500Y-3838200D01*
G01X20510200Y-7629600D02*
G01X20510200Y-7389900D01*
G01X19258500Y-6138200D01*
G01X7008500Y-15338200D02*
G01X7008500Y-14347600D01*
G01X5179700Y-12518800D01*
G01X5179700Y-9419400D01*
G01X5173500Y-9413200D01*
G01X4508500Y-13038200D02*
G01X4635500Y-12911200D01*
G01X4635500Y-9736200D01*
G01X5134700Y-9237000D01*
G01X5297300Y-9237000D01*
G01X5373500Y-9313200D01*
G01X5397500Y-10867800D02*
G01X5397500Y-9489200D01*
G01X5473500Y-9413200D01*
G01X23702500Y-7645400D02*
G01X23550100Y-7493000D01*
G01X21568900Y-7493000D01*
G01X20806900Y-8255000D01*
G01X19130500Y-8255000D01*
G01X18774900Y-8610600D01*
G01X12628100Y-8966200D02*
G01X11180300Y-8966200D01*
G01X10630100Y-9516400D01*
G01X5981900Y-9516400D01*
G01X5778700Y-9313200D01*
G01X5473500Y-9313200D01*
G01X10973500Y-9808433D02*
G01X9508500Y-11273433D01*
G01X9508500Y-13038200D01*
G01X10973500Y-9708433D02*
G01X10948100Y-9708433D01*
G01X9881300Y-10775233D01*
G01X9881300Y-10842433D01*
G01X9381500Y-11342233D01*
G01X9381500Y-15211200D01*
G01X9508500Y-15338200D01*
G01X7008500Y-3838200D02*
G01X7008500Y-4117600D01*
G01X11072500Y-8181600D01*
G01X11072500Y-8511800D01*
G01X11351900Y-9756400D02*
G01X11351900Y-9832600D01*
G01X11301100Y-9883400D01*
G01X11148467Y-9883400D01*
G01X11073500Y-9808433D01*
G01X10565500Y-9200433D02*
G01X9981300Y-8616233D01*
G01X9498700Y-8616233D01*
G01X9384933Y-8502466D01*
G01X9384933Y-8336833D01*
G01X9029333Y-7981233D01*
G01X8851533Y-7981233D01*
G01X7008500Y-6138200D01*
G01X10589300Y-9452833D02*
G01X8023133Y-9452833D01*
G01X7008500Y-8438200D01*
G01X11173500Y-9708433D02*
G01X11097300Y-9632233D01*
G01X8201700Y-9632233D01*
G01X7211100Y-10622833D01*
G01X7123867Y-10622833D01*
G01X7008500Y-10738200D01*
G01X11222700Y-9960833D02*
G01X9571700Y-11611833D01*
G01X8504900Y-12399233D02*
G01X7996900Y-12907233D01*
G01X7139467Y-12907233D01*
G01X7008500Y-13038200D01*
G01X11273500Y-9708433D02*
G01X11873108Y-9108825D01*
G01X12660508Y-9108825D01*
G01X12746700Y-9022633D01*
G01X19321867Y-9197000D02*
G01X21506267Y-9197000D01*
G01X21582467Y-9273200D01*
G01X23575500Y-9273200D01*
G01X23702500Y-9146200D01*
G01X23702500Y-8496200D01*
G01X12008500Y-10738200D02*
G01X12465700Y-10281000D01*
G01X12567300Y-10281000D01*
G01X12970500Y-9877800D01*
G01X12970500Y-9824700D01*
G01X12970500Y-9724700D02*
G01X12411700Y-9724700D01*
G01X11878300Y-10258100D01*
G01X11878300Y-12908000D01*
G01X12008500Y-13038200D01*
G01X12008500Y-15338200D02*
G01X12008500Y-13458600D01*
G01X13070500Y-12396600D01*
G01X13070500Y-9824700D01*
G01X9508500Y-3838200D02*
G01X9508500Y-4117600D01*
G01X13064500Y-7673600D01*
G01X13064500Y-9172200D01*
G01X13089900Y-9502400D02*
G01X13070500Y-9521800D01*
G01X13070500Y-9724700D01*
G01X13170500Y-9824700D02*
G01X13246700Y-9900900D01*
G01X13297500Y-9900900D01*
G01X13348300Y-9850100D01*
G01X13348300Y-9541453D01*
G01X12386947Y-8580100D01*
G01X12230700Y-8580100D01*
G01X12129100Y-8478500D01*
G01X12129100Y-8376900D01*
G01X11722700Y-7970500D01*
G01X11340800Y-7970500D01*
G01X9508500Y-6138200D01*
G01X13170500Y-9724700D02*
G01X13170500Y-9673900D01*
G01X13145100Y-9648500D01*
G01X11214700Y-8581700D02*
G01X10020900Y-8581700D01*
G01X10004400Y-8565200D01*
G01X9635500Y-8565200D01*
G01X9508500Y-8438200D01*
G01X11997700Y-10331800D02*
G01X12251700Y-10331800D01*
G01X12277100Y-10357200D01*
G01X13140700Y-10458800D02*
G01X13140700Y-10103200D01*
G01X13267700Y-9976200D01*
G01X15023100Y-9521500D02*
G01X15480300Y-9521500D01*
G01X16470900Y-8530900D01*
G01X19315700Y-8581700D02*
G01X21144500Y-8581700D01*
G01X21576300Y-8149900D01*
G01X22543900Y-8149900D01*
G01X22664000Y-8270000D01*
G01X22664000Y-7620000D01*
G01X14524100Y-10296000D02*
G01X14524100Y-10722600D01*
G01X14508500Y-10738200D01*
G01X14508500Y-10081400D02*
G01X14381500Y-10208400D01*
G01X14381500Y-15211200D01*
G01X14508500Y-15338200D01*
G01X15130500Y-9837200D02*
G01X15130500Y-10243600D01*
G01X15105100Y-10269000D01*
G01X14825700Y-10269000D01*
G01X13179277Y-8622577D01*
G01X13179277Y-6615977D01*
G01X12031700Y-5468400D01*
G01X12031700Y-3861400D01*
G01X12008500Y-3838200D01*
G01X15130500Y-9737200D02*
G01X13285454Y-7892154D01*
G01X13285454Y-6596754D01*
G01X12826900Y-6138200D01*
G01X15230500Y-9737200D02*
G01X15992500Y-9737200D01*
G01X16754500Y-8975200D01*
G01X19370700Y-9127600D02*
G01X19472300Y-9026000D01*
G01X22520300Y-9026000D01*
G01X22621900Y-9127600D01*
G01X22646350Y-9127600D01*
G01X22647300Y-9129500D01*
G01X22664000Y-9146200D01*
G01X22647300Y-9127600D02*
G01X22647300Y-8512900D01*
G01X22664000Y-8496200D01*
G01X17008500Y-9114300D02*
G01X17135500Y-8987300D01*
G01X17135500Y-6265200D01*
G01X17008500Y-6138200D01*
G01X17008500Y-8438200D02*
G01X16937250Y-8509450D01*
G01X16937250Y-9347650D01*
G01X17064250Y-9474650D01*
G01X17064250Y-9576250D01*
G01X17008500Y-10738200D02*
G01X17008500Y-9874700D01*
G01X17037250Y-9845950D01*
G01X17008500Y-13038200D02*
G01X16881500Y-12911200D01*
G01X16881500Y-10117200D01*
G01X16846350Y-10082050D01*
G01X16846350Y-9720550D01*
G01X16897150Y-9669750D01*
G01X16961050Y-9669750D01*
G01X17037250Y-9745950D01*
G01X17008500Y-15338200D02*
G01X17137250Y-15209450D01*
G01X17137250Y-9845950D01*
G01X14508500Y-3838200D02*
G01X14381500Y-3965200D01*
G01X14381500Y-6352800D01*
G01X16819900Y-8791200D01*
G01X16819900Y-9428600D01*
G01X17137250Y-9745950D01*
G01X14508500Y-6138200D02*
G01X14508500Y-6417600D01*
G01X16896100Y-8805200D01*
G01X16896100Y-9389400D01*
G01X21625500Y-7620000D02*
G01X20939700Y-8305800D01*
G01X19161700Y-8305800D01*
G01X18882300Y-8585200D01*
G01X18882300Y-9398000D01*
G01X18552100Y-9728200D01*
G01X17586900Y-9728200D01*
G01X19508500Y-3838200D02*
G01X18706050Y-4640650D01*
G01X18706050Y-9314250D01*
G01X18782250Y-9390450D01*
G01X18909250Y-9720088D02*
G01X18909250Y-9669288D01*
G01X19214050Y-9364488D01*
G01X19508500Y-10738200D02*
G01X19508500Y-9849200D01*
G01X19178300Y-9519000D01*
G01X19127500Y-9519000D01*
G01X19009250Y-9637250D01*
G01X19009250Y-9720088D01*
G01X19109250Y-9720088D02*
G01X19109250Y-9618488D01*
G01X19134650Y-9593088D01*
G01X19185450Y-9593088D01*
G01X19381500Y-9789138D01*
G01X19381500Y-15211200D01*
G01X19508500Y-15338200D01*
G01X19336250Y-9299200D02*
G01X19336250Y-9578600D01*
G01X19387050Y-9629400D01*
G01X19463250Y-9618488D02*
G01X21114250Y-9618488D01*
G01X21469850Y-9262888D01*
G01X21625500Y-8790600D02*
G01X21625500Y-8496200D01*
G01X10357800Y-7559000D02*
G01X10357800Y-7838900D01*
G01X9758500Y-8438200D01*
G01X9834700Y-8438200D01*
G01X9885500Y-8489000D01*
G01X10332400Y-9909800D02*
G01X10332400Y-10164300D01*
G01X9758500Y-10738200D01*
G01X9758500Y-10865200D01*
G01X9682300Y-10941400D01*
G01X10154600Y-12463800D02*
G01X10154600Y-12642100D01*
G01X9758500Y-13038200D01*
G01X9860100Y-13139800D01*
G01X10154600Y-14763800D02*
G01X10154600Y-14942100D01*
G01X9758500Y-15338200D01*
G01X12745400Y-7448700D02*
G01X12745400Y-7702700D01*
G01X12643800Y-7804300D01*
G01X12643800Y-8052900D02*
G01X12258500Y-8438200D01*
G01X12654600Y-14763800D02*
G01X12654600Y-14942100D01*
G01X12258500Y-15338200D01*
G01X14305600Y-3696100D02*
G01X14616400Y-3696100D01*
G01X14758500Y-3838200D01*
G01X14758500Y-3838200D02*
G01X15434000Y-4513700D01*
G01X15434000Y-5072500D01*
G01X15357800Y-5148700D01*
G01X15357800Y-5538900D01*
G01X14758500Y-6138200D01*
G01X12643800Y-7880500D02*
G01X12720000Y-7880500D01*
G01X12770800Y-7931300D01*
G01X15332400Y-12209800D02*
G01X15332400Y-12464300D01*
G01X14758500Y-13038200D01*
G01X14752000Y-14831300D02*
G01X14752000Y-15331700D01*
G01X14758500Y-15338200D01*
G01X17537900Y-10458800D02*
G01X17766500Y-10230200D01*
G01X17766500Y-10001600D01*
G01X17258500Y-9493600D01*
G01X17258500Y-8438200D01*
G01X15434000Y-4513700D02*
G01X16583000Y-4513700D01*
G01X17258500Y-3838200D01*
G01X7959400Y-9960600D02*
G01X7959400Y-10037300D01*
G01X7258500Y-10738200D01*
G01X7258500Y-12262200D01*
G01X6877500Y-12643200D01*
G01X6877500Y-13077600D01*
G01X6965100Y-13165200D01*
G01X7131500Y-13165200D01*
G01X7258500Y-13038200D01*
G01X7970200Y-14535200D02*
G01X7970200Y-14626500D01*
G01X7258500Y-15338200D01*
G01X6877500Y-12643200D02*
G01X6801300Y-12719400D01*
G01X5588000Y-12719400D01*
G01X5537200Y-12668600D01*
G01X23753700Y-4707000D02*
G01X24041100Y-4419600D01*
G01X23753700Y-4707000D02*
G01X23050500Y-4707000D01*
G01X22775800Y-4432300D01*
G01X22775800Y-4491100D01*
G01X22186900Y-5080000D01*
G01X5924600Y-7609800D02*
G01X5899200Y-7609800D01*
G01X5721400Y-7787600D01*
G01X5609000Y-10350000D02*
G01X5609000Y-9511800D01*
G01X5736000Y-9384800D01*
G01X5609000Y-5701800D02*
G01X5609000Y-5422400D01*
G01X5685200Y-9692600D02*
G01X5685200Y-12562800D01*
G01X5609000Y-12639000D01*
G01X6765600Y-6142400D02*
G01X6765600Y-7945800D01*
G01X6765600Y-8431100D01*
G01X15992800Y-10717000D02*
G01X16729400Y-10717000D01*
G01X16737300Y-10717000D01*
G01X23702500Y-7620000D02*
G01X23702500Y-7645400D01*
G01X23702500Y-8270000D01*
G01X12643800Y-7804300D02*
G01X12643800Y-7880500D01*
G01X12643800Y-8052900D01*
G04 Track End*

M02*

