;TYPE=PLATED
;Layer: PTH_Through
;EasyEDA Pro Client v2.2.40.8, 2025-08-27 10:51:24
;Gerber Generator version 0.3
M48
METRIC,LZ,0000.00000
;Hole size 1 = 0.30480 METRIC
T01C0.30480
;Hole size 2 = 0.30500 METRIC
T02C0.30500
;Hole size 3 = 0.50002 METRIC
T03C0.50002
;Hole size 4 = 0.90002 METRIC
T04C0.90002
;Hole size 5 = 0.91440 METRIC
T05C0.91440
;Hole size 6 = 1.00000 METRIC
T06C1.00000
;Hole size 7 = 1.02000 METRIC
T07C1.02000
;Hole size 8 = 1.04999 METRIC
T08C1.04999
;Hole size 9 = 1.05999 METRIC
T09C1.05999
;Hole size 10 = 1.20000 METRIC
T10C1.20000
;Hole size 11 = 1.50002 METRIC
T11C1.50002
;Hole size 12 = 2.00000 METRIC
T12C2.00000
%
G05
G90
T01
X196.31787Y-139.025
X197.76186Y-138.08901
X196.19087Y-76.922
X197.63486Y-75.98601
X196.31787Y-89.36799
X180.56987Y-95.71799
X187.68187Y-75.01699
X182.60187Y-75.77899
X196.19087Y-118.324
X197.63486Y-117.388
X47.48505Y-36.068
X192.00114Y-7.32599
X189.46114Y-7.32599
X187.83973Y-13.83697
X190.22314Y-14.34402
X191.36487Y-16.97799
X188.28401Y-14.97885
X150.08987Y-10.755
X149.32787Y-9.48499
X150.59787Y-7.19899
X148.05787Y-7.19899
X146.31073Y-14.33134
X148.81987Y-13.97
X150.21687Y-18.375
X103.40213Y-14.99425
X107.54614Y-7.19899
X104.24414Y-7.19899
X102.51313Y-13.97
X105.43413Y-14.565
X103.35387Y-23.709
X101.06787Y-29.551
X97.76587Y-35.90099
X68.98513Y-114.56225
X190.85687Y-17.82001
X70.71487Y-127.72199
X58.26887Y-136.10399
X24.48687Y-136.10399
X10.05586Y-136.31101
X52.46395Y-32.385
X43.00614Y-12.49997
X185.801Y-28.46095
X183.769Y-26.42895
X189.97651Y-28.829
X190.99251Y-27.813
X204.94092Y-29.464
X203.16292Y-27.686
X126.83698Y-23.87798
X125.05898Y-24.13198
X136.23498Y-25.90998
X135.98098Y-30.98998
X164.68298Y-30.98998
X118.71604Y-23.003
X143.764Y-28.18105
X39.624Y-34.798
X56.896Y-51.308
X22.85301Y-128.48399
X29.20301Y-136.86599
X65.85102Y-50.292
X67.37502Y-49.53
X87.18702Y-35.687
X96.07702Y-32.639
X69.723Y-29.718
X69.88708Y-64.17208
X204.95387Y-33.742
X206.22387Y-16.88274
X65.36004Y-64.135
X69.93204Y-57.023
X59.26404Y-58.547
X63.58204Y-57.023
X68.40804Y-64.389
X72.98004Y-65.405
X186.42901Y-70.31799
X193.54101Y-70.31799
X61.29604Y-75.565
X67.64604Y-82.169
X186.42901Y-90.76499
X193.79501Y-90.38399
X60.28004Y-76.581
X67.13804Y-96.901
X188.08001Y-111.71999
X190.62001Y-113.24399
X58.50204Y-76.327
X60.53404Y-88.519
X188.08001Y-132.42099
X190.87401Y-133.94499
X57.23204Y-74.803
X67.64604Y-129.159
X188.33401Y-153.12199
X193.41401Y-153.12199
X50.37404Y-53.721
X50.12004Y-55.499
X54.01996Y-59.817
X46.90796Y-62.103
X56.05196Y-58.801
X49.19396Y-141.097
X64.94196Y-57.277
X67.73596Y-83.185
X66.46596Y-84.201
X68.49796Y-128.905
X63.41796Y-58.039
X63.16396Y-111.125
X67.22796Y-65.151
X67.73596Y-74.041
X59.86196Y-78.613
X60.62396Y-87.249
X59.944Y-30.353
X62.992Y-30.607
X60.452Y-29.48
X108.204Y-31.004
X32.512Y-33.02
X39.624Y-33.02
X29.845Y-32.004
X39.751Y-32.004
X49.403Y-30.988
X160.909Y-30.48
X40.767Y-23.749
X194.326Y-31.766
X57.27695Y-61.15799
X56.61596Y-62.04699
X8.636Y-30.988
X64.98798Y-31.20799
X63.71798Y-36.54199
X67.11798Y-61.52998
X66.44589Y-64.06998
X59.48096Y-73.406
X54.40096Y-77.38008
X156.37299Y-13.29398
X157.64299Y-12.02398
X183.16999Y-15.32598
X204.386Y-15.25397
X200.44199Y-17.61198
X23.83099Y-142.29601
X191.95898Y-56.11896
X171.63898Y-78.21696
X152.58898Y-98.79096
X135.31698Y-120.12696
X114.36198Y-141.58996
X93.53398Y-160.63996
X71.68998Y-138.79596
X64.643Y-46.736
X62.103Y-48.006
X42.799Y-52.324
X26.67Y-50.8
X30.98795Y-98.87699
X45.46595Y-65.83101
X54.86395Y-61.51301
X85.725Y-31.242
X24.892Y-38.862
X38.608Y-37.846
X26.416Y-44.45
X50.292Y-47.244
X59.436Y-39.37
X31.242Y-50.038
X41.148Y-50.038
X62.23Y-91.186
X58.42Y-79.248
X49.022Y-68.834
X50.8Y-62.357
X50.8Y-64.643
X55.88Y-61.468
X60.198Y-62.23
X49.53Y-68.072
X60.706Y-78.232
X48.26Y-67.31
X53.848Y-64.008
X54.356Y-67.31
X52.578Y-74.168
X71.41896Y-74.422
X90.21496Y-70.358
X92.50096Y-83.058
X64.05296Y-80.772
X67.86296Y-93.472
X90.72296Y-111.76
X92.75496Y-122.936
X92.75496Y-145.034
X74.46696Y-90.17
X110.28096Y-90.17
X111.80496Y-72.644
X111.80496Y-54.356
X110.53496Y-112.014
X112.56696Y-124.46
X112.14799Y-143.59903
X70.91096Y-90.678
X129.83896Y-90.932
X131.61696Y-72.644
X131.95998Y-92.79699
X131.95998Y-103.71899
X131.61696Y-54.356
X131.95998Y-123.02299
X132.34099Y-131.02399
X132.34099Y-145.24799
X74.97496Y-93.30499
X130.85496Y-93.30499
X151.42896Y-89.495
X151.42896Y-72.731
X151.42896Y-54.443
X151.42896Y-93.81299
X148.63496Y-101.68699
X151.42896Y-110.32299
X151.93696Y-124.54699
X151.93696Y-145.12099
X69.13296Y-90.932
X158.70796Y-90.257
X169.37596Y-91.527
X171.15396Y-102.19499
X173.10799Y-72.30097
X175.13998Y-68.74497
X171.66196Y-124.54699
X171.66196Y-145.12099
X69.89496Y-91.694
X154.22296Y-91.694
X187.49696Y-91.694
X189.52896Y-92.456
X192.15799Y-110.32503
X192.28498Y-68.79399
X190.76099Y-53.3
X192.41199Y-130.89903
X192.15799Y-151.72703
X72.94296Y-92.71
X153.71496Y-92.456
X186.22696Y-92.202
X209.17599Y-92.54299
X67.24802Y-58.801
X33.72002Y-25.019
X68.26758Y-62.611
X70.00113Y-126.82855
X111.76Y-29.591
X106.172Y-29.083
X138.176Y-29.083
X146.05Y-29.70251
X179.578Y-27.41651
X111.76Y-32.639
X60.198Y-38.735
T02
X32.385Y-19.685
X68.199Y-58.42
X45.72Y-8.509
T03
X97.06399Y-16.60401G85X97.06399Y-17.60395
X101.56401Y-8.30401G85X101.56401Y-9.30398
X101.56401Y-11.404G85X101.56401Y-12.40398
X101.56401Y-15.50399G85X101.56401Y-16.50397
X111.16099Y-16.60401G85X111.16099Y-17.60395
X115.66101Y-8.30401G85X115.66101Y-9.30398
X115.66101Y-11.404G85X115.66101Y-12.40398
X115.66101Y-15.50399G85X115.66101Y-16.50397
X139.86299Y-16.60401G85X139.86299Y-17.60395
X144.36301Y-8.30401G85X144.36301Y-9.30398
X144.36301Y-11.404G85X144.36301Y-12.40398
X144.36301Y-15.50399G85X144.36301Y-16.50397
X154.84899Y-16.60401G85X154.84899Y-17.60395
X159.34901Y-8.30401G85X159.34901Y-9.30398
X159.34901Y-11.404G85X159.34901Y-12.40398
X159.34901Y-15.50399G85X159.34901Y-16.50397
X181.39199Y-16.60401G85X181.39199Y-17.60395
X185.89201Y-8.30401G85X185.89201Y-9.30398
X185.89201Y-11.404G85X185.89201Y-12.40398
X185.89201Y-15.50399G85X185.89201Y-16.50397
X195.86999Y-16.60401G85X195.86999Y-17.60395
X200.37001Y-8.30401G85X200.37001Y-9.30398
X200.37001Y-11.404G85X200.37001Y-12.40398
X200.37001Y-15.50399G85X200.37001Y-16.50397
X34.83399Y-16.60401G85X34.83399Y-17.60395
X39.33401Y-8.30401G85X39.33401Y-9.30398
X39.33401Y-11.404G85X39.33401Y-12.40398
X39.33401Y-15.50399G85X39.33401Y-16.50397
X86.01499Y-16.60401G85X86.01499Y-17.60395
X90.51501Y-8.30401G85X90.51501Y-9.30398
X90.51501Y-11.404G85X90.51501Y-12.40398
X90.51501Y-15.50399G85X90.51501Y-16.50397
T04
X53.975Y-30.988
X53.975Y-33.528
X53.975Y-36.068
X53.975Y-38.608
X61.595Y-30.988
X61.595Y-33.528
X61.595Y-36.068
X61.595Y-38.608
T05
X50.178Y-29.845
X42.278Y-29.845
X21.41499Y-10.71905
X21.41499Y-12.71905
X28.11501Y-10.71905
X28.11501Y-12.71905
X23.765Y-13.91905
X25.765Y-13.91905
X102.489Y-35.065
X102.489Y-27.165
X154.813Y-27.165
X154.813Y-35.065
X112.522Y-27.165
X112.522Y-35.065
X145.034Y-34.811
X145.034Y-26.911
X186.309Y-34.811
X186.309Y-26.911
X195.961Y-26.911
X195.961Y-34.811
T06
X21.931Y-145.73987
X19.431Y-145.73987
X16.93101Y-145.73987
X21.423Y-128.34087
X18.923Y-128.34087
X16.42301Y-128.34087
X21.55Y-110.56087
X19.05Y-110.56087
X16.55Y-110.56087
X68.707Y-38.1
X71.247Y-38.1
X73.787Y-38.1
X76.327Y-38.1
X78.867Y-38.1
X81.407Y-38.1
X83.947Y-38.1
X68.707Y-30.48
X71.247Y-30.48
X73.787Y-30.48
X76.327Y-30.48
X78.867Y-30.48
X81.407Y-30.48
X83.947Y-30.48
T07
X9.398Y-52.832
X11.938Y-52.832
X14.478Y-52.832
X17.018Y-52.832
X39.878Y-47.752
X11.938Y-37.592
X19.558Y-52.832
X22.098Y-52.832
X24.638Y-52.832
X27.178Y-52.832
X29.718Y-52.832
X32.258Y-52.832
X34.798Y-52.832
X37.338Y-52.832
X39.878Y-52.832
X39.878Y-37.592
X37.338Y-37.592
X34.798Y-37.592
X32.258Y-37.592
X29.718Y-37.592
X27.178Y-37.592
X24.638Y-37.592
X22.098Y-37.592
X19.558Y-37.592
X17.018Y-37.592
X14.478Y-37.592
X6.858Y-52.832
X39.878Y-45.212
X9.398Y-37.592
X39.878Y-40.132
X39.878Y-42.672
X39.878Y-50.292
X6.858Y-37.592
T08
X28.702Y-64.897
X31.242Y-64.897
X33.782Y-64.897
X36.322Y-64.897
T09
X31.115Y-15.50993
X31.115Y-4.81007
T10
X11.60089Y-17.57782G85X9.10087Y-17.57782
X9.10112Y-11.37818G85X11.60115Y-11.37818
X5.65087Y-15.82809G85X5.65087Y-13.32807
T11
X59.06211Y-15.84211
X56.56212Y-18.3421
X51.56213Y-15.84211
X46.56214Y-18.3421
X44.06214Y-15.84211
X56.56212Y-6.04213
X46.56214Y-6.04213
X81.16011Y-15.84211
X78.66012Y-18.3421
X73.66013Y-15.84211
X68.66014Y-18.3421
X66.16014Y-15.84211
X78.66012Y-6.04213
X68.66014Y-6.04213
T12
X15.03101Y-138.58988G85X15.03101Y-138.88988
X23.83099Y-138.58988G85X23.83099Y-138.88988
X14.52301Y-121.19088G85X14.52301Y-121.49088
X23.32299Y-121.19088G85X23.32299Y-121.49088
X14.65001Y-103.41088G85X14.65001Y-103.71088
X23.44999Y-103.41088G85X23.44999Y-103.71088
M30