G04 Layer: BottomSilkscreenLayer*
G04 EasyEDA Pro v2.2.40.8, 2025-08-27 10:51:24*
G04 Gerber Generator version 0.3*
G04 Scale: 100 percent, Rotated: No, Reflected: No*
G04 Dimensions in millimeters*
G04 Leading zeros omitted, absolute positions, 4 integers and 5 decimals*
G04 Generated by one-click*
%FSLAX45Y45*%
%MOMM*%
%ADD10C,0.254*%
%ADD11C,0.6504*%
G75*


G04 Image Start*
G36*
G01X13033693Y-7086093D02*
G01X13033693Y-7086093D01*
G01X15222850Y-9278369D01*
G01X15546381Y-9608077D01*
G01X15596622Y-9663208D01*
G01X15604015Y-9673579D01*
G01X15603459Y-9676387D01*
G01X15603459Y-9676387D01*
G01X15586048Y-9679565D01*
G01X15574952Y-9689084D01*
G01X15574952Y-9689084D01*
G01X15567382Y-9696161D01*
G01X15548114Y-9699960D01*
G01X15427284Y-9701782D01*
G01X15287545Y-9701782D01*
G01X12739612Y-7153899D01*
G01X12739612Y-7153899D01*
G01X10636851Y-5048005D01*
G01X10283099Y-4688735D01*
G01X10217371Y-4618807D01*
G01X10201644Y-4597746D01*
G01X10201644Y-4597746D01*
G01X10211608Y-4580532D01*
G01X10211608Y-4580532D01*
G01X10214335Y-4573168D01*
G01X10220890Y-4568025D01*
G01X10220890Y-4568025D01*
G01X10228574Y-4561952D01*
G01X10234015Y-4552352D01*
G01X10234015Y-4552352D01*
G01X10239402Y-4543799D01*
G01X10246955Y-4540241D01*
G01X10246955Y-4540241D01*
G01X10253379Y-4537444D01*
G01X10256050Y-4530718D01*
G01X10256050Y-4530718D01*
G01X10259853Y-4523919D01*
G01X10269342Y-4521195D01*
G01X10269342Y-4521195D01*
G01X10279886Y-4517695D01*
G01X10285956Y-4508498D01*
G01X10285956Y-4508498D01*
G01X10289733Y-4501528D01*
G01X10300406Y-4497717D01*
G01X10366312Y-4495800D01*
G01X10443349Y-4495800D01*
G01X13033693Y-7086093D01*
G37*
G36*
G01X12652756Y-7213061D02*
G01X15141520Y-9701782D01*
G01X14960576Y-9701782D01*
G01X14779633Y-9701782D01*
G01X12470123Y-7392316D01*
G01X10160614Y-5082851D01*
G01X10162303Y-4903595D01*
G01X10163991Y-4724340D01*
G01X12652756Y-7213061D01*
G37*
G36*
G01X10948080Y-4838633D02*
G01X10948080Y-4838633D01*
G01X10951162Y-4848058D01*
G01X10960038Y-4851330D01*
G01X10960038Y-4851330D01*
G01X10969469Y-4855044D01*
G01X10975315Y-4864028D01*
G01X10975315Y-4864028D01*
G01X10982784Y-4874024D01*
G01X11001452Y-4876725D01*
G01X11001452Y-4876725D01*
G01X11019828Y-4879196D01*
G01X11024267Y-4889423D01*
G01X11024267Y-4889423D01*
G01X11027349Y-4898848D01*
G01X11036224Y-4902121D01*
G01X11036224Y-4902121D01*
G01X11045656Y-4905834D01*
G01X11051502Y-4914818D01*
G01X11051502Y-4914818D01*
G01X11056819Y-4923786D01*
G01X11064940Y-4927516D01*
G01X11064940Y-4927516D01*
G01X11075816Y-4931245D01*
G01X11087756Y-4940213D01*
G01X11087756Y-4940213D01*
G01X11100454Y-4949181D01*
G01X11113151Y-4952911D01*
G01X11113151Y-4952911D01*
G01X11122189Y-4955713D01*
G01X11125849Y-4962633D01*
G01X11125849Y-4962633D01*
G01X11129113Y-4970717D01*
G01X11136960Y-4976499D01*
G01X11136960Y-4976499D01*
G01X11156367Y-4992172D01*
G01X11156367Y-4992172D01*
G01X11167611Y-5000429D01*
G01X11183349Y-5003701D01*
G01X11183349Y-5003701D01*
G01X11198113Y-5006366D01*
G01X11202036Y-5016398D01*
G01X11202036Y-5016398D01*
G01X11205118Y-5025823D01*
G01X11213994Y-5029096D01*
G01X11213994Y-5029096D01*
G01X11223425Y-5032809D01*
G01X11229271Y-5041793D01*
G01X11229271Y-5041793D01*
G01X11234588Y-5050761D01*
G01X11242710Y-5054491D01*
G01X11242710Y-5054491D01*
G01X11253585Y-5058221D01*
G01X11265525Y-5067188D01*
G01X11265525Y-5067188D01*
G01X11278223Y-5076156D01*
G01X11290921Y-5079886D01*
G01X11290921Y-5079886D01*
G01X11299958Y-5082688D01*
G01X11303618Y-5089608D01*
G01X11303618Y-5089608D01*
G01X11306882Y-5097692D01*
G01X11314729Y-5103475D01*
G01X11314729Y-5103475D01*
G01X11334136Y-5119147D01*
G01X11334136Y-5119147D01*
G01X11345380Y-5127405D01*
G01X11361118Y-5130676D01*
G01X11361118Y-5130676D01*
G01X11375882Y-5133341D01*
G01X11379805Y-5143373D01*
G01X11379805Y-5143373D01*
G01X11382887Y-5152798D01*
G01X11391763Y-5156071D01*
G01X11391763Y-5156071D01*
G01X11401194Y-5159784D01*
G01X11407040Y-5168768D01*
G01X11407040Y-5168768D01*
G01X11412358Y-5177736D01*
G01X11420479Y-5181466D01*
G01X11420479Y-5181466D01*
G01X11431354Y-5185196D01*
G01X11443294Y-5194163D01*
G01X11443294Y-5194163D01*
G01X11455992Y-5203131D01*
G01X11468690Y-5206861D01*
G01X11468690Y-5206861D01*
G01X11477727Y-5209663D01*
G01X11481387Y-5216583D01*
G01X11481387Y-5216583D01*
G01X11484651Y-5224667D01*
G01X11492498Y-5230450D01*
G01X11492498Y-5230450D01*
G01X11511905Y-5246122D01*
G01X11511905Y-5246122D01*
G01X11523149Y-5254380D01*
G01X11538888Y-5257651D01*
G01X11538888Y-5257651D01*
G01X11553651Y-5260317D01*
G01X11557574Y-5270348D01*
G01X11557574Y-5270348D01*
G01X11560656Y-5279773D01*
G01X11569532Y-5283046D01*
G01X11569532Y-5283046D01*
G01X11578963Y-5286759D01*
G01X11584809Y-5295744D01*
G01X11584809Y-5295744D01*
G01X11590127Y-5304711D01*
G01X11598248Y-5308441D01*
G01X11598248Y-5308441D01*
G01X11609123Y-5312171D01*
G01X11621063Y-5321139D01*
G01X11621063Y-5321139D01*
G01X11633761Y-5330106D01*
G01X11646459Y-5333836D01*
G01X11646459Y-5333836D01*
G01X11655496Y-5336639D01*
G01X11659157Y-5343559D01*
G01X11659157Y-5343559D01*
G01X11662420Y-5351642D01*
G01X11670267Y-5357425D01*
G01X11670267Y-5357425D01*
G01X11689674Y-5373097D01*
G01X11689674Y-5373097D01*
G01X11700918Y-5381355D01*
G01X11716657Y-5384626D01*
G01X11716657Y-5384626D01*
G01X11731420Y-5387292D01*
G01X11735343Y-5397324D01*
G01X11735343Y-5397324D01*
G01X11738425Y-5406748D01*
G01X11747301Y-5410021D01*
G01X11747301Y-5410021D01*
G01X11756732Y-5413735D01*
G01X11762578Y-5422719D01*
G01X11762578Y-5422719D01*
G01X11767896Y-5431686D01*
G01X11776017Y-5435416D01*
G01X11776017Y-5435416D01*
G01X11786892Y-5439146D01*
G01X11798832Y-5448114D01*
G01X11798832Y-5448114D01*
G01X11811530Y-5457081D01*
G01X11824228Y-5460811D01*
G01X11824228Y-5460811D01*
G01X11833265Y-5463614D01*
G01X11836926Y-5470534D01*
G01X11836926Y-5470534D01*
G01X11840189Y-5478617D01*
G01X11848036Y-5484400D01*
G01X11848036Y-5484400D01*
G01X11867443Y-5500073D01*
G01X11867443Y-5500073D01*
G01X11878687Y-5508330D01*
G01X11894426Y-5511601D01*
G01X11894426Y-5511601D01*
G01X11909189Y-5514267D01*
G01X11913112Y-5524299D01*
G01X11913112Y-5524299D01*
G01X11916194Y-5533724D01*
G01X11925070Y-5536996D01*
G01X11925070Y-5536996D01*
G01X11934501Y-5540710D01*
G01X11940347Y-5549694D01*
G01X11940347Y-5549694D01*
G01X11946254Y-5558739D01*
G01X11955976Y-5562391D01*
G01X11955976Y-5562391D01*
G01X11968044Y-5566121D01*
G01X11979776Y-5575089D01*
G01X11979776Y-5575089D01*
G01X11991333Y-5584056D01*
G01X12002981Y-5587786D01*
G01X12002981Y-5587786D01*
G01X12011254Y-5590642D01*
G01X12014695Y-5597509D01*
G01X12014695Y-5597509D01*
G01X12017959Y-5605592D01*
G01X12025805Y-5611375D01*
G01X12025805Y-5611375D01*
G01X12045212Y-5627048D01*
G01X12045212Y-5627048D01*
G01X12056456Y-5635305D01*
G01X12072195Y-5638576D01*
G01X12072195Y-5638576D01*
G01X12086958Y-5641242D01*
G01X12090882Y-5651274D01*
G01X12090882Y-5651274D01*
G01X12094056Y-5660797D01*
G01X12103579Y-5663971D01*
G01X12103579Y-5663971D01*
G01X12112617Y-5666774D01*
G01X12116277Y-5673694D01*
G01X12116277Y-5673694D01*
G01X12119541Y-5681737D01*
G01X12127388Y-5687423D01*
G01X12127388Y-5687423D01*
G01X12148022Y-5698826D01*
G01X12148022Y-5698826D01*
G01X14044403Y-7591010D01*
G01X15925615Y-9474799D01*
G01X15925615Y-9474799D01*
G01X15912917Y-9492273D01*
G01X15912917Y-9492273D01*
G01X15903950Y-9504038D01*
G01X15900220Y-9514493D01*
G01X15900220Y-9514493D01*
G01X15896516Y-9521239D01*
G01X15887522Y-9524016D01*
G01X15887522Y-9524016D01*
G01X15877998Y-9527191D01*
G01X15874824Y-9536714D01*
G01X15874824Y-9536714D01*
G01X15871649Y-9546237D01*
G01X15862126Y-9549411D01*
G01X15862126Y-9549411D01*
G01X15852696Y-9552498D01*
G01X15849428Y-9561402D01*
G01X15849428Y-9561402D01*
G01X15844348Y-9571605D01*
G01X15827207Y-9577562D01*
G01X15827207Y-9577562D01*
G01X15811109Y-9583127D01*
G01X15804986Y-9590966D01*
G01X15804986Y-9590966D01*
G01X15801114Y-9597511D01*
G01X15791694Y-9600202D01*
G01X15791694Y-9600202D01*
G01X15781259Y-9603609D01*
G01X15775241Y-9612288D01*
G01X15775241Y-9612288D01*
G01X15767117Y-9622127D01*
G01X15747416Y-9626726D01*
G01X15722751Y-9629078D01*
G01X13321134Y-7227507D01*
G01X13321134Y-7227507D01*
G01X11454904Y-5358148D01*
G01X11051627Y-4950466D01*
G01X10933798Y-4825935D01*
G01X10933798Y-4825935D01*
G01X10944708Y-4828934D01*
G01X10948080Y-4838633D01*
G37*
G36*
G01X12398800Y-7467011D02*
G01X14633608Y-9701782D01*
G01X14452664Y-9701782D01*
G01X14271720Y-9701782D01*
G01X12216168Y-7646266D01*
G01X10160614Y-5590751D01*
G01X10162303Y-5411495D01*
G01X10163991Y-5232240D01*
G01X12398800Y-7467011D01*
G37*
G36*
G01X12144843Y-7720961D02*
G01X14125695Y-9701782D01*
G01X14101297Y-9701782D01*
G01X14101297Y-9701782D01*
G01X14081262Y-9704411D01*
G01X14073577Y-9714479D01*
G01X14073577Y-9714479D01*
G01X14067730Y-9723463D01*
G01X14058299Y-9727177D01*
G01X14058299Y-9727177D01*
G01X14049424Y-9730449D01*
G01X14046342Y-9739874D01*
G01X14046342Y-9739874D01*
G01X14042801Y-9749695D01*
G01X14030717Y-9752572D01*
G01X14030717Y-9752572D01*
G01X14016345Y-9756003D01*
G01X14003734Y-9764253D01*
G01X14003734Y-9764253D01*
G01X13981266Y-9779925D01*
G01X13981266Y-9779925D01*
G01X13973419Y-9785600D01*
G01X13970155Y-9793639D01*
G01X13970155Y-9793639D01*
G01X13966714Y-9800506D01*
G01X13958441Y-9803362D01*
G01X13958441Y-9803362D01*
G01X13946793Y-9807092D01*
G01X13935236Y-9816059D01*
G01X13935236Y-9816059D01*
G01X13926298Y-9826859D01*
G01X13918301Y-9826750D01*
G01X13903626Y-9818773D01*
G01X13841266Y-9766625D01*
G01X13713262Y-9645235D01*
G01X13156500Y-9094020D01*
G01X12025700Y-7963704D01*
G01X10160614Y-6098651D01*
G01X10162303Y-5919395D01*
G01X10163991Y-5740139D01*
G01X12144843Y-7720961D01*
G37*
G36*
G01X7178423Y-8341469D02*
G01X7178423Y-8341469D01*
G01X8251193Y-9414967D01*
G01X8800221Y-9968760D01*
G01X8931321Y-10105009D01*
G01X8995074Y-10176421D01*
G01X9012674Y-10204693D01*
G01X9010791Y-10209432D01*
G01X9005318Y-10211522D01*
G01X9005318Y-10211522D01*
G01X8996350Y-10216621D01*
G01X8992620Y-10224219D01*
G01X8992620Y-10224219D01*
G01X8988890Y-10231817D01*
G01X8979922Y-10236917D01*
G01X8979922Y-10236917D01*
G01X8970954Y-10242016D01*
G01X8967224Y-10249614D01*
G01X8967224Y-10249614D01*
G01X8963494Y-10257212D01*
G01X8954527Y-10262312D01*
G01X8954527Y-10262312D01*
G01X8945559Y-10267411D01*
G01X8941829Y-10275009D01*
G01X8941829Y-10275009D01*
G01X8938099Y-10282607D01*
G01X8929131Y-10287707D01*
G01X8929131Y-10287707D01*
G01X8920163Y-10292806D01*
G01X8916433Y-10300404D01*
G01X8916433Y-10300404D01*
G01X8912703Y-10308002D01*
G01X8903735Y-10313102D01*
G01X8903735Y-10313102D01*
G01X8894768Y-10318201D01*
G01X8891038Y-10325799D01*
G01X8891038Y-10325799D01*
G01X8887308Y-10333397D01*
G01X8878340Y-10338497D01*
G01X8878340Y-10338497D01*
G01X8869372Y-10343814D01*
G01X8865642Y-10351935D01*
G01X8865642Y-10351935D01*
G01X8864749Y-10357718D01*
G01X8860362Y-10359192D01*
G01X8830844Y-10339162D01*
G01X8756574Y-10271756D01*
G01X8617035Y-10136883D01*
G01X8060092Y-9584374D01*
G01X6995892Y-8520913D01*
G01X6995892Y-8520913D01*
G01X5565561Y-7087444D01*
G01X5257637Y-6775114D01*
G01X5169001Y-6679773D01*
G01X5169001Y-6679773D01*
G01X5179910Y-6676774D01*
G01X5183282Y-6667075D01*
G01X5183282Y-6667075D01*
G01X5186457Y-6657552D01*
G01X5195980Y-6654378D01*
G01X5195980Y-6654378D01*
G01X5205503Y-6651203D01*
G01X5208678Y-6641680D01*
G01X5208678Y-6641680D01*
G01X5211852Y-6632157D01*
G01X5221375Y-6628983D01*
G01X5221375Y-6628983D01*
G01X5230899Y-6625808D01*
G01X5234073Y-6616285D01*
G01X5234073Y-6616285D01*
G01X5237248Y-6606762D01*
G01X5246771Y-6603588D01*
G01X5246771Y-6603588D01*
G01X5256294Y-6600413D01*
G01X5259469Y-6590890D01*
G01X5259469Y-6590890D01*
G01X5262643Y-6581367D01*
G01X5272167Y-6578193D01*
G01X5272167Y-6578193D01*
G01X5281690Y-6575018D01*
G01X5284864Y-6565495D01*
G01X5284864Y-6565495D01*
G01X5288039Y-6555972D01*
G01X5297562Y-6552798D01*
G01X5297562Y-6552798D01*
G01X5307085Y-6549623D01*
G01X5310260Y-6540100D01*
G01X5310260Y-6540100D01*
G01X5313379Y-6530634D01*
G01X5322516Y-6527403D01*
G01X5322516Y-6527403D01*
G01X5331969Y-6523896D01*
G01X5336801Y-6514610D01*
G01X5336801Y-6514610D01*
G01X5427606Y-6598326D01*
G01X5731253Y-6897419D01*
G01X7178423Y-8341469D01*
G37*
G36*
G01X5642242Y-6362335D02*
G01X5642242Y-6362335D01*
G01X5645241Y-6368853D01*
G01X5651305Y-6372714D01*
G01X5680335Y-6375032D01*
G01X5680335Y-6375032D01*
G01X5709365Y-6377351D01*
G01X5715430Y-6381212D01*
G01X5718429Y-6387730D01*
G01X5718429Y-6387730D01*
G01X5723746Y-6396698D01*
G01X5731867Y-6400427D01*
G01X5731867Y-6400427D01*
G01X5739013Y-6403283D01*
G01X5741985Y-6410150D01*
G01X5741985Y-6410150D01*
G01X5744745Y-6418075D01*
G01X5751380Y-6423477D01*
G01X5751380Y-6423477D01*
G01X6433061Y-7099421D01*
G01X6433061Y-7099421D01*
G01X7110957Y-7771759D01*
G01X7110957Y-7771759D01*
G01X7217581Y-7874280D01*
G01X7445033Y-8100373D01*
G01X7671116Y-8327836D01*
G01X7773632Y-8434465D01*
G01X7773632Y-8434465D01*
G01X8445985Y-9112301D01*
G01X8445985Y-9112301D01*
G01X9121943Y-9793967D01*
G01X9121943Y-9793967D01*
G01X9127138Y-9800602D01*
G01X9134564Y-9803362D01*
G01X9134564Y-9803362D01*
G01X9142221Y-9809595D01*
G01X9147749Y-9825582D01*
G01X9147749Y-9825582D01*
G01X9153314Y-9841681D01*
G01X9161153Y-9847803D01*
G01X9161153Y-9847803D01*
G01X9166481Y-9855613D01*
G01X9170007Y-9876242D01*
G01X9171963Y-9939136D01*
G01X9167649Y-10002852D01*
G01X9163337Y-10024508D01*
G01X9157691Y-10033756D01*
G01X9157691Y-10033756D01*
G01X9147695Y-10041225D01*
G01X9144994Y-10059892D01*
G01X9144994Y-10059892D01*
G01X9142523Y-10078268D01*
G01X9132296Y-10082707D01*
G01X9132296Y-10082707D01*
G01X9122772Y-10085882D01*
G01X9119598Y-10095405D01*
G01X9119598Y-10095405D01*
G01X9118943Y-10101949D01*
G01X9115204Y-10104520D01*
G01X9087838Y-10087339D01*
G01X9016225Y-10023056D01*
G01X8879091Y-9890868D01*
G01X8323160Y-9339555D01*
G01X7249848Y-8266962D01*
G01X7249848Y-8266962D01*
G01X5849805Y-6863780D01*
G01X5522675Y-6532521D01*
G01X5421973Y-6425822D01*
G01X5421973Y-6425822D01*
G01X5434740Y-6422093D01*
G01X5446761Y-6413125D01*
G01X5446761Y-6413125D01*
G01X5458493Y-6404157D01*
G01X5470561Y-6400427D01*
G01X5470561Y-6400427D01*
G01X5480283Y-6396775D01*
G01X5486190Y-6387730D01*
G01X5486190Y-6387730D01*
G01X5489102Y-6381313D01*
G01X5494751Y-6377441D01*
G01X5520460Y-6375032D01*
G01X5520460Y-6375032D01*
G01X5546615Y-6372387D01*
G01X5559341Y-6362335D01*
G01X5559341Y-6362335D01*
G01X5572765Y-6352139D01*
G01X5603096Y-6349637D01*
G01X5603096Y-6349637D01*
G01X5633042Y-6351934D01*
G01X5639220Y-6355793D01*
G01X5642242Y-6362335D01*
G37*
G36*
G01X11991554Y-8075576D02*
G01X11991554Y-8075576D01*
G01X13473458Y-9560624D01*
G01X13740965Y-9833264D01*
G01X13793406Y-9889506D01*
G01X13805752Y-9906607D01*
G01X13805752Y-9906607D01*
G01X13796312Y-9912047D01*
G01X13792386Y-9920220D01*
G01X13792386Y-9920220D01*
G01X13788961Y-9927379D01*
G01X13780672Y-9930337D01*
G01X13780672Y-9930337D01*
G01X13769024Y-9934067D01*
G01X13757467Y-9943034D01*
G01X13757467Y-9943034D01*
G01X13745736Y-9952002D01*
G01X13733667Y-9955732D01*
G01X13733667Y-9955732D01*
G01X13723945Y-9959385D01*
G01X13718038Y-9968429D01*
G01X13718038Y-9968429D01*
G01X13712192Y-9977414D01*
G01X13702761Y-9981127D01*
G01X13702761Y-9981127D01*
G01X13693886Y-9984400D01*
G01X13690804Y-9993825D01*
G01X13690804Y-9993825D01*
G01X13687224Y-10003670D01*
G01X13674869Y-10006522D01*
G01X13674869Y-10006522D01*
G01X13660422Y-10010252D01*
G01X13648063Y-10019220D01*
G01X13648063Y-10019220D01*
G01X13628873Y-10031917D01*
G01X13628873Y-10031917D01*
G01X13621630Y-10035618D01*
G01X13615896Y-10044516D01*
G01X13615896Y-10044516D01*
G01X13600157Y-10033700D01*
G01X13548698Y-9986161D01*
G01X13295489Y-9738205D01*
G01X11885925Y-8331832D01*
G01X10160614Y-6606551D01*
G01X10162303Y-6427295D01*
G01X10163991Y-6248039D01*
G01X11991554Y-8075576D01*
G37*
G36*
G01X6938996Y-8610040D02*
G01X6938996Y-8610040D01*
G01X8359261Y-10033442D01*
G01X8664983Y-10343570D01*
G01X8752945Y-10438238D01*
G01X8752945Y-10438238D01*
G01X8739129Y-10441967D01*
G01X8725966Y-10450935D01*
G01X8725966Y-10450935D01*
G01X8714941Y-10456497D01*
G01X8696169Y-10460728D01*
G01X8646749Y-10464929D01*
G01X8600431Y-10462998D01*
G01X8585538Y-10459565D01*
G01X8579942Y-10454397D01*
G01X8579942Y-10454397D01*
G01X8573642Y-10446499D01*
G01X8556851Y-10440830D01*
G01X8556851Y-10440830D01*
G01X8537069Y-10434296D01*
G01X8521932Y-10424670D01*
G01X8521932Y-10424670D01*
G01X8510066Y-10416317D01*
G01X8498146Y-10412843D01*
G01X8498146Y-10412843D01*
G01X8488715Y-10409129D01*
G01X8482869Y-10400145D01*
G01X8482869Y-10400145D01*
G01X8477769Y-10391177D01*
G01X8470171Y-10387448D01*
G01X8470171Y-10387448D01*
G01X8462573Y-10383718D01*
G01X8457473Y-10374750D01*
G01X8457473Y-10374750D01*
G01X8452374Y-10365782D01*
G01X8444776Y-10362052D01*
G01X8444776Y-10362052D01*
G01X8437177Y-10358323D01*
G01X8432078Y-10349355D01*
G01X8432078Y-10349355D01*
G01X8426978Y-10340387D01*
G01X8419380Y-10336657D01*
G01X8419380Y-10336657D01*
G01X8411782Y-10332928D01*
G01X8406682Y-10323960D01*
G01X8406682Y-10323960D01*
G01X8401582Y-10314992D01*
G01X8393984Y-10311262D01*
G01X8393984Y-10311262D01*
G01X8386386Y-10307533D01*
G01X8381287Y-10298565D01*
G01X8381287Y-10298565D01*
G01X8376187Y-10289597D01*
G01X8368589Y-10285867D01*
G01X8368589Y-10285867D01*
G01X8360990Y-10282137D01*
G01X8355891Y-10273170D01*
G01X8355891Y-10273170D01*
G01X8350791Y-10264202D01*
G01X8343193Y-10260472D01*
G01X8343193Y-10260472D01*
G01X8335595Y-10256742D01*
G01X8330495Y-10247775D01*
G01X8330495Y-10247775D01*
G01X8325396Y-10238807D01*
G01X8317798Y-10235077D01*
G01X8317798Y-10235077D01*
G01X8310199Y-10231347D01*
G01X8305100Y-10222380D01*
G01X8305100Y-10222380D01*
G01X8300000Y-10213412D01*
G01X8292402Y-10209682D01*
G01X8292402Y-10209682D01*
G01X8284804Y-10205952D01*
G01X8279704Y-10196985D01*
G01X8279704Y-10196985D01*
G01X8274604Y-10188017D01*
G01X8267007Y-10184287D01*
G01X8267007Y-10184287D01*
G01X8259408Y-10180557D01*
G01X8254309Y-10171590D01*
G01X8254309Y-10171590D01*
G01X8249209Y-10162622D01*
G01X8241611Y-10158892D01*
G01X8241611Y-10158892D01*
G01X8234013Y-10155162D01*
G01X8228913Y-10146195D01*
G01X8228913Y-10146195D01*
G01X8223813Y-10137227D01*
G01X8216215Y-10133497D01*
G01X8216215Y-10133497D01*
G01X8208617Y-10129767D01*
G01X8203518Y-10120800D01*
G01X8203518Y-10120800D01*
G01X8198418Y-10111832D01*
G01X8190820Y-10108102D01*
G01X8190820Y-10108102D01*
G01X8183221Y-10104372D01*
G01X8178122Y-10095405D01*
G01X8178122Y-10095405D01*
G01X8173022Y-10086437D01*
G01X8165424Y-10082707D01*
G01X8165424Y-10082707D01*
G01X8157826Y-10078977D01*
G01X8152726Y-10070010D01*
G01X8152726Y-10070010D01*
G01X8147626Y-10061042D01*
G01X8140029Y-10057312D01*
G01X8140029Y-10057312D01*
G01X8132430Y-10053582D01*
G01X8127331Y-10044615D01*
G01X8127331Y-10044615D01*
G01X8122231Y-10035647D01*
G01X8114633Y-10031917D01*
G01X8114633Y-10031917D01*
G01X8107035Y-10028187D01*
G01X8101935Y-10019220D01*
G01X8101935Y-10019220D01*
G01X8096835Y-10010252D01*
G01X8089237Y-10006522D01*
G01X8089237Y-10006522D01*
G01X8081639Y-10002792D01*
G01X8076540Y-9993825D01*
G01X8076540Y-9993825D01*
G01X8071440Y-9984857D01*
G01X8063842Y-9981127D01*
G01X8063842Y-9981127D01*
G01X8056243Y-9977397D01*
G01X8051144Y-9968429D01*
G01X8051144Y-9968429D01*
G01X8046044Y-9959462D01*
G01X8038446Y-9955732D01*
G01X8038446Y-9955732D01*
G01X8030848Y-9952002D01*
G01X8025748Y-9943034D01*
G01X8025748Y-9943034D01*
G01X8020649Y-9934067D01*
G01X8013051Y-9930337D01*
G01X8013051Y-9930337D01*
G01X8005452Y-9926607D01*
G01X8000353Y-9917639D01*
G01X8000353Y-9917639D01*
G01X7995253Y-9908672D01*
G01X7987655Y-9904942D01*
G01X7987655Y-9904942D01*
G01X7980057Y-9901212D01*
G01X7974957Y-9892244D01*
G01X7974957Y-9892244D01*
G01X7969857Y-9883277D01*
G01X7962259Y-9879547D01*
G01X7962259Y-9879547D01*
G01X7954661Y-9875817D01*
G01X7949562Y-9866849D01*
G01X7949562Y-9866849D01*
G01X7944462Y-9857882D01*
G01X7936864Y-9854152D01*
G01X7936864Y-9854152D01*
G01X7929266Y-9850422D01*
G01X7924166Y-9841454D01*
G01X7924166Y-9841454D01*
G01X7919066Y-9832487D01*
G01X7911468Y-9828757D01*
G01X7911468Y-9828757D01*
G01X7903870Y-9825027D01*
G01X7898771Y-9816059D01*
G01X7898771Y-9816059D01*
G01X7893671Y-9807092D01*
G01X7886073Y-9803362D01*
G01X7886073Y-9803362D01*
G01X7878474Y-9799632D01*
G01X7873375Y-9790664D01*
G01X7873375Y-9790664D01*
G01X7868275Y-9781697D01*
G01X7860677Y-9777967D01*
G01X7860677Y-9777967D01*
G01X7853079Y-9774237D01*
G01X7847979Y-9765269D01*
G01X7847979Y-9765269D01*
G01X7842879Y-9756302D01*
G01X7835282Y-9752572D01*
G01X7835282Y-9752572D01*
G01X7827683Y-9748842D01*
G01X7822584Y-9739874D01*
G01X7822584Y-9739874D01*
G01X7817484Y-9730907D01*
G01X7809886Y-9727177D01*
G01X7809886Y-9727177D01*
G01X7802288Y-9723447D01*
G01X7797188Y-9714479D01*
G01X7797188Y-9714479D01*
G01X7792088Y-9705512D01*
G01X7784490Y-9701782D01*
G01X7784490Y-9701782D01*
G01X7776892Y-9698052D01*
G01X7771793Y-9689084D01*
G01X7771793Y-9689084D01*
G01X7766693Y-9680117D01*
G01X7759095Y-9676387D01*
G01X7759095Y-9676387D01*
G01X7751496Y-9672657D01*
G01X7746397Y-9663689D01*
G01X7746397Y-9663689D01*
G01X7741297Y-9654721D01*
G01X7733699Y-9650992D01*
G01X7733699Y-9650992D01*
G01X7726101Y-9647262D01*
G01X7721001Y-9638294D01*
G01X7721001Y-9638294D01*
G01X7715901Y-9629326D01*
G01X7708304Y-9625597D01*
G01X7708304Y-9625597D01*
G01X7700705Y-9621867D01*
G01X7695606Y-9612899D01*
G01X7695606Y-9612899D01*
G01X7690506Y-9603931D01*
G01X7682908Y-9600202D01*
G01X7682908Y-9600202D01*
G01X7675310Y-9596472D01*
G01X7670210Y-9587504D01*
G01X7670210Y-9587504D01*
G01X7665110Y-9578536D01*
G01X7657512Y-9574806D01*
G01X7657512Y-9574806D01*
G01X7649914Y-9571077D01*
G01X7644815Y-9562109D01*
G01X7644815Y-9562109D01*
G01X7639715Y-9553141D01*
G01X7632117Y-9549411D01*
G01X7632117Y-9549411D01*
G01X7624518Y-9545682D01*
G01X7619419Y-9536714D01*
G01X7619419Y-9536714D01*
G01X7614319Y-9527746D01*
G01X7606721Y-9524016D01*
G01X7606721Y-9524016D01*
G01X7599123Y-9520287D01*
G01X7594023Y-9511319D01*
G01X7594023Y-9511319D01*
G01X7588924Y-9502351D01*
G01X7581326Y-9498621D01*
G01X7581326Y-9498621D01*
G01X7573727Y-9494891D01*
G01X7568628Y-9485924D01*
G01X7568628Y-9485924D01*
G01X7563528Y-9476956D01*
G01X7555930Y-9473226D01*
G01X7555930Y-9473226D01*
G01X7548332Y-9469496D01*
G01X7543232Y-9460529D01*
G01X7543232Y-9460529D01*
G01X7538132Y-9451561D01*
G01X7530535Y-9447831D01*
G01X7530535Y-9447831D01*
G01X7522936Y-9444101D01*
G01X7517837Y-9435134D01*
G01X7517837Y-9435134D01*
G01X7512737Y-9426166D01*
G01X7505139Y-9422436D01*
G01X7505139Y-9422436D01*
G01X7497541Y-9418706D01*
G01X7492441Y-9409739D01*
G01X7492441Y-9409739D01*
G01X7487341Y-9400771D01*
G01X7479743Y-9397041D01*
G01X7479743Y-9397041D01*
G01X7472145Y-9393311D01*
G01X7467046Y-9384344D01*
G01X7467046Y-9384344D01*
G01X7461946Y-9375376D01*
G01X7454348Y-9371646D01*
G01X7454348Y-9371646D01*
G01X7446749Y-9367916D01*
G01X7441650Y-9358949D01*
G01X7441650Y-9358949D01*
G01X7436332Y-9349981D01*
G01X7428211Y-9346251D01*
G01X7428211Y-9346251D01*
G01X7421066Y-9343279D01*
G01X7418094Y-9336134D01*
G01X7418094Y-9336134D01*
G01X7414364Y-9328013D01*
G01X7405396Y-9322695D01*
G01X7405396Y-9322695D01*
G01X7396428Y-9317596D01*
G01X7392698Y-9309998D01*
G01X7392698Y-9309998D01*
G01X7388968Y-9302400D01*
G01X7380000Y-9297300D01*
G01X7380000Y-9297300D01*
G01X7371032Y-9292201D01*
G01X7367302Y-9284603D01*
G01X7367302Y-9284603D01*
G01X7363572Y-9277005D01*
G01X7354605Y-9271905D01*
G01X7354605Y-9271905D01*
G01X7345637Y-9266806D01*
G01X7341907Y-9259208D01*
G01X7341907Y-9259208D01*
G01X7338177Y-9251610D01*
G01X7329209Y-9246510D01*
G01X7329209Y-9246510D01*
G01X7320241Y-9241411D01*
G01X7316511Y-9233813D01*
G01X7316511Y-9233813D01*
G01X7312781Y-9226215D01*
G01X7303813Y-9221115D01*
G01X7303813Y-9221115D01*
G01X7294846Y-9216016D01*
G01X7291116Y-9208418D01*
G01X7291116Y-9208418D01*
G01X7287386Y-9200820D01*
G01X7278418Y-9195720D01*
G01X7278418Y-9195720D01*
G01X7269450Y-9190621D01*
G01X7265720Y-9183023D01*
G01X7265720Y-9183023D01*
G01X7261990Y-9175425D01*
G01X7253022Y-9170325D01*
G01X7253022Y-9170325D01*
G01X7244055Y-9165226D01*
G01X7240325Y-9157628D01*
G01X7240325Y-9157628D01*
G01X7236595Y-9150030D01*
G01X7227627Y-9144930D01*
G01X7227627Y-9144930D01*
G01X7218659Y-9139831D01*
G01X7214929Y-9132233D01*
G01X7214929Y-9132233D01*
G01X7211199Y-9124635D01*
G01X7202231Y-9119535D01*
G01X7202231Y-9119535D01*
G01X7193263Y-9114436D01*
G01X7189533Y-9106838D01*
G01X7189533Y-9106838D01*
G01X7185976Y-9099285D01*
G01X7177423Y-9094294D01*
G01X7177423Y-9094294D01*
G01X7167939Y-9088500D01*
G01X7162145Y-9079016D01*
G01X7162145Y-9079016D01*
G01X7151183Y-9069402D01*
G01X7130486Y-9066054D01*
G01X7108349Y-9069042D01*
G01X7093073Y-9078435D01*
G01X7093073Y-9078435D01*
G01X7085862Y-9086899D01*
G01X7076540Y-9089368D01*
G01X7061224Y-9082509D01*
G01X7036030Y-9062992D01*
G01X6940471Y-8972660D01*
G01X6758794Y-8791720D01*
G01X6758794Y-8791720D01*
G01X6578831Y-8610693D01*
G01X6484993Y-8511522D01*
G01X6463345Y-8484572D01*
G01X6454797Y-8468416D01*
G01X6456538Y-8459828D01*
G01X6465759Y-8455586D01*
G01X6465759Y-8455586D01*
G01X6471823Y-8451291D01*
G01X6476197Y-8442923D01*
G01X6479833Y-8419401D01*
G01X6476579Y-8395884D01*
G01X6472340Y-8387521D01*
G01X6466346Y-8383233D01*
G01X6466346Y-8383233D01*
G01X6456863Y-8377439D01*
G01X6451068Y-8367955D01*
G01X6451068Y-8367955D01*
G01X6446077Y-8359402D01*
G01X6438524Y-8355845D01*
G01X6438524Y-8355845D01*
G01X6430926Y-8352115D01*
G01X6425826Y-8343147D01*
G01X6425826Y-8343147D01*
G01X6420727Y-8334180D01*
G01X6413129Y-8330450D01*
G01X6413129Y-8330450D01*
G01X6405530Y-8326720D01*
G01X6400431Y-8317752D01*
G01X6400431Y-8317752D01*
G01X6395331Y-8308785D01*
G01X6387733Y-8305055D01*
G01X6387733Y-8305055D01*
G01X6380135Y-8301325D01*
G01X6375035Y-8292357D01*
G01X6375035Y-8292357D01*
G01X6369935Y-8283390D01*
G01X6362338Y-8279660D01*
G01X6362338Y-8279660D01*
G01X6354739Y-8275930D01*
G01X6349640Y-8266962D01*
G01X6349640Y-8266962D01*
G01X6344540Y-8257995D01*
G01X6336942Y-8254265D01*
G01X6336942Y-8254265D01*
G01X6329344Y-8250535D01*
G01X6324244Y-8241567D01*
G01X6324244Y-8241567D01*
G01X6319144Y-8232600D01*
G01X6311546Y-8228870D01*
G01X6311546Y-8228870D01*
G01X6303948Y-8225140D01*
G01X6298849Y-8216172D01*
G01X6298849Y-8216172D01*
G01X6293531Y-8207205D01*
G01X6285410Y-8203475D01*
G01X6285410Y-8203475D01*
G01X6278264Y-8200503D01*
G01X6275292Y-8193357D01*
G01X6275292Y-8193357D01*
G01X6271562Y-8185236D01*
G01X6262594Y-8179919D01*
G01X6262594Y-8179919D01*
G01X6253627Y-8174820D01*
G01X6249897Y-8167221D01*
G01X6249897Y-8167221D01*
G01X6246167Y-8159624D01*
G01X6237199Y-8154524D01*
G01X6237199Y-8154524D01*
G01X6228231Y-8149425D01*
G01X6224501Y-8141826D01*
G01X6224501Y-8141826D01*
G01X6220771Y-8134229D01*
G01X6211803Y-8129129D01*
G01X6211803Y-8129129D01*
G01X6202835Y-8124030D01*
G01X6199105Y-8116431D01*
G01X6199105Y-8116431D01*
G01X6195376Y-8108834D01*
G01X6186408Y-8103734D01*
G01X6186408Y-8103734D01*
G01X6177440Y-8098635D01*
G01X6173710Y-8091036D01*
G01X6173710Y-8091036D01*
G01X6169980Y-8083439D01*
G01X6161012Y-8078339D01*
G01X6161012Y-8078339D01*
G01X6152044Y-8073239D01*
G01X6148314Y-8065641D01*
G01X6148314Y-8065641D01*
G01X6144584Y-8058044D01*
G01X6135617Y-8052944D01*
G01X6135617Y-8052944D01*
G01X6126649Y-8047844D01*
G01X6122919Y-8040246D01*
G01X6122919Y-8040246D01*
G01X6119189Y-8032649D01*
G01X6110221Y-8027549D01*
G01X6110221Y-8027549D01*
G01X6101253Y-8022449D01*
G01X6097523Y-8014851D01*
G01X6097523Y-8014851D01*
G01X6093793Y-8007254D01*
G01X6084825Y-8002154D01*
G01X6084825Y-8002154D01*
G01X6075858Y-7997054D01*
G01X6072128Y-7989456D01*
G01X6072128Y-7989456D01*
G01X6068398Y-7981858D01*
G01X6059430Y-7976759D01*
G01X6059430Y-7976759D01*
G01X6050462Y-7971659D01*
G01X6046732Y-7964061D01*
G01X6046732Y-7964061D01*
G01X6043002Y-7956463D01*
G01X6034034Y-7951364D01*
G01X6034034Y-7951364D01*
G01X6025066Y-7946264D01*
G01X6021336Y-7938666D01*
G01X6021336Y-7938666D01*
G01X6017779Y-7931114D01*
G01X6009226Y-7926122D01*
G01X6009226Y-7926122D01*
G01X5999742Y-7920328D01*
G01X5993948Y-7910845D01*
G01X5993948Y-7910845D01*
G01X5988956Y-7902292D01*
G01X5981404Y-7898734D01*
G01X5981404Y-7898734D01*
G01X5973805Y-7895004D01*
G01X5968706Y-7886037D01*
G01X5968706Y-7886037D01*
G01X5963606Y-7877069D01*
G01X5956008Y-7873339D01*
G01X5956008Y-7873339D01*
G01X5948410Y-7869609D01*
G01X5943310Y-7860642D01*
G01X5943310Y-7860642D01*
G01X5938210Y-7851674D01*
G01X5930613Y-7847944D01*
G01X5930613Y-7847944D01*
G01X5923014Y-7844214D01*
G01X5917915Y-7835247D01*
G01X5917915Y-7835247D01*
G01X5912815Y-7826279D01*
G01X5905217Y-7822549D01*
G01X5905217Y-7822549D01*
G01X5897619Y-7818819D01*
G01X5892519Y-7809852D01*
G01X5892519Y-7809852D01*
G01X5887419Y-7800884D01*
G01X5879821Y-7797154D01*
G01X5879821Y-7797154D01*
G01X5872223Y-7793424D01*
G01X5867124Y-7784457D01*
G01X5867124Y-7784457D01*
G01X5862024Y-7775489D01*
G01X5854426Y-7771759D01*
G01X5854426Y-7771759D01*
G01X5846827Y-7768029D01*
G01X5841728Y-7759062D01*
G01X5841728Y-7759062D01*
G01X5836628Y-7750094D01*
G01X5829030Y-7746364D01*
G01X5829030Y-7746364D01*
G01X5821432Y-7742634D01*
G01X5816332Y-7733667D01*
G01X5816332Y-7733667D01*
G01X5811233Y-7724699D01*
G01X5803635Y-7720969D01*
G01X5803635Y-7720969D01*
G01X5796036Y-7717239D01*
G01X5790937Y-7708272D01*
G01X5790937Y-7708272D01*
G01X5785837Y-7699304D01*
G01X5778239Y-7695574D01*
G01X5778239Y-7695574D01*
G01X5770641Y-7691844D01*
G01X5765541Y-7682877D01*
G01X5765541Y-7682877D01*
G01X5760441Y-7673909D01*
G01X5752843Y-7670179D01*
G01X5752843Y-7670179D01*
G01X5745245Y-7666449D01*
G01X5740146Y-7657482D01*
G01X5740146Y-7657482D01*
G01X5735046Y-7648514D01*
G01X5727448Y-7644784D01*
G01X5727448Y-7644784D01*
G01X5719850Y-7641054D01*
G01X5714750Y-7632087D01*
G01X5714750Y-7632087D01*
G01X5709650Y-7623119D01*
G01X5702052Y-7619389D01*
G01X5702052Y-7619389D01*
G01X5694454Y-7615659D01*
G01X5689354Y-7606691D01*
G01X5689354Y-7606691D01*
G01X5684037Y-7597724D01*
G01X5675916Y-7593994D01*
G01X5675916Y-7593994D01*
G01X5668770Y-7591022D01*
G01X5665798Y-7583877D01*
G01X5665798Y-7583877D01*
G01X5662068Y-7575756D01*
G01X5653100Y-7570438D01*
G01X5653100Y-7570438D01*
G01X5644133Y-7565339D01*
G01X5640403Y-7557741D01*
G01X5640403Y-7557741D01*
G01X5636673Y-7550143D01*
G01X5627705Y-7545043D01*
G01X5627705Y-7545043D01*
G01X5618737Y-7539944D01*
G01X5615007Y-7532346D01*
G01X5615007Y-7532346D01*
G01X5611277Y-7524748D01*
G01X5602309Y-7519648D01*
G01X5602309Y-7519648D01*
G01X5593341Y-7514549D01*
G01X5589611Y-7506951D01*
G01X5589611Y-7506951D01*
G01X5585881Y-7499353D01*
G01X5576914Y-7494253D01*
G01X5576914Y-7494253D01*
G01X5567946Y-7489154D01*
G01X5564216Y-7481556D01*
G01X5564216Y-7481556D01*
G01X5560486Y-7473958D01*
G01X5551518Y-7468858D01*
G01X5551518Y-7468858D01*
G01X5542550Y-7463759D01*
G01X5538820Y-7456161D01*
G01X5538820Y-7456161D01*
G01X5535090Y-7448563D01*
G01X5526122Y-7443463D01*
G01X5526122Y-7443463D01*
G01X5517155Y-7438364D01*
G01X5513425Y-7430765D01*
G01X5513425Y-7430765D01*
G01X5509695Y-7423168D01*
G01X5500727Y-7418068D01*
G01X5500727Y-7418068D01*
G01X5491759Y-7412969D01*
G01X5488029Y-7405370D01*
G01X5488029Y-7405370D01*
G01X5484299Y-7397773D01*
G01X5475331Y-7392673D01*
G01X5475331Y-7392673D01*
G01X5466363Y-7387574D01*
G01X5462633Y-7379975D01*
G01X5462633Y-7379975D01*
G01X5459076Y-7372423D01*
G01X5450523Y-7367432D01*
G01X5450523Y-7367432D01*
G01X5441039Y-7361638D01*
G01X5435245Y-7352154D01*
G01X5435245Y-7352154D01*
G01X5430254Y-7343601D01*
G01X5422701Y-7340044D01*
G01X5422701Y-7340044D01*
G01X5415102Y-7336314D01*
G01X5410003Y-7327346D01*
G01X5410003Y-7327346D01*
G01X5404903Y-7318378D01*
G01X5397305Y-7314649D01*
G01X5397305Y-7314649D01*
G01X5389707Y-7310919D01*
G01X5384607Y-7301951D01*
G01X5384607Y-7301951D01*
G01X5379508Y-7292983D01*
G01X5371910Y-7289254D01*
G01X5371910Y-7289254D01*
G01X5364311Y-7285524D01*
G01X5359212Y-7276556D01*
G01X5359212Y-7276556D01*
G01X5354112Y-7267588D01*
G01X5346514Y-7263859D01*
G01X5346514Y-7263859D01*
G01X5338916Y-7260129D01*
G01X5333816Y-7251161D01*
G01X5333816Y-7251161D01*
G01X5328499Y-7242193D01*
G01X5320378Y-7238463D01*
G01X5320378Y-7238463D01*
G01X5313232Y-7235492D01*
G01X5310260Y-7228346D01*
G01X5310260Y-7228346D01*
G01X5306702Y-7220270D01*
G01X5298149Y-7215061D01*
G01X5298149Y-7215061D01*
G01X5288666Y-7209267D01*
G01X5282871Y-7199784D01*
G01X5282871Y-7199784D01*
G01X5277880Y-7191231D01*
G01X5270327Y-7187673D01*
G01X5270327Y-7187673D01*
G01X5262729Y-7183944D01*
G01X5257630Y-7174976D01*
G01X5257630Y-7174976D01*
G01X5252530Y-7166008D01*
G01X5244932Y-7162278D01*
G01X5244932Y-7162278D01*
G01X5237333Y-7158549D01*
G01X5232234Y-7149581D01*
G01X5232234Y-7149581D01*
G01X5227134Y-7140613D01*
G01X5219536Y-7136883D01*
G01X5219536Y-7136883D01*
G01X5211938Y-7133153D01*
G01X5206838Y-7124186D01*
G01X5206838Y-7124186D01*
G01X5201521Y-7115218D01*
G01X5193400Y-7111488D01*
G01X5193400Y-7111488D01*
G01X5186254Y-7108516D01*
G01X5183282Y-7101371D01*
G01X5183282Y-7101371D01*
G01X5179725Y-7093295D01*
G01X5171172Y-7088086D01*
G01X5171172Y-7088086D01*
G01X5161688Y-7082292D01*
G01X5155894Y-7072809D01*
G01X5155894Y-7072809D01*
G01X5150684Y-7064256D01*
G01X5142608Y-7060698D01*
G01X5142608Y-7060698D01*
G01X5135343Y-7057119D01*
G01X5132491Y-7048001D01*
G01X5132491Y-7048001D01*
G01X5129316Y-7038478D01*
G01X5119793Y-7035303D01*
G01X5119793Y-7035303D01*
G01X5109566Y-7030864D01*
G01X5107095Y-7012488D01*
G01X5107095Y-7012488D01*
G01X5104380Y-6993782D01*
G01X5094240Y-6986312D01*
G01X5094240Y-6986312D01*
G01X5087823Y-6976234D01*
G01X5083525Y-6952895D01*
G01X5080970Y-6884249D01*
G01X5085945Y-6816009D01*
G01X5091060Y-6793177D01*
G01X5097820Y-6783811D01*
G01X5097820Y-6783811D01*
G01X5193236Y-6872086D01*
G01X5498274Y-7172526D01*
G01X6938996Y-8610040D01*
G37*
G36*
G01X11838513Y-8430438D02*
G01X11838513Y-8430438D01*
G01X12822574Y-9415175D01*
G01X13323329Y-9920753D01*
G01X13441098Y-10043785D01*
G01X13496400Y-10106939D01*
G01X13506704Y-10122303D01*
G01X13508686Y-10130186D01*
G01X13504777Y-10133085D01*
G01X13497410Y-10133497D01*
G01X13497410Y-10133497D01*
G01X13483038Y-10136929D01*
G01X13470427Y-10145178D01*
G01X13470427Y-10145178D01*
G01X13447958Y-10160851D01*
G01X13447958Y-10160851D01*
G01X13440111Y-10166526D01*
G01X13436848Y-10174565D01*
G01X13436848Y-10174565D01*
G01X13433407Y-10181431D01*
G01X13425134Y-10184287D01*
G01X13425134Y-10184287D01*
G01X13413485Y-10188017D01*
G01X13401929Y-10196985D01*
G01X13401929Y-10196985D01*
G01X13390197Y-10205952D01*
G01X13378129Y-10209682D01*
G01X13378129Y-10209682D01*
G01X13368407Y-10213335D01*
G01X13362500Y-10222380D01*
G01X13362500Y-10222380D01*
G01X13356654Y-10231364D01*
G01X13347223Y-10235077D01*
G01X13347223Y-10235077D01*
G01X13338347Y-10238350D01*
G01X13335265Y-10247775D01*
G01X13335265Y-10247775D01*
G01X13334653Y-10254343D01*
G01X13331313Y-10257298D01*
G01X13307413Y-10243568D01*
G01X13245505Y-10188987D01*
G01X13127525Y-10075960D01*
G01X12651103Y-9604182D01*
G01X11733650Y-8687462D01*
G01X10160614Y-7114451D01*
G01X10162303Y-6935195D01*
G01X10163991Y-6755939D01*
G01X11838513Y-8430438D01*
G37*
G36*
G01X12725771Y-6107943D02*
G01X12725771Y-6107943D01*
G01X12729471Y-6117550D01*
G01X12740056Y-6122227D01*
G01X12740056Y-6122227D01*
G01X12750145Y-6126458D01*
G01X12754341Y-6133780D01*
G01X12754341Y-6133780D01*
G01X12755168Y-6139463D01*
G01X12759192Y-6142762D01*
G01X12786086Y-6145684D01*
G01X12786086Y-6145684D01*
G01X12798288Y-6149230D01*
G01X12801958Y-6159175D01*
G01X12801958Y-6159175D01*
G01X12805040Y-6168599D01*
G01X12813915Y-6171872D01*
G01X12813915Y-6171872D01*
G01X12823347Y-6175586D01*
G01X12829193Y-6184570D01*
G01X12829193Y-6184570D01*
G01X12835099Y-6193614D01*
G01X12844822Y-6197267D01*
G01X12844822Y-6197267D01*
G01X12856890Y-6200997D01*
G01X12868621Y-6209965D01*
G01X12868621Y-6209965D01*
G01X12880178Y-6218932D01*
G01X12891827Y-6222662D01*
G01X12891827Y-6222662D01*
G01X12900099Y-6225518D01*
G01X12903540Y-6232385D01*
G01X12903540Y-6232385D01*
G01X12906804Y-6240423D01*
G01X12914651Y-6246099D01*
G01X12914651Y-6246099D01*
G01X12937120Y-6261771D01*
G01X12937120Y-6261771D01*
G01X12949731Y-6270021D01*
G01X12964102Y-6273452D01*
G01X12964102Y-6273452D01*
G01X12976187Y-6276329D01*
G01X12979727Y-6286150D01*
G01X12979727Y-6286150D01*
G01X12982809Y-6295575D01*
G01X12991685Y-6298847D01*
G01X12991685Y-6298847D01*
G01X13001116Y-6302561D01*
G01X13006962Y-6311545D01*
G01X13006962Y-6311545D01*
G01X13012868Y-6320590D01*
G01X13022591Y-6324242D01*
G01X13022591Y-6324242D01*
G01X13034659Y-6327972D01*
G01X13046391Y-6336940D01*
G01X13046391Y-6336940D01*
G01X13057947Y-6345907D01*
G01X13069596Y-6349637D01*
G01X13069596Y-6349637D01*
G01X13077868Y-6352493D01*
G01X13081309Y-6359360D01*
G01X13081309Y-6359360D01*
G01X13084573Y-6367399D01*
G01X13092420Y-6373074D01*
G01X13092420Y-6373074D01*
G01X13114889Y-6388746D01*
G01X13114889Y-6388746D01*
G01X13127500Y-6396996D01*
G01X13141872Y-6400427D01*
G01X13141872Y-6400427D01*
G01X13153956Y-6403305D01*
G01X13157496Y-6413125D01*
G01X13157496Y-6413125D01*
G01X13160578Y-6422550D01*
G01X13169454Y-6425822D01*
G01X13169454Y-6425822D01*
G01X13178885Y-6429536D01*
G01X13184731Y-6438520D01*
G01X13184731Y-6438520D01*
G01X13190638Y-6447565D01*
G01X13200360Y-6451217D01*
G01X13200360Y-6451217D01*
G01X13212428Y-6454947D01*
G01X13224160Y-6463915D01*
G01X13224160Y-6463915D01*
G01X13235716Y-6472883D01*
G01X13247365Y-6476613D01*
G01X13247365Y-6476613D01*
G01X13255638Y-6479468D01*
G01X13259079Y-6486335D01*
G01X13259079Y-6486335D01*
G01X13262342Y-6494374D01*
G01X13270189Y-6500049D01*
G01X13270189Y-6500049D01*
G01X13292658Y-6515722D01*
G01X13292658Y-6515722D01*
G01X13305269Y-6523971D01*
G01X13319641Y-6527403D01*
G01X13319641Y-6527403D01*
G01X13331725Y-6530280D01*
G01X13335265Y-6540100D01*
G01X13335265Y-6540100D01*
G01X13338347Y-6549525D01*
G01X13347223Y-6552798D01*
G01X13347223Y-6552798D01*
G01X13356654Y-6556511D01*
G01X13362500Y-6565495D01*
G01X13362500Y-6565495D01*
G01X13368407Y-6574540D01*
G01X13378129Y-6578193D01*
G01X13378129Y-6578193D01*
G01X13390197Y-6581923D01*
G01X13401929Y-6590890D01*
G01X13401929Y-6590890D01*
G01X13413485Y-6599858D01*
G01X13425134Y-6603588D01*
G01X13425134Y-6603588D01*
G01X13433407Y-6606444D01*
G01X13436848Y-6613310D01*
G01X13436848Y-6613310D01*
G01X13440111Y-6621349D01*
G01X13447958Y-6627024D01*
G01X13447958Y-6627024D01*
G01X13470427Y-6642697D01*
G01X13470427Y-6642697D01*
G01X13483038Y-6650946D01*
G01X13497410Y-6654378D01*
G01X13497410Y-6654378D01*
G01X13509494Y-6657255D01*
G01X13513034Y-6667075D01*
G01X13513034Y-6667075D01*
G01X13516116Y-6676500D01*
G01X13524992Y-6679773D01*
G01X13524992Y-6679773D01*
G01X13534423Y-6683486D01*
G01X13540269Y-6692470D01*
G01X13540269Y-6692470D01*
G01X13546619Y-6701893D01*
G01X13558655Y-6705168D01*
G01X13558655Y-6705168D01*
G01X13571983Y-6708898D01*
G01X13582872Y-6717865D01*
G01X13582872Y-6717865D01*
G01X13592654Y-6726833D01*
G01X13603321Y-6730563D01*
G01X13603321Y-6730563D01*
G01X13611298Y-6733419D01*
G01X13614617Y-6740285D01*
G01X13614617Y-6740285D01*
G01X13617880Y-6748324D01*
G01X13625727Y-6753999D01*
G01X13625727Y-6753999D01*
G01X13648196Y-6769672D01*
G01X13648196Y-6769672D01*
G01X13660807Y-6777921D01*
G01X13675179Y-6781353D01*
G01X13675179Y-6781353D01*
G01X13687263Y-6784230D01*
G01X13690804Y-6794050D01*
G01X13690804Y-6794050D01*
G01X13693886Y-6803475D01*
G01X13702761Y-6806748D01*
G01X13702761Y-6806748D01*
G01X13712192Y-6810461D01*
G01X13718038Y-6819445D01*
G01X13718038Y-6819445D01*
G01X13724388Y-6828868D01*
G01X13736424Y-6832143D01*
G01X13736424Y-6832143D01*
G01X13749752Y-6835873D01*
G01X13760641Y-6844840D01*
G01X13760641Y-6844840D01*
G01X13770423Y-6853808D01*
G01X13781090Y-6857538D01*
G01X13781090Y-6857538D01*
G01X13789068Y-6860394D01*
G01X13792386Y-6867261D01*
G01X13792386Y-6867261D01*
G01X13795650Y-6875299D01*
G01X13803496Y-6880974D01*
G01X13803496Y-6880974D01*
G01X13825965Y-6896647D01*
G01X13825965Y-6896647D01*
G01X13838359Y-6904897D01*
G01X13852207Y-6908328D01*
G01X13852207Y-6908328D01*
G01X13864091Y-6911623D01*
G01X13870412Y-6921026D01*
G01X13870412Y-6921026D01*
G01X13875512Y-6929993D01*
G01X13883110Y-6933723D01*
G01X13883110Y-6933723D01*
G01X13890708Y-6937453D01*
G01X13895807Y-6946421D01*
G01X13895807Y-6946421D01*
G01X13901877Y-6955618D01*
G01X13912421Y-6959118D01*
G01X13912421Y-6959118D01*
G01X13921910Y-6961842D01*
G01X13925713Y-6968641D01*
G01X13925713Y-6968641D01*
G01X13928046Y-6975367D01*
G01X13933656Y-6978164D01*
G01X13933656Y-6978164D01*
G01X14245588Y-7284484D01*
G01X14984398Y-8020955D01*
G01X16027197Y-9063746D01*
G01X16027197Y-9178076D01*
G01X16027197Y-9178076D01*
G01X16025324Y-9276707D01*
G01X16021518Y-9293200D01*
G01X16014500Y-9300336D01*
G01X16014500Y-9300336D01*
G01X16004422Y-9313169D01*
G01X16001802Y-9339956D01*
G01X16001802Y-9339956D01*
G01X16001632Y-9360461D01*
G01X15997263Y-9364369D01*
G01X15986340Y-9360486D01*
G01X15933751Y-9318657D01*
G01X15821689Y-9213602D01*
G01X15330448Y-8728323D01*
G01X14335217Y-7733667D01*
G01X14335217Y-7733667D01*
G01X13062902Y-6458212D01*
G01X12789544Y-6180447D01*
G01X12711491Y-6095687D01*
G01X12711491Y-6095687D01*
G01X12722335Y-6098637D01*
G01X12725771Y-6107943D01*
G37*
G36*
G01X11689314Y-8789143D02*
G01X11689314Y-8789143D01*
G01X12543137Y-9643816D01*
G01X13002611Y-10107677D01*
G01X13183444Y-10299150D01*
G01X13205529Y-10329748D01*
G01X13205816Y-10335238D01*
G01X13201344Y-10336657D01*
G01X13201344Y-10336657D01*
G01X13190801Y-10340157D01*
G01X13184731Y-10349355D01*
G01X13184731Y-10349355D01*
G01X13178885Y-10358339D01*
G01X13169454Y-10362052D01*
G01X13169454Y-10362052D01*
G01X13160578Y-10365325D01*
G01X13157496Y-10374750D01*
G01X13157496Y-10374750D01*
G01X13153573Y-10384782D01*
G01X13138809Y-10387448D01*
G01X13138809Y-10387448D01*
G01X13123071Y-10390719D01*
G01X13111827Y-10398976D01*
G01X13111827Y-10398976D01*
G01X13092420Y-10414649D01*
G01X13092420Y-10414649D01*
G01X13084573Y-10420432D01*
G01X13081309Y-10428515D01*
G01X13081309Y-10428515D01*
G01X13077868Y-10435382D01*
G01X13069596Y-10438238D01*
G01X13069596Y-10438238D01*
G01X13057947Y-10441967D01*
G01X13046391Y-10450935D01*
G01X13046391Y-10450935D01*
G01X13037181Y-10461411D01*
G01X13029985Y-10462088D01*
G01X13017771Y-10456562D01*
G01X12968413Y-10417412D01*
G01X12869360Y-10324986D01*
G01X12443186Y-9904398D01*
G01X11581276Y-9042991D01*
G01X10160614Y-7622350D01*
G01X10162303Y-7443095D01*
G01X10163991Y-7263839D01*
G01X11689314Y-8789143D01*
G37*
G36*
G01X11547130Y-9154863D02*
G01X11547130Y-9154863D01*
G01X12668265Y-10279149D01*
G01X12869602Y-10485621D01*
G01X12908502Y-10528323D01*
G01X12916905Y-10541483D01*
G01X12916905Y-10541483D01*
G01X12907466Y-10546923D01*
G01X12903540Y-10555095D01*
G01X12903540Y-10555095D01*
G01X12899961Y-10562361D01*
G01X12890843Y-10565213D01*
G01X12890843Y-10565213D01*
G01X12878145Y-10568943D01*
G01X12865447Y-10577910D01*
G01X12865447Y-10577910D01*
G01X12853507Y-10586878D01*
G01X12842632Y-10590608D01*
G01X12842632Y-10590608D01*
G01X12834510Y-10594338D01*
G01X12829193Y-10603305D01*
G01X12829193Y-10603305D01*
G01X12823347Y-10612289D01*
G01X12813915Y-10616003D01*
G01X12813915Y-10616003D01*
G01X12805040Y-10619276D01*
G01X12801958Y-10628700D01*
G01X12801958Y-10628700D01*
G01X12797997Y-10638750D01*
G01X12782965Y-10641398D01*
G01X12782965Y-10641398D01*
G01X12766857Y-10644709D01*
G01X12756042Y-10654095D01*
G01X12756042Y-10654095D01*
G01X12748033Y-10663063D01*
G01X12739911Y-10666793D01*
G01X12739911Y-10666793D01*
G01X12732751Y-10670494D01*
G01X12727050Y-10679393D01*
G01X12727050Y-10679393D01*
G01X12715044Y-10672314D01*
G01X12676624Y-10637813D01*
G01X12488404Y-10454845D01*
G01X11441502Y-9411121D01*
G01X10160614Y-8130249D01*
G01X10162303Y-7950994D01*
G01X10163991Y-7771739D01*
G01X11547130Y-9154863D01*
G37*
G36*
G01X11394090Y-9509727D02*
G01X11394090Y-9509727D01*
G01X12123717Y-10240052D01*
G01X12491972Y-10613416D01*
G01X12576611Y-10703668D01*
G01X12614139Y-10749597D01*
G01X12619739Y-10760619D01*
G01X12618966Y-10766174D01*
G01X12605502Y-10768373D01*
G01X12605502Y-10768373D01*
G01X12589764Y-10771644D01*
G01X12578519Y-10779902D01*
G01X12578519Y-10779902D01*
G01X12559113Y-10795574D01*
G01X12559113Y-10795574D01*
G01X12551266Y-10801357D01*
G01X12548002Y-10809441D01*
G01X12548002Y-10809441D01*
G01X12544342Y-10816360D01*
G01X12535304Y-10819163D01*
G01X12535304Y-10819163D01*
G01X12522607Y-10822893D01*
G01X12509909Y-10831861D01*
G01X12509909Y-10831861D01*
G01X12497969Y-10840828D01*
G01X12487093Y-10844558D01*
G01X12487093Y-10844558D01*
G01X12478972Y-10848288D01*
G01X12473655Y-10857256D01*
G01X12473655Y-10857256D01*
G01X12467808Y-10866240D01*
G01X12458377Y-10869953D01*
G01X12458377Y-10869953D01*
G01X12449502Y-10873226D01*
G01X12446420Y-10882651D01*
G01X12446420Y-10882651D01*
G01X12443201Y-10892818D01*
G01X12425052Y-10884796D01*
G01X12379233Y-10846300D01*
G01X12293005Y-10765045D01*
G01X11948367Y-10425121D01*
G01X11289225Y-9766748D01*
G01X10160614Y-8638149D01*
G01X10162303Y-8458894D01*
G01X10163991Y-8279638D01*
G01X11394090Y-9509727D01*
G37*
G36*
G01X11244183Y-9868425D02*
G01X11244183Y-9868425D01*
G01X11849949Y-10475456D01*
G01X12176245Y-10806353D01*
G01X12303325Y-10944063D01*
G01X12317238Y-10966394D01*
G01X12316176Y-10970464D01*
G01X12311440Y-10971533D01*
G01X12311440Y-10971533D01*
G01X12301779Y-10975199D01*
G01X12295886Y-10984231D01*
G01X12295886Y-10984231D01*
G01X12290039Y-10993215D01*
G01X12280608Y-10996928D01*
G01X12280608Y-10996928D01*
G01X12271733Y-11000201D01*
G01X12268651Y-11009626D01*
G01X12268651Y-11009626D01*
G01X12264728Y-11019658D01*
G01X12249964Y-11022323D01*
G01X12249964Y-11022323D01*
G01X12234226Y-11025595D01*
G01X12222981Y-11033852D01*
G01X12222981Y-11033852D01*
G01X12203574Y-11049525D01*
G01X12203574Y-11049525D01*
G01X12195728Y-11055307D01*
G01X12192464Y-11063391D01*
G01X12192464Y-11063391D01*
G01X12188804Y-11070311D01*
G01X12179766Y-11073113D01*
G01X12179766Y-11073113D01*
G01X12167068Y-11076843D01*
G01X12154371Y-11085811D01*
G01X12154371Y-11085811D01*
G01X12144537Y-11094272D01*
G01X12137628Y-11094711D01*
G01X12127220Y-11090568D01*
G01X12089396Y-11062367D01*
G01X12018041Y-10997337D01*
G01X11722647Y-10707460D01*
G01X11136851Y-10122278D01*
G01X10160614Y-9146047D01*
G01X10162303Y-8966792D01*
G01X10163991Y-8787537D01*
G01X11244183Y-9868425D01*
G37*
G36*
G01X11102706Y-10234150D02*
G01X11102706Y-10234150D01*
G01X11863072Y-10997675D01*
G01X11998239Y-11137977D01*
G01X12023598Y-11167140D01*
G01X12028057Y-11176359D01*
G01X12028057Y-11176359D01*
G01X12018620Y-11181799D01*
G01X12014695Y-11189971D01*
G01X12014695Y-11189971D01*
G01X12011116Y-11197237D01*
G01X12001997Y-11200089D01*
G01X12001997Y-11200089D01*
G01X11989299Y-11203818D01*
G01X11976601Y-11212786D01*
G01X11976601Y-11212786D01*
G01X11964662Y-11221754D01*
G01X11953786Y-11225484D01*
G01X11953786Y-11225484D01*
G01X11945665Y-11229213D01*
G01X11940347Y-11238181D01*
G01X11940347Y-11238181D01*
G01X11934501Y-11247165D01*
G01X11925070Y-11250879D01*
G01X11925070Y-11250879D01*
G01X11916194Y-11254151D01*
G01X11913112Y-11263576D01*
G01X11913112Y-11263576D01*
G01X11909151Y-11273625D01*
G01X11894120Y-11276274D01*
G01X11894120Y-11276274D01*
G01X11878012Y-11279585D01*
G01X11867197Y-11288971D01*
G01X11867197Y-11288971D01*
G01X11859187Y-11297939D01*
G01X11851066Y-11301669D01*
G01X11851066Y-11301669D01*
G01X11843905Y-11305370D01*
G01X11838204Y-11314270D01*
G01X11838204Y-11314270D01*
G01X11829931Y-11310930D01*
G01X11804548Y-11289469D01*
G01X11681317Y-11171488D01*
G01X10997078Y-10490409D01*
G01X10160614Y-9653945D01*
G01X10162303Y-9474690D01*
G01X10163991Y-9295436D01*
G01X11102706Y-10234150D01*
G37*
G36*
G01X15292424Y-7821074D02*
G01X16027400Y-8556054D01*
G01X16025712Y-8735308D01*
G01X16024023Y-8914562D01*
G01X15109790Y-8000327D01*
G01X14195557Y-7086093D01*
G01X14376503Y-7086093D01*
G01X14557448Y-7086093D01*
G01X15292424Y-7821074D01*
G37*
G36*
G01X10949667Y-10589016D02*
G01X10949667Y-10589016D01*
G01X11417077Y-11057217D01*
G01X11653834Y-11299223D01*
G01X11707691Y-11358731D01*
G01X11730254Y-11389684D01*
G01X11732547Y-11397368D01*
G01X11730313Y-11401413D01*
G01X11716657Y-11403249D01*
G01X11716657Y-11403249D01*
G01X11700918Y-11406520D01*
G01X11689674Y-11414778D01*
G01X11689674Y-11414778D01*
G01X11670267Y-11430450D01*
G01X11670267Y-11430450D01*
G01X11662420Y-11436233D01*
G01X11659157Y-11444316D01*
G01X11659157Y-11444316D01*
G01X11655496Y-11451236D01*
G01X11646459Y-11454039D01*
G01X11646459Y-11454039D01*
G01X11633761Y-11457769D01*
G01X11621063Y-11466736D01*
G01X11621063Y-11466736D01*
G01X11609123Y-11475704D01*
G01X11598248Y-11479434D01*
G01X11598248Y-11479434D01*
G01X11590127Y-11483164D01*
G01X11584809Y-11492131D01*
G01X11584809Y-11492131D01*
G01X11578963Y-11501115D01*
G01X11569532Y-11504829D01*
G01X11569532Y-11504829D01*
G01X11560656Y-11508102D01*
G01X11557574Y-11517526D01*
G01X11557574Y-11517526D01*
G01X11555095Y-11528235D01*
G01X11542710Y-11525885D01*
G01X11512997Y-11503484D01*
G01X11458537Y-11454041D01*
G01X11245689Y-11246067D01*
G01X10844798Y-10846033D01*
G01X10160614Y-10161842D01*
G01X10162303Y-9982588D01*
G01X10163991Y-9803333D01*
G01X10949667Y-10589016D01*
G37*
G36*
G01X10799759Y-10947709D02*
G01X10799759Y-10947709D01*
G01X11157111Y-11306404D01*
G01X11350401Y-11504413D01*
G01X11424079Y-11588745D01*
G01X11429954Y-11602972D01*
G01X11422595Y-11606409D01*
G01X11422595Y-11606409D01*
G01X11412934Y-11610074D01*
G01X11407040Y-11619107D01*
G01X11407040Y-11619107D01*
G01X11401194Y-11628091D01*
G01X11391763Y-11631804D01*
G01X11391763Y-11631804D01*
G01X11382887Y-11635077D01*
G01X11379805Y-11644502D01*
G01X11379805Y-11644502D01*
G01X11375882Y-11654533D01*
G01X11361118Y-11657199D01*
G01X11361118Y-11657199D01*
G01X11345380Y-11660470D01*
G01X11334136Y-11668728D01*
G01X11334136Y-11668728D01*
G01X11314729Y-11684400D01*
G01X11314729Y-11684400D01*
G01X11306882Y-11690183D01*
G01X11303618Y-11698267D01*
G01X11303618Y-11698267D01*
G01X11299958Y-11705187D01*
G01X11290921Y-11707989D01*
G01X11290921Y-11707989D01*
G01X11278223Y-11711719D01*
G01X11265525Y-11720687D01*
G01X11265525Y-11720687D01*
G01X11255817Y-11729086D01*
G01X11242587Y-11729383D01*
G01X11218750Y-11715160D01*
G01X11177220Y-11679996D01*
G01X11012729Y-11521173D01*
G01X10692422Y-11201560D01*
G01X10160614Y-10669736D01*
G01X10162303Y-10490483D01*
G01X10163991Y-10311229D01*
G01X10799759Y-10947709D01*
G37*
G36*
G01X15546385Y-7567129D02*
G01X16027400Y-8048164D01*
G01X16025712Y-8227416D01*
G01X16024023Y-8406667D01*
G01X15363749Y-7746380D01*
G01X14703475Y-7086093D01*
G01X14884423Y-7086093D01*
G01X15065371Y-7086093D01*
G01X15546385Y-7567129D01*
G37*
G36*
G01X10658277Y-11313434D02*
G01X10658277Y-11313434D01*
G01X11057882Y-11716200D01*
G01X11126879Y-11790333D01*
G01X11138695Y-11805957D01*
G01X11139206Y-11811237D01*
G01X11139206Y-11811237D01*
G01X11129773Y-11816675D01*
G01X11125849Y-11824847D01*
G01X11125849Y-11824847D01*
G01X11122270Y-11832112D01*
G01X11113151Y-11834964D01*
G01X11113151Y-11834964D01*
G01X11100454Y-11838694D01*
G01X11087756Y-11847662D01*
G01X11087756Y-11847662D01*
G01X11075816Y-11856630D01*
G01X11064940Y-11860359D01*
G01X11064940Y-11860359D01*
G01X11056819Y-11864089D01*
G01X11051502Y-11873057D01*
G01X11051502Y-11873057D01*
G01X11045656Y-11882041D01*
G01X11036224Y-11885754D01*
G01X11036224Y-11885754D01*
G01X11027349Y-11889027D01*
G01X11024267Y-11898452D01*
G01X11024267Y-11898452D01*
G01X11020306Y-11908501D01*
G01X11005274Y-11911149D01*
G01X11005274Y-11911149D01*
G01X10989166Y-11914460D01*
G01X10978351Y-11923847D01*
G01X10978351Y-11923847D01*
G01X10970342Y-11932815D01*
G01X10962220Y-11936544D01*
G01X10962220Y-11936544D01*
G01X10955058Y-11940248D01*
G01X10949355Y-11949154D01*
G01X10949355Y-11949154D01*
G01X10944813Y-11949560D01*
G01X10932465Y-11941143D01*
G01X10874223Y-11888148D01*
G01X10552652Y-11569695D01*
G01X10160614Y-11177627D01*
G01X10162303Y-10998375D01*
G01X10163991Y-10819123D01*
G01X10658277Y-11313434D01*
G37*
G36*
G01X15571916Y-7098791D02*
G01X15571916Y-7098791D01*
G01X15577710Y-7107758D01*
G01X15586977Y-7111488D01*
G01X15586977Y-7111488D01*
G01X15654991Y-7171041D01*
G01X15813059Y-7325895D01*
G01X16027400Y-7540301D01*
G01X16025712Y-7719541D01*
G01X16024023Y-7898781D01*
G01X15617712Y-7492437D01*
G01X15211402Y-7086093D01*
G01X15389999Y-7086093D01*
G01X15568596Y-7086093D01*
G01X15571916Y-7098791D01*
G37*
G36*
G01X8717366Y-6833730D02*
G01X8717366Y-6833730D01*
G01X8932348Y-7052337D01*
G01X9020050Y-7147760D01*
G01X9020050Y-7147760D01*
G01X8937883Y-7234582D01*
G01X8850746Y-7316570D01*
G01X8850746Y-7316570D01*
G01X8820487Y-7291958D01*
G01X8748554Y-7223913D01*
G01X8536022Y-7014041D01*
G01X8325854Y-6799984D01*
G01X8256876Y-6726709D01*
G01X8230752Y-6694774D01*
G01X8230752Y-6694774D01*
G01X8234220Y-6684039D01*
G01X8243450Y-6677934D01*
G01X8243450Y-6677934D01*
G01X8252418Y-6672834D01*
G01X8256148Y-6665236D01*
G01X8256148Y-6665236D01*
G01X8259878Y-6657638D01*
G01X8268846Y-6652539D01*
G01X8268846Y-6652539D01*
G01X8277814Y-6647439D01*
G01X8281544Y-6639841D01*
G01X8281544Y-6639841D01*
G01X8285274Y-6632243D01*
G01X8294241Y-6627143D01*
G01X8294241Y-6627143D01*
G01X8303209Y-6621826D01*
G01X8306939Y-6613705D01*
G01X8306939Y-6613705D01*
G01X8309911Y-6606560D01*
G01X8317057Y-6603588D01*
G01X8317057Y-6603588D01*
G01X8325133Y-6600030D01*
G01X8330342Y-6591477D01*
G01X8330342Y-6591477D01*
G01X8336136Y-6581994D01*
G01X8345620Y-6576200D01*
G01X8345620Y-6576200D01*
G01X8354173Y-6571208D01*
G01X8357730Y-6563656D01*
G01X8357730Y-6563656D01*
G01X8361460Y-6556058D01*
G01X8370428Y-6550958D01*
G01X8370428Y-6550958D01*
G01X8379396Y-6545641D01*
G01X8383126Y-6537520D01*
G01X8383126Y-6537520D01*
G01X8385165Y-6527883D01*
G01X8393102Y-6526741D01*
G01X8409665Y-6536515D01*
G01X8437582Y-6559621D01*
G01X8538394Y-6655502D01*
G01X8717366Y-6833730D01*
G37*
G36*
G01X8463410Y-7087680D02*
G01X8463410Y-7087680D01*
G01X8678392Y-7306287D01*
G01X8766094Y-7401710D01*
G01X8766094Y-7401710D01*
G01X8683927Y-7488533D01*
G01X8596790Y-7570520D01*
G01X8596790Y-7570520D01*
G01X8566531Y-7545908D01*
G01X8494598Y-7477863D01*
G01X8282066Y-7267991D01*
G01X8071898Y-7053934D01*
G01X8002920Y-6980659D01*
G01X7976797Y-6948724D01*
G01X7976797Y-6948724D01*
G01X7980264Y-6937990D01*
G01X7989494Y-6931884D01*
G01X7989494Y-6931884D01*
G01X7998462Y-6926784D01*
G01X8002192Y-6919186D01*
G01X8002192Y-6919186D01*
G01X8005922Y-6911588D01*
G01X8014890Y-6906489D01*
G01X8014890Y-6906489D01*
G01X8023858Y-6901389D01*
G01X8027588Y-6893791D01*
G01X8027588Y-6893791D01*
G01X8031318Y-6886193D01*
G01X8040286Y-6881094D01*
G01X8040286Y-6881094D01*
G01X8049253Y-6875776D01*
G01X8052983Y-6867655D01*
G01X8052983Y-6867655D01*
G01X8055955Y-6860510D01*
G01X8063101Y-6857538D01*
G01X8063101Y-6857538D01*
G01X8071177Y-6853981D01*
G01X8076386Y-6845428D01*
G01X8076386Y-6845428D01*
G01X8082180Y-6835944D01*
G01X8091664Y-6830150D01*
G01X8091664Y-6830150D01*
G01X8100217Y-6825159D01*
G01X8103774Y-6817606D01*
G01X8103774Y-6817606D01*
G01X8107504Y-6810008D01*
G01X8116472Y-6804909D01*
G01X8116472Y-6804909D01*
G01X8125440Y-6799591D01*
G01X8129170Y-6791470D01*
G01X8129170Y-6791470D01*
G01X8131209Y-6781833D01*
G01X8139146Y-6780692D01*
G01X8155709Y-6790465D01*
G01X8183626Y-6813571D01*
G01X8284438Y-6909452D01*
G01X8463410Y-7087680D01*
G37*
G36*
G01X8209454Y-7341631D02*
G01X8209454Y-7341631D01*
G01X8424436Y-7560237D01*
G01X8512138Y-7655661D01*
G01X8512138Y-7655661D01*
G01X8429971Y-7742483D01*
G01X8342835Y-7824470D01*
G01X8342835Y-7824470D01*
G01X8312575Y-7799858D01*
G01X8240642Y-7731814D01*
G01X8028110Y-7521941D01*
G01X7817942Y-7307885D01*
G01X7748964Y-7234609D01*
G01X7722841Y-7202674D01*
G01X7722841Y-7202674D01*
G01X7726308Y-7191940D01*
G01X7735538Y-7185834D01*
G01X7735538Y-7185834D01*
G01X7744506Y-7180734D01*
G01X7748236Y-7173137D01*
G01X7748236Y-7173137D01*
G01X7751966Y-7165538D01*
G01X7760934Y-7160439D01*
G01X7760934Y-7160439D01*
G01X7769902Y-7155339D01*
G01X7773632Y-7147742D01*
G01X7773632Y-7147742D01*
G01X7777362Y-7140143D01*
G01X7786330Y-7135044D01*
G01X7786330Y-7135044D01*
G01X7795297Y-7129727D01*
G01X7799027Y-7121606D01*
G01X7799027Y-7121606D01*
G01X7801999Y-7114460D01*
G01X7809145Y-7111488D01*
G01X7809145Y-7111488D01*
G01X7817221Y-7107931D01*
G01X7822430Y-7099378D01*
G01X7822430Y-7099378D01*
G01X7828224Y-7089894D01*
G01X7837708Y-7084100D01*
G01X7837708Y-7084100D01*
G01X7846261Y-7079109D01*
G01X7849819Y-7071557D01*
G01X7849819Y-7071557D01*
G01X7853549Y-7063958D01*
G01X7862516Y-7058859D01*
G01X7862516Y-7058859D01*
G01X7871484Y-7053542D01*
G01X7875214Y-7045421D01*
G01X7875214Y-7045421D01*
G01X7877253Y-7035783D01*
G01X7885190Y-7034642D01*
G01X7901753Y-7044415D01*
G01X7929670Y-7067521D01*
G01X8030482Y-7163403D01*
G01X8209454Y-7341631D01*
G37*
G36*
G01X7955499Y-7595581D02*
G01X7955499Y-7595581D01*
G01X8170480Y-7814188D01*
G01X8258182Y-7909611D01*
G01X8258182Y-7909611D01*
G01X8176015Y-7996433D01*
G01X8088879Y-8078421D01*
G01X8088879Y-8078421D01*
G01X8058619Y-8053809D01*
G01X7986687Y-7985764D01*
G01X7774155Y-7775892D01*
G01X7563986Y-7561835D01*
G01X7495008Y-7488559D01*
G01X7468885Y-7456625D01*
G01X7468885Y-7456625D01*
G01X7472352Y-7445890D01*
G01X7481583Y-7439785D01*
G01X7481583Y-7439785D01*
G01X7490550Y-7434685D01*
G01X7494280Y-7427087D01*
G01X7494280Y-7427087D01*
G01X7498010Y-7419489D01*
G01X7506978Y-7414389D01*
G01X7506978Y-7414389D01*
G01X7515946Y-7409290D01*
G01X7519676Y-7401692D01*
G01X7519676Y-7401692D01*
G01X7523406Y-7394094D01*
G01X7532374Y-7388994D01*
G01X7532374Y-7388994D01*
G01X7541342Y-7383677D01*
G01X7545072Y-7375556D01*
G01X7545072Y-7375556D01*
G01X7548044Y-7368411D01*
G01X7555189Y-7365439D01*
G01X7555189Y-7365439D01*
G01X7563265Y-7361881D01*
G01X7568474Y-7353328D01*
G01X7568474Y-7353328D01*
G01X7574268Y-7343845D01*
G01X7583752Y-7338051D01*
G01X7583752Y-7338051D01*
G01X7592305Y-7333059D01*
G01X7595863Y-7325507D01*
G01X7595863Y-7325507D01*
G01X7599593Y-7317909D01*
G01X7608561Y-7312809D01*
G01X7608561Y-7312809D01*
G01X7617528Y-7307492D01*
G01X7621258Y-7299371D01*
G01X7621258Y-7299371D01*
G01X7623298Y-7289734D01*
G01X7631234Y-7288592D01*
G01X7647797Y-7298366D01*
G01X7675714Y-7321472D01*
G01X7776526Y-7417353D01*
G01X7955499Y-7595581D01*
G37*
G36*
G01X7701543Y-7849531D02*
G01X7701543Y-7849531D01*
G01X7916524Y-8068138D01*
G01X8004226Y-8163561D01*
G01X8004226Y-8163561D01*
G01X7922059Y-8250384D01*
G01X7834923Y-8332371D01*
G01X7834923Y-8332371D01*
G01X7804663Y-8307759D01*
G01X7732731Y-8239714D01*
G01X7520199Y-8029842D01*
G01X7310030Y-7815785D01*
G01X7241052Y-7742510D01*
G01X7214929Y-7710575D01*
G01X7214929Y-7710575D01*
G01X7218397Y-7699841D01*
G01X7227627Y-7693735D01*
G01X7227627Y-7693735D01*
G01X7236595Y-7688635D01*
G01X7240325Y-7681037D01*
G01X7240325Y-7681037D01*
G01X7244055Y-7673439D01*
G01X7253022Y-7668340D01*
G01X7253022Y-7668340D01*
G01X7261990Y-7663240D01*
G01X7265720Y-7655642D01*
G01X7265720Y-7655642D01*
G01X7269450Y-7648044D01*
G01X7278418Y-7642945D01*
G01X7278418Y-7642945D01*
G01X7287386Y-7637627D01*
G01X7291116Y-7629506D01*
G01X7291116Y-7629506D01*
G01X7294088Y-7622361D01*
G01X7301233Y-7619389D01*
G01X7301233Y-7619389D01*
G01X7309309Y-7615832D01*
G01X7314518Y-7607279D01*
G01X7314518Y-7607279D01*
G01X7320312Y-7597795D01*
G01X7329796Y-7592001D01*
G01X7329796Y-7592001D01*
G01X7338349Y-7587010D01*
G01X7341907Y-7579457D01*
G01X7341907Y-7579457D01*
G01X7345637Y-7571859D01*
G01X7354605Y-7566760D01*
G01X7354605Y-7566760D01*
G01X7363572Y-7561442D01*
G01X7367302Y-7553321D01*
G01X7367302Y-7553321D01*
G01X7369342Y-7543684D01*
G01X7377278Y-7542543D01*
G01X7393841Y-7552316D01*
G01X7421758Y-7575422D01*
G01X7522570Y-7671303D01*
G01X7701543Y-7849531D01*
G37*
G36*
G01X6685719Y-8865333D02*
G01X6685719Y-8865333D01*
G01X6900701Y-9083939D01*
G01X6988403Y-9179363D01*
G01X6988403Y-9179363D01*
G01X6906236Y-9266185D01*
G01X6819099Y-9348172D01*
G01X6819099Y-9348172D01*
G01X6788840Y-9323560D01*
G01X6716907Y-9255515D01*
G01X6504375Y-9045643D01*
G01X6294207Y-8831586D01*
G01X6225229Y-8758311D01*
G01X6199105Y-8726376D01*
G01X6199105Y-8726376D01*
G01X6202573Y-8715642D01*
G01X6211803Y-8709536D01*
G01X6211803Y-8709536D01*
G01X6220771Y-8704436D01*
G01X6224501Y-8696839D01*
G01X6224501Y-8696839D01*
G01X6228231Y-8689240D01*
G01X6237199Y-8684141D01*
G01X6237199Y-8684141D01*
G01X6246167Y-8679041D01*
G01X6249897Y-8671444D01*
G01X6249897Y-8671444D01*
G01X6253627Y-8663845D01*
G01X6262594Y-8658746D01*
G01X6262594Y-8658746D01*
G01X6271562Y-8653429D01*
G01X6275292Y-8645308D01*
G01X6275292Y-8645308D01*
G01X6278264Y-8638162D01*
G01X6285410Y-8635190D01*
G01X6285410Y-8635190D01*
G01X6293486Y-8631633D01*
G01X6298695Y-8623080D01*
G01X6298695Y-8623080D01*
G01X6304489Y-8613596D01*
G01X6313973Y-8607802D01*
G01X6313973Y-8607802D01*
G01X6322526Y-8602811D01*
G01X6326083Y-8595258D01*
G01X6326083Y-8595258D01*
G01X6329813Y-8587660D01*
G01X6338781Y-8582561D01*
G01X6338781Y-8582561D01*
G01X6347749Y-8577244D01*
G01X6351479Y-8569123D01*
G01X6351479Y-8569123D01*
G01X6353518Y-8559485D01*
G01X6361455Y-8558344D01*
G01X6378018Y-8568117D01*
G01X6405935Y-8591223D01*
G01X6506747Y-8687105D01*
G01X6685719Y-8865333D01*
G37*
G36*
G01X6431763Y-9119283D02*
G01X6431763Y-9119283D01*
G01X6646745Y-9337890D01*
G01X6734447Y-9433313D01*
G01X6734447Y-9433313D01*
G01X6652280Y-9520135D01*
G01X6565144Y-9602123D01*
G01X6565144Y-9602123D01*
G01X6534884Y-9577511D01*
G01X6462951Y-9509466D01*
G01X6250419Y-9299594D01*
G01X6040251Y-9085537D01*
G01X5971273Y-9012261D01*
G01X5945150Y-8980327D01*
G01X5945150Y-8980327D01*
G01X5948617Y-8969592D01*
G01X5957847Y-8963486D01*
G01X5957847Y-8963486D01*
G01X5966815Y-8958387D01*
G01X5970545Y-8950789D01*
G01X5970545Y-8950789D01*
G01X5974275Y-8943191D01*
G01X5983243Y-8938091D01*
G01X5983243Y-8938091D01*
G01X5992211Y-8932992D01*
G01X5995941Y-8925394D01*
G01X5995941Y-8925394D01*
G01X5999671Y-8917796D01*
G01X6008639Y-8912696D01*
G01X6008639Y-8912696D01*
G01X6017606Y-8907379D01*
G01X6021336Y-8899258D01*
G01X6021336Y-8899258D01*
G01X6024308Y-8892113D01*
G01X6031454Y-8889141D01*
G01X6031454Y-8889141D01*
G01X6039530Y-8885583D01*
G01X6044739Y-8877030D01*
G01X6044739Y-8877030D01*
G01X6050533Y-8867547D01*
G01X6060017Y-8861753D01*
G01X6060017Y-8861753D01*
G01X6068570Y-8856761D01*
G01X6072128Y-8849209D01*
G01X6072128Y-8849209D01*
G01X6075858Y-8841611D01*
G01X6084825Y-8836511D01*
G01X6084825Y-8836511D01*
G01X6093793Y-8831194D01*
G01X6097523Y-8823073D01*
G01X6097523Y-8823073D01*
G01X6099562Y-8813435D01*
G01X6107499Y-8812294D01*
G01X6124062Y-8822068D01*
G01X6151979Y-8845174D01*
G01X6252791Y-8941055D01*
G01X6431763Y-9119283D01*
G37*
G36*
G01X6177807Y-9373233D02*
G01X6177807Y-9373233D01*
G01X6392789Y-9591840D01*
G01X6480491Y-9687263D01*
G01X6480491Y-9687263D01*
G01X6398324Y-9774086D01*
G01X6311188Y-9856073D01*
G01X6311188Y-9856073D01*
G01X6280928Y-9831461D01*
G01X6208996Y-9763416D01*
G01X5996464Y-9553544D01*
G01X5786295Y-9339487D01*
G01X5717317Y-9266212D01*
G01X5691194Y-9234277D01*
G01X5691194Y-9234277D01*
G01X5694661Y-9223542D01*
G01X5703892Y-9217437D01*
G01X5703892Y-9217437D01*
G01X5712859Y-9212337D01*
G01X5716589Y-9204739D01*
G01X5716589Y-9204739D01*
G01X5720319Y-9197141D01*
G01X5729287Y-9192042D01*
G01X5729287Y-9192042D01*
G01X5738255Y-9186942D01*
G01X5741985Y-9179344D01*
G01X5741985Y-9179344D01*
G01X5745715Y-9171746D01*
G01X5754683Y-9166647D01*
G01X5754683Y-9166647D01*
G01X5763651Y-9161329D01*
G01X5767381Y-9153208D01*
G01X5767381Y-9153208D01*
G01X5770353Y-9146063D01*
G01X5777498Y-9143091D01*
G01X5777498Y-9143091D01*
G01X5785574Y-9139533D01*
G01X5790783Y-9130981D01*
G01X5790783Y-9130981D01*
G01X5796577Y-9121497D01*
G01X5806061Y-9115703D01*
G01X5806061Y-9115703D01*
G01X5814614Y-9110712D01*
G01X5818172Y-9103159D01*
G01X5818172Y-9103159D01*
G01X5821902Y-9095561D01*
G01X5830869Y-9090462D01*
G01X5830869Y-9090462D01*
G01X5839837Y-9085144D01*
G01X5843567Y-9077023D01*
G01X5843567Y-9077023D01*
G01X5845607Y-9067386D01*
G01X5853543Y-9066245D01*
G01X5870106Y-9076018D01*
G01X5898023Y-9099124D01*
G01X5998835Y-9195005D01*
G01X6177807Y-9373233D01*
G37*
G36*
G01X5923852Y-9627184D02*
G01X5923852Y-9627184D01*
G01X6138833Y-9845790D01*
G01X6226535Y-9941214D01*
G01X6226535Y-9941214D01*
G01X6144368Y-10028036D01*
G01X6057232Y-10110023D01*
G01X6057232Y-10110023D01*
G01X6026972Y-10085411D01*
G01X5955040Y-10017366D01*
G01X5742508Y-9807494D01*
G01X5532339Y-9593437D01*
G01X5463361Y-9520162D01*
G01X5437238Y-9488227D01*
G01X5437238Y-9488227D01*
G01X5440705Y-9477493D01*
G01X5449936Y-9471387D01*
G01X5449936Y-9471387D01*
G01X5458904Y-9466287D01*
G01X5462633Y-9458690D01*
G01X5462633Y-9458690D01*
G01X5466363Y-9451091D01*
G01X5475331Y-9445992D01*
G01X5475331Y-9445992D01*
G01X5484299Y-9440892D01*
G01X5488029Y-9433295D01*
G01X5488029Y-9433295D01*
G01X5491759Y-9425696D01*
G01X5500727Y-9420597D01*
G01X5500727Y-9420597D01*
G01X5509695Y-9415280D01*
G01X5513425Y-9407159D01*
G01X5513425Y-9407159D01*
G01X5516397Y-9400013D01*
G01X5523542Y-9397041D01*
G01X5523542Y-9397041D01*
G01X5531618Y-9393484D01*
G01X5536827Y-9384931D01*
G01X5536827Y-9384931D01*
G01X5542621Y-9375447D01*
G01X5552105Y-9369653D01*
G01X5552105Y-9369653D01*
G01X5560658Y-9364662D01*
G01X5564216Y-9357109D01*
G01X5564216Y-9357109D01*
G01X5567946Y-9349511D01*
G01X5576914Y-9344412D01*
G01X5576914Y-9344412D01*
G01X5585881Y-9339095D01*
G01X5589611Y-9330974D01*
G01X5589611Y-9330974D01*
G01X5591651Y-9321336D01*
G01X5599587Y-9320195D01*
G01X5616150Y-9329968D01*
G01X5644067Y-9353074D01*
G01X5744879Y-9448956D01*
G01X5923852Y-9627184D01*
G37*
G36*
G01X5669896Y-9881134D02*
G01X5669896Y-9881134D01*
G01X5884878Y-10099741D01*
G01X5972579Y-10195164D01*
G01X5972579Y-10195164D01*
G01X5890413Y-10281986D01*
G01X5803276Y-10363974D01*
G01X5803276Y-10363974D01*
G01X5773016Y-10339362D01*
G01X5701084Y-10271317D01*
G01X5488552Y-10061445D01*
G01X5278383Y-9847388D01*
G01X5209405Y-9774112D01*
G01X5183282Y-9742178D01*
G01X5183282Y-9742178D01*
G01X5186750Y-9731443D01*
G01X5195980Y-9725337D01*
G01X5195980Y-9725337D01*
G01X5204948Y-9720238D01*
G01X5208678Y-9712640D01*
G01X5208678Y-9712640D01*
G01X5212408Y-9705042D01*
G01X5221375Y-9699942D01*
G01X5221375Y-9699942D01*
G01X5230343Y-9694843D01*
G01X5234073Y-9687245D01*
G01X5234073Y-9687245D01*
G01X5237803Y-9679647D01*
G01X5246771Y-9674547D01*
G01X5246771Y-9674547D01*
G01X5255739Y-9669230D01*
G01X5259469Y-9661109D01*
G01X5259469Y-9661109D01*
G01X5262441Y-9653964D01*
G01X5269586Y-9650992D01*
G01X5269586Y-9650992D01*
G01X5277662Y-9647434D01*
G01X5282871Y-9638881D01*
G01X5282871Y-9638881D01*
G01X5288666Y-9629398D01*
G01X5298149Y-9623604D01*
G01X5298149Y-9623604D01*
G01X5306702Y-9618612D01*
G01X5310260Y-9611060D01*
G01X5310260Y-9611060D01*
G01X5313990Y-9603462D01*
G01X5322958Y-9598362D01*
G01X5322958Y-9598362D01*
G01X5331926Y-9593045D01*
G01X5335656Y-9584924D01*
G01X5335656Y-9584924D01*
G01X5337695Y-9575286D01*
G01X5345631Y-9574145D01*
G01X5362194Y-9583919D01*
G01X5390111Y-9607025D01*
G01X5490923Y-9702906D01*
G01X5669896Y-9881134D01*
G37*
G36*
G01X10505245Y-11668304D02*
G01X10505245Y-11668304D01*
G01X10710416Y-11874559D01*
G01X10815333Y-11985188D01*
G01X10838275Y-12013905D01*
G01X10845847Y-12029830D01*
G01X10841282Y-12036669D01*
G01X10827811Y-12038125D01*
G01X10827811Y-12038125D01*
G01X10812073Y-12041396D01*
G01X10800828Y-12049653D01*
G01X10800828Y-12049653D01*
G01X10781422Y-12065326D01*
G01X10781422Y-12065326D01*
G01X10773575Y-12071109D01*
G01X10770311Y-12079192D01*
G01X10770311Y-12079192D01*
G01X10766651Y-12086112D01*
G01X10757613Y-12088915D01*
G01X10757613Y-12088915D01*
G01X10744915Y-12092645D01*
G01X10732218Y-12101612D01*
G01X10732218Y-12101612D01*
G01X10720278Y-12110580D01*
G01X10709402Y-12114310D01*
G01X10709402Y-12114310D01*
G01X10701281Y-12118040D01*
G01X10695964Y-12127007D01*
G01X10695964Y-12127007D01*
G01X10690117Y-12135991D01*
G01X10680686Y-12139705D01*
G01X10680686Y-12139705D01*
G01X10671811Y-12142978D01*
G01X10668729Y-12152402D01*
G01X10668729Y-12152402D01*
G01X10667020Y-12163060D01*
G01X10660474Y-12166167D01*
G01X10646961Y-12159919D01*
G01X10624351Y-12142516D01*
G01X10543324Y-12067033D01*
G01X10400355Y-11925302D01*
G01X10160614Y-11685504D01*
G01X10162303Y-11506257D01*
G01X10163991Y-11327010D01*
G01X10505245Y-11668304D01*
G37*
G36*
G01X8740503Y-6387730D02*
G01X8740503Y-6387730D01*
G01X8747972Y-6397726D01*
G01X8766640Y-6400427D01*
G01X8766640Y-6400427D01*
G01X8784289Y-6402718D01*
G01X8789455Y-6410545D01*
G01X8789455Y-6410545D01*
G01X8793013Y-6418621D01*
G01X8801566Y-6423830D01*
G01X8801566Y-6423830D01*
G01X8811050Y-6429624D01*
G01X8816844Y-6439107D01*
G01X8816844Y-6439107D01*
G01X8822053Y-6447660D01*
G01X8830129Y-6451217D01*
G01X8830129Y-6451217D01*
G01X8837274Y-6454189D01*
G01X8840246Y-6461335D01*
G01X8840246Y-6461335D01*
G01X8843804Y-6469411D01*
G01X8852357Y-6474620D01*
G01X8852357Y-6474620D01*
G01X8861841Y-6480414D01*
G01X8867635Y-6489897D01*
G01X8867635Y-6489897D01*
G01X8872626Y-6498450D01*
G01X8880179Y-6502008D01*
G01X8880179Y-6502008D01*
G01X8887777Y-6505737D01*
G01X8892877Y-6514705D01*
G01X8892877Y-6514705D01*
G01X8897977Y-6523673D01*
G01X8905575Y-6527403D01*
G01X8905575Y-6527403D01*
G01X8913173Y-6531132D01*
G01X8918273Y-6540100D01*
G01X8918273Y-6540100D01*
G01X8923590Y-6549068D01*
G01X8931711Y-6552798D01*
G01X8931711Y-6552798D01*
G01X8938857Y-6555770D01*
G01X8941829Y-6562915D01*
G01X8941829Y-6562915D01*
G01X8945386Y-6570991D01*
G01X8953939Y-6576200D01*
G01X8953939Y-6576200D01*
G01X8963423Y-6581994D01*
G01X8969217Y-6591477D01*
G01X8969217Y-6591477D01*
G01X8974209Y-6600030D01*
G01X8981761Y-6603588D01*
G01X8981761Y-6603588D01*
G01X8989360Y-6607318D01*
G01X8994459Y-6616285D01*
G01X8994459Y-6616285D01*
G01X8999559Y-6625253D01*
G01X9007157Y-6628983D01*
G01X9007157Y-6628983D01*
G01X9014755Y-6632713D01*
G01X9019855Y-6641680D01*
G01X9019855Y-6641680D01*
G01X9024955Y-6650648D01*
G01X9032553Y-6654378D01*
G01X9032553Y-6654378D01*
G01X9040151Y-6658108D01*
G01X9045250Y-6667075D01*
G01X9045250Y-6667075D01*
G01X9050350Y-6676043D01*
G01X9057948Y-6679773D01*
G01X9057948Y-6679773D01*
G01X9065547Y-6683503D01*
G01X9070646Y-6692470D01*
G01X9070646Y-6692470D01*
G01X9075746Y-6701438D01*
G01X9083344Y-6705168D01*
G01X9083344Y-6705168D01*
G01X9090942Y-6708898D01*
G01X9096042Y-6717865D01*
G01X9096042Y-6717865D01*
G01X9101142Y-6726833D01*
G01X9108739Y-6730563D01*
G01X9108739Y-6730563D01*
G01X9116338Y-6734293D01*
G01X9121437Y-6743260D01*
G01X9121437Y-6743260D01*
G01X9126755Y-6752228D01*
G01X9134876Y-6755958D01*
G01X9134876Y-6755958D01*
G01X9142561Y-6760525D01*
G01X9144994Y-6774950D01*
G01X9144994Y-6774950D01*
G01X9148304Y-6791058D01*
G01X9157691Y-6801873D01*
G01X9157691Y-6801873D01*
G01X9164603Y-6808497D01*
G01X9168420Y-6821880D01*
G01X9170389Y-6895631D01*
G01X9170389Y-6895631D01*
G01X9168420Y-6969381D01*
G01X9164603Y-6982764D01*
G01X9157691Y-6989388D01*
G01X9157691Y-6989388D01*
G01X9148374Y-7000067D01*
G01X9144994Y-7015570D01*
G01X9144994Y-7015570D01*
G01X9142013Y-7030318D01*
G01X9132296Y-7037142D01*
G01X9132296Y-7037142D01*
G01X9123328Y-7042242D01*
G01X9119598Y-7049840D01*
G01X9119598Y-7049840D01*
G01X9117860Y-7060214D01*
G01X9110697Y-7062412D01*
G01X9095189Y-7053863D01*
G01X9068414Y-7031994D01*
G01X8969379Y-6938014D01*
G01X8790223Y-6759900D01*
G01X8790223Y-6759900D01*
G01X8610387Y-6578999D01*
G01X8516614Y-6479892D01*
G01X8494981Y-6452959D01*
G01X8486441Y-6436810D01*
G01X8488185Y-6428225D01*
G01X8497406Y-6423983D01*
G01X8497406Y-6423983D01*
G01X8506374Y-6418666D01*
G01X8510104Y-6410545D01*
G01X8510104Y-6410545D01*
G01X8515270Y-6402718D01*
G01X8532919Y-6400427D01*
G01X8532919Y-6400427D01*
G01X8551587Y-6397726D01*
G01X8559056Y-6387730D01*
G01X8559056Y-6387730D01*
G01X8563006Y-6380716D01*
G01X8574813Y-6376911D01*
G01X8649780Y-6375032D01*
G01X8649780Y-6375032D01*
G01X8724746Y-6376911D01*
G01X8736553Y-6380716D01*
G01X8740503Y-6387730D01*
G37*
G36*
G01X5414992Y-10133382D02*
G01X5414992Y-10133382D01*
G01X5629151Y-10350754D01*
G01X5708852Y-10438238D01*
G01X5708852Y-10438238D01*
G01X5699184Y-10441967D01*
G01X5691194Y-10450935D01*
G01X5691194Y-10450935D01*
G01X5685499Y-10457787D01*
G01X5674136Y-10461611D01*
G01X5613137Y-10463633D01*
G01X5613137Y-10463633D01*
G01X5552083Y-10461586D01*
G01X5540287Y-10457759D01*
G01X5533945Y-10450935D01*
G01X5533945Y-10450935D01*
G01X5523415Y-10441699D01*
G01X5508549Y-10438238D01*
G01X5508549Y-10438238D01*
G01X5493683Y-10434776D01*
G01X5483154Y-10425540D01*
G01X5483154Y-10425540D01*
G01X5472339Y-10416153D01*
G01X5456231Y-10412843D01*
G01X5456231Y-10412843D01*
G01X5441199Y-10410194D01*
G01X5437238Y-10400145D01*
G01X5437238Y-10400145D01*
G01X5434063Y-10390622D01*
G01X5424540Y-10387448D01*
G01X5424540Y-10387448D01*
G01X5415017Y-10384273D01*
G01X5411842Y-10374750D01*
G01X5411842Y-10374750D01*
G01X5408668Y-10365227D01*
G01X5399145Y-10362052D01*
G01X5399145Y-10362052D01*
G01X5389621Y-10358878D01*
G01X5386447Y-10349355D01*
G01X5386447Y-10349355D01*
G01X5383272Y-10339832D01*
G01X5373749Y-10336657D01*
G01X5373749Y-10336657D01*
G01X5364226Y-10333483D01*
G01X5361051Y-10323960D01*
G01X5361051Y-10323960D01*
G01X5357877Y-10314437D01*
G01X5348353Y-10311262D01*
G01X5348353Y-10311262D01*
G01X5338830Y-10308088D01*
G01X5335656Y-10298565D01*
G01X5335656Y-10298565D01*
G01X5332481Y-10289042D01*
G01X5322958Y-10285867D01*
G01X5322958Y-10285867D01*
G01X5313434Y-10282693D01*
G01X5310260Y-10273170D01*
G01X5310260Y-10273170D01*
G01X5307085Y-10263647D01*
G01X5297562Y-10260472D01*
G01X5297562Y-10260472D01*
G01X5288039Y-10257298D01*
G01X5284864Y-10247775D01*
G01X5284864Y-10247775D01*
G01X5281690Y-10238252D01*
G01X5272167Y-10235077D01*
G01X5272167Y-10235077D01*
G01X5262643Y-10231903D01*
G01X5259469Y-10222380D01*
G01X5259469Y-10222380D01*
G01X5256294Y-10212857D01*
G01X5246771Y-10209682D01*
G01X5246771Y-10209682D01*
G01X5237248Y-10206508D01*
G01X5234073Y-10196985D01*
G01X5234073Y-10196985D01*
G01X5230899Y-10187462D01*
G01X5221375Y-10184287D01*
G01X5221375Y-10184287D01*
G01X5211852Y-10181113D01*
G01X5208678Y-10171590D01*
G01X5208678Y-10171590D01*
G01X5205503Y-10162067D01*
G01X5195980Y-10158892D01*
G01X5195980Y-10158892D01*
G01X5186457Y-10155718D01*
G01X5183282Y-10146195D01*
G01X5183282Y-10146195D01*
G01X5180107Y-10136672D01*
G01X5170584Y-10133497D01*
G01X5170584Y-10133497D01*
G01X5161061Y-10130323D01*
G01X5157886Y-10120800D01*
G01X5157886Y-10120800D01*
G01X5154712Y-10111277D01*
G01X5145189Y-10108102D01*
G01X5145189Y-10108102D01*
G01X5135139Y-10104141D01*
G01X5132491Y-10089110D01*
G01X5132491Y-10089110D01*
G01X5129180Y-10073002D01*
G01X5119793Y-10062187D01*
G01X5119793Y-10062187D01*
G01X5110221Y-10050970D01*
G01X5107095Y-10032970D01*
G01X5107095Y-10032970D01*
G01X5104314Y-10015618D01*
G01X5094397Y-10008361D01*
G01X5094397Y-10008361D01*
G01X5088154Y-10001435D01*
G01X5083669Y-9986119D01*
G01X5080000Y-9940742D01*
G01X5083441Y-9893083D01*
G01X5087843Y-9874915D01*
G01X5094043Y-9863996D01*
G01X5094043Y-9863996D01*
G01X5103330Y-9852538D01*
G01X5108328Y-9840677D01*
G01X5108328Y-9840677D01*
G01X5125032Y-9850771D01*
G01X5177347Y-9898755D01*
G01X5414992Y-10133382D01*
G37*
G36*
G01X10354060Y-12025028D02*
G01X10354060Y-12025028D01*
G01X10463852Y-12136213D01*
G01X10524278Y-12201952D01*
G01X10544516Y-12233293D01*
G01X10542433Y-12239517D01*
G01X10533747Y-12241285D01*
G01X10533747Y-12241285D01*
G01X10524088Y-12244951D01*
G01X10518194Y-12253982D01*
G01X10518194Y-12253982D01*
G01X10510666Y-12263999D01*
G01X10491621Y-12266680D01*
G01X10491621Y-12266680D01*
G01X10471786Y-12269758D01*
G01X10459215Y-12279377D01*
G01X10459215Y-12279377D01*
G01X10448313Y-12285103D01*
G01X10427235Y-12289424D01*
G01X10368887Y-12293600D01*
G01X10312847Y-12291409D01*
G01X10294655Y-12287770D01*
G01X10287795Y-12282352D01*
G01X10287795Y-12282352D01*
G01X10284531Y-12274298D01*
G01X10276684Y-12268584D01*
G01X10276684Y-12268584D01*
G01X10260502Y-12257170D01*
G01X10238801Y-12236399D01*
G01X10219772Y-12214794D01*
G01X10211608Y-12200879D01*
G01X10211608Y-12200879D01*
G01X10207878Y-12193373D01*
G01X10198910Y-12185620D01*
G01X10198910Y-12185620D01*
G01X10188925Y-12173166D01*
G01X10186213Y-12148580D01*
G01X10186213Y-12148580D01*
G01X10183752Y-12124467D01*
G01X10173515Y-12116149D01*
G01X10173515Y-12116149D01*
G01X10169428Y-12103240D01*
G01X10165603Y-12070998D01*
G01X10159758Y-11974476D01*
G01X10158023Y-11878494D01*
G01X10159337Y-11846928D01*
G01X10162444Y-11834964D01*
G01X10162444Y-11834964D01*
G01X10354060Y-12025028D01*
G37*
G04 Image End*
G54D10*

M02*

