G04 Layer: TopLayer*
G04 EasyEDA Pro v2.2.40.8, 2025-08-27 10:51:24*
G04 Gerber Generator version 0.3*
G04 Scale: 100 percent, Rotated: No, Reflected: No*
G04 Dimensions in millimeters*
G04 Leading zeros omitted, absolute positions, 4 integers and 5 decimals*
G04 Generated by one-click*
%FSLAX45Y45*%
%MOMM*%
%ADD10R,0.6096X0.6096*%
%ADD11C,1.53*%
%ADD12C,1.8*%
%ADD13R,1.0X1.5*%
%ADD14C,1.524*%
%ADD15O,4.6038X2.0*%
%ADD16O,4.59999X2.0*%
%ADD17O,2.0X4.59999*%
%ADD18C,2.2*%
%ADD19O,1.0X2.0*%
%ADD20O,2.99999X3.29999*%
%ADD21C,1.5*%
%ADD22O,2.38801X0.57399*%
%ADD23R,1.5X1.5*%
%ADD24R,1.48501X1.72799*%
%ADD25C,1.7*%
%ADD26R,1.19009X1.72799*%
%ADD27R,1.40668X3.49921*%
%ADD28R,1.5X2.0*%
%ADD29O,1.5X2.0*%
%ADD30O,1.865X0.63*%
%ADD31R,0.79009X0.54*%
%ADD32R,1.35001X1.41*%
%ADD33R,3.49999X1.2*%
%ADD34R,0.8X0.9*%
%ADD35R,0.9X0.8*%
%ADD36R,0.8X0.8*%
%ADD37R,1.13254X1.37701*%
%ADD38R,1.37701X1.13254*%
%ADD39R,2.99999X2.0*%
%ADD40C,0.6096*%
%ADD41C,0.7112*%
%ADD42C,0.635*%
%ADD43C,0.254*%
G75*


G04 Pad Start*
G54D10*
G01X1607676Y-1757782D03*
G01X1739900Y-2908300D03*
G01X4216400Y-4737100D03*
G01X11252200Y-2451100D03*
G01X14300200Y-2895600D03*
G01X18901920Y-2460751D03*
G01X5308600Y-4965700D03*
G01X6299200Y-9194800D03*
G01X939800Y-5600700D03*
G01X1193800Y-5600700D03*
G01X7048500Y-3987800D03*
G01X2260600Y-3403600D03*
G01X3035300Y-3403600D03*
G01X3276600Y-3403600D03*
G01X3479800Y-3403600D03*
G01X3695700Y-3403600D03*
G01X1981200Y-3403600D03*
G01X2527300Y-3403600D03*
G01X2755900Y-3403600D03*
G54D11*
G01X939800Y-5283200D03*
G01X1193800Y-5283200D03*
G01X1447800Y-5283200D03*
G01X1701800Y-5283200D03*
G01X3987800Y-4775200D03*
G01X1193800Y-3759200D03*
G01X1955800Y-5283200D03*
G01X2209800Y-5283200D03*
G01X2463800Y-5283200D03*
G01X2717800Y-5283200D03*
G01X2971800Y-5283200D03*
G01X3225800Y-5283200D03*
G01X3479800Y-5283200D03*
G01X3733800Y-5283200D03*
G01X3987800Y-5283200D03*
G01X3987800Y-3759200D03*
G01X3733800Y-3759200D03*
G01X3479800Y-3759200D03*
G01X3225800Y-3759200D03*
G01X2971800Y-3759200D03*
G01X2717800Y-3759200D03*
G01X2463800Y-3759200D03*
G01X2209800Y-3759200D03*
G01X1955800Y-3759200D03*
G01X1701800Y-3759200D03*
G01X1447800Y-3759200D03*
G01X685800Y-5283200D03*
G01X3987800Y-4521200D03*
G01X939800Y-3759200D03*
G01X3987800Y-4013200D03*
G01X3987800Y-4267200D03*
G01X3987800Y-5029200D03*
G01X685800Y-3759200D03*
G54D12*
G01X2870200Y-6489700D03*
G01X3124200Y-6489700D03*
G01X3378200Y-6489700D03*
G01X3632200Y-6489700D03*
G54D13*
G01X8333613Y-6028499D03*
G01X8633587Y-6028499D03*
G01X8633587Y-5528500D03*
G01X8333613Y-5528500D03*
G01X10251313Y-6028499D03*
G01X10551287Y-6028499D03*
G01X10551287Y-5528500D03*
G01X10251313Y-5528500D03*
G01X12156313Y-6028499D03*
G01X12456287Y-6028499D03*
G01X12456287Y-5528500D03*
G01X12156313Y-5528500D03*
G01X14124813Y-6028499D03*
G01X14424787Y-6028499D03*
G01X14424787Y-5528500D03*
G01X14124813Y-5528500D03*
G01X16093313Y-6028499D03*
G01X16393287Y-6028499D03*
G01X16393287Y-5528500D03*
G01X16093313Y-5528500D03*
G01X18125313Y-6028499D03*
G01X18425287Y-6028499D03*
G01X18425287Y-5528500D03*
G01X18125313Y-5528500D03*
G01X20144613Y-6028499D03*
G01X20444587Y-6028499D03*
G01X20444587Y-5528500D03*
G01X20144613Y-5528500D03*
G01X8333613Y-8098599D03*
G01X8633587Y-8098599D03*
G01X8633587Y-7598600D03*
G01X8333613Y-7598600D03*
G01X10302113Y-8098599D03*
G01X10602087Y-8098599D03*
G01X10602087Y-7598600D03*
G01X10302113Y-7598600D03*
G01X12257913Y-8098599D03*
G01X12557887Y-8098599D03*
G01X12557887Y-7598600D03*
G01X12257913Y-7598600D03*
G01X14239113Y-8098599D03*
G01X14539087Y-8098599D03*
G01X14539087Y-7598600D03*
G01X14239113Y-7598600D03*
G01X16207613Y-8098599D03*
G01X16507587Y-8098599D03*
G01X16507587Y-7598600D03*
G01X16207613Y-7598600D03*
G01X18125313Y-8098599D03*
G01X18425287Y-8098599D03*
G01X18425287Y-7598600D03*
G01X18125313Y-7598600D03*
G01X20144613Y-8098599D03*
G01X20444587Y-8098599D03*
G01X20444587Y-7598600D03*
G01X20144613Y-7598600D03*
G01X8384413Y-10168699D03*
G01X8684387Y-10168699D03*
G01X8684387Y-9668700D03*
G01X8384413Y-9668700D03*
G01X10365613Y-10168699D03*
G01X10665587Y-10168699D03*
G01X10665587Y-9668700D03*
G01X10365613Y-9668700D03*
G01X12296013Y-10168699D03*
G01X12595987Y-10168699D03*
G01X12595987Y-9668700D03*
G01X12296013Y-9668700D03*
G01X14277213Y-10168699D03*
G01X14577187Y-10168699D03*
G01X14577187Y-9668700D03*
G01X14277213Y-9668700D03*
G01X16207613Y-10168699D03*
G01X16507587Y-10168699D03*
G01X16507587Y-9668700D03*
G01X16207613Y-9668700D03*
G01X18176113Y-10168699D03*
G01X18476087Y-10168699D03*
G01X18476087Y-9668700D03*
G01X18176113Y-9668700D03*
G01X20144613Y-10168699D03*
G01X20444587Y-10168699D03*
G01X20444587Y-9668700D03*
G01X20144613Y-9668700D03*
G01X8384413Y-12238799D03*
G01X8684387Y-12238799D03*
G01X8684387Y-11738800D03*
G01X8384413Y-11738800D03*
G01X10352913Y-12238799D03*
G01X10652887Y-12238799D03*
G01X10652887Y-11738800D03*
G01X10352913Y-11738800D03*
G01X12283313Y-12238799D03*
G01X12583287Y-12238799D03*
G01X12583287Y-11738800D03*
G01X12283313Y-11738800D03*
G01X14277213Y-12238799D03*
G01X14577187Y-12238799D03*
G01X14577187Y-11738800D03*
G01X14277213Y-11738800D03*
G01X16245713Y-12238799D03*
G01X16545687Y-12238799D03*
G01X16545687Y-11738800D03*
G01X16245713Y-11738800D03*
G01X18176113Y-12238799D03*
G01X18476087Y-12238799D03*
G01X18476087Y-11738800D03*
G01X18176113Y-11738800D03*
G01X20144613Y-12238799D03*
G01X20444587Y-12238799D03*
G01X20444587Y-11738800D03*
G01X20144613Y-11738800D03*
G01X8384413Y-14308899D03*
G01X8684387Y-14308899D03*
G01X8684387Y-13808900D03*
G01X8384413Y-13808900D03*
G01X10352913Y-14308899D03*
G01X10652887Y-14308899D03*
G01X10652887Y-13808900D03*
G01X10352913Y-13808900D03*
G01X12283313Y-14308899D03*
G01X12583287Y-14308899D03*
G01X12583287Y-13808900D03*
G01X12283313Y-13808900D03*
G01X14277213Y-14308899D03*
G01X14577187Y-14308899D03*
G01X14577187Y-13808900D03*
G01X14277213Y-13808900D03*
G01X16271113Y-14308899D03*
G01X16571087Y-14308899D03*
G01X16571087Y-13808900D03*
G01X16271113Y-13808900D03*
G01X18188813Y-14308899D03*
G01X18488787Y-14308899D03*
G01X18488787Y-13808900D03*
G01X18188813Y-13808900D03*
G01X20157313Y-14308899D03*
G01X20457287Y-14308899D03*
G01X20457287Y-13808900D03*
G01X20157313Y-13808900D03*
G01X8397113Y-16378999D03*
G01X8697087Y-16378999D03*
G01X8697087Y-15879000D03*
G01X8397113Y-15879000D03*
G01X10365613Y-16366299D03*
G01X10665587Y-16366299D03*
G01X10665587Y-15866300D03*
G01X10365613Y-15866300D03*
G01X12270613Y-16378999D03*
G01X12570587Y-16378999D03*
G01X12570587Y-15879000D03*
G01X12270613Y-15879000D03*
G01X14277213Y-16378999D03*
G01X14577187Y-16378999D03*
G01X14577187Y-15879000D03*
G01X14277213Y-15879000D03*
G01X16271113Y-16378999D03*
G01X16571087Y-16378999D03*
G01X16571087Y-15879000D03*
G01X16271113Y-15879000D03*
G01X18214213Y-16378999D03*
G01X18514187Y-16378999D03*
G01X18514187Y-15879000D03*
G01X18214213Y-15879000D03*
G01X20170013Y-16378999D03*
G01X20469987Y-16378999D03*
G01X20469987Y-15879000D03*
G01X20170013Y-15879000D03*
G54D14*
G01X5017795Y-2984500D03*
G01X4227805Y-2984500D03*
G54D16*
G01X1035088Y-1757782D03*
G01X1035114Y-1137818D03*
G54D17*
G01X565087Y-1457808D03*
G54D18*
G01X5906199Y-1584211D03*
G01X5656212Y-1834197D03*
G01X5156213Y-1584211D03*
G01X4656214Y-1834197D03*
G01X4406202Y-1584211D03*
G01X5656212Y-604202D03*
G01X4656214Y-604202D03*
G01X8115999Y-1584211D03*
G01X7866012Y-1834197D03*
G01X7366013Y-1584211D03*
G01X6866014Y-1834197D03*
G01X6616002Y-1584211D03*
G01X7866012Y-604202D03*
G01X6866014Y-604202D03*
G54D19*
G01X9706399Y-1710398D03*
G01X10156398Y-880400D03*
G01X10156398Y-1190399D03*
G01X10156398Y-1600398D03*
G54D20*
G01X1503091Y-13874001D03*
G01X2383099Y-13874001D03*
G54D21*
G01X2193107Y-14573999D03*
G01X1943095Y-14573999D03*
G01X1693108Y-14573999D03*
G54D20*
G01X1452291Y-12134101D03*
G01X2332299Y-12134101D03*
G54D21*
G01X2142307Y-12834099D03*
G01X1892295Y-12834099D03*
G01X1642308Y-12834099D03*
G54D20*
G01X1464991Y-10356101D03*
G01X2344999Y-10356101D03*
G54D21*
G01X2155007Y-11056099D03*
G01X1904995Y-11056099D03*
G01X1655008Y-11056099D03*
G54D22*
G01X6202096Y-9042400D03*
G01X6202096Y-8915400D03*
G01X6202096Y-8788400D03*
G01X6202096Y-8661400D03*
G01X6202096Y-8534400D03*
G01X6202096Y-8407400D03*
G01X6202096Y-8280400D03*
G01X6202096Y-8153400D03*
G01X6202096Y-8026400D03*
G01X6202096Y-7899400D03*
G01X6202096Y-7772400D03*
G01X6202096Y-7645400D03*
G01X5253304Y-9042400D03*
G01X5253304Y-8915400D03*
G01X5253304Y-8788400D03*
G01X5253304Y-8661400D03*
G01X5253304Y-8534400D03*
G01X5253304Y-8407400D03*
G01X5253304Y-8280400D03*
G01X5253304Y-8153400D03*
G01X5253304Y-8026400D03*
G01X5253304Y-7899400D03*
G01X5253304Y-7772400D03*
G01X5253304Y-7645400D03*
G01X5215204Y-5143500D03*
G01X5215204Y-5270500D03*
G01X5215204Y-5397500D03*
G01X5215204Y-5524500D03*
G01X5215204Y-5651500D03*
G01X5215204Y-5778500D03*
G01X5215204Y-5905500D03*
G01X5215204Y-6032500D03*
G01X5215204Y-6159500D03*
G01X5215204Y-6286500D03*
G01X5215204Y-6413500D03*
G01X5215204Y-6540500D03*
G01X6163996Y-5143500D03*
G01X6163996Y-5270500D03*
G01X6163996Y-5397500D03*
G01X6163996Y-5524500D03*
G01X6163996Y-5651500D03*
G01X6163996Y-5778500D03*
G01X6163996Y-5905500D03*
G01X6163996Y-6032500D03*
G01X6163996Y-6159500D03*
G01X6163996Y-6286500D03*
G01X6163996Y-6413500D03*
G01X6163996Y-6540500D03*
G54D23*
G01X5397500Y-3098800D03*
G54D21*
G01X5397500Y-3352800D03*
G01X5397500Y-3606800D03*
G01X5397500Y-3860800D03*
G01X6159500Y-3098800D03*
G01X6159500Y-3352800D03*
G01X6159500Y-3606800D03*
G01X6159500Y-3860800D03*
G54D14*
G01X2141499Y-1071905D03*
G01X2141499Y-1271905D03*
G01X2811501Y-1071905D03*
G01X2811501Y-1271905D03*
G01X2376500Y-1391895D03*
G01X2576500Y-1391895D03*
G54D24*
G01X7739699Y-5805359D03*
G01X7421183Y-5805359D03*
G54D25*
G01X3111500Y-1551000D03*
G01X3111500Y-481000D03*
G54D14*
G01X10248900Y-3506495D03*
G01X10248900Y-2716505D03*
G01X15481300Y-2716505D03*
G01X15481300Y-3506495D03*
G01X11252200Y-2716505D03*
G01X11252200Y-3506495D03*
G01X14503400Y-3481095D03*
G01X14503400Y-2691105D03*
G01X18630900Y-3481095D03*
G01X18630900Y-2691105D03*
G01X19596100Y-2691105D03*
G01X19596100Y-3481095D03*
G54D26*
G01X1811299Y-1752600D03*
G01X2100301Y-1752600D03*
G54D19*
G01X11116099Y-1710398D03*
G01X11566098Y-880400D03*
G01X11566098Y-1190399D03*
G01X11566098Y-1600398D03*
G01X13986299Y-1710398D03*
G01X14436298Y-880400D03*
G01X14436298Y-1190399D03*
G01X14436298Y-1600398D03*
G01X15484899Y-1710398D03*
G01X15934898Y-880400D03*
G01X15934898Y-1190399D03*
G01X15934898Y-1600398D03*
G01X18139199Y-1710398D03*
G01X18589198Y-880400D03*
G01X18589198Y-1190399D03*
G01X18589198Y-1600398D03*
G01X19586999Y-1710398D03*
G01X20036998Y-880400D03*
G01X20036998Y-1190399D03*
G01X20036998Y-1600398D03*
G54D27*
G01X2966644Y-1879600D03*
G01X2595956Y-1879600D03*
G54D28*
G01X6870700Y-3810000D03*
G54D29*
G01X7124700Y-3810000D03*
G01X7378700Y-3810000D03*
G01X7632700Y-3810000D03*
G01X7886700Y-3810000D03*
G01X8140700Y-3810000D03*
G01X8394700Y-3810000D03*
G01X6870700Y-3048000D03*
G01X7124700Y-3048000D03*
G01X7378700Y-3048000D03*
G01X7632700Y-3048000D03*
G01X7886700Y-3048000D03*
G01X8140700Y-3048000D03*
G01X8394700Y-3048000D03*
G54D13*
G01X18963513Y-1037399D03*
G01X19263487Y-1037399D03*
G01X19263487Y-537400D03*
G01X18963513Y-537400D03*
G01X18963513Y-1824799D03*
G01X19263487Y-1824799D03*
G01X19263487Y-1324800D03*
G01X18963513Y-1324800D03*
G01X14810613Y-1050099D03*
G01X15110587Y-1050099D03*
G01X15110587Y-550100D03*
G01X14810613Y-550100D03*
G01X14823313Y-1837499D03*
G01X15123287Y-1837499D03*
G01X15123287Y-1337500D03*
G01X14823313Y-1337500D03*
G01X10492613Y-1050099D03*
G01X10792587Y-1050099D03*
G01X10792587Y-550100D03*
G01X10492613Y-550100D03*
G01X10492613Y-1837499D03*
G01X10792587Y-1837499D03*
G01X10792587Y-1337500D03*
G01X10492613Y-1337500D03*
G01X6898513Y-12746799D03*
G01X7198487Y-12746799D03*
G01X7198487Y-12246800D03*
G01X6898513Y-12246800D03*
G01X2745613Y-10613199D03*
G01X3045587Y-10613199D03*
G01X3045587Y-10113200D03*
G01X2745613Y-10113200D03*
G01X815213Y-12378499D03*
G01X1115187Y-12378499D03*
G01X1115187Y-11878500D03*
G01X815213Y-11878500D03*
G01X815213Y-14131099D03*
G01X1115187Y-14131099D03*
G01X1115187Y-13631100D03*
G01X815213Y-13631100D03*
G54D19*
G01X3483399Y-1710398D03*
G01X3933398Y-880400D03*
G01X3933398Y-1190399D03*
G01X3933398Y-1600398D03*
G01X8601499Y-1710398D03*
G01X9051498Y-880400D03*
G01X9051498Y-1190399D03*
G01X9051498Y-1600398D03*
G54D30*
G01X10488651Y-2679700D03*
G01X10488651Y-2806700D03*
G01X10488651Y-2933700D03*
G01X10488651Y-3060700D03*
G01X11025149Y-2679700D03*
G01X11025149Y-2806700D03*
G01X11025149Y-2933700D03*
G01X11025149Y-3060700D03*
G01X14717751Y-2654300D03*
G01X14717751Y-2781300D03*
G01X14717751Y-2908300D03*
G01X14717751Y-3035300D03*
G01X15254249Y-2654300D03*
G01X15254249Y-2781300D03*
G01X15254249Y-2908300D03*
G01X15254249Y-3035300D03*
G01X18845251Y-2654300D03*
G01X18845251Y-2781300D03*
G01X18845251Y-2908300D03*
G01X18845251Y-3035300D03*
G01X19381749Y-2654300D03*
G01X19381749Y-2781300D03*
G01X19381749Y-2908300D03*
G01X19381749Y-3035300D03*
G54D10*
G01X5168900Y-7327900D03*
G01X736600Y-5588000D03*
G01X838200Y-2032000D03*
G01X11391900Y-2108200D03*
G01X6299200Y-3987800D03*
G54D31*
G01X9198508Y-2413000D03*
G01X9089492Y-2413000D03*
G01X9198508Y-3276600D03*
G01X9089492Y-3276600D03*
G01X16544392Y-3276549D03*
G01X16653408Y-3276549D03*
G01X16544392Y-2590749D03*
G01X16653408Y-2590749D03*
G01X12315292Y-2400300D03*
G01X12424308Y-2400300D03*
G01X12424308Y-3289300D03*
G01X12315292Y-3289300D03*
G01X13414908Y-2590800D03*
G01X13305892Y-2590800D03*
G01X13414908Y-3289300D03*
G01X13305892Y-3289300D03*
G01X17605908Y-2590800D03*
G01X17496892Y-2590800D03*
G01X17605908Y-3276600D03*
G01X17496892Y-3276600D03*
G01X20621092Y-3276600D03*
G01X20730108Y-3276600D03*
G01X20621092Y-2578100D03*
G01X20730108Y-2578100D03*
G54D32*
G01X4635500Y-4316400D03*
G01X4635500Y-4116400D03*
G54D33*
G01X1180808Y-2298700D03*
G01X1714792Y-2298700D03*
G54D31*
G01X6955892Y-6515100D03*
G01X7064908Y-6515100D03*
G01X1248308Y-7797800D03*
G01X1139292Y-7797800D03*
G54D34*
G01X1238402Y-6959600D03*
G01X1098398Y-6959600D03*
G01X6660998Y-6057900D03*
G01X6801002Y-6057900D03*
G01X5797702Y-9359900D03*
G01X5657698Y-9359900D03*
G01X6534302Y-4927600D03*
G01X6394298Y-4927600D03*
G01X6953098Y-7327900D03*
G01X7093102Y-7327900D03*
G01X7143902Y-2781300D03*
G01X7003898Y-2781300D03*
G01X19272098Y-5676900D03*
G01X19412102Y-5676900D03*
G01X17240098Y-7899400D03*
G01X17380102Y-7899400D03*
G01X15322398Y-9969500D03*
G01X15462402Y-9969500D03*
G01X13595198Y-12090400D03*
G01X13735202Y-12090400D03*
G01X11436198Y-14071600D03*
G01X11576202Y-14071600D03*
G01X9429598Y-16078200D03*
G01X9569602Y-16078200D03*
G54D35*
G01X5524500Y-4654702D03*
G01X5524500Y-4514698D03*
G01X20523200Y-1568298D03*
G01X20523200Y-1708302D03*
G54D34*
G01X6902298Y-13271500D03*
G01X7042302Y-13271500D03*
G54D31*
G01X4695292Y-5588000D03*
G01X4804308Y-5588000D03*
G54D36*
G01X854647Y-2933362D03*
G01X694754Y-2934048D03*
G54D37*
G01X7642341Y-5462459D03*
G01X7442341Y-5462459D03*
G01X4773600Y-3822700D03*
G01X4573600Y-3822700D03*
G01X4773600Y-4660900D03*
G01X4573600Y-4660900D03*
G54D38*
G01X9499600Y-2287600D03*
G01X9499600Y-2487600D03*
G01X15913100Y-2287600D03*
G01X15913100Y-2487600D03*
G01X11671300Y-2300300D03*
G01X11671300Y-2500300D03*
G01X13728700Y-2287600D03*
G01X13728700Y-2487600D03*
G01X17900650Y-2281250D03*
G01X17900650Y-2481250D03*
G01X20046950Y-2281250D03*
G01X20046950Y-2481250D03*
G01X9804400Y-2287600D03*
G01X9804400Y-2487600D03*
G01X16230600Y-2287600D03*
G01X16230600Y-2487600D03*
G01X11976100Y-2500300D03*
G01X11976100Y-2300300D03*
G01X14058900Y-2287600D03*
G01X14058900Y-2487600D03*
G01X18186400Y-2287600D03*
G01X18186400Y-2487600D03*
G01X20256500Y-2287600D03*
G01X20256500Y-2487600D03*
G01X9486900Y-3176600D03*
G01X9486900Y-3376600D03*
G01X15913100Y-3189300D03*
G01X15913100Y-3389300D03*
G01X11671300Y-3189300D03*
G01X11671300Y-3389300D03*
G01X13728700Y-3176600D03*
G01X13728700Y-3376600D03*
G01X17894300Y-3176600D03*
G01X17894300Y-3376600D03*
G01X20040600Y-3176600D03*
G01X20040600Y-3376600D03*
G01X9804400Y-3376600D03*
G01X9804400Y-3176600D03*
G01X16230600Y-3189300D03*
G01X16230600Y-3389300D03*
G01X11976100Y-3389300D03*
G01X11976100Y-3189300D03*
G01X14058900Y-3176600D03*
G01X14058900Y-3376600D03*
G01X18173700Y-3176600D03*
G01X18173700Y-3376600D03*
G01X20345400Y-3176600D03*
G01X20345400Y-3376600D03*
G54D37*
G01X4773600Y-3479800D03*
G01X4573600Y-3479800D03*
G01X4303700Y-5956300D03*
G01X4103700Y-5956300D03*
G01X3313100Y-5956300D03*
G01X3113100Y-5956300D03*
G54D38*
G01X7569200Y-2589200D03*
G01X7569200Y-2389200D03*
G01X6629400Y-2576500D03*
G01X6629400Y-2376500D03*
G01X8128000Y-2589200D03*
G01X8128000Y-2389200D03*
G01X8585200Y-2589200D03*
G01X8585200Y-2389200D03*
G54D37*
G01X8951900Y-3924300D03*
G01X8751900Y-3924300D03*
G54D38*
G01X7378700Y-6996100D03*
G01X7378700Y-6796100D03*
G54D37*
G01X7415200Y-8788400D03*
G01X7215200Y-8788400D03*
G01X7478700Y-10947400D03*
G01X7278700Y-10947400D03*
G01X7466000Y-13068300D03*
G01X7266000Y-13068300D03*
G01X7427900Y-15201900D03*
G01X7227900Y-15201900D03*
G54D38*
G01X4216400Y-2351100D03*
G01X4216400Y-2551100D03*
G54D37*
G01X4649800Y-5295900D03*
G01X4849800Y-5295900D03*
G54D38*
G01X3886200Y-3021000D03*
G01X3886200Y-2821000D03*
G01X3606800Y-3021000D03*
G01X3606800Y-2821000D03*
G01X3327400Y-3021000D03*
G01X3327400Y-2821000D03*
G01X3048000Y-3021000D03*
G01X3048000Y-2821000D03*
G01X2400300Y-3021000D03*
G01X2400300Y-2821000D03*
G01X2120900Y-3021000D03*
G01X2120900Y-2821000D03*
G54D39*
G01X7733602Y-4461700D03*
G01X9233599Y-4461700D03*
G01X7733602Y-4961699D03*
G01X9233599Y-4961699D03*
G01X9702102Y-4461700D03*
G01X11202099Y-4461700D03*
G01X9702102Y-4961699D03*
G01X11202099Y-4961699D03*
G01X11670602Y-4461700D03*
G01X13170599Y-4461700D03*
G01X11670602Y-4961699D03*
G01X13170599Y-4961699D03*
G01X13639102Y-4461700D03*
G01X15139099Y-4461700D03*
G01X13639102Y-4961699D03*
G01X15139099Y-4961699D03*
G01X15607602Y-4461700D03*
G01X17107599Y-4461700D03*
G01X15607602Y-4961699D03*
G01X17107599Y-4961699D03*
G01X17576102Y-4461700D03*
G01X19076099Y-4461700D03*
G01X17576102Y-4961699D03*
G01X19076099Y-4961699D03*
G01X19544602Y-4461700D03*
G01X21044599Y-4461700D03*
G01X19544602Y-4961699D03*
G01X21044599Y-4961699D03*
G01X7733602Y-6531800D03*
G01X9233599Y-6531800D03*
G01X7733602Y-7031799D03*
G01X9233599Y-7031799D03*
G01X9702102Y-6531800D03*
G01X11202099Y-6531800D03*
G01X9702102Y-7031799D03*
G01X11202099Y-7031799D03*
G01X11670602Y-6531800D03*
G01X13170599Y-6531800D03*
G01X11670602Y-7031799D03*
G01X13170599Y-7031799D03*
G01X13639102Y-6531800D03*
G01X15139099Y-6531800D03*
G01X13639102Y-7031799D03*
G01X15139099Y-7031799D03*
G01X15607602Y-6531800D03*
G01X17107599Y-6531800D03*
G01X15607602Y-7031799D03*
G01X17107599Y-7031799D03*
G01X17576102Y-6531800D03*
G01X19076099Y-6531800D03*
G01X17576102Y-7031799D03*
G01X19076099Y-7031799D03*
G01X19544602Y-6531800D03*
G01X21044599Y-6531800D03*
G01X19544602Y-7031799D03*
G01X21044599Y-7031799D03*
G01X7759002Y-8601900D03*
G01X9258999Y-8601900D03*
G01X7759002Y-9101899D03*
G01X9258999Y-9101899D03*
G01X9727502Y-8601900D03*
G01X11227499Y-8601900D03*
G01X9727502Y-9101899D03*
G01X11227499Y-9101899D03*
G01X11696002Y-8601900D03*
G01X13195999Y-8601900D03*
G01X11696002Y-9101899D03*
G01X13195999Y-9101899D03*
G01X13664502Y-8601900D03*
G01X15164499Y-8601900D03*
G01X13664502Y-9101899D03*
G01X15164499Y-9101899D03*
G01X15633002Y-8601900D03*
G01X17132999Y-8601900D03*
G01X15633002Y-9101899D03*
G01X17132999Y-9101899D03*
G01X17601502Y-8601900D03*
G01X19101499Y-8601900D03*
G01X17601502Y-9101899D03*
G01X19101499Y-9101899D03*
G01X19570002Y-8601900D03*
G01X21069999Y-8601900D03*
G01X19570002Y-9101899D03*
G01X21069999Y-9101899D03*
G01X7771702Y-10672000D03*
G01X9271699Y-10672000D03*
G01X7771702Y-11171999D03*
G01X9271699Y-11171999D03*
G01X9740202Y-10672000D03*
G01X11240199Y-10672000D03*
G01X9740202Y-11171999D03*
G01X11240199Y-11171999D03*
G01X11696002Y-10672000D03*
G01X13195999Y-10672000D03*
G01X11696002Y-11171999D03*
G01X13195999Y-11171999D03*
G01X13651802Y-10672000D03*
G01X15151799Y-10672000D03*
G01X13651802Y-11171999D03*
G01X15151799Y-11171999D03*
G01X15620302Y-10672000D03*
G01X17120299Y-10672000D03*
G01X15620302Y-11171999D03*
G01X17120299Y-11171999D03*
G01X17588802Y-10672000D03*
G01X19088799Y-10672000D03*
G01X17588802Y-11171999D03*
G01X19088799Y-11171999D03*
G01X19557302Y-10672000D03*
G01X21057299Y-10672000D03*
G01X19557302Y-11171999D03*
G01X21057299Y-11171999D03*
G01X7797102Y-12742100D03*
G01X9297099Y-12742100D03*
G01X7797102Y-13242099D03*
G01X9297099Y-13242099D03*
G01X9765602Y-12742100D03*
G01X11265599Y-12742100D03*
G01X9765602Y-13242099D03*
G01X11265599Y-13242099D03*
G01X11734102Y-12742100D03*
G01X13234099Y-12742100D03*
G01X11734102Y-13242099D03*
G01X13234099Y-13242099D03*
G01X13702602Y-12742100D03*
G01X15202599Y-12742100D03*
G01X13702602Y-13242099D03*
G01X15202599Y-13242099D03*
G01X15671102Y-12742100D03*
G01X17171099Y-12742100D03*
G01X15671102Y-13242099D03*
G01X17171099Y-13242099D03*
G01X17639602Y-12742100D03*
G01X19139599Y-12742100D03*
G01X17639602Y-13242099D03*
G01X19139599Y-13242099D03*
G01X19608102Y-12742100D03*
G01X21108099Y-12742100D03*
G01X19608102Y-13242099D03*
G01X21108099Y-13242099D03*
G01X7797102Y-14812200D03*
G01X9297099Y-14812200D03*
G01X7797102Y-15312199D03*
G01X9297099Y-15312199D03*
G01X9765602Y-14799500D03*
G01X11265599Y-14799500D03*
G01X9765602Y-15299499D03*
G01X11265599Y-15299499D03*
G01X11734102Y-14812200D03*
G01X13234099Y-14812200D03*
G01X11734102Y-15312199D03*
G01X13234099Y-15312199D03*
G01X13702602Y-14812200D03*
G01X15202599Y-14812200D03*
G01X13702602Y-15312199D03*
G01X15202599Y-15312199D03*
G01X15671102Y-14812200D03*
G01X17171099Y-14812200D03*
G01X15671102Y-15312199D03*
G01X17171099Y-15312199D03*
G01X17639602Y-14812200D03*
G01X19139599Y-14812200D03*
G01X17639602Y-15312199D03*
G01X19139599Y-15312199D03*
G01X19608102Y-14812200D03*
G01X21108099Y-14812200D03*
G01X19608102Y-15312199D03*
G01X21108099Y-15312199D03*
G01X3415602Y-10760900D03*
G01X4915599Y-10760900D03*
G01X3415602Y-11260899D03*
G01X4915599Y-11260899D03*
G01X2920302Y-12221400D03*
G01X4420299Y-12221400D03*
G01X2920302Y-12721399D03*
G01X4420299Y-12721399D03*
G01X3415602Y-13758100D03*
G01X4915599Y-13758100D03*
G01X3415602Y-14258099D03*
G01X4915599Y-14258099D03*
G01X5371402Y-13745400D03*
G01X6871399Y-13745400D03*
G01X5371402Y-14245399D03*
G01X6871399Y-14245399D03*
G01X4838002Y-12221400D03*
G01X6337999Y-12221400D03*
G01X4838002Y-12721399D03*
G01X6337999Y-12721399D03*
G01X5346002Y-10748200D03*
G01X6845999Y-10748200D03*
G01X5346002Y-11248199D03*
G01X6845999Y-11248199D03*
G54D34*
G01X1505102Y-2908300D03*
G01X1365098Y-2908300D03*
G01X10686898Y-2451100D03*
G01X10826902Y-2451100D03*
G01X14915998Y-2438400D03*
G01X15056002Y-2438400D03*
G01X19043498Y-2425700D03*
G01X19183502Y-2425700D03*
G54D10*
G01X18376900Y-2743200D03*
G04 Pad End*

G04 Via Start*
G54D40*
G01X3238500Y-1968500D03*
G01X6819900Y-5842000D03*
G01X4572000Y-850900D03*
G54D41*
G01X19631787Y-13902499D03*
G01X19776186Y-13808900D03*
G01X19619087Y-7692199D03*
G01X19763486Y-7598600D03*
G01X19631787Y-8936799D03*
G01X18056987Y-9571799D03*
G01X18768187Y-7501699D03*
G01X18260187Y-7577899D03*
G01X19619087Y-11832399D03*
G01X19763486Y-11738800D03*
G01X4748505Y-3606800D03*
G01X19200114Y-732599D03*
G01X18946114Y-732599D03*
G01X18783973Y-1383697D03*
G01X19022314Y-1434401D03*
G01X19136487Y-1697799D03*
G01X18828401Y-1497885D03*
G01X15008987Y-1075499D03*
G01X14932787Y-948499D03*
G01X15059787Y-719899D03*
G01X14805787Y-719899D03*
G01X14631073Y-1433134D03*
G01X14881987Y-1397000D03*
G01X15021687Y-1837499D03*
G01X10340213Y-1499425D03*
G01X10754614Y-719899D03*
G01X10424414Y-719899D03*
G01X10251313Y-1397000D03*
G01X10543413Y-1456499D03*
G01X10335387Y-2370899D03*
G01X10106787Y-2955099D03*
G01X9776587Y-3590099D03*
G01X6898513Y-11456225D03*
G01X19085687Y-1782000D03*
G01X7071487Y-12772199D03*
G01X5826887Y-13610399D03*
G01X2448687Y-13610399D03*
G01X1005586Y-13631100D03*
G01X5246395Y-3238500D03*
G01X4300614Y-1249997D03*
G01X18580100Y-2846095D03*
G01X18376900Y-2642895D03*
G01X18997651Y-2882900D03*
G01X19099251Y-2781300D03*
G01X20494092Y-2946400D03*
G01X20316292Y-2768600D03*
G01X12683698Y-2387798D03*
G01X12505898Y-2413198D03*
G01X13623498Y-2590998D03*
G01X13598098Y-3098998D03*
G01X16468298Y-3098998D03*
G01X11871604Y-2300300D03*
G01X14376400Y-2818105D03*
G01X3962400Y-3479800D03*
G01X5689600Y-5130800D03*
G01X2285302Y-12848399D03*
G01X2920302Y-13686599D03*
G01X6585102Y-5029200D03*
G01X6737502Y-4953000D03*
G01X8718702Y-3568700D03*
G01X9607702Y-3263900D03*
G01X6972300Y-2971800D03*
G01X6988708Y-6417208D03*
G01X20495387Y-3374200D03*
G01X20622387Y-1688274D03*
G01X6536004Y-6413500D03*
G01X6993204Y-5702300D03*
G01X5926404Y-5854700D03*
G01X6358204Y-5702300D03*
G01X6840804Y-6438900D03*
G01X7298004Y-6540500D03*
G01X18642902Y-7031799D03*
G01X19354102Y-7031799D03*
G01X6129604Y-7556500D03*
G01X6764604Y-8216900D03*
G01X18642902Y-9076499D03*
G01X19379502Y-9038399D03*
G01X6028004Y-7658100D03*
G01X6713804Y-9690100D03*
G01X18808002Y-11171999D03*
G01X19062002Y-11324399D03*
G01X5850204Y-7632700D03*
G01X6053404Y-8851900D03*
G01X18808002Y-13242099D03*
G01X19087402Y-13394499D03*
G01X5723204Y-7480300D03*
G01X6764604Y-12915900D03*
G01X18833402Y-15312199D03*
G01X19341402Y-15312199D03*
G01X5037404Y-5372100D03*
G01X5012004Y-5549900D03*
G01X5401996Y-5981700D03*
G01X4690796Y-6210300D03*
G01X5605196Y-5880100D03*
G01X4919396Y-14109700D03*
G01X6494196Y-5727700D03*
G01X6773596Y-8318500D03*
G01X6646596Y-8420100D03*
G01X6849796Y-12890500D03*
G01X6341796Y-5803900D03*
G01X6316396Y-11112500D03*
G01X6722796Y-6515100D03*
G01X6773596Y-7404100D03*
G01X5986196Y-7861300D03*
G01X6062396Y-8724900D03*
G01X5994400Y-3035300D03*
G01X6299200Y-3060700D03*
G01X6045200Y-2948000D03*
G01X10820400Y-3100400D03*
G01X3251200Y-3302000D03*
G01X3962400Y-3302000D03*
G01X2984500Y-3200400D03*
G01X3975100Y-3200400D03*
G01X4940300Y-3098800D03*
G01X16090900Y-3048000D03*
G01X4076700Y-2374900D03*
G01X19432600Y-3176600D03*
G01X5727695Y-6115799D03*
G01X5661597Y-6204699D03*
G01X863600Y-3098800D03*
G01X6498798Y-3120799D03*
G01X6371798Y-3654199D03*
G01X6711798Y-6152998D03*
G01X6644589Y-6406998D03*
G01X5948096Y-7340600D03*
G01X5440096Y-7738008D03*
G01X15637299Y-1329398D03*
G01X15764299Y-1202398D03*
G01X18316999Y-1532598D03*
G01X20438600Y-1525397D03*
G01X20044199Y-1761198D03*
G01X2383099Y-14229601D03*
G01X19195898Y-5611896D03*
G01X17163898Y-7821696D03*
G01X15258898Y-9879096D03*
G01X13531698Y-12012696D03*
G01X11436198Y-14158996D03*
G01X9353398Y-16063996D03*
G01X7168998Y-13879596D03*
G01X6464300Y-4673600D03*
G01X6210300Y-4800600D03*
G01X4279900Y-5232400D03*
G01X2667000Y-5080000D03*
G01X3098795Y-9887699D03*
G01X4546595Y-6583101D03*
G01X5486395Y-6151301D03*
G01X8572500Y-3124200D03*
G01X2489200Y-3886200D03*
G01X3860800Y-3784600D03*
G01X2641600Y-4445000D03*
G01X5029200Y-4724400D03*
G01X5943600Y-3937000D03*
G01X3124200Y-5003800D03*
G01X4114800Y-5003800D03*
G01X6223000Y-9118600D03*
G01X5842000Y-7924800D03*
G01X4902200Y-6883400D03*
G01X5080000Y-6235700D03*
G01X5080000Y-6464300D03*
G01X5588000Y-6146800D03*
G01X6019800Y-6223000D03*
G01X4953000Y-6807200D03*
G01X6070600Y-7823200D03*
G01X4826000Y-6731000D03*
G01X5384800Y-6400800D03*
G01X5435600Y-6731000D03*
G01X5257800Y-7416800D03*
G01X7141896Y-7442200D03*
G01X9021496Y-7035800D03*
G01X9250096Y-8305800D03*
G01X6405296Y-8077200D03*
G01X6786296Y-9347200D03*
G01X9072296Y-11176000D03*
G01X9275496Y-12293600D03*
G01X9275496Y-14503400D03*
G01X7446696Y-9017000D03*
G01X11028096Y-9017000D03*
G01X11180496Y-7264400D03*
G01X11180496Y-5435600D03*
G01X11053496Y-11201400D03*
G01X11256696Y-12446000D03*
G01X11214799Y-14359903D03*
G01X7091096Y-9067800D03*
G01X12983896Y-9093200D03*
G01X13161696Y-7264400D03*
G01X13195999Y-9279699D03*
G01X13195999Y-10371899D03*
G01X13161696Y-5435600D03*
G01X13195999Y-12302299D03*
G01X13234099Y-13102399D03*
G01X13234099Y-14524799D03*
G01X7497496Y-9330499D03*
G01X13085496Y-9330499D03*
G01X15142896Y-8949499D03*
G01X15142896Y-7273099D03*
G01X15142896Y-5444299D03*
G01X15142896Y-9381299D03*
G01X14863496Y-10168699D03*
G01X15142896Y-11032299D03*
G01X15193696Y-12454699D03*
G01X15193696Y-14512099D03*
G01X6913296Y-9093200D03*
G01X15870796Y-9025699D03*
G01X16937596Y-9152699D03*
G01X17115396Y-10219499D03*
G01X17310799Y-7230097D03*
G01X17513999Y-6874497D03*
G01X17166196Y-12454699D03*
G01X17166196Y-14512099D03*
G01X6989496Y-9169400D03*
G01X15422296Y-9169400D03*
G01X18749696Y-9169400D03*
G01X18952896Y-9245600D03*
G01X19215799Y-11032503D03*
G01X19228499Y-6879399D03*
G01X19076099Y-5329999D03*
G01X19241199Y-13089903D03*
G01X19215799Y-15172703D03*
G01X7294296Y-9271000D03*
G01X15371496Y-9245600D03*
G01X18622696Y-9220200D03*
G01X20917599Y-9254299D03*
G01X6724802Y-5880100D03*
G01X3372002Y-2501900D03*
G01X6826758Y-6261100D03*
G01X7000113Y-12682855D03*
G01X11176000Y-2959100D03*
G01X10617200Y-2908300D03*
G01X13817600Y-2908300D03*
G01X14605000Y-2970251D03*
G01X17957800Y-2741651D03*
G01X11176000Y-3263900D03*
G01X6019800Y-3873500D03*
G04 Via End*

G04 Track Start*
G54D42*
G01X1714792Y-2298700D02*
G01X2100301Y-1913191D01*
G01X2595956Y-1879600D02*
G01X2227301Y-1879600D01*
G01X2966644Y-1879600D02*
G01X3149600Y-1879600D01*
G01X3238500Y-1968500D01*
G01X6819900Y-5842000D02*
G01X6819900Y-6039002D01*
G01X6801002Y-6057900D01*
G01X7487158Y-6057900D02*
G01X7739699Y-5805359D01*
G01X8110473Y-5805359D01*
G01X8333613Y-6028499D01*
G01X8633587Y-5528500D02*
G01X9751314Y-5528500D01*
G01X10251313Y-6028499D01*
G01X10551287Y-5528500D02*
G01X11656314Y-5528500D01*
G01X12156313Y-6028499D01*
G01X12456287Y-5528500D02*
G01X13624814Y-5528500D01*
G01X14124813Y-6028499D01*
G01X14424787Y-5528500D02*
G01X15593314Y-5528500D01*
G01X16093313Y-6028499D01*
G01X16393287Y-5528500D02*
G01X17625314Y-5528500D01*
G01X18125313Y-6028499D01*
G01X19359088Y-5612436D02*
G01X19359088Y-5623885D01*
G01X19412102Y-5676900D01*
G01X19275152Y-5528500D02*
G01X19359088Y-5612436D01*
G01X19412102Y-5676900D02*
G01X19793014Y-5676900D01*
G01X20144613Y-6028499D01*
G01X20444587Y-5528500D02*
G01X20241603Y-5731485D01*
G01X20241603Y-6122963D01*
G01X19375138Y-6384811D02*
G01X19347612Y-6412337D01*
G01X19347612Y-6625476D01*
G01X19088278Y-6884810D02*
G01X18906635Y-6884810D01*
G01X18879109Y-6912336D01*
G01X18879109Y-7093979D01*
G01X18607088Y-7366000D01*
G01X20241603Y-6122963D02*
G01X19979755Y-6384811D01*
G01X19375138Y-6384811D01*
G01X7924800Y-7366000D02*
G01X7879899Y-7410901D01*
G01X7879899Y-7474401D01*
G01X8333613Y-7928116D02*
G01X8333613Y-8098599D01*
G01X8633587Y-7598600D02*
G01X9802114Y-7598600D01*
G01X10302113Y-8098599D01*
G01X10602087Y-7598600D02*
G01X11757914Y-7598600D01*
G01X12257913Y-8098599D01*
G01X12557887Y-7598600D02*
G01X13739114Y-7598600D01*
G01X14239113Y-8098599D01*
G01X14539087Y-7598600D02*
G01X15707614Y-7598600D01*
G01X16207613Y-8098599D01*
G01X17327088Y-7834936D02*
G01X17327088Y-7846385D01*
G01X17380102Y-7899400D01*
G01X17090752Y-7598600D02*
G01X17327088Y-7834936D01*
G01X17380102Y-7899400D02*
G01X17926114Y-7899400D01*
G01X18125313Y-8098599D01*
G01X18425287Y-7598600D02*
G01X19644614Y-7598600D01*
G01X20144613Y-8098599D01*
G01X20444587Y-7598600D02*
G01X20241603Y-7801585D01*
G01X20241603Y-8193063D01*
G01X19400538Y-8454911D02*
G01X19373012Y-8482437D01*
G01X19373012Y-8670176D01*
G01X19088278Y-8954910D01*
G01X18932035Y-8954910D01*
G01X18904509Y-8982436D01*
G01X18904509Y-9138679D02*
G01X18568988Y-9474200D01*
G01X19979755Y-8454911D02*
G01X19400538Y-8454911D01*
G01X7899400Y-9474200D02*
G01X7854499Y-9519101D01*
G01X7854499Y-9638785D01*
G01X8684387Y-9668700D02*
G01X9865614Y-9668700D01*
G01X10365613Y-10168699D01*
G01X10665587Y-9668700D02*
G01X11796014Y-9668700D01*
G01X12296013Y-10168699D01*
G01X12595987Y-9668700D02*
G01X13777214Y-9668700D01*
G01X14277213Y-10168699D01*
G01X15409388Y-9905036D02*
G01X15409388Y-9916485D01*
G01X15462402Y-9969500D01*
G01X15173052Y-9668700D02*
G01X15409388Y-9905036D01*
G01X15462402Y-9969500D02*
G01X16008414Y-9969500D01*
G01X16207613Y-10168699D01*
G01X16507587Y-9668700D02*
G01X17676114Y-9668700D01*
G01X18176113Y-10168699D01*
G01X18476087Y-9668700D02*
G01X19644614Y-9668700D01*
G01X20144613Y-10168699D01*
G01X20444587Y-9668700D02*
G01X20241603Y-9871685D01*
G01X20241603Y-10263163D01*
G01X19387838Y-10525011D02*
G01X19360312Y-10552537D01*
G01X19360312Y-10752976D01*
G01X18919335Y-11025010D02*
G01X18891809Y-11052536D01*
G01X18891809Y-11221479D02*
G01X18581688Y-11531600D01*
G01X20241603Y-10263163D02*
G01X19979755Y-10525011D01*
G01X19387838Y-10525011D01*
G01X7874000Y-11531600D02*
G01X7829099Y-11576501D01*
G01X7829099Y-11640001D01*
G01X8384413Y-12195316D02*
G01X8384413Y-12238799D01*
G01X8684387Y-11738800D02*
G01X9852914Y-11738800D01*
G01X10352913Y-12238799D01*
G01X10652887Y-11738800D02*
G01X11783314Y-11738800D01*
G01X12283313Y-12238799D01*
G01X13682188Y-12025936D02*
G01X13682188Y-12037385D01*
G01X13735202Y-12090400D01*
G01X13395052Y-11738800D02*
G01X13682188Y-12025936D01*
G01X13735202Y-12090400D02*
G01X14128814Y-12090400D01*
G01X14277213Y-12238799D01*
G01X14577187Y-11738800D02*
G01X15745714Y-11738800D01*
G01X16245713Y-12238799D01*
G01X16545687Y-11738800D02*
G01X17676114Y-11738800D01*
G01X18176113Y-12238799D01*
G01X18476087Y-11738800D02*
G01X19644614Y-11738800D01*
G01X20144613Y-12238799D01*
G01X20444587Y-11738800D02*
G01X20241603Y-11941785D01*
G01X20241603Y-12333263D01*
G01X18970135Y-13095110D02*
G01X18942609Y-13122636D01*
G01X18942609Y-13240779D02*
G01X18568988Y-13614400D01*
G01X20241603Y-12333263D02*
G01X19979755Y-12595111D01*
G01X19438638Y-12595111D01*
G01X19336588Y-12697160D01*
G01X19336588Y-12861564D02*
G01X19103043Y-13095110D01*
G01X7912100Y-13614400D02*
G01X7867199Y-13659301D01*
G01X7867199Y-13791685D01*
G01X8684387Y-13808900D02*
G01X9852914Y-13808900D01*
G01X10352913Y-14308899D01*
G01X11523188Y-14007136D02*
G01X11523188Y-14018585D01*
G01X11576202Y-14071600D01*
G01X11324952Y-13808900D02*
G01X11523188Y-14007136D01*
G01X11576202Y-14071600D02*
G01X12046014Y-14071600D01*
G01X12283313Y-14308899D01*
G01X12583287Y-13808900D02*
G01X13777214Y-13808900D01*
G01X14277213Y-14308899D01*
G01X14577187Y-13808900D02*
G01X15771114Y-13808900D01*
G01X16271113Y-14308899D01*
G01X16571087Y-13808900D02*
G01X17688814Y-13808900D01*
G01X18188813Y-14308899D01*
G01X18488787Y-13808900D02*
G01X19657314Y-13808900D01*
G01X20157313Y-14308899D01*
G01X20457287Y-13808900D02*
G01X20254303Y-14011885D01*
G01X20254303Y-14403363D01*
G01X18970135Y-15165210D02*
G01X18942609Y-15192736D01*
G01X18942609Y-15323579D02*
G01X18607088Y-15659100D01*
G01X20254303Y-14403363D02*
G01X19992455Y-14665211D01*
G01X19438638Y-14665211D01*
G01X19336588Y-14767260D01*
G01X19336588Y-14931664D02*
G01X19103043Y-15165210D01*
G01X7912100Y-15659100D02*
G01X7867199Y-15704001D01*
G01X7867199Y-15849085D01*
G01X9516588Y-16013736D02*
G01X9516588Y-16025185D01*
G01X9569602Y-16078200D01*
G01X9381852Y-15879000D02*
G01X9516588Y-16013736D01*
G01X9569602Y-16078200D02*
G01X10077514Y-16078200D01*
G01X10365613Y-16366299D01*
G01X10665587Y-15866300D02*
G01X11757914Y-15866300D01*
G01X12270613Y-16378999D01*
G01X12570587Y-15879000D02*
G01X13777214Y-15879000D01*
G01X14277213Y-16378999D01*
G01X14577187Y-15879000D02*
G01X15771114Y-15879000D01*
G01X16271113Y-16378999D01*
G01X16571087Y-15879000D02*
G01X17714214Y-15879000D01*
G01X18214213Y-16378999D01*
G01X18514187Y-15879000D02*
G01X19670014Y-15879000D01*
G01X20170013Y-16378999D01*
G01X20469987Y-15879000D02*
G01X21738400Y-15879000D01*
G01X21983700Y-15633700D01*
G01X21983700Y-3168802D01*
G01X20523200Y-1708302D02*
G01X20470185Y-1655288D01*
G01X19072033Y-1037399D02*
G01X18963513Y-1037399D01*
G01X20314723Y-1655288D02*
G01X19818824Y-1159389D01*
G01X19194023Y-1159389D01*
G01X18963513Y-1516254D02*
G01X18963513Y-1824799D01*
G01X19263487Y-537400D02*
G01X18866523Y-934364D01*
G01X18866523Y-1419264D01*
G01X18963513Y-1516254D01*
G01X19042253Y-1546034D02*
G01X19042253Y-1712086D01*
G01X14823313Y-1528954D02*
G01X14823313Y-1837499D01*
G01X14713623Y-947064D02*
G01X14713623Y-1144563D01*
G01X14726323Y-1157263D01*
G01X14726323Y-1431964D02*
G01X14823313Y-1528954D01*
G01X11395366Y-1337500D02*
G01X11273377Y-1215511D01*
G01X10658024Y-1215511D01*
G01X10492613Y-1528954D02*
G01X10492613Y-1837499D01*
G01X10395623Y-947064D02*
G01X10395623Y-1431964D01*
G01X10792587Y-1337500D02*
G01X11116099Y-1661013D01*
G01X11116099Y-1710398D01*
G01X3045587Y-10113200D02*
G01X2937067Y-10113200D01*
G01X2815077Y-10235190D01*
G01X2465909Y-10235190D01*
G01X2344999Y-10356101D01*
G01X2758313Y-10714799D02*
G01X2758313Y-10625899D01*
G01X2745613Y-10613199D01*
G01X1865313Y-11607800D02*
G01X2758313Y-10714799D01*
G01X1115187Y-11878500D02*
G01X1242187Y-11878500D01*
G01X1512887Y-11607800D01*
G01X815213Y-12378499D02*
G01X1115187Y-12678473D01*
G01X1115187Y-13631100D01*
G01X815213Y-14131099D02*
G01X923733Y-14131099D01*
G01X1045723Y-14253089D01*
G01X1362589Y-14253089D01*
G01X1435100Y-14325600D01*
G01X3073400Y-14325600D01*
G01X3118301Y-14370501D01*
G01X3118301Y-14522901D02*
G01X3213100Y-14617700D01*
G01X6108700Y-14617700D01*
G01X6153601Y-14572799D01*
G01X6153601Y-13404399D01*
G01X7198487Y-12359513D02*
G01X7198487Y-12246800D01*
G01X6801523Y-12756477D02*
G01X6801523Y-12652336D01*
G01X6829049Y-12624810D01*
G01X6933190Y-12624810D01*
G01X7198487Y-12359513D01*
G01X6153601Y-13404399D02*
G01X6801523Y-12756477D01*
G01X7042302Y-12890589D02*
G01X7042302Y-13271500D01*
G54D43*
G01X20457287Y-14308899D02*
G01X19796887Y-14969299D01*
G01X19796887Y-15426499D01*
G01X19471386Y-15752000D01*
G01X8524113Y-15752000D01*
G01X8397113Y-15879000D01*
G01X8684387Y-10168699D02*
G01X8811387Y-10295699D01*
G01X10424414Y-10295699D01*
G01X10449814Y-10270299D01*
G01X10449814Y-9752901D01*
G01X10365613Y-9668700D01*
G01X8684387Y-12238799D02*
G01X8709787Y-12213399D01*
G01X9547987Y-12213399D01*
G01X9700387Y-12365799D01*
G01X10411587Y-12365799D01*
G01X10436987Y-12340399D01*
G01X10436987Y-11822874D01*
G01X10352913Y-11738800D01*
G01X18488787Y-14308899D02*
G01X19225387Y-14308899D01*
G01X19631787Y-13902499D01*
G01X19776186Y-13808900D02*
G01X20157313Y-13808900D01*
G01X20241387Y-6138100D02*
G01X19580987Y-6798500D01*
G01X8232013Y-7996999D02*
G01X8333613Y-8098599D01*
G01X18425287Y-8098599D02*
G01X19212687Y-8098599D01*
G01X19619087Y-7692199D01*
G01X19763486Y-7598600D02*
G01X20144613Y-7598600D01*
G01X16507587Y-10168699D02*
G01X16532987Y-10143299D01*
G01X17371187Y-10143299D01*
G01X17523587Y-10295699D01*
G01X18234787Y-10295699D01*
G01X18260187Y-10270299D01*
G01X18260187Y-9752774D01*
G01X18176113Y-9668700D01*
G01X18476087Y-10168699D02*
G01X18374487Y-10067099D01*
G01X18374487Y-9584499D01*
G01X18399887Y-9559099D01*
G01X20035012Y-9559099D01*
G01X20144613Y-9668700D01*
G01X20444587Y-10168699D02*
G01X20444587Y-10575099D01*
G01X19403187Y-11616499D01*
G01X8506714Y-11616499D01*
G01X8384413Y-11738800D01*
G01X14577187Y-14308899D02*
G01X14704187Y-14435899D01*
G01X16329787Y-14435899D01*
G01X16355187Y-14410499D01*
G01X16355187Y-13892974D01*
G01X16271113Y-13808900D01*
G01X16507587Y-8098599D02*
G01X16634587Y-8225599D01*
G01X18183987Y-8225599D01*
G01X18209387Y-8200199D01*
G01X18209387Y-7682674D01*
G01X18125313Y-7598600D01*
G01X20444587Y-8098599D02*
G01X20444587Y-8123999D01*
G01X19631787Y-8936799D01*
G01X18056987Y-9571799D02*
G01X18026888Y-9541700D01*
G01X8511413Y-9541700D01*
G01X8384413Y-9668700D01*
G01X8697087Y-16378999D02*
G01X8798687Y-16480599D01*
G01X10424287Y-16480599D01*
G01X10449687Y-16455199D01*
G01X10449687Y-15950374D01*
G01X10365613Y-15866300D01*
G01X20444587Y-6028499D02*
G01X19580987Y-6892099D01*
G01X19377787Y-6892099D01*
G01X19276187Y-6993699D01*
G01X19276187Y-7146099D01*
G01X18920587Y-7501699D01*
G01X18768187Y-7501699D01*
G01X18260187Y-7577899D02*
G01X18260187Y-7552499D01*
G01X18183987Y-7476299D01*
G01X8455914Y-7476299D01*
G01X8333613Y-7598600D01*
G01X16571087Y-14308899D02*
G01X16698087Y-14435899D01*
G01X18247487Y-14435899D01*
G01X18272887Y-14410499D01*
G01X18272887Y-13892974D01*
G01X18188813Y-13808900D01*
G01X20241387Y-10278300D02*
G01X19555587Y-10964100D01*
G01X8282813Y-12137199D02*
G01X8384413Y-12238799D01*
G01X12583287Y-14308899D02*
G01X12710287Y-14435899D01*
G01X14335887Y-14435899D01*
G01X14361287Y-14410499D01*
G01X14361287Y-13892974D01*
G01X14277213Y-13808900D01*
G01X10551287Y-6028499D02*
G01X10678287Y-6155499D01*
G01X12202287Y-6155499D01*
G01X12253087Y-6104699D01*
G01X12253087Y-5625274D01*
G01X12156313Y-5528500D01*
G01X20444587Y-12238799D02*
G01X20444587Y-12695999D01*
G01X19458686Y-13681900D01*
G01X8511413Y-13681900D01*
G01X8384413Y-13808900D01*
G01X12595987Y-10168699D02*
G01X12722987Y-10295699D01*
G01X14323187Y-10295699D01*
G01X14373987Y-10244899D01*
G01X14373987Y-9765474D01*
G01X14277213Y-9668700D01*
G01X14577187Y-12238799D02*
G01X14704187Y-12365799D01*
G01X16304387Y-12365799D01*
G01X16329787Y-12340399D01*
G01X16329787Y-11822874D01*
G01X16245713Y-11738800D01*
G01X12456287Y-6028499D02*
G01X12583287Y-6155499D01*
G01X14183487Y-6155499D01*
G01X14208887Y-6130099D01*
G01X14208887Y-5612574D01*
G01X14124813Y-5528500D01*
G01X16545687Y-12238799D02*
G01X16672687Y-12365799D01*
G01X18222087Y-12365799D01*
G01X18272887Y-12314999D01*
G01X18272887Y-11835574D01*
G01X18176113Y-11738800D01*
G01X14424787Y-6028499D02*
G01X14551787Y-6155499D01*
G01X16151987Y-6155499D01*
G01X16177387Y-6130099D01*
G01X16177387Y-5612574D01*
G01X16093313Y-5528500D01*
G01X8684387Y-14308899D02*
G01X8811387Y-14435899D01*
G01X10411587Y-14435899D01*
G01X10436987Y-14410499D01*
G01X10436987Y-13892974D01*
G01X10352913Y-13808900D01*
G01X14577187Y-16378999D02*
G01X14704187Y-16505999D01*
G01X16329787Y-16505999D01*
G01X16355187Y-16480599D01*
G01X16355187Y-15963074D01*
G01X16271113Y-15879000D01*
G01X14577187Y-10168699D02*
G01X14653387Y-10092499D01*
G01X15516987Y-10092499D01*
G01X15720187Y-10295699D01*
G01X16253587Y-10295699D01*
G01X16304387Y-10244899D01*
G01X16304387Y-9765474D01*
G01X16207613Y-9668700D01*
G01X16393287Y-6028499D02*
G01X16520287Y-6155499D01*
G01X18171287Y-6155499D01*
G01X18222087Y-6104699D01*
G01X18222087Y-5625274D01*
G01X18125313Y-5528500D01*
G01X14539087Y-8098599D02*
G01X14666087Y-8225599D01*
G01X16266287Y-8225599D01*
G01X16291687Y-8200199D01*
G01X16291687Y-7682674D01*
G01X16207613Y-7598600D01*
G01X20241387Y-8233600D02*
G01X19504787Y-8970200D01*
G01X18935211Y-8970200D01*
G01X10652887Y-12238799D02*
G01X10779887Y-12365799D01*
G01X12329287Y-12365799D01*
G01X12380087Y-12314999D01*
G01X12380087Y-11835574D01*
G01X12283313Y-11738800D01*
G01X10652887Y-14308899D02*
G01X10678287Y-14283499D01*
G01X11618087Y-14283499D01*
G01X11770487Y-14435899D01*
G01X12329287Y-14435899D01*
G01X12380087Y-14385099D01*
G01X12380087Y-13905674D01*
G01X12283313Y-13808900D01*
G01X18476087Y-12238799D02*
G01X19212687Y-12238799D01*
G01X19619087Y-11832399D01*
G01X19763486Y-11738800D02*
G01X20144613Y-11738800D01*
G01X18895187Y-13186600D02*
G01X18895187Y-13262800D01*
G01X8633587Y-8098599D02*
G01X8760587Y-8225599D01*
G01X10360787Y-8225599D01*
G01X10386187Y-8200199D01*
G01X10386187Y-7682674D01*
G01X10302113Y-7598600D01*
G01X18425287Y-6028499D02*
G01X18323687Y-5926899D01*
G01X18323687Y-5444299D01*
G01X18349087Y-5418899D01*
G01X20035012Y-5418899D01*
G01X20144613Y-5528500D01*
G01X10665587Y-16366299D02*
G01X10792587Y-16493299D01*
G01X12341987Y-16493299D01*
G01X12367387Y-16467899D01*
G01X12367387Y-15975774D01*
G01X12270613Y-15879000D01*
G01X18514187Y-16378999D02*
G01X18641187Y-16505999D01*
G01X20215987Y-16505999D01*
G01X20266787Y-16455199D01*
G01X20266787Y-15975774D01*
G01X20170013Y-15879000D01*
G01X16571087Y-16378999D02*
G01X16698087Y-16505999D01*
G01X18272887Y-16505999D01*
G01X18298287Y-16480599D01*
G01X18298287Y-15963074D01*
G01X18214213Y-15879000D01*
G01X10665587Y-10168699D02*
G01X10792587Y-10295699D01*
G01X12341987Y-10295699D01*
G01X12392787Y-10244899D01*
G01X12392787Y-9765474D01*
G01X12296013Y-9668700D01*
G01X8633587Y-6028499D02*
G01X8760587Y-6155499D01*
G01X10309987Y-6155499D01*
G01X10335387Y-6130099D01*
G01X10335387Y-5612574D01*
G01X10251313Y-5528500D01*
G01X10602087Y-8098599D02*
G01X10729087Y-8225599D01*
G01X12303887Y-8225599D01*
G01X12354687Y-8174799D01*
G01X12354687Y-7695374D01*
G01X12257913Y-7598600D01*
G01X12570587Y-16378999D02*
G01X12697587Y-16505999D01*
G01X14323187Y-16505999D01*
G01X14373987Y-16455199D01*
G01X14373987Y-15975774D01*
G01X14277213Y-15879000D01*
G01X12557887Y-8098599D02*
G01X12684887Y-8225599D01*
G01X14285087Y-8225599D01*
G01X14335887Y-8174799D01*
G01X14335887Y-7695374D01*
G01X14239113Y-7598600D01*
G01X12583287Y-12238799D02*
G01X12608687Y-12213399D01*
G01X13777087Y-12213399D01*
G01X13929487Y-12365799D01*
G01X14335887Y-12365799D01*
G01X14361287Y-12340399D01*
G01X14361287Y-11822874D01*
G01X14277213Y-11738800D01*
G01X6616002Y-1584211D02*
G01X6616002Y-2363102D01*
G01X6629400Y-2376500D01*
G01X6866014Y-1834197D02*
G01X7014197Y-1834197D01*
G01X7569200Y-2389200D01*
G01X4227805Y-2984500D02*
G01X4227805Y-2562504D01*
G01X4216400Y-2551100D01*
G01X4748505Y-3606800D02*
G01X5397500Y-3606800D01*
G01X4406202Y-1584211D02*
G01X4406202Y-2161299D01*
G01X4216400Y-2351100D01*
G01X4216400Y-4737100D02*
G01X4025900Y-4737100D01*
G01X3987800Y-4775200D01*
G01X4216400Y-4737100D02*
G01X4497400Y-4737100D01*
G01X4573600Y-4660900D01*
G01X4635500Y-4599000D02*
G01X4635500Y-4316400D01*
G01X4599000Y-4635500D02*
G01X4599000Y-4660900D01*
G01X4700600Y-4762500D01*
G01X4853000Y-4762500D01*
G01X4954600Y-4660900D01*
G01X5518302Y-4660900D01*
G01X5524500Y-4654702D01*
G01X3987800Y-4521200D02*
G01X4114800Y-4521200D01*
G01X4521200Y-4114800D01*
G01X4633900Y-4114800D02*
G01X4635500Y-4116400D01*
G01X4572000Y-4114800D02*
G01X4572000Y-3824300D01*
G01X4573600Y-3822700D01*
G01X4635500Y-4116400D02*
G01X5126203Y-4116400D01*
G01X5524500Y-4514698D01*
G01X1447800Y-3759200D02*
G01X1422400Y-3759200D01*
G01X694754Y-3031553D01*
G01X694754Y-2934048D01*
G01X19263487Y-1037399D02*
G01X19263487Y-795972D01*
G01X19200114Y-732599D01*
G01X19022314Y-1434401D02*
G01X19022314Y-1383601D01*
G01X18963513Y-1324800D01*
G01X19263487Y-1824799D02*
G01X19136487Y-1697799D01*
G01X15110587Y-1050099D02*
G01X15034387Y-1050099D01*
G01X15008987Y-1075499D01*
G01X14932787Y-948499D02*
G01X14932787Y-846899D01*
G01X15059787Y-719899D01*
G01X15123287Y-1837499D02*
G01X15021687Y-1837499D01*
G01X10340213Y-1499425D02*
G01X10314813Y-1474025D01*
G01X10314813Y-940625D01*
G01X10492613Y-762825D01*
G01X10492613Y-550100D01*
G01X10792587Y-1050099D02*
G01X10792587Y-757872D01*
G01X10754614Y-719899D01*
G01X10543413Y-1456499D02*
G01X10543413Y-1388300D01*
G01X10492613Y-1337500D01*
G01X10792587Y-1837499D02*
G01X10792587Y-1913699D01*
G01X10335387Y-2370899D01*
G01X10106787Y-2955099D02*
G01X10106787Y-3259899D01*
G01X9776587Y-3590099D01*
G01X6898513Y-11456225D02*
G01X6898513Y-12246800D01*
G01X15021687Y-1337500D02*
G01X14945487Y-1413700D01*
G01X11541887Y-1337500D02*
G01X11364087Y-1159700D01*
G01X10602214Y-1159700D01*
G01X10411587Y-1756473D02*
G01X10492613Y-1837499D01*
G01X7198487Y-12746799D02*
G01X7096887Y-12746799D01*
G01X7071487Y-12772199D01*
G01X5826887Y-13610399D02*
G01X2448687Y-13610399D01*
G01X1005586Y-13631100D02*
G01X815213Y-13631100D01*
G01X7198487Y-12246800D02*
G01X5903087Y-13542200D01*
G01X5903087Y-14004099D01*
G01X5496687Y-14410499D01*
G01X1094613Y-14410499D02*
G01X815213Y-14131099D01*
G01X815213Y-12378499D02*
G01X815213Y-13331126D01*
G01X1115187Y-13631100D01*
G01X815213Y-11878500D02*
G01X1018413Y-12081700D01*
G01X1018413Y-12488100D01*
G01X1196213Y-12665900D01*
G01X1196213Y-14050073D01*
G01X1115187Y-14131099D01*
G01X2745613Y-10113200D02*
G01X1424813Y-10113200D01*
G01X1018413Y-10519600D01*
G01X1018413Y-11967400D01*
G01X1094613Y-12043600D01*
G01X1094613Y-12357925D01*
G01X1115187Y-12378499D01*
G01X5017795Y-2984500D02*
G01X5017795Y-3009900D01*
G01X5246395Y-3238500D01*
G01X4300614Y-1249997D02*
G01X4300614Y-1247615D01*
G01X3933398Y-880400D01*
G01X9051498Y-880400D02*
G01X8619698Y-880400D01*
G01X7721600Y-1778498D01*
G01X7721600Y-1982800D01*
G01X8128000Y-2389200D01*
G01X9051498Y-1600398D02*
G01X9051498Y-1922902D01*
G01X8585200Y-2389200D01*
G01X5308600Y-4965700D02*
G01X5308600Y-5050104D01*
G01X5215204Y-5143500D01*
G01X5002200Y-5143500D01*
G01X4849800Y-5295900D01*
G01X4849800Y-5433492D01*
G01X4695292Y-5588000D01*
G01X3733800Y-3759200D02*
G01X3886200Y-3606800D01*
G01X3886200Y-3021000D01*
G01X3479800Y-3759200D02*
G01X3606800Y-3632200D01*
G01X3606800Y-3021000D01*
G01X3225800Y-3759200D02*
G01X3352800Y-3632200D01*
G01X3352800Y-3046400D01*
G01X3327400Y-3021000D01*
G01X2971800Y-3759200D02*
G01X3098800Y-3632200D01*
G01X3098800Y-3071800D01*
G01X3048000Y-3021000D01*
G01X2209800Y-3759200D02*
G01X2400300Y-3568700D01*
G01X2400300Y-3021000D01*
G01X1955800Y-3759200D02*
G01X2120900Y-3594100D01*
G01X2120900Y-3021000D01*
G01X17605908Y-2590800D02*
G01X17605908Y-2575992D01*
G01X17900650Y-2281250D01*
G01X18180050Y-2281250D01*
G01X18186400Y-2287600D01*
G01X18630900Y-3481095D02*
G01X18630900Y-3023895D01*
G01X18707100Y-2947695D01*
G01X18707100Y-2896895D01*
G01X18822695Y-2781300D01*
G01X18845251Y-2781300D01*
G01X18707100Y-2896895D02*
G01X18630900Y-2896895D01*
G01X18580100Y-2846095D01*
G01X18376900Y-2642895D02*
G01X18341696Y-2642895D01*
G01X18186400Y-2487600D01*
G01X18630900Y-2691105D02*
G01X18808446Y-2691105D01*
G01X18845251Y-2654300D01*
G01X18630900Y-2691105D02*
G01X18275300Y-3046705D01*
G01X18275300Y-3275000D01*
G01X18173700Y-3376600D01*
G01X17894300Y-3376600D01*
G01X18845251Y-3035300D02*
G01X18870651Y-3035300D01*
G01X18997651Y-2908300D01*
G01X18997651Y-2882900D01*
G01X19099251Y-2781300D02*
G01X19099251Y-2509952D01*
G01X19183502Y-2425700D01*
G01X18901920Y-2460751D02*
G01X19008447Y-2460751D01*
G01X19043498Y-2425700D01*
G01X19119698Y-2349500D01*
G01X19246698Y-2349500D01*
G01X19381749Y-2484552D01*
G01X19381749Y-2654300D01*
G01X20621092Y-3276600D02*
G01X20621092Y-3073400D01*
G01X20494092Y-2946400D01*
G01X20316292Y-2768600D02*
G01X20367092Y-2717800D01*
G01X20367092Y-2398192D01*
G01X20256500Y-2287600D01*
G01X20053300Y-2287600D01*
G01X20046950Y-2281250D01*
G01X19596100Y-2691105D02*
G01X19596100Y-2716505D01*
G01X19404305Y-2908300D01*
G01X19381749Y-2908300D01*
G01X19596100Y-2691105D02*
G01X20052995Y-2691105D01*
G01X20256500Y-2487600D01*
G01X19700596Y-3376600D02*
G01X20040600Y-3376600D01*
G01X20345400Y-3376600D01*
G01X19672300Y-3404895D02*
G01X19570700Y-3404895D01*
G01X19367500Y-3201695D01*
G01X19367500Y-3150895D01*
G01X19418300Y-3100095D01*
G01X19469100Y-3100095D01*
G01X19519900Y-3049295D01*
G01X19519900Y-3023895D01*
G01X19469100Y-2973095D01*
G01X19280149Y-2973095D01*
G01X19254749Y-2947695D01*
G01X19254749Y-2882900D01*
G01X19356349Y-2781300D01*
G01X19381749Y-2781300D01*
G01X14436298Y-1600398D02*
G01X14410898Y-1574998D01*
G01X13496498Y-1574998D01*
G01X12683698Y-2387798D01*
G01X12505898Y-2413198D02*
G01X12437207Y-2413198D01*
G01X12424308Y-2400300D01*
G01X10156398Y-1600398D02*
G01X9572198Y-2184598D01*
G01X9317893Y-2184598D01*
G01X9089492Y-2413000D01*
G01X13623498Y-2590998D02*
G01X13547298Y-2667198D01*
G01X13382290Y-2667198D01*
G01X13305892Y-2590800D01*
G01X11566098Y-1600398D02*
G01X11794698Y-1600398D01*
G01X13318698Y-3124398D01*
G01X13572698Y-3124398D01*
G01X13598098Y-3098998D01*
G01X16468298Y-3098998D02*
G01X16475857Y-3098998D01*
G01X16653408Y-3276549D01*
G01X18589198Y-1600398D02*
G01X18411398Y-1600398D01*
G01X17496998Y-2514798D01*
G01X17496892Y-2590800D01*
G01X20036998Y-1600398D02*
G01X20798998Y-2362398D01*
G01X20798998Y-3207710D01*
G01X20730108Y-3276600D01*
G01X9198508Y-2413000D02*
G01X9374200Y-2413000D01*
G01X9499600Y-2287600D01*
G01X9804400Y-2287600D01*
G01X10248900Y-3506495D02*
G01X10248900Y-3023895D01*
G01X10466095Y-2806700D01*
G01X10488651Y-2806700D01*
G01X10514051Y-2806700D01*
G01X10615651Y-2705100D01*
G01X10615651Y-2654300D01*
G01X10463251Y-2501900D01*
G01X9818700Y-2501900D01*
G01X9804400Y-2487600D01*
G01X10248900Y-2716505D02*
G01X10451846Y-2716505D01*
G01X10488651Y-2679700D01*
G01X10248900Y-2716505D02*
G01X9804400Y-3161005D01*
G01X9804400Y-3176600D01*
G01X9604400Y-3376600D01*
G01X9486900Y-3376600D01*
G01X10488651Y-3060700D02*
G01X10564851Y-3060700D01*
G01X10818851Y-2806700D01*
G01X10818851Y-2459152D01*
G01X10826902Y-2451100D01*
G01X16544392Y-3276549D02*
G01X16341192Y-3073349D01*
G01X16341192Y-2398192D01*
G01X16230600Y-2287600D01*
G01X15913100Y-2287600D01*
G01X15481300Y-2716505D02*
G01X15289505Y-2908300D01*
G01X15254249Y-2908300D01*
G01X15481300Y-2716505D02*
G01X16001695Y-2716505D01*
G01X16230600Y-2487600D01*
G01X15598496Y-3389300D02*
G01X15913100Y-3389300D01*
G01X16230600Y-3389300D01*
G01X15582900Y-3404895D02*
G01X15582900Y-3201695D01*
G01X15354300Y-2973095D01*
G01X15151100Y-2973095D01*
G01X15125700Y-2947695D01*
G01X15125700Y-2884449D01*
G01X15215503Y-2794647D01*
G01X15240903Y-2794647D01*
G01X15254249Y-2781300D01*
G01X12315292Y-2400300D02*
G01X12076100Y-2400300D01*
G01X11976100Y-2500300D01*
G01X11871300Y-2500300D01*
G01X11671300Y-2300300D01*
G01X11252200Y-2716505D02*
G01X11252200Y-2741905D01*
G01X11060405Y-2933700D01*
G01X11025149Y-2933700D01*
G01X11871604Y-2300300D02*
G01X11976100Y-2300300D01*
G01X11252200Y-3506495D02*
G01X11369396Y-3389300D01*
G01X11671300Y-3389300D01*
G01X11776100Y-3389300D01*
G01X11976100Y-3189300D01*
G01X11369396Y-3389300D02*
G01X11202949Y-3389300D01*
G01X10898149Y-3084500D01*
G01X10898149Y-2906700D01*
G01X10987952Y-2816897D01*
G01X11014952Y-2816897D01*
G01X11025149Y-2806700D01*
G01X13414908Y-2590800D02*
G01X13425500Y-2590800D01*
G01X13728700Y-2287600D01*
G01X14058900Y-2287600D01*
G01X14503400Y-3481095D02*
G01X14503400Y-2973095D01*
G01X14554200Y-2922295D01*
G01X14554200Y-2871495D01*
G01X14644395Y-2781300D01*
G01X14717751Y-2781300D01*
G01X14554200Y-2871495D02*
G01X14528800Y-2871495D01*
G01X14147800Y-2490495D01*
G01X14061796Y-2490495D01*
G01X14058900Y-2487600D01*
G01X14503400Y-2691105D02*
G01X14680946Y-2691105D01*
G01X14717751Y-2654300D01*
G01X14376400Y-2818105D02*
G01X14376400Y-3059100D01*
G01X14058900Y-3376600D01*
G01X13728700Y-3376600D01*
G01X14717751Y-3035300D02*
G01X14844751Y-3035300D01*
G01X14885030Y-2995021D01*
G01X14885030Y-2959100D01*
G01X14844751Y-2918821D01*
G01X14844751Y-2376824D01*
G01X14859374Y-2362200D01*
G01X14979802Y-2362200D01*
G01X15056002Y-2438400D01*
G01X15254249Y-2654300D02*
G01X15131898Y-2654300D01*
G01X14915998Y-2438400D01*
G01X7378700Y-3810000D02*
G01X7378700Y-5398818D01*
G01X7442341Y-5462459D01*
G01X1193800Y-3759200D02*
G01X1193800Y-4800600D01*
G01X812800Y-5181600D02*
G01X812800Y-5588000D01*
G01X1181100Y-5956300D01*
G01X3113100Y-5956300D01*
G01X3113100Y-6478600D01*
G01X3124200Y-6489700D01*
G01X838200Y-5156200D02*
G01X660400Y-5156200D01*
G01X558800Y-5257800D01*
G01X558800Y-6420002D01*
G01X1098398Y-6959600D01*
G01X1098398Y-7756906D01*
G01X1139292Y-7797800D01*
G01X3962400Y-3479800D02*
G01X4573600Y-3479800D01*
G01X5689600Y-5130800D02*
G01X6151296Y-5130800D01*
G01X6163996Y-5143500D01*
G01X6318402Y-5143500D01*
G01X6534302Y-4927600D01*
G01X6610502Y-5003800D01*
G01X6610502Y-5969000D02*
G01X6585102Y-5994400D01*
G01X6585102Y-6121400D01*
G01X6813702Y-6350000D01*
G01X7016902Y-6350000D01*
G01X7372502Y-6705600D01*
G01X7372502Y-6789903D01*
G01X7378700Y-6796100D01*
G01X7215200Y-6959600D01*
G01X7215200Y-8178800D02*
G01X7182002Y-8145602D01*
G01X6377000Y-8145602D01*
G01X6326200Y-8094802D01*
G01X6046800Y-8094802D01*
G01X5797702Y-8343900D01*
G01X5797702Y-9359900D01*
G01X5721502Y-9436100D01*
G01X5594502Y-9436100D01*
G01X5253304Y-9094902D01*
G01X5253304Y-9042400D01*
G01X5594502Y-9436100D02*
G01X5594502Y-10731500D01*
G01X5543702Y-10782300D01*
G01X5543702Y-11050499D02*
G01X5346002Y-11248199D01*
G01X5346002Y-12213399D01*
G01X4838002Y-12721399D01*
G01X4685602Y-12873799D01*
G01X4279202Y-12873799D01*
G01X3415602Y-12010199D02*
G01X3415602Y-11260899D01*
G01X3517202Y-12111799D02*
G01X3517202Y-12124499D01*
G01X2920302Y-12721399D01*
G01X2412302Y-12721399D01*
G01X2285302Y-12848399D01*
G01X2920302Y-13686599D02*
G01X2920302Y-13762799D01*
G01X3415602Y-14258099D01*
G01X3631502Y-14042199D01*
G01X5168202Y-14042199D01*
G01X5371402Y-14245399D01*
G01X5543702Y-10858500D02*
G01X6153302Y-10858500D01*
G01X6674002Y-11379200D01*
G01X7024700Y-11379200D01*
G01X7024700Y-11201400D01*
G01X7278700Y-10947400D01*
G01X7024700Y-11379200D02*
G01X7278700Y-11633200D01*
G01X7278700Y-13055600D01*
G01X7266000Y-13068300D01*
G01X7266000Y-15163800D01*
G01X7227900Y-15201900D01*
G01X6610502Y-5029200D02*
G01X6585102Y-5029200D01*
G01X6737502Y-4953000D02*
G01X7270902Y-4419600D01*
G01X7270902Y-3746500D01*
G01X7347102Y-3670300D01*
G01X7423302Y-3670300D01*
G01X7524902Y-3771900D01*
G01X7524902Y-3873500D01*
G01X7601102Y-3949700D01*
G01X8566302Y-3949700D01*
G01X8591702Y-3924300D01*
G01X8718702Y-3924300D02*
G01X8718702Y-3568700D01*
G01X9607702Y-3263900D02*
G01X9607702Y-2501900D01*
G01X9709302Y-2400300D01*
G01X10268102Y-2400300D01*
G01X10318902Y-2451100D01*
G01X10686898Y-2451100D01*
G01X10686898Y-2451100D02*
G01X10763098Y-2374900D01*
G01X10890098Y-2374900D01*
G01X11025149Y-2509952D01*
G01X11025149Y-2679700D01*
G01X6972300Y-2971800D02*
G01X7150100Y-2794000D01*
G01X7143902Y-2781300D01*
G01X7150100Y-2794000D02*
G01X7364400Y-2794000D01*
G01X7569200Y-2589200D01*
G01X8128000Y-2589200D01*
G01X6988708Y-6417208D02*
G01X6988708Y-6438900D01*
G01X7064908Y-6515100D01*
G01X7064908Y-7299706D01*
G01X7093102Y-7327900D01*
G01X20469987Y-15879000D02*
G01X20850987Y-15498000D01*
G01X20850987Y-2036089D01*
G01X20523200Y-1708302D02*
G01X20370800Y-1708302D01*
G01X19075616Y-1149502D02*
G01X18963513Y-1037399D01*
G01X20469987Y-16378999D02*
G01X20368387Y-16277399D01*
G01X20368387Y-14575599D01*
G01X20546187Y-14397799D01*
G01X20546187Y-3425000D01*
G01X20495387Y-3374200D01*
G01X20622387Y-1688274D02*
G01X20622387Y-1281874D01*
G01X19758787Y-418274D01*
G01X19082639Y-418274D01*
G01X18963513Y-537400D01*
G01X5215204Y-6159500D02*
G01X5393004Y-6159500D01*
G01X5850204Y-6616700D01*
G01X6332804Y-6616700D01*
G01X6536004Y-6413500D01*
G01X6993204Y-5702300D02*
G01X7120204Y-5575300D01*
G01X7501204Y-5575300D01*
G01X7552004Y-5524500D01*
G01X7552004Y-5143297D01*
G01X7733602Y-4961699D01*
G01X7886002Y-4961699D01*
G01X8923401Y-3924300D02*
G01X8951900Y-3924300D01*
G01X8876602Y-3971099D02*
G01X9054402Y-3971099D01*
G01X9511602Y-4428299D01*
G01X9511602Y-4771199D01*
G01X9702102Y-4961699D01*
G01X9854502Y-4809299D01*
G01X11518202Y-4809299D01*
G01X11670602Y-4961699D01*
G01X11823002Y-4809299D01*
G01X13486702Y-4809299D01*
G01X13639102Y-4961699D01*
G01X13791502Y-4809299D01*
G01X15455202Y-4809299D01*
G01X15607602Y-4961699D01*
G01X15760002Y-4809299D01*
G01X17423702Y-4809299D01*
G01X17576102Y-4961699D01*
G01X17728502Y-4809299D01*
G01X19392202Y-4809299D01*
G01X19544602Y-4961699D01*
G01X5215204Y-6032500D02*
G01X5266004Y-6083300D01*
G01X5494604Y-6083300D01*
G01X5723204Y-5854700D01*
G01X5926404Y-5854700D01*
G01X6358204Y-5702300D02*
G01X6536004Y-5880100D01*
G01X6536004Y-6134100D01*
G01X6840804Y-6438900D01*
G01X7298004Y-6540500D02*
G01X7475804Y-6718300D01*
G01X7475804Y-6898996D02*
G01X7378700Y-6996100D01*
G01X7475804Y-6870700D02*
G01X7572502Y-6870700D01*
G01X7733602Y-7031799D01*
G01X7886002Y-7184199D01*
G01X9549702Y-7184199D01*
G01X9702102Y-7031799D01*
G01X9854502Y-6879399D01*
G01X11518202Y-6879399D01*
G01X11670602Y-7031799D01*
G01X11823002Y-6879399D01*
G01X13486702Y-6879399D01*
G01X13639102Y-7031799D01*
G01X13791502Y-6879399D01*
G01X15455202Y-6879399D01*
G01X15607602Y-7031799D01*
G01X15760002Y-6879399D01*
G01X17423702Y-6879399D01*
G01X17576102Y-7031799D01*
G01X18642902Y-7031799D01*
G01X19354102Y-7031799D02*
G01X19544602Y-7031799D01*
G01X5215204Y-5905500D02*
G01X5164404Y-5905500D01*
G01X5012004Y-6057900D01*
G01X5012004Y-6515100D01*
G01X6053404Y-7556500D01*
G01X6129604Y-7556500D01*
G01X6764604Y-8216900D02*
G01X7120204Y-8572500D01*
G01X7120204Y-8864600D01*
G01X7145604Y-8890000D01*
G01X7313600Y-8890000D01*
G01X7415200Y-8788400D01*
G01X7445502Y-8788400D01*
G01X7759002Y-9101899D01*
G01X7911402Y-9254299D01*
G01X9575102Y-9254299D01*
G01X9727502Y-9101899D01*
G01X9879902Y-9254299D01*
G01X11543602Y-9254299D01*
G01X11696002Y-9101899D01*
G01X11848402Y-8949499D01*
G01X13512102Y-8949499D01*
G01X13664502Y-9101899D01*
G01X13893102Y-8873299D01*
G01X15404402Y-8873299D01*
G01X15633002Y-9101899D01*
G01X15785402Y-9254299D01*
G01X17449102Y-9254299D01*
G01X17601502Y-9101899D01*
G01X18617502Y-9101899D01*
G01X18642902Y-9076499D01*
G01X19379502Y-9038399D02*
G01X19506502Y-9038399D01*
G01X19570002Y-9101899D01*
G01X5215204Y-5778500D02*
G01X5164404Y-5778500D01*
G01X4961204Y-5981700D01*
G01X4961204Y-6540500D01*
G01X6028004Y-7607300D01*
G01X6028004Y-7658100D01*
G01X6713804Y-9690100D02*
G01X7478700Y-10454996D01*
G01X7478700Y-10947400D01*
G01X7547102Y-10947400D01*
G01X7771702Y-11171999D01*
G01X7924102Y-11324399D01*
G01X9587802Y-11324399D01*
G01X9740202Y-11171999D01*
G01X9892602Y-11324399D01*
G01X11543602Y-11324399D01*
G01X11696002Y-11171999D01*
G01X11848402Y-11324399D01*
G01X13499402Y-11324399D01*
G01X13651802Y-11171999D01*
G01X13804202Y-11324399D01*
G01X15467902Y-11324399D01*
G01X15620302Y-11171999D01*
G01X15772702Y-11324399D01*
G01X17436402Y-11324399D01*
G01X17588802Y-11171999D01*
G01X18808002Y-11171999D01*
G01X19062002Y-11324399D02*
G01X19404902Y-11324399D01*
G01X19557302Y-11171999D01*
G01X5215204Y-5651500D02*
G01X5164404Y-5651500D01*
G01X4910404Y-5905500D01*
G01X4910404Y-6565900D01*
G01X5850204Y-7505700D01*
G01X5850204Y-7632700D01*
G01X6053404Y-8851900D02*
G01X6053404Y-9512300D01*
G01X7374204Y-10833100D01*
G01X7374204Y-12976504D01*
G01X7466000Y-13068300D01*
G01X7623302Y-13068300D01*
G01X7797102Y-13242099D01*
G01X7949502Y-13394499D01*
G01X9613202Y-13394499D01*
G01X9765602Y-13242099D01*
G01X9918002Y-13394499D01*
G01X11581702Y-13394499D01*
G01X11734102Y-13242099D01*
G01X11886502Y-13394499D01*
G01X13550202Y-13394499D01*
G01X13702602Y-13242099D01*
G01X13855002Y-13394499D01*
G01X15518702Y-13394499D01*
G01X15671102Y-13242099D01*
G01X15823502Y-13394499D01*
G01X17487202Y-13394499D01*
G01X17639602Y-13242099D01*
G01X18808002Y-13242099D01*
G01X19087402Y-13394499D02*
G01X19455702Y-13394499D01*
G01X19608102Y-13242099D01*
G01X5215204Y-5524500D02*
G01X5164404Y-5524500D01*
G01X4859604Y-5829300D01*
G01X4859604Y-6616700D01*
G01X5723204Y-7480300D01*
G01X6764604Y-12915900D02*
G01X6688404Y-12992100D01*
G01X6688404Y-14846300D01*
G01X7145604Y-15303500D01*
G01X7326300Y-15303500D01*
G01X7427900Y-15201900D01*
G01X7686802Y-15201900D01*
G01X7797102Y-15312199D01*
G01X7949502Y-15464599D01*
G01X9600502Y-15464599D01*
G01X9765602Y-15299499D01*
G01X9905302Y-15439199D01*
G01X11607102Y-15439199D01*
G01X11734102Y-15312199D01*
G01X11886502Y-15464599D01*
G01X13550202Y-15464599D01*
G01X13702602Y-15312199D01*
G01X13855002Y-15464599D01*
G01X15518702Y-15464599D01*
G01X15671102Y-15312199D01*
G01X15823502Y-15464599D01*
G01X17487202Y-15464599D01*
G01X17639602Y-15312199D01*
G01X18833402Y-15312199D01*
G01X19341402Y-15312199D02*
G01X19608102Y-15312199D01*
G01X5215204Y-5270500D02*
G01X5139004Y-5270500D01*
G01X5037404Y-5372100D01*
G01X5012004Y-5549900D02*
G01X4758004Y-5803900D01*
G01X4758004Y-10604500D01*
G01X4732604Y-10629900D01*
G01X4732604Y-11077905D01*
G01X4915599Y-11260899D01*
G01X6163996Y-5270500D02*
G01X6113196Y-5270500D01*
G01X5401996Y-5981700D01*
G01X4690796Y-6210300D02*
G01X4623499Y-6277597D01*
G01X4623499Y-12518199D01*
G01X4420299Y-12721399D01*
G01X6163996Y-5397500D02*
G01X6087796Y-5397500D01*
G01X5605196Y-5880100D01*
G01X4919396Y-14109700D02*
G01X4919396Y-14254302D01*
G01X4915599Y-14258099D01*
G01X6163996Y-5524500D02*
G01X6290996Y-5524500D01*
G01X6494196Y-5727700D01*
G01X6773596Y-8318500D02*
G01X6748196Y-8318500D01*
G01X6646596Y-8420100D01*
G01X6849796Y-12890500D02*
G01X6849796Y-13195300D01*
G01X6824396Y-13220700D01*
G01X6824396Y-13398500D01*
G01X7052996Y-13627100D01*
G01X7052996Y-14063802D01*
G01X6871399Y-14245399D01*
G01X6163996Y-5651500D02*
G01X6214796Y-5651500D01*
G01X6316396Y-5753100D01*
G01X6316396Y-5778500D01*
G01X6341796Y-5803900D01*
G01X6316396Y-11112500D02*
G01X6138596Y-11290300D01*
G01X6138596Y-12521997D01*
G01X6337999Y-12721399D01*
G01X6163996Y-5778500D02*
G01X6214796Y-5778500D01*
G01X6494196Y-6057900D01*
G01X6494196Y-6159500D01*
G01X6722796Y-6388100D01*
G01X6722796Y-6515100D01*
G01X6773596Y-7404100D02*
G01X6468796Y-7708900D01*
G01X6087796Y-7708900D01*
G01X5986196Y-7810500D01*
G01X5986196Y-7861300D01*
G01X6062396Y-8724900D02*
G01X5986196Y-8801100D01*
G01X5986196Y-10388397D01*
G01X6845999Y-11248199D01*
G01X3695700Y-3403600D02*
G01X3771900Y-3327400D01*
G01X3771900Y-2946400D01*
G01X3886200Y-2832100D01*
G01X3886200Y-2821000D01*
G01X3886200Y-2832100D02*
G01X4165600Y-3111500D01*
G01X4724400Y-3111500D01*
G01X4978400Y-2857500D01*
G01X5816600Y-2857500D01*
G01X5994400Y-3035300D01*
G01X6299200Y-3060700D02*
G01X6426200Y-3187700D01*
G01X6680200Y-3187700D01*
G01X6769100Y-3276600D01*
G01X9089492Y-3276600D01*
G01X9165692Y-3352800D01*
G01X9292692Y-3352800D01*
G01X9419692Y-3479800D01*
G01X9701200Y-3479800D01*
G01X9804400Y-3376600D01*
G01X3479800Y-3403600D02*
G01X3479800Y-2948000D01*
G01X3606800Y-2821000D01*
G01X3708400Y-2821000D01*
G01X4064000Y-2465400D01*
G01X5562600Y-2465400D01*
G01X6045200Y-2948000D01*
G01X10820400Y-3100400D02*
G01X10820400Y-3227400D01*
G01X11210900Y-3617900D01*
G01X11747500Y-3617900D01*
G01X11976100Y-3389300D01*
G01X12215292Y-3389300D01*
G01X12315292Y-3289300D01*
G01X3276600Y-3149600D02*
G01X3225800Y-3098800D01*
G01X3225800Y-2922600D01*
G01X3327400Y-2821000D01*
G01X3276600Y-3302000D02*
G01X3251200Y-3302000D01*
G01X3962400Y-3302000D02*
G01X5283200Y-3302000D01*
G01X5346700Y-3238500D01*
G01X6667500Y-3238500D01*
G01X6845300Y-3416300D01*
G01X9283700Y-3416300D01*
G01X9537700Y-3670300D01*
G01X13144500Y-3670300D01*
G01X13483692Y-3331108D01*
G01X13483692Y-3229508D01*
G01X13365683Y-3229508D01*
G01X13305892Y-3289300D01*
G01X13483692Y-3229508D02*
G01X13534492Y-3280308D01*
G01X13955192Y-3280308D01*
G01X14058900Y-3176600D01*
G01X3035300Y-3403600D02*
G01X3035300Y-3352800D01*
G01X2984500Y-3302000D01*
G01X2984500Y-3124200D02*
G01X2933700Y-3073400D01*
G01X2933700Y-2935300D01*
G01X3048000Y-2821000D01*
G01X3975100Y-3200400D02*
G01X4838700Y-3200400D01*
G01X4940300Y-3098800D01*
G01X16090900Y-3048000D02*
G01X16090900Y-3049600D01*
G01X16230600Y-3189300D01*
G01X16332200Y-3189300D01*
G01X16484600Y-3341700D01*
G01X16704208Y-3341700D01*
G01X16729608Y-3316300D01*
G01X16729608Y-3240100D01*
G01X16653408Y-3163900D01*
G01X16653408Y-2590749D01*
G01X2260600Y-3403600D02*
G01X2260600Y-2971800D01*
G01X2400300Y-2832100D01*
G01X2400300Y-2821000D01*
G01X2400300Y-2832100D02*
G01X2844800Y-3276600D01*
G01X2844800Y-3784600D01*
G01X2946400Y-3886200D01*
G01X4013200Y-3886200D01*
G01X4180840Y-3718560D01*
G01X6212840Y-3718560D01*
G01X6451600Y-3479800D01*
G01X9271000Y-3479800D01*
G01X9525000Y-3733800D01*
G01X17272000Y-3733800D01*
G01X17678400Y-3327400D01*
G01X17678400Y-3225800D02*
G01X17653000Y-3200400D01*
G01X17573092Y-3200400D01*
G01X17496892Y-3276600D01*
G01X17678400Y-3251200D02*
G01X17703800Y-3276600D01*
G01X18073700Y-3276600D01*
G01X18173700Y-3176600D01*
G01X1981200Y-3403600D02*
G01X1981200Y-2971800D01*
G01X2120900Y-2832100D01*
G01X2120900Y-2821000D01*
G01X2120900Y-2832100D02*
G01X2374900Y-2578100D01*
G01X3873500Y-2578100D01*
G01X4076700Y-2374900D01*
G01X19432600Y-3176600D02*
G01X19534200Y-3278200D01*
G01X20243800Y-3278200D01*
G01X20345400Y-3176600D01*
G01X20345400Y-2962808D01*
G01X20730108Y-2578100D01*
G01X5727695Y-6115799D02*
G01X5810994Y-6032500D01*
G01X6163996Y-6032500D01*
G01X5661597Y-6204699D02*
G01X5940997Y-6204699D01*
G01X6011596Y-6134100D01*
G01X6138596Y-6134100D01*
G01X6163996Y-6159500D01*
G01X685800Y-5283200D02*
G01X685800Y-5537200D01*
G01X736600Y-5588000D01*
G01X736600Y-5969000D01*
G01X1219200Y-6451600D01*
G01X1219200Y-6940398D02*
G01X1238402Y-6959600D01*
G01X1238402Y-7787894D01*
G01X1248308Y-7797800D01*
G01X863600Y-3098800D02*
G01X863600Y-2946400D01*
G01X854647Y-2933362D01*
G01X863600Y-2946400D02*
G01X1117600Y-2946400D01*
G01X1143000Y-2921000D01*
G01X1352398Y-2921000D02*
G01X1365098Y-2908300D01*
G01X1193800Y-2921000D02*
G01X1193800Y-2311692D01*
G01X1180808Y-2298700D01*
G01X1104900Y-2298700D01*
G01X838200Y-2032000D01*
G01X584200Y-1778000D01*
G01X584200Y-1473200D01*
G01X699732Y-1473200D01*
G01X1035114Y-1137818D01*
G01X2075586Y-1137818D01*
G01X2141499Y-1071905D01*
G01X2811501Y-1071905D01*
G01X2811501Y-1071905D02*
G01X3111500Y-771906D01*
G01X3111500Y-481000D01*
G01X3517900Y-1178306D02*
G01X3921305Y-1178306D01*
G01X3933398Y-1190399D01*
G01X3517900Y-1675897D02*
G01X3517900Y-1178306D01*
G01X3483399Y-1710398D02*
G01X3517900Y-1675897D01*
G01X1219200Y-6477000D02*
G01X2857500Y-6477000D01*
G01X2870200Y-6489700D01*
G01X3933398Y-1190399D02*
G01X4187398Y-1444399D01*
G01X5228798Y-1444399D01*
G01X5609798Y-1825399D01*
G01X5635198Y-1825399D01*
G01X5656212Y-1834197D02*
G01X6159500Y-2337486D01*
G01X5635198Y-1825399D02*
G01X5635198Y-2257199D01*
G01X6371798Y-3654199D02*
G01X6168598Y-3857399D01*
G01X6159500Y-3860800D01*
G01X6168799Y-3857399D02*
G01X6299200Y-3987800D01*
G01X6371798Y-3654199D02*
G01X6714899Y-3654199D01*
G01X6870700Y-3810000D01*
G01X6838297Y-2781300D02*
G01X7003898Y-2781300D01*
G01X6625798Y-2993799D02*
G01X6828998Y-3196999D01*
G01X6975701Y-3196999D01*
G01X7124700Y-3048000D01*
G01X7378700Y-3048000D01*
G01X7632700Y-3048000D01*
G01X7886700Y-3048000D01*
G01X8140700Y-3048000D01*
G01X8394700Y-3048000D01*
G01X6870700Y-3810000D02*
G01X7073900Y-3606800D01*
G01X7429500Y-3606800D01*
G01X7632700Y-3810000D01*
G01X7785100Y-3657600D01*
G01X8242300Y-3657600D01*
G01X8394700Y-3810000D01*
G01X8394700Y-3048000D02*
G01X8547100Y-3200400D01*
G01X9122308Y-3200400D01*
G01X9198508Y-3276600D01*
G01X9386900Y-3276600D01*
G01X9486900Y-3176600D01*
G01X9486900Y-2500300D01*
G01X9499600Y-2487600D01*
G01X9680999Y-1710398D02*
G01X9706399Y-1710398D01*
G01X9757199Y-1710398D01*
G01X10138199Y-1329398D01*
G01X10138199Y-1208598D01*
G01X10156398Y-1190399D01*
G01X10781302Y-1667700D02*
G01X10781302Y-1348786D01*
G01X10792587Y-1337500D01*
G01X10781302Y-1667700D02*
G01X11073402Y-1667700D01*
G01X11116099Y-1710398D01*
G01X11116099Y-1832399D01*
G01X11391900Y-2108200D01*
G01X11391900Y-2220900D01*
G01X11671300Y-2500300D01*
G01X10156398Y-707799D02*
G01X10435798Y-428399D01*
G01X10842198Y-428399D01*
G01X11566098Y-1152299D02*
G01X11566098Y-1190399D01*
G01X11426398Y-1012599D02*
G01X11433899Y-1012599D01*
G01X11566098Y-880400D01*
G01X11671300Y-3160700D02*
G01X11747500Y-3084500D01*
G01X12219508Y-3084500D01*
G01X12424308Y-3289300D01*
G01X8788400Y-1688597D02*
G01X9017000Y-1459997D01*
G01X8623300Y-1688597D02*
G01X8788400Y-1688597D01*
G01X8601499Y-1710398D02*
G01X8623300Y-1688597D01*
G01X9042400Y-1459997D02*
G01X9042400Y-1199497D01*
G01X9051498Y-1190399D01*
G01X8601499Y-1710398D02*
G01X8477700Y-1834197D01*
G01X7866012Y-1834197D01*
G01X6299200Y-3987800D02*
G01X6299200Y-4622800D01*
G01X6394298Y-4717898D01*
G01X12424308Y-3289300D02*
G01X13135508Y-3289300D01*
G01X13211708Y-3365500D02*
G01X13338708Y-3365500D01*
G01X13414908Y-3289300D01*
G01X13186308Y-3340100D02*
G01X13186308Y-3289300D01*
G01X13299008Y-3176600D01*
G01X13728700Y-3176600D01*
G01X13728700Y-3176600D02*
G01X13728700Y-2487600D01*
G01X13830300Y-2386000D01*
G01X14135100Y-2386000D01*
G01X14160500Y-2360600D01*
G01X14160500Y-1884599D02*
G01X13986299Y-1710398D01*
G01X11566098Y-1190399D02*
G01X14436298Y-1190399D01*
G01X14436298Y-880400D01*
G01X6394298Y-4819498D02*
G01X6597498Y-4819498D01*
G01X6660998Y-4882998D01*
G01X6660998Y-6102198D02*
G01X6711798Y-6152998D01*
G01X6644589Y-6406998D02*
G01X6644589Y-6533998D01*
G01X6695389Y-6584798D01*
G01X6886194Y-6584798D01*
G01X6955892Y-6515100D01*
G01X6644589Y-6406998D02*
G01X6524092Y-6286500D01*
G01X6163996Y-6286500D01*
G01X6660998Y-5797398D02*
G01X6686398Y-5771998D01*
G01X7387821Y-5771998D01*
G01X7421183Y-5805359D01*
G01X6955892Y-6515100D02*
G01X6955892Y-7325106D01*
G01X6953098Y-7327900D01*
G01X6519596Y-7327900D01*
G01X6202096Y-7645400D01*
G01X6202096Y-7518400D01*
G01X6151296Y-7467600D01*
G01X6075096Y-7467600D01*
G01X5948096Y-7340600D01*
G01X5440096Y-7738008D02*
G01X5440096Y-7763408D01*
G01X5313096Y-7890408D01*
G01X5262296Y-7890408D01*
G01X5253304Y-7899400D01*
G01X5253304Y-8026400D01*
G01X5253304Y-8153400D01*
G01X5253304Y-8280400D01*
G01X5253304Y-8407400D01*
G01X5253304Y-8534400D01*
G01X5253304Y-8661400D01*
G01X5253304Y-8788400D01*
G01X5253304Y-8915400D01*
G01X5253304Y-7899400D02*
G01X5202504Y-7899400D01*
G01X5100904Y-7797800D01*
G01X5100904Y-7395896D01*
G01X5168900Y-7327900D01*
G01X5253304Y-8915400D02*
G01X5304104Y-8915400D01*
G01X5657698Y-9268993D01*
G01X5657698Y-9359900D01*
G01X5948096Y-7340600D02*
G01X5215204Y-6607708D01*
G01X5215204Y-6540500D01*
G01X6394298Y-4927600D02*
G01X5784698Y-4927600D01*
G01X4931308Y-5461000D02*
G01X4804308Y-5588000D01*
G01X5225898Y-5461000D02*
G01X5225898Y-5408193D01*
G01X5215204Y-5397500D01*
G01X14160500Y-2208200D02*
G01X14922500Y-2208200D01*
G01X15420302Y-1710398D02*
G01X15484899Y-1710398D01*
G01X15484899Y-1481798D01*
G01X15637299Y-1329398D01*
G01X15764299Y-1202398D02*
G01X15922899Y-1202398D01*
G01X15934898Y-1190399D01*
G01X15934898Y-880400D01*
G01X15278100Y-1852600D02*
G01X15303500Y-1852600D01*
G01X15913100Y-2462200D02*
G01X15913100Y-2487600D01*
G01X15735300Y-2284400D02*
G01X15836900Y-2182800D01*
G01X16294100Y-2182800D01*
G01X16522700Y-2411400D01*
G01X16522700Y-2569058D02*
G01X16544392Y-2590749D01*
G01X16522700Y-2513000D02*
G01X16700500Y-2513000D01*
G01X16751300Y-2563800D01*
G01X16751300Y-3189300D01*
G01X16776700Y-3214700D01*
G01X16776700Y-3341700D02*
G01X16725900Y-3392500D01*
G01X16471900Y-3392500D01*
G01X16370300Y-3290900D01*
G01X16014700Y-3290900D01*
G01X15913100Y-3189300D01*
G01X16776700Y-3265500D02*
G01X17360900Y-3265500D01*
G01X17437100Y-3341700D02*
G01X17540808Y-3341700D01*
G01X17605908Y-3276600D01*
G01X17386300Y-3290900D02*
G01X17386300Y-3265500D01*
G01X17500600Y-3151200D01*
G01X17868900Y-3151200D01*
G01X17894300Y-3176600D01*
G01X17894300Y-2782900D01*
G01X17875250Y-2763850D01*
G01X17875250Y-2506650D02*
G01X17900650Y-2481250D01*
G01X17875250Y-2687650D02*
G01X17468850Y-2687650D01*
G01X17418050Y-2636850D01*
G01X17418050Y-2431547D01*
G01X18139199Y-1710398D01*
G01X18139199Y-1710398D02*
G01X18316999Y-1532598D01*
G01X18589198Y-1190399D02*
G01X18589198Y-880400D01*
G01X20438600Y-1525397D02*
G01X20371996Y-1525397D01*
G01X20036998Y-1190399D01*
G01X20438600Y-1525397D02*
G01X20480299Y-1525397D01*
G01X20523200Y-1568298D01*
G01X20036998Y-1190399D02*
G01X20036998Y-880400D01*
G01X20044199Y-1761198D02*
G01X20044199Y-2116798D01*
G01X19942599Y-2218398D01*
G01X19942599Y-2376899D01*
G01X20046950Y-2481250D01*
G01X20044199Y-2116798D02*
G01X20261390Y-2116798D01*
G01X20616990Y-2472398D01*
G01X20616990Y-2573998D01*
G01X20621092Y-2578100D01*
G01X20621092Y-2596109D01*
G01X20040600Y-3176600D01*
G01X1248308Y-7797800D02*
G01X1248308Y-8315922D01*
G01X3045587Y-10113200D01*
G01X3045587Y-10367200D02*
G01X2359787Y-10367200D01*
G01X2359787Y-10367200D02*
G01X2156587Y-10570400D01*
G01X2156587Y-11054519D01*
G01X2155007Y-11056099D01*
G01X2156587Y-10570400D02*
G01X1679291Y-10570400D01*
G01X1464991Y-10356101D01*
G01X3045587Y-10613199D02*
G01X3045587Y-11420813D01*
G01X2332299Y-12134101D01*
G01X2154499Y-12311901D01*
G01X2154499Y-12821907D01*
G01X2142307Y-12834099D01*
G01X2154499Y-12311901D02*
G01X1630091Y-12311901D01*
G01X1452291Y-12134101D01*
G01X2142307Y-12834099D02*
G01X2142307Y-13633209D01*
G01X2383099Y-13874001D01*
G01X2332299Y-13924801D02*
G01X2332299Y-14178801D01*
G01X2383099Y-14229601D01*
G01X2332299Y-13924801D02*
G01X1553891Y-13924801D01*
G01X1503091Y-13874001D01*
G01X19195898Y-5611896D02*
G01X19207094Y-5611896D01*
G01X19272098Y-5676900D01*
G01X17163898Y-7821696D02*
G01X17163898Y-7823200D01*
G01X17240098Y-7899400D01*
G01X15258898Y-9879096D02*
G01X15258898Y-9906000D01*
G01X15322398Y-9969500D01*
G01X13531698Y-12012696D02*
G01X13531698Y-12026900D01*
G01X13595198Y-12090400D01*
G01X11436198Y-14158996D02*
G01X11436198Y-14071600D01*
G01X9353398Y-16063996D02*
G01X9415394Y-16063996D01*
G01X9429598Y-16078200D01*
G01X7168998Y-13879596D02*
G01X7168998Y-13538200D01*
G01X6902298Y-13271500D01*
G01X7048500Y-3987800D02*
G01X7048500Y-3886200D01*
G01X7124700Y-3810000D01*
G01X7048500Y-3987800D02*
G01X7048500Y-4089400D01*
G01X6464300Y-4673600D01*
G01X6210300Y-4800600D02*
G01X4965700Y-4800600D01*
G01X4533900Y-5232400D01*
G01X4279900Y-5232400D01*
G01X2667000Y-5080000D02*
G01X2463800Y-5283200D01*
G01X8333613Y-5528500D02*
G01X7708382Y-5528500D01*
G01X7642341Y-5462459D01*
G01X3098795Y-9887699D02*
G01X3098795Y-8030901D01*
G01X4546595Y-6583101D01*
G01X5486395Y-6151301D02*
G01X5714995Y-5922701D01*
G01X6146795Y-5922701D01*
G01X6163996Y-5905500D01*
G01X8572500Y-3124200D02*
G01X8572500Y-2601900D01*
G01X8585200Y-2589200D01*
G01X8572500Y-2601900D02*
G01X8470900Y-2500300D01*
G01X6705600Y-2500300D01*
G01X6629400Y-2576500D01*
G01X939800Y-5600700D02*
G01X939800Y-5283200D01*
G01X2336800Y-3886200D01*
G01X2489200Y-3886200D01*
G01X3860800Y-3784600D02*
G01X3860800Y-3733800D01*
G01X4013200Y-3581400D01*
G01X4672000Y-3581400D01*
G01X4773600Y-3479800D01*
G01X6032500Y-3479800D01*
G01X6159500Y-3606800D01*
G01X1193800Y-5600700D02*
G01X1193800Y-5283200D01*
G01X2032000Y-4445000D01*
G01X2641600Y-4445000D01*
G01X5029200Y-4724400D02*
G01X5588000Y-4724400D01*
G01X5943600Y-4368800D01*
G01X5943600Y-3937000D01*
G01X2717800Y-5283200D02*
G01X2997200Y-5003800D01*
G01X3124200Y-5003800D01*
G01X4114800Y-5003800D02*
G01X4114800Y-5194300D01*
G01X4216400Y-5295900D01*
G01X4649800Y-5295900D01*
G01X6299200Y-9194800D02*
G01X6223000Y-9118600D01*
G01X6223000Y-9063304D01*
G01X6202096Y-9042400D01*
G01X5842000Y-7924800D02*
G01X5842000Y-7823200D01*
G01X4902200Y-6883400D01*
G01X5080000Y-6235700D02*
G01X5164404Y-6235700D01*
G01X5215204Y-6286500D01*
G01X5080000Y-6464300D02*
G01X5164404Y-6464300D01*
G01X5215204Y-6413500D01*
G01X5588000Y-6146800D02*
G01X5588000Y-6223000D01*
G01X5765800Y-6400800D01*
G01X6151296Y-6400800D01*
G01X6163996Y-6413500D01*
G01X6019800Y-6223000D02*
G01X5994400Y-6248400D01*
G01X5994400Y-6299200D01*
G01X6045200Y-6350000D01*
G01X6273800Y-6350000D01*
G01X6324600Y-6400800D01*
G01X6324600Y-6426200D01*
G01X6210300Y-6540500D01*
G01X6163996Y-6540500D01*
G01X4953000Y-6807200D02*
G01X4953000Y-6832600D01*
G01X5918200Y-7797800D01*
G01X5918200Y-7924800D01*
G01X5943600Y-7950200D01*
G01X6151296Y-7950200D01*
G01X6202096Y-7899400D01*
G01X6070600Y-7823200D02*
G01X6151296Y-7823200D01*
G01X6202096Y-7772400D01*
G01X4826000Y-6731000D02*
G01X4826000Y-6908800D01*
G01X5181600Y-7264400D01*
G01X5207000Y-7264400D01*
G01X5410200Y-7467600D01*
G01X5410200Y-7670800D01*
G01X5308600Y-7772400D01*
G01X5253304Y-7772400D01*
G01X5384800Y-6400800D02*
G01X5384800Y-6680200D01*
G01X5435600Y-6731000D01*
G01X5257800Y-7416800D02*
G01X5257800Y-7640904D01*
G01X5253304Y-7645400D01*
G01X6202096Y-8026400D02*
G01X6252896Y-7975600D01*
G01X6608496Y-7975600D02*
G01X7141896Y-7442200D01*
G01X9021496Y-7035800D02*
G01X9229598Y-7035800D01*
G01X9233599Y-7031799D01*
G01X9250096Y-8305800D02*
G01X9072296Y-8483600D01*
G01X9072296Y-8915197D01*
G01X9258999Y-9101899D01*
G01X9021496Y-7035800D02*
G01X8538896Y-6553200D01*
G01X8538896Y-5453202D01*
G01X9030399Y-4961699D01*
G01X9233599Y-4961699D01*
G01X6303696Y-7975600D02*
G01X6405296Y-8077200D01*
G01X6786296Y-9347200D02*
G01X7218096Y-9347200D01*
G01X9021496Y-11150600D01*
G01X9250299Y-11150600D02*
G01X9271699Y-11171999D01*
G01X9072296Y-11150600D02*
G01X9072296Y-11176000D01*
G01X9275496Y-12293600D02*
G01X9097696Y-12471400D01*
G01X9097696Y-13042697D01*
G01X9297099Y-13242099D01*
G01X9275496Y-14503400D02*
G01X9097696Y-14681200D01*
G01X9097696Y-15112797D01*
G01X9297099Y-15312199D01*
G01X6202096Y-8153400D02*
G01X6278296Y-8153400D01*
G01X7167296Y-9042400D01*
G01X7319696Y-9042400D01*
G01X7345096Y-9017000D01*
G01X7446696Y-9017000D01*
G01X11028096Y-9017000D02*
G01X11142599Y-9017000D01*
G01X11227499Y-9101899D01*
G01X11180496Y-7264400D02*
G01X11180496Y-7053402D01*
G01X11202099Y-7031799D01*
G01X11180496Y-5435600D02*
G01X11180496Y-4983302D01*
G01X11202099Y-4961699D01*
G01X7446696Y-9017000D02*
G01X7573696Y-9144000D01*
G01X7573696Y-9525000D01*
G01X9072296Y-11023600D01*
G01X10799496Y-11023600D01*
G01X10926496Y-11150600D01*
G01X11218799Y-11150600D02*
G01X11240199Y-11171999D01*
G01X11053496Y-11150600D02*
G01X11053496Y-11201400D01*
G01X11256696Y-12446000D02*
G01X11078896Y-12623800D01*
G01X11078896Y-13055397D01*
G01X11265599Y-13242099D01*
G01X11214799Y-14359903D02*
G01X11062399Y-14512303D01*
G01X11062399Y-15096299D01*
G01X11265599Y-15299499D01*
G01X6202096Y-8280400D02*
G01X6303696Y-8280400D01*
G01X7091096Y-9067800D01*
G01X12983896Y-9093200D02*
G01X13187299Y-9093200D01*
G01X13195999Y-9101899D01*
G01X13161696Y-7264400D02*
G01X13161696Y-7040702D01*
G01X13170599Y-7031799D01*
G01X13195999Y-9101899D02*
G01X13195999Y-9279699D01*
G01X13195999Y-10371899D02*
G01X12992799Y-10575099D01*
G01X12992799Y-10968799D01*
G01X13195999Y-11171999D01*
G01X13161696Y-5435600D02*
G01X13161696Y-4970602D01*
G01X13170599Y-4961699D01*
G01X13195999Y-12302299D02*
G01X13043599Y-12454699D01*
G01X13043599Y-12861099D01*
G01X13221399Y-13038899D01*
G01X13221399Y-13229399D02*
G01X13234099Y-13242099D01*
G01X13221399Y-13089699D02*
G01X13234099Y-13102399D01*
G01X13234099Y-14524799D02*
G01X13208699Y-14524799D01*
G01X13030899Y-14702599D01*
G01X13030899Y-15108999D01*
G01X13234099Y-15312199D01*
G01X6202096Y-8407400D02*
G01X6320396Y-8407400D01*
G01X7091096Y-9178099D01*
G01X7345096Y-9178099D01*
G01X7497496Y-9330499D01*
G01X13085496Y-9330499D02*
G01X13110896Y-9355899D01*
G01X14787296Y-9355899D01*
G01X15041296Y-9101899D01*
G01X15142896Y-9101899D02*
G01X15142896Y-8949499D01*
G01X15142896Y-7273099D02*
G01X15142896Y-7035597D01*
G01X15139099Y-7031799D01*
G01X15142896Y-5444299D02*
G01X15142896Y-4965497D01*
G01X15139099Y-4961699D01*
G01X15142896Y-9101899D02*
G01X15142896Y-9381299D01*
G01X14863496Y-10168699D02*
G01X14863496Y-10676699D01*
G01X15142896Y-10956099D01*
G01X15142896Y-11163097D02*
G01X15151799Y-11171999D01*
G01X15193696Y-12454699D02*
G01X15015896Y-12632499D01*
G01X15015896Y-13055397D01*
G01X15202599Y-13242099D01*
G01X15193696Y-14512099D02*
G01X15015896Y-14689899D01*
G01X15015896Y-15125497D01*
G01X15202599Y-15312199D01*
G01X6202096Y-8661400D02*
G01X6202096Y-8534400D01*
G01X6202096Y-8661400D02*
G01X6481496Y-8661400D01*
G01X6913296Y-9093200D01*
G01X15870796Y-9025699D02*
G01X16759796Y-9025699D01*
G01X16835996Y-9101899D01*
G01X16937596Y-9101899D02*
G01X16937596Y-9152699D01*
G01X17115396Y-10219499D02*
G01X16937596Y-10397299D01*
G01X16937596Y-10989297D01*
G01X17120299Y-11171999D01*
G01X17310799Y-7230097D02*
G01X17305896Y-7230097D01*
G01X17107599Y-7031799D01*
G01X17513999Y-6874497D02*
G01X17310799Y-6671297D01*
G01X16853599Y-6671297D01*
G01X16294799Y-6112497D01*
G01X16294799Y-5452097D01*
G01X16785196Y-4961699D01*
G01X17107599Y-4961699D01*
G01X17166196Y-12454699D02*
G01X16988396Y-12632499D01*
G01X16988396Y-13059397D01*
G01X17171099Y-13242099D01*
G01X17166196Y-14512099D02*
G01X16988396Y-14689899D01*
G01X16988396Y-15129497D01*
G01X17171099Y-15312199D01*
G01X6202096Y-8788400D02*
G01X6430696Y-8788400D01*
G01X6811696Y-9169400D01*
G01X6989496Y-9169400D01*
G01X15422296Y-9169400D02*
G01X15422296Y-9194800D01*
G01X15523896Y-9296400D01*
G01X18343296Y-9296400D01*
G01X18495696Y-9144000D01*
G01X18724296Y-9144000D01*
G01X18749696Y-9169400D01*
G01X18952896Y-9245600D02*
G01X18957798Y-9245600D01*
G01X19101499Y-9101899D01*
G01X19215799Y-11032503D02*
G01X19215799Y-11044999D01*
G01X19088799Y-11171999D01*
G01X18724296Y-9144000D02*
G01X18724296Y-8585200D01*
G01X18343296Y-8204200D01*
G01X18343296Y-7493000D01*
G01X18394096Y-7442200D01*
G01X18665698Y-7442200D01*
G01X19076099Y-7031799D01*
G01X19228499Y-6879399D01*
G01X19076099Y-5329999D02*
G01X19076099Y-4961699D01*
G01X19241199Y-13089903D02*
G01X19241199Y-13140499D01*
G01X19139599Y-13242099D01*
G01X19215799Y-15172703D02*
G01X19215799Y-15235999D01*
G01X19139599Y-15312199D01*
G01X6202096Y-8915400D02*
G01X6481496Y-8915400D01*
G01X6837096Y-9271000D01*
G01X7294296Y-9271000D01*
G01X15371496Y-9245600D02*
G01X15473096Y-9347200D01*
G01X18495696Y-9347200D01*
G01X18622696Y-9220200D01*
G01X20917599Y-9254299D02*
G01X21069999Y-9101899D01*
G01X20917599Y-9254299D02*
G01X21247799Y-9584499D01*
G01X21247799Y-10981499D01*
G01X21057299Y-11171999D01*
G01X21069999Y-9101899D02*
G01X21273199Y-8898699D01*
G01X21273199Y-7260399D01*
G01X21044599Y-7031799D01*
G01X21247799Y-6828599D01*
G01X21247799Y-5164899D01*
G01X21044599Y-4961699D01*
G01X21057299Y-11171999D02*
G01X20904899Y-11324399D01*
G01X20904899Y-13038899D01*
G01X21108099Y-13242099D01*
G01X21311299Y-13445299D01*
G01X21311299Y-15108999D01*
G01X21108099Y-15312199D01*
G01X2527300Y-3403600D02*
G01X2527300Y-3695700D01*
G01X2463800Y-3759200D01*
G01X3352800Y-4648200D01*
G01X3352800Y-5916600D01*
G01X3313100Y-5956300D01*
G01X3378200Y-6021400D01*
G01X3378200Y-6489700D01*
G01X3378200Y-6021400D02*
G01X4038600Y-6021400D01*
G01X4103700Y-5956300D01*
G01X2755900Y-3403600D02*
G01X2755900Y-3721100D01*
G01X2717800Y-3759200D01*
G01X3860800Y-4902200D01*
G01X3860800Y-5435600D01*
G01X4292600Y-5867400D01*
G01X4292600Y-5943600D01*
G01X4303700Y-5956300D01*
G01X4292600Y-5943600D02*
G01X3746500Y-6489700D01*
G01X3632200Y-6489700D01*
G01X1714500Y-2908300D02*
G01X1714500Y-2298992D01*
G01X2095792Y-1757108D02*
G01X2100301Y-1752600D01*
G01X2578392Y-1866900D02*
G01X2595956Y-1879600D01*
G01X2578392Y-1866900D02*
G01X2578392Y-1393787D01*
G01X2576500Y-1391895D01*
G01X2691511Y-1391895D01*
G01X2811501Y-1271905D01*
G01X2832405Y-1271905D01*
G01X3111500Y-1551000D01*
G01X1607676Y-1757782D02*
G01X1806118Y-1757782D01*
G01X1811299Y-1752600D01*
G01X1607676Y-1757782D02*
G01X1035088Y-1757782D01*
G01X8333613Y-6028499D02*
G01X7962839Y-6028499D01*
G01X7739699Y-5805359D01*
G01X6801002Y-5956300D02*
G01X6724802Y-5880100D01*
G01X3372002Y-2501900D02*
G01X3372002Y-2284959D01*
G01X2966644Y-1879600D01*
G01X6877558Y-6057900D02*
G01X6877558Y-6210300D01*
G01X6826758Y-6261100D01*
G01X7000113Y-12682855D02*
G01X6949313Y-12733655D01*
G01X6911658Y-12733655D01*
G01X6898513Y-12746799D01*
G01X6949313Y-13178511D02*
G01X7042302Y-13271500D01*
G01X11252200Y-2451100D02*
G01X11379200Y-2578100D01*
G01X11379200Y-2755900D01*
G01X11074400Y-3060700D02*
G01X11025149Y-3060700D01*
G01X10617200Y-2908300D02*
G01X10514051Y-2908300D01*
G01X10488651Y-2933700D01*
G01X13817600Y-2908300D02*
G01X14287500Y-2908300D01*
G01X14300200Y-2895600D01*
G01X14605000Y-2970251D02*
G01X14655800Y-2970251D01*
G01X14717751Y-2908300D01*
G01X14605000Y-2970251D02*
G01X14579600Y-2995651D01*
G01X14579600Y-3046451D01*
G01X14630400Y-3097251D01*
G01X15192299Y-3097251D01*
G01X15254249Y-3035300D01*
G01X17957800Y-2741651D02*
G01X18375351Y-2741651D01*
G01X18376900Y-2743200D01*
G01X18554700Y-2565400D01*
G01X18921451Y-2565400D01*
G01X18972251Y-2616200D01*
G01X18972251Y-2806700D02*
G01X18870651Y-2908300D01*
G01X18845251Y-2908300D01*
G01X18972251Y-2752801D02*
G01X19242049Y-3022600D01*
G01X19369049Y-3022600D01*
G01X19381749Y-3035300D01*
G01X11074400Y-3060700D02*
G01X11074400Y-3162300D01*
G01X11176000Y-3263900D01*
G01X6019800Y-3873500D02*
G01X5613400Y-3873500D01*
G01X5511800Y-3975100D02*
G01X4926000Y-3975100D01*
G01X4773600Y-3822700D01*
G01X5562600Y-3924300D02*
G01X5613400Y-3975100D01*
G01X5613400Y-4559300D01*
G01X5588000Y-4584700D01*
G01X4849800Y-4584700D01*
G01X4773600Y-4660900D01*
G54D42*
G01X18607088Y-7366000D02*
G01X18403888Y-7366000D01*
G01X7924800Y-7366000D01*
G54D43*
G01X18971387Y-6798500D02*
G01X18403888Y-7366000D01*
G54D42*
G01X7879899Y-7474401D02*
G01X8232013Y-7826516D01*
G01X8333613Y-7928116D01*
G54D43*
G01X18958687Y-15282100D02*
G01X18942609Y-15298179D01*
G54D42*
G01X19360312Y-10752976D02*
G01X19149187Y-10964100D01*
G01X19088278Y-11025010D01*
G01X18935878Y-11025010D01*
G01X18919335Y-11025010D01*
G54D43*
G01X19555587Y-10964100D02*
G01X19149187Y-10964100D01*
G01X18996787Y-10964100D01*
G01X18935878Y-11025010D01*
G54D42*
G01X18891809Y-11052536D02*
G01X18891809Y-11196079D01*
G01X18891809Y-11221479D01*
G54D43*
G01X18895187Y-11192700D02*
G01X18891809Y-11196079D01*
G54D42*
G01X7829099Y-11640001D02*
G01X8282813Y-12093716D01*
G01X8384413Y-12195316D01*
G54D43*
G01X8282813Y-12093716D02*
G01X8282813Y-12137199D01*
G54D42*
G01X20241603Y-8193063D02*
G01X20241387Y-8193279D01*
G01X19979755Y-8454911D01*
G54D43*
G01X20241387Y-8193279D02*
G01X20241387Y-8233600D01*
G54D42*
G01X18904509Y-8982436D02*
G01X18904509Y-9113279D01*
G01X18904509Y-9138679D01*
G01X18568988Y-9474200D02*
G01X18543588Y-9474200D01*
G01X7899400Y-9474200D01*
G54D43*
G01X18920587Y-9097200D02*
G01X18904509Y-9113279D01*
G01X18543588Y-9474200D02*
G01X18539587Y-9478200D01*
G54D42*
G01X19336588Y-12697160D02*
G01X19336588Y-12719799D01*
G01X19336588Y-12861564D01*
G01X18568988Y-13614400D02*
G01X18543588Y-13614400D01*
G01X7912100Y-13614400D01*
G54D43*
G01X18543588Y-13614400D02*
G01X18539587Y-13618400D01*
G01X14823313Y-1507426D02*
G01X14823313Y-1528954D01*
G54D42*
G01X11541887Y-1337500D02*
G01X11395366Y-1337500D01*
G01X10658024Y-1215511D02*
G01X10602214Y-1159700D01*
G01X10492613Y-1050099D01*
G54D43*
G01X10411587Y-1447928D02*
G01X10411587Y-1756473D01*
G54D42*
G01X10395623Y-1431964D02*
G01X10411587Y-1447928D01*
G01X10492613Y-1528954D01*
G01X1512887Y-11607800D02*
G01X1751013Y-11607800D01*
G01X1865313Y-11607800D01*
G54D43*
G01X2745613Y-10613199D02*
G01X1751013Y-11607800D01*
G01X1480312Y-11878500D01*
G01X1242187Y-11878500D01*
G54D42*
G01X21983700Y-3168802D02*
G01X20850987Y-2036089D01*
G01X20523200Y-1708302D01*
G01X20470185Y-1655288D02*
G01X20317785Y-1655288D01*
G01X20314723Y-1655288D01*
G54D43*
G01X20370800Y-1708302D02*
G01X20317785Y-1655288D01*
G54D42*
G01X19194023Y-1159389D02*
G01X19184136Y-1149502D01*
G01X19072033Y-1037399D01*
G54D43*
G01X19184136Y-1149502D02*
G01X19075616Y-1149502D01*
G01X3045587Y-10113200D02*
G01X3045587Y-10367200D01*
G01X3045587Y-10613199D01*
G54D42*
G01X2100301Y-1913191D02*
G01X2100301Y-1866900D01*
G01X2100301Y-1752600D01*
G01X2227301Y-1879600D02*
G01X2214601Y-1866900D01*
G01X2100301Y-1752600D01*
G54D43*
G01X2095792Y-1866900D02*
G01X2100301Y-1866900D01*
G01X2214601Y-1866900D01*
G54D42*
G01X6801002Y-6057900D02*
G01X6877558Y-6057900D01*
G01X7487158Y-6057900D01*
G01X6898513Y-12746799D02*
G01X6949313Y-12797599D01*
G01X7042302Y-12890589D01*
G54D43*
G01X6949313Y-12733655D02*
G01X6949313Y-12797599D01*
G01X6949313Y-13178511D01*
G54D42*
G01X19347612Y-6625476D02*
G01X19174587Y-6798500D01*
G01X19088278Y-6884810D01*
G54D43*
G01X19580987Y-6798500D02*
G01X19174587Y-6798500D01*
G01X18971387Y-6798500D01*
G01X8232013Y-7826516D02*
G01X8232013Y-7996999D01*
G54D42*
G01X18942609Y-13122636D02*
G01X18942609Y-13139179D01*
G01X18942609Y-13240779D01*
G01X3118301Y-14370501D02*
G01X3118301Y-14410499D01*
G01X3118301Y-14522901D01*
G54D43*
G01X5496687Y-14410499D02*
G01X3118301Y-14410499D01*
G01X1094613Y-14410499D01*
G01X19100978Y-15165210D02*
G01X19085687Y-15180500D01*
G54D42*
G01X19103043Y-15165210D02*
G01X19100978Y-15165210D01*
G01X18970135Y-15165210D01*
G01X18942609Y-15192736D02*
G01X18942609Y-15298179D01*
G01X18942609Y-15323579D01*
G54D43*
G01X19336588Y-12719799D02*
G01X19326987Y-12729400D01*
G54D42*
G01X19103043Y-13095110D02*
G01X19088278Y-13095110D01*
G01X18970135Y-13095110D01*
G54D43*
G01X19088278Y-13095110D02*
G01X19072987Y-13110400D01*
G01X18942609Y-13139179D02*
G01X18895187Y-13186600D01*
G54D42*
G01X19060503Y-1730336D02*
G01X19060503Y-1756816D01*
G54D43*
G01X4573600Y-4660900D02*
G01X4599000Y-4635500D01*
G01X4635500Y-4599000D01*
G01X4521200Y-4114800D02*
G01X4572000Y-4114800D01*
G01X4633900Y-4114800D01*
G01X19596100Y-3481095D02*
G01X19672300Y-3404895D01*
G01X19700596Y-3376600D01*
G01X15481300Y-3506495D02*
G01X15582900Y-3404895D01*
G01X15598496Y-3389300D01*
G01X1193800Y-4800600D02*
G01X838200Y-5156200D01*
G01X812800Y-5181600D01*
G01X6610502Y-5003800D02*
G01X6610502Y-5029200D01*
G01X6610502Y-5969000D01*
G01X7215200Y-6959600D02*
G01X7215200Y-8178800D01*
G01X7215200Y-8788400D01*
G01X5543702Y-10782300D02*
G01X5543702Y-10858500D01*
G01X5543702Y-11050499D01*
G01X4279202Y-12873799D02*
G01X3517202Y-12111799D01*
G01X3415602Y-12010199D01*
G01X8591702Y-3924300D02*
G01X8718702Y-3924300D01*
G01X8751900Y-3924300D01*
G01X7886002Y-4961699D02*
G01X8876602Y-3971099D01*
G01X8923401Y-3924300D01*
G01X7475804Y-6718300D02*
G01X7475804Y-6870700D01*
G01X7475804Y-6898996D01*
G01X3276600Y-3403600D02*
G01X3276600Y-3302000D01*
G01X3276600Y-3149600D01*
G01X2984500Y-3302000D02*
G01X2984500Y-3200400D01*
G01X2984500Y-3124200D01*
G01X17678400Y-3327400D02*
G01X17678400Y-3251200D01*
G01X17678400Y-3225800D01*
G01X1219200Y-6451600D02*
G01X1219200Y-6477000D01*
G01X1219200Y-6940398D01*
G01X1143000Y-2921000D02*
G01X1193800Y-2921000D01*
G01X1352398Y-2921000D01*
G01X6159500Y-2337486D02*
G01X6159500Y-2781501D01*
G01X6159500Y-3098800D01*
G01X5635198Y-2257199D02*
G01X6159500Y-2781501D01*
G01X6498798Y-3120799D01*
G01X6625798Y-2993799D01*
G01X6838297Y-2781300D01*
G01X9474200Y-1917197D02*
G01X9680999Y-1710398D01*
G01X10156398Y-880400D02*
G01X10156398Y-707799D01*
G01X11671300Y-2500300D02*
G01X11671300Y-3160700D01*
G01X11671300Y-3189300D01*
G01X10842198Y-428399D02*
G01X11426398Y-1012599D01*
G01X11566098Y-1152299D01*
G01X9017000Y-1459997D02*
G01X9042400Y-1459997D01*
G01X6394298Y-4717898D02*
G01X6394298Y-4819498D01*
G01X6394298Y-4927600D01*
G01X13135508Y-3289300D02*
G01X13186308Y-3340100D01*
G01X13211708Y-3365500D01*
G01X14160500Y-2360600D02*
G01X14160500Y-2208200D01*
G01X14160500Y-1884599D01*
G01X6660998Y-4882998D02*
G01X6660998Y-5797398D01*
G01X6660998Y-6057900D02*
G01X6660998Y-6102198D01*
G01X5251298Y-5461000D02*
G01X5225898Y-5461000D01*
G01X4931308Y-5461000D01*
G01X14922500Y-2208200D02*
G01X15278100Y-1852600D01*
G01X15420302Y-1710398D01*
G01X15303500Y-1852600D02*
G01X15735300Y-2284400D01*
G01X15913100Y-2462200D01*
G01X16522700Y-2411400D02*
G01X16522700Y-2513000D01*
G01X16522700Y-2569058D01*
G01X16776700Y-3214700D02*
G01X16776700Y-3265500D01*
G01X16776700Y-3341700D01*
G01X17360900Y-3265500D02*
G01X17386300Y-3290900D01*
G01X17437100Y-3341700D01*
G01X17875250Y-2763850D02*
G01X17875250Y-2687650D01*
G01X17875250Y-2506650D01*
G01X6252896Y-7975600D02*
G01X6303696Y-7975600D01*
G01X6608496Y-7975600D01*
G01X9021496Y-11150600D02*
G01X9072296Y-11150600D01*
G01X9250299Y-11150600D01*
G01X10926496Y-11150600D02*
G01X11053496Y-11150600D01*
G01X11218799Y-11150600D01*
G01X13221399Y-13038899D02*
G01X13221399Y-13089699D01*
G01X13221399Y-13229399D01*
G01X15041296Y-9101899D02*
G01X15142896Y-9101899D01*
G01X15164499Y-9101899D01*
G01X15142896Y-10956099D02*
G01X15142896Y-11032299D01*
G01X15142896Y-11163097D01*
G01X16835996Y-9101899D02*
G01X16937596Y-9101899D01*
G01X17132999Y-9101899D01*
G01X1739900Y-2908300D02*
G01X1714500Y-2908300D01*
G01X1505102Y-2908300D01*
G01X11379200Y-2755900D02*
G01X11176000Y-2959100D01*
G01X11074400Y-3060700D01*
G01X18972251Y-2616200D02*
G01X18972251Y-2752801D01*
G01X18972251Y-2806700D01*
G01X5613400Y-3873500D02*
G01X5562600Y-3924300D01*
G01X5511800Y-3975100D01*
G54D42*
G01X8697087Y-15879000D02*
G01X9381852Y-15879000D01*
G01X14577187Y-9668700D02*
G01X15173052Y-9668700D01*
G01X12583287Y-11738800D02*
G01X13395052Y-11738800D01*
G01X18425287Y-5528500D02*
G01X19275152Y-5528500D01*
G01X10652887Y-13808900D02*
G01X11324952Y-13808900D01*
G01X16507587Y-7598600D02*
G01X17090752Y-7598600D01*
G01X19263487Y-1324800D02*
G01X19042253Y-1546034D01*
G01X15110587Y-550100D02*
G01X14713623Y-947064D01*
G01X14726323Y-1157263D02*
G01X14726323Y-1431964D01*
G01X10792587Y-550100D02*
G01X10395623Y-947064D01*
G01X19336588Y-14767260D02*
G01X19336588Y-14931664D01*
G01X19042253Y-1712086D02*
G01X19060503Y-1730336D01*
G54D43*
G01X10156398Y-1190399D02*
G01X10156398Y-880400D01*
G01X6660998Y-5797398D02*
G01X6660998Y-6057900D01*
G54D42*
G01X7854499Y-9638785D02*
G01X8384413Y-10168699D01*
G01X7874000Y-11531600D02*
G01X18581688Y-11531600D01*
G01X7867199Y-13791685D02*
G01X8384413Y-14308899D01*
G01X7867199Y-15849085D02*
G01X8397113Y-16378999D01*
G01X7912100Y-15659100D02*
G01X18607088Y-15659100D01*
G01X14803877Y-1997589D02*
G01X14664949Y-1997589D01*
G01X14637423Y-1970063D01*
G01X14637423Y-1781136D01*
G01X14655673Y-1762886D01*
G01X14655673Y-1599669D01*
G01X14431604Y-1375600D01*
G01X14082225Y-1361509D02*
G01X14068134Y-1375600D01*
G01X11579987Y-1375600D01*
G01X15123287Y-1337500D02*
G01X15072487Y-1337500D01*
G01X11579987Y-1375600D02*
G01X11541887Y-1337500D01*
G01X15072487Y-1337500D02*
G01X14902053Y-1507934D01*
G01X14902053Y-1724786D01*
G01X14920303Y-1743036D01*
G01X14920303Y-1931963D01*
G01X14892777Y-1959489D01*
G01X14841977Y-1959489D01*
G01X14803877Y-1997589D01*
G01X14431604Y-1375600D02*
G01X14303666Y-1375600D01*
G01X14251475Y-1323409D02*
G01X14171125Y-1323409D01*
G01X14133025Y-1361509D01*
G01X14082225Y-1361509D01*
G54D43*
G01X15072487Y-1337500D02*
G01X15021687Y-1337500D01*
G01X14338827Y-1410761D02*
G01X14303666Y-1375600D01*
G54D42*
G01X14303666Y-1375600D02*
G01X14251475Y-1323409D01*
G54D43*
G01X14805787Y-719899D02*
G01X14631073Y-894613D01*
G01X14631073Y-1433134D01*
G01X14881987Y-1397000D02*
G01X14881987Y-1396174D01*
G01X14823313Y-1337500D01*
G54D42*
G01X15925553Y-1386909D02*
G01X15911573Y-1400889D01*
G01X18324025Y-1323409D02*
G01X18260525Y-1386909D01*
G01X15925553Y-1386909D01*
G01X15911573Y-1400889D02*
G01X15827555Y-1400889D01*
G01X15642177Y-1215511D01*
G01X14976024Y-1215511D01*
G54D43*
G01X15857212Y-790777D02*
G01X15679412Y-968577D01*
G01X15019012Y-968577D02*
G01X14892012Y-1095577D01*
G01X14856090Y-1095577D01*
G01X15902615Y-752460D02*
G01X15864298Y-790777D01*
G01X15857212Y-790777D01*
G01X15679412Y-968577D02*
G01X15193577Y-968577D01*
G01X15172160Y-947160D01*
G01X15049014Y-947160D01*
G01X15027597Y-968577D01*
G01X15019012Y-968577D01*
G01X17806485Y-752460D02*
G01X15902615Y-752460D01*
G54D42*
G01X14976024Y-1215511D02*
G01X14856090Y-1095577D01*
G01X14810613Y-1050099D01*
G54D43*
G01X18377434Y-1323409D02*
G01X17806485Y-752460D01*
G54D42*
G01X18377434Y-1323409D02*
G01X18324025Y-1323409D01*
G54D43*
G01X5784698Y-4927600D02*
G01X5251298Y-5461000D01*
G54D42*
G01X19073203Y-1769516D02*
G01X19073203Y-1919263D01*
G01X19035103Y-1957363D01*
G01X19035103Y-2033563D01*
G01X19007577Y-2061089D01*
G01X18868649Y-2061089D01*
G01X18822946Y-2015386D01*
G01X18822946Y-1862813D01*
G01X18859373Y-1826386D01*
G01X18859373Y-1670709D01*
G01X18611065Y-1422400D01*
G01X18580100Y-1422400D01*
G01X18516600Y-1358900D01*
G01X18465266Y-1358900D01*
G01X18417075Y-1310709D01*
G01X18390134Y-1310709D01*
G01X19060503Y-1756816D02*
G01X19073203Y-1769516D01*
G01X18390134Y-1310709D02*
G01X18377434Y-1323409D01*
G54D43*
G01X18803001Y-1497885D02*
G01X18752313Y-1447197D01*
G01X18744971Y-1447197D01*
G01X18707773Y-1410000D01*
G01X18707773Y-1402658D01*
G01X18666587Y-1361471D01*
G01X14920214Y-440499D02*
G01X14810613Y-550100D01*
G01X18828400Y-1497886D02*
G01X18803001Y-1497885D01*
G01X18666587Y-1361471D02*
G01X18666587Y-1273234D01*
G01X18667138Y-1272683D01*
G01X18667138Y-1108115D01*
G01X18666587Y-1107564D01*
G01X18666587Y-963234D01*
G01X18667138Y-962683D01*
G01X18667138Y-798116D01*
G01X18309522Y-440499D01*
G01X14920214Y-440499D01*
G01X18946114Y-732599D02*
G01X18783973Y-894740D01*
G01X18783973Y-1383697D01*
G01X10138199Y-1405598D02*
G01X10209802Y-1477200D01*
G01X10209802Y-1807400D02*
G01X10387602Y-1985200D01*
G01X10514602Y-1985200D01*
G01X10667002Y-1832800D01*
G01X10667002Y-1782000D01*
G01X10781302Y-1667700D01*
G01X10138199Y-1329398D02*
G01X10138199Y-1405598D01*
G01X10209802Y-1477200D02*
G01X10209802Y-1493578D01*
G01X10234338Y-1518114D01*
G01X10234338Y-1682682D01*
G01X10209802Y-1707218D01*
G01X10209802Y-1807400D01*
G01X10424414Y-719899D02*
G01X10251313Y-893000D01*
G01X10251313Y-1397000D01*
G04 Track End*

M02*

