G04 Layer: TopSolderMaskLayer*
G04 EasyEDA Pro v2.2.40.8, 2025-08-27 10:51:24*
G04 Gerber Generator version 0.3*
G04 Scale: 100 percent, Rotated: No, Reflected: No*
G04 Dimensions in millimeters*
G04 Leading zeros omitted, absolute positions, 4 integers and 5 decimals*
G04 Generated by one-click*
%FSLAX45Y45*%
%MOMM*%
%AMRoundRect*1,1,$1,$2,$3*1,1,$1,$4,$5*1,1,$1,0-$2,0-$3*1,1,$1,0-$4,0-$5*20,1,$1,$2,$3,$4,$5,0*20,1,$1,$4,$5,0-$2,0-$3,0*20,1,$1,0-$2,0-$3,0-$4,0-$5,0*20,1,$1,0-$4,0-$5,$2,$3,0*4,1,4,$2,$3,$4,$5,0-$2,0-$3,0-$4,0-$5,$2,$3,0*%
%ADD10RoundRect,0.0889X-0.31115X0.31115X0.31115X0.31115*%
%ADD11C,1.734*%
%ADD12C,1.90002*%
%ADD13R,1.0X1.5*%
%ADD14C,1.62403*%
%ADD15O,4.6036X2.0*%
%ADD16O,4.59999X2.0*%
%ADD17O,2.0X4.59999*%
%ADD18C,2.2*%
%ADD19O,1.0X2.0*%
%ADD20O,3.09999X3.39999*%
%ADD21C,1.6*%
%ADD22O,2.38801X0.57399*%
%ADD23R,1.5X1.5*%
%ADD24C,1.5*%
%ADD25C,1.524*%
%ADD26RoundRect,0.09549X-0.74556X0.86705X0.74556X0.86705*%
%ADD27C,1.7*%
%ADD28R,1.19009X1.72799*%
%ADD29RoundRect,0.09519X-0.70654X1.75281X0.70654X1.75281*%
%ADD30R,1.5X2.0*%
%ADD31O,1.5X2.0*%
%ADD32O,1.865X0.63*%
%ADD33RoundRect,0.08771X-0.40199X0.27695X0.40199X0.27695*%
%ADD34RoundRect,0.09495X-0.67833X-0.70833X-0.67833X0.70833*%
%ADD35R,3.49999X1.2*%
%ADD36R,0.8X0.9*%
%ADD37R,0.9X0.8*%
%ADD38R,0.8X0.8*%
%ADD39RoundRect,0.09387X-0.57013X0.69237X0.57013X0.69237*%
%ADD40RoundRect,0.09387X-0.69237X-0.57013X-0.69237X0.57013*%
%ADD41RoundRect,0.09548X-1.50227X1.00227X1.50227X1.00227*%
%ADD42C,0.6096*%
%ADD43C,0.7112*%
G75*


G04 Pad Start*
G54D10*
G01X1607676Y-1757782D03*
G01X1739900Y-2908300D03*
G01X4216400Y-4737100D03*
G01X11252200Y-2451100D03*
G01X14300200Y-2895600D03*
G01X18901920Y-2460751D03*
G01X5308600Y-4965700D03*
G01X6299200Y-9194800D03*
G01X939800Y-5600700D03*
G01X1193800Y-5600700D03*
G01X7048500Y-3987800D03*
G01X2260600Y-3403600D03*
G01X3035300Y-3403600D03*
G01X3276600Y-3403600D03*
G01X3479800Y-3403600D03*
G01X3695700Y-3403600D03*
G01X1981200Y-3403600D03*
G01X2527300Y-3403600D03*
G01X2755900Y-3403600D03*
G54D11*
G01X939800Y-5283200D03*
G01X1193800Y-5283200D03*
G01X1447800Y-5283200D03*
G01X1701800Y-5283200D03*
G01X3987800Y-4775200D03*
G01X1193800Y-3759200D03*
G01X1955800Y-5283200D03*
G01X2209800Y-5283200D03*
G01X2463800Y-5283200D03*
G01X2717800Y-5283200D03*
G01X2971800Y-5283200D03*
G01X3225800Y-5283200D03*
G01X3479800Y-5283200D03*
G01X3733800Y-5283200D03*
G01X3987800Y-5283200D03*
G01X3987800Y-3759200D03*
G01X3733800Y-3759200D03*
G01X3479800Y-3759200D03*
G01X3225800Y-3759200D03*
G01X2971800Y-3759200D03*
G01X2717800Y-3759200D03*
G01X2463800Y-3759200D03*
G01X2209800Y-3759200D03*
G01X1955800Y-3759200D03*
G01X1701800Y-3759200D03*
G01X1447800Y-3759200D03*
G01X685800Y-5283200D03*
G01X3987800Y-4521200D03*
G01X939800Y-3759200D03*
G01X3987800Y-4013200D03*
G01X3987800Y-4267200D03*
G01X3987800Y-5029200D03*
G01X685800Y-3759200D03*
G54D12*
G01X2870200Y-6489700D03*
G01X3124200Y-6489700D03*
G01X3378200Y-6489700D03*
G01X3632200Y-6489700D03*
G54D13*
G01X8333613Y-6028499D03*
G01X8633587Y-6028499D03*
G01X8633587Y-5528500D03*
G01X8333613Y-5528500D03*
G01X10251313Y-6028499D03*
G01X10551287Y-6028499D03*
G01X10551287Y-5528500D03*
G01X10251313Y-5528500D03*
G01X12156313Y-6028499D03*
G01X12456287Y-6028499D03*
G01X12456287Y-5528500D03*
G01X12156313Y-5528500D03*
G01X14124813Y-6028499D03*
G01X14424787Y-6028499D03*
G01X14424787Y-5528500D03*
G01X14124813Y-5528500D03*
G01X16093313Y-6028499D03*
G01X16393287Y-6028499D03*
G01X16393287Y-5528500D03*
G01X16093313Y-5528500D03*
G01X18125313Y-6028499D03*
G01X18425287Y-6028499D03*
G01X18425287Y-5528500D03*
G01X18125313Y-5528500D03*
G01X20144613Y-6028499D03*
G01X20444587Y-6028499D03*
G01X20444587Y-5528500D03*
G01X20144613Y-5528500D03*
G01X8333613Y-8098599D03*
G01X8633587Y-8098599D03*
G01X8633587Y-7598600D03*
G01X8333613Y-7598600D03*
G01X10302113Y-8098599D03*
G01X10602087Y-8098599D03*
G01X10602087Y-7598600D03*
G01X10302113Y-7598600D03*
G01X12257913Y-8098599D03*
G01X12557887Y-8098599D03*
G01X12557887Y-7598600D03*
G01X12257913Y-7598600D03*
G01X14239113Y-8098599D03*
G01X14539087Y-8098599D03*
G01X14539087Y-7598600D03*
G01X14239113Y-7598600D03*
G01X16207613Y-8098599D03*
G01X16507587Y-8098599D03*
G01X16507587Y-7598600D03*
G01X16207613Y-7598600D03*
G01X18125313Y-8098599D03*
G01X18425287Y-8098599D03*
G01X18425287Y-7598600D03*
G01X18125313Y-7598600D03*
G01X20144613Y-8098599D03*
G01X20444587Y-8098599D03*
G01X20444587Y-7598600D03*
G01X20144613Y-7598600D03*
G01X8384413Y-10168699D03*
G01X8684387Y-10168699D03*
G01X8684387Y-9668700D03*
G01X8384413Y-9668700D03*
G01X10365613Y-10168699D03*
G01X10665587Y-10168699D03*
G01X10665587Y-9668700D03*
G01X10365613Y-9668700D03*
G01X12296013Y-10168699D03*
G01X12595987Y-10168699D03*
G01X12595987Y-9668700D03*
G01X12296013Y-9668700D03*
G01X14277213Y-10168699D03*
G01X14577187Y-10168699D03*
G01X14577187Y-9668700D03*
G01X14277213Y-9668700D03*
G01X16207613Y-10168699D03*
G01X16507587Y-10168699D03*
G01X16507587Y-9668700D03*
G01X16207613Y-9668700D03*
G01X18176113Y-10168699D03*
G01X18476087Y-10168699D03*
G01X18476087Y-9668700D03*
G01X18176113Y-9668700D03*
G01X20144613Y-10168699D03*
G01X20444587Y-10168699D03*
G01X20444587Y-9668700D03*
G01X20144613Y-9668700D03*
G01X8384413Y-12238799D03*
G01X8684387Y-12238799D03*
G01X8684387Y-11738800D03*
G01X8384413Y-11738800D03*
G01X10352913Y-12238799D03*
G01X10652887Y-12238799D03*
G01X10652887Y-11738800D03*
G01X10352913Y-11738800D03*
G01X12283313Y-12238799D03*
G01X12583287Y-12238799D03*
G01X12583287Y-11738800D03*
G01X12283313Y-11738800D03*
G01X14277213Y-12238799D03*
G01X14577187Y-12238799D03*
G01X14577187Y-11738800D03*
G01X14277213Y-11738800D03*
G01X16245713Y-12238799D03*
G01X16545687Y-12238799D03*
G01X16545687Y-11738800D03*
G01X16245713Y-11738800D03*
G01X18176113Y-12238799D03*
G01X18476087Y-12238799D03*
G01X18476087Y-11738800D03*
G01X18176113Y-11738800D03*
G01X20144613Y-12238799D03*
G01X20444587Y-12238799D03*
G01X20444587Y-11738800D03*
G01X20144613Y-11738800D03*
G01X8384413Y-14308899D03*
G01X8684387Y-14308899D03*
G01X8684387Y-13808900D03*
G01X8384413Y-13808900D03*
G01X10352913Y-14308899D03*
G01X10652887Y-14308899D03*
G01X10652887Y-13808900D03*
G01X10352913Y-13808900D03*
G01X12283313Y-14308899D03*
G01X12583287Y-14308899D03*
G01X12583287Y-13808900D03*
G01X12283313Y-13808900D03*
G01X14277213Y-14308899D03*
G01X14577187Y-14308899D03*
G01X14577187Y-13808900D03*
G01X14277213Y-13808900D03*
G01X16271113Y-14308899D03*
G01X16571087Y-14308899D03*
G01X16571087Y-13808900D03*
G01X16271113Y-13808900D03*
G01X18188813Y-14308899D03*
G01X18488787Y-14308899D03*
G01X18488787Y-13808900D03*
G01X18188813Y-13808900D03*
G01X20157313Y-14308899D03*
G01X20457287Y-14308899D03*
G01X20457287Y-13808900D03*
G01X20157313Y-13808900D03*
G01X8397113Y-16378999D03*
G01X8697087Y-16378999D03*
G01X8697087Y-15879000D03*
G01X8397113Y-15879000D03*
G01X10365613Y-16366299D03*
G01X10665587Y-16366299D03*
G01X10665587Y-15866300D03*
G01X10365613Y-15866300D03*
G01X12270613Y-16378999D03*
G01X12570587Y-16378999D03*
G01X12570587Y-15879000D03*
G01X12270613Y-15879000D03*
G01X14277213Y-16378999D03*
G01X14577187Y-16378999D03*
G01X14577187Y-15879000D03*
G01X14277213Y-15879000D03*
G01X16271113Y-16378999D03*
G01X16571087Y-16378999D03*
G01X16571087Y-15879000D03*
G01X16271113Y-15879000D03*
G01X18214213Y-16378999D03*
G01X18514187Y-16378999D03*
G01X18514187Y-15879000D03*
G01X18214213Y-15879000D03*
G01X20170013Y-16378999D03*
G01X20469987Y-16378999D03*
G01X20469987Y-15879000D03*
G01X20170013Y-15879000D03*
G54D14*
G01X5017795Y-2984500D03*
G01X4227805Y-2984500D03*
G54D16*
G01X1035088Y-1757782D03*
G01X1035114Y-1137818D03*
G54D17*
G01X565087Y-1457808D03*
G54D18*
G01X5906199Y-1584211D03*
G01X5656212Y-1834197D03*
G01X5156213Y-1584211D03*
G01X4656214Y-1834197D03*
G01X4406202Y-1584211D03*
G01X5656212Y-604202D03*
G01X4656214Y-604202D03*
G01X8115999Y-1584211D03*
G01X7866012Y-1834197D03*
G01X7366013Y-1584211D03*
G01X6866014Y-1834197D03*
G01X6616002Y-1584211D03*
G01X7866012Y-604202D03*
G01X6866014Y-604202D03*
G54D19*
G01X9706399Y-1710398D03*
G01X10156398Y-880400D03*
G01X10156398Y-1190399D03*
G01X10156398Y-1600398D03*
G54D20*
G01X1503091Y-13874001D03*
G01X2383099Y-13874001D03*
G54D21*
G01X2193107Y-14573999D03*
G01X1943095Y-14573999D03*
G01X1693108Y-14573999D03*
G54D20*
G01X1452291Y-12134101D03*
G01X2332299Y-12134101D03*
G54D21*
G01X2142307Y-12834099D03*
G01X1892295Y-12834099D03*
G01X1642308Y-12834099D03*
G54D20*
G01X1464991Y-10356101D03*
G01X2344999Y-10356101D03*
G54D21*
G01X2155007Y-11056099D03*
G01X1904995Y-11056099D03*
G01X1655008Y-11056099D03*
G54D22*
G01X6202096Y-9042400D03*
G01X6202096Y-8915400D03*
G01X6202096Y-8788400D03*
G01X6202096Y-8661400D03*
G01X6202096Y-8534400D03*
G01X6202096Y-8407400D03*
G01X6202096Y-8280400D03*
G01X6202096Y-8153400D03*
G01X6202096Y-8026400D03*
G01X6202096Y-7899400D03*
G01X6202096Y-7772400D03*
G01X6202096Y-7645400D03*
G01X5253304Y-9042400D03*
G01X5253304Y-8915400D03*
G01X5253304Y-8788400D03*
G01X5253304Y-8661400D03*
G01X5253304Y-8534400D03*
G01X5253304Y-8407400D03*
G01X5253304Y-8280400D03*
G01X5253304Y-8153400D03*
G01X5253304Y-8026400D03*
G01X5253304Y-7899400D03*
G01X5253304Y-7772400D03*
G01X5253304Y-7645400D03*
G01X5215204Y-5143500D03*
G01X5215204Y-5270500D03*
G01X5215204Y-5397500D03*
G01X5215204Y-5524500D03*
G01X5215204Y-5651500D03*
G01X5215204Y-5778500D03*
G01X5215204Y-5905500D03*
G01X5215204Y-6032500D03*
G01X5215204Y-6159500D03*
G01X5215204Y-6286500D03*
G01X5215204Y-6413500D03*
G01X5215204Y-6540500D03*
G01X6163996Y-5143500D03*
G01X6163996Y-5270500D03*
G01X6163996Y-5397500D03*
G01X6163996Y-5524500D03*
G01X6163996Y-5651500D03*
G01X6163996Y-5778500D03*
G01X6163996Y-5905500D03*
G01X6163996Y-6032500D03*
G01X6163996Y-6159500D03*
G01X6163996Y-6286500D03*
G01X6163996Y-6413500D03*
G01X6163996Y-6540500D03*
G54D23*
G01X5397500Y-3098800D03*
G54D24*
G01X5397500Y-3352800D03*
G01X5397500Y-3606800D03*
G01X5397500Y-3860800D03*
G01X6159500Y-3098800D03*
G01X6159500Y-3352800D03*
G01X6159500Y-3606800D03*
G01X6159500Y-3860800D03*
G54D25*
G01X2141499Y-1071905D03*
G01X2141499Y-1271905D03*
G01X2811501Y-1071905D03*
G01X2811501Y-1271905D03*
G01X2376500Y-1391895D03*
G01X2576500Y-1391895D03*
G54D26*
G01X7739699Y-5805359D03*
G01X7421183Y-5805359D03*
G54D27*
G01X3111500Y-1551000D03*
G01X3111500Y-481000D03*
G54D14*
G01X10248900Y-3506495D03*
G01X10248900Y-2716505D03*
G01X15481300Y-2716505D03*
G01X15481300Y-3506495D03*
G01X11252200Y-2716505D03*
G01X11252200Y-3506495D03*
G01X14503400Y-3481095D03*
G01X14503400Y-2691105D03*
G01X18630900Y-3481095D03*
G01X18630900Y-2691105D03*
G01X19596100Y-2691105D03*
G01X19596100Y-3481095D03*
G54D28*
G01X1811299Y-1752600D03*
G01X2100301Y-1752600D03*
G54D19*
G01X11116099Y-1710398D03*
G01X11566098Y-880400D03*
G01X11566098Y-1190399D03*
G01X11566098Y-1600398D03*
G01X13986299Y-1710398D03*
G01X14436298Y-880400D03*
G01X14436298Y-1190399D03*
G01X14436298Y-1600398D03*
G01X15484899Y-1710398D03*
G01X15934898Y-880400D03*
G01X15934898Y-1190399D03*
G01X15934898Y-1600398D03*
G01X18139199Y-1710398D03*
G01X18589198Y-880400D03*
G01X18589198Y-1190399D03*
G01X18589198Y-1600398D03*
G01X19586999Y-1710398D03*
G01X20036998Y-880400D03*
G01X20036998Y-1190399D03*
G01X20036998Y-1600398D03*
G54D29*
G01X2966644Y-1879600D03*
G01X2595956Y-1879600D03*
G54D30*
G01X6870700Y-3810000D03*
G54D31*
G01X7124700Y-3810000D03*
G01X7378700Y-3810000D03*
G01X7632700Y-3810000D03*
G01X7886700Y-3810000D03*
G01X8140700Y-3810000D03*
G01X8394700Y-3810000D03*
G01X6870700Y-3048000D03*
G01X7124700Y-3048000D03*
G01X7378700Y-3048000D03*
G01X7632700Y-3048000D03*
G01X7886700Y-3048000D03*
G01X8140700Y-3048000D03*
G01X8394700Y-3048000D03*
G54D13*
G01X18963513Y-1037399D03*
G01X19263487Y-1037399D03*
G01X19263487Y-537400D03*
G01X18963513Y-537400D03*
G01X18963513Y-1824799D03*
G01X19263487Y-1824799D03*
G01X19263487Y-1324800D03*
G01X18963513Y-1324800D03*
G01X14810613Y-1050099D03*
G01X15110587Y-1050099D03*
G01X15110587Y-550100D03*
G01X14810613Y-550100D03*
G01X14823313Y-1837499D03*
G01X15123287Y-1837499D03*
G01X15123287Y-1337500D03*
G01X14823313Y-1337500D03*
G01X10492613Y-1050099D03*
G01X10792587Y-1050099D03*
G01X10792587Y-550100D03*
G01X10492613Y-550100D03*
G01X10492613Y-1837499D03*
G01X10792587Y-1837499D03*
G01X10792587Y-1337500D03*
G01X10492613Y-1337500D03*
G01X6898513Y-12746799D03*
G01X7198487Y-12746799D03*
G01X7198487Y-12246800D03*
G01X6898513Y-12246800D03*
G01X2745613Y-10613199D03*
G01X3045587Y-10613199D03*
G01X3045587Y-10113200D03*
G01X2745613Y-10113200D03*
G01X815213Y-12378499D03*
G01X1115187Y-12378499D03*
G01X1115187Y-11878500D03*
G01X815213Y-11878500D03*
G01X815213Y-14131099D03*
G01X1115187Y-14131099D03*
G01X1115187Y-13631100D03*
G01X815213Y-13631100D03*
G54D19*
G01X3483399Y-1710398D03*
G01X3933398Y-880400D03*
G01X3933398Y-1190399D03*
G01X3933398Y-1600398D03*
G01X8601499Y-1710398D03*
G01X9051498Y-880400D03*
G01X9051498Y-1190399D03*
G01X9051498Y-1600398D03*
G54D32*
G01X10488651Y-2679700D03*
G01X10488651Y-2806700D03*
G01X10488651Y-2933700D03*
G01X10488651Y-3060700D03*
G01X11025149Y-2679700D03*
G01X11025149Y-2806700D03*
G01X11025149Y-2933700D03*
G01X11025149Y-3060700D03*
G01X14717751Y-2654300D03*
G01X14717751Y-2781300D03*
G01X14717751Y-2908300D03*
G01X14717751Y-3035300D03*
G01X15254249Y-2654300D03*
G01X15254249Y-2781300D03*
G01X15254249Y-2908300D03*
G01X15254249Y-3035300D03*
G01X18845251Y-2654300D03*
G01X18845251Y-2781300D03*
G01X18845251Y-2908300D03*
G01X18845251Y-3035300D03*
G01X19381749Y-2654300D03*
G01X19381749Y-2781300D03*
G01X19381749Y-2908300D03*
G01X19381749Y-3035300D03*
G54D10*
G01X5168900Y-7327900D03*
G01X736600Y-5588000D03*
G01X838200Y-2032000D03*
G01X11391900Y-2108200D03*
G01X6299200Y-3987800D03*
G54D33*
G01X9198508Y-2413000D03*
G01X9089492Y-2413000D03*
G01X9198508Y-3276600D03*
G01X9089492Y-3276600D03*
G01X16544392Y-3276549D03*
G01X16653408Y-3276549D03*
G01X16544392Y-2590749D03*
G01X16653408Y-2590749D03*
G01X12315292Y-2400300D03*
G01X12424308Y-2400300D03*
G01X12424308Y-3289300D03*
G01X12315292Y-3289300D03*
G01X13414908Y-2590800D03*
G01X13305892Y-2590800D03*
G01X13414908Y-3289300D03*
G01X13305892Y-3289300D03*
G01X17605908Y-2590800D03*
G01X17496892Y-2590800D03*
G01X17605908Y-3276600D03*
G01X17496892Y-3276600D03*
G01X20621092Y-3276600D03*
G01X20730108Y-3276600D03*
G01X20621092Y-2578100D03*
G01X20730108Y-2578100D03*
G54D34*
G01X4635500Y-4316400D03*
G01X4635500Y-4116400D03*
G54D35*
G01X1180808Y-2298700D03*
G01X1714792Y-2298700D03*
G54D33*
G01X6955892Y-6515100D03*
G01X7064908Y-6515100D03*
G01X1248308Y-7797800D03*
G01X1139292Y-7797800D03*
G54D36*
G01X1238402Y-6959600D03*
G01X1098398Y-6959600D03*
G01X6660998Y-6057900D03*
G01X6801002Y-6057900D03*
G01X5797702Y-9359900D03*
G01X5657698Y-9359900D03*
G01X6534302Y-4927600D03*
G01X6394298Y-4927600D03*
G01X6953098Y-7327900D03*
G01X7093102Y-7327900D03*
G01X7143902Y-2781300D03*
G01X7003898Y-2781300D03*
G01X19272098Y-5676900D03*
G01X19412102Y-5676900D03*
G01X17240098Y-7899400D03*
G01X17380102Y-7899400D03*
G01X15322398Y-9969500D03*
G01X15462402Y-9969500D03*
G01X13595198Y-12090400D03*
G01X13735202Y-12090400D03*
G01X11436198Y-14071600D03*
G01X11576202Y-14071600D03*
G01X9429598Y-16078200D03*
G01X9569602Y-16078200D03*
G54D37*
G01X5524500Y-4654702D03*
G01X5524500Y-4514698D03*
G01X20523200Y-1568298D03*
G01X20523200Y-1708302D03*
G54D36*
G01X6902298Y-13271500D03*
G01X7042302Y-13271500D03*
G54D33*
G01X4695292Y-5588000D03*
G01X4804308Y-5588000D03*
G54D38*
G01X854647Y-2933362D03*
G01X694754Y-2934048D03*
G54D39*
G01X7642341Y-5462459D03*
G01X7442341Y-5462459D03*
G01X4773600Y-3822700D03*
G01X4573600Y-3822700D03*
G01X4773600Y-4660900D03*
G01X4573600Y-4660900D03*
G54D40*
G01X9499600Y-2287600D03*
G01X9499600Y-2487600D03*
G01X15913100Y-2287600D03*
G01X15913100Y-2487600D03*
G01X11671300Y-2300300D03*
G01X11671300Y-2500300D03*
G01X13728700Y-2287600D03*
G01X13728700Y-2487600D03*
G01X17900650Y-2281250D03*
G01X17900650Y-2481250D03*
G01X20046950Y-2281250D03*
G01X20046950Y-2481250D03*
G01X9804400Y-2287600D03*
G01X9804400Y-2487600D03*
G01X16230600Y-2287600D03*
G01X16230600Y-2487600D03*
G01X11976100Y-2500300D03*
G01X11976100Y-2300300D03*
G01X14058900Y-2287600D03*
G01X14058900Y-2487600D03*
G01X18186400Y-2287600D03*
G01X18186400Y-2487600D03*
G01X20256500Y-2287600D03*
G01X20256500Y-2487600D03*
G01X9486900Y-3176600D03*
G01X9486900Y-3376600D03*
G01X15913100Y-3189300D03*
G01X15913100Y-3389300D03*
G01X11671300Y-3189300D03*
G01X11671300Y-3389300D03*
G01X13728700Y-3176600D03*
G01X13728700Y-3376600D03*
G01X17894300Y-3176600D03*
G01X17894300Y-3376600D03*
G01X20040600Y-3176600D03*
G01X20040600Y-3376600D03*
G01X9804400Y-3376600D03*
G01X9804400Y-3176600D03*
G01X16230600Y-3189300D03*
G01X16230600Y-3389300D03*
G01X11976100Y-3389300D03*
G01X11976100Y-3189300D03*
G01X14058900Y-3176600D03*
G01X14058900Y-3376600D03*
G01X18173700Y-3176600D03*
G01X18173700Y-3376600D03*
G01X20345400Y-3176600D03*
G01X20345400Y-3376600D03*
G54D39*
G01X4773600Y-3479800D03*
G01X4573600Y-3479800D03*
G01X4303700Y-5956300D03*
G01X4103700Y-5956300D03*
G01X3313100Y-5956300D03*
G01X3113100Y-5956300D03*
G54D40*
G01X7569200Y-2589200D03*
G01X7569200Y-2389200D03*
G01X6629400Y-2576500D03*
G01X6629400Y-2376500D03*
G01X8128000Y-2589200D03*
G01X8128000Y-2389200D03*
G01X8585200Y-2589200D03*
G01X8585200Y-2389200D03*
G54D39*
G01X8951900Y-3924300D03*
G01X8751900Y-3924300D03*
G54D40*
G01X7378700Y-6996100D03*
G01X7378700Y-6796100D03*
G54D39*
G01X7415200Y-8788400D03*
G01X7215200Y-8788400D03*
G01X7478700Y-10947400D03*
G01X7278700Y-10947400D03*
G01X7466000Y-13068300D03*
G01X7266000Y-13068300D03*
G01X7427900Y-15201900D03*
G01X7227900Y-15201900D03*
G54D40*
G01X4216400Y-2351100D03*
G01X4216400Y-2551100D03*
G54D39*
G01X4649800Y-5295900D03*
G01X4849800Y-5295900D03*
G54D40*
G01X3886200Y-3021000D03*
G01X3886200Y-2821000D03*
G01X3606800Y-3021000D03*
G01X3606800Y-2821000D03*
G01X3327400Y-3021000D03*
G01X3327400Y-2821000D03*
G01X3048000Y-3021000D03*
G01X3048000Y-2821000D03*
G01X2400300Y-3021000D03*
G01X2400300Y-2821000D03*
G01X2120900Y-3021000D03*
G01X2120900Y-2821000D03*
G54D41*
G01X7733602Y-4461700D03*
G01X9233599Y-4461700D03*
G01X7733602Y-4961699D03*
G01X9233599Y-4961699D03*
G01X9702102Y-4461700D03*
G01X11202099Y-4461700D03*
G01X9702102Y-4961699D03*
G01X11202099Y-4961699D03*
G01X11670602Y-4461700D03*
G01X13170599Y-4461700D03*
G01X11670602Y-4961699D03*
G01X13170599Y-4961699D03*
G01X13639102Y-4461700D03*
G01X15139099Y-4461700D03*
G01X13639102Y-4961699D03*
G01X15139099Y-4961699D03*
G01X15607602Y-4461700D03*
G01X17107599Y-4461700D03*
G01X15607602Y-4961699D03*
G01X17107599Y-4961699D03*
G01X17576102Y-4461700D03*
G01X19076099Y-4461700D03*
G01X17576102Y-4961699D03*
G01X19076099Y-4961699D03*
G01X19544602Y-4461700D03*
G01X21044599Y-4461700D03*
G01X19544602Y-4961699D03*
G01X21044599Y-4961699D03*
G01X7733602Y-6531800D03*
G01X9233599Y-6531800D03*
G01X7733602Y-7031799D03*
G01X9233599Y-7031799D03*
G01X9702102Y-6531800D03*
G01X11202099Y-6531800D03*
G01X9702102Y-7031799D03*
G01X11202099Y-7031799D03*
G01X11670602Y-6531800D03*
G01X13170599Y-6531800D03*
G01X11670602Y-7031799D03*
G01X13170599Y-7031799D03*
G01X13639102Y-6531800D03*
G01X15139099Y-6531800D03*
G01X13639102Y-7031799D03*
G01X15139099Y-7031799D03*
G01X15607602Y-6531800D03*
G01X17107599Y-6531800D03*
G01X15607602Y-7031799D03*
G01X17107599Y-7031799D03*
G01X17576102Y-6531800D03*
G01X19076099Y-6531800D03*
G01X17576102Y-7031799D03*
G01X19076099Y-7031799D03*
G01X19544602Y-6531800D03*
G01X21044599Y-6531800D03*
G01X19544602Y-7031799D03*
G01X21044599Y-7031799D03*
G01X7759002Y-8601900D03*
G01X9258999Y-8601900D03*
G01X7759002Y-9101899D03*
G01X9258999Y-9101899D03*
G01X9727502Y-8601900D03*
G01X11227499Y-8601900D03*
G01X9727502Y-9101899D03*
G01X11227499Y-9101899D03*
G01X11696002Y-8601900D03*
G01X13195999Y-8601900D03*
G01X11696002Y-9101899D03*
G01X13195999Y-9101899D03*
G01X13664502Y-8601900D03*
G01X15164499Y-8601900D03*
G01X13664502Y-9101899D03*
G01X15164499Y-9101899D03*
G01X15633002Y-8601900D03*
G01X17132999Y-8601900D03*
G01X15633002Y-9101899D03*
G01X17132999Y-9101899D03*
G01X17601502Y-8601900D03*
G01X19101499Y-8601900D03*
G01X17601502Y-9101899D03*
G01X19101499Y-9101899D03*
G01X19570002Y-8601900D03*
G01X21069999Y-8601900D03*
G01X19570002Y-9101899D03*
G01X21069999Y-9101899D03*
G01X7771702Y-10672000D03*
G01X9271699Y-10672000D03*
G01X7771702Y-11171999D03*
G01X9271699Y-11171999D03*
G01X9740202Y-10672000D03*
G01X11240199Y-10672000D03*
G01X9740202Y-11171999D03*
G01X11240199Y-11171999D03*
G01X11696002Y-10672000D03*
G01X13195999Y-10672000D03*
G01X11696002Y-11171999D03*
G01X13195999Y-11171999D03*
G01X13651802Y-10672000D03*
G01X15151799Y-10672000D03*
G01X13651802Y-11171999D03*
G01X15151799Y-11171999D03*
G01X15620302Y-10672000D03*
G01X17120299Y-10672000D03*
G01X15620302Y-11171999D03*
G01X17120299Y-11171999D03*
G01X17588802Y-10672000D03*
G01X19088799Y-10672000D03*
G01X17588802Y-11171999D03*
G01X19088799Y-11171999D03*
G01X19557302Y-10672000D03*
G01X21057299Y-10672000D03*
G01X19557302Y-11171999D03*
G01X21057299Y-11171999D03*
G01X7797102Y-12742100D03*
G01X9297099Y-12742100D03*
G01X7797102Y-13242099D03*
G01X9297099Y-13242099D03*
G01X9765602Y-12742100D03*
G01X11265599Y-12742100D03*
G01X9765602Y-13242099D03*
G01X11265599Y-13242099D03*
G01X11734102Y-12742100D03*
G01X13234099Y-12742100D03*
G01X11734102Y-13242099D03*
G01X13234099Y-13242099D03*
G01X13702602Y-12742100D03*
G01X15202599Y-12742100D03*
G01X13702602Y-13242099D03*
G01X15202599Y-13242099D03*
G01X15671102Y-12742100D03*
G01X17171099Y-12742100D03*
G01X15671102Y-13242099D03*
G01X17171099Y-13242099D03*
G01X17639602Y-12742100D03*
G01X19139599Y-12742100D03*
G01X17639602Y-13242099D03*
G01X19139599Y-13242099D03*
G01X19608102Y-12742100D03*
G01X21108099Y-12742100D03*
G01X19608102Y-13242099D03*
G01X21108099Y-13242099D03*
G01X7797102Y-14812200D03*
G01X9297099Y-14812200D03*
G01X7797102Y-15312199D03*
G01X9297099Y-15312199D03*
G01X9765602Y-14799500D03*
G01X11265599Y-14799500D03*
G01X9765602Y-15299499D03*
G01X11265599Y-15299499D03*
G01X11734102Y-14812200D03*
G01X13234099Y-14812200D03*
G01X11734102Y-15312199D03*
G01X13234099Y-15312199D03*
G01X13702602Y-14812200D03*
G01X15202599Y-14812200D03*
G01X13702602Y-15312199D03*
G01X15202599Y-15312199D03*
G01X15671102Y-14812200D03*
G01X17171099Y-14812200D03*
G01X15671102Y-15312199D03*
G01X17171099Y-15312199D03*
G01X17639602Y-14812200D03*
G01X19139599Y-14812200D03*
G01X17639602Y-15312199D03*
G01X19139599Y-15312199D03*
G01X19608102Y-14812200D03*
G01X21108099Y-14812200D03*
G01X19608102Y-15312199D03*
G01X21108099Y-15312199D03*
G01X3415602Y-10760900D03*
G01X4915599Y-10760900D03*
G01X3415602Y-11260899D03*
G01X4915599Y-11260899D03*
G01X2920302Y-12221400D03*
G01X4420299Y-12221400D03*
G01X2920302Y-12721399D03*
G01X4420299Y-12721399D03*
G01X3415602Y-13758100D03*
G01X4915599Y-13758100D03*
G01X3415602Y-14258099D03*
G01X4915599Y-14258099D03*
G01X5371402Y-13745400D03*
G01X6871399Y-13745400D03*
G01X5371402Y-14245399D03*
G01X6871399Y-14245399D03*
G01X4838002Y-12221400D03*
G01X6337999Y-12221400D03*
G01X4838002Y-12721399D03*
G01X6337999Y-12721399D03*
G01X5346002Y-10748200D03*
G01X6845999Y-10748200D03*
G01X5346002Y-11248199D03*
G01X6845999Y-11248199D03*
G54D36*
G01X1505102Y-2908300D03*
G01X1365098Y-2908300D03*
G01X10686898Y-2451100D03*
G01X10826902Y-2451100D03*
G01X14915998Y-2438400D03*
G01X15056002Y-2438400D03*
G01X19043498Y-2425700D03*
G01X19183502Y-2425700D03*
G54D10*
G01X18376900Y-2743200D03*
G04 Pad End*

G04 Via Start*
G54D42*
G01X3238500Y-1968500D03*
G01X6819900Y-5842000D03*
G01X4572000Y-850900D03*
G54D43*
G01X19631787Y-13902499D03*
G01X19776186Y-13808900D03*
G01X19619087Y-7692199D03*
G01X19763486Y-7598600D03*
G01X19631787Y-8936799D03*
G01X18056987Y-9571799D03*
G01X18768187Y-7501699D03*
G01X18260187Y-7577899D03*
G01X19619087Y-11832399D03*
G01X19763486Y-11738800D03*
G01X4748505Y-3606800D03*
G01X19200114Y-732599D03*
G01X18946114Y-732599D03*
G01X18783973Y-1383697D03*
G01X19022314Y-1434401D03*
G01X19136487Y-1697799D03*
G01X18828401Y-1497885D03*
G01X15008987Y-1075499D03*
G01X14932787Y-948499D03*
G01X15059787Y-719899D03*
G01X14805787Y-719899D03*
G01X14631073Y-1433134D03*
G01X14881987Y-1397000D03*
G01X15021687Y-1837499D03*
G01X10340213Y-1499425D03*
G01X10754614Y-719899D03*
G01X10424414Y-719899D03*
G01X10251313Y-1397000D03*
G01X10543413Y-1456499D03*
G01X10335387Y-2370899D03*
G01X10106787Y-2955099D03*
G01X9776587Y-3590099D03*
G01X6898513Y-11456225D03*
G01X19085687Y-1782000D03*
G01X7071487Y-12772199D03*
G01X5826887Y-13610399D03*
G01X2448687Y-13610399D03*
G01X1005586Y-13631100D03*
G01X5246395Y-3238500D03*
G01X4300614Y-1249997D03*
G01X18580100Y-2846095D03*
G01X18376900Y-2642895D03*
G01X18997651Y-2882900D03*
G01X19099251Y-2781300D03*
G01X20494092Y-2946400D03*
G01X20316292Y-2768600D03*
G01X12683698Y-2387798D03*
G01X12505898Y-2413198D03*
G01X13623498Y-2590998D03*
G01X13598098Y-3098998D03*
G01X16468298Y-3098998D03*
G01X11871604Y-2300300D03*
G01X14376400Y-2818105D03*
G01X3962400Y-3479800D03*
G01X5689600Y-5130800D03*
G01X2285302Y-12848399D03*
G01X2920302Y-13686599D03*
G01X6585102Y-5029200D03*
G01X6737502Y-4953000D03*
G01X8718702Y-3568700D03*
G01X9607702Y-3263900D03*
G01X6972300Y-2971800D03*
G01X6988708Y-6417208D03*
G01X20495387Y-3374200D03*
G01X20622387Y-1688274D03*
G01X6536004Y-6413500D03*
G01X6993204Y-5702300D03*
G01X5926404Y-5854700D03*
G01X6358204Y-5702300D03*
G01X6840804Y-6438900D03*
G01X7298004Y-6540500D03*
G01X18642902Y-7031799D03*
G01X19354102Y-7031799D03*
G01X6129604Y-7556500D03*
G01X6764604Y-8216900D03*
G01X18642902Y-9076499D03*
G01X19379502Y-9038399D03*
G01X6028004Y-7658100D03*
G01X6713804Y-9690100D03*
G01X18808002Y-11171999D03*
G01X19062002Y-11324399D03*
G01X5850204Y-7632700D03*
G01X6053404Y-8851900D03*
G01X18808002Y-13242099D03*
G01X19087402Y-13394499D03*
G01X5723204Y-7480300D03*
G01X6764604Y-12915900D03*
G01X18833402Y-15312199D03*
G01X19341402Y-15312199D03*
G01X5037404Y-5372100D03*
G01X5012004Y-5549900D03*
G01X5401996Y-5981700D03*
G01X4690796Y-6210300D03*
G01X5605196Y-5880100D03*
G01X4919396Y-14109700D03*
G01X6494196Y-5727700D03*
G01X6773596Y-8318500D03*
G01X6646596Y-8420100D03*
G01X6849796Y-12890500D03*
G01X6341796Y-5803900D03*
G01X6316396Y-11112500D03*
G01X6722796Y-6515100D03*
G01X6773596Y-7404100D03*
G01X5986196Y-7861300D03*
G01X6062396Y-8724900D03*
G01X5994400Y-3035300D03*
G01X6299200Y-3060700D03*
G01X6045200Y-2948000D03*
G01X10820400Y-3100400D03*
G01X3251200Y-3302000D03*
G01X3962400Y-3302000D03*
G01X2984500Y-3200400D03*
G01X3975100Y-3200400D03*
G01X4940300Y-3098800D03*
G01X16090900Y-3048000D03*
G01X4076700Y-2374900D03*
G01X19432600Y-3176600D03*
G01X5727695Y-6115799D03*
G01X5661597Y-6204699D03*
G01X863600Y-3098800D03*
G01X6498798Y-3120799D03*
G01X6371798Y-3654199D03*
G01X6711798Y-6152998D03*
G01X6644589Y-6406998D03*
G01X5948096Y-7340600D03*
G01X5440096Y-7738008D03*
G01X15637299Y-1329398D03*
G01X15764299Y-1202398D03*
G01X18316999Y-1532598D03*
G01X20438600Y-1525397D03*
G01X20044199Y-1761198D03*
G01X2383099Y-14229601D03*
G01X19195898Y-5611896D03*
G01X17163898Y-7821696D03*
G01X15258898Y-9879096D03*
G01X13531698Y-12012696D03*
G01X11436198Y-14158996D03*
G01X9353398Y-16063996D03*
G01X7168998Y-13879596D03*
G01X6464300Y-4673600D03*
G01X6210300Y-4800600D03*
G01X4279900Y-5232400D03*
G01X2667000Y-5080000D03*
G01X3098795Y-9887699D03*
G01X4546595Y-6583101D03*
G01X5486395Y-6151301D03*
G01X8572500Y-3124200D03*
G01X2489200Y-3886200D03*
G01X3860800Y-3784600D03*
G01X2641600Y-4445000D03*
G01X5029200Y-4724400D03*
G01X5943600Y-3937000D03*
G01X3124200Y-5003800D03*
G01X4114800Y-5003800D03*
G01X6223000Y-9118600D03*
G01X5842000Y-7924800D03*
G01X4902200Y-6883400D03*
G01X5080000Y-6235700D03*
G01X5080000Y-6464300D03*
G01X5588000Y-6146800D03*
G01X6019800Y-6223000D03*
G01X4953000Y-6807200D03*
G01X6070600Y-7823200D03*
G01X4826000Y-6731000D03*
G01X5384800Y-6400800D03*
G01X5435600Y-6731000D03*
G01X5257800Y-7416800D03*
G01X7141896Y-7442200D03*
G01X9021496Y-7035800D03*
G01X9250096Y-8305800D03*
G01X6405296Y-8077200D03*
G01X6786296Y-9347200D03*
G01X9072296Y-11176000D03*
G01X9275496Y-12293600D03*
G01X9275496Y-14503400D03*
G01X7446696Y-9017000D03*
G01X11028096Y-9017000D03*
G01X11180496Y-7264400D03*
G01X11180496Y-5435600D03*
G01X11053496Y-11201400D03*
G01X11256696Y-12446000D03*
G01X11214799Y-14359903D03*
G01X7091096Y-9067800D03*
G01X12983896Y-9093200D03*
G01X13161696Y-7264400D03*
G01X13195999Y-9279699D03*
G01X13195999Y-10371899D03*
G01X13161696Y-5435600D03*
G01X13195999Y-12302299D03*
G01X13234099Y-13102399D03*
G01X13234099Y-14524799D03*
G01X7497496Y-9330499D03*
G01X13085496Y-9330499D03*
G01X15142896Y-8949499D03*
G01X15142896Y-7273099D03*
G01X15142896Y-5444299D03*
G01X15142896Y-9381299D03*
G01X14863496Y-10168699D03*
G01X15142896Y-11032299D03*
G01X15193696Y-12454699D03*
G01X15193696Y-14512099D03*
G01X6913296Y-9093200D03*
G01X15870796Y-9025699D03*
G01X16937596Y-9152699D03*
G01X17115396Y-10219499D03*
G01X17310799Y-7230097D03*
G01X17513999Y-6874497D03*
G01X17166196Y-12454699D03*
G01X17166196Y-14512099D03*
G01X6989496Y-9169400D03*
G01X15422296Y-9169400D03*
G01X18749696Y-9169400D03*
G01X18952896Y-9245600D03*
G01X19215799Y-11032503D03*
G01X19228499Y-6879399D03*
G01X19076099Y-5329999D03*
G01X19241199Y-13089903D03*
G01X19215799Y-15172703D03*
G01X7294296Y-9271000D03*
G01X15371496Y-9245600D03*
G01X18622696Y-9220200D03*
G01X20917599Y-9254299D03*
G01X6724802Y-5880100D03*
G01X3372002Y-2501900D03*
G01X6826758Y-6261100D03*
G01X7000113Y-12682855D03*
G01X11176000Y-2959100D03*
G01X10617200Y-2908300D03*
G01X13817600Y-2908300D03*
G01X14605000Y-2970251D03*
G01X17957800Y-2741651D03*
G01X11176000Y-3263900D03*
G01X6019800Y-3873500D03*
G04 Via End*

M02*

