;TYPE=PLATED
;Layer: PTH_Through
;EasyEDA Pro v2.2.35.2, 2025-01-25 12:46:23
;Gerber Generator version 0.3
M48
METRIC,LZ,0000.00000
;Hole size 1 = 0.02540 METRIC
T01C0.02540
;Hole size 2 = 0.30500 METRIC
T02C0.30500
;Hole size 3 = 0.50000 METRIC
T03C0.50000
;Hole size 4 = 0.70000 METRIC
T04C0.70000
;Hole size 5 = 0.78740 METRIC
T05C0.78740
;Hole size 6 = 0.80000 METRIC
T06C0.80000
;Hole size 7 = 1.00000 METRIC
T07C1.00000
;Hole size 8 = 1.02000 METRIC
T08C1.02000
;Hole size 9 = 1.10000 METRIC
T09C1.10000
;Hole size 10 = 1.40000 METRIC
T10C1.40000
;Hole size 11 = 1.60000 METRIC
T11C1.60000
%
G05
G90
T01
X102.362Y-6.763
X102.362Y-12.163
X102.362Y-17.863
X125.984Y-6.509
X125.984Y-11.909
X125.984Y-17.609
X137.668Y-6.509
X137.668Y-11.909
X137.668Y-17.609
X114.554Y-6.763
X114.554Y-12.163
X114.554Y-17.863
X90.043Y-6.636
X90.043Y-12.036
X90.043Y-17.736
X78.105Y-6.636
X78.105Y-12.036
X78.105Y-17.736
T02
X112.522Y-96.012
X112.649Y-87.884
X63.246Y-108.077
X66.802Y-98.933
X73.152Y-84.201
X75.692Y-66.421
X78.74Y-50.165
X86.614Y-50.165
X39.878Y-72.898
X125.349Y-20.828
X93.98Y-70.612
X92.456Y-66.294
X125.476Y-19.641
X137.668Y-18.796
X87.884Y-47.835
X85.09Y-66.377
X89.916Y-72.473
X89.027Y-73.025
X84.455Y-66.929
X90.043Y-18.923
X82.296Y-27.94
X103.378Y-88.9
X114.554Y-69.85
X27.305Y-80.645
X72.39Y-70.739
X73.66Y-66.421
X93.599Y-57.15
X126.238Y-75.057
X128.651Y-87.503
X129.524Y-84.566
X127.0Y-100.838
X128.254Y-76.978
X129.921Y-86.233
X130.175Y-83.185
X125.857Y-80.391
X125.857Y-76.581
X130.175Y-73.819
X126.238Y-100.076
X125.73Y-84.836
X125.222Y-81.026
X125.222Y-77.978
X80.137Y-77.216
X99.187Y-76.708
X102.235Y-78.74
X147.447Y-74.93
X103.251Y-83.312
X109.601Y-78.232
X120.523Y-78.232
X98.409Y-73.168
X112.125Y-70.628
X147.431Y-69.104
X122.539Y-72.914
X147.685Y-68.342
X99.441Y-74.168
X111.125Y-76.708
X111.887Y-82.296
X125.095Y-83.312
X89.281Y-65.024
X89.281Y-68.58
X94.361Y-72.39
X97.536Y-89.027
X118.745Y-96.774
X88.392Y-93.853
X69.723Y-94.742
X51.308Y-98.679
X72.898Y-104.521
X98.171Y-100.076
X100.711Y-97.536
X99.314Y-98.171
X86.614Y-112.014
X83.058Y-108.458
X77.978Y-99.314
X79.502Y-98.806
X158.496Y-19.812
X76.962Y-98.806
X67.564Y-99.822
X73.152Y-108.585
X74.676Y-102.743
X66.421Y-90.424
X69.469Y-90.932
X83.947Y-84.836
X91.567Y-69.85
X93.345Y-68.072
X59.69Y-96.393
X92.583Y-65.532
X102.108Y-91.567
X123.952Y-91.567
X12.065Y-88.773
X59.944Y-97.155
X76.454Y-94.869
X75.692Y-83.185
X83.82Y-76.073
X105.664Y-79.883
X98.425Y-96.901
X73.025Y-96.901
X56.515Y-91.44
X39.116Y-94.615
X86.741Y-103.505
X67.31Y-102.489
X93.599Y-102.743
X66.675Y-99.695
X84.201Y-101.981
X75.692Y-100.457
X96.393Y-111.379
X74.803Y-84.582
X99.06Y-103.378
X113.411Y-87.757
X122.428Y-96.266
X124.841Y-59.563
X90.932Y-103.378
T03
X2.54Y-72.057
X3.54Y-72.057
X2.54Y-73.057
X3.54Y-73.057
X2.54Y-74.057
X3.54Y-74.057
X2.54Y-75.057
X3.54Y-75.057
X26.924Y-71.803
X27.924Y-71.803
X26.924Y-72.803
X27.924Y-72.803
X26.924Y-73.803
X27.924Y-73.803
X26.924Y-74.803
X27.924Y-74.803
X75.946Y-70.787
X76.946Y-70.787
X75.946Y-71.787
X76.946Y-71.787
X75.946Y-72.787
X76.946Y-72.787
X75.946Y-73.787
X76.946Y-73.787
X102.235Y-70.533
X103.235Y-70.533
X102.235Y-71.533
X103.235Y-71.533
X102.235Y-72.533
X103.235Y-72.533
X102.235Y-73.533
X103.235Y-73.533
X127.0Y-70.914
X128.0Y-70.914
X127.0Y-71.914
X128.0Y-71.914
X127.0Y-72.914
X128.0Y-72.914
X127.0Y-73.914
X128.0Y-73.914
X151.511Y-71.168
X152.511Y-71.168
X151.511Y-72.168
X152.511Y-72.168
X151.511Y-73.168
X152.511Y-73.168
X151.511Y-74.168
X152.511Y-74.168
X180.22Y-3.17
X179.22Y-3.17
X178.22Y-3.17
X152.28Y-109.85
X151.28Y-109.85
X150.28Y-109.85
T04
X60.071Y-32.385
X60.071Y-29.845
X173.482Y-16.256
X173.482Y-18.796
X8.509Y-32.893
X8.509Y-35.433
X157.226Y-20.066
X159.766Y-20.066
T05
X55.88Y-120.015
X55.88Y-117.475
X55.88Y-114.935
X55.88Y-112.395
X55.88Y-109.855
X55.88Y-107.315
X55.88Y-104.775
X55.88Y-102.235
X48.26Y-102.235
X48.26Y-104.775
X48.26Y-107.315
X48.26Y-109.855
X48.26Y-112.395
X48.26Y-114.935
X48.26Y-117.475
X48.26Y-120.015
X113.665Y-81.407
X113.665Y-83.947
X113.665Y-86.487
X113.665Y-89.027
X113.665Y-91.567
X113.665Y-94.107
X113.665Y-96.647
X113.665Y-99.187
X121.285Y-99.187
X121.285Y-96.647
X121.285Y-94.107
X121.285Y-91.567
X121.285Y-89.027
X121.285Y-86.487
X121.285Y-83.947
X121.285Y-81.407
X58.42Y-54.737
X58.42Y-57.277
X58.42Y-59.817
X58.42Y-62.357
X58.42Y-64.897
X58.42Y-67.437
X58.42Y-69.977
X58.42Y-72.517
X66.04Y-72.517
X66.04Y-69.977
X66.04Y-67.437
X66.04Y-64.897
X66.04Y-62.357
X66.04Y-59.817
X66.04Y-57.277
X66.04Y-54.737
X63.246Y-110.363
X65.786Y-110.363
X68.326Y-110.363
X70.866Y-110.363
X73.406Y-110.363
X75.946Y-110.363
X78.486Y-110.363
X81.026Y-110.363
X81.026Y-102.743
X78.486Y-102.743
X75.946Y-102.743
X73.406Y-102.743
X70.866Y-102.743
X68.326Y-102.743
X65.786Y-102.743
X63.246Y-102.743
X28.067Y-77.089
X28.067Y-79.629
X28.067Y-82.169
X28.067Y-84.709
X28.067Y-87.249
X28.067Y-89.789
X28.067Y-92.329
X28.067Y-94.869
X35.687Y-94.869
X35.687Y-92.329
X35.687Y-89.789
X35.687Y-87.249
X35.687Y-84.709
X35.687Y-82.169
X35.687Y-79.629
X35.687Y-77.089
X70.485Y-77.724
X70.485Y-80.264
X70.485Y-82.804
X70.485Y-85.344
X70.485Y-87.884
X70.485Y-90.424
X70.485Y-92.964
X70.485Y-95.504
X78.105Y-95.504
X78.105Y-92.964
X78.105Y-90.424
X78.105Y-87.884
X78.105Y-85.344
X78.105Y-82.804
X78.105Y-80.264
X78.105Y-77.724
X136.525Y-106.807
X136.525Y-104.267
X136.525Y-101.727
X136.525Y-99.187
X136.525Y-96.647
X136.525Y-94.107
X136.525Y-91.567
X136.525Y-89.027
X128.905Y-89.027
X128.905Y-91.567
X128.905Y-94.107
X128.905Y-96.647
X128.905Y-99.187
X128.905Y-101.727
X128.905Y-104.267
X128.905Y-106.807
X13.716Y-99.187
X13.716Y-96.647
X13.716Y-94.107
X13.716Y-91.567
X13.716Y-89.027
X13.716Y-86.487
X13.716Y-83.947
X13.716Y-81.407
X6.096Y-81.407
X6.096Y-83.947
X6.096Y-86.487
X6.096Y-89.027
X6.096Y-91.567
X6.096Y-94.107
X6.096Y-96.647
X6.096Y-99.187
X88.265Y-50.292
X88.265Y-52.832
X88.265Y-55.372
X88.265Y-57.912
X88.265Y-60.452
X88.265Y-62.992
X88.265Y-65.532
X88.265Y-68.072
X95.885Y-68.072
X95.885Y-65.532
X95.885Y-62.992
X95.885Y-60.452
X95.885Y-57.912
X95.885Y-55.372
X95.885Y-52.832
X95.885Y-50.292
T06
X129.286Y-27.94
X124.286Y-27.94
X167.005Y-53.086
X167.005Y-48.086
X60.198Y-18.923
X52.578Y-18.923
X80.518Y-32.004
X80.518Y-29.464
X80.518Y-26.924
X80.518Y-24.384
X72.898Y-24.384
X72.898Y-26.924
X72.898Y-29.464
X72.898Y-32.004
T07
X179.197Y-11.176
X179.197Y-18.676
T08
X104.14Y-120.396
X104.14Y-117.856
X104.14Y-115.316
X104.14Y-112.776
X99.06Y-89.916
X88.9Y-117.856
X104.14Y-110.236
X104.14Y-107.696
X104.14Y-105.156
X104.14Y-102.616
X104.14Y-100.076
X104.14Y-97.536
X104.14Y-94.996
X104.14Y-92.456
X104.14Y-89.916
X88.9Y-89.916
X88.9Y-92.456
X88.9Y-94.996
X88.9Y-97.536
X88.9Y-100.076
X88.9Y-102.616
X88.9Y-105.156
X88.9Y-107.696
X88.9Y-110.236
X88.9Y-112.776
X88.9Y-115.316
X104.14Y-122.936
X96.52Y-89.916
X88.9Y-120.396
X91.44Y-89.916
X93.98Y-89.916
X101.6Y-89.916
X88.9Y-122.936
T09
X210.208Y-2.667
X203.708Y-2.667
X210.208Y-7.167
X203.708Y-7.167
X182.499Y-32.258
X182.499Y-22.098
X124.841Y-35.56
X124.841Y-38.1
X124.841Y-40.64
T10
X33.14Y-13.259
X40.64Y-13.259
X48.14Y-13.259
X35.64Y-15.759
X45.64Y-15.759
X45.64Y-3.759
X35.64Y-3.759
X6.978Y-13.386
X14.478Y-13.386
X21.978Y-13.386
X9.478Y-15.886
X19.478Y-15.886
X19.478Y-3.886
X9.478Y-3.886
T11
X160.528Y-14.859
X160.528Y-8.859
X155.828Y-11.859
M30