;TYPE=PLATED
;Layer: PTH_Through_Via
;EasyEDA Pro v2.2.35.2, 2025-01-25 12:46:23
;Gerber Generator version 0.3
M48
METRIC,LZ,0000.00000
;Hole size 1 = 0.30500 METRIC
T01C0.30500
%
G05
G90
T01
X112.522Y-96.012
X112.649Y-87.884
X63.246Y-108.077
X66.802Y-98.933
X73.152Y-84.201
X75.692Y-66.421
X78.74Y-50.165
X86.614Y-50.165
X39.878Y-72.898
X125.349Y-20.828
X93.98Y-70.612
X92.456Y-66.294
X125.476Y-19.641
X137.668Y-18.796
X87.884Y-47.835
X85.09Y-66.377
X89.916Y-72.473
X89.027Y-73.025
X84.455Y-66.929
X90.043Y-18.923
X82.296Y-27.94
X103.378Y-88.9
X114.554Y-69.85
X27.305Y-80.645
X72.39Y-70.739
X73.66Y-66.421
X93.599Y-57.15
X126.238Y-75.057
X128.651Y-87.503
X129.524Y-84.566
X127.0Y-100.838
X128.254Y-76.978
X129.921Y-86.233
X130.175Y-83.185
X125.857Y-80.391
X125.857Y-76.581
X130.175Y-73.819
X126.238Y-100.076
X125.73Y-84.836
X125.222Y-81.026
X125.222Y-77.978
X80.137Y-77.216
X99.187Y-76.708
X102.235Y-78.74
X147.447Y-74.93
X103.251Y-83.312
X109.601Y-78.232
X120.523Y-78.232
X98.409Y-73.168
X112.125Y-70.628
X147.431Y-69.104
X122.539Y-72.914
X147.685Y-68.342
X99.441Y-74.168
X111.125Y-76.708
X111.887Y-82.296
X125.095Y-83.312
X89.281Y-65.024
X89.281Y-68.58
X94.361Y-72.39
X97.536Y-89.027
X118.745Y-96.774
X88.392Y-93.853
X69.723Y-94.742
X51.308Y-98.679
X72.898Y-104.521
X98.171Y-100.076
X100.711Y-97.536
X99.314Y-98.171
X86.614Y-112.014
X83.058Y-108.458
X77.978Y-99.314
X79.502Y-98.806
X158.496Y-19.812
X76.962Y-98.806
X67.564Y-99.822
X73.152Y-108.585
X74.676Y-102.743
X66.421Y-90.424
X69.469Y-90.932
X83.947Y-84.836
X91.567Y-69.85
X93.345Y-68.072
X59.69Y-96.393
X92.583Y-65.532
X102.108Y-91.567
X123.952Y-91.567
X12.065Y-88.773
X59.944Y-97.155
X76.454Y-94.869
X75.692Y-83.185
X83.82Y-76.073
X105.664Y-79.883
X98.425Y-96.901
X73.025Y-96.901
X56.515Y-91.44
X39.116Y-94.615
X86.741Y-103.505
X67.31Y-102.489
X93.599Y-102.743
X66.675Y-99.695
X84.201Y-101.981
X75.692Y-100.457
X96.393Y-111.379
X74.803Y-84.582
X99.06Y-103.378
X113.411Y-87.757
X122.428Y-96.266
X124.841Y-59.563
X90.932Y-103.378
M30