G04 Layer: BottomLayer*
G04 EasyEDA Pro v2.2.35.2, 2025-01-25 12:46:23*
G04 Gerber Generator version 0.3*
G04 Scale: 100 percent, Rotated: No, Reflected: No*
G04 Dimensions in millimeters*
G04 Leading zeros omitted, absolute positions, 4 integers and 5 decimals*
%FSLAX45Y45*%
%MOMM*%
%ADD10C,2.0*%
%ADD11O,3.008X1.708*%
%ADD12R,1.2954X1.2954*%
%ADD13C,1.2954*%
%ADD14C,1.6*%
%ADD15C,1.4*%
%ADD16R,2.2X2.2*%
%ADD17C,2.2*%
%ADD18R,1.6X1.6*%
%ADD19R,2.6082X2.6*%
%ADD20R,2.6X2.6*%
%ADD21C,2.6*%
%ADD22C,1.53*%
%ADD23R,1.2954X1.2954*%
%ADD24R,2.1X2.1*%
%ADD25C,2.1*%
%ADD26R,1.2954X1.2954*%
%ADD27R,1.6X1.6*%
%ADD28R,2.0X1.905*%
%ADD29O,2.0X1.905*%
%ADD30R,0.85X0.85*%
%ADD31C,0.85*%
%ADD32R,0.85X0.85*%
%ADD33C,0.61*%
%ADD34C,0.254*%
G75*


G04 Pad Start*
G54D10*
G01X21020800Y-266700D03*
G01X20370800Y-266700D03*
G01X21020800Y-716700D03*
G01X20370800Y-716700D03*
G54D11*
G01X10236200Y-676300D03*
G01X10236200Y-1216300D03*
G01X10236200Y-1786300D03*
G54D12*
G01X5588000Y-12001500D03*
G54D13*
G01X5588000Y-11747500D03*
G01X5588000Y-11493500D03*
G01X5588000Y-11239500D03*
G01X5588000Y-10985500D03*
G01X5588000Y-10731500D03*
G01X5588000Y-10477500D03*
G01X5588000Y-10223500D03*
G01X4826000Y-10223500D03*
G01X4826000Y-10477500D03*
G01X4826000Y-10731500D03*
G01X4826000Y-10985500D03*
G01X4826000Y-11239500D03*
G01X4826000Y-11493500D03*
G01X4826000Y-11747500D03*
G01X4826000Y-12001500D03*
G54D10*
G01X17919700Y-1117600D03*
G01X17919700Y-1867600D03*
G54D14*
G01X12928600Y-2794000D03*
G01X12428600Y-2794000D03*
G01X16700500Y-5308600D03*
G01X16700500Y-4808600D03*
G54D15*
G01X6007100Y-3238500D03*
G01X6007100Y-2984500D03*
G54D16*
G01X18249900Y-3225800D03*
G54D17*
G01X18249900Y-2209800D03*
G54D18*
G01X6019800Y-1892300D03*
G54D14*
G01X5257800Y-1892300D03*
G54D20*
G01X16052800Y-1485900D03*
G54D21*
G01X16052800Y-885900D03*
G01X15582800Y-1185900D03*
G54D22*
G01X10414000Y-12039600D03*
G01X10414000Y-11785600D03*
G01X10414000Y-11531600D03*
G01X10414000Y-11277600D03*
G01X9906000Y-8991600D03*
G01X8890000Y-11785600D03*
G01X10414000Y-11023600D03*
G01X10414000Y-10769600D03*
G01X10414000Y-10515600D03*
G01X10414000Y-10261600D03*
G01X10414000Y-10007600D03*
G01X10414000Y-9753600D03*
G01X10414000Y-9499600D03*
G01X10414000Y-9245600D03*
G01X10414000Y-8991600D03*
G01X8890000Y-8991600D03*
G01X8890000Y-9245600D03*
G01X8890000Y-9499600D03*
G01X8890000Y-9753600D03*
G01X8890000Y-10007600D03*
G01X8890000Y-10261600D03*
G01X8890000Y-10515600D03*
G01X8890000Y-10769600D03*
G01X8890000Y-11023600D03*
G01X8890000Y-11277600D03*
G01X8890000Y-11531600D03*
G01X10414000Y-12293600D03*
G01X9652000Y-8991600D03*
G01X8890000Y-12039600D03*
G01X9144000Y-8991600D03*
G01X9398000Y-8991600D03*
G01X10160000Y-8991600D03*
G01X8890000Y-12293600D03*
G54D23*
G01X11366500Y-8140700D03*
G54D13*
G01X11366500Y-8394700D03*
G01X11366500Y-8648700D03*
G01X11366500Y-8902700D03*
G01X11366500Y-9156700D03*
G01X11366500Y-9410700D03*
G01X11366500Y-9664700D03*
G01X11366500Y-9918700D03*
G01X12128500Y-9918700D03*
G01X12128500Y-9664700D03*
G01X12128500Y-9410700D03*
G01X12128500Y-9156700D03*
G01X12128500Y-8902700D03*
G01X12128500Y-8648700D03*
G01X12128500Y-8394700D03*
G01X12128500Y-8140700D03*
G54D24*
G01X3314000Y-1325900D03*
G54D25*
G01X4064000Y-1325900D03*
G01X4814000Y-1325900D03*
G01X3564000Y-1575900D03*
G01X4564000Y-1575900D03*
G01X4564000Y-375900D03*
G01X3564000Y-375900D03*
G54D23*
G01X5842000Y-5473700D03*
G54D13*
G01X5842000Y-5727700D03*
G01X5842000Y-5981700D03*
G01X5842000Y-6235700D03*
G01X5842000Y-6489700D03*
G01X5842000Y-6743700D03*
G01X5842000Y-6997700D03*
G01X5842000Y-7251700D03*
G01X6604000Y-7251700D03*
G01X6604000Y-6997700D03*
G01X6604000Y-6743700D03*
G01X6604000Y-6489700D03*
G01X6604000Y-6235700D03*
G01X6604000Y-5981700D03*
G01X6604000Y-5727700D03*
G01X6604000Y-5473700D03*
G54D26*
G01X6324600Y-11036300D03*
G54D13*
G01X6578600Y-11036300D03*
G01X6832600Y-11036300D03*
G01X7086600Y-11036300D03*
G01X7340600Y-11036300D03*
G01X7594600Y-11036300D03*
G01X7848600Y-11036300D03*
G01X8102600Y-11036300D03*
G01X8102600Y-10274300D03*
G01X7848600Y-10274300D03*
G01X7594600Y-10274300D03*
G01X7340600Y-10274300D03*
G01X7086600Y-10274300D03*
G01X6832600Y-10274300D03*
G01X6578600Y-10274300D03*
G01X6324600Y-10274300D03*
G54D11*
G01X12598400Y-650900D03*
G01X12598400Y-1190900D03*
G01X12598400Y-1760900D03*
G54D23*
G01X2806700Y-7708900D03*
G54D13*
G01X2806700Y-7962900D03*
G01X2806700Y-8216900D03*
G01X2806700Y-8470900D03*
G01X2806700Y-8724900D03*
G01X2806700Y-8978900D03*
G01X2806700Y-9232900D03*
G01X2806700Y-9486900D03*
G01X3568700Y-9486900D03*
G01X3568700Y-9232900D03*
G01X3568700Y-8978900D03*
G01X3568700Y-8724900D03*
G01X3568700Y-8470900D03*
G01X3568700Y-8216900D03*
G01X3568700Y-7962900D03*
G01X3568700Y-7708900D03*
G54D11*
G01X13766800Y-650900D03*
G01X13766800Y-1190900D03*
G01X13766800Y-1760900D03*
G54D15*
G01X17348200Y-1625600D03*
G01X17348200Y-1879600D03*
G54D23*
G01X7048500Y-7772400D03*
G54D13*
G01X7048500Y-8026400D03*
G01X7048500Y-8280400D03*
G01X7048500Y-8534400D03*
G01X7048500Y-8788400D03*
G01X7048500Y-9042400D03*
G01X7048500Y-9296400D03*
G01X7048500Y-9550400D03*
G01X7810500Y-9550400D03*
G01X7810500Y-9296400D03*
G01X7810500Y-9042400D03*
G01X7810500Y-8788400D03*
G01X7810500Y-8534400D03*
G01X7810500Y-8280400D03*
G01X7810500Y-8026400D03*
G01X7810500Y-7772400D03*
G54D27*
G01X8051800Y-3200400D03*
G54D14*
G01X8051800Y-2946400D03*
G01X8051800Y-2692400D03*
G01X8051800Y-2438400D03*
G01X7289800Y-2438400D03*
G01X7289800Y-2692400D03*
G01X7289800Y-2946400D03*
G01X7289800Y-3200400D03*
G54D12*
G01X13652500Y-10680700D03*
G54D13*
G01X13652500Y-10426700D03*
G01X13652500Y-10172700D03*
G01X13652500Y-9918700D03*
G01X13652500Y-9664700D03*
G01X13652500Y-9410700D03*
G01X13652500Y-9156700D03*
G01X13652500Y-8902700D03*
G01X12890500Y-8902700D03*
G01X12890500Y-9156700D03*
G01X12890500Y-9410700D03*
G01X12890500Y-9664700D03*
G01X12890500Y-9918700D03*
G01X12890500Y-10172700D03*
G01X12890500Y-10426700D03*
G01X12890500Y-10680700D03*
G54D12*
G01X1371600Y-9918700D03*
G54D13*
G01X1371600Y-9664700D03*
G01X1371600Y-9410700D03*
G01X1371600Y-9156700D03*
G01X1371600Y-8902700D03*
G01X1371600Y-8648700D03*
G01X1371600Y-8394700D03*
G01X1371600Y-8140700D03*
G01X609600Y-8140700D03*
G01X609600Y-8394700D03*
G01X609600Y-8648700D03*
G01X609600Y-8902700D03*
G01X609600Y-9156700D03*
G01X609600Y-9410700D03*
G01X609600Y-9664700D03*
G01X609600Y-9918700D03*
G54D11*
G01X11455400Y-676300D03*
G01X11455400Y-1216300D03*
G01X11455400Y-1786300D03*
G54D23*
G01X8826500Y-5029200D03*
G54D13*
G01X8826500Y-5283200D03*
G01X8826500Y-5537200D03*
G01X8826500Y-5791200D03*
G01X8826500Y-6045200D03*
G01X8826500Y-6299200D03*
G01X8826500Y-6553200D03*
G01X8826500Y-6807200D03*
G01X9588500Y-6807200D03*
G01X9588500Y-6553200D03*
G01X9588500Y-6299200D03*
G01X9588500Y-6045200D03*
G01X9588500Y-5791200D03*
G01X9588500Y-5537200D03*
G01X9588500Y-5283200D03*
G01X9588500Y-5029200D03*
G54D24*
G01X697800Y-1338600D03*
G54D25*
G01X1447800Y-1338600D03*
G01X2197800Y-1338600D03*
G01X947800Y-1588600D03*
G01X1947800Y-1588600D03*
G01X1947800Y-388600D03*
G01X947800Y-388600D03*
G54D15*
G01X850900Y-3289300D03*
G01X850900Y-3543300D03*
G54D11*
G01X9004300Y-663600D03*
G01X9004300Y-1203600D03*
G01X9004300Y-1773600D03*
G54D28*
G01X12484100Y-3556000D03*
G54D29*
G01X12484100Y-3810000D03*
G01X12484100Y-4064000D03*
G54D11*
G01X7810500Y-663600D03*
G01X7810500Y-1203600D03*
G01X7810500Y-1773600D03*
G54D15*
G01X15722600Y-2006600D03*
G01X15976600Y-2006600D03*
G54D30*
G01X254000Y-7205700D03*
G54D31*
G01X354000Y-7205700D03*
G01X254000Y-7305700D03*
G01X354000Y-7305700D03*
G01X254000Y-7405700D03*
G01X354000Y-7405700D03*
G01X254000Y-7505700D03*
G01X354000Y-7505700D03*
G54D30*
G01X2692400Y-7180300D03*
G54D31*
G01X2792400Y-7180300D03*
G01X2692400Y-7280300D03*
G01X2792400Y-7280300D03*
G01X2692400Y-7380300D03*
G01X2792400Y-7380300D03*
G01X2692400Y-7480300D03*
G01X2792400Y-7480300D03*
G54D30*
G01X7594600Y-7078700D03*
G54D31*
G01X7694600Y-7078700D03*
G01X7594600Y-7178700D03*
G01X7694600Y-7178700D03*
G01X7594600Y-7278700D03*
G01X7694600Y-7278700D03*
G01X7594600Y-7378700D03*
G01X7694600Y-7378700D03*
G54D30*
G01X10223500Y-7053300D03*
G54D31*
G01X10323500Y-7053300D03*
G01X10223500Y-7153300D03*
G01X10323500Y-7153300D03*
G01X10223500Y-7253300D03*
G01X10323500Y-7253300D03*
G01X10223500Y-7353300D03*
G01X10323500Y-7353300D03*
G54D30*
G01X12700000Y-7091400D03*
G54D31*
G01X12800000Y-7091400D03*
G01X12700000Y-7191400D03*
G01X12800000Y-7191400D03*
G01X12700000Y-7291400D03*
G01X12800000Y-7291400D03*
G01X12700000Y-7391400D03*
G01X12800000Y-7391400D03*
G54D30*
G01X15151100Y-7116800D03*
G54D31*
G01X15251100Y-7116800D03*
G01X15151100Y-7216800D03*
G01X15251100Y-7216800D03*
G01X15151100Y-7316800D03*
G01X15251100Y-7316800D03*
G01X15151100Y-7416800D03*
G01X15251100Y-7416800D03*
G54D32*
G01X18022000Y-317000D03*
G54D31*
G01X17922000Y-317000D03*
G01X17822000Y-317000D03*
G54D32*
G01X15228000Y-10985000D03*
G54D31*
G01X15128000Y-10985000D03*
G01X15028000Y-10985000D03*
G04 Pad End*

G04 Via Start*
G54D33*
G01X11252200Y-9601200D03*
G01X11264900Y-8788400D03*
G01X6324600Y-10807700D03*
G01X6680200Y-9893300D03*
G01X7315200Y-8420100D03*
G01X7569200Y-6642100D03*
G01X7874000Y-5016500D03*
G01X8661400Y-5016500D03*
G01X3987800Y-7289800D03*
G01X12534900Y-2082800D03*
G01X9398000Y-7061200D03*
G01X9245600Y-6629400D03*
G01X12547600Y-1964100D03*
G01X13766800Y-1879600D03*
G01X8788400Y-4783500D03*
G01X8509000Y-6637700D03*
G01X8991600Y-7247300D03*
G01X8902700Y-7302500D03*
G01X8445500Y-6692900D03*
G01X9004300Y-1892300D03*
G01X8229600Y-2794000D03*
G01X10337800Y-8890000D03*
G01X11455400Y-6985000D03*
G01X2730500Y-8064500D03*
G01X7239000Y-7073900D03*
G01X7366000Y-6642100D03*
G01X9359900Y-5715000D03*
G01X12623800Y-7505700D03*
G01X12865100Y-8750300D03*
G01X12952400Y-8456600D03*
G01X12700000Y-10083800D03*
G01X12825400Y-7697800D03*
G01X12992100Y-8623300D03*
G01X13017500Y-8318500D03*
G01X12585700Y-8039100D03*
G01X12585700Y-7658100D03*
G01X13017500Y-7381900D03*
G01X12623800Y-10007600D03*
G01X12573000Y-8483600D03*
G01X12522200Y-8102600D03*
G01X12522200Y-7797800D03*
G01X8013700Y-7721600D03*
G01X9918700Y-7670800D03*
G01X10223500Y-7874000D03*
G01X14744700Y-7493000D03*
G01X10325100Y-8331200D03*
G01X10960100Y-7823200D03*
G01X12052300Y-7823200D03*
G01X9840900Y-7316800D03*
G01X11212500Y-7062800D03*
G01X14743100Y-6910400D03*
G01X12253900Y-7291400D03*
G01X14768500Y-6834200D03*
G01X9944100Y-7416800D03*
G01X11112500Y-7670800D03*
G01X11188700Y-8229600D03*
G01X12509500Y-8331200D03*
G01X8928100Y-6502400D03*
G01X8928100Y-6858000D03*
G01X9436100Y-7239000D03*
G01X9753600Y-8902700D03*
G01X11874500Y-9677400D03*
G01X8839200Y-9385300D03*
G01X6972300Y-9474200D03*
G01X5130800Y-9867900D03*
G01X7289800Y-10452100D03*
G01X9817100Y-10007600D03*
G01X10071100Y-9753600D03*
G01X9931400Y-9817100D03*
G01X8661400Y-11201400D03*
G01X8305800Y-10845800D03*
G01X7797800Y-9931400D03*
G01X7950200Y-9880600D03*
G01X15849600Y-1981200D03*
G01X7696200Y-9880600D03*
G01X6756400Y-9982200D03*
G01X7315200Y-10858500D03*
G01X7467600Y-10274300D03*
G01X6642100Y-9042400D03*
G01X6946900Y-9093200D03*
G01X8394700Y-8483600D03*
G01X9156700Y-6985000D03*
G01X9334500Y-6807200D03*
G01X5969000Y-9639300D03*
G01X9258300Y-6553200D03*
G01X10210800Y-9156700D03*
G01X12395200Y-9156700D03*
G01X1206500Y-8877300D03*
G01X5994400Y-9715500D03*
G01X7645400Y-9486900D03*
G01X7569200Y-8318500D03*
G01X8382000Y-7607300D03*
G01X10566400Y-7988300D03*
G01X9842500Y-9690100D03*
G01X7302500Y-9690100D03*
G01X5651500Y-9144000D03*
G01X3911600Y-9461500D03*
G01X8674100Y-10350500D03*
G01X6731000Y-10248900D03*
G01X9359900Y-10274300D03*
G01X6667500Y-9969500D03*
G01X8420100Y-10198100D03*
G01X7569200Y-10045700D03*
G01X9639300Y-11137900D03*
G01X7480300Y-8458200D03*
G01X9906000Y-10337800D03*
G01X11341100Y-8775700D03*
G01X12242800Y-9626600D03*
G01X12484100Y-5956300D03*
G01X9093200Y-10337800D03*
G04 Via End*

G04 Track Start*
G54D34*
G01X8890000Y-11785600D02*
G01X10033000Y-10642600D01*
G01X10439400Y-10642600D01*
G01X11252200Y-9829800D01*
G01X11252200Y-9601200D01*
G01X11264900Y-8788400D02*
G01X11214100Y-8737600D01*
G01X11214100Y-8293100D01*
G01X11366500Y-8140700D01*
G01X11264900Y-8788400D02*
G01X11264900Y-8940800D01*
G01X11366500Y-9042400D01*
G01X12890500Y-9042400D01*
G01X12992100Y-8940800D01*
G01X12992100Y-8712200D01*
G01X12915900Y-8636000D01*
G01X12915900Y-8610600D01*
G01X12966700Y-8559800D01*
G01X13144500Y-8559800D01*
G01X13627100Y-9042400D01*
G01X13677900Y-9042400D01*
G01X15227300Y-10591800D01*
G01X15227300Y-10984300D01*
G01X6324600Y-10807700D02*
G01X6324600Y-10274300D01*
G01X6324600Y-10274300D02*
G01X6324600Y-10223500D01*
G01X6654800Y-9893300D01*
G01X6680200Y-9893300D01*
G01X7645400Y-8089900D02*
G01X7645400Y-7937500D01*
G01X7810500Y-7772400D01*
G01X7366000Y-8369300D02*
G01X7162800Y-8166100D01*
G01X7035800Y-8166100D01*
G01X6934200Y-8064500D01*
G01X6934200Y-7277100D01*
G01X7569200Y-6642100D01*
G01X7874000Y-5016500D02*
G01X8661400Y-5016500D01*
G01X3987800Y-7289800D02*
G01X3568700Y-7708900D01*
G01X12534900Y-2082800D02*
G01X15646400Y-2082800D01*
G01X15722600Y-2006600D01*
G01X16078200Y-1651000D01*
G01X17322800Y-1651000D01*
G01X17348200Y-1625600D01*
G01X17411700Y-1625600D01*
G01X17919700Y-1117600D01*
G01X9398000Y-7061200D02*
G01X9398000Y-6781800D01*
G01X9245600Y-6629400D01*
G01X12547600Y-1964100D02*
G01X12598400Y-1913300D01*
G01X12598400Y-1760900D01*
G01X13766800Y-1879600D02*
G01X13716000Y-1828800D01*
G01X13716000Y-1811700D01*
G01X13766800Y-1760900D01*
G01X10236200Y-1786300D02*
G01X10146397Y-1876103D01*
G01X10146397Y-3425503D01*
G01X8788400Y-4783500D01*
G01X8509000Y-6637700D02*
G01X8509000Y-6764700D01*
G01X8991600Y-7247300D01*
G01X8902700Y-7302500D02*
G01X8445500Y-6845300D01*
G01X8445500Y-6692900D01*
G01X9004300Y-1892300D02*
G01X9055100Y-1841500D01*
G01X9055100Y-1824400D01*
G01X9004300Y-1773600D01*
G01X8229600Y-2794000D02*
G01X8229600Y-2247900D01*
G01X7810500Y-1828800D01*
G01X7810500Y-1773600D01*
G01X8890000Y-11023600D02*
G01X10287000Y-9626600D01*
G01X10287000Y-8940800D01*
G01X10337800Y-8890000D01*
G01X11455400Y-6985000D02*
G01X11404600Y-6934200D01*
G01X11404600Y-1837100D01*
G01X11455400Y-1786300D01*
G01X609600Y-9156700D02*
G01X177800Y-8724900D01*
G01X177800Y-7281900D01*
G01X254000Y-7205700D01*
G01X609600Y-9410700D02*
G01X127000Y-8928100D01*
G01X127000Y-7205700D01*
G01X203200Y-7129500D01*
G01X304800Y-7129500D01*
G01X354000Y-7178700D01*
G01X354000Y-7205700D01*
G01X609600Y-8902700D02*
G01X431800Y-8724900D01*
G01X431800Y-7383500D01*
G01X354000Y-7305700D01*
G01X1371600Y-9156700D02*
G01X1219200Y-9004300D01*
G01X558800Y-9004300D01*
G01X354000Y-8799500D01*
G01X354000Y-7505700D01*
G01X3568700Y-8470900D02*
G01X3670300Y-8369300D01*
G01X3670300Y-8166100D01*
G01X3568700Y-8064500D01*
G01X3517900Y-8064500D01*
G01X3009900Y-7556500D01*
G01X3009900Y-7277100D01*
G01X2836900Y-7104100D01*
G01X2768600Y-7104100D01*
G01X2692400Y-7180300D01*
G01X3568700Y-8216900D02*
G01X2959100Y-7607300D01*
G01X2959100Y-7347000D01*
G01X2792400Y-7180300D01*
G01X2730500Y-8064500D02*
G01X2603500Y-7937500D01*
G01X2603500Y-7469200D01*
G01X2692400Y-7380300D01*
G01X2806700Y-8724900D02*
G01X2908300Y-8623300D01*
G01X2908300Y-7496200D01*
G01X2792400Y-7380300D01*
G01X2806700Y-7962900D02*
G01X2692400Y-7848600D01*
G01X2692400Y-7480300D01*
G01X7239000Y-7073900D02*
G01X7310400Y-7002500D01*
G01X7721600Y-7002500D01*
G01X7772400Y-7053300D01*
G01X7772400Y-7100900D01*
G01X7694600Y-7178700D01*
G01X5842000Y-6489700D02*
G01X5994400Y-6642100D01*
G01X7366000Y-6642100D01*
G01X9588500Y-5791200D02*
G01X10223500Y-6426200D01*
G01X10223500Y-7053300D01*
G01X9588500Y-5537200D02*
G01X10323500Y-6272200D01*
G01X10323500Y-7053300D01*
G01X9588500Y-5283200D02*
G01X9486900Y-5384800D01*
G01X9486900Y-6350000D01*
G01X9588500Y-6451600D01*
G01X9639300Y-6451600D01*
G01X10147300Y-6959600D01*
G01X10147300Y-7112000D01*
G01X10188600Y-7153300D01*
G01X10223500Y-7153300D01*
G01X8826500Y-5029200D02*
G01X9436100Y-5638800D01*
G01X9436100Y-6542100D01*
G01X9599600Y-6705600D01*
G01X9675800Y-6705600D01*
G01X10223500Y-7253300D01*
G01X8826500Y-6045200D02*
G01X8851900Y-6045200D01*
G01X9486900Y-6680200D01*
G01X9486900Y-6858000D01*
G01X10060000Y-7431100D01*
G01X10348900Y-7431100D01*
G01X10399700Y-7380300D01*
G01X10399700Y-7329500D01*
G01X10323500Y-7253300D01*
G01X8826500Y-5791200D02*
G01X9283700Y-5791200D01*
G01X9359900Y-5715000D01*
G01X12623800Y-7505700D02*
G01X12573000Y-7454900D01*
G01X12573000Y-7218400D01*
G01X12700000Y-7091400D01*
G01X12865100Y-8750300D02*
G01X12865100Y-8543900D01*
G01X12952400Y-8456600D01*
G01X12890500Y-10426700D02*
G01X12700000Y-10236200D01*
G01X12700000Y-10083800D01*
G01X12825400Y-7697800D02*
G01X13079400Y-7443800D01*
G01X13079400Y-7342200D01*
G01X12928600Y-7191400D01*
G01X12800000Y-7191400D01*
G01X13652500Y-10680700D02*
G01X13754100Y-10579100D01*
G01X13754100Y-9359900D01*
G01X13652500Y-9258300D01*
G01X13601700Y-9258300D01*
G01X12992100Y-8648700D01*
G01X12992100Y-8623300D01*
G01X13017500Y-8318500D02*
G01X12865100Y-8318500D01*
G01X12585700Y-8039100D01*
G01X12585700Y-7658100D02*
G01X12687300Y-7556500D01*
G01X12687300Y-7480300D01*
G01X12623800Y-7416800D01*
G01X12623800Y-7367600D01*
G01X12700000Y-7291400D01*
G01X13017500Y-7381900D02*
G01X12890500Y-7381900D01*
G01X12800000Y-7291400D01*
G01X13652500Y-10426700D02*
G01X13550900Y-10528300D01*
G01X12839700Y-10528300D01*
G01X12623800Y-10312400D01*
G01X12623800Y-10007600D01*
G01X12573000Y-8483600D02*
G01X12446000Y-8356600D01*
G01X12446000Y-8178800D01*
G01X12522200Y-8102600D01*
G01X12522200Y-7797800D02*
G01X12547600Y-7797800D01*
G01X12776200Y-7569200D01*
G01X12776200Y-7467600D01*
G01X12700000Y-7391400D01*
G01X8013700Y-7721600D02*
G01X8242300Y-7493000D01*
G01X11849100Y-7493000D01*
G01X12428500Y-6913600D01*
G01X14587500Y-6913600D01*
G01X14790700Y-7116800D01*
G01X15151100Y-7116800D01*
G01X7810500Y-8280400D02*
G01X8420100Y-7670800D01*
G01X9918700Y-7670800D01*
G01X10223500Y-7874000D02*
G01X10276105Y-7926605D01*
G01X14311095Y-7926605D01*
G01X14744700Y-7493000D01*
G01X7810500Y-8026400D02*
G01X8293100Y-7543800D01*
G01X11918371Y-7543800D01*
G01X12473971Y-6988200D01*
G01X12811100Y-6988200D01*
G01X13039700Y-7216800D01*
G01X15151100Y-7216800D01*
G01X7810500Y-8788400D02*
G01X8267700Y-8331200D01*
G01X10325100Y-8331200D01*
G01X10960100Y-7823200D02*
G01X12052300Y-7823200D01*
G01X7048500Y-7772400D02*
G01X7531100Y-7772400D01*
G01X7935900Y-7367600D01*
G01X9790100Y-7367600D01*
G01X9840900Y-7316800D01*
G01X11212500Y-7062800D02*
G01X12203100Y-7062800D01*
G01X12406300Y-6859600D01*
G01X14692300Y-6859600D01*
G01X14743100Y-6910400D01*
G01X7048500Y-8788400D02*
G01X7454900Y-8382000D01*
G01X7861300Y-8382000D01*
G01X8496300Y-7747000D01*
G01X9969500Y-7747000D01*
G01X10121900Y-7594600D01*
G01X11950700Y-7594600D01*
G01X12253900Y-7291400D01*
G01X14768500Y-6834200D02*
G01X15073300Y-6834200D01*
G01X15327300Y-7088200D01*
G01X15327300Y-7240600D01*
G01X15251100Y-7316800D01*
G01X7048500Y-8026400D02*
G01X7353300Y-8026400D01*
G01X7962900Y-7416800D01*
G01X9944100Y-7416800D01*
G01X11112500Y-7670800D02*
G01X12280900Y-7670800D01*
G01X12485905Y-7875805D01*
G01X14260295Y-7875805D01*
G01X14719300Y-7416800D01*
G01X15151100Y-7416800D01*
G01X7048500Y-8534400D02*
G01X6946900Y-8636000D01*
G01X6946900Y-8839200D01*
G01X6997700Y-8890000D01*
G01X7861300Y-8890000D01*
G01X8343900Y-8407400D01*
G01X11010900Y-8407400D01*
G01X11188700Y-8229600D01*
G01X12509500Y-8331200D02*
G01X12560300Y-8382000D01*
G01X14285900Y-8382000D01*
G01X15251100Y-7416800D01*
G01X10236200Y-727100D02*
G01X11201400Y-727100D01*
G01X11252200Y-676300D01*
G01X11328400Y-676300D01*
G01X11379200Y-625500D01*
G01X11404600Y-625500D01*
G01X11455400Y-676300D01*
G01X11328400Y-676300D02*
G01X11328400Y-930300D01*
G01X11455400Y-1057300D01*
G01X11455400Y-1158900D02*
G01X12293600Y-1158900D01*
G01X12319000Y-1184300D01*
G01X12446000Y-1184300D01*
G01X12496800Y-1235100D01*
G01X12547600Y-1235100D01*
G01X12573000Y-1209700D01*
G01X12598400Y-1190900D01*
G01X12446000Y-1184300D02*
G01X12446000Y-930300D01*
G01X12598400Y-777900D01*
G01X12598400Y-701700D02*
G01X13563600Y-701700D01*
G01X13614400Y-650900D01*
G01X13639800Y-650900D01*
G01X13690600Y-600100D01*
G01X13716000Y-600100D01*
G01X13766800Y-650900D01*
G01X13639800Y-650900D02*
G01X13766800Y-777900D01*
G01X10236200Y-727100D02*
G01X9271000Y-727100D01*
G01X9220200Y-676300D01*
G01X9144000Y-676300D01*
G01X9080500Y-612800D01*
G01X9055100Y-612800D01*
G01X9004300Y-663600D01*
G01X9144000Y-676300D02*
G01X9017000Y-803300D01*
G01X9017000Y-1158900D01*
G01X9004300Y-1171600D01*
G01X9004300Y-1203600D01*
G01X9017000Y-803300D02*
G01X8128000Y-803300D01*
G01X8001000Y-676300D01*
G01X7950200Y-676300D01*
G01X7886700Y-612800D01*
G01X7861300Y-612800D01*
G01X7810500Y-663600D01*
G01X7950200Y-676300D02*
G01X7950200Y-930300D01*
G01X7823200Y-1057300D01*
G01X7823200Y-1184300D02*
G01X7810500Y-1203600D01*
G01X7823200Y-1158900D02*
G01X7721600Y-1158900D01*
G01X7289800Y-1590700D01*
G01X7289800Y-2438400D01*
G01X12496800Y-1235100D02*
G01X12403200Y-1328700D01*
G01X12403200Y-2649500D01*
G01X12428600Y-2674900D01*
G01X13766800Y-879500D02*
G01X16046400Y-879500D01*
G01X16052800Y-885900D01*
G01X12428600Y-2776500D02*
G01X12530200Y-2674900D01*
G01X14566800Y-2674900D01*
G01X16700500Y-4808600D01*
G01X9017000Y-1158900D02*
G01X8915400Y-1158900D01*
G01X8724900Y-1349400D01*
G01X8724900Y-6197600D01*
G01X8826500Y-6299200D01*
G01X8826500Y-6400800D01*
G01X8928100Y-6502400D01*
G01X8928100Y-6858000D02*
G01X9309100Y-7239000D01*
G01X9436100Y-7239000D01*
G01X9753600Y-8902700D02*
G01X9829800Y-8826500D01*
G01X10642600Y-8826500D01*
G01X11366500Y-9550400D01*
G01X11391900Y-9550400D01*
G01X11468100Y-9626600D01*
G01X11468100Y-9817100D01*
G01X11366500Y-9918700D01*
G01X11468100Y-9626600D02*
G01X11823700Y-9626600D01*
G01X11874500Y-9677400D01*
G01X8839200Y-9385300D02*
G01X7841805Y-9385300D01*
G01X7676705Y-9550400D01*
G01X7048500Y-9550400D01*
G01X6972300Y-9474200D01*
G01X6337300Y-9474200D01*
G01X5588000Y-10223500D01*
G01X5486400Y-10223500D01*
G01X5130800Y-9867900D01*
G01X7289800Y-1590700D02*
G01X6883400Y-1184300D01*
G01X1602100Y-1184300D01*
G01X1447800Y-1338600D01*
G01X5588000Y-11493500D02*
G01X5689600Y-11391900D01*
G01X8940800Y-11391900D01*
G01X10071100Y-10261600D01*
G01X10414000Y-10261600D01*
G01X7289800Y-10452100D02*
G01X7467600Y-10629900D01*
G01X9194800Y-10629900D01*
G01X9817100Y-10007600D01*
G01X5588000Y-10477500D02*
G01X6311900Y-9753600D01*
G01X8724900Y-9753600D01*
G01X8851900Y-9880600D01*
G01X8928100Y-9880600D01*
G01X9055100Y-9753600D01*
G01X10071100Y-9753600D01*
G01X4826000Y-10223500D02*
G01X5181600Y-10579100D01*
G01X5638800Y-10579100D01*
G01X6400800Y-9817100D01*
G01X8534400Y-9817100D01*
G01X8839200Y-10121900D01*
G01X8940800Y-10121900D01*
G01X9245600Y-9817100D01*
G01X9931400Y-9817100D01*
G01X4826000Y-10731500D02*
G01X4978400Y-10883900D01*
G01X6350000Y-10883900D01*
G01X6451600Y-10782300D01*
G01X8496300Y-10782300D01*
G01X8851900Y-11137900D01*
G01X8928100Y-11137900D01*
G01X10299700Y-9766300D01*
G01X10299700Y-9715500D01*
G01X10401300Y-9613900D01*
G01X10452100Y-9613900D01*
G01X10528300Y-9537700D01*
G01X10528300Y-9359900D01*
G01X10414000Y-9245600D01*
G01X4826000Y-11493500D02*
G01X4978400Y-11645900D01*
G01X8928100Y-11645900D01*
G01X10198100Y-10375900D01*
G01X10452100Y-10375900D01*
G01X10579100Y-10248900D01*
G01X10579100Y-9156700D01*
G01X10414000Y-8991600D01*
G01X8661400Y-11201400D02*
G01X8305800Y-10845800D01*
G01X7797800Y-9931400D02*
G01X7899400Y-9931400D01*
G01X7950200Y-9880600D01*
G01X15849600Y-1981200D02*
G01X15951200Y-1879600D01*
G01X17348200Y-1879600D01*
G01X7696200Y-9880600D02*
G01X6858000Y-9880600D01*
G01X6756400Y-9982200D01*
G01X5588000Y-11239500D02*
G01X5892800Y-10934700D01*
G01X7239000Y-10934700D01*
G01X7315200Y-10858500D01*
G01X7467600Y-10274300D02*
G01X7467600Y-10248900D01*
G01X7543800Y-10172700D01*
G01X8001000Y-10172700D01*
G01X8102600Y-10274300D01*
G01X3683000Y-9334500D02*
G01X3683000Y-9093200D01*
G01X3568700Y-8978900D01*
G01X3416300Y-8826500D01*
G01X2755900Y-8826500D01*
G01X2476500Y-8547100D01*
G01X711200Y-8547100D01*
G01X609600Y-8648700D01*
G01X4648200Y-10299700D02*
G01X4648200Y-10248900D01*
G01X5842000Y-9055100D01*
G01X6629400Y-9055100D02*
G01X6642100Y-9042400D01*
G01X6946900Y-9093200D02*
G01X6997700Y-9144000D01*
G01X7708900Y-9144000D01*
G01X7810500Y-9042400D01*
G01X6604000Y-9055100D02*
G01X6502400Y-8953500D01*
G01X6502400Y-6845300D01*
G01X6604000Y-6743700D01*
G01X7810500Y-9042400D02*
G01X8369300Y-8483600D01*
G01X8394700Y-8483600D01*
G01X9156700Y-6985000D02*
G01X9334500Y-6807200D01*
G01X8394700Y-8483600D02*
G01X10528300Y-8483600D01*
G01X11341100Y-9296400D01*
G01X12776200Y-9296400D01*
G01X12890500Y-9410700D01*
G01X4826000Y-10985500D02*
G01X3683000Y-9842500D01*
G01X3683000Y-9461500D01*
G01X3568700Y-9347200D01*
G01X3568700Y-9232900D01*
G01X3213100Y-8877300D01*
G01X2730500Y-8877300D01*
G01X2654300Y-8801100D01*
G01X622300Y-8801100D01*
G01X508000Y-8686800D01*
G01X508000Y-8496300D01*
G01X609600Y-8394700D01*
G01X5969000Y-9639300D02*
G01X6299200Y-9309100D01*
G01X6883400Y-9309100D02*
G01X6997700Y-9194800D01*
G01X7708900Y-9194800D01*
G01X7810500Y-9296400D01*
G01X6629400Y-9309100D02*
G01X6705600Y-9232900D01*
G01X6705600Y-7099300D02*
G01X6604000Y-6997700D01*
G01X6705600Y-7200900D02*
G01X6908800Y-7200900D01*
G01X7543800Y-6565900D01*
G01X8686800Y-6565900D01*
G01X8788400Y-6667500D01*
G01X9118600Y-6667500D01*
G01X9220200Y-6565900D01*
G01X9245600Y-6565900D01*
G01X9258300Y-6553200D01*
G01X7810500Y-9296400D02*
G01X7975600Y-9131300D01*
G01X10185400Y-9131300D01*
G01X10210800Y-9156700D01*
G01X12395200Y-9156700D02*
G01X12890500Y-9156700D01*
G01X4826000Y-11747500D02*
G01X3568700Y-10490200D01*
G01X3568700Y-9486900D01*
G01X3162300Y-9080500D01*
G01X2755900Y-9080500D01*
G01X2679700Y-9004300D01*
G01X1333500Y-9004300D01*
G01X1206500Y-8877300D01*
G01X5994400Y-9715500D02*
G01X6299200Y-9410700D01*
G01X7442200Y-9410700D01*
G01X7518400Y-9486900D01*
G01X7645400Y-9486900D01*
G01X7569200Y-8318500D02*
G01X7747000Y-8140700D01*
G01X7848600Y-8140700D01*
G01X8382000Y-7607300D01*
G01X10566400Y-7988300D02*
G01X11836400Y-7988300D01*
G01X12090400Y-8242300D01*
G01X12230100Y-8242300D01*
G01X12890500Y-8902700D01*
G01X9842500Y-9690100D02*
G01X9791700Y-9639300D01*
G01X8851900Y-9639300D01*
G01X8801100Y-9690100D01*
G01X7302500Y-9690100D01*
G01X5651500Y-9144000D02*
G01X4229100Y-9144000D01*
G01X3911600Y-9461500D01*
G01X8674100Y-10350500D02*
G01X8648700Y-10375900D01*
G01X6934200Y-10375900D01*
G01X6832600Y-10274300D01*
G01X6756400Y-10274300D01*
G01X6731000Y-10248900D01*
G01X9359900Y-10274300D02*
G01X9055100Y-10274300D01*
G01X8928100Y-10401300D01*
G01X8851900Y-10401300D01*
G01X8724900Y-10274300D01*
G01X8242300Y-10274300D01*
G01X8089900Y-10121900D01*
G01X6794500Y-10121900D01*
G01X6743700Y-10172700D01*
G01X6680200Y-10172700D02*
G01X6578600Y-10274300D01*
G01X6718300Y-10172700D02*
G01X6667500Y-10121900D01*
G01X6667500Y-9969500D01*
G01X8420100Y-10198100D02*
G01X8267700Y-10045700D01*
G01X7569200Y-10045700D01*
G01X12128500Y-9410700D02*
G01X12788900Y-10071100D01*
G01X13550900Y-10071100D01*
G01X13652500Y-10172700D01*
G01X12128500Y-9410700D02*
G01X12128500Y-9512300D01*
G01X10731500Y-10909300D01*
G01X9867900Y-10909300D01*
G01X9639300Y-11137900D01*
G01X12128500Y-8648700D02*
G01X12230100Y-8547100D01*
G01X12230100Y-8343900D01*
G01X12179300Y-8293100D01*
G01X11696700Y-8293100D01*
G01X11442700Y-8039100D01*
G01X11010900Y-8039100D01*
G01X10782300Y-8267700D01*
G01X8051800Y-8267700D01*
G01X7886700Y-8432800D01*
G01X7505700Y-8432800D01*
G01X7480300Y-8458200D01*
G01X8890000Y-11277600D02*
G01X8966200Y-11277600D01*
G01X9906000Y-10337800D01*
G01X11341100Y-8775700D02*
G01X11264900Y-8699500D01*
G01X11264900Y-8496300D01*
G01X11366500Y-8394700D01*
G01X12128500Y-8394700D01*
G01X12928600Y-2794000D02*
G01X12928600Y-3530600D01*
G01X12623800Y-3835400D01*
G01X12623800Y-3924300D02*
G01X12484100Y-4064000D01*
G01X12623800Y-3860800D02*
G01X15252700Y-3860800D01*
G01X16700500Y-5308600D01*
G01X18249900Y-3759200D01*
G01X18249900Y-3225800D01*
G01X6007100Y-1905000D02*
G01X6019800Y-1892300D01*
G01X6007100Y-2933700D02*
G01X6108700Y-2832100D01*
G01X7937500Y-2832100D01*
G01X8051800Y-2946400D01*
G01X5257800Y-1892300D02*
G01X4880400Y-1892300D01*
G01X4564000Y-1575900D01*
G01X5257800Y-1892300D02*
G01X5384800Y-1765300D01*
G01X6096000Y-1765300D01*
G01X6908800Y-2578100D01*
G01X7937500Y-2578100D01*
G01X8051800Y-2692400D01*
G01X21020800Y-266700D02*
G01X20370800Y-266700D01*
G01X20193000Y-266700D01*
G01X18249900Y-2209800D01*
G01X947800Y-1588600D02*
G01X947800Y-3192400D01*
G01X850900Y-3289300D01*
G01X6007100Y-3238500D02*
G01X5226600Y-3238500D01*
G01X3564000Y-1575900D01*
G01X21020800Y-716700D02*
G01X20370800Y-716700D01*
G01X18737300Y-2350200D01*
G01X18178500Y-2350200D01*
G01X17919700Y-2091400D01*
G01X17919700Y-1867600D01*
G01X8890000Y-12293600D02*
G01X10033000Y-11150600D01*
G01X10566400Y-11150600D01*
G01X11938000Y-9779000D01*
G01X12166600Y-9779000D01*
G01X12242800Y-9702800D01*
G01X12242800Y-9626600D01*
G01X12484100Y-5956300D02*
G01X12331700Y-5803900D01*
G01X12331700Y-3962400D01*
G01X12484100Y-3810000D01*
G01X8890000Y-10515600D02*
G01X8915400Y-10515600D01*
G01X9093200Y-10337800D01*
G01X7315200Y-8420100D02*
G01X7366000Y-8369300D01*
G01X7645400Y-8089900D01*
G01X10236200Y-676300D02*
G01X10236200Y-727100D01*
G01X10236200Y-1216300D01*
G01X11455400Y-1057300D02*
G01X11455400Y-1158900D01*
G01X11455400Y-1216300D01*
G01X12598400Y-777900D02*
G01X12598400Y-701700D01*
G01X12598400Y-650900D01*
G01X13766800Y-777900D02*
G01X13766800Y-879500D01*
G01X13766800Y-1190900D01*
G01X7823200Y-1057300D02*
G01X7823200Y-1158900D01*
G01X7823200Y-1184300D01*
G01X12428600Y-2674900D02*
G01X12428600Y-2776500D01*
G01X12428600Y-2794000D01*
G01X4826000Y-10477500D02*
G01X4648200Y-10299700D01*
G01X3683000Y-9334500D01*
G01X5842000Y-9055100D02*
G01X6604000Y-9055100D01*
G01X6629400Y-9055100D01*
G01X6299200Y-9309100D02*
G01X6629400Y-9309100D01*
G01X6883400Y-9309100D01*
G01X6705600Y-9232900D02*
G01X6705600Y-7200900D01*
G01X6705600Y-7099300D01*
G01X6743700Y-10172700D02*
G01X6718300Y-10172700D01*
G01X6680200Y-10172700D01*
G01X12623800Y-3835400D02*
G01X12623800Y-3860800D01*
G01X12623800Y-3924300D01*
G01X6007100Y-2984500D02*
G01X6007100Y-2933700D01*
G01X6007100Y-1905000D01*
G04 Track End*

M02*

