G04 Layer: TopLayer*
G04 EasyEDA Pro v2.2.35.2, 2025-01-25 12:46:23*
G04 Gerber Generator version 0.3*
G04 Scale: 100 percent, Rotated: No, Reflected: No*
G04 Dimensions in millimeters*
G04 Leading zeros omitted, absolute positions, 4 integers and 5 decimals*
%FSLAX45Y45*%
%MOMM*%
%ADD10C,2.0*%
%ADD11C,1.2*%
%ADD12O,3.008X1.708*%
%ADD13R,1.2954X1.2954*%
%ADD14C,1.2954*%
%ADD15C,1.6*%
%ADD16C,1.4*%
%ADD17R,2.2021X2.2*%
%ADD18R,2.2X2.2*%
%ADD19C,2.2*%
%ADD20R,1.6X1.6*%
%ADD21R,2.6X2.6*%
%ADD22C,2.6*%
%ADD23C,1.53*%
%ADD24R,1.2954X1.2954*%
%ADD25R,2.1X2.1*%
%ADD26C,2.1*%
%ADD27R,1.2954X1.2954*%
%ADD28R,1.6X1.6*%
%ADD29R,2.0X1.905*%
%ADD30O,2.0X1.905*%
%ADD31R,0.85X0.85*%
%ADD32C,0.85*%
%ADD33R,0.85X0.85*%
%ADD34C,0.61*%
%ADD35C,0.254*%
G75*


G04 PolygonModel Start*
G36*
G01X13081000Y-13373100D02*
G01X16992600Y-9918700D01*
G01X15436137Y-6299200D01*
G01X21209000Y-3721100D01*
G01X21107400Y-13563600D01*
G01X2476500Y-13563600D01*
G01X609600Y-11696700D01*
G01X2032000Y-11696700D01*
G01X2362200Y-12026900D01*
G01X4305300Y-12026900D01*
G01X4724400Y-12446000D01*
G01X6464300Y-12446000D01*
G01X6502400Y-12407900D01*
G01X7073900Y-12407900D01*
G01X7416800Y-12750800D01*
G01X11049000Y-12750800D01*
G01X12687300Y-11112500D01*
G01X13081000Y-11506200D01*
G01X13081000Y-13373100D01*
G37*

G04 Pad Start*
G54D10*
G01X21020800Y-266700D03*
G01X20370800Y-266700D03*
G01X21020800Y-716700D03*
G01X20370800Y-716700D03*
G54D11*
G01X10301200Y-1216300D03*
G01X10171200Y-676300D03*
G01X10301200Y-1786300D03*
G01X10301200Y-676300D03*
G01X10171200Y-1216300D03*
G01X10171200Y-1786300D03*
G54D12*
G01X10236200Y-676300D03*
G01X10236200Y-1216300D03*
G01X10236200Y-1786300D03*
G54D13*
G01X5588000Y-12001500D03*
G54D14*
G01X5588000Y-11747500D03*
G01X5588000Y-11493500D03*
G01X5588000Y-11239500D03*
G01X5588000Y-10985500D03*
G01X5588000Y-10731500D03*
G01X5588000Y-10477500D03*
G01X5588000Y-10223500D03*
G01X4826000Y-10223500D03*
G01X4826000Y-10477500D03*
G01X4826000Y-10731500D03*
G01X4826000Y-10985500D03*
G01X4826000Y-11239500D03*
G01X4826000Y-11493500D03*
G01X4826000Y-11747500D03*
G01X4826000Y-12001500D03*
G54D10*
G01X17919700Y-1117600D03*
G01X17919700Y-1867600D03*
G54D15*
G01X12928600Y-2794000D03*
G01X12428600Y-2794000D03*
G01X16700500Y-5308600D03*
G01X16700500Y-4808600D03*
G54D16*
G01X6007100Y-3238500D03*
G01X6007100Y-2984500D03*
G54D18*
G01X18249900Y-3225800D03*
G54D19*
G01X18249900Y-2209800D03*
G54D20*
G01X6019800Y-1892300D03*
G54D15*
G01X5257800Y-1892300D03*
G54D21*
G01X16052800Y-1485900D03*
G54D22*
G01X16052800Y-885900D03*
G01X15582800Y-1185900D03*
G54D23*
G01X10414000Y-12039600D03*
G01X10414000Y-11785600D03*
G01X10414000Y-11531600D03*
G01X10414000Y-11277600D03*
G01X9906000Y-8991600D03*
G01X8890000Y-11785600D03*
G01X10414000Y-11023600D03*
G01X10414000Y-10769600D03*
G01X10414000Y-10515600D03*
G01X10414000Y-10261600D03*
G01X10414000Y-10007600D03*
G01X10414000Y-9753600D03*
G01X10414000Y-9499600D03*
G01X10414000Y-9245600D03*
G01X10414000Y-8991600D03*
G01X8890000Y-8991600D03*
G01X8890000Y-9245600D03*
G01X8890000Y-9499600D03*
G01X8890000Y-9753600D03*
G01X8890000Y-10007600D03*
G01X8890000Y-10261600D03*
G01X8890000Y-10515600D03*
G01X8890000Y-10769600D03*
G01X8890000Y-11023600D03*
G01X8890000Y-11277600D03*
G01X8890000Y-11531600D03*
G01X10414000Y-12293600D03*
G01X9652000Y-8991600D03*
G01X8890000Y-12039600D03*
G01X9144000Y-8991600D03*
G01X9398000Y-8991600D03*
G01X10160000Y-8991600D03*
G01X8890000Y-12293600D03*
G54D24*
G01X11366500Y-8140700D03*
G54D14*
G01X11366500Y-8394700D03*
G01X11366500Y-8648700D03*
G01X11366500Y-8902700D03*
G01X11366500Y-9156700D03*
G01X11366500Y-9410700D03*
G01X11366500Y-9664700D03*
G01X11366500Y-9918700D03*
G01X12128500Y-9918700D03*
G01X12128500Y-9664700D03*
G01X12128500Y-9410700D03*
G01X12128500Y-9156700D03*
G01X12128500Y-8902700D03*
G01X12128500Y-8648700D03*
G01X12128500Y-8394700D03*
G01X12128500Y-8140700D03*
G54D25*
G01X3314000Y-1325900D03*
G54D26*
G01X4064000Y-1325900D03*
G01X4814000Y-1325900D03*
G01X3564000Y-1575900D03*
G01X4564000Y-1575900D03*
G01X4564000Y-375900D03*
G01X3564000Y-375900D03*
G54D24*
G01X5842000Y-5473700D03*
G54D14*
G01X5842000Y-5727700D03*
G01X5842000Y-5981700D03*
G01X5842000Y-6235700D03*
G01X5842000Y-6489700D03*
G01X5842000Y-6743700D03*
G01X5842000Y-6997700D03*
G01X5842000Y-7251700D03*
G01X6604000Y-7251700D03*
G01X6604000Y-6997700D03*
G01X6604000Y-6743700D03*
G01X6604000Y-6489700D03*
G01X6604000Y-6235700D03*
G01X6604000Y-5981700D03*
G01X6604000Y-5727700D03*
G01X6604000Y-5473700D03*
G54D27*
G01X6324600Y-11036300D03*
G54D14*
G01X6578600Y-11036300D03*
G01X6832600Y-11036300D03*
G01X7086600Y-11036300D03*
G01X7340600Y-11036300D03*
G01X7594600Y-11036300D03*
G01X7848600Y-11036300D03*
G01X8102600Y-11036300D03*
G01X8102600Y-10274300D03*
G01X7848600Y-10274300D03*
G01X7594600Y-10274300D03*
G01X7340600Y-10274300D03*
G01X7086600Y-10274300D03*
G01X6832600Y-10274300D03*
G01X6578600Y-10274300D03*
G01X6324600Y-10274300D03*
G54D11*
G01X12663400Y-1190900D03*
G01X12533400Y-650900D03*
G01X12663400Y-1760900D03*
G01X12663400Y-650900D03*
G01X12533400Y-1190900D03*
G01X12533400Y-1760900D03*
G54D12*
G01X12598400Y-650900D03*
G01X12598400Y-1190900D03*
G01X12598400Y-1760900D03*
G54D24*
G01X2806700Y-7708900D03*
G54D14*
G01X2806700Y-7962900D03*
G01X2806700Y-8216900D03*
G01X2806700Y-8470900D03*
G01X2806700Y-8724900D03*
G01X2806700Y-8978900D03*
G01X2806700Y-9232900D03*
G01X2806700Y-9486900D03*
G01X3568700Y-9486900D03*
G01X3568700Y-9232900D03*
G01X3568700Y-8978900D03*
G01X3568700Y-8724900D03*
G01X3568700Y-8470900D03*
G01X3568700Y-8216900D03*
G01X3568700Y-7962900D03*
G01X3568700Y-7708900D03*
G54D11*
G01X13831800Y-1190900D03*
G01X13701800Y-650900D03*
G01X13831800Y-1760900D03*
G01X13831800Y-650900D03*
G01X13701800Y-1190900D03*
G01X13701800Y-1760900D03*
G54D12*
G01X13766800Y-650900D03*
G01X13766800Y-1190900D03*
G01X13766800Y-1760900D03*
G54D16*
G01X17348200Y-1625600D03*
G01X17348200Y-1879600D03*
G54D24*
G01X7048500Y-7772400D03*
G54D14*
G01X7048500Y-8026400D03*
G01X7048500Y-8280400D03*
G01X7048500Y-8534400D03*
G01X7048500Y-8788400D03*
G01X7048500Y-9042400D03*
G01X7048500Y-9296400D03*
G01X7048500Y-9550400D03*
G01X7810500Y-9550400D03*
G01X7810500Y-9296400D03*
G01X7810500Y-9042400D03*
G01X7810500Y-8788400D03*
G01X7810500Y-8534400D03*
G01X7810500Y-8280400D03*
G01X7810500Y-8026400D03*
G01X7810500Y-7772400D03*
G54D28*
G01X8051800Y-3200400D03*
G54D15*
G01X8051800Y-2946400D03*
G01X8051800Y-2692400D03*
G01X8051800Y-2438400D03*
G01X7289800Y-2438400D03*
G01X7289800Y-2692400D03*
G01X7289800Y-2946400D03*
G01X7289800Y-3200400D03*
G54D13*
G01X13652500Y-10680700D03*
G54D14*
G01X13652500Y-10426700D03*
G01X13652500Y-10172700D03*
G01X13652500Y-9918700D03*
G01X13652500Y-9664700D03*
G01X13652500Y-9410700D03*
G01X13652500Y-9156700D03*
G01X13652500Y-8902700D03*
G01X12890500Y-8902700D03*
G01X12890500Y-9156700D03*
G01X12890500Y-9410700D03*
G01X12890500Y-9664700D03*
G01X12890500Y-9918700D03*
G01X12890500Y-10172700D03*
G01X12890500Y-10426700D03*
G01X12890500Y-10680700D03*
G54D13*
G01X1371600Y-9918700D03*
G54D14*
G01X1371600Y-9664700D03*
G01X1371600Y-9410700D03*
G01X1371600Y-9156700D03*
G01X1371600Y-8902700D03*
G01X1371600Y-8648700D03*
G01X1371600Y-8394700D03*
G01X1371600Y-8140700D03*
G01X609600Y-8140700D03*
G01X609600Y-8394700D03*
G01X609600Y-8648700D03*
G01X609600Y-8902700D03*
G01X609600Y-9156700D03*
G01X609600Y-9410700D03*
G01X609600Y-9664700D03*
G01X609600Y-9918700D03*
G54D11*
G01X11520400Y-1216300D03*
G01X11390400Y-676300D03*
G01X11520400Y-1786300D03*
G01X11520400Y-676300D03*
G01X11390400Y-1216300D03*
G01X11390400Y-1786300D03*
G54D12*
G01X11455400Y-676300D03*
G01X11455400Y-1216300D03*
G01X11455400Y-1786300D03*
G54D24*
G01X8826500Y-5029200D03*
G54D14*
G01X8826500Y-5283200D03*
G01X8826500Y-5537200D03*
G01X8826500Y-5791200D03*
G01X8826500Y-6045200D03*
G01X8826500Y-6299200D03*
G01X8826500Y-6553200D03*
G01X8826500Y-6807200D03*
G01X9588500Y-6807200D03*
G01X9588500Y-6553200D03*
G01X9588500Y-6299200D03*
G01X9588500Y-6045200D03*
G01X9588500Y-5791200D03*
G01X9588500Y-5537200D03*
G01X9588500Y-5283200D03*
G01X9588500Y-5029200D03*
G54D25*
G01X697800Y-1338600D03*
G54D26*
G01X1447800Y-1338600D03*
G01X2197800Y-1338600D03*
G01X947800Y-1588600D03*
G01X1947800Y-1588600D03*
G01X1947800Y-388600D03*
G01X947800Y-388600D03*
G54D16*
G01X850900Y-3289300D03*
G01X850900Y-3543300D03*
G54D11*
G01X9069300Y-1203600D03*
G01X8939300Y-663600D03*
G01X9069300Y-1773600D03*
G01X9069300Y-663600D03*
G01X8939300Y-1203600D03*
G01X8939300Y-1773600D03*
G54D12*
G01X9004300Y-663600D03*
G01X9004300Y-1203600D03*
G01X9004300Y-1773600D03*
G54D29*
G01X12484100Y-3556000D03*
G54D30*
G01X12484100Y-3810000D03*
G01X12484100Y-4064000D03*
G54D11*
G01X7875500Y-1203600D03*
G01X7745500Y-663600D03*
G01X7875500Y-1773600D03*
G01X7875500Y-663600D03*
G01X7745500Y-1203600D03*
G01X7745500Y-1773600D03*
G54D12*
G01X7810500Y-663600D03*
G01X7810500Y-1203600D03*
G01X7810500Y-1773600D03*
G54D16*
G01X15722600Y-2006600D03*
G01X15976600Y-2006600D03*
G54D31*
G01X254000Y-7205700D03*
G54D32*
G01X354000Y-7205700D03*
G01X254000Y-7305700D03*
G01X354000Y-7305700D03*
G01X254000Y-7405700D03*
G01X354000Y-7405700D03*
G01X254000Y-7505700D03*
G01X354000Y-7505700D03*
G54D31*
G01X2692400Y-7180300D03*
G54D32*
G01X2792400Y-7180300D03*
G01X2692400Y-7280300D03*
G01X2792400Y-7280300D03*
G01X2692400Y-7380300D03*
G01X2792400Y-7380300D03*
G01X2692400Y-7480300D03*
G01X2792400Y-7480300D03*
G54D31*
G01X7594600Y-7078700D03*
G54D32*
G01X7694600Y-7078700D03*
G01X7594600Y-7178700D03*
G01X7694600Y-7178700D03*
G01X7594600Y-7278700D03*
G01X7694600Y-7278700D03*
G01X7594600Y-7378700D03*
G01X7694600Y-7378700D03*
G54D31*
G01X10223500Y-7053300D03*
G54D32*
G01X10323500Y-7053300D03*
G01X10223500Y-7153300D03*
G01X10323500Y-7153300D03*
G01X10223500Y-7253300D03*
G01X10323500Y-7253300D03*
G01X10223500Y-7353300D03*
G01X10323500Y-7353300D03*
G54D31*
G01X12700000Y-7091400D03*
G54D32*
G01X12800000Y-7091400D03*
G01X12700000Y-7191400D03*
G01X12800000Y-7191400D03*
G01X12700000Y-7291400D03*
G01X12800000Y-7291400D03*
G01X12700000Y-7391400D03*
G01X12800000Y-7391400D03*
G54D31*
G01X15151100Y-7116800D03*
G54D32*
G01X15251100Y-7116800D03*
G01X15151100Y-7216800D03*
G01X15251100Y-7216800D03*
G01X15151100Y-7316800D03*
G01X15251100Y-7316800D03*
G01X15151100Y-7416800D03*
G01X15251100Y-7416800D03*
G54D33*
G01X18022000Y-317000D03*
G54D32*
G01X17922000Y-317000D03*
G01X17822000Y-317000D03*
G54D33*
G01X15228000Y-10985000D03*
G54D32*
G01X15128000Y-10985000D03*
G01X15028000Y-10985000D03*
G04 Pad End*

G04 Via Start*
G54D34*
G01X11252200Y-9601200D03*
G01X11264900Y-8788400D03*
G01X6324600Y-10807700D03*
G01X6680200Y-9893300D03*
G01X7315200Y-8420100D03*
G01X7569200Y-6642100D03*
G01X7874000Y-5016500D03*
G01X8661400Y-5016500D03*
G01X3987800Y-7289800D03*
G01X12534900Y-2082800D03*
G01X9398000Y-7061200D03*
G01X9245600Y-6629400D03*
G01X12547600Y-1964100D03*
G01X13766800Y-1879600D03*
G01X8788400Y-4783500D03*
G01X8509000Y-6637700D03*
G01X8991600Y-7247300D03*
G01X8902700Y-7302500D03*
G01X8445500Y-6692900D03*
G01X9004300Y-1892300D03*
G01X8229600Y-2794000D03*
G01X10337800Y-8890000D03*
G01X11455400Y-6985000D03*
G01X2730500Y-8064500D03*
G01X7239000Y-7073900D03*
G01X7366000Y-6642100D03*
G01X9359900Y-5715000D03*
G01X12623800Y-7505700D03*
G01X12865100Y-8750300D03*
G01X12952400Y-8456600D03*
G01X12700000Y-10083800D03*
G01X12825400Y-7697800D03*
G01X12992100Y-8623300D03*
G01X13017500Y-8318500D03*
G01X12585700Y-8039100D03*
G01X12585700Y-7658100D03*
G01X13017500Y-7381900D03*
G01X12623800Y-10007600D03*
G01X12573000Y-8483600D03*
G01X12522200Y-8102600D03*
G01X12522200Y-7797800D03*
G01X8013700Y-7721600D03*
G01X9918700Y-7670800D03*
G01X10223500Y-7874000D03*
G01X14744700Y-7493000D03*
G01X10325100Y-8331200D03*
G01X10960100Y-7823200D03*
G01X12052300Y-7823200D03*
G01X9840900Y-7316800D03*
G01X11212500Y-7062800D03*
G01X14743100Y-6910400D03*
G01X12253900Y-7291400D03*
G01X14768500Y-6834200D03*
G01X9944100Y-7416800D03*
G01X11112500Y-7670800D03*
G01X11188700Y-8229600D03*
G01X12509500Y-8331200D03*
G01X8928100Y-6502400D03*
G01X8928100Y-6858000D03*
G01X9436100Y-7239000D03*
G01X9753600Y-8902700D03*
G01X11874500Y-9677400D03*
G01X8839200Y-9385300D03*
G01X6972300Y-9474200D03*
G01X5130800Y-9867900D03*
G01X7289800Y-10452100D03*
G01X9817100Y-10007600D03*
G01X10071100Y-9753600D03*
G01X9931400Y-9817100D03*
G01X8661400Y-11201400D03*
G01X8305800Y-10845800D03*
G01X7797800Y-9931400D03*
G01X7950200Y-9880600D03*
G01X15849600Y-1981200D03*
G01X7696200Y-9880600D03*
G01X6756400Y-9982200D03*
G01X7315200Y-10858500D03*
G01X7467600Y-10274300D03*
G01X6642100Y-9042400D03*
G01X6946900Y-9093200D03*
G01X8394700Y-8483600D03*
G01X9156700Y-6985000D03*
G01X9334500Y-6807200D03*
G01X5969000Y-9639300D03*
G01X9258300Y-6553200D03*
G01X10210800Y-9156700D03*
G01X12395200Y-9156700D03*
G01X1206500Y-8877300D03*
G01X5994400Y-9715500D03*
G01X7645400Y-9486900D03*
G01X7569200Y-8318500D03*
G01X8382000Y-7607300D03*
G01X10566400Y-7988300D03*
G01X9842500Y-9690100D03*
G01X7302500Y-9690100D03*
G01X5651500Y-9144000D03*
G01X3911600Y-9461500D03*
G01X8674100Y-10350500D03*
G01X6731000Y-10248900D03*
G01X9359900Y-10274300D03*
G01X6667500Y-9969500D03*
G01X8420100Y-10198100D03*
G01X7569200Y-10045700D03*
G01X9639300Y-11137900D03*
G01X7480300Y-8458200D03*
G01X9906000Y-10337800D03*
G01X11341100Y-8775700D03*
G01X12242800Y-9626600D03*
G01X12484100Y-5956300D03*
G01X9093200Y-10337800D03*
G04 Via End*

G04 Track Start*
G54D35*
G01X11252200Y-9601200D02*
G01X11252200Y-9372600D01*
G01X11353800Y-9271000D01*
G01X11391900Y-9271000D01*
G01X11468100Y-9194800D01*
G01X11468100Y-9118600D01*
G01X11366500Y-9017000D01*
G01X11341100Y-9017000D01*
G01X11264900Y-8940800D01*
G01X11264900Y-8788400D01*
G01X5588000Y-12001500D02*
G01X6248400Y-11341100D01*
G01X6248400Y-11214100D02*
G01X6223000Y-11188700D01*
G01X6223000Y-10909300D01*
G01X6324600Y-10807700D01*
G01X6680200Y-9893300D02*
G01X6858000Y-9893300D01*
G01X7289800Y-9461500D01*
G01X7289800Y-8445500D01*
G01X7315200Y-8420100D01*
G01X7569200Y-6642100D02*
G01X7569200Y-6540500D01*
G01X6604000Y-5575300D01*
G01X6604000Y-5473700D01*
G01X6604000Y-5473700D02*
G01X7289800Y-4787900D01*
G01X7289800Y-3200400D01*
G01X7289800Y-4787900D02*
G01X7645400Y-4787900D01*
G01X7874000Y-5016500D01*
G01X8661400Y-5016500D02*
G01X8763000Y-4914900D01*
G01X9474200Y-4914900D01*
G01X9588500Y-5029200D01*
G01X6604000Y-5575300D02*
G01X6400800Y-5372100D01*
G01X5765800Y-5372100D01*
G01X3987800Y-7150100D01*
G01X3987800Y-7289800D01*
G01X5588000Y-12001500D02*
G01X5435600Y-11849100D01*
G01X2540000Y-11849100D01*
G01X609600Y-9918700D01*
G01X6248400Y-11315700D02*
G01X7340600Y-12407900D01*
G01X11163300Y-12407900D01*
G01X12890500Y-10680700D01*
G01X13194800Y-10985000D01*
G01X15028000Y-10985000D01*
G01X9588500Y-5029200D02*
G01X12534900Y-2082800D01*
G01X8890000Y-9245600D02*
G01X9017000Y-9118600D01*
G01X9017000Y-8636000D01*
G01X9372600Y-8280400D01*
G01X9372600Y-7086600D01*
G01X9398000Y-7061200D01*
G01X9245600Y-6629400D02*
G01X8927197Y-6310997D01*
G01X8927197Y-5498197D01*
G01X8813800Y-5384800D01*
G01X8788400Y-5384800D01*
G01X8712200Y-5308600D01*
G01X8712200Y-5257800D01*
G01X8830900Y-5139100D01*
G01X9626600Y-5139100D01*
G01X12598400Y-2167300D01*
G01X12598400Y-2014900D01*
G01X12547600Y-1964100D01*
G01X8890000Y-9499600D02*
G01X9321800Y-9499600D01*
G01X9779000Y-9042400D01*
G01X9779000Y-8966200D01*
G01X10795000Y-7950200D01*
G01X10922000Y-7950200D01*
G01X11277600Y-7594600D01*
G01X11277600Y-5511800D01*
G01X13766800Y-3022600D01*
G01X13766800Y-1879600D01*
G01X8788400Y-4783500D02*
G01X8509000Y-5062900D01*
G01X8509000Y-6637700D01*
G01X8991600Y-7247300D02*
G01X8991600Y-8491900D01*
G01X8763000Y-8720500D01*
G01X8763000Y-9626600D01*
G01X8890000Y-9753600D01*
G01X8890000Y-10007600D02*
G01X8699500Y-9817100D01*
G01X8699500Y-7505700D01*
G01X8902700Y-7302500D01*
G01X8445500Y-6692900D02*
G01X8445500Y-2451100D01*
G01X9004300Y-1892300D01*
G01X8890000Y-10769600D02*
G01X8229600Y-10109200D01*
G01X8229600Y-2794000D01*
G01X10337800Y-8890000D02*
G01X11455400Y-7772400D01*
G01X11455400Y-6985000D01*
G01X609600Y-9664700D02*
G01X127000Y-9182100D01*
G01X127000Y-7432700D01*
G01X254000Y-7305700D01*
G01X1371600Y-9918700D02*
G01X711200Y-9258300D01*
G01X711200Y-9105900D01*
G01X609600Y-9004300D01*
G01X558800Y-9004300D01*
G01X177800Y-8623300D01*
G01X177800Y-7481900D01*
G01X254000Y-7405700D01*
G01X1371600Y-8902700D02*
G01X711200Y-8242300D01*
G01X711200Y-7762900D01*
G01X354000Y-7405700D01*
G01X1371600Y-9664700D02*
G01X711200Y-9004300D01*
G01X711200Y-8597900D01*
G01X609600Y-8496300D01*
G01X558800Y-8496300D01*
G01X254000Y-8191500D01*
G01X254000Y-7505700D01*
G01X3568700Y-7962900D02*
G01X2886100Y-7280300D01*
G01X2886100Y-7153300D01*
G01X2835300Y-7102500D01*
G01X2641600Y-7102500D01*
G01X2616200Y-7127900D01*
G01X2616200Y-7229500D01*
G01X2667000Y-7280300D01*
G01X2692400Y-7280300D01*
G01X3568700Y-8724900D02*
G01X2908300Y-8064500D01*
G01X2908300Y-7396200D01*
G01X2792400Y-7280300D01*
G01X2806700Y-7708900D02*
G01X2705100Y-7810500D01*
G01X2705100Y-8039100D01*
G01X2730500Y-8064500D01*
G01X2806700Y-8470900D02*
G01X2654300Y-8318500D01*
G01X2654300Y-7618400D01*
G01X2792400Y-7480300D01*
G01X6604000Y-6235700D02*
G01X6751600Y-6235700D01*
G01X7594600Y-7078700D01*
G01X6604000Y-5981700D02*
G01X7626400Y-7004100D01*
G01X7645400Y-7004100D01*
G01X7694600Y-7053300D01*
G01X7694600Y-7078700D01*
G01X6604000Y-5727700D02*
G01X6502400Y-5829300D01*
G01X6502400Y-6289700D01*
G01X6604000Y-6391300D01*
G01X6654800Y-6391300D01*
G01X7442200Y-7178700D01*
G01X7594600Y-7178700D01*
G01X6604000Y-6489700D02*
G01X6654800Y-6489700D01*
G01X7239000Y-7073900D01*
G01X5842000Y-5473700D02*
G01X6451600Y-6083300D01*
G01X6451600Y-6491300D01*
G01X6604000Y-6643700D01*
G01X6654800Y-6643700D01*
G01X7289800Y-7278700D01*
G01X7594600Y-7278700D01*
G01X7366000Y-6642100D02*
G01X7772400Y-7048500D01*
G01X7772400Y-7200900D01*
G01X7694600Y-7278700D01*
G01X5842000Y-5727700D02*
G01X6400800Y-6286500D01*
G01X6400800Y-6692900D01*
G01X6604000Y-6896100D01*
G01X6654800Y-6896100D01*
G01X7137400Y-7378700D01*
G01X7594600Y-7378700D01*
G01X5842000Y-6235700D02*
G01X6502400Y-6896100D01*
G01X6502400Y-7048500D01*
G01X6604000Y-7150100D01*
G01X6832600Y-7150100D01*
G01X7137400Y-7454900D01*
G01X7618400Y-7454900D01*
G01X7694600Y-7378700D01*
G01X9588500Y-6045200D02*
G01X10399700Y-6856400D01*
G01X10399700Y-7077100D01*
G01X10323500Y-7153300D01*
G01X8826500Y-5283200D02*
G01X9486900Y-5943600D01*
G01X9486900Y-6096000D01*
G01X9588500Y-6197600D01*
G01X9639300Y-6197600D01*
G01X10147300Y-6705600D01*
G01X10147300Y-7277100D01*
G01X10223500Y-7353300D01*
G01X9359900Y-5715000D02*
G01X9588500Y-5943600D01*
G01X9639300Y-5943600D01*
G01X10452100Y-6756400D01*
G01X10452100Y-7224700D01*
G01X10323500Y-7353300D01*
G01X12890500Y-9918700D02*
G01X12712700Y-9740900D01*
G01X12712700Y-7594600D01*
G01X12623800Y-7505700D01*
G01X12890500Y-10172700D02*
G01X12992100Y-10071100D01*
G01X12992100Y-8851900D01*
G01X12890500Y-8750300D01*
G01X12865100Y-8750300D01*
G01X12952400Y-8456600D02*
G01X12952400Y-7243800D01*
G01X12800000Y-7091400D01*
G01X12700000Y-10083800D02*
G01X12700000Y-9804400D01*
G01X12649200Y-9753600D01*
G01X12649200Y-7620000D01*
G01X12547600Y-7518400D01*
G01X12547600Y-7343800D01*
G01X12700000Y-7191400D01*
G01X12890500Y-9664700D02*
G01X12788900Y-9563100D01*
G01X12788900Y-7734300D01*
G01X12825400Y-7697800D01*
G01X12992100Y-8623300D02*
G01X13017500Y-8597900D01*
G01X13017500Y-8318500D01*
G01X12585700Y-8039100D02*
G01X12585700Y-7658100D01*
G01X13652500Y-9664700D02*
G01X13093700Y-9105900D01*
G01X13093700Y-7458100D01*
G01X13017500Y-7381900D01*
G01X12623800Y-10007600D02*
G01X12573000Y-9956800D01*
G01X12573000Y-8483600D01*
G01X12522200Y-8102600D02*
G01X12522200Y-7797800D01*
G01X13652500Y-9918700D02*
G01X13042900Y-9309100D01*
G01X13042900Y-8826500D01*
G01X12890500Y-8674100D01*
G01X12890500Y-7481900D01*
G01X12800000Y-7391400D01*
G01X7810500Y-8534400D02*
G01X8013700Y-8331200D01*
G01X8013700Y-7721600D01*
G01X9918700Y-7670800D02*
G01X10020300Y-7670800D01*
G01X10223500Y-7874000D01*
G01X14744700Y-7493000D02*
G01X14744700Y-7391400D01*
G01X15093900Y-7042200D01*
G01X15201900Y-7042200D01*
G01X15251100Y-7091400D01*
G01X15251100Y-7116800D01*
G01X10325100Y-8331200D02*
G01X10833100Y-7823200D01*
G01X10960100Y-7823200D01*
G01X12052300Y-7823200D02*
G01X12052300Y-7594600D01*
G01X12661900Y-6985000D01*
G01X15227300Y-6985000D01*
G01X15328900Y-7086600D01*
G01X15328900Y-7139000D01*
G01X15251100Y-7216800D01*
G01X9840900Y-7316800D02*
G01X10069500Y-7316800D01*
G01X10196500Y-7443800D01*
G01X10831500Y-7443800D01*
G01X11212500Y-7062800D01*
G01X14743100Y-6910400D02*
G01X15225700Y-6910400D01*
G01X15378100Y-7062800D01*
G01X15378100Y-7391400D01*
G01X15276500Y-7493000D01*
G01X15124100Y-7493000D01*
G01X15073300Y-7442200D01*
G01X15073300Y-7394600D01*
G01X15151100Y-7316800D01*
G01X12253900Y-7291400D02*
G01X12711100Y-6834200D01*
G01X14768500Y-6834200D01*
G01X9944100Y-7416800D02*
G01X10198100Y-7670800D01*
G01X11112500Y-7670800D01*
G01X11188700Y-8229600D02*
G01X11239500Y-8280400D01*
G01X12458700Y-8280400D01*
G01X12509500Y-8331200D01*
G01X8928100Y-6502400D02*
G01X8928100Y-6705600D01*
G01X8826500Y-6807200D01*
G01X8877300Y-6807200D01*
G01X8928100Y-6858000D01*
G01X9436100Y-7239000D02*
G01X9436100Y-8610600D01*
G01X9652000Y-8826500D01*
G01X9652000Y-8928100D02*
G01X9728200Y-8928100D01*
G01X9753600Y-8902700D01*
G01X11874500Y-9677400D02*
G01X12001500Y-9804400D01*
G01X12331700Y-9804400D01*
G01X12814300Y-10287000D02*
G01X12915900Y-10287000D01*
G01X13169900Y-10033000D01*
G01X13677900Y-10033000D01*
G01X13754100Y-9956800D01*
G01X13754100Y-9512300D01*
G01X13652500Y-9410700D01*
G01X13550900Y-9309100D01*
G01X13550900Y-9004300D01*
G01X13652500Y-8902700D01*
G01X13754100Y-9956800D02*
G01X14099800Y-9956800D01*
G01X15128000Y-10985000D01*
G01X12611100Y-10083800D02*
G01X12611100Y-10096500D01*
G01X10414000Y-12293600D01*
G01X9144000Y-12293600D01*
G01X8890000Y-12039600D01*
G01X8102600Y-11252200D01*
G01X8102600Y-11074400D02*
G01X8026400Y-11150600D01*
G01X7708900Y-11150600D01*
G01X7594600Y-11036300D01*
G01X9652000Y-8978900D02*
G01X9245600Y-9385300D01*
G01X8839200Y-9385300D01*
G01X6972300Y-9474200D02*
G01X6946900Y-9448800D01*
G01X6946900Y-9245600D01*
G01X7048500Y-9144000D01*
G01X7048500Y-9042400D01*
G01X5842000Y-7835900D01*
G01X5842000Y-7251700D01*
G01X5943600Y-7150100D01*
G01X5943600Y-6845300D01*
G01X5842000Y-6743700D01*
G01X5130800Y-9867900D02*
G01X4648200Y-9385300D01*
G01X3022600Y-9385300D01*
G01X2921000Y-9486900D01*
G01X2844800Y-9486900D02*
G01X2921000Y-9410700D01*
G01X2921000Y-9093200D01*
G01X2806700Y-8978900D01*
G01X1790700Y-8978900D01*
G01X1460500Y-8648700D01*
G01X1409700Y-8648700D02*
G01X1485900Y-8572500D01*
G01X1485900Y-8255000D01*
G01X1371600Y-8140700D01*
G01X5588000Y-10985500D02*
G01X6121400Y-10452100D01*
G01X7289800Y-10452100D01*
G01X9817100Y-10007600D02*
G01X10414000Y-10007600D01*
G01X10071100Y-9753600D02*
G01X10414000Y-9753600D01*
G01X9931400Y-9817100D02*
G01X9931400Y-9791700D01*
G01X10210800Y-9512300D01*
G01X10401300Y-9512300D01*
G01X10414000Y-9499600D01*
G01X10414000Y-12039600D02*
G01X9779000Y-11404600D01*
G01X8864600Y-11404600D01*
G01X8661400Y-11201400D01*
G01X8305800Y-10845800D02*
G01X7950200Y-10490200D01*
G01X7950200Y-10083800D01*
G01X7797800Y-9931400D01*
G01X7950200Y-9880600D02*
G01X7950200Y-9296400D01*
G01X7797800Y-9144000D01*
G01X7772400Y-9144000D01*
G01X7645400Y-9017000D01*
G01X7645400Y-7620000D01*
G01X7950200Y-7315200D01*
G01X7950200Y-3505200D01*
G01X7416800Y-2971800D01*
G01X7416800Y-2819400D02*
G01X7289800Y-2692400D01*
G01X7416800Y-2895600D02*
G01X8255000Y-2057400D01*
G01X8483600Y-2057400D01*
G01X8915400Y-1625600D01*
G01X15494000Y-1625600D01*
G01X15849600Y-1981200D01*
G01X10414000Y-11785600D02*
G01X9525000Y-10896600D01*
G01X8864600Y-10896600D01*
G01X7823200Y-9855200D01*
G01X7721600Y-9855200D01*
G01X7696200Y-9880600D01*
G01X6756400Y-9982200D02*
G01X6705600Y-10033000D01*
G01X6629400Y-10033000D01*
G01X850900Y-4254500D01*
G01X850900Y-3543300D01*
G01X5588000Y-11747500D02*
G01X6172200Y-11163300D01*
G01X6172200Y-10858500D01*
G01X6502400Y-10528300D01*
G01X7340600Y-10528300D01*
G01X7594600Y-10274300D01*
G01X7315200Y-10858500D02*
G01X7848600Y-10325100D01*
G01X7848600Y-10274300D01*
G01X5588000Y-10731500D02*
G01X5943600Y-10375900D01*
G01X7391400Y-10375900D01*
G01X7467600Y-10299700D01*
G01X7467600Y-10274300D01*
G01X6642100Y-9042400D02*
G01X6896100Y-9042400D01*
G01X6946900Y-9093200D01*
G01X8394700Y-8483600D02*
G01X8394700Y-7721600D01*
G01X9131300Y-6985000D01*
G01X9156700Y-6985000D01*
G01X9334500Y-6807200D02*
G01X9486900Y-6654800D01*
G01X9639300Y-6654800D01*
G01X9690100Y-6604000D01*
G01X9690100Y-6400800D01*
G01X9588500Y-6299200D01*
G01X4826000Y-10985500D02*
G01X5486400Y-10325100D01*
G01X5486400Y-10121900D01*
G01X5969000Y-9639300D01*
G01X9258300Y-6553200D02*
G01X9588500Y-6553200D01*
G01X10210800Y-9156700D02*
G01X10261600Y-9105900D01*
G01X10769600Y-9105900D01*
G01X11328400Y-8547100D01*
G01X11404600Y-8547100D01*
G01X11912600Y-9055100D01*
G01X12293600Y-9055100D01*
G01X12395200Y-9156700D01*
G01X1206500Y-8877300D02*
G01X1206500Y-8851900D01*
G01X622300Y-8267700D01*
G01X622300Y-8153400D01*
G01X609600Y-8140700D01*
G01X4826000Y-11747500D02*
G01X5486400Y-11087100D01*
G01X5486400Y-10680700D01*
G01X5588000Y-10579100D01*
G01X5638800Y-10579100D01*
G01X5994400Y-10223500D01*
G01X5994400Y-9715500D01*
G01X7645400Y-9486900D02*
G01X7747000Y-9486900D01*
G01X7810500Y-9550400D01*
G01X7645400Y-9486900D02*
G01X7543800Y-9385300D01*
G01X7543800Y-8420100D01*
G01X7162800Y-8039100D02*
G01X7162800Y-7988300D01*
G01X7061200Y-7886700D01*
G01X6985000Y-7886700D01*
G01X6604000Y-7505700D01*
G01X6604000Y-7251700D01*
G01X7518400Y-8394700D02*
G01X7518400Y-8369300D01*
G01X7569200Y-8318500D01*
G01X8382000Y-7607300D02*
G01X9118600Y-6870700D01*
G01X9499600Y-6870700D01*
G01X9550400Y-6819900D01*
G01X9575800Y-6819900D01*
G01X9588500Y-6807200D01*
G01X9575800Y-6819900D02*
G01X9575800Y-7150100D01*
G01X10236200Y-7810500D01*
G01X10388600Y-7810500D01*
G01X10566400Y-7988300D01*
G01X11366500Y-8648700D02*
G01X11315700Y-8648700D01*
G01X10579100Y-9385300D01*
G01X10147300Y-9385300D01*
G01X9842500Y-9690100D01*
G01X7302500Y-9690100D02*
G01X7302500Y-9944100D01*
G01X7099300Y-10147300D01*
G01X7099300Y-10261600D01*
G01X7086600Y-10274300D01*
G01X7099300Y-10261600D02*
G01X6921500Y-10083800D01*
G01X6591300Y-10083800D01*
G01X5651500Y-9144000D01*
G01X3911600Y-9461500D02*
G01X3784600Y-9588500D01*
G01X1549400Y-9588500D01*
G01X1371600Y-9410700D01*
G01X11366500Y-9156700D02*
G01X10629900Y-9893300D01*
G01X9639300Y-9893300D01*
G01X9131300Y-10401300D01*
G01X8724900Y-10401300D01*
G01X8674100Y-10350500D01*
G01X6731000Y-10248900D02*
G01X6654800Y-10172700D01*
G01X6589376Y-10172700D01*
G01X5243176Y-8826500D01*
G01X3416300Y-8826500D01*
G01X2806700Y-8216900D01*
G01X11366500Y-9664700D02*
G01X10883900Y-10147300D01*
G01X9486900Y-10147300D01*
G01X9359900Y-10274300D01*
G01X6667500Y-9969500D02*
G01X5727700Y-9029700D01*
G01X5727700Y-6096000D01*
G01X5842000Y-5981700D01*
G01X12128500Y-9918700D02*
G01X11417300Y-10629900D01*
G01X8851900Y-10629900D01*
G01X8420100Y-10198100D01*
G01X7569200Y-10045700D02*
G01X7340600Y-10274300D01*
G01X8420100Y-10198100D02*
G01X8318500Y-10096500D01*
G01X8318500Y-6921500D01*
G01X8724900Y-6515100D01*
G01X8724900Y-5638800D01*
G01X8826500Y-5537200D01*
G01X9639300Y-11137900D02*
G01X8343900Y-11137900D01*
G01X8140700Y-10934700D01*
G01X7556500Y-10934700D01*
G01X7454900Y-11036300D01*
G01X7454900Y-11061700D01*
G01X7378700Y-11137900D01*
G01X6426200Y-11137900D01*
G01X6324600Y-11036300D01*
G01X7480300Y-8458200D02*
G01X7302500Y-8280400D01*
G01X7048500Y-8280400D01*
G01X7480300Y-8458200D02*
G01X7480300Y-9855200D01*
G01X7708900Y-10083800D01*
G01X7708900Y-10363200D01*
G01X7251700Y-10820400D01*
G01X7251700Y-10947400D01*
G01X7340600Y-11036300D01*
G01X9906000Y-10337800D02*
G01X9956800Y-10388600D01*
G01X10718800Y-10388600D01*
G01X11328400Y-9779000D01*
G01X11391900Y-9779000D01*
G01X11468100Y-9702800D01*
G01X11468100Y-9512300D01*
G01X11366500Y-9410700D01*
G01X11366500Y-9359900D01*
G01X11518900Y-9207500D01*
G01X11518900Y-9055100D02*
G01X11366500Y-8902700D01*
G01X11366500Y-8801100D01*
G01X11341100Y-8775700D01*
G01X12077700Y-9156700D02*
G01X12026900Y-9207500D01*
G01X12026900Y-9563100D01*
G01X12128500Y-9664700D01*
G01X1947800Y-1588600D02*
G01X2365800Y-2006600D01*
G01X8461800Y-2006600D01*
G01X8893600Y-1574800D01*
G01X15544800Y-1574800D01*
G01X15976600Y-2006600D01*
G01X12242800Y-9626600D02*
G01X12471400Y-9398000D01*
G01X12471400Y-8458200D01*
G01X12573000Y-8356600D01*
G01X12573000Y-8305800D01*
G01X12166600Y-7899400D01*
G01X12039600Y-7899400D01*
G01X11988800Y-7848600D01*
G01X11988800Y-6451600D01*
G01X12484100Y-5956300D01*
G01X9093200Y-10337800D02*
G01X9093200Y-10185400D01*
G01X10185400Y-9093200D01*
G01X10210800Y-9093200D01*
G01X10269220Y-9034780D01*
G01X10269220Y-8806180D01*
G01X11379200Y-7696200D01*
G01X11379200Y-6959800D01*
G01X18022000Y-317000D01*
G01X8890000Y-10261600D02*
G01X10033000Y-9118600D01*
G01X10033000Y-8966200D01*
G01X11328400Y-7670800D01*
G01X11328400Y-6910600D01*
G01X17922000Y-317000D01*
G01X6248400Y-11341100D02*
G01X6248400Y-11315700D01*
G01X6248400Y-11214100D01*
G01X9652000Y-8826500D02*
G01X9652000Y-8928100D01*
G01X9652000Y-8978900D01*
G01X9652000Y-8991600D01*
G01X12331700Y-9804400D02*
G01X12611100Y-10083800D01*
G01X12814300Y-10287000D01*
G01X8102600Y-11252200D02*
G01X8102600Y-11074400D01*
G01X8102600Y-11036300D01*
G01X2921000Y-9486900D02*
G01X2844800Y-9486900D01*
G01X2806700Y-9486900D01*
G01X1460500Y-8648700D02*
G01X1409700Y-8648700D01*
G01X1371600Y-8648700D01*
G01X7416800Y-2971800D02*
G01X7416800Y-2895600D01*
G01X7416800Y-2819400D01*
G01X7543800Y-8420100D02*
G01X7518400Y-8394700D01*
G01X7162800Y-8039100D01*
G01X11518900Y-9207500D02*
G01X11518900Y-9156700D01*
G01X11518900Y-9055100D01*
G01X11518900Y-9156700D02*
G01X12077700Y-9156700D01*
G01X12128500Y-9156700D01*
G04 Track End*

M02*

