# Exported by Open CASCADE Technology [dev.opencascade.org]
#  Vertices: 600
#     Faces: 396
# Author: Easy EDA
g SOLID
v 2.425005 0.000000 170.942337
v 2.425005 20.000000 170.942337
v 2.425005 20.000000 2.286005
v 2.425005 0.000000 2.286005
vn -1.000000 0.000000 0.000000
vn -1.000000 0.000000 0.000000
vn -1.000000 0.000000 0.000000
vn -1.000000 0.000000 0.000000
vt 0.000000 0.000000
vt 0.000000 -787.400024
vt 6640.000000 -787.400024
vt 6640.000000 0.000000
f 4/4/4 1/1/1 2/2/2
f 4/4/4 2/2/2 3/3/3
v 2.426753 0.000000 170.993530
v 2.426753 20.000000 170.993530
v 2.425005 20.000000 170.942337
v 2.425005 0.000000 170.942337
vn -0.999417 0.000000 0.034141
vn -0.999417 0.000000 0.034141
vn -0.999417 0.000000 0.034141
vn -0.999417 0.000000 0.034141
vt 0.000000 0.000000
vt 0.000000 -787.400024
vt 2.016207 -787.400024
vt 2.016207 0.000000
f 8/8/8 5/5/5 6/6/6
f 8/8/8 6/6/6 7/7/7
v 2.425005 0.000000 2.286005
v 2.425005 20.000000 2.286005
v 2.426753 20.000000 2.234823
v 2.426753 0.000000 2.234823
vn -0.999417 0.000000 -0.034141
vn -0.999417 0.000000 -0.034141
vn -0.999417 0.000000 -0.034141
vn -0.999417 0.000000 -0.034141
vt 0.000000 0.000000
vt 0.000000 -787.400024
vt 2.016207 -787.400024
vt 2.016207 0.000000
f 12/12/12 9/9/9 10/10/10
f 12/12/12 10/10/10 11/11/11
v 2.425005 0.000000 170.942337
v 2.425005 0.000000 2.286005
v 2.426753 0.000000 2.234823
v 2.431990 0.000000 2.183879
v 2.440692 0.000000 2.133412
v 2.452817 0.000000 2.083657
v 2.468309 0.000000 2.034844
v 2.487097 0.000000 1.987203
v 2.509091 0.000000 1.940955
v 2.534190 0.000000 1.896316
v 2.562278 0.000000 1.853493
v 2.593222 0.000000 1.812688
v 2.626878 0.000000 1.774089
v 2.663090 0.000000 1.737877
v 2.701689 0.000000 1.704220
v 2.742495 0.000000 1.673276
v 2.785318 0.000000 1.645189
v 2.829957 0.000000 1.620089
v 2.876205 0.000000 1.598095
v 2.923846 0.000000 1.579307
v 2.972658 0.000000 1.563815
v 3.022414 0.000000 1.551690
v 3.072881 0.000000 1.542989
v 3.123824 0.000000 1.537751
v 3.175006 0.000000 1.536003
v 213.487427 0.000000 1.536003
v 213.538605 0.000000 1.537751
v 213.589554 0.000000 1.542989
v 213.640015 0.000000 1.551690
v 213.689774 0.000000 1.563815
v 213.738586 0.000000 1.579307
v 213.786224 0.000000 1.598095
v 213.832474 0.000000 1.620089
v 213.877121 0.000000 1.645189
v 213.919937 0.000000 1.673276
v 213.960739 0.000000 1.704220
v 213.999344 0.000000 1.737877
v 214.035553 0.000000 1.774089
v 214.069214 0.000000 1.812688
v 214.100159 0.000000 1.853493
v 214.128250 0.000000 1.896316
v 214.153336 0.000000 1.940955
v 214.175339 0.000000 1.987203
v 214.194122 0.000000 2.034844
v 214.209610 0.000000 2.083657
v 214.221741 0.000000 2.133412
v 214.230438 0.000000 2.183879
v 214.235687 0.000000 2.234823
v 214.237427 0.000000 2.286005
v 214.237427 0.000000 170.942337
v 214.235687 0.000000 170.993530
v 214.230438 0.000000 171.044464
v 214.221741 0.000000 171.094940
v 214.209610 0.000000 171.144684
v 214.194122 0.000000 171.193497
v 214.175339 0.000000 171.241150
v 214.153336 0.000000 171.287384
v 214.128250 0.000000 171.332031
v 214.100159 0.000000 171.374847
v 214.069214 0.000000 171.415665
v 214.035553 0.000000 171.454254
v 213.999344 0.000000 171.490463
v 213.960739 0.000000 171.524124
v 213.919937 0.000000 171.555069
v 213.877121 0.000000 171.583160
v 213.832474 0.000000 171.608261
v 213.786224 0.000000 171.630249
v 213.738586 0.000000 171.649033
v 213.689774 0.000000 171.664536
v 213.640015 0.000000 171.676651
v 213.589554 0.000000 171.685364
v 213.538605 0.000000 171.690598
v 213.487427 0.000000 171.692337
v 3.175006 0.000000 171.692337
v 3.123824 0.000000 171.690598
v 3.072881 0.000000 171.685364
v 3.022414 0.000000 171.676651
v 2.972658 0.000000 171.664536
v 2.923846 0.000000 171.649033
v 2.876205 0.000000 171.630249
v 2.829957 0.000000 171.608261
v 2.785318 0.000000 171.583160
v 2.742495 0.000000 171.555069
v 2.701689 0.000000 171.524124
v 2.663090 0.000000 171.490463
v 2.626878 0.000000 171.454254
v 2.593222 0.000000 171.415665
v 2.562278 0.000000 171.374847
v 2.534190 0.000000 171.332031
v 2.509091 0.000000 171.287384
v 2.487097 0.000000 171.241150
v 2.468309 0.000000 171.193497
v 2.452817 0.000000 171.144684
v 2.440692 0.000000 171.094940
v 2.431990 0.000000 171.044464
v 2.426753 0.000000 170.993530
vn 0.000000 -1.000000 0.000000
vn 0.000000 -1.000000 0.000000
vn 0.000000 -1.000000 0.000000
vn 0.000000 -1.000000 0.000000
vn 0.000000 -1.000000 0.000000
vn 0.000000 -1.000000 0.000000
vn 0.000000 -1.000000 0.000000
vn 0.000000 -1.000000 0.000000
vn 0.000000 -1.000000 0.000000
vn 0.000000 -1.000000 0.000000
vn 0.000000 -1.000000 0.000000
vn 0.000000 -1.000000 0.000000
vn 0.000000 -1.000000 0.000000
vn 0.000000 -1.000000 0.000000
vn 0.000000 -1.000000 0.000000
vn 0.000000 -1.000000 0.000000
vn 0.000000 -1.000000 0.000000
vn 0.000000 -1.000000 0.000000
vn 0.000000 -1.000000 0.000000
vn 0.000000 -1.000000 0.000000
vn 0.000000 -1.000000 0.000000
vn 0.000000 -1.000000 0.000000
vn 0.000000 -1.000000 0.000000
vn 0.000000 -1.000000 0.000000
vn 0.000000 -1.000000 0.000000
vn 0.000000 -1.000000 0.000000
vn 0.000000 -1.000000 0.000000
vn 0.000000 -1.000000 0.000000
vn 0.000000 -1.000000 0.000000
vn 0.000000 -1.000000 0.000000
vn 0.000000 -1.000000 0.000000
vn 0.000000 -1.000000 0.000000
vn 0.000000 -1.000000 0.000000
vn 0.000000 -1.000000 0.000000
vn 0.000000 -1.000000 0.000000
vn 0.000000 -1.000000 0.000000
vn 0.000000 -1.000000 0.000000
vn 0.000000 -1.000000 0.000000
vn 0.000000 -1.000000 0.000000
vn 0.000000 -1.000000 0.000000
vn 0.000000 -1.000000 0.000000
vn 0.000000 -1.000000 0.000000
vn 0.000000 -1.000000 0.000000
vn 0.000000 -1.000000 0.000000
vn 0.000000 -1.000000 0.000000
vn 0.000000 -1.000000 0.000000
vn 0.000000 -1.000000 0.000000
vn 0.000000 -1.000000 0.000000
vn 0.000000 -1.000000 0.000000
vn 0.000000 -1.000000 0.000000
vn 0.000000 -1.000000 0.000000
vn 0.000000 -1.000000 0.000000
vn 0.000000 -1.000000 0.000000
vn 0.000000 -1.000000 0.000000
vn 0.000000 -1.000000 0.000000
vn 0.000000 -1.000000 0.000000
vn 0.000000 -1.000000 0.000000
vn 0.000000 -1.000000 0.000000
vn 0.000000 -1.000000 0.000000
vn 0.000000 -1.000000 0.000000
vn 0.000000 -1.000000 0.000000
vn 0.000000 -1.000000 0.000000
vn 0.000000 -1.000000 0.000000
vn 0.000000 -1.000000 0.000000
vn 0.000000 -1.000000 0.000000
vn 0.000000 -1.000000 0.000000
vn 0.000000 -1.000000 0.000000
vn 0.000000 -1.000000 0.000000
vn 0.000000 -1.000000 0.000000
vn 0.000000 -1.000000 0.000000
vn 0.000000 -1.000000 0.000000
vn 0.000000 -1.000000 0.000000
vn 0.000000 -1.000000 0.000000
vn 0.000000 -1.000000 0.000000
vn 0.000000 -1.000000 0.000000
vn 0.000000 -1.000000 0.000000
vn 0.000000 -1.000000 0.000000
vn 0.000000 -1.000000 0.000000
vn 0.000000 -1.000000 0.000000
vn 0.000000 -1.000000 0.000000
vn 0.000000 -1.000000 0.000000
vn 0.000000 -1.000000 0.000000
vn 0.000000 -1.000000 0.000000
vn 0.000000 -1.000000 0.000000
vn 0.000000 -1.000000 0.000000
vn 0.000000 -1.000000 0.000000
vn 0.000000 -1.000000 0.000000
vn 0.000000 -1.000000 0.000000
vn 0.000000 -1.000000 0.000000
vn 0.000000 -1.000000 0.000000
vn 0.000000 -1.000000 0.000000
vn 0.000000 -1.000000 0.000000
vn 0.000000 -1.000000 0.000000
vn 0.000000 -1.000000 0.000000
vn 0.000000 -1.000000 0.000000
vn 0.000000 -1.000000 0.000000
vt 4169.527344 -3320.000000
vt 4169.527344 3320.000000
vt 4169.458496 3322.015137
vt 4169.252441 3324.020752
vt 4168.910156 3326.007568
vt 4168.432617 3327.966553
vt 4167.822754 3329.888184
vt 4167.083008 3331.763916
vt 4166.217285 3333.584717
vt 4165.229004 3335.342041
vt 4164.123047 3337.028076
vt 4162.904785 3338.634521
vt 4161.579590 3340.154053
vt 4160.154297 3341.579834
vt 4158.634277 3342.904785
vt 4157.027832 3344.123047
vt 4155.342285 3345.229004
vt 4153.584473 3346.217041
vt 4151.763672 3347.083008
vt 4149.888184 3347.822754
vt 4147.966309 3348.432617
vt 4146.007324 3348.909912
vt 4144.020508 3349.252441
vt 4142.015137 3349.458740
vt 4140.000000 3349.527588
vt -4140.000000 3349.527588
vt -4142.015137 3349.458740
vt -4144.020508 3349.252441
vt -4146.007324 3348.909912
vt -4147.966309 3348.432617
vt -4149.888184 3347.822754
vt -4151.763672 3347.083008
vt -4153.584473 3346.217041
vt -4155.342285 3345.229004
vt -4157.027832 3344.123047
vt -4158.634277 3342.904785
vt -4160.154297 3341.579834
vt -4161.579590 3340.154053
vt -4162.904785 3338.634521
vt -4164.123047 3337.028076
vt -4165.229004 3335.342041
vt -4166.217285 3333.584717
vt -4167.083008 3331.763916
vt -4167.822754 3329.888184
vt -4168.432617 3327.966553
vt -4168.910156 3326.007568
vt -4169.252441 3324.020752
vt -4169.458496 3322.015137
vt -4169.527344 3320.000000
vt -4169.527344 -3320.000000
vt -4169.458496 -3322.015137
vt -4169.252441 -3324.020752
vt -4168.910156 -3326.007568
vt -4168.432617 -3327.966553
vt -4167.822754 -3329.888184
vt -4167.083008 -3331.763916
vt -4166.217285 -3333.584717
vt -4165.229004 -3335.342041
vt -4164.123047 -3337.028076
vt -4162.904785 -3338.634521
vt -4161.579590 -3340.154053
vt -4160.154297 -3341.579834
vt -4158.634277 -3342.904785
vt -4157.027832 -3344.123047
vt -4155.342285 -3345.229004
vt -4153.584473 -3346.217041
vt -4151.763672 -3347.083008
vt -4149.888184 -3347.822754
vt -4147.966309 -3348.432617
vt -4146.007324 -3348.909912
vt -4144.020508 -3349.252441
vt -4142.015137 -3349.458740
vt -4140.000000 -3349.527588
vt 4140.000000 -3349.527588
vt 4142.015137 -3349.458740
vt 4144.020508 -3349.252441
vt 4146.007324 -3348.909912
vt 4147.966309 -3348.432617
vt 4149.888184 -3347.822754
vt 4151.763672 -3347.083008
vt 4153.584473 -3346.217041
vt 4155.342285 -3345.229004
vt 4157.027832 -3344.123047
vt 4158.634277 -3342.904785
vt 4160.154297 -3341.579834
vt 4161.579590 -3340.154053
vt 4162.904785 -3338.634521
vt 4164.123047 -3337.028076
vt 4165.229004 -3335.342041
vt 4166.217285 -3333.584717
vt 4167.083008 -3331.763916
vt 4167.822754 -3329.888184
vt 4168.432617 -3327.966553
vt 4168.910156 -3326.007568
vt 4169.252441 -3324.020752
vt 4169.458496 -3322.015137
f 75/75/75 72/72/72 73/73/73
f 75/75/75 73/73/73 74/74/74
f 70/70/70 71/71/71 72/72/72
f 77/77/77 75/75/75 76/76/76
f 68/68/68 69/69/69 70/70/70
f 79/79/79 77/77/77 78/78/78
f 67/67/67 70/70/70 72/72/72
f 67/67/67 68/68/68 70/70/70
f 80/80/80 75/75/75 77/77/77
f 80/80/80 77/77/77 79/79/79
f 81/81/81 72/72/72 75/75/75
f 81/81/81 67/67/67 72/72/72
f 81/81/81 75/75/75 80/80/80
f 65/65/65 67/67/67 81/81/81
f 65/65/65 66/66/66 67/67/67
f 83/83/83 65/65/65 81/81/81
f 83/83/83 81/81/81 82/82/82
f 85/85/85 65/65/65 83/83/83
f 85/85/85 83/83/83 84/84/84
f 62/62/62 65/65/65 85/85/85
f 62/62/62 63/63/63 64/64/64
f 62/62/62 64/64/64 65/65/65
f 58/58/58 59/59/59 60/60/60
f 58/58/58 60/60/60 61/61/61
f 57/57/57 58/58/58 61/61/61
f 56/56/56 57/57/57 61/61/61
f 53/53/53 54/54/54 55/55/55
f 53/53/53 55/55/55 56/56/56
f 53/53/53 56/56/56 61/61/61
f 51/51/51 52/52/52 53/53/53
f 50/50/50 51/51/51 53/53/53
f 50/50/50 53/53/53 61/61/61
f 48/48/48 49/49/49 50/50/50
f 48/48/48 50/50/50 61/61/61
f 46/46/46 47/47/47 48/48/48
f 44/44/44 45/45/45 46/46/46
f 44/44/44 46/46/46 48/48/48
f 42/42/42 43/43/43 44/44/44
f 41/41/41 42/42/42 44/44/44
f 40/40/40 48/48/48 61/61/61
f 40/40/40 44/44/44 48/48/48
f 40/40/40 41/41/41 44/44/44
f 38/38/38 39/39/39 40/40/40
f 38/38/38 62/62/62 85/85/85
f 38/38/38 61/61/61 62/62/62
f 38/38/38 40/40/40 61/61/61
f 86/86/86 38/38/38 85/85/85
f 91/91/91 88/88/88 89/89/89
f 91/91/91 89/89/89 90/90/90
f 93/93/93 91/91/91 92/92/92
f 95/95/95 88/88/88 91/91/91
f 95/95/95 91/91/91 93/93/93
f 95/95/95 87/87/87 88/88/88
f 95/95/95 93/93/93 94/94/94
f 96/96/96 87/87/87 95/95/95
f 97/97/97 87/87/87 96/96/96
f 99/99/99 87/87/87 97/97/97
f 99/99/99 86/86/86 87/87/87
f 99/99/99 97/97/97 98/98/98
f 102/102/102 86/86/86 99/99/99
f 102/102/102 99/99/99 100/100/100
f 102/102/102 100/100/100 101/101/101
f 104/104/104 102/102/102 103/103/103
f 105/105/105 86/86/86 102/102/102
f 105/105/105 102/102/102 104/104/104
f 106/106/106 86/86/86 105/105/105
f 13/13/13 86/86/86 106/106/106
f 13/13/13 106/106/106 107/107/107
f 13/13/13 107/107/107 108/108/108
f 37/37/37 86/86/86 13/13/13
f 37/37/37 38/38/38 86/86/86
f 14/14/14 37/37/37 13/13/13
f 17/17/17 14/14/14 15/15/15
f 17/17/17 15/15/15 16/16/16
f 17/17/17 35/35/35 36/36/36
f 17/17/17 36/36/36 37/37/37
f 17/17/17 37/37/37 14/14/14
f 33/33/33 34/34/34 35/35/35
f 31/31/31 32/32/32 33/33/33
f 21/21/21 19/19/19 20/20/20
f 22/22/22 17/17/17 18/18/18
f 22/22/22 18/18/18 19/19/19
f 22/22/22 19/19/19 21/21/21
f 29/29/29 30/30/30 31/31/31
f 29/29/29 31/31/31 33/33/33
f 28/28/28 29/29/29 33/33/33
f 28/28/28 33/33/33 35/35/35
f 27/27/27 28/28/28 35/35/35
f 24/24/24 22/22/22 23/23/23
f 25/25/25 26/26/26 27/27/27
f 25/25/25 35/35/35 17/17/17
f 25/25/25 27/27/27 35/35/35
f 25/25/25 22/22/22 24/24/24
f 25/25/25 17/17/17 22/22/22
v 2.425005 20.000000 170.942337
v 2.425005 20.000000 2.286005
v 2.426753 20.000000 2.234823
v 2.431990 20.000000 2.183879
v 2.440692 20.000000 2.133412
v 2.452817 20.000000 2.083657
v 2.468309 20.000000 2.034844
v 2.487097 20.000000 1.987203
v 2.509091 20.000000 1.940955
v 2.534190 20.000000 1.896316
v 2.562278 20.000000 1.853493
v 2.593222 20.000000 1.812688
v 2.626878 20.000000 1.774089
v 2.663090 20.000000 1.737877
v 2.701689 20.000000 1.704220
v 2.742495 20.000000 1.673276
v 2.785318 20.000000 1.645189
v 2.829957 20.000000 1.620089
v 2.876205 20.000000 1.598095
v 2.923846 20.000000 1.579307
v 2.972658 20.000000 1.563815
v 3.022414 20.000000 1.551690
v 3.072881 20.000000 1.542989
v 3.123824 20.000000 1.537751
v 3.175006 20.000000 1.536003
v 213.487427 20.000000 1.536003
v 213.538605 20.000000 1.537751
v 213.589554 20.000000 1.542989
v 213.640015 20.000000 1.551690
v 213.689774 20.000000 1.563815
v 213.738586 20.000000 1.579307
v 213.786224 20.000000 1.598095
v 213.832474 20.000000 1.620089
v 213.877121 20.000000 1.645189
v 213.919937 20.000000 1.673276
v 213.960739 20.000000 1.704220
v 213.999344 20.000000 1.737877
v 214.035553 20.000000 1.774089
v 214.069214 20.000000 1.812688
v 214.100159 20.000000 1.853493
v 214.128250 20.000000 1.896316
v 214.153336 20.000000 1.940955
v 214.175339 20.000000 1.987203
v 214.194122 20.000000 2.034844
v 214.209610 20.000000 2.083657
v 214.221741 20.000000 2.133412
v 214.230438 20.000000 2.183879
v 214.235687 20.000000 2.234823
v 214.237427 20.000000 2.286005
v 214.237427 20.000000 170.942337
v 214.235687 20.000000 170.993530
v 214.230438 20.000000 171.044464
v 214.221741 20.000000 171.094940
v 214.209610 20.000000 171.144684
v 214.194122 20.000000 171.193497
v 214.175339 20.000000 171.241150
v 214.153336 20.000000 171.287384
v 214.128250 20.000000 171.332031
v 214.100159 20.000000 171.374847
v 214.069214 20.000000 171.415665
v 214.035553 20.000000 171.454254
v 213.999344 20.000000 171.490463
v 213.960739 20.000000 171.524124
v 213.919937 20.000000 171.555069
v 213.877121 20.000000 171.583160
v 213.832474 20.000000 171.608261
v 213.786224 20.000000 171.630249
v 213.738586 20.000000 171.649033
v 213.689774 20.000000 171.664536
v 213.640015 20.000000 171.676651
v 213.589554 20.000000 171.685364
v 213.538605 20.000000 171.690598
v 213.487427 20.000000 171.692337
v 3.175006 20.000000 171.692337
v 3.123824 20.000000 171.690598
v 3.072881 20.000000 171.685364
v 3.022414 20.000000 171.676651
v 2.972658 20.000000 171.664536
v 2.923846 20.000000 171.649033
v 2.876205 20.000000 171.630249
v 2.829957 20.000000 171.608261
v 2.785318 20.000000 171.583160
v 2.742495 20.000000 171.555069
v 2.701689 20.000000 171.524124
v 2.663090 20.000000 171.490463
v 2.626878 20.000000 171.454254
v 2.593222 20.000000 171.415665
v 2.562278 20.000000 171.374847
v 2.534190 20.000000 171.332031
v 2.509091 20.000000 171.287384
v 2.487097 20.000000 171.241150
v 2.468309 20.000000 171.193497
v 2.452817 20.000000 171.144684
v 2.440692 20.000000 171.094940
v 2.431990 20.000000 171.044464
v 2.426753 20.000000 170.993530
v 212.737427 20.000000 3.036006
v 212.737427 20.000000 170.192337
v 3.925008 20.000000 3.036006
v 3.925008 20.000000 170.192337
vn 0.000000 1.000000 0.000000
vn 0.000000 1.000000 0.000000
vn 0.000000 1.000000 0.000000
vn 0.000000 1.000000 0.000000
vn 0.000000 1.000000 0.000000
vn 0.000000 1.000000 0.000000
vn 0.000000 1.000000 0.000000
vn 0.000000 1.000000 0.000000
vn 0.000000 1.000000 0.000000
vn 0.000000 1.000000 0.000000
vn 0.000000 1.000000 0.000000
vn 0.000000 1.000000 0.000000
vn 0.000000 1.000000 0.000000
vn 0.000000 1.000000 0.000000
vn 0.000000 1.000000 0.000000
vn 0.000000 1.000000 0.000000
vn 0.000000 1.000000 0.000000
vn 0.000000 1.000000 0.000000
vn 0.000000 1.000000 0.000000
vn 0.000000 1.000000 0.000000
vn 0.000000 1.000000 0.000000
vn 0.000000 1.000000 0.000000
vn 0.000000 1.000000 0.000000
vn 0.000000 1.000000 0.000000
vn 0.000000 1.000000 0.000000
vn 0.000000 1.000000 0.000000
vn 0.000000 1.000000 0.000000
vn 0.000000 1.000000 0.000000
vn 0.000000 1.000000 0.000000
vn 0.000000 1.000000 0.000000
vn 0.000000 1.000000 0.000000
vn 0.000000 1.000000 0.000000
vn 0.000000 1.000000 0.000000
vn 0.000000 1.000000 0.000000
vn 0.000000 1.000000 0.000000
vn 0.000000 1.000000 0.000000
vn 0.000000 1.000000 0.000000
vn 0.000000 1.000000 0.000000
vn 0.000000 1.000000 0.000000
vn 0.000000 1.000000 0.000000
vn 0.000000 1.000000 0.000000
vn 0.000000 1.000000 0.000000
vn 0.000000 1.000000 0.000000
vn 0.000000 1.000000 0.000000
vn 0.000000 1.000000 0.000000
vn 0.000000 1.000000 0.000000
vn 0.000000 1.000000 0.000000
vn 0.000000 1.000000 0.000000
vn 0.000000 1.000000 0.000000
vn 0.000000 1.000000 0.000000
vn 0.000000 1.000000 0.000000
vn 0.000000 1.000000 0.000000
vn 0.000000 1.000000 0.000000
vn 0.000000 1.000000 0.000000
vn 0.000000 1.000000 0.000000
vn 0.000000 1.000000 0.000000
vn 0.000000 1.000000 0.000000
vn 0.000000 1.000000 0.000000
vn 0.000000 1.000000 0.000000
vn 0.000000 1.000000 0.000000
vn 0.000000 1.000000 0.000000
vn 0.000000 1.000000 0.000000
vn 0.000000 1.000000 0.000000
vn 0.000000 1.000000 0.000000
vn 0.000000 1.000000 0.000000
vn 0.000000 1.000000 0.000000
vn 0.000000 1.000000 0.000000
vn 0.000000 1.000000 0.000000
vn 0.000000 1.000000 0.000000
vn 0.000000 1.000000 0.000000
vn 0.000000 1.000000 0.000000
vn 0.000000 1.000000 0.000000
vn 0.000000 1.000000 0.000000
vn 0.000000 1.000000 0.000000
vn 0.000000 1.000000 0.000000
vn 0.000000 1.000000 0.000000
vn 0.000000 1.000000 0.000000
vn 0.000000 1.000000 0.000000
vn 0.000000 1.000000 0.000000
vn 0.000000 1.000000 0.000000
vn 0.000000 1.000000 0.000000
vn 0.000000 1.000000 0.000000
vn 0.000000 1.000000 0.000000
vn 0.000000 1.000000 0.000000
vn 0.000000 1.000000 0.000000
vn 0.000000 1.000000 0.000000
vn 0.000000 1.000000 0.000000
vn 0.000000 1.000000 0.000000
vn 0.000000 1.000000 0.000000
vn 0.000000 1.000000 0.000000
vn 0.000000 1.000000 0.000000
vn 0.000000 1.000000 0.000000
vn 0.000000 1.000000 0.000000
vn 0.000000 1.000000 0.000000
vn 0.000000 1.000000 0.000000
vn 0.000000 1.000000 0.000000
vn 0.000000 1.000000 0.000000
vn 0.000000 1.000000 0.000000
vn 0.000000 1.000000 0.000000
vn 0.000000 1.000000 0.000000
vt 4169.527344 -3320.000000
vt 4169.527344 3320.000000
vt 4169.458496 3322.015137
vt 4169.252441 3324.020752
vt 4168.910156 3326.007568
vt 4168.432617 3327.966553
vt 4167.822754 3329.888184
vt 4167.083008 3331.763916
vt 4166.217285 3333.584717
vt 4165.229004 3335.342041
vt 4164.123047 3337.028076
vt 4162.904785 3338.634521
vt 4161.579590 3340.154053
vt 4160.154297 3341.579834
vt 4158.634277 3342.904785
vt 4157.027832 3344.123047
vt 4155.342285 3345.229004
vt 4153.584473 3346.217041
vt 4151.763672 3347.083008
vt 4149.888184 3347.822754
vt 4147.966309 3348.432617
vt 4146.007324 3348.909912
vt 4144.020508 3349.252441
vt 4142.015137 3349.458740
vt 4140.000000 3349.527588
vt -4140.000000 3349.527588
vt -4142.015137 3349.458740
vt -4144.020508 3349.252441
vt -4146.007324 3348.909912
vt -4147.966309 3348.432617
vt -4149.888184 3347.822754
vt -4151.763672 3347.083008
vt -4153.584473 3346.217041
vt -4155.342285 3345.229004
vt -4157.027832 3344.123047
vt -4158.634277 3342.904785
vt -4160.154297 3341.579834
vt -4161.579590 3340.154053
vt -4162.904785 3338.634521
vt -4164.123047 3337.028076
vt -4165.229004 3335.342041
vt -4166.217285 3333.584717
vt -4167.083008 3331.763916
vt -4167.822754 3329.888184
vt -4168.432617 3327.966553
vt -4168.910156 3326.007568
vt -4169.252441 3324.020752
vt -4169.458496 3322.015137
vt -4169.527344 3320.000000
vt -4169.527344 -3320.000000
vt -4169.458496 -3322.015137
vt -4169.252441 -3324.020752
vt -4168.910156 -3326.007568
vt -4168.432617 -3327.966553
vt -4167.822754 -3329.888184
vt -4167.083008 -3331.763916
vt -4166.217285 -3333.584717
vt -4165.229004 -3335.342041
vt -4164.123047 -3337.028076
vt -4162.904785 -3338.634521
vt -4161.579590 -3340.154053
vt -4160.154297 -3341.579834
vt -4158.634277 -3342.904785
vt -4157.027832 -3344.123047
vt -4155.342285 -3345.229004
vt -4153.584473 -3346.217041
vt -4151.763672 -3347.083008
vt -4149.888184 -3347.822754
vt -4147.966309 -3348.432617
vt -4146.007324 -3348.909912
vt -4144.020508 -3349.252441
vt -4142.015137 -3349.458740
vt -4140.000000 -3349.527588
vt 4140.000000 -3349.527588
vt 4142.015137 -3349.458740
vt 4144.020508 -3349.252441
vt 4146.007324 -3348.909912
vt 4147.966309 -3348.432617
vt 4149.888184 -3347.822754
vt 4151.763672 -3347.083008
vt 4153.584473 -3346.217041
vt 4155.342285 -3345.229004
vt 4157.027832 -3344.123047
vt 4158.634277 -3342.904785
vt 4160.154297 -3341.579834
vt 4161.579590 -3340.154053
vt 4162.904785 -3338.634521
vt 4164.123047 -3337.028076
vt 4165.229004 -3335.342041
vt 4166.217285 -3333.584717
vt 4167.083008 -3331.763916
vt 4167.822754 -3329.888184
vt 4168.432617 -3327.966553
vt 4168.910156 -3326.007568
vt 4169.252441 -3324.020752
vt 4169.458496 -3322.015137
vt -4110.472656 3290.472412
vt -4110.472656 -3290.472412
vt 4110.472656 3290.472412
vt 4110.472656 -3290.472412
f 171/171/171 169/169/169 168/168/168
f 171/171/171 170/170/170 169/169/169
f 173/173/173 172/172/172 171/171/171
f 166/166/166 168/168/168 167/167/167
f 164/164/164 166/166/166 165/165/165
f 175/175/175 174/174/174 173/173/173
f 163/163/163 168/168/168 166/166/166
f 163/163/163 166/166/166 164/164/164
f 176/176/176 173/173/173 171/171/171
f 176/176/176 175/175/175 173/173/173
f 177/177/177 171/171/171 168/168/168
f 177/177/177 168/168/168 163/163/163
f 177/177/177 176/176/176 171/171/171
f 161/161/161 177/177/177 163/163/163
f 161/161/161 163/163/163 162/162/162
f 179/179/179 177/177/177 161/161/161
f 179/179/179 178/178/178 177/177/177
f 158/158/158 160/160/160 159/159/159
f 158/158/158 161/161/161 160/160/160
f 181/181/181 179/179/179 161/161/161
f 181/181/181 161/161/161 158/158/158
f 181/181/181 180/180/180 179/179/179
f 206/206/206 181/181/181 158/158/158
f 154/154/154 156/156/156 155/155/155
f 154/154/154 157/157/157 156/156/156
f 153/153/153 157/157/157 154/154/154
f 152/152/152 157/157/157 153/153/153
f 149/149/149 151/151/151 150/150/150
f 149/149/149 152/152/152 151/151/151
f 149/149/149 157/157/157 152/152/152
f 147/147/147 149/149/149 148/148/148
f 146/146/146 157/157/157 149/149/149
f 146/146/146 149/149/149 147/147/147
f 205/205/205 158/158/158 157/157/157
f 205/205/205 206/206/206 158/158/158
f 144/144/144 146/146/146 145/145/145
f 144/144/144 157/157/157 146/146/146
f 142/142/142 144/144/144 143/143/143
f 140/140/140 142/142/142 141/141/141
f 140/140/140 144/144/144 142/142/142
f 138/138/138 140/140/140 139/139/139
f 137/137/137 140/140/140 138/138/138
f 136/136/136 157/157/157 144/144/144
f 136/136/136 144/144/144 140/140/140
f 136/136/136 140/140/140 137/137/137
f 134/134/134 136/136/136 135/135/135
f 134/134/134 205/205/205 157/157/157
f 134/134/134 157/157/157 136/136/136
f 182/182/182 181/181/181 206/206/206
f 187/187/187 185/185/185 184/184/184
f 187/187/187 186/186/186 185/185/185
f 189/189/189 188/188/188 187/187/187
f 191/191/191 187/187/187 184/184/184
f 191/191/191 189/189/189 187/187/187
f 191/191/191 184/184/184 183/183/183
f 191/191/191 190/190/190 189/189/189
f 192/192/192 191/191/191 183/183/183
f 193/193/193 192/192/192 183/183/183
f 208/208/208 182/182/182 206/206/206
f 195/195/195 193/193/193 183/183/183
f 195/195/195 183/183/183 182/182/182
f 195/195/195 194/194/194 193/193/193
f 198/198/198 195/195/195 182/182/182
f 198/198/198 196/196/196 195/195/195
f 198/198/198 197/197/197 196/196/196
f 200/200/200 199/199/199 198/198/198
f 201/201/201 198/198/198 182/182/182
f 201/201/201 200/200/200 198/198/198
f 202/202/202 201/201/201 182/182/182
f 109/109/109 182/182/182 208/208/208
f 109/109/109 202/202/202 182/182/182
f 109/109/109 203/203/203 202/202/202
f 109/109/109 204/204/204 203/203/203
f 133/133/133 205/205/205 134/134/134
f 133/133/133 207/207/207 205/205/205
f 110/110/110 109/109/109 208/208/208
f 110/110/110 207/207/207 133/133/133
f 110/110/110 208/208/208 207/207/207
f 113/113/113 111/111/111 110/110/110
f 113/113/113 112/112/112 111/111/111
f 113/113/113 132/132/132 131/131/131
f 113/113/113 133/133/133 132/132/132
f 113/113/113 110/110/110 133/133/133
f 129/129/129 131/131/131 130/130/130
f 127/127/127 129/129/129 128/128/128
f 117/117/117 116/116/116 115/115/115
f 118/118/118 114/114/114 113/113/113
f 118/118/118 115/115/115 114/114/114
f 118/118/118 117/117/117 115/115/115
f 125/125/125 127/127/127 126/126/126
f 125/125/125 129/129/129 127/127/127
f 124/124/124 131/131/131 129/129/129
f 124/124/124 129/129/129 125/125/125
f 123/123/123 131/131/131 124/124/124
f 120/120/120 119/119/119 118/118/118
f 121/121/121 123/123/123 122/122/122
f 121/121/121 113/113/113 131/131/131
f 121/121/121 131/131/131 123/123/123
f 121/121/121 118/118/118 113/113/113
f 121/121/121 120/120/120 118/118/118
v 2.431990 0.000000 171.044464
v 2.431990 20.000000 171.044464
v 2.426753 20.000000 170.993530
v 2.426753 0.000000 170.993530
vn -0.994757 0.000000 0.102264
vn -0.994757 0.000000 0.102264
vn -0.994757 0.000000 0.102264
vn -0.994757 0.000000 0.102264
vt 0.000000 0.000000
vt 0.000000 -787.400024
vt 2.016207 -787.400024
vt 2.016207 0.000000
f 212/212/212 209/209/209 210/210/210
f 212/212/212 210/210/210 211/211/211
v 2.426753 0.000000 2.234823
v 2.426753 20.000000 2.234823
v 2.431990 20.000000 2.183879
v 2.431990 0.000000 2.183879
vn -0.994757 0.000000 -0.102264
vn -0.994757 0.000000 -0.102264
vn -0.994757 0.000000 -0.102264
vn -0.994757 0.000000 -0.102264
vt 0.000000 0.000000
vt 0.000000 -787.400024
vt 2.016207 -787.400024
vt 2.016207 0.000000
f 216/216/216 213/213/213 214/214/214
f 216/216/216 214/214/214 215/215/215
v 2.431990 0.000000 2.183879
v 2.431990 20.000000 2.183879
v 2.440692 20.000000 2.133412
v 2.440692 0.000000 2.133412
vn -0.985460 0.000000 -0.169910
vn -0.985460 0.000000 -0.169910
vn -0.985460 0.000000 -0.169910
vn -0.985460 0.000000 -0.169910
vt 0.000000 0.000000
vt 0.000000 -787.400024
vt 2.016207 -787.400024
vt 2.016207 0.000000
f 220/220/220 217/217/217 218/218/218
f 220/220/220 218/218/218 219/219/219
v 2.440692 0.000000 2.133412
v 2.440692 20.000000 2.133412
v 2.452817 20.000000 2.083657
v 2.452817 0.000000 2.083657
vn -0.971567 0.000000 -0.236764
vn -0.971567 0.000000 -0.236764
vn -0.971567 0.000000 -0.236764
vn -0.971567 0.000000 -0.236764
vt 0.000000 0.000000
vt 0.000000 -787.400024
vt 2.016207 -787.400024
vt 2.016207 0.000000
f 224/224/224 221/221/221 222/222/222
f 224/224/224 222/222/222 223/223/223
v 2.452817 0.000000 2.083657
v 2.452817 20.000000 2.083657
v 2.468309 20.000000 2.034844
v 2.468309 0.000000 2.034844
vn -0.953145 0.000000 -0.302515
vn -0.953145 0.000000 -0.302515
vn -0.953145 0.000000 -0.302515
vn -0.953145 0.000000 -0.302515
vt 0.000000 0.000000
vt 0.000000 -787.400024
vt 2.016207 -787.400024
vt 2.016207 0.000000
f 228/228/228 225/225/225 226/226/226
f 228/228/228 226/226/226 227/227/227
v 2.468309 0.000000 2.034844
v 2.468309 20.000000 2.034844
v 2.487097 20.000000 1.987203
v 2.487097 0.000000 1.987203
vn -0.930278 0.000000 -0.366854
vn -0.930278 0.000000 -0.366854
vn -0.930278 0.000000 -0.366854
vn -0.930278 0.000000 -0.366854
vt 0.000000 0.000000
vt 0.000000 -787.400024
vt 2.016207 -787.400024
vt 2.016207 0.000000
f 232/232/232 229/229/229 230/230/230
f 232/232/232 230/230/230 231/231/231
v 2.487097 0.000000 1.987203
v 2.487097 20.000000 1.987203
v 2.509091 20.000000 1.940955
v 2.509091 0.000000 1.940955
vn -0.903075 0.000000 -0.429483
vn -0.903075 0.000000 -0.429483
vn -0.903075 0.000000 -0.429483
vn -0.903075 0.000000 -0.429483
vt 0.000000 0.000000
vt 0.000000 -787.400024
vt 2.016207 -787.400024
vt 2.016207 0.000000
f 236/236/236 233/233/233 234/234/234
f 236/236/236 234/234/234 235/235/235
v 2.509091 0.000000 1.940955
v 2.509091 20.000000 1.940955
v 2.534190 20.000000 1.896316
v 2.534190 0.000000 1.896316
vn -0.871660 0.000000 -0.490110
vn -0.871660 0.000000 -0.490110
vn -0.871660 0.000000 -0.490110
vn -0.871660 0.000000 -0.490110
vt 0.000000 0.000000
vt 0.000000 -787.400024
vt 2.016207 -787.400024
vt 2.016207 0.000000
f 240/240/240 237/237/237 238/238/238
f 240/240/240 238/238/238 239/239/239
v 2.534190 0.000000 1.896316
v 2.534190 20.000000 1.896316
v 2.562278 20.000000 1.853493
v 2.562278 0.000000 1.853493
vn -0.836182 0.000000 -0.548452
vn -0.836182 0.000000 -0.548452
vn -0.836182 0.000000 -0.548452
vn -0.836182 0.000000 -0.548452
vt 0.000000 0.000000
vt 0.000000 -787.400024
vt 2.016207 -787.400024
vt 2.016207 0.000000
f 244/244/244 241/241/241 242/242/242
f 244/244/244 242/242/242 243/243/243
v 2.562278 0.000000 1.853493
v 2.562278 20.000000 1.853493
v 2.593222 20.000000 1.812688
v 2.593222 0.000000 1.812688
vn -0.796805 0.000000 -0.604236
vn -0.796805 0.000000 -0.604236
vn -0.796805 0.000000 -0.604236
vn -0.796805 0.000000 -0.604236
vt 0.000000 0.000000
vt 0.000000 -787.400024
vt 2.016207 -787.400024
vt 2.016207 0.000000
f 248/248/248 245/245/245 246/246/246
f 248/248/248 246/246/246 247/247/247
v 2.593222 0.000000 1.812688
v 2.593222 20.000000 1.812688
v 2.626878 20.000000 1.774089
v 2.626878 0.000000 1.774089
vn -0.753713 0.000000 -0.657204
vn -0.753713 0.000000 -0.657204
vn -0.753713 0.000000 -0.657204
vn -0.753713 0.000000 -0.657204
vt 0.000000 0.000000
vt 0.000000 -787.400024
vt 2.016207 -787.400024
vt 2.016207 0.000000
f 252/252/252 249/249/249 250/250/250
f 252/252/252 250/250/250 251/251/251
v 2.626878 0.000000 1.774089
v 2.626878 20.000000 1.774089
v 2.663090 20.000000 1.737877
v 2.663090 0.000000 1.737877
vn -0.707107 0.000000 -0.707107
vn -0.707107 0.000000 -0.707107
vn -0.707107 0.000000 -0.707107
vn -0.707107 0.000000 -0.707107
vt 0.000000 0.000000
vt 0.000000 -787.400024
vt 2.016207 -787.400024
vt 2.016207 0.000000
f 256/256/256 253/253/253 254/254/254
f 256/256/256 254/254/254 255/255/255
v 2.663090 0.000000 1.737877
v 2.663090 20.000000 1.737877
v 2.701689 20.000000 1.704220
v 2.701689 0.000000 1.704220
vn -0.657204 0.000000 -0.753713
vn -0.657204 0.000000 -0.753713
vn -0.657204 0.000000 -0.753713
vn -0.657204 0.000000 -0.753713
vt 0.000000 0.000000
vt 0.000000 -787.400024
vt 2.016207 -787.400024
vt 2.016207 0.000000
f 260/260/260 257/257/257 258/258/258
f 260/260/260 258/258/258 259/259/259
v 2.701689 0.000000 1.704220
v 2.701689 20.000000 1.704220
v 2.742495 20.000000 1.673276
v 2.742495 0.000000 1.673276
vn -0.604236 0.000000 -0.796805
vn -0.604236 0.000000 -0.796805
vn -0.604236 0.000000 -0.796805
vn -0.604236 0.000000 -0.796805
vt 0.000000 0.000000
vt 0.000000 -787.400024
vt 2.016207 -787.400024
vt 2.016207 0.000000
f 264/264/264 261/261/261 262/262/262
f 264/264/264 262/262/262 263/263/263
v 2.742495 0.000000 1.673276
v 2.742495 20.000000 1.673276
v 2.785318 20.000000 1.645189
v 2.785318 0.000000 1.645189
vn -0.548452 0.000000 -0.836182
vn -0.548452 0.000000 -0.836182
vn -0.548452 0.000000 -0.836182
vn -0.548452 0.000000 -0.836182
vt 0.000000 0.000000
vt 0.000000 -787.400024
vt 2.016207 -787.400024
vt 2.016207 0.000000
f 268/268/268 265/265/265 266/266/266
f 268/268/268 266/266/266 267/267/267
v 2.785318 0.000000 1.645189
v 2.785318 20.000000 1.645189
v 2.829957 20.000000 1.620089
v 2.829957 0.000000 1.620089
vn -0.490110 0.000000 -0.871660
vn -0.490110 0.000000 -0.871660
vn -0.490110 0.000000 -0.871660
vn -0.490110 0.000000 -0.871660
vt 0.000000 0.000000
vt 0.000000 -787.400024
vt 2.016207 -787.400024
vt 2.016207 0.000000
f 272/272/272 269/269/269 270/270/270
f 272/272/272 270/270/270 271/271/271
v 2.829957 0.000000 1.620089
v 2.829957 20.000000 1.620089
v 2.876205 20.000000 1.598095
v 2.876205 0.000000 1.598095
vn -0.429483 0.000000 -0.903075
vn -0.429483 0.000000 -0.903075
vn -0.429483 0.000000 -0.903075
vn -0.429483 0.000000 -0.903075
vt 0.000000 0.000000
vt 0.000000 -787.400024
vt 2.016207 -787.400024
vt 2.016207 0.000000
f 276/276/276 273/273/273 274/274/274
f 276/276/276 274/274/274 275/275/275
v 2.876205 0.000000 1.598095
v 2.876205 20.000000 1.598095
v 2.923846 20.000000 1.579307
v 2.923846 0.000000 1.579307
vn -0.366854 0.000000 -0.930278
vn -0.366854 0.000000 -0.930278
vn -0.366854 0.000000 -0.930278
vn -0.366854 0.000000 -0.930278
vt 0.000000 0.000000
vt 0.000000 -787.400024
vt 2.016207 -787.400024
vt 2.016207 0.000000
f 280/280/280 277/277/277 278/278/278
f 280/280/280 278/278/278 279/279/279
v 2.923846 0.000000 1.579307
v 2.923846 20.000000 1.579307
v 2.972658 20.000000 1.563815
v 2.972658 0.000000 1.563815
vn -0.302515 0.000000 -0.953145
vn -0.302515 0.000000 -0.953145
vn -0.302515 0.000000 -0.953145
vn -0.302515 0.000000 -0.953145
vt 0.000000 0.000000
vt 0.000000 -787.400024
vt 2.016207 -787.400024
vt 2.016207 0.000000
f 284/284/284 281/281/281 282/282/282
f 284/284/284 282/282/282 283/283/283
v 2.972658 0.000000 1.563815
v 2.972658 20.000000 1.563815
v 3.022414 20.000000 1.551690
v 3.022414 0.000000 1.551690
vn -0.236764 0.000000 -0.971567
vn -0.236764 0.000000 -0.971567
vn -0.236764 0.000000 -0.971567
vn -0.236764 0.000000 -0.971567
vt 0.000000 0.000000
vt 0.000000 -787.400024
vt 2.016207 -787.400024
vt 2.016207 0.000000
f 288/288/288 285/285/285 286/286/286
f 288/288/288 286/286/286 287/287/287
v 3.022414 0.000000 1.551690
v 3.022414 20.000000 1.551690
v 3.072881 20.000000 1.542989
v 3.072881 0.000000 1.542989
vn -0.169910 0.000000 -0.985460
vn -0.169910 0.000000 -0.985460
vn -0.169910 0.000000 -0.985460
vn -0.169910 0.000000 -0.985460
vt 0.000000 0.000000
vt 0.000000 -787.400024
vt 2.016207 -787.400024
vt 2.016207 0.000000
f 292/292/292 289/289/289 290/290/290
f 292/292/292 290/290/290 291/291/291
v 3.072881 0.000000 1.542989
v 3.072881 20.000000 1.542989
v 3.123824 20.000000 1.537751
v 3.123824 0.000000 1.537751
vn -0.102264 0.000000 -0.994757
vn -0.102264 0.000000 -0.994757
vn -0.102264 0.000000 -0.994757
vn -0.102264 0.000000 -0.994757
vt 0.000000 0.000000
vt 0.000000 -787.400024
vt 2.016207 -787.400024
vt 2.016207 0.000000
f 296/296/296 293/293/293 294/294/294
f 296/296/296 294/294/294 295/295/295
v 3.123824 0.000000 1.537751
v 3.123824 20.000000 1.537751
v 3.175006 20.000000 1.536003
v 3.175006 0.000000 1.536003
vn -0.034141 0.000000 -0.999417
vn -0.034141 0.000000 -0.999417
vn -0.034141 0.000000 -0.999417
vn -0.034141 0.000000 -0.999417
vt 0.000000 0.000000
vt 0.000000 -787.400024
vt 2.016207 -787.400024
vt 2.016207 0.000000
f 300/300/300 297/297/297 298/298/298
f 300/300/300 298/298/298 299/299/299
v 3.175006 0.000000 1.536003
v 3.175006 20.000000 1.536003
v 213.487427 20.000000 1.536003
v 213.487427 0.000000 1.536003
vn 0.000000 0.000000 -1.000000
vn 0.000000 0.000000 -1.000000
vn 0.000000 0.000000 -1.000000
vn 0.000000 0.000000 -1.000000
vt 0.000000 0.000000
vt 0.000000 -787.400024
vt 8280.000000 -787.400024
vt 8280.000000 0.000000
f 304/304/304 301/301/301 302/302/302
f 304/304/304 302/302/302 303/303/303
v 213.487427 0.000000 1.536003
v 213.487427 20.000000 1.536003
v 213.538605 20.000000 1.537751
v 213.538605 0.000000 1.537751
vn 0.034141 0.000000 -0.999417
vn 0.034141 0.000000 -0.999417
vn 0.034141 0.000000 -0.999417
vn 0.034141 0.000000 -0.999417
vt 0.000000 0.000000
vt 0.000000 -787.400024
vt 2.016207 -787.400024
vt 2.016207 0.000000
f 308/308/308 305/305/305 306/306/306
f 308/308/308 306/306/306 307/307/307
v 213.538605 0.000000 1.537751
v 213.538605 20.000000 1.537751
v 213.589554 20.000000 1.542989
v 213.589554 0.000000 1.542989
vn 0.102264 0.000000 -0.994757
vn 0.102264 0.000000 -0.994757
vn 0.102264 0.000000 -0.994757
vn 0.102264 0.000000 -0.994757
vt 0.000000 0.000000
vt 0.000000 -787.400024
vt 2.016207 -787.400024
vt 2.016207 0.000000
f 312/312/312 309/309/309 310/310/310
f 312/312/312 310/310/310 311/311/311
v 213.589554 0.000000 1.542989
v 213.589554 20.000000 1.542989
v 213.640015 20.000000 1.551690
v 213.640015 0.000000 1.551690
vn 0.169910 0.000000 -0.985460
vn 0.169910 0.000000 -0.985460
vn 0.169910 0.000000 -0.985460
vn 0.169910 0.000000 -0.985460
vt 0.000000 0.000000
vt 0.000000 -787.400024
vt 2.016207 -787.400024
vt 2.016207 0.000000
f 316/316/316 313/313/313 314/314/314
f 316/316/316 314/314/314 315/315/315
v 213.640015 0.000000 1.551690
v 213.640015 20.000000 1.551690
v 213.689774 20.000000 1.563815
v 213.689774 0.000000 1.563815
vn 0.236764 0.000000 -0.971567
vn 0.236764 0.000000 -0.971567
vn 0.236764 0.000000 -0.971567
vn 0.236764 0.000000 -0.971567
vt 0.000000 0.000000
vt 0.000000 -787.400024
vt 2.016207 -787.400024
vt 2.016207 0.000000
f 320/320/320 317/317/317 318/318/318
f 320/320/320 318/318/318 319/319/319
v 213.689774 0.000000 1.563815
v 213.689774 20.000000 1.563815
v 213.738586 20.000000 1.579307
v 213.738586 0.000000 1.579307
vn 0.302515 0.000000 -0.953145
vn 0.302515 0.000000 -0.953145
vn 0.302515 0.000000 -0.953145
vn 0.302515 0.000000 -0.953145
vt 0.000000 0.000000
vt 0.000000 -787.400024
vt 2.016207 -787.400024
vt 2.016207 0.000000
f 324/324/324 321/321/321 322/322/322
f 324/324/324 322/322/322 323/323/323
v 213.738586 0.000000 1.579307
v 213.738586 20.000000 1.579307
v 213.786224 20.000000 1.598095
v 213.786224 0.000000 1.598095
vn 0.366854 0.000000 -0.930278
vn 0.366854 0.000000 -0.930278
vn 0.366854 0.000000 -0.930278
vn 0.366854 0.000000 -0.930278
vt 0.000000 0.000000
vt 0.000000 -787.400024
vt 2.016207 -787.400024
vt 2.016207 0.000000
f 328/328/328 325/325/325 326/326/326
f 328/328/328 326/326/326 327/327/327
v 213.786224 0.000000 1.598095
v 213.786224 20.000000 1.598095
v 213.832474 20.000000 1.620089
v 213.832474 0.000000 1.620089
vn 0.429483 0.000000 -0.903075
vn 0.429483 0.000000 -0.903075
vn 0.429483 0.000000 -0.903075
vn 0.429483 0.000000 -0.903075
vt 0.000000 0.000000
vt 0.000000 -787.400024
vt 2.016207 -787.400024
vt 2.016207 0.000000
f 332/332/332 329/329/329 330/330/330
f 332/332/332 330/330/330 331/331/331
v 213.832474 0.000000 1.620089
v 213.832474 20.000000 1.620089
v 213.877121 20.000000 1.645189
v 213.877121 0.000000 1.645189
vn 0.490110 0.000000 -0.871660
vn 0.490110 0.000000 -0.871660
vn 0.490110 0.000000 -0.871660
vn 0.490110 0.000000 -0.871660
vt 0.000000 0.000000
vt 0.000000 -787.400024
vt 2.016207 -787.400024
vt 2.016207 0.000000
f 336/336/336 333/333/333 334/334/334
f 336/336/336 334/334/334 335/335/335
v 213.877121 0.000000 1.645189
v 213.877121 20.000000 1.645189
v 213.919937 20.000000 1.673276
v 213.919937 0.000000 1.673276
vn 0.548452 0.000000 -0.836182
vn 0.548452 0.000000 -0.836182
vn 0.548452 0.000000 -0.836182
vn 0.548452 0.000000 -0.836182
vt 0.000000 0.000000
vt 0.000000 -787.400024
vt 2.016207 -787.400024
vt 2.016207 0.000000
f 340/340/340 337/337/337 338/338/338
f 340/340/340 338/338/338 339/339/339
v 213.919937 0.000000 1.673276
v 213.919937 20.000000 1.673276
v 213.960739 20.000000 1.704220
v 213.960739 0.000000 1.704220
vn 0.604236 0.000000 -0.796805
vn 0.604236 0.000000 -0.796805
vn 0.604236 0.000000 -0.796805
vn 0.604236 0.000000 -0.796805
vt 0.000000 0.000000
vt 0.000000 -787.400024
vt 2.016207 -787.400024
vt 2.016207 0.000000
f 344/344/344 341/341/341 342/342/342
f 344/344/344 342/342/342 343/343/343
v 213.960739 0.000000 1.704220
v 213.960739 20.000000 1.704220
v 213.999344 20.000000 1.737877
v 213.999344 0.000000 1.737877
vn 0.657204 0.000000 -0.753713
vn 0.657204 0.000000 -0.753713
vn 0.657204 0.000000 -0.753713
vn 0.657204 0.000000 -0.753713
vt 0.000000 0.000000
vt 0.000000 -787.400024
vt 2.016207 -787.400024
vt 2.016207 0.000000
f 348/348/348 345/345/345 346/346/346
f 348/348/348 346/346/346 347/347/347
v 213.999344 0.000000 1.737877
v 213.999344 20.000000 1.737877
v 214.035553 20.000000 1.774089
v 214.035553 0.000000 1.774089
vn 0.707107 0.000000 -0.707107
vn 0.707107 0.000000 -0.707107
vn 0.707107 0.000000 -0.707107
vn 0.707107 0.000000 -0.707107
vt 0.000000 0.000000
vt 0.000000 -787.400024
vt 2.016207 -787.400024
vt 2.016207 0.000000
f 352/352/352 349/349/349 350/350/350
f 352/352/352 350/350/350 351/351/351
v 214.035553 0.000000 1.774089
v 214.035553 20.000000 1.774089
v 214.069214 20.000000 1.812688
v 214.069214 0.000000 1.812688
vn 0.753713 0.000000 -0.657204
vn 0.753713 0.000000 -0.657204
vn 0.753713 0.000000 -0.657204
vn 0.753713 0.000000 -0.657204
vt 0.000000 0.000000
vt 0.000000 -787.400024
vt 2.016207 -787.400024
vt 2.016207 0.000000
f 356/356/356 353/353/353 354/354/354
f 356/356/356 354/354/354 355/355/355
v 214.069214 0.000000 1.812688
v 214.069214 20.000000 1.812688
v 214.100159 20.000000 1.853493
v 214.100159 0.000000 1.853493
vn 0.796805 0.000000 -0.604236
vn 0.796805 0.000000 -0.604236
vn 0.796805 0.000000 -0.604236
vn 0.796805 0.000000 -0.604236
vt 0.000000 0.000000
vt 0.000000 -787.400024
vt 2.016207 -787.400024
vt 2.016207 0.000000
f 360/360/360 357/357/357 358/358/358
f 360/360/360 358/358/358 359/359/359
v 214.100159 0.000000 1.853493
v 214.100159 20.000000 1.853493
v 214.128250 20.000000 1.896316
v 214.128250 0.000000 1.896316
vn 0.836182 0.000000 -0.548452
vn 0.836182 0.000000 -0.548452
vn 0.836182 0.000000 -0.548452
vn 0.836182 0.000000 -0.548452
vt 0.000000 0.000000
vt 0.000000 -787.400024
vt 2.016207 -787.400024
vt 2.016207 0.000000
f 364/364/364 361/361/361 362/362/362
f 364/364/364 362/362/362 363/363/363
v 214.128250 0.000000 1.896316
v 214.128250 20.000000 1.896316
v 214.153336 20.000000 1.940955
v 214.153336 0.000000 1.940955
vn 0.871660 0.000000 -0.490110
vn 0.871660 0.000000 -0.490110
vn 0.871660 0.000000 -0.490110
vn 0.871660 0.000000 -0.490110
vt 0.000000 0.000000
vt 0.000000 -787.400024
vt 2.016207 -787.400024
vt 2.016207 0.000000
f 368/368/368 365/365/365 366/366/366
f 368/368/368 366/366/366 367/367/367
v 214.153336 0.000000 1.940955
v 214.153336 20.000000 1.940955
v 214.175339 20.000000 1.987203
v 214.175339 0.000000 1.987203
vn 0.903075 0.000000 -0.429483
vn 0.903075 0.000000 -0.429483
vn 0.903075 0.000000 -0.429483
vn 0.903075 0.000000 -0.429483
vt 0.000000 0.000000
vt 0.000000 -787.400024
vt 2.016207 -787.400024
vt 2.016207 0.000000
f 372/372/372 369/369/369 370/370/370
f 372/372/372 370/370/370 371/371/371
v 214.175339 0.000000 1.987203
v 214.175339 20.000000 1.987203
v 214.194122 20.000000 2.034844
v 214.194122 0.000000 2.034844
vn 0.930278 0.000000 -0.366854
vn 0.930278 0.000000 -0.366854
vn 0.930278 0.000000 -0.366854
vn 0.930278 0.000000 -0.366854
vt 0.000000 0.000000
vt 0.000000 -787.400024
vt 2.016207 -787.400024
vt 2.016207 0.000000
f 376/376/376 373/373/373 374/374/374
f 376/376/376 374/374/374 375/375/375
v 214.194122 0.000000 2.034844
v 214.194122 20.000000 2.034844
v 214.209610 20.000000 2.083657
v 214.209610 0.000000 2.083657
vn 0.953145 0.000000 -0.302515
vn 0.953145 0.000000 -0.302515
vn 0.953145 0.000000 -0.302515
vn 0.953145 0.000000 -0.302515
vt 0.000000 0.000000
vt 0.000000 -787.400024
vt 2.016207 -787.400024
vt 2.016207 0.000000
f 380/380/380 377/377/377 378/378/378
f 380/380/380 378/378/378 379/379/379
v 214.209610 0.000000 2.083657
v 214.209610 20.000000 2.083657
v 214.221741 20.000000 2.133412
v 214.221741 0.000000 2.133412
vn 0.971567 0.000000 -0.236764
vn 0.971567 0.000000 -0.236764
vn 0.971567 0.000000 -0.236764
vn 0.971567 0.000000 -0.236764
vt 0.000000 0.000000
vt 0.000000 -787.400024
vt 2.016207 -787.400024
vt 2.016207 0.000000
f 384/384/384 381/381/381 382/382/382
f 384/384/384 382/382/382 383/383/383
v 214.221741 0.000000 2.133412
v 214.221741 20.000000 2.133412
v 214.230438 20.000000 2.183879
v 214.230438 0.000000 2.183879
vn 0.985460 0.000000 -0.169910
vn 0.985460 0.000000 -0.169910
vn 0.985460 0.000000 -0.169910
vn 0.985460 0.000000 -0.169910
vt 0.000000 0.000000
vt 0.000000 -787.400024
vt 2.016207 -787.400024
vt 2.016207 0.000000
f 388/388/388 385/385/385 386/386/386
f 388/388/388 386/386/386 387/387/387
v 214.230438 0.000000 2.183879
v 214.230438 20.000000 2.183879
v 214.235687 20.000000 2.234823
v 214.235687 0.000000 2.234823
vn 0.994757 0.000000 -0.102264
vn 0.994757 0.000000 -0.102264
vn 0.994757 0.000000 -0.102264
vn 0.994757 0.000000 -0.102264
vt 0.000000 0.000000
vt 0.000000 -787.400024
vt 2.016207 -787.400024
vt 2.016207 0.000000
f 392/392/392 389/389/389 390/390/390
f 392/392/392 390/390/390 391/391/391
v 214.235687 0.000000 2.234823
v 214.235687 20.000000 2.234823
v 214.237427 20.000000 2.286005
v 214.237427 0.000000 2.286005
vn 0.999417 0.000000 -0.034141
vn 0.999417 0.000000 -0.034141
vn 0.999417 0.000000 -0.034141
vn 0.999417 0.000000 -0.034141
vt 0.000000 0.000000
vt 0.000000 -787.400024
vt 2.016207 -787.400024
vt 2.016207 0.000000
f 396/396/396 393/393/393 394/394/394
f 396/396/396 394/394/394 395/395/395
v 214.237427 0.000000 2.286005
v 214.237427 20.000000 2.286005
v 214.237427 20.000000 170.942337
v 214.237427 0.000000 170.942337
vn 1.000000 0.000000 0.000000
vn 1.000000 0.000000 0.000000
vn 1.000000 0.000000 0.000000
vn 1.000000 0.000000 0.000000
vt 0.000000 0.000000
vt 0.000000 -787.400024
vt 6640.000000 -787.400024
vt 6640.000000 0.000000
f 400/400/400 397/397/397 398/398/398
f 400/400/400 398/398/398 399/399/399
v 214.237427 0.000000 170.942337
v 214.237427 20.000000 170.942337
v 214.235687 20.000000 170.993530
v 214.235687 0.000000 170.993530
vn 0.999417 0.000000 0.034141
vn 0.999417 0.000000 0.034141
vn 0.999417 0.000000 0.034141
vn 0.999417 0.000000 0.034141
vt 0.000000 0.000000
vt 0.000000 -787.400024
vt 2.016207 -787.400024
vt 2.016207 0.000000
f 404/404/404 401/401/401 402/402/402
f 404/404/404 402/402/402 403/403/403
v 214.235687 0.000000 170.993530
v 214.235687 20.000000 170.993530
v 214.230438 20.000000 171.044464
v 214.230438 0.000000 171.044464
vn 0.994757 0.000000 0.102264
vn 0.994757 0.000000 0.102264
vn 0.994757 0.000000 0.102264
vn 0.994757 0.000000 0.102264
vt 0.000000 0.000000
vt 0.000000 -787.400024
vt 2.016207 -787.400024
vt 2.016207 0.000000
f 408/408/408 405/405/405 406/406/406
f 408/408/408 406/406/406 407/407/407
v 214.230438 0.000000 171.044464
v 214.230438 20.000000 171.044464
v 214.221741 20.000000 171.094940
v 214.221741 0.000000 171.094940
vn 0.985460 0.000000 0.169910
vn 0.985460 0.000000 0.169910
vn 0.985460 0.000000 0.169910
vn 0.985460 0.000000 0.169910
vt 0.000000 0.000000
vt 0.000000 -787.400024
vt 2.016207 -787.400024
vt 2.016207 0.000000
f 412/412/412 409/409/409 410/410/410
f 412/412/412 410/410/410 411/411/411
v 214.221741 0.000000 171.094940
v 214.221741 20.000000 171.094940
v 214.209610 20.000000 171.144684
v 214.209610 0.000000 171.144684
vn 0.971567 0.000000 0.236764
vn 0.971567 0.000000 0.236764
vn 0.971567 0.000000 0.236764
vn 0.971567 0.000000 0.236764
vt 0.000000 0.000000
vt 0.000000 -787.400024
vt 2.016207 -787.400024
vt 2.016207 0.000000
f 416/416/416 413/413/413 414/414/414
f 416/416/416 414/414/414 415/415/415
v 214.209610 0.000000 171.144684
v 214.209610 20.000000 171.144684
v 214.194122 20.000000 171.193497
v 214.194122 0.000000 171.193497
vn 0.953145 0.000000 0.302515
vn 0.953145 0.000000 0.302515
vn 0.953145 0.000000 0.302515
vn 0.953145 0.000000 0.302515
vt 0.000000 0.000000
vt 0.000000 -787.400024
vt 2.016207 -787.400024
vt 2.016207 0.000000
f 420/420/420 417/417/417 418/418/418
f 420/420/420 418/418/418 419/419/419
v 214.194122 0.000000 171.193497
v 214.194122 20.000000 171.193497
v 214.175339 20.000000 171.241150
v 214.175339 0.000000 171.241150
vn 0.930278 0.000000 0.366854
vn 0.930278 0.000000 0.366854
vn 0.930278 0.000000 0.366854
vn 0.930278 0.000000 0.366854
vt 0.000000 0.000000
vt 0.000000 -787.400024
vt 2.016207 -787.400024
vt 2.016207 0.000000
f 424/424/424 421/421/421 422/422/422
f 424/424/424 422/422/422 423/423/423
v 214.175339 0.000000 171.241150
v 214.175339 20.000000 171.241150
v 214.153336 20.000000 171.287384
v 214.153336 0.000000 171.287384
vn 0.903075 0.000000 0.429483
vn 0.903075 0.000000 0.429483
vn 0.903075 0.000000 0.429483
vn 0.903075 0.000000 0.429483
vt 0.000000 0.000000
vt 0.000000 -787.400024
vt 2.016207 -787.400024
vt 2.016207 0.000000
f 428/428/428 425/425/425 426/426/426
f 428/428/428 426/426/426 427/427/427
v 214.153336 0.000000 171.287384
v 214.153336 20.000000 171.287384
v 214.128250 20.000000 171.332031
v 214.128250 0.000000 171.332031
vn 0.871660 0.000000 0.490110
vn 0.871660 0.000000 0.490110
vn 0.871660 0.000000 0.490110
vn 0.871660 0.000000 0.490110
vt 0.000000 0.000000
vt 0.000000 -787.400024
vt 2.016207 -787.400024
vt 2.016207 0.000000
f 432/432/432 429/429/429 430/430/430
f 432/432/432 430/430/430 431/431/431
v 214.128250 0.000000 171.332031
v 214.128250 20.000000 171.332031
v 214.100159 20.000000 171.374847
v 214.100159 0.000000 171.374847
vn 0.836182 0.000000 0.548452
vn 0.836182 0.000000 0.548452
vn 0.836182 0.000000 0.548452
vn 0.836182 0.000000 0.548452
vt 0.000000 0.000000
vt 0.000000 -787.400024
vt 2.016207 -787.400024
vt 2.016207 0.000000
f 436/436/436 433/433/433 434/434/434
f 436/436/436 434/434/434 435/435/435
v 214.100159 0.000000 171.374847
v 214.100159 20.000000 171.374847
v 214.069214 20.000000 171.415665
v 214.069214 0.000000 171.415665
vn 0.796805 0.000000 0.604236
vn 0.796805 0.000000 0.604236
vn 0.796805 0.000000 0.604236
vn 0.796805 0.000000 0.604236
vt 0.000000 0.000000
vt 0.000000 -787.400024
vt 2.016207 -787.400024
vt 2.016207 0.000000
f 440/440/440 437/437/437 438/438/438
f 440/440/440 438/438/438 439/439/439
v 214.069214 0.000000 171.415665
v 214.069214 20.000000 171.415665
v 214.035553 20.000000 171.454254
v 214.035553 0.000000 171.454254
vn 0.753713 0.000000 0.657204
vn 0.753713 0.000000 0.657204
vn 0.753713 0.000000 0.657204
vn 0.753713 0.000000 0.657204
vt 0.000000 0.000000
vt 0.000000 -787.400024
vt 2.016207 -787.400024
vt 2.016207 0.000000
f 444/444/444 441/441/441 442/442/442
f 444/444/444 442/442/442 443/443/443
v 214.035553 0.000000 171.454254
v 214.035553 20.000000 171.454254
v 213.999344 20.000000 171.490463
v 213.999344 0.000000 171.490463
vn 0.707107 0.000000 0.707107
vn 0.707107 0.000000 0.707107
vn 0.707107 0.000000 0.707107
vn 0.707107 0.000000 0.707107
vt 0.000000 0.000000
vt 0.000000 -787.400024
vt 2.016207 -787.400024
vt 2.016207 0.000000
f 448/448/448 445/445/445 446/446/446
f 448/448/448 446/446/446 447/447/447
v 213.999344 0.000000 171.490463
v 213.999344 20.000000 171.490463
v 213.960739 20.000000 171.524124
v 213.960739 0.000000 171.524124
vn 0.657204 0.000000 0.753713
vn 0.657204 0.000000 0.753713
vn 0.657204 0.000000 0.753713
vn 0.657204 0.000000 0.753713
vt 0.000000 0.000000
vt 0.000000 -787.400024
vt 2.016207 -787.400024
vt 2.016207 0.000000
f 452/452/452 449/449/449 450/450/450
f 452/452/452 450/450/450 451/451/451
v 213.960739 0.000000 171.524124
v 213.960739 20.000000 171.524124
v 213.919937 20.000000 171.555069
v 213.919937 0.000000 171.555069
vn 0.604236 0.000000 0.796805
vn 0.604236 0.000000 0.796805
vn 0.604236 0.000000 0.796805
vn 0.604236 0.000000 0.796805
vt 0.000000 0.000000
vt 0.000000 -787.400024
vt 2.016207 -787.400024
vt 2.016207 0.000000
f 456/456/456 453/453/453 454/454/454
f 456/456/456 454/454/454 455/455/455
v 213.919937 0.000000 171.555069
v 213.919937 20.000000 171.555069
v 213.877121 20.000000 171.583160
v 213.877121 0.000000 171.583160
vn 0.548452 0.000000 0.836182
vn 0.548452 0.000000 0.836182
vn 0.548452 0.000000 0.836182
vn 0.548452 0.000000 0.836182
vt 0.000000 0.000000
vt 0.000000 -787.400024
vt 2.016207 -787.400024
vt 2.016207 0.000000
f 460/460/460 457/457/457 458/458/458
f 460/460/460 458/458/458 459/459/459
v 213.877121 0.000000 171.583160
v 213.877121 20.000000 171.583160
v 213.832474 20.000000 171.608261
v 213.832474 0.000000 171.608261
vn 0.490110 0.000000 0.871660
vn 0.490110 0.000000 0.871660
vn 0.490110 0.000000 0.871660
vn 0.490110 0.000000 0.871660
vt 0.000000 0.000000
vt 0.000000 -787.400024
vt 2.016207 -787.400024
vt 2.016207 0.000000
f 464/464/464 461/461/461 462/462/462
f 464/464/464 462/462/462 463/463/463
v 213.832474 0.000000 171.608261
v 213.832474 20.000000 171.608261
v 213.786224 20.000000 171.630249
v 213.786224 0.000000 171.630249
vn 0.429483 0.000000 0.903075
vn 0.429483 0.000000 0.903075
vn 0.429483 0.000000 0.903075
vn 0.429483 0.000000 0.903075
vt 0.000000 0.000000
vt 0.000000 -787.400024
vt 2.016207 -787.400024
vt 2.016207 0.000000
f 468/468/468 465/465/465 466/466/466
f 468/468/468 466/466/466 467/467/467
v 213.786224 0.000000 171.630249
v 213.786224 20.000000 171.630249
v 213.738586 20.000000 171.649033
v 213.738586 0.000000 171.649033
vn 0.366854 0.000000 0.930278
vn 0.366854 0.000000 0.930278
vn 0.366854 0.000000 0.930278
vn 0.366854 0.000000 0.930278
vt 0.000000 0.000000
vt 0.000000 -787.400024
vt 2.016207 -787.400024
vt 2.016207 0.000000
f 472/472/472 469/469/469 470/470/470
f 472/472/472 470/470/470 471/471/471
v 213.738586 0.000000 171.649033
v 213.738586 20.000000 171.649033
v 213.689774 20.000000 171.664536
v 213.689774 0.000000 171.664536
vn 0.302515 0.000000 0.953145
vn 0.302515 0.000000 0.953145
vn 0.302515 0.000000 0.953145
vn 0.302515 0.000000 0.953145
vt 0.000000 0.000000
vt 0.000000 -787.400024
vt 2.016207 -787.400024
vt 2.016207 0.000000
f 476/476/476 473/473/473 474/474/474
f 476/476/476 474/474/474 475/475/475
v 213.689774 0.000000 171.664536
v 213.689774 20.000000 171.664536
v 213.640015 20.000000 171.676651
v 213.640015 0.000000 171.676651
vn 0.236764 0.000000 0.971567
vn 0.236764 0.000000 0.971567
vn 0.236764 0.000000 0.971567
vn 0.236764 0.000000 0.971567
vt 0.000000 0.000000
vt 0.000000 -787.400024
vt 2.016207 -787.400024
vt 2.016207 0.000000
f 480/480/480 477/477/477 478/478/478
f 480/480/480 478/478/478 479/479/479
v 213.640015 0.000000 171.676651
v 213.640015 20.000000 171.676651
v 213.589554 20.000000 171.685364
v 213.589554 0.000000 171.685364
vn 0.169910 0.000000 0.985460
vn 0.169910 0.000000 0.985460
vn 0.169910 0.000000 0.985460
vn 0.169910 0.000000 0.985460
vt 0.000000 0.000000
vt 0.000000 -787.400024
vt 2.016207 -787.400024
vt 2.016207 0.000000
f 484/484/484 481/481/481 482/482/482
f 484/484/484 482/482/482 483/483/483
v 213.589554 0.000000 171.685364
v 213.589554 20.000000 171.685364
v 213.538605 20.000000 171.690598
v 213.538605 0.000000 171.690598
vn 0.102264 0.000000 0.994757
vn 0.102264 0.000000 0.994757
vn 0.102264 0.000000 0.994757
vn 0.102264 0.000000 0.994757
vt 0.000000 0.000000
vt 0.000000 -787.400024
vt 2.016207 -787.400024
vt 2.016207 0.000000
f 488/488/488 485/485/485 486/486/486
f 488/488/488 486/486/486 487/487/487
v 213.538605 0.000000 171.690598
v 213.538605 20.000000 171.690598
v 213.487427 20.000000 171.692337
v 213.487427 0.000000 171.692337
vn 0.034141 0.000000 0.999417
vn 0.034141 0.000000 0.999417
vn 0.034141 0.000000 0.999417
vn 0.034141 0.000000 0.999417
vt 0.000000 0.000000
vt 0.000000 -787.400024
vt 2.016207 -787.400024
vt 2.016207 0.000000
f 492/492/492 489/489/489 490/490/490
f 492/492/492 490/490/490 491/491/491
v 213.487427 0.000000 171.692337
v 213.487427 20.000000 171.692337
v 3.175006 20.000000 171.692337
v 3.175006 0.000000 171.692337
vn 0.000000 0.000000 1.000000
vn 0.000000 0.000000 1.000000
vn 0.000000 0.000000 1.000000
vn 0.000000 0.000000 1.000000
vt 0.000000 0.000000
vt 0.000000 -787.400024
vt 8280.000000 -787.400024
vt 8280.000000 0.000000
f 496/496/496 493/493/493 494/494/494
f 496/496/496 494/494/494 495/495/495
v 3.175006 0.000000 171.692337
v 3.175006 20.000000 171.692337
v 3.123824 20.000000 171.690598
v 3.123824 0.000000 171.690598
vn -0.034141 0.000000 0.999417
vn -0.034141 0.000000 0.999417
vn -0.034141 0.000000 0.999417
vn -0.034141 0.000000 0.999417
vt 0.000000 0.000000
vt 0.000000 -787.400024
vt 2.016207 -787.400024
vt 2.016207 0.000000
f 500/500/500 497/497/497 498/498/498
f 500/500/500 498/498/498 499/499/499
v 3.123824 0.000000 171.690598
v 3.123824 20.000000 171.690598
v 3.072881 20.000000 171.685364
v 3.072881 0.000000 171.685364
vn -0.102264 0.000000 0.994757
vn -0.102264 0.000000 0.994757
vn -0.102264 0.000000 0.994757
vn -0.102264 0.000000 0.994757
vt 0.000000 0.000000
vt 0.000000 -787.400024
vt 2.016207 -787.400024
vt 2.016207 0.000000
f 504/504/504 501/501/501 502/502/502
f 504/504/504 502/502/502 503/503/503
v 3.072881 0.000000 171.685364
v 3.072881 20.000000 171.685364
v 3.022414 20.000000 171.676651
v 3.022414 0.000000 171.676651
vn -0.169910 0.000000 0.985460
vn -0.169910 0.000000 0.985460
vn -0.169910 0.000000 0.985460
vn -0.169910 0.000000 0.985460
vt 0.000000 0.000000
vt 0.000000 -787.400024
vt 2.016207 -787.400024
vt 2.016207 0.000000
f 508/508/508 505/505/505 506/506/506
f 508/508/508 506/506/506 507/507/507
v 3.022414 0.000000 171.676651
v 3.022414 20.000000 171.676651
v 2.972658 20.000000 171.664536
v 2.972658 0.000000 171.664536
vn -0.236764 0.000000 0.971567
vn -0.236764 0.000000 0.971567
vn -0.236764 0.000000 0.971567
vn -0.236764 0.000000 0.971567
vt 0.000000 0.000000
vt 0.000000 -787.400024
vt 2.016207 -787.400024
vt 2.016207 0.000000
f 512/512/512 509/509/509 510/510/510
f 512/512/512 510/510/510 511/511/511
v 2.972658 0.000000 171.664536
v 2.972658 20.000000 171.664536
v 2.923846 20.000000 171.649033
v 2.923846 0.000000 171.649033
vn -0.302515 0.000000 0.953145
vn -0.302515 0.000000 0.953145
vn -0.302515 0.000000 0.953145
vn -0.302515 0.000000 0.953145
vt 0.000000 0.000000
vt 0.000000 -787.400024
vt 2.016207 -787.400024
vt 2.016207 0.000000
f 516/516/516 513/513/513 514/514/514
f 516/516/516 514/514/514 515/515/515
v 2.923846 0.000000 171.649033
v 2.923846 20.000000 171.649033
v 2.876205 20.000000 171.630249
v 2.876205 0.000000 171.630249
vn -0.366854 0.000000 0.930278
vn -0.366854 0.000000 0.930278
vn -0.366854 0.000000 0.930278
vn -0.366854 0.000000 0.930278
vt 0.000000 0.000000
vt 0.000000 -787.400024
vt 2.016207 -787.400024
vt 2.016207 0.000000
f 520/520/520 517/517/517 518/518/518
f 520/520/520 518/518/518 519/519/519
v 2.876205 0.000000 171.630249
v 2.876205 20.000000 171.630249
v 2.829957 20.000000 171.608261
v 2.829957 0.000000 171.608261
vn -0.429483 0.000000 0.903075
vn -0.429483 0.000000 0.903075
vn -0.429483 0.000000 0.903075
vn -0.429483 0.000000 0.903075
vt 0.000000 0.000000
vt 0.000000 -787.400024
vt 2.016207 -787.400024
vt 2.016207 0.000000
f 524/524/524 521/521/521 522/522/522
f 524/524/524 522/522/522 523/523/523
v 2.829957 0.000000 171.608261
v 2.829957 20.000000 171.608261
v 2.785318 20.000000 171.583160
v 2.785318 0.000000 171.583160
vn -0.490110 0.000000 0.871660
vn -0.490110 0.000000 0.871660
vn -0.490110 0.000000 0.871660
vn -0.490110 0.000000 0.871660
vt 0.000000 0.000000
vt 0.000000 -787.400024
vt 2.016207 -787.400024
vt 2.016207 0.000000
f 528/528/528 525/525/525 526/526/526
f 528/528/528 526/526/526 527/527/527
v 2.785318 0.000000 171.583160
v 2.785318 20.000000 171.583160
v 2.742495 20.000000 171.555069
v 2.742495 0.000000 171.555069
vn -0.548452 0.000000 0.836182
vn -0.548452 0.000000 0.836182
vn -0.548452 0.000000 0.836182
vn -0.548452 0.000000 0.836182
vt 0.000000 0.000000
vt 0.000000 -787.400024
vt 2.016207 -787.400024
vt 2.016207 0.000000
f 532/532/532 529/529/529 530/530/530
f 532/532/532 530/530/530 531/531/531
v 2.742495 0.000000 171.555069
v 2.742495 20.000000 171.555069
v 2.701689 20.000000 171.524124
v 2.701689 0.000000 171.524124
vn -0.604236 0.000000 0.796805
vn -0.604236 0.000000 0.796805
vn -0.604236 0.000000 0.796805
vn -0.604236 0.000000 0.796805
vt 0.000000 0.000000
vt 0.000000 -787.400024
vt 2.016207 -787.400024
vt 2.016207 0.000000
f 536/536/536 533/533/533 534/534/534
f 536/536/536 534/534/534 535/535/535
v 2.701689 0.000000 171.524124
v 2.701689 20.000000 171.524124
v 2.663090 20.000000 171.490463
v 2.663090 0.000000 171.490463
vn -0.657204 0.000000 0.753713
vn -0.657204 0.000000 0.753713
vn -0.657204 0.000000 0.753713
vn -0.657204 0.000000 0.753713
vt 0.000000 0.000000
vt 0.000000 -787.400024
vt 2.016207 -787.400024
vt 2.016207 0.000000
f 540/540/540 537/537/537 538/538/538
f 540/540/540 538/538/538 539/539/539
v 2.663090 0.000000 171.490463
v 2.663090 20.000000 171.490463
v 2.626878 20.000000 171.454254
v 2.626878 0.000000 171.454254
vn -0.707107 0.000000 0.707107
vn -0.707107 0.000000 0.707107
vn -0.707107 0.000000 0.707107
vn -0.707107 0.000000 0.707107
vt 0.000000 0.000000
vt 0.000000 -787.400024
vt 2.016207 -787.400024
vt 2.016207 0.000000
f 544/544/544 541/541/541 542/542/542
f 544/544/544 542/542/542 543/543/543
v 2.626878 0.000000 171.454254
v 2.626878 20.000000 171.454254
v 2.593222 20.000000 171.415665
v 2.593222 0.000000 171.415665
vn -0.753713 0.000000 0.657204
vn -0.753713 0.000000 0.657204
vn -0.753713 0.000000 0.657204
vn -0.753713 0.000000 0.657204
vt 0.000000 0.000000
vt 0.000000 -787.400024
vt 2.016207 -787.400024
vt 2.016207 0.000000
f 548/548/548 545/545/545 546/546/546
f 548/548/548 546/546/546 547/547/547
v 2.593222 0.000000 171.415665
v 2.593222 20.000000 171.415665
v 2.562278 20.000000 171.374847
v 2.562278 0.000000 171.374847
vn -0.796805 0.000000 0.604236
vn -0.796805 0.000000 0.604236
vn -0.796805 0.000000 0.604236
vn -0.796805 0.000000 0.604236
vt 0.000000 0.000000
vt 0.000000 -787.400024
vt 2.016207 -787.400024
vt 2.016207 0.000000
f 552/552/552 549/549/549 550/550/550
f 552/552/552 550/550/550 551/551/551
v 2.562278 0.000000 171.374847
v 2.562278 20.000000 171.374847
v 2.534190 20.000000 171.332031
v 2.534190 0.000000 171.332031
vn -0.836182 0.000000 0.548452
vn -0.836182 0.000000 0.548452
vn -0.836182 0.000000 0.548452
vn -0.836182 0.000000 0.548452
vt 0.000000 0.000000
vt 0.000000 -787.400024
vt 2.016207 -787.400024
vt 2.016207 0.000000
f 556/556/556 553/553/553 554/554/554
f 556/556/556 554/554/554 555/555/555
v 2.534190 0.000000 171.332031
v 2.534190 20.000000 171.332031
v 2.509091 20.000000 171.287384
v 2.509091 0.000000 171.287384
vn -0.871660 0.000000 0.490110
vn -0.871660 0.000000 0.490110
vn -0.871660 0.000000 0.490110
vn -0.871660 0.000000 0.490110
vt 0.000000 0.000000
vt 0.000000 -787.400024
vt 2.016207 -787.400024
vt 2.016207 0.000000
f 560/560/560 557/557/557 558/558/558
f 560/560/560 558/558/558 559/559/559
v 2.509091 0.000000 171.287384
v 2.509091 20.000000 171.287384
v 2.487097 20.000000 171.241150
v 2.487097 0.000000 171.241150
vn -0.903075 0.000000 0.429483
vn -0.903075 0.000000 0.429483
vn -0.903075 0.000000 0.429483
vn -0.903075 0.000000 0.429483
vt 0.000000 0.000000
vt 0.000000 -787.400024
vt 2.016207 -787.400024
vt 2.016207 0.000000
f 564/564/564 561/561/561 562/562/562
f 564/564/564 562/562/562 563/563/563
v 2.487097 0.000000 171.241150
v 2.487097 20.000000 171.241150
v 2.468309 20.000000 171.193497
v 2.468309 0.000000 171.193497
vn -0.930278 0.000000 0.366854
vn -0.930278 0.000000 0.366854
vn -0.930278 0.000000 0.366854
vn -0.930278 0.000000 0.366854
vt 0.000000 0.000000
vt 0.000000 -787.400024
vt 2.016207 -787.400024
vt 2.016207 0.000000
f 568/568/568 565/565/565 566/566/566
f 568/568/568 566/566/566 567/567/567
v 2.468309 0.000000 171.193497
v 2.468309 20.000000 171.193497
v 2.452817 20.000000 171.144684
v 2.452817 0.000000 171.144684
vn -0.953145 0.000000 0.302515
vn -0.953145 0.000000 0.302515
vn -0.953145 0.000000 0.302515
vn -0.953145 0.000000 0.302515
vt 0.000000 0.000000
vt 0.000000 -787.400024
vt 2.016207 -787.400024
vt 2.016207 0.000000
f 572/572/572 569/569/569 570/570/570
f 572/572/572 570/570/570 571/571/571
v 2.452817 0.000000 171.144684
v 2.452817 20.000000 171.144684
v 2.440692 20.000000 171.094940
v 2.440692 0.000000 171.094940
vn -0.971567 0.000000 0.236764
vn -0.971567 0.000000 0.236764
vn -0.971567 0.000000 0.236764
vn -0.971567 0.000000 0.236764
vt 0.000000 0.000000
vt 0.000000 -787.400024
vt 2.016207 -787.400024
vt 2.016207 0.000000
f 576/576/576 573/573/573 574/574/574
f 576/576/576 574/574/574 575/575/575
v 2.440692 0.000000 171.094940
v 2.440692 20.000000 171.094940
v 2.431990 20.000000 171.044464
v 2.431990 0.000000 171.044464
vn -0.985460 0.000000 0.169910
vn -0.985460 0.000000 0.169910
vn -0.985460 0.000000 0.169910
vn -0.985460 0.000000 0.169910
vt 0.000000 0.000000
vt 0.000000 -787.400024
vt 2.016207 -787.400024
vt 2.016207 0.000000
f 580/580/580 577/577/577 578/578/578
f 580/580/580 578/578/578 579/579/579
v 212.737427 1.500003 3.036006
v 212.737427 1.500003 170.192337
v 212.737427 20.000000 3.036006
v 212.737427 20.000000 170.192337
vn -1.000000 0.000000 0.000000
vn -1.000000 0.000000 0.000000
vn -1.000000 0.000000 0.000000
vn -1.000000 0.000000 0.000000
vt 0.000000 0.000000
vt 6580.944824 0.000000
vt 0.000000 -728.344910
vt 6580.944824 -728.344910
f 584/584/584 583/583/583 581/581/581
f 582/582/582 584/584/584 581/581/581
v 212.737427 1.500003 170.192337
v 3.925008 1.500003 170.192337
v 212.737427 20.000000 170.192337
v 3.925008 20.000000 170.192337
vn 0.000000 0.000000 -1.000000
vn 0.000000 0.000000 -1.000000
vn 0.000000 0.000000 -1.000000
vn 0.000000 0.000000 -1.000000
vt 0.000000 0.000000
vt 8220.945312 0.000000
vt 0.000000 -728.344910
vt 8220.945312 -728.344910
f 586/586/586 587/587/587 585/585/585
f 586/586/586 588/588/588 587/587/587
v 3.925008 1.500003 170.192337
v 3.925008 1.500003 3.036006
v 3.925008 20.000000 170.192337
v 3.925008 20.000000 3.036006
vn 1.000000 0.000000 0.000000
vn 1.000000 0.000000 0.000000
vn 1.000000 0.000000 0.000000
vn 1.000000 0.000000 0.000000
vt 0.000000 0.000000
vt 6580.944824 0.000000
vt 0.000000 -728.344910
vt 6580.944824 -728.344910
f 590/590/590 591/591/591 589/589/589
f 590/590/590 592/592/592 591/591/591
v 3.925008 1.500003 3.036006
v 212.737427 1.500003 3.036006
v 3.925008 20.000000 3.036006
v 212.737427 20.000000 3.036006
vn 0.000000 0.000000 1.000000
vn 0.000000 0.000000 1.000000
vn 0.000000 0.000000 1.000000
vn 0.000000 0.000000 1.000000
vt 0.000000 0.000000
vt 8220.945312 0.000000
vt 0.000000 -728.344910
vt 8220.945312 -728.344910
f 594/594/594 595/595/595 593/593/593
f 594/594/594 596/596/596 595/595/595
v 212.737427 1.500003 3.036006
v 212.737427 1.500003 170.192337
v 3.925008 1.500003 170.192337
v 3.925008 1.500003 3.036006
vn 0.000000 1.000000 0.000000
vn 0.000000 1.000000 0.000000
vn 0.000000 1.000000 0.000000
vn 0.000000 1.000000 0.000000
vt -4110.472656 3290.472412
vt -4110.472656 -3290.472412
vt 4110.472656 -3290.472412
vt 4110.472656 3290.472412
f 599/599/599 598/598/598 597/597/597
f 600/600/600 599/599/599 597/597/597
